<svg viewBox="0 0 10 8" fill="none" xmlns="http://www.w3.org/2000/svg">
<path d="M9.40325 3.19492C9.37395 3.17861 9.3408 3.1705 9.30728 3.17142C9.27376 3.17234 9.24111 3.18228 9.21275 3.20017L5.894 5.50867C5.62558 5.67531 5.31593 5.76361 5 5.76361C4.68406 5.76361 4.37442 5.67531 4.106 5.50867L0.78725 3.20017C0.758861 3.18234 0.726209 3.17244 0.692694 3.17151C0.65918 3.17058 0.62603 3.17865 0.596696 3.19489C0.567363 3.21113 0.54292 3.23493 0.525913 3.26383C0.508906 3.29272 0.499958 3.32565 0.5 3.35917V6.53842C0.5 6.83679 0.618526 7.12294 0.829505 7.33392C1.04048 7.5449 1.32663 7.66342 1.625 7.66342H8.375C8.67337 7.66342 8.95951 7.5449 9.17049 7.33392C9.38147 7.12294 9.5 6.83679 9.5 6.53842V3.35917C9.50011 3.32563 9.49118 3.29268 9.47416 3.26377C9.45714 3.23487 9.43264 3.21109 9.40325 3.19492Z" fill="currentColor"/>
<path d="M9.5 1.66346C9.5 1.36509 9.38147 1.07894 9.17049 0.867966C8.95952 0.656988 8.67337 0.538462 8.375 0.538462H1.625C1.32663 0.538462 1.04048 0.656988 0.829505 0.867966C0.618526 1.07894 0.5 1.36509 0.5 1.66346C0.499986 1.67292 0.50239 1.68223 0.506985 1.6905C0.511579 1.69877 0.51821 1.70573 0.52625 1.71071L4.7 4.55471C4.78938 4.61027 4.89251 4.63971 4.99775 4.63971C5.10299 4.63971 5.20612 4.61027 5.2955 4.55471L9.4715 1.71071C9.47991 1.70595 9.48695 1.6991 9.49194 1.69082C9.49693 1.68255 9.49971 1.67312 9.5 1.66346Z" fill="currentColor"/>
</svg>
