<svg viewBox="0 0 10 10" fill="none" xmlns="http://www.w3.org/2000/svg">
<path fill-rule="evenodd" clip-rule="evenodd" d="M0.5 5C0.5 3.20243 0.5 2.30365 0.928346 1.65628C1.11962 1.36719 1.36719 1.11962 1.65628 0.928346C2.30365 0.5 3.20243 0.5 5 0.5C6.79757 0.5 7.69635 0.5 8.34372 0.928346C8.63281 1.11962 8.88038 1.36719 9.07165 1.65628C9.5 2.30365 9.5 3.20243 9.5 5C9.5 6.79757 9.5 7.69635 9.07165 8.34372C8.88038 8.63281 8.63281 8.88038 8.34372 9.07165C7.69635 9.5 6.79757 9.5 5 9.5C3.20243 9.5 2.30365 9.5 1.65628 9.07165C1.36719 8.88038 1.11962 8.63281 0.928346 8.34372C0.5 7.69635 0.5 6.79757 0.5 5ZM7.32963 5.00011C7.32963 6.28677 6.28658 7.32982 4.99992 7.32982C3.71326 7.32982 2.67022 6.28677 2.67022 5.00011C2.67022 3.71345 3.71326 2.67041 4.99992 2.67041C6.28658 2.67041 7.32963 3.71345 7.32963 5.00011ZM4.99992 6.54162C5.85127 6.54162 6.54142 5.85146 6.54142 5.00011C6.54142 4.14877 5.85127 3.45861 4.99992 3.45861C4.14857 3.45861 3.45842 4.14877 3.45842 5.00011C3.45842 5.85146 4.14857 6.54162 4.99992 6.54162ZM7.42164 3.10077C7.72396 3.10077 7.96905 2.85569 7.96905 2.55336C7.96905 2.25104 7.72396 2.00595 7.42164 2.00595C7.11931 2.00595 6.87423 2.25104 6.87423 2.55336C6.87423 2.85569 7.11931 3.10077 7.42164 3.10077Z" fill="currentColor"/>
</svg>
