<svg viewBox="0 0 10 8" fill="none" xmlns="http://www.w3.org/2000/svg">
<path d="M5.21938 7.48996L3.18828 7.452C2.53066 7.43877 1.8714 7.46517 1.22667 7.32813C0.245885 7.12338 0.176403 6.11943 0.103697 5.2773C0.00351591 4.09338 0.042299 2.88797 0.231354 1.71394C0.338081 1.05518 0.758097 0.662093 1.40764 0.619318C3.60031 0.464081 5.80757 0.482478 7.99538 0.554902C8.22645 0.561541 8.45909 0.597829 8.68693 0.639134C9.81159 0.840593 9.83901 1.97829 9.91192 2.93602C9.98462 3.90363 9.95393 4.87621 9.81496 5.83723C9.70347 6.63293 9.49017 7.30021 8.58997 7.36462C7.46209 7.44885 6.3601 7.51667 5.22905 7.49508C5.2291 7.48996 5.2226 7.48996 5.21938 7.48996ZM4.02529 5.47547C4.87524 4.97676 5.70898 4.48637 6.55407 3.99101C5.70253 3.4923 4.87038 3.00191 4.02529 2.50655V5.47547Z" fill="currentColor"/>
</svg>
