<svg width="174" height="200" viewBox="0 0 174 200" fill="none" xmlns="http://www.w3.org/2000/svg">
<path opacity="0.8" d="M163.954 17.543H123.333L113.618 3.97186C111.839 1.47682 108.955 0 105.893 0H67.86C64.798 0 61.9226 1.47682 60.1351 3.97186L50.4208 17.543H9.79167C4.75578 17.543 0.675781 21.6237 0.675781 26.6604C0.675781 31.6972 4.76355 35.7779 9.79167 35.7779H163.954C168.99 35.7779 173.07 31.6972 173.07 26.6604C173.07 21.6237 168.982 17.543 163.954 17.543Z" fill="#2CA926"/>
<path d="M154.697 47.9888H19.0621C16.3265 47.9888 14.2127 50.3828 14.5313 53.0955L30.284 184.385C31.3564 193.3 38.9103 200 47.8863 200H125.865C134.841 200 142.395 193.292 143.467 184.385L159.22 53.0955C159.546 50.3828 157.425 47.9888 154.697 47.9888ZM58.611 173.565H58.5721C58.3156 173.588 58.067 173.604 57.8183 173.604C54.0336 173.604 50.8784 170.759 50.4743 166.997L41.4671 82.5696C41.0319 78.52 43.9773 74.8669 48.034 74.4316C52.184 74.0896 55.7355 76.9577 56.1707 80.9995L65.1778 165.427C65.613 169.476 62.6677 173.13 58.611 173.565ZM94.2664 166.212C94.2664 170.285 90.948 173.596 86.8757 173.596C82.8035 173.596 79.4851 170.285 79.4851 166.212V81.7846C79.4851 77.7039 82.7957 74.3927 86.8757 74.3927C90.9557 74.3927 94.2664 77.7039 94.2664 81.7846V166.212ZM132.292 82.5696L123.277 166.997C122.873 170.767 119.718 173.604 115.933 173.604C115.684 173.604 115.436 173.588 115.179 173.565C111.092 173.13 108.146 169.476 108.574 165.427L117.588 80.9995C118.024 76.9422 121.567 74.0274 125.686 74.4316C129.774 74.8669 132.719 78.52 132.284 82.5696H132.292Z" fill="#243447"/>
</svg>
