<svg width="259" height="168" viewBox="0 0 259 168" fill="none" xmlns="http://www.w3.org/2000/svg">
<path opacity="0.8" d="M250.868 2.72481H113.198C108.798 2.72481 105.149 6.37343 105.149 10.7751V68.105C107.618 67.2433 110.249 66.8163 112.88 66.8163C115.783 66.8163 118.624 67.3519 121.255 68.3223V18.8253H242.819V151.146H121.255V113.783L105.149 121.996V159.196C105.149 163.652 108.798 167.246 113.198 167.246H250.868C255.324 167.246 258.917 163.652 258.917 159.196V10.7673C258.917 6.36565 255.316 2.71704 250.868 2.71704V2.72481Z" fill="#E53935"/>
<path d="M124.864 84.8505C121.496 78.2519 113.416 75.628 106.818 78.9971L81.7324 91.7983C81.7324 91.7983 55.032 73.6873 52.2844 71.8474C49.5445 70.0076 46.2612 68.1289 44.2276 67.4846C35.3637 64.7055 12.4898 62.5706 6.13291 77.5299C-0.588761 93.3432 0.552306 134.239 0.792919 163.482C0.816205 166.044 2.46941 168 5.01526 168H53.3554C56.2893 168 57.345 166.393 57.6865 164.033C57.9038 162.519 60.6203 129.418 60.4651 114.87C60.4496 113.317 60.4651 111.61 60.4962 109.824L73.2488 118.464C75.5153 119.994 78.1385 120.77 80.7697 120.77C82.8499 120.77 84.9458 120.289 86.8707 119.303L119.012 102.907C125.617 99.5381 128.233 91.4568 124.864 84.8505Z" fill="#243447"/>
<path d="M34.0446 58.6574C50.2434 58.6574 63.3683 45.5223 63.3683 29.3287C63.3683 13.135 50.2434 0 34.0446 0C17.8459 0 4.72852 13.135 4.72852 29.3287C4.72852 45.5223 17.8536 58.6574 34.0446 58.6574Z" fill="#243447"/>
<path opacity="0.8" d="M154.763 112.315C156.338 113.883 158.395 114.675 160.452 114.675C162.509 114.675 164.574 113.891 166.142 112.315L182.053 96.4012L197.965 112.315C199.54 113.891 201.597 114.675 203.654 114.675C205.711 114.675 207.775 113.891 209.351 112.315C212.495 109.171 212.495 104.071 209.351 100.927L193.432 85.0128L209.351 69.0986C212.495 65.9546 212.495 60.8543 209.351 57.7103C206.208 54.5663 201.108 54.5663 197.965 57.7103L182.053 73.6245L166.142 57.7103C162.998 54.5663 157.899 54.5663 154.755 57.7103C151.612 60.8543 151.612 65.9546 154.755 69.0986L170.667 85.0128L154.755 100.927C151.612 104.071 151.612 109.171 154.755 112.315H154.763Z" fill="#E53935"/>
</svg>
