<svg width="187" height="200" viewBox="0 0 187 200" fill="none" xmlns="http://www.w3.org/2000/svg">
<path d="M15.6258 107.33C15.6258 64.4176 50.5324 29.498 93.4374 29.498H114.348V37.6042C114.348 39.7198 115.5 41.6535 117.35 42.6696C118.215 43.1398 119.17 43.3748 120.117 43.3748C121.202 43.3748 122.286 43.0715 123.233 42.4649L148.056 26.5406C149.717 25.479 150.71 23.6591 150.717 21.6951C150.717 19.716 149.731 17.9036 148.071 16.8344L123.256 0.917751C121.474 -0.219696 119.23 -0.310691 117.373 0.705428C115.523 1.72155 114.37 3.65521 114.37 5.77086V13.8771H93.4526C41.9196 13.8771 0 55.8033 0 107.345C0 111.66 3.51039 115.163 7.81681 115.163C12.1232 115.163 15.6336 111.66 15.6336 107.345L15.6258 107.33Z" fill="#243447"/>
<path opacity="0.8" d="M184.972 88.3343C184.214 84.6489 180.938 82.1086 177.299 82.1086C176.776 82.1086 176.253 82.1617 175.722 82.2679C171.507 83.1399 168.785 87.2878 169.657 91.5115C170.339 94.8177 170.809 98.1997 171.059 101.567C171.363 105.631 174.782 108.816 178.846 108.816L179.43 108.793C183.729 108.475 186.966 104.721 186.655 100.422C186.359 96.4025 185.791 92.3381 184.964 88.3494L184.972 88.3343Z" fill="#E53935"/>
<path opacity="0.8" d="M159.686 66.4951C161.877 70.0515 166.858 71.2572 170.445 69.043C172.226 67.9511 173.47 66.2221 173.947 64.1899C174.433 62.1501 174.091 60.0572 172.992 58.2828C170.862 54.8325 168.489 51.496 165.941 48.3567C164.622 46.7415 162.757 45.7254 160.679 45.513C160.406 45.4827 160.133 45.4675 159.861 45.4675C158.071 45.4675 156.35 46.0818 154.94 47.2268C153.317 48.5462 152.309 50.4192 152.097 52.4894C151.884 54.5671 152.491 56.5993 153.81 58.2221C155.926 60.8231 157.904 63.606 159.686 66.4951Z" fill="#E53935"/>
<path opacity="0.8" d="M177.996 122.935C177.299 122.746 176.601 122.655 175.919 122.655C172.492 122.655 169.338 124.922 168.367 128.38C167.473 131.595 166.343 134.81 165.016 137.927C163.325 141.893 165.175 146.496 169.141 148.187C173.045 149.847 177.754 147.921 179.399 144.062C180.999 140.316 182.356 136.448 183.432 132.558C183.993 130.549 183.735 128.441 182.704 126.621C181.681 124.801 180.005 123.489 177.989 122.928L177.996 122.935Z" fill="#E53935"/>
<path opacity="0.8" d="M156.016 157.999C155.925 157.999 155.834 157.999 155.736 157.999C153.651 158.075 151.725 158.954 150.3 160.479C148.002 162.943 145.515 165.279 142.9 167.417C139.571 170.155 139.094 175.091 141.831 178.428C144.461 181.628 149.625 182.136 152.839 179.497C155.97 176.919 158.958 174.113 161.717 171.155C164.659 168.009 164.493 163.049 161.346 160.107C159.883 158.742 157.995 157.999 156.009 157.999H156.016Z" fill="#E53935"/>
<path opacity="0.8" d="M82.8081 184.433C79.4267 183.963 76.0828 183.281 72.8682 182.401C72.1783 182.212 71.4885 182.121 70.791 182.121C69.449 182.121 68.1222 182.469 66.9242 183.152C65.1122 184.191 63.8081 185.867 63.2622 187.884C62.1249 192.047 64.5892 196.354 68.7516 197.491C72.6258 198.553 76.6363 199.364 80.6698 199.925C84.9611 200.524 88.9037 197.446 89.4799 193.252C89.768 191.182 89.2299 189.127 87.9713 187.467C86.7127 185.806 84.8779 184.729 82.8081 184.441V184.433Z" fill="#E53935"/>
<path opacity="0.8" d="M40.6616 164.536C39.2059 163.186 37.3332 162.45 35.3544 162.45C35.2482 162.45 35.1423 162.45 35.0438 162.45C32.9588 162.534 31.0329 163.421 29.6151 164.953C28.1973 166.485 27.4617 168.479 27.5376 170.564C27.621 172.65 28.5082 174.583 30.0397 176.001C33.0042 178.754 36.1885 181.332 39.5017 183.675C42.9059 186.087 47.9934 185.199 50.3968 181.81C52.8836 178.291 52.0496 173.4 48.5317 170.913C45.7719 168.957 43.1258 166.811 40.6542 164.528L40.6616 164.536Z" fill="#E53935"/>
<path opacity="0.8" d="M20.2507 133.817C19.538 131.853 18.105 130.283 16.2096 129.396C15.1557 128.903 14.0337 128.653 12.9041 128.653C12.0094 128.653 11.1072 128.812 10.2353 129.123C6.17905 130.594 4.07877 135.083 5.54963 139.14C6.92192 142.932 8.56731 146.693 10.44 150.302C12.3582 154.003 17.2333 155.588 20.9863 153.639C24.8075 151.652 26.3086 146.92 24.3222 143.099C22.7831 140.134 21.4107 137.01 20.2507 133.817Z" fill="#E53935"/>
<path opacity="0.8" d="M125.446 181.006C124.377 180.498 123.24 180.248 122.095 180.248C121.208 180.248 120.329 180.399 119.472 180.703C116.273 181.84 112.99 182.773 109.722 183.47C107.675 183.91 105.924 185.108 104.794 186.86C103.657 188.612 103.27 190.704 103.71 192.744C104.589 196.877 108.865 199.66 112.982 198.765C116.947 197.923 120.897 196.801 124.719 195.436C126.69 194.731 128.267 193.305 129.161 191.425C130.056 189.544 130.162 187.421 129.465 185.449C128.76 183.485 127.334 181.908 125.446 181.006Z" fill="#E53935"/>
<path d="M135.933 63.9854H109.23V60.6489C109.23 56.9635 106.243 53.9683 102.551 53.9683H89.1994C85.5147 53.9683 82.5199 56.956 82.5199 60.6489V63.9854H55.8172C52.1325 63.9854 49.1377 66.9731 49.1377 70.666C49.1377 74.3589 52.1249 77.339 55.8172 77.339H135.933C139.618 77.339 142.613 74.3513 142.613 70.666C142.613 66.9807 139.626 63.9854 135.933 63.9854Z" fill="#243447"/>
<path d="M55.8253 84.0198L62.6185 152.919C63.1492 158.333 67.6983 162.451 73.1344 162.451H118.625C124.061 162.451 128.61 158.325 129.141 152.919L135.934 84.0198H55.8179H55.8253ZM109.231 104.046C109.231 102.204 110.725 100.71 112.567 100.71C114.41 100.71 115.903 102.204 115.903 104.046V142.416C115.903 144.259 114.41 145.753 112.567 145.753C110.725 145.753 109.231 144.259 109.231 142.416V104.046ZM92.5437 104.046C92.5437 102.204 94.0372 100.71 95.8796 100.71C97.722 100.71 99.2155 102.204 99.2155 104.046V142.416C99.2155 144.259 97.722 145.753 95.8796 145.753C94.0372 145.753 92.5437 144.259 92.5437 142.416V104.046ZM75.8487 104.046C75.8487 102.204 77.3423 100.71 79.1846 100.71C81.027 100.71 82.5205 102.204 82.5205 104.046V142.416C82.5205 144.259 81.027 145.753 79.1846 145.753C77.3423 145.753 75.8487 144.259 75.8487 142.416V104.046Z" fill="#243447"/>
</svg>
