<svg width="206" height="200" viewBox="0 0 206 200" fill="none" xmlns="http://www.w3.org/2000/svg">
<path d="M189.312 24.3159H173.361C174.598 26.5457 175.178 29.0854 175.073 31.6931C175.042 32.6908 174.899 33.6508 174.665 34.6107H189.32C192.712 34.6107 195.479 37.3923 195.479 40.7861V139.403H10.72V40.7861C10.72 37.3847 13.4941 34.6107 16.8789 34.6107H31.5335C30.6741 31.1791 31.0887 27.4678 32.8376 24.3159H16.8862C7.81752 24.3159 0.452637 31.6931 0.452637 40.7936V152.562C0.452637 161.625 7.80998 169.04 16.8862 169.04H87.5139L84.2269 189.705H71.2533C68.4114 189.705 66.1196 192.003 66.1196 194.853C66.1196 197.702 68.4114 200 71.2533 200H134.961C137.803 200 140.094 197.702 140.094 194.853C140.094 192.003 137.803 189.705 134.961 189.705H121.987L118.663 169.04H189.32C198.359 169.04 205.754 161.625 205.754 152.562V40.7936C205.754 31.7007 198.359 24.3159 189.32 24.3159H189.312Z" fill="#243447"/>
<path opacity="0.8" d="M49.1658 34.7997C62.9837 19.675 82.6362 10.9978 103.088 10.9978C123.54 10.9978 143.192 19.675 157.01 34.7997C158.096 35.9864 159.573 36.5835 161.058 36.5835C162.385 36.5835 163.712 36.1073 164.767 35.1398C166.999 33.0914 167.149 29.607 165.106 27.3697C149.215 9.96982 126.616 0 103.096 0C79.5758 0 56.9755 9.97738 41.0845 27.3697C39.034 29.607 39.1925 33.0914 41.4239 35.1398C43.6552 37.1882 47.1303 37.0371 49.1732 34.7997H49.1658Z" fill="#E53935"/>
<path opacity="0.8" d="M139.454 52.2146C140.54 53.4543 142.055 54.0967 143.585 54.0967C144.867 54.0967 146.156 53.6507 147.196 52.7361C149.473 50.7407 149.706 47.2562 147.716 44.9735C136.469 32.0785 120.201 24.6787 103.081 24.6787C85.9616 24.6787 69.7013 32.0785 58.4464 44.9735C56.4488 47.2637 56.6824 50.7407 58.9665 52.7361C61.2431 54.7316 64.7108 54.5049 66.7085 52.2146C75.8752 41.7007 89.1277 35.6765 103.081 35.6765C117.035 35.6765 130.287 41.7007 139.454 52.2146Z" fill="#E53935"/>
<path opacity="0.8" d="M121.806 69.4935C122.892 70.8767 124.497 71.6023 126.126 71.6023C127.309 71.6023 128.5 71.2244 129.503 70.4307C131.885 68.5562 132.307 65.102 130.438 62.7059C123.811 54.2176 113.838 49.3574 103.081 49.3574C92.3234 49.3574 82.38 54.21 75.7312 62.6681C73.8541 65.0566 74.2687 68.5108 76.6433 70.3929C79.0179 72.2674 82.4706 71.8593 84.3477 69.4708C88.9009 63.6809 95.7231 60.3552 103.073 60.3552C110.423 60.3552 117.26 63.6809 121.791 69.4859L121.806 69.4935Z" fill="#E53935"/>
<path opacity="0.8" d="M92.8584 84.2858C92.8584 89.9471 97.4492 94.5428 103.088 94.5428C108.727 94.5428 113.318 89.9396 113.318 84.2858C113.318 78.6319 108.727 74.0288 103.088 74.0288C97.4492 74.0288 92.8584 78.6319 92.8584 84.2858Z" fill="#E53935"/>
</svg>
