<svg width="204" height="200" viewBox="0 0 204 200" fill="none" xmlns="http://www.w3.org/2000/svg">
<path d="M17.21 158.959C13.9066 158.959 11.1902 156.245 11.1902 152.944V62.5987H172.739V104.594C176.389 105.429 179.873 106.677 183.176 108.211V33.6115C183.176 24.5357 175.802 17.1667 166.757 17.1667H145.537V5.10565C145.537 2.28589 143.242 0 140.39 0H124.077C121.255 0 118.96 2.29341 118.96 5.10565V17.1667H64.9696V5.10565C64.9696 2.28589 62.7046 0 59.8602 0H43.5466C40.7324 0 38.4299 2.29341 38.4299 5.10565V17.1667H17.21C8.12758 17.1667 0.753418 24.5357 0.753418 33.6115V152.951C0.753418 162.027 8.12758 169.396 17.21 169.396H108.041C107.244 166.028 106.717 162.554 106.619 158.967H17.2175L17.21 158.959Z" fill="#243447"/>
<path d="M61.5831 81.2393C61.5831 77.442 58.4905 74.3516 54.6829 74.3516H35.4797C31.6797 74.3516 28.5796 77.442 28.5796 81.2393V97.0901C28.5796 100.887 31.6722 103.978 35.4797 103.978H54.6829C58.4829 103.978 61.5831 100.887 61.5831 97.0901V81.2393Z" fill="#243447"/>
<path d="M35.4885 117.58H54.6917C58.4992 117.58 61.592 120.671 61.592 124.476V140.319C61.592 144.124 58.4992 147.214 54.6917 147.214H35.4885C31.681 147.214 28.5884 144.124 28.5884 140.319V124.476C28.5884 120.671 31.681 117.58 35.4885 117.58Z" fill="#243447"/>
<path d="M82.3659 74.3516H101.569C105.377 74.3516 108.469 77.442 108.469 81.2468V97.0901C108.469 100.895 105.376 103.978 101.576 103.978H82.3737C78.5661 103.978 75.4731 100.887 75.4731 97.0826V81.2393C75.4731 77.4345 78.5659 74.3516 82.3659 74.3516Z" fill="#243447"/>
<path d="M82.3737 117.58H101.576C105.384 117.58 108.477 120.671 108.477 124.476V140.319C108.477 144.124 105.384 147.214 101.576 147.214H82.3737C78.5661 147.214 75.4731 144.124 75.4731 140.319V124.476C75.4731 120.671 78.5661 117.58 82.3737 117.58Z" fill="#243447"/>
<path d="M129.262 74.3516H148.465C152.273 74.3516 155.358 77.442 155.358 81.2393V97.0826C155.358 100.887 152.265 103.978 148.458 103.978H129.255C125.447 103.978 122.362 100.887 122.362 97.0901V81.2468C122.362 77.442 125.454 74.3516 129.262 74.3516Z" fill="#243447"/>
<path opacity="0.8" d="M160.262 113.512C136.364 113.512 116.988 132.875 116.988 156.756C116.988 180.638 136.364 200 160.262 200C184.161 200 203.537 180.645 203.537 156.756C203.537 132.867 184.161 113.512 160.262 113.512ZM182.385 151.853L159.096 175.118C157.787 176.434 155.973 177.186 154.115 177.186C152.256 177.186 150.443 176.434 149.126 175.118L136.996 162.99C134.249 160.245 134.249 155.771 136.996 153.026C138.328 151.696 140.096 150.959 141.977 150.959C143.859 150.959 145.627 151.696 146.959 153.026L154.107 160.17L172.415 141.883C173.747 140.552 175.515 139.822 177.396 139.822C179.278 139.822 181.046 140.552 182.378 141.883C185.124 144.635 185.124 149.101 182.378 151.853H182.385Z" fill="#2CA926"/>
</svg>
