<svg width="275" height="200" viewBox="0 0 275 200" fill="none" xmlns="http://www.w3.org/2000/svg">
<path opacity="0.8" d="M189.054 121.155L200.197 107.987C198.677 106.128 196.402 104.949 193.779 104.949H123.785C119.144 104.949 115.341 108.751 115.341 113.392C115.341 118.033 119.144 121.835 123.785 121.835H188.548C188.714 121.586 188.888 121.412 189.054 121.163V121.155Z" fill="#E53935"/>
<path opacity="0.8" d="M115.341 149.946C115.341 154.587 119.144 158.39 123.785 158.39H175.545C175.629 157.543 175.803 156.704 175.969 155.774L179.431 141.503H123.793C119.152 141.503 115.349 145.305 115.349 149.946H115.341Z" fill="#E53935"/>
<path d="M226.959 76.3146L239.438 61.5534C240.708 60.0175 242.253 58.6974 243.83 57.6015V33.3509C243.83 29.7063 240.882 26.759 237.237 26.759H134.29C133.41 31.9894 131.957 37.7013 129.765 43.6705H226.959V76.3146Z" fill="#243447"/>
<path d="M226.958 162.516V183.122H90.6156V118.539C87.4106 120.872 83.5414 122.142 79.4979 122.142C77.5218 122.142 75.5459 121.835 73.6943 121.221V193.408C73.6943 197.053 76.6418 200 80.2868 200H237.236C240.881 200 243.829 197.053 243.829 193.408V143.72L232.097 157.559C230.511 159.403 228.801 161.113 226.958 162.524V162.516Z" fill="#243447"/>
<path d="M194.742 163.753L211.173 156.688C214.345 155.326 217.109 153.259 219.592 150.884L197.664 132.346C195.73 135.185 194.152 138.257 193.339 141.611L189.104 158.987C188.299 162.292 191.611 165.098 194.742 163.753Z" fill="#243447"/>
<path d="M271.146 76.1567L262.917 69.1995C258.99 65.8787 253.112 66.3685 249.782 70.2954L206.125 121.81L228.577 140.797L272.233 89.2824C275.554 85.3555 275.064 79.4776 271.137 76.1484L271.146 76.1567Z" fill="#243447"/>
<path d="M83.2354 106.983L92.7091 97.4767C99.8164 90.3701 99.7997 81.4785 98.7867 75.7998C98.1059 71.9808 99.2519 68.029 101.718 65.0402C123.322 38.8884 122.624 13.077 121.528 4.16051C121.279 2.168 119.735 0.632099 117.742 0.399639C108.833 -0.646433 82.9946 -1.25249 56.9401 20.4825C53.9843 22.9483 50.0569 24.1023 46.2708 23.4215C40.6331 22.417 31.7576 22.4169 24.5673 29.5983L15.0935 39.1043C12.4947 41.7112 13.3002 46.103 16.6463 47.6306L32.2475 54.7372L23.9944 66.1942C21.8357 69.1913 22.1678 73.3175 24.7915 75.9243L46.3539 97.402C48.9693 100.009 53.0961 100.333 56.0851 98.1658L67.5263 89.8719L74.7168 105.463C76.2528 108.801 80.6534 109.581 83.2439 106.974L83.2354 106.983ZM74.1687 30.2957C79.0093 25.4306 86.897 25.3974 91.7791 30.2625C96.6446 35.1026 96.6363 42.9897 91.7957 47.8547C86.9551 52.7198 79.0842 52.7281 74.227 47.888C69.3449 43.0229 69.3281 35.1608 74.1687 30.2957Z" fill="#243447"/>
<path d="M16.9358 87.8878C19.078 85.7458 19.078 82.2672 16.9358 80.1253C14.7937 77.9833 11.3147 77.9833 9.17254 80.1253L1.82439 87.4727C-0.317764 89.6146 -0.317764 93.0932 1.82439 95.2352C2.89546 96.3062 4.2988 96.8458 5.71029 96.8458C7.12179 96.8458 8.51641 96.3062 9.59579 95.2352L16.9439 87.8878H16.9358Z" fill="#243447"/>
<path d="M29.5074 92.6865C27.3653 90.5446 23.8863 90.5446 21.7441 92.6865L10.3029 104.127C8.16075 106.269 8.16075 109.747 10.3029 111.889C11.374 112.96 12.7773 113.5 14.1888 113.5C15.6003 113.5 17.0032 112.96 18.0743 111.889L29.5159 100.449C31.6581 98.3071 31.6581 94.8285 29.5159 92.6865H29.5074Z" fill="#243447"/>
<path d="M34.2966 105.248L26.9484 112.595C24.8063 114.737 24.8063 118.224 26.9484 120.357C28.0195 121.428 29.4228 121.968 30.8343 121.968C32.2458 121.968 33.6491 121.428 34.7202 120.357L42.0684 113.01C44.2105 110.868 44.2105 107.381 42.0684 105.248C39.9262 103.106 36.447 103.106 34.2966 105.248Z" fill="#243447"/>
<path opacity="0.8" d="M115.341 76.8293C115.341 81.4702 119.144 85.2726 123.785 85.2726H193.696C198.337 85.2726 202.14 81.4702 202.14 76.8293C202.14 72.1884 198.337 68.386 193.696 68.386H123.785C119.144 68.386 115.341 72.1884 115.341 76.8293Z" fill="#E53935"/>
</svg>
