<svg width="270" height="200" viewBox="0 0 270 200" fill="none" xmlns="http://www.w3.org/2000/svg">
<path d="M152.018 39.0951C152.018 34.3124 155.892 30.4379 160.675 30.4379H184.83C183.364 13.44 169.215 0 151.834 0H117.813C100.432 0 86.2841 13.4317 84.8176 30.4379H108.973C113.756 30.4379 117.63 34.3124 117.63 39.0951C117.63 43.8779 113.756 47.7524 108.973 47.7524H84.5259V68.5331H108.973C113.756 68.5331 117.63 72.4076 117.63 77.1904C117.63 81.9731 113.756 85.8476 108.973 85.8476H84.5259V106.628H108.973C113.756 106.628 117.63 110.503 117.63 115.286C117.63 120.068 113.756 123.943 108.973 123.943H84.8176C86.2841 140.949 100.432 154.381 117.813 154.381H125.412V180.786H121.979C111.081 180.786 101.657 186.818 96.7076 195.701C95.641 197.617 97.0077 200 99.1991 200H170.44C172.632 200 173.998 197.617 172.931 195.701C167.974 186.818 158.558 180.786 147.66 180.786H144.235V154.381H151.834C169.207 154.381 183.355 140.949 184.83 123.943H160.675C155.892 123.943 152.018 120.068 152.018 115.286C152.018 110.503 155.892 106.628 160.675 106.628H185.122V85.8476H160.675C155.892 85.8476 152.018 81.9731 152.018 77.1904C152.018 72.4076 155.892 68.5331 160.675 68.5331H185.122V47.7524H160.675C155.892 47.7524 152.018 43.8779 152.018 39.0951Z" fill="#243447"/>
<g opacity="0.8">
<path d="M49.0053 125.768C39.0565 111.469 33.7988 94.6715 33.7988 77.1987C33.7988 59.7258 39.0565 42.9196 49.0053 28.6214C50.4134 26.5883 52.6298 25.2635 55.0712 24.9802C55.3961 24.9469 55.7127 24.9219 56.0377 24.9219C58.1124 24.9219 60.1288 25.6884 61.687 27.0966C65.0699 30.1545 65.5781 35.0123 63.0951 38.6118C55.2294 49.9937 51.0716 63.3337 51.0716 77.1987C51.0716 91.0636 55.2294 104.404 63.0951 115.785C65.6114 119.435 65.1199 124.193 61.9203 127.084C59.8872 128.917 57.4876 129.659 55.0712 129.417C52.6298 129.134 50.4134 127.801 49.0053 125.768Z" fill="#FFE817"/>
<path d="M36.5403 150.073C34.7905 151.656 32.4241 152.423 30.0744 152.223C27.6914 151.998 25.5832 150.823 24.1417 148.915C8.39369 128.134 0.0698242 103.329 0.0698242 77.1907C0.0698242 51.0523 8.39369 26.2387 24.1334 5.46633C25.5749 3.55823 27.683 2.3834 30.0661 2.15843C32.4574 1.87513 34.7572 2.6917 36.5319 4.29984L36.8151 4.55814C40.0314 7.47444 40.5231 12.4238 37.94 15.8317C24.4584 33.6378 17.3426 54.8518 17.3426 77.1824C17.3426 99.5129 24.4667 120.719 37.94 138.525C40.5231 141.933 40.0314 146.882 36.8234 149.798L36.5403 150.057V150.073Z" fill="#FFE817"/>
</g>
<g opacity="0.8">
<path d="M220.634 125.767C230.582 111.469 235.84 94.6712 235.84 77.1984C235.84 59.7256 230.582 42.9194 220.634 28.6212C219.225 26.5881 217.009 25.2633 214.568 24.98C214.243 24.9466 213.926 24.9216 213.601 24.9216C211.526 24.9216 209.51 25.6882 207.952 27.0963C204.569 30.1543 204.061 35.012 206.544 38.6116C214.41 49.9935 218.567 63.3335 218.567 77.1984C218.567 91.0633 214.41 104.403 206.544 115.785C204.028 119.435 204.519 124.193 207.719 127.084C209.752 128.917 212.152 129.659 214.568 129.417C217.009 129.134 219.225 127.8 220.634 125.767Z" fill="#FFE817"/>
<path d="M233.099 150.073C234.849 151.656 237.215 152.423 239.565 152.223C241.948 151.998 244.056 150.823 245.497 148.915C261.245 128.134 269.57 103.329 269.57 77.1905C269.57 51.0521 261.245 26.2385 245.506 5.46608C244.064 3.55799 241.956 2.38316 239.573 2.15819C237.182 1.87489 234.882 2.69146 233.107 4.29959L232.824 4.55789C229.608 7.47419 229.116 12.4235 231.699 15.8315C245.181 33.6376 252.296 54.8516 252.296 77.1821C252.296 99.5127 245.172 120.718 231.699 138.524C229.116 141.932 229.608 146.882 232.815 149.798L233.099 150.056V150.073Z" fill="#FFE817"/>
</g>
</svg>
