<svg width="204" height="200" viewBox="0 0 204 200" fill="none" xmlns="http://www.w3.org/2000/svg">
<path d="M17.0108 158.959C13.704 158.959 10.9848 156.245 10.9848 152.944V62.5987H172.7V104.594C176.353 105.429 179.841 106.677 183.147 108.211V33.6116C183.147 24.5357 175.766 17.1667 166.712 17.1667H145.47V5.10565C145.47 2.28589 143.172 0 140.318 0H123.987C121.163 0 118.865 2.29341 118.865 5.10565V17.1667H64.8195V5.10565C64.8195 2.28589 62.5522 0 59.7049 0H43.3745C40.5498 0 38.2524 2.29341 38.2524 5.10565V17.1667H17.0108C7.91904 17.1667 0.537109 24.5357 0.537109 33.6116V152.951C0.537109 162.027 7.91904 169.396 17.0108 169.396H107.935C107.137 166.028 106.61 162.554 106.512 158.967H17.0183L17.0108 158.959Z" fill="#243447"/>
<path d="M61.438 81.2393C61.438 77.442 58.342 74.3516 54.5306 74.3516H35.3076C31.5037 74.3516 28.4004 77.442 28.4004 81.2393V97.0901C28.4004 100.887 31.4962 103.978 35.3076 103.978H54.5306C58.3345 103.978 61.438 100.887 61.438 97.0901V81.2393Z" fill="#243447"/>
<path d="M35.3076 117.58H54.5306C58.342 117.58 61.438 120.671 61.438 124.476V140.319C61.438 144.124 58.342 147.214 54.5306 147.214H35.3076C31.4962 147.214 28.4004 144.124 28.4004 140.319V124.476C28.4004 120.671 31.4962 117.58 35.3076 117.58Z" fill="#243447"/>
<path d="M82.2415 74.3516H101.472C105.283 74.3516 108.372 77.442 108.372 81.2393V97.0901C108.372 100.895 105.276 103.978 101.472 103.978H82.249C78.4376 103.978 75.3418 100.887 75.3418 97.0826V81.2393C75.3418 77.4345 78.4376 74.3516 82.2415 74.3516Z" fill="#243447"/>
<path d="M82.2402 117.58H101.463C105.275 117.58 108.37 120.671 108.37 124.476V140.319C108.37 144.124 105.275 147.214 101.463 147.214H82.2402C78.4288 147.214 75.333 144.124 75.333 140.319V124.476C75.333 120.671 78.4288 117.58 82.2402 117.58Z" fill="#243447"/>
<path d="M129.178 74.3516H148.401C152.212 74.3516 155.3 77.442 155.3 81.2393V97.0826C155.3 100.887 152.205 103.978 148.393 103.978H129.17C125.359 103.978 122.271 100.887 122.271 97.0901V81.2468C122.271 77.442 125.366 74.3516 129.178 74.3516Z" fill="#243447"/>
<path opacity="0.8" d="M160.218 113.512C136.295 113.512 116.898 132.875 116.898 156.756C116.898 180.638 136.295 200 160.218 200C184.141 200 203.537 180.638 203.537 156.756C203.537 132.875 184.141 113.512 160.218 113.512ZM160.218 127.679C164.12 127.679 167.231 130.942 167.027 134.837L165.671 161.23C165.521 164.133 163.125 166.403 160.218 166.403C157.31 166.403 154.915 164.133 154.764 161.23L153.408 134.837C153.205 130.942 156.316 127.679 160.218 127.679ZM160.218 185.833C156.226 185.833 152.994 182.608 152.994 178.622C152.994 174.637 156.226 171.411 160.218 171.411C164.21 171.411 167.442 174.637 167.442 178.622C167.442 182.608 164.21 185.833 160.218 185.833Z" fill="#E53935"/>
</svg>
