<svg width="204" height="200" viewBox="0 0 204 200" fill="none" xmlns="http://www.w3.org/2000/svg">
<path d="M183.202 0H20.158C9.02685 0 0 9.05614 0 20.2063V147.263C0 158.428 9.02685 167.477 20.158 167.477H43.7384V157.022H20.158C14.8083 157.022 10.4297 152.625 10.4297 147.263V50.9601H193.023V147.263C193.023 152.625 188.637 157.022 183.202 157.022H159.706V167.477H183.202C194.333 167.477 203.452 158.428 203.452 147.263V20.2063C203.452 9.04841 194.333 0 183.202 0ZM26.2014 31.8046H24.5364C21.029 31.8046 18.2232 28.992 18.2232 25.4762C18.2232 21.9603 21.029 19.1554 24.5364 19.1554H26.2014C29.624 19.1554 32.5149 21.9681 32.5149 25.4762C32.5149 28.9843 29.624 31.8046 26.2014 31.8046ZM47.9398 31.8046H46.2746C42.7672 31.8046 39.9613 28.992 39.9613 25.4762C39.9613 21.9603 42.7672 19.1554 46.2746 19.1554H47.9398C51.3624 19.1554 54.253 21.9681 54.253 25.4762C54.253 28.9843 51.3624 31.8046 47.9398 31.8046ZM69.593 31.8046H68.1053C64.5979 31.8046 61.7072 28.992 61.7072 25.4762C61.7072 21.9603 64.5979 19.1554 68.1053 19.1554H69.593C73.1004 19.1554 75.9912 21.9681 75.9912 25.4762C75.9912 28.9843 73.1004 31.8046 69.593 31.8046ZM178.376 31.1015H140.157C137.005 31.1015 134.461 28.6365 134.461 25.4762C134.461 22.3158 137.005 19.8509 140.157 19.8509H178.376C181.444 19.8509 183.988 22.3158 183.988 25.4762C183.988 28.6365 181.444 31.1015 178.376 31.1015Z" fill="#243447"/>
<g opacity="0.8">
<path d="M168.808 125.921L144.033 107.994V88.6142C144.033 86.5356 142.353 84.8511 140.279 84.8511H131.707C129.634 84.8511 127.953 86.5356 127.953 88.6142V96.3644L103.902 78.9631C102.592 78.0126 100.819 78.0126 99.5085 78.9631L34.6023 125.921C32.9219 127.134 32.5441 129.49 33.7543 131.175L39.6129 139.312C40.8231 140.996 43.1743 141.375 44.8548 140.161L101.705 99.0303L158.556 140.161C160.237 141.375 162.58 140.996 163.798 139.312L169.656 131.175C170.867 129.49 170.489 127.141 168.808 125.921Z" fill="#FFE817"/>
<path d="M54.229 145.841V196.291C54.229 198.346 55.8787 200 57.9832 200H88.6709V163.142C88.6709 161.063 90.3514 159.379 92.425 159.379H111.041C113.115 159.379 114.795 161.063 114.795 163.142V200H145.452C147.503 200 149.206 198.346 149.206 196.291V145.841L101.722 111.486L54.2367 145.841H54.229Z" fill="#FFE817"/>
</g>
</svg>
