<svg width="24" height="24" viewBox="0 0 24 24" fill="none" xmlns="http://www.w3.org/2000/svg">
<path d="M11.9592 21.0938C9.47485 21.0938 7.1311 20.3287 5.36017 18.9375C3.54001 17.5106 2.53735 15.5953 2.53735 13.5469C2.53735 11.4984 3.54001 9.58313 5.36017 8.15625C7.13017 6.76688 9.47392 6 11.9592 6C14.4445 6 16.7874 6.765 18.5588 8.15625C20.3789 9.585 21.3811 11.5003 21.3811 13.5469C21.3811 15.5934 20.3789 17.5106 18.5588 18.9375C16.7888 20.3287 14.445 21.0938 11.9592 21.0938ZM11.9592 7.40625C7.53938 7.40625 3.9436 10.1611 3.9436 13.5469C3.9436 16.9327 7.53938 19.6875 11.9592 19.6875C16.3791 19.6875 19.9749 16.9327 19.9749 13.5469C19.9749 10.1611 16.3791 7.40625 11.9592 7.40625Z" fill="#DBE2E6"/>
<path d="M9.98902 7.52672C9.46057 7.52672 8.94399 7.37002 8.5046 7.07643C8.06521 6.78284 7.72275 6.36555 7.52052 5.87733C7.3183 5.38911 7.26538 4.85188 7.36848 4.33359C7.47157 3.81529 7.72605 3.33921 8.09971 2.96554C8.47338 2.59187 8.94947 2.3374 9.46776 2.23431C9.98605 2.13121 10.5233 2.18413 11.0115 2.38635C11.4997 2.58858 11.917 2.93104 12.2106 3.37043C12.5042 3.80982 12.6609 4.3264 12.6609 4.85484C12.6597 5.56309 12.3778 6.24197 11.8769 6.74278C11.3761 7.24358 10.6973 7.52548 9.98902 7.52672ZM9.98902 3.58594C9.7387 3.58594 9.494 3.66017 9.28587 3.79923C9.07774 3.9383 8.91552 4.13597 8.81973 4.36723C8.72394 4.59849 8.69887 4.85297 8.74771 5.09847C8.79654 5.34398 8.91708 5.56949 9.09408 5.74649C9.27108 5.9235 9.4966 6.04403 9.7421 6.09287C9.98761 6.1417 10.2421 6.11664 10.4733 6.02085C10.7046 5.92506 10.9023 5.76284 11.0413 5.55471C11.1804 5.34658 11.2546 5.10188 11.2546 4.85156C11.2539 4.51613 11.1203 4.19464 10.8831 3.95745C10.6459 3.72026 10.3245 3.58668 9.98902 3.58594Z" fill="#DBE2E6"/>
<path d="M13.9299 7.52672C13.4015 7.52672 12.8849 7.37002 12.4455 7.07643C12.0061 6.78284 11.6637 6.36555 11.4614 5.87733C11.2592 5.38911 11.2063 4.85188 11.3094 4.33359C11.4125 3.81529 11.667 3.33921 12.0406 2.96554C12.4143 2.59187 12.8904 2.3374 13.4087 2.23431C13.927 2.13121 14.4642 2.18413 14.9524 2.38635C15.4406 2.58858 15.8579 2.93104 16.1515 3.37043C16.4451 3.80982 16.6018 4.3264 16.6018 4.85484C16.6004 5.56305 16.3185 6.24186 15.8177 6.74264C15.3169 7.24342 14.6381 7.52536 13.9299 7.52672ZM13.9299 3.58594C13.6796 3.58594 13.4349 3.66017 13.2268 3.79923C13.0187 3.9383 12.8564 4.13597 12.7606 4.36723C12.6649 4.59849 12.6398 4.85297 12.6886 5.09847C12.7375 5.34398 12.858 5.56949 13.035 5.74649C13.212 5.9235 13.4375 6.04403 13.683 6.09287C13.9285 6.1417 14.183 6.11664 14.4143 6.02085C14.6455 5.92506 14.8432 5.76284 14.9823 5.55471C15.1213 5.34658 15.1956 5.10188 15.1956 4.85156C15.1947 4.51616 15.0611 4.19475 14.8239 3.95759C14.5867 3.72042 14.2653 3.5868 13.9299 3.58594Z" fill="#DBE2E6"/>
</svg>
