<svg width="24" height="24" viewBox="0 0 24 24" fill="none" xmlns="http://www.w3.org/2000/svg">
<path d="M5.10938 21.0938C4.92289 21.0938 4.74405 21.0197 4.61219 20.8878C4.48033 20.7559 4.40625 20.5771 4.40625 20.3906V2.95312C4.40625 2.76664 4.48033 2.5878 4.61219 2.45594C4.74405 2.32408 4.92289 2.25 5.10938 2.25C5.29586 2.25 5.4747 2.32408 5.60656 2.45594C5.73842 2.5878 5.8125 2.76664 5.8125 2.95312V20.3906C5.8125 20.5771 5.73842 20.7559 5.60656 20.8878C5.4747 21.0197 5.29586 21.0938 5.10938 21.0938Z" fill="#DBE2E6"/>
<path d="M20.678 19.125H3.24048C3.054 19.125 2.87516 19.0509 2.74329 18.9191C2.61143 18.7872 2.53735 18.6084 2.53735 18.4219C2.53735 18.2354 2.61143 18.0566 2.74329 17.9247C2.87516 17.7928 3.054 17.7188 3.24048 17.7188H20.678C20.8645 17.7188 21.0433 17.7928 21.1752 17.9247C21.307 18.0566 21.3811 18.2354 21.3811 18.4219C21.3811 18.6084 21.307 18.7872 21.1752 18.9191C21.0433 19.0509 20.8645 19.125 20.678 19.125Z" fill="#DBE2E6"/>
<path d="M7.8708 15.9375C7.74624 15.9374 7.62395 15.9041 7.51645 15.8412C7.40895 15.7783 7.32009 15.688 7.25896 15.5795C7.19783 15.4709 7.16662 15.3481 7.16854 15.2236C7.17046 15.099 7.20542 14.9772 7.26986 14.8706L10.305 9.85125C10.3696 9.74424 10.4615 9.65635 10.5713 9.59666C10.681 9.53696 10.8048 9.50761 10.9297 9.51162C11.0546 9.51563 11.1762 9.55286 11.2819 9.61948C11.3876 9.68609 11.4737 9.77969 11.5313 9.89063L13.4395 13.5253L18.8475 5.61563C18.8997 5.53942 18.9663 5.47423 19.0436 5.42377C19.121 5.37332 19.2075 5.33859 19.2982 5.32157C19.389 5.30455 19.4822 5.30558 19.5726 5.32458C19.6629 5.34359 19.7487 5.38021 19.8249 5.43235C19.9011 5.48448 19.9663 5.55112 20.0167 5.62846C20.0672 5.70579 20.1019 5.7923 20.1189 5.88306C20.1359 5.97381 20.1349 6.06703 20.1159 6.15739C20.0969 6.24775 20.0603 6.33348 20.0081 6.40969L13.9383 15.2813C13.8698 15.3813 13.7766 15.462 13.6678 15.5154C13.5589 15.5688 13.4381 15.5931 13.317 15.5861C13.196 15.579 13.0788 15.5407 12.9769 15.475C12.875 15.4093 12.7918 15.3183 12.7355 15.2109L10.8633 11.6452L8.47267 15.5981C8.41005 15.7017 8.32174 15.7874 8.2163 15.8468C8.11085 15.9063 7.99185 15.9375 7.8708 15.9375Z" fill="#DBE2E6"/>
</svg>
