<svg width="24" height="24" viewBox="0 0 24 24" fill="none" xmlns="http://www.w3.org/2000/svg">
<path d="M19.5197 8.9925H5.9086C5.01449 8.9925 4.157 8.63732 3.52477 8.00508C2.89254 7.37285 2.53735 6.51536 2.53735 5.62125C2.53735 4.72714 2.89254 3.86965 3.52477 3.23742C4.157 2.60518 5.01449 2.25 5.9086 2.25H19.5197C19.7062 2.25 19.885 2.32408 20.0169 2.45594C20.1487 2.5878 20.2228 2.76664 20.2228 2.95312V8.28937C20.2228 8.47586 20.1487 8.6547 20.0169 8.78656C19.885 8.91842 19.7062 8.9925 19.5197 8.9925ZM5.9086 3.65625C5.38745 3.65625 4.88765 3.86328 4.51914 4.23179C4.15063 4.60029 3.9436 5.1001 3.9436 5.62125C3.9436 6.1424 4.15063 6.64221 4.51914 7.01072C4.88765 7.37922 5.38745 7.58625 5.9086 7.58625H18.8166V3.65625H5.9086Z" fill="#DBE2E6"/>
<path d="M19.5197 21.202H5.9086C5.0148 21.201 4.15788 20.8455 3.52587 20.2135C2.89385 19.5815 2.53835 18.7246 2.53735 17.8308V5.62125C2.53735 5.43477 2.61143 5.25592 2.74329 5.12406C2.87516 4.9922 3.054 4.91812 3.24048 4.91812C3.42696 4.91812 3.6058 4.9922 3.73766 5.12406C3.86952 5.25592 3.9436 5.43477 3.9436 5.62125V17.8308C3.94459 18.3516 4.15194 18.8509 4.52023 19.2191C4.88853 19.5874 5.38776 19.7948 5.9086 19.7958H18.8166V8.28937C18.8166 8.10289 18.8906 7.92405 19.0225 7.79219C19.1544 7.66033 19.3332 7.58625 19.5197 7.58625C19.7062 7.58625 19.885 7.66033 20.0169 7.79219C20.1487 7.92405 20.2228 8.10289 20.2228 8.28937V20.4989C20.2228 20.6854 20.1487 20.8642 20.0169 20.9961C19.885 21.1279 19.7062 21.202 19.5197 21.202Z" fill="#DBE2E6"/>
<path d="M15.8958 16.4911C15.4507 16.4911 15.0157 16.3591 14.6457 16.1119C14.2757 15.8647 13.9873 15.5133 13.817 15.1021C13.6467 14.691 13.6022 14.2386 13.689 13.8021C13.7758 13.3657 13.9901 12.9648 14.3048 12.6501C14.6194 12.3354 15.0203 12.1211 15.4568 12.0343C15.8933 11.9475 16.3457 11.9921 16.7568 12.1624C17.1679 12.3327 17.5193 12.621 17.7666 12.9911C18.0138 13.3611 18.1458 13.7961 18.1458 14.2411C18.145 14.8376 17.9077 15.4095 17.4859 15.8313C17.0641 16.2531 16.4923 16.4903 15.8958 16.4911ZM15.8958 13.3973C15.7289 13.3973 15.5657 13.4468 15.427 13.5395C15.2882 13.6322 15.1801 13.764 15.1162 13.9182C15.0524 14.0724 15.0357 14.242 15.0682 14.4057C15.1008 14.5694 15.1811 14.7197 15.2991 14.8377C15.4171 14.9557 15.5675 15.0361 15.7311 15.0686C15.8948 15.1012 16.0645 15.0845 16.2186 15.0206C16.3728 14.9568 16.5046 14.8486 16.5973 14.7099C16.69 14.5711 16.7395 14.408 16.7395 14.2411C16.7394 14.0174 16.6504 13.8029 16.4922 13.6448C16.334 13.4866 16.1194 13.3978 15.8958 13.3978V13.3973Z" fill="#DBE2E6"/>
<path d="M6.35718 8.9925C6.1707 8.9925 5.99185 8.91842 5.85999 8.78656C5.72813 8.65469 5.65405 8.47585 5.65405 8.28937V5.62125C5.65405 5.43477 5.72813 5.25592 5.85999 5.12406C5.99185 4.9922 6.1707 4.91812 6.35718 4.91812H19.5197C19.7062 4.91812 19.885 4.9922 20.0169 5.12406C20.1487 5.25592 20.2228 5.43477 20.2228 5.62125C20.2228 5.80773 20.1487 5.98657 20.0169 6.11843C19.885 6.25029 19.7062 6.32437 19.5197 6.32437H7.0603V8.28937C7.0603 8.47585 6.98622 8.65469 6.85436 8.78656C6.7225 8.91842 6.54366 8.9925 6.35718 8.9925Z" fill="#DBE2E6"/>
</svg>
