<svg width="24" height="24" viewBox="0 0 24 24" fill="none" xmlns="http://www.w3.org/2000/svg">
<path d="M14.1531 21.0938H9.94043C9.75395 21.0938 9.57511 21.0197 9.44325 20.8878C9.31138 20.7559 9.2373 20.5771 9.2373 20.3906V12.3281C9.2373 12.1416 9.31138 11.9628 9.44325 11.8309C9.57511 11.6991 9.75395 11.625 9.94043 11.625H14.1531C14.3396 11.625 14.5184 11.6991 14.6503 11.8309C14.7821 11.9628 14.8562 12.1416 14.8562 12.3281V20.3906C14.8562 20.5771 14.7821 20.7559 14.6503 20.8878C14.5184 21.0197 14.3396 21.0938 14.1531 21.0938ZM10.6436 19.6875H13.45V13.0312H10.6436V19.6875Z" fill="#DBE2E6"/>
<path d="M7.54031 21.0938H3.32813C3.14164 21.0938 2.9628 21.0197 2.83094 20.8878C2.69908 20.7559 2.625 20.5771 2.625 20.3906V7.41141C2.625 7.22493 2.69908 7.04608 2.83094 6.91422C2.9628 6.78236 3.14164 6.70828 3.32813 6.70828H7.54031C7.72679 6.70828 7.90564 6.78236 8.0375 6.91422C8.16936 7.04608 8.24344 7.22493 8.24344 7.41141V20.3906C8.24344 20.5771 8.16936 20.7559 8.0375 20.8878C7.90564 21.0197 7.72679 21.0938 7.54031 21.0938ZM4.03125 19.6875H6.83719V8.11453H4.03125V19.6875Z" fill="#DBE2E6"/>
<path d="M20.7656 21.0938H16.553C16.3665 21.0938 16.1877 21.0197 16.0558 20.8878C15.9239 20.7559 15.8499 20.5771 15.8499 20.3906V2.95312C15.8499 2.76664 15.9239 2.5878 16.0558 2.45594C16.1877 2.32408 16.3665 2.25 16.553 2.25H20.7656C20.9521 2.25 21.131 2.32408 21.2628 2.45594C21.3947 2.5878 21.4688 2.76664 21.4688 2.95312V20.3906C21.4688 20.5771 21.3947 20.7559 21.2628 20.8878C21.131 21.0197 20.9521 21.0938 20.7656 21.0938ZM17.2561 19.6875H20.0625V3.65625H17.2561V19.6875Z" fill="#DBE2E6"/>
</svg>
