<svg width="24" height="24" viewBox="0 0 24 24" fill="none" xmlns="http://www.w3.org/2000/svg">
<path d="M19.4531 14.3438H6.79688C6.62473 14.3438 6.45854 14.2807 6.32981 14.1664C6.20108 14.0521 6.11876 13.8945 6.09845 13.7236L5.24204 6.51562C5.24204 6.50953 5.24204 6.50297 5.24204 6.49641L5.04751 4.875H3.24048C3.054 4.875 2.87516 4.80092 2.74329 4.66906C2.61143 4.5372 2.53735 4.35836 2.53735 4.17188C2.53735 3.98539 2.61143 3.80655 2.74329 3.67469C2.87516 3.54283 3.054 3.46875 3.24048 3.46875H5.67188C5.84404 3.46869 6.01023 3.5318 6.13896 3.6461C6.26768 3.7604 6.35001 3.91796 6.37032 4.08891L6.56251 5.71875H20.678C20.7803 5.71874 20.8813 5.74105 20.9741 5.78413C21.0669 5.82721 21.1492 5.89001 21.2152 5.96816C21.2812 6.04632 21.3294 6.13793 21.3563 6.23661C21.3833 6.3353 21.3884 6.43867 21.3713 6.53953L20.1464 13.7583C20.1186 13.922 20.0338 14.0707 19.9069 14.1778C19.78 14.285 19.6192 14.3438 19.4531 14.3438ZM7.42126 12.9375H18.8588L19.8431 7.125H6.73079L7.42126 12.9375Z" fill="#DBE2E6"/>
<path d="M18.1731 16.6875H7.07541C6.90334 16.6874 6.73727 16.6243 6.60863 16.51C6.48 16.3957 6.39775 16.2382 6.37744 16.0673L5.65135 9.95954C5.63994 9.8676 5.64681 9.77431 5.67157 9.68504C5.69633 9.59577 5.73848 9.51226 5.79561 9.43933C5.85274 9.3664 5.92373 9.30548 6.00448 9.26007C6.08523 9.21466 6.17416 9.18566 6.26615 9.17473C6.35815 9.1638 6.4514 9.17115 6.54054 9.19637C6.62968 9.22159 6.71297 9.26418 6.7856 9.32169C6.85823 9.3792 6.91878 9.4505 6.96377 9.53148C7.00876 9.61247 7.0373 9.70155 7.04776 9.7936L7.70026 15.2813H18.1731C18.3595 15.2813 18.5384 15.3553 18.6703 15.4872C18.8021 15.6191 18.8762 15.7979 18.8762 15.9844C18.8762 16.1709 18.8021 16.3497 18.6703 16.4816C18.5384 16.6134 18.3595 16.6875 18.1731 16.6875Z" fill="#DBE2E6"/>
<path d="M8.58716 21.0075C8.19314 21.0075 7.80797 20.8907 7.48036 20.6717C7.15275 20.4528 6.8974 20.1417 6.74662 19.7777C6.59583 19.4137 6.55638 19.0131 6.63325 18.6266C6.71012 18.2402 6.89986 17.8852 7.17847 17.6066C7.45708 17.328 7.81206 17.1383 8.1985 17.0614C8.58495 16.9845 8.98551 17.024 9.34954 17.1748C9.71356 17.3255 10.0247 17.5809 10.2436 17.9085C10.4625 18.2361 10.5793 18.6213 10.5793 19.0153C10.5787 19.5435 10.3686 20.0498 9.99516 20.4233C9.62169 20.7968 9.11533 21.0069 8.58716 21.0075ZM8.58716 18.4294C8.47127 18.4294 8.35799 18.4637 8.26163 18.5281C8.16527 18.5925 8.09017 18.684 8.04582 18.7911C8.00148 18.8981 7.98987 19.016 8.01248 19.1296C8.03509 19.2433 8.09089 19.3477 8.17284 19.4296C8.25478 19.5116 8.35919 19.5674 8.47285 19.59C8.58651 19.6126 8.70432 19.601 8.81139 19.5566C8.91845 19.5123 9.00996 19.4372 9.07435 19.3408C9.13873 19.2445 9.1731 19.1312 9.1731 19.0153C9.17297 18.8599 9.1112 18.711 9.00134 18.6011C8.89148 18.4913 8.74252 18.4295 8.58716 18.4294Z" fill="#DBE2E6"/>
<path d="M16.4016 21.0075C16.0076 21.0075 15.6224 20.8907 15.2948 20.6717C14.9672 20.4528 14.7119 20.1417 14.5611 19.7777C14.4103 19.4137 14.3708 19.0131 14.4477 18.6266C14.5246 18.2402 14.7143 17.8852 14.9929 17.6066C15.2715 17.328 15.6265 17.1383 16.013 17.0614C16.3994 16.9845 16.8 17.024 17.164 17.1748C17.528 17.3255 17.8392 17.5809 18.0581 17.9085C18.277 18.2361 18.3938 18.6213 18.3938 19.0153C18.3932 19.5435 18.1831 20.0498 17.8096 20.4233C17.4361 20.7968 16.9298 21.0069 16.4016 21.0075ZM16.4016 18.4294C16.2857 18.4294 16.1724 18.4637 16.0761 18.5281C15.9797 18.5925 15.9046 18.684 15.8603 18.7911C15.8159 18.8981 15.8043 19.016 15.8269 19.1296C15.8495 19.2433 15.9053 19.3477 15.9873 19.4296C16.0692 19.5116 16.1736 19.5674 16.2873 19.59C16.401 19.6126 16.5188 19.601 16.6258 19.5566C16.7329 19.5123 16.8244 19.4372 16.8888 19.3408C16.9532 19.2445 16.9875 19.1312 16.9875 19.0153C16.9874 18.8599 16.9257 18.711 16.8158 18.6011C16.7059 18.4913 16.557 18.4295 16.4016 18.4294Z" fill="#DBE2E6"/>
<path d="M13.5938 7.125H9C8.81352 7.125 8.63468 7.05092 8.50282 6.91906C8.37095 6.7872 8.29688 6.60836 8.29688 6.42188V3C8.29688 2.81352 8.37095 2.63468 8.50282 2.50282C8.63468 2.37095 8.81352 2.29688 9 2.29688H13.5938C13.7802 2.29688 13.9591 2.37095 14.0909 2.50282C14.2228 2.63468 14.2969 2.81352 14.2969 3V6.42188C14.2969 6.60836 14.2228 6.7872 14.0909 6.91906C13.9591 7.05092 13.7802 7.125 13.5938 7.125ZM9.70312 5.71875H12.8906V3.70312H9.70312V5.71875Z" fill="#DBE2E6"/>
<path d="M19.0533 7.12499H13.5938C13.4073 7.12499 13.2284 7.05091 13.0966 6.91905C12.9647 6.78719 12.8906 6.60835 12.8906 6.42187V3.98859C12.8906 3.80211 12.9647 3.62326 13.0966 3.4914C13.2284 3.35954 13.4073 3.28546 13.5938 3.28546H19.0533C19.2398 3.28546 19.4186 3.35954 19.5505 3.4914C19.6823 3.62326 19.7564 3.80211 19.7564 3.98859V6.42187C19.7564 6.60835 19.6823 6.78719 19.5505 6.91905C19.4186 7.05091 19.2398 7.12499 19.0533 7.12499ZM14.2969 5.71874H18.3502V4.69171H14.2969V5.71874Z" fill="#DBE2E6"/>
</svg>
