<svg width="24" height="24" viewBox="0 0 24 24" fill="none" xmlns="http://www.w3.org/2000/svg">
<path d="M18.9942 21.0937H5.82471C5.63823 21.0937 5.45938 21.0197 5.32752 20.8878C5.19566 20.7559 5.12158 20.5771 5.12158 20.3906V7.69499C5.12158 7.50851 5.19566 7.32967 5.32752 7.19781C5.45938 7.06595 5.63823 6.99187 5.82471 6.99187H18.9966C19.1831 6.99187 19.3619 7.06595 19.4938 7.19781C19.6256 7.32967 19.6997 7.50851 19.6997 7.69499V20.3906C19.6997 20.4832 19.6814 20.5748 19.646 20.6602C19.6105 20.7457 19.5585 20.8233 19.4929 20.8886C19.4274 20.954 19.3496 21.0057 19.264 21.0409C19.1785 21.0761 19.0868 21.0941 18.9942 21.0937ZM6.52783 19.6875H18.2935V8.39812H6.52783V19.6875Z" fill="#DBE2E6"/>
<path d="M14.8593 10.2319C14.6728 10.2319 14.494 10.1578 14.3621 10.0259C14.2303 9.89407 14.1562 9.71523 14.1562 9.52875V5.32406C14.1599 5.10272 14.1195 4.88285 14.0374 4.67728C13.9552 4.47171 13.833 4.28454 13.6778 4.1267C13.5226 3.96886 13.3375 3.8435 13.1333 3.75793C12.9291 3.67236 12.71 3.62829 12.4886 3.62829C12.2672 3.62829 12.0481 3.67236 11.8439 3.75793C11.6398 3.8435 11.4547 3.96886 11.2994 4.1267C11.1442 4.28454 11.022 4.47171 10.9399 4.67728C10.8577 4.88285 10.8173 5.10272 10.821 5.32406V9.52875C10.821 9.71523 10.747 9.89407 10.6151 10.0259C10.4832 10.1578 10.3044 10.2319 10.1179 10.2319C9.93143 10.2319 9.75259 10.1578 9.62073 10.0259C9.48886 9.89407 9.41479 9.71523 9.41479 9.52875V5.32406C9.40976 4.9172 9.48556 4.5134 9.63778 4.13606C9.79 3.75872 10.0156 3.41535 10.3015 3.12587C10.5875 2.83639 10.928 2.60655 11.3035 2.44968C11.6789 2.29281 12.0817 2.21204 12.4886 2.21204C12.8955 2.21204 13.2983 2.29281 13.6738 2.44968C14.0492 2.60655 14.3898 2.83639 14.6757 3.12587C14.9616 3.41535 15.1872 3.75872 15.3394 4.13606C15.4917 4.5134 15.5675 4.9172 15.5624 5.32406V9.52875C15.5624 9.71523 15.4884 9.89407 15.3565 10.0259C15.2246 10.1578 15.0458 10.2319 14.8593 10.2319Z" fill="#DBE2E6"/>
<path d="M14.6043 18.3384C14.4899 18.3385 14.3773 18.3107 14.2762 18.2573L12.4087 17.2753L10.5407 18.2573C10.4246 18.3185 10.2936 18.3459 10.1628 18.3364C10.0319 18.327 9.90623 18.2812 9.80005 18.2041C9.69387 18.1269 9.61138 18.0217 9.56193 17.9001C9.51248 17.7786 9.49803 17.6456 9.52021 17.5162L9.87693 15.4364L8.36709 13.9636C8.27308 13.872 8.20657 13.756 8.17508 13.6286C8.14359 13.5012 8.14839 13.3675 8.18892 13.2427C8.22945 13.1179 8.3041 13.0069 8.40443 12.9223C8.50476 12.8377 8.62675 12.7829 8.75662 12.7641L10.8449 12.4608L11.7791 10.5684C11.8372 10.4508 11.927 10.3518 12.0384 10.2825C12.1498 10.2133 12.2784 10.1766 12.4096 10.1766C12.5408 10.1766 12.6693 10.2133 12.7807 10.2825C12.8922 10.3518 12.982 10.4508 13.0401 10.5684L13.9738 12.4608L16.0621 12.7641C16.1921 12.7827 16.3142 12.8374 16.4147 12.9219C16.5153 13.0064 16.5901 13.1173 16.6308 13.2422C16.6715 13.367 16.6764 13.5008 16.645 13.6283C16.6136 13.7558 16.5471 13.8719 16.453 13.9636L14.9418 15.4364L15.2985 17.5162C15.3158 17.6172 15.3109 17.7207 15.2841 17.8196C15.2572 17.9185 15.2091 18.0103 15.1431 18.0886C15.077 18.1669 14.9947 18.2298 14.9018 18.273C14.8089 18.3161 14.7077 18.3385 14.6052 18.3384H14.6043ZM12.4096 15.7781C12.5239 15.7779 12.6365 15.8056 12.7377 15.8587L13.6715 16.35L13.4933 15.3098C13.474 15.1975 13.4823 15.0821 13.5175 14.9737C13.5527 14.8652 13.6137 14.7669 13.6954 14.6873L14.451 13.9509L13.4062 13.7991C13.2934 13.7827 13.1863 13.7391 13.0941 13.6722C13.0019 13.6052 12.9274 13.5168 12.8769 13.4147L12.4082 12.4683L11.9394 13.4147C11.889 13.5168 11.8144 13.6052 11.7222 13.6722C11.63 13.7391 11.523 13.7827 11.4102 13.7991L10.3658 13.9509L11.1215 14.6873C11.2032 14.7669 11.2643 14.8651 11.2996 14.9736C11.3349 15.082 11.3432 15.1974 11.324 15.3098L11.1454 16.35L12.0796 15.8587C12.1813 15.8053 12.2947 15.7776 12.4096 15.7781Z" fill="#DBE2E6"/>
</svg>
