<svg width="24" height="24" viewBox="0 0 24 24" fill="none" xmlns="http://www.w3.org/2000/svg">
<path d="M14.2345 21.0938C14.1164 21.0938 14.0002 21.0642 13.8966 21.0075L12.0938 20.0203L10.2909 21.0075C10.1874 21.0642 10.0713 21.0939 9.9532 21.0939C9.83516 21.0939 9.71901 21.0642 9.61547 21.0075L7.81266 20.0203L6.00937 21.0075C5.90229 21.0661 5.78181 21.0958 5.65976 21.0937C5.53772 21.0916 5.41833 21.0578 5.31333 20.9955C5.20833 20.9333 5.12135 20.8448 5.06093 20.7387C5.00051 20.6326 4.96874 20.5127 4.96875 20.3906V2.95313C4.96875 2.76664 5.04283 2.5878 5.17469 2.45594C5.30655 2.32408 5.48539 2.25 5.67188 2.25H18.5156C18.7021 2.25 18.8809 2.32408 19.0128 2.45594C19.1447 2.5878 19.2188 2.76664 19.2188 2.95313V20.3906C19.2188 20.5127 19.187 20.6326 19.1266 20.7387C19.0662 20.8448 18.9792 20.9333 18.8742 20.9955C18.7692 21.0578 18.6498 21.0916 18.5277 21.0937C18.4057 21.0958 18.2852 21.0661 18.1781 21.0075L16.3748 20.0203L14.572 21.0075C14.4685 21.0641 14.3525 21.0938 14.2345 21.0938ZM12.0938 18.5156C12.2117 18.5156 12.3278 18.5453 12.4313 18.6019L14.2345 19.5891L16.0373 18.6019C16.1409 18.5452 16.257 18.5155 16.3751 18.5155C16.4931 18.5155 16.6093 18.5452 16.7128 18.6019L17.8125 19.2042V3.65625H6.375V19.2042L7.47469 18.6019C7.57823 18.5452 7.69437 18.5155 7.81242 18.5155C7.93047 18.5155 8.04662 18.5452 8.15016 18.6019L9.95297 19.5891L11.7563 18.6019C11.8597 18.5453 11.9758 18.5156 12.0938 18.5156Z" fill="#DBE2E6"/>
<path d="M12.0937 14.3437C11.3909 14.3429 10.7172 14.0633 10.2202 13.5664C9.7233 13.0695 9.44374 12.3957 9.44287 11.693C9.44287 11.5065 9.51695 11.3276 9.64881 11.1958C9.78067 11.0639 9.95952 10.9898 10.146 10.9898C10.3325 10.9898 10.5113 11.0639 10.6432 11.1958C10.775 11.3276 10.8491 11.5065 10.8491 11.693C10.8494 11.939 10.9226 12.1795 11.0595 12.384C11.1965 12.5885 11.3909 12.7478 11.6184 12.8418C11.8458 12.9357 12.096 12.9602 12.3373 12.912C12.5786 12.8638 12.8003 12.7452 12.9742 12.5711C13.1481 12.397 13.2665 12.1752 13.3144 11.9338C13.3623 11.6925 13.3376 11.4423 13.2433 11.215C13.1491 10.9876 12.9896 10.7934 12.7849 10.6567C12.5803 10.52 12.3397 10.447 12.0937 10.447C11.5694 10.447 11.0569 10.2916 10.621 10.0003C10.185 9.70902 9.84528 9.29502 9.64465 8.81065C9.44402 8.32629 9.39153 7.7933 9.49381 7.2791C9.59609 6.7649 9.84855 6.29258 10.2193 5.92186C10.59 5.55114 11.0623 5.29868 11.5765 5.1964C12.0907 5.09412 12.6237 5.14661 13.1081 5.34724C13.5924 5.54787 14.0064 5.88763 14.2977 6.32355C14.589 6.75947 14.7444 7.27197 14.7444 7.79624C14.7444 7.98273 14.6704 8.16157 14.5385 8.29343C14.4066 8.42529 14.2278 8.49937 14.0413 8.49937C13.8548 8.49937 13.676 8.42529 13.5441 8.29343C13.4123 8.16157 13.3382 7.98273 13.3382 7.79624C13.3382 7.5501 13.2652 7.30948 13.1284 7.10482C12.9917 6.90016 12.7973 6.74064 12.5699 6.64645C12.3425 6.55225 12.0923 6.52761 11.8509 6.57563C11.6094 6.62365 11.3877 6.74218 11.2136 6.91623C11.0396 7.09028 10.9211 7.31203 10.873 7.55345C10.825 7.79486 10.8497 8.0451 10.9439 8.27251C11.0381 8.49991 11.1976 8.69428 11.4022 8.83103C11.6069 8.96779 11.8475 9.04078 12.0937 9.04078C12.4419 9.04078 12.7866 9.10936 13.1083 9.24261C13.43 9.37586 13.7223 9.57116 13.9685 9.81738C14.2147 10.0636 14.4101 10.3559 14.5433 10.6776C14.6766 10.9993 14.7451 11.3441 14.7451 11.6923C14.7451 12.0405 14.6766 12.3852 14.5433 12.7069C14.4101 13.0286 14.2147 13.3209 13.9685 13.5671C13.7223 13.8134 13.43 14.0087 13.1083 14.1419C12.7866 14.2752 12.4419 14.3437 12.0937 14.3437Z" fill="#DBE2E6"/>
<path d="M12.0938 15.2775C11.9073 15.2775 11.7284 15.2034 11.5966 15.0716C11.4647 14.9397 11.3906 14.7609 11.3906 14.5744V4.91344C11.3906 4.72696 11.4647 4.54811 11.5966 4.41625C11.7284 4.28439 11.9073 4.21031 12.0938 4.21031C12.2802 4.21031 12.4591 4.28439 12.5909 4.41625C12.7228 4.54811 12.7969 4.72696 12.7969 4.91344V14.5744C12.7969 14.6667 12.7787 14.7581 12.7434 14.8434C12.708 14.9288 12.6562 15.0063 12.5909 15.0716C12.5256 15.1369 12.4481 15.1886 12.3628 15.224C12.2775 15.2593 12.1861 15.2775 12.0938 15.2775Z" fill="#DBE2E6"/>
<path d="M15.6562 17.3438H8.53125C8.34477 17.3438 8.16593 17.2697 8.03407 17.1378C7.9022 17.0059 7.82812 16.8271 7.82812 16.6406C7.82812 16.4541 7.9022 16.2753 8.03407 16.1434C8.16593 16.0116 8.34477 15.9375 8.53125 15.9375H15.6562C15.8427 15.9375 16.0216 16.0116 16.1534 16.1434C16.2853 16.2753 16.3594 16.4541 16.3594 16.6406C16.3594 16.8271 16.2853 17.0059 16.1534 17.1378C16.0216 17.2697 15.8427 17.3438 15.6562 17.3438Z" fill="#DBE2E6"/>
</svg>
