<svg width="24" height="24" viewBox="0 0 24 24" fill="none" xmlns="http://www.w3.org/2000/svg">
<path d="M19.365 13.8638H7.05282C6.88075 13.8637 6.71468 13.8005 6.58605 13.6862C6.45741 13.572 6.37516 13.4145 6.35485 13.2436L5.43751 5.51532C5.43751 5.50876 5.43751 5.50219 5.43751 5.49516L5.22563 3.71391H3.24048C3.054 3.71391 2.87516 3.63983 2.74329 3.50797C2.61143 3.37611 2.53735 3.19727 2.53735 3.01079C2.53735 2.82431 2.61143 2.64547 2.74329 2.5136C2.87516 2.38174 3.054 2.30766 3.24048 2.30766H5.84673C6.01888 2.30761 6.18507 2.37071 6.3138 2.48501C6.44253 2.59931 6.52485 2.75687 6.54517 2.92782L6.75798 4.71985H20.6799C20.7822 4.71984 20.8832 4.74215 20.976 4.78523C21.0688 4.82831 21.1511 4.89111 21.2171 4.96926C21.2831 5.04742 21.3312 5.13903 21.3582 5.23771C21.3852 5.3364 21.3903 5.43977 21.3731 5.54063L20.0606 13.2797C20.0325 13.4436 19.9471 13.5922 19.8198 13.6991C19.6924 13.8061 19.5313 13.8644 19.365 13.8638ZM7.67767 12.4575H18.7711L19.8455 6.12469H6.92485L7.67767 12.4575Z" fill="#DBE2E6"/>
<path d="M19.2491 16.3767H7.35179C7.17964 16.3768 7.01345 16.3137 6.88472 16.1994C6.75599 16.0851 6.67367 15.9275 6.65335 15.7566L5.87523 9.20861C5.86382 9.11667 5.87069 9.02338 5.89545 8.93411C5.9202 8.84483 5.96236 8.76133 6.01949 8.6884C6.07662 8.61547 6.1476 8.55455 6.22835 8.50914C6.3091 8.46373 6.39803 8.43473 6.49003 8.4238C6.58202 8.41286 6.67527 8.42022 6.76442 8.44544C6.85356 8.47066 6.93684 8.51325 7.00947 8.57076C7.08211 8.62827 7.14266 8.69957 7.18765 8.78055C7.23264 8.86154 7.26118 8.95062 7.27163 9.04267L7.97476 14.9705H19.2491C19.4356 14.9705 19.6145 15.0446 19.7463 15.1764C19.8782 15.3083 19.9523 15.4871 19.9523 15.6736C19.9523 15.8601 19.8782 16.0389 19.7463 16.1708C19.6145 16.3027 19.4356 16.3767 19.2491 16.3767Z" fill="#DBE2E6"/>
<path d="M8.97241 21.0075C8.55991 21.0076 8.15664 20.8854 7.81361 20.6562C7.47059 20.4271 7.20321 20.1014 7.04531 19.7203C6.88741 19.3392 6.84607 18.9199 6.92652 18.5153C7.00698 18.1107 7.20561 17.7391 7.4973 17.4474C7.78898 17.1557 8.16062 16.9571 8.5652 16.8766C8.96979 16.7962 9.38915 16.8375 9.77024 16.9954C10.1513 17.1533 10.477 17.4207 10.7061 17.7637C10.9353 18.1067 11.0575 18.51 11.0574 18.9225C11.0568 19.4753 10.8369 20.0053 10.446 20.3961C10.0552 20.787 9.5252 21.0069 8.97241 21.0075ZM8.97241 18.2419C8.83806 18.2418 8.70669 18.2815 8.59493 18.3561C8.48317 18.4307 8.39604 18.5367 8.34456 18.6608C8.29308 18.7849 8.27956 18.9215 8.30572 19.0533C8.33187 19.1851 8.39653 19.3062 8.4915 19.4012C8.58647 19.4962 8.70749 19.561 8.83926 19.5872C8.97103 19.6135 9.10762 19.6001 9.23176 19.5487C9.3559 19.4973 9.46201 19.4102 9.53666 19.2985C9.61132 19.1868 9.65116 19.0555 9.65116 18.9211C9.65067 18.7413 9.57897 18.5691 9.45176 18.442C9.32455 18.315 9.15219 18.2435 8.97241 18.2433V18.2419Z" fill="#DBE2E6"/>
<path d="M17.3499 21.0075C16.9373 21.0076 16.5341 20.8854 16.1911 20.6562C15.848 20.4271 15.5807 20.1014 15.4228 19.7203C15.2649 19.3392 15.2235 18.9199 15.304 18.5153C15.3844 18.1107 15.5831 17.7391 15.8747 17.4474C16.1664 17.1557 16.5381 16.9571 16.9426 16.8766C17.3472 16.7962 17.7666 16.8375 18.1477 16.9954C18.5288 17.1533 18.8545 17.4207 19.0836 17.7637C19.3127 18.1067 19.4349 18.51 19.4349 18.9225C19.4342 19.4753 19.2144 20.0053 18.8235 20.3961C18.4326 20.787 17.9026 21.0069 17.3499 21.0075ZM17.3499 18.2419C17.2155 18.2418 17.0841 18.2815 16.9724 18.3561C16.8606 18.4307 16.7735 18.5367 16.722 18.6608C16.6705 18.7849 16.657 18.9215 16.6832 19.0533C16.7093 19.1851 16.774 19.3062 16.8689 19.4012C16.9639 19.4962 17.0849 19.561 17.2167 19.5872C17.3485 19.6135 17.4851 19.6001 17.6092 19.5487C17.7333 19.4973 17.8394 19.4102 17.9141 19.2985C17.9888 19.1868 18.0286 19.0555 18.0286 18.9211C18.0281 18.7413 17.9564 18.5691 17.8292 18.442C17.702 18.315 17.5296 18.2435 17.3499 18.2433V18.2419Z" fill="#DBE2E6"/>
</svg>
