<svg width="24" height="24" viewBox="0 0 24 24" fill="none" xmlns="http://www.w3.org/2000/svg">
<path d="M12.4275 21.0938C12.3073 21.0937 12.1892 21.0629 12.0843 21.0042C10.1203 19.9069 8.51902 18.4645 7.32464 16.7185C6.37027 15.3225 5.67511 13.7344 5.25839 11.9963C4.55246 9.04876 4.8909 6.70173 4.9059 6.60564C4.92769 6.46056 4.99431 6.32593 5.09644 6.2206C5.19857 6.11528 5.33109 6.04454 5.47543 6.01829L5.89449 5.94189C8.22996 5.51516 10.3481 4.2994 11.8945 2.49798C11.9605 2.42095 12.0424 2.35912 12.1346 2.31672C12.2267 2.27433 12.327 2.25238 12.4284 2.25238C12.5298 2.25238 12.6301 2.27433 12.7222 2.31672C12.8144 2.35912 12.8963 2.42095 12.9623 2.49798C14.5087 4.2994 16.6268 5.51516 18.9623 5.94189L19.3818 6.01829C19.5262 6.04454 19.6587 6.11528 19.7608 6.2206C19.8629 6.32593 19.9296 6.46056 19.9514 6.60564C19.9659 6.70407 20.3048 9.05111 19.5984 11.9963C19.1817 13.7339 18.487 15.3244 17.5321 16.7185C16.3382 18.4645 14.7365 19.906 12.7725 21.0042C12.6671 21.0632 12.5482 21.094 12.4275 21.0938ZM6.24933 7.30408C6.15847 8.7868 6.28961 10.2748 6.63839 11.7188C7.01855 13.2802 7.64621 14.7042 8.50355 15.9506C9.50152 17.4038 10.8206 18.6225 12.4275 19.5788C14.0442 18.6159 15.3689 17.3878 16.3696 15.9225C17.227 14.6691 17.8528 13.237 18.2287 11.6667C18.5699 10.2386 18.6972 8.76772 18.6065 7.3022C16.2588 6.85155 14.1037 5.69732 12.4275 3.99282C10.7517 5.6978 8.59695 6.85267 6.24933 7.30408Z" fill="#DBE2E6"/>
<path d="M12.4274 18.4969C12.283 18.4969 12.142 18.4523 12.0238 18.3694C9.65286 16.7058 8.09755 14.3906 7.40098 11.4844C7.16844 10.5089 7.04022 9.51139 7.01848 8.50877C7.01504 8.3538 7.0629 8.20204 7.15463 8.07708C7.24635 7.95213 7.3768 7.86099 7.52567 7.81783C9.15445 7.34727 10.6707 6.55087 11.9825 5.47689C12.1082 5.37408 12.2655 5.3179 12.4279 5.3179C12.5902 5.3179 12.7475 5.37408 12.8732 5.47689C14.1846 6.55053 15.7004 7.34677 17.3286 7.81736C17.4774 7.86058 17.6076 7.95169 17.6993 8.07654C17.7909 8.20139 17.8387 8.353 17.8354 8.50783C17.8138 9.56383 17.6734 10.614 17.4168 11.6386C16.7019 14.4722 15.1597 16.7372 12.8324 18.3708C12.7136 18.4535 12.5722 18.4976 12.4274 18.4969ZM8.44677 9.00236C8.4919 9.72823 8.59949 10.4489 8.76833 11.1563C9.34208 13.5469 10.5721 15.4861 12.4274 16.9219C14.2466 15.5156 15.4649 13.6238 16.0522 11.2945C16.2408 10.5423 16.3593 9.77415 16.4061 9.00002C14.9751 8.52446 13.6311 7.81897 12.4269 6.91127C11.2226 7.81993 9.87829 8.52623 8.44677 9.00236Z" fill="#DBE2E6"/>
</svg>
