<svg width="24" height="24" viewBox="0 0 24 24" fill="none" xmlns="http://www.w3.org/2000/svg">
<path d="M12.0801 21.0938C6.88586 21.0938 2.6582 16.868 2.6582 11.6719C2.6582 6.47578 6.88398 2.25 12.0801 2.25C17.2762 2.25 21.502 6.47625 21.502 11.6719C21.502 16.8675 17.2748 21.0938 12.0801 21.0938ZM12.0801 3.65906C7.66117 3.65906 4.06445 7.25437 4.06445 11.6747C4.06445 16.095 7.6593 19.6903 12.0801 19.6903C16.5009 19.6903 20.0957 16.095 20.0957 11.6747C20.0957 7.25437 16.4999 3.65906 12.0801 3.65906Z" fill="#DBE2E6"/>
<path d="M12.0801 17.7089C11.187 17.7073 10.331 17.3518 9.69951 16.7202C9.06805 16.0887 8.71265 15.2326 8.71116 14.3395C8.71116 14.1531 8.78524 13.9742 8.9171 13.8424C9.04897 13.7105 9.22781 13.6364 9.41429 13.6364C9.60077 13.6364 9.77961 13.7105 9.91147 13.8424C10.0433 13.9742 10.1174 14.1531 10.1174 14.3395C10.1177 14.7278 10.2331 15.1072 10.449 15.4299C10.6649 15.7525 10.9716 16.0039 11.3304 16.1523C11.6891 16.3006 12.0838 16.3393 12.4646 16.2633C12.8453 16.1874 13.195 16.0003 13.4693 15.7256C13.7437 15.451 13.9305 15.1011 14.0061 14.7203C14.0817 14.3395 14.0427 13.9449 13.894 13.5862C13.7453 13.2276 13.4936 12.9211 13.1707 12.7055C12.8478 12.4899 12.4683 12.3749 12.0801 12.375C11.4137 12.375 10.7622 12.1774 10.2081 11.8072C9.65405 11.4369 9.22219 10.9107 8.96717 10.295C8.71215 9.67937 8.64543 9.0019 8.77544 8.34831C8.90544 7.69471 9.22635 7.09435 9.69756 6.62313C10.1688 6.15191 10.7691 5.83101 11.4227 5.701C12.0763 5.571 12.7538 5.63772 13.3695 5.89274C13.9851 6.14776 14.5114 6.57962 14.8816 7.13371C15.2518 7.6878 15.4494 8.33924 15.4494 9.00564C15.4494 9.19212 15.3754 9.37096 15.2435 9.50282C15.1116 9.63468 14.9328 9.70876 14.7463 9.70876C14.5598 9.70876 14.381 9.63468 14.2491 9.50282C14.1173 9.37096 14.0432 9.19212 14.0432 9.00564C14.0432 8.61737 13.9281 8.23782 13.7123 7.91498C13.4966 7.59215 13.19 7.34053 12.8313 7.19195C12.4726 7.04336 12.0779 7.00449 11.6971 7.08023C11.3163 7.15598 10.9665 7.34295 10.6919 7.6175C10.4174 7.89205 10.2304 8.24184 10.1547 8.62265C10.0789 9.00346 10.1178 9.39818 10.2664 9.75689C10.415 10.1156 10.6666 10.4222 10.9894 10.6379C11.3123 10.8536 11.6918 10.9688 12.0801 10.9688C12.9737 10.9688 13.8307 11.3237 14.4626 11.9556C15.0945 12.5875 15.4494 13.4445 15.4494 14.3381C15.4494 15.2318 15.0945 16.0888 14.4626 16.7206C13.8307 17.3525 12.9737 17.7075 12.0801 17.7075V17.7089Z" fill="#DBE2E6"/>
<path d="M12.0801 18.9886C11.8936 18.9886 11.7148 18.9145 11.5829 18.7827C11.451 18.6508 11.377 18.4719 11.377 18.2855V5.0625C11.377 4.87602 11.451 4.69718 11.5829 4.56532C11.7148 4.43345 11.8936 4.35938 12.0801 4.35938C12.2666 4.35938 12.4454 4.43345 12.5773 4.56532C12.7091 4.69718 12.7832 4.87602 12.7832 5.0625V18.2855C12.7832 18.4719 12.7091 18.6508 12.5773 18.7827C12.4454 18.9145 12.2666 18.9886 12.0801 18.9886Z" fill="#DBE2E6"/>
</svg>
