<svg width="24" height="24" viewBox="0 0 24 24" fill="none" xmlns="http://www.w3.org/2000/svg">
<path d="M12.0636 21.0938C11.9436 21.0936 11.8257 21.0628 11.721 21.0042C9.75644 19.9069 8.15613 18.4645 6.96082 16.7184C6.00644 15.3225 5.31129 13.7339 4.89504 11.9963C4.18863 9.04688 4.52707 6.70313 4.54207 6.60329C4.56386 6.4582 4.63049 6.32357 4.73261 6.21825C4.83474 6.11293 4.96726 6.04219 5.1116 6.01594L5.53347 5.93954C7.8681 5.51231 9.98531 4.29659 11.5311 2.49563C11.5971 2.41852 11.6791 2.35662 11.7713 2.31418C11.8635 2.27173 11.9638 2.24976 12.0653 2.24976C12.1668 2.24976 12.2671 2.27173 12.3593 2.31418C12.4515 2.35662 12.5334 2.41852 12.5994 2.49563C14.1458 4.29705 16.2639 5.51281 18.5994 5.93954L19.0189 6.01594C19.1633 6.04219 19.2958 6.11293 19.3979 6.21825C19.5001 6.32357 19.5667 6.4582 19.5885 6.60329C19.6035 6.70172 19.9419 9.04875 19.2355 11.9939C18.8193 13.7316 18.1241 15.322 17.1697 16.7161C15.9754 18.4622 14.3736 19.9036 12.4096 21.0019C12.3041 21.0618 12.1849 21.0935 12.0636 21.0938ZM5.88597 7.30407C5.79464 8.78677 5.92562 10.2748 6.27457 11.7188C6.65472 13.2802 7.28238 14.7042 8.13972 15.9506C9.13816 17.4038 10.4568 18.6225 12.0636 19.5788C13.6705 18.6216 14.9896 17.4023 15.988 15.9506C16.8453 14.7042 17.473 13.2788 17.8532 11.7188C18.2019 10.2748 18.3329 8.78677 18.2418 7.30407C15.8943 6.85266 13.7397 5.69778 12.0641 3.99282C10.3883 5.69772 8.23356 6.85258 5.88597 7.30407Z" fill="#DBE2E6"/>
<path d="M10.1412 14.2969C10.0023 14.2968 9.86643 14.2555 9.75092 14.1782C9.6354 14.1009 9.54538 13.9911 9.49221 13.8627C9.43904 13.7343 9.42512 13.5931 9.4522 13.4567C9.47928 13.3204 9.54614 13.1952 9.64435 13.0969L13.4881 9.25313C13.6198 9.12104 13.7986 9.04668 13.9852 9.04642C14.1717 9.04615 14.3507 9.12 14.4828 9.25172C14.6149 9.38344 14.6892 9.56223 14.6895 9.74877C14.6898 9.93531 14.6159 10.1143 14.4842 10.2464L10.6404 14.0902C10.575 14.1558 10.4972 14.2079 10.4115 14.2434C10.3258 14.2789 10.234 14.297 10.1412 14.2969Z" fill="#DBE2E6"/>
<path d="M13.9864 14.2969C13.8941 14.2969 13.8026 14.2788 13.7173 14.2435C13.6319 14.2081 13.5544 14.1564 13.4891 14.0911L9.64531 10.2473C9.51335 10.1154 9.43921 9.93639 9.43921 9.74976C9.43921 9.56314 9.51335 9.38415 9.64531 9.25219C9.77728 9.12022 9.95626 9.04608 10.1429 9.04608C10.3295 9.04608 10.5085 9.12022 10.6405 9.25219L14.4842 13.0959C14.5824 13.1943 14.6493 13.3195 14.6764 13.4558C14.7035 13.5921 14.6895 13.7334 14.6364 13.8618C14.5832 13.9902 14.4932 14.1 14.3777 14.1772C14.2621 14.2545 14.1263 14.2958 13.9873 14.2959L13.9864 14.2969Z" fill="#DBE2E6"/>
</svg>
