<svg width="24" height="24" viewBox="0 0 24 24" fill="none" xmlns="http://www.w3.org/2000/svg">
<path d="M18.8906 20.8809H5.02782C4.36758 20.8803 3.73455 20.6178 3.26765 20.151C2.80074 19.6842 2.5381 19.0512 2.53735 18.391V12.9647C2.5381 12.3045 2.80074 11.6715 3.26765 11.2047C3.73455 10.7378 4.36758 10.4753 5.02782 10.4747H18.8906C19.5508 10.4754 20.1837 10.738 20.6505 11.2048C21.1173 11.6716 21.3799 12.3045 21.3806 12.9647V18.391C21.3799 19.0511 21.1173 19.684 20.6505 20.1508C20.1837 20.6176 19.5508 20.8802 18.8906 20.8809ZM5.02735 11.881C4.73996 11.8812 4.4644 11.9954 4.26113 12.1986C4.05787 12.4018 3.94351 12.6773 3.94313 12.9647V18.391C3.94351 18.6783 4.05787 18.9539 4.26113 19.157C4.4644 19.3602 4.73996 19.4745 5.02735 19.4747H18.8906C19.178 19.4745 19.4535 19.3602 19.6567 19.157C19.8599 18.9538 19.9741 18.6783 19.9744 18.391V12.9647C19.9741 12.6773 19.8599 12.4018 19.6567 12.1986C19.4535 11.9955 19.178 11.8812 18.8906 11.881H5.02735Z" fill="#DBE2E6"/>
<path d="M16.0636 11.8809H7.85535C7.72831 11.8809 7.60366 11.8464 7.49465 11.7812C7.38564 11.7159 7.29634 11.6224 7.23624 11.5104C7.17614 11.3985 7.14749 11.2724 7.15333 11.1455C7.15917 11.0186 7.19929 10.8956 7.26942 10.7897L10.5469 5.84297C10.5969 5.7638 10.6622 5.69542 10.739 5.64184C10.8158 5.58825 10.9025 5.55054 10.9941 5.53092C11.0856 5.51131 11.1802 5.51017 11.2722 5.52759C11.3642 5.54501 11.4518 5.58063 11.5298 5.63237C11.6079 5.6841 11.6748 5.7509 11.7267 5.82884C11.7786 5.90679 11.8144 5.99432 11.832 6.08629C11.8496 6.17826 11.8486 6.27281 11.8292 6.36441C11.8098 6.45601 11.7722 6.5428 11.7188 6.61969L9.1641 10.4747H14.7539L12.1993 6.61969C12.1458 6.5428 12.1083 6.45601 12.0888 6.36441C12.0694 6.27281 12.0685 6.17826 12.0861 6.08629C12.1037 5.99432 12.1395 5.90679 12.1913 5.82884C12.2432 5.7509 12.3102 5.6841 12.3882 5.63237C12.4663 5.58063 12.5538 5.54501 12.6459 5.52759C12.7379 5.51017 12.8324 5.51131 12.924 5.53092C13.0155 5.55054 13.1022 5.58825 13.179 5.64184C13.2558 5.69542 13.3211 5.7638 13.3711 5.84297L16.6496 10.7897C16.7197 10.8956 16.7598 11.0186 16.7657 11.1455C16.7715 11.2724 16.7428 11.3985 16.6828 11.5104C16.6227 11.6224 16.5334 11.7159 16.4243 11.7812C16.3153 11.8464 16.1907 11.8809 16.0636 11.8809Z" fill="#DBE2E6"/>
<path d="M11.9592 7.18314C11.5244 7.18332 11.0994 7.05457 10.7378 6.81317C10.3762 6.57177 10.0943 6.22856 9.92783 5.82695C9.76133 5.42534 9.71767 4.98337 9.80237 4.55694C9.88708 4.13052 10.0963 3.73879 10.4037 3.4313C10.711 3.12382 11.1027 2.91439 11.5291 2.8295C11.9555 2.74462 12.3975 2.78809 12.7991 2.95442C13.2008 3.12075 13.5441 3.40247 13.7857 3.76395C14.0273 4.12542 14.1562 4.55041 14.1562 4.98517C14.1556 5.56776 13.9239 6.12631 13.5121 6.53835C13.1002 6.95039 12.5417 7.18227 11.9592 7.18314ZM11.9592 4.19345C11.8025 4.19327 11.6494 4.23954 11.5191 4.32642C11.3887 4.41331 11.2871 4.53689 11.227 4.68154C11.167 4.82619 11.1512 4.98541 11.1816 5.13905C11.212 5.29269 11.2874 5.43385 11.3981 5.54467C11.5087 5.65549 11.6498 5.73098 11.8034 5.76161C11.957 5.79223 12.1163 5.77661 12.261 5.71671C12.4057 5.65682 12.5294 5.55534 12.6164 5.42512C12.7035 5.29491 12.7499 5.1418 12.7499 4.98517C12.7497 4.77543 12.6663 4.57434 12.5181 4.42595C12.3699 4.27755 12.1689 4.19395 11.9592 4.19345Z" fill="#DBE2E6"/>
<path d="M6.36609 14.3321C6.01078 14.3321 5.80875 14.5285 5.80875 14.9414V16.4231C5.80875 16.8371 6.01078 17.0325 6.37687 17.0325C6.86016 17.0325 6.90281 16.6875 6.91875 16.4644C6.92906 16.2999 7.07766 16.2469 7.25812 16.2469C7.49719 16.2469 7.60875 16.3158 7.60875 16.5867C7.60875 17.2289 7.08328 17.6377 6.33984 17.6377C5.67094 17.6377 5.12109 17.3096 5.12109 16.4222V14.9424C5.12109 14.056 5.67844 13.7269 6.34734 13.7269C7.08563 13.7269 7.61297 14.1197 7.61297 14.7356C7.61297 15.0117 7.50141 15.0755 7.26797 15.0755C7.07156 15.0755 6.92813 15.0169 6.92297 14.8575C6.91781 14.6981 6.87094 14.3321 6.36609 14.3321Z" fill="#DBE2E6"/>
<path d="M6.33975 17.7567C5.48897 17.7567 5.00146 17.2711 5.00146 16.4241V14.9424C5.00146 14.0953 5.49131 13.6097 6.3449 13.6097C7.17084 13.6097 7.72584 14.0621 7.72584 14.7347C7.72584 15.1374 7.49147 15.1917 7.26365 15.1917C6.85631 15.1917 6.80475 14.9602 6.80147 14.8608C6.7874 14.648 6.72506 14.4483 6.366 14.4483C6.066 14.4483 5.92584 14.6049 5.92584 14.9414V16.4231C5.92584 16.7639 6.06646 16.9163 6.37678 16.9163C6.73865 16.9163 6.78412 16.6992 6.80147 16.4569C6.80803 16.3594 6.86521 16.1288 7.25803 16.1288C7.476 16.1288 7.72678 16.1808 7.72678 16.5858C7.72584 17.2875 7.16897 17.7567 6.33975 17.7567ZM6.3449 13.8441C5.42803 13.8441 5.23584 14.4413 5.23584 14.9424V16.4241C5.23584 16.9252 5.42709 17.5224 6.33975 17.5224C7.02881 17.5224 7.49147 17.1474 7.49147 16.5886C7.49147 16.4011 7.45443 16.366 7.25709 16.366C7.04147 16.366 7.03631 16.4442 7.03443 16.4738C7.02131 16.6613 6.98756 17.1516 6.37584 17.1516C5.93381 17.1516 5.69053 16.8933 5.69053 16.4241V14.9424C5.69053 14.4736 5.93006 14.2149 6.36506 14.2149C6.78225 14.2149 7.00725 14.4286 7.03443 14.85C7.03818 14.9583 7.20693 14.9583 7.26272 14.9583C7.4249 14.9583 7.49053 14.9494 7.49053 14.7356C7.49147 14.2031 7.03115 13.8441 6.3449 13.8441Z" fill="#DBE2E6"/>
<path d="M8.3785 17.6077C8.22428 17.6077 8.07568 17.5336 8.07568 17.3902V13.9392C8.07568 13.7906 8.24584 13.7269 8.42068 13.7269C8.59553 13.7269 8.76615 13.7906 8.76615 13.9392V17.0025H10.0613C10.2019 17.0025 10.2685 17.1511 10.2685 17.3053C10.2685 17.4596 10.1996 17.6077 10.0613 17.6077H8.3785Z" fill="#DBE2E6"/>
<path d="M10.0612 17.7249H8.37842C8.13514 17.7249 7.95654 17.5842 7.95654 17.3902V13.9392C7.95654 13.7419 8.14404 13.6111 8.41873 13.6111C8.69342 13.6111 8.88139 13.7433 8.88139 13.9392V16.8853H10.0594C10.2506 16.8853 10.3837 17.0578 10.3837 17.3072C10.3837 17.5566 10.2492 17.7249 10.0612 17.7249ZM8.42061 13.8441C8.31045 13.8441 8.19279 13.8774 8.19279 13.9378V17.3906C8.19279 17.4638 8.3067 17.491 8.38029 17.491H10.0631C10.1189 17.491 10.1531 17.3949 10.1531 17.3058C10.1531 17.2289 10.1254 17.1183 10.0631 17.1183H8.64889V13.9392C8.64889 13.8797 8.53123 13.8441 8.42061 13.8441Z" fill="#DBE2E6"/>
<path d="M10.5393 16.4241V14.9424C10.5393 14.056 11.0807 13.7269 11.7815 13.7269C12.4823 13.7269 13.0293 14.055 13.0293 14.9424V16.4241C13.0293 17.3105 12.4823 17.6396 11.7815 17.6396C11.0807 17.6396 10.5393 17.3105 10.5393 16.4241ZM12.3388 14.9424C12.3388 14.5233 12.1265 14.333 11.7815 14.333C11.4365 14.333 11.2293 14.5242 11.2293 14.9424V16.4241C11.2293 16.8431 11.4313 17.0335 11.7815 17.0335C12.1317 17.0335 12.3388 16.8422 12.3388 16.4241V14.9424Z" fill="#DBE2E6"/>
<path d="M11.7815 17.7567C10.9049 17.7567 10.4221 17.2833 10.4221 16.4241V14.9424C10.4221 14.0831 10.9049 13.6097 11.7815 13.6097C12.6487 13.6097 13.1465 14.0953 13.1465 14.9424V16.4241C13.1465 17.2711 12.6487 17.7567 11.7815 17.7567ZM11.7815 13.8441C11.0348 13.8441 10.6565 14.2135 10.6565 14.9424V16.4241C10.6565 17.153 11.0348 17.5224 11.7815 17.5224C12.2971 17.5224 12.9121 17.3321 12.9121 16.4241V14.9424C12.9121 14.4413 12.7157 13.8441 11.7815 13.8441ZM11.7815 17.1516C11.3498 17.1516 11.1121 16.8933 11.1121 16.4241V14.9424C11.1121 14.4736 11.3498 14.2149 11.7815 14.2149C12.2132 14.2149 12.456 14.4802 12.456 14.9424V16.4241C12.456 16.8863 12.2104 17.1516 11.7815 17.1516ZM11.7815 14.4492C11.4806 14.4492 11.3465 14.6011 11.3465 14.9424V16.4241C11.3465 16.7649 11.4806 16.9172 11.7815 16.9172C12.0824 16.9172 12.2217 16.7606 12.2217 16.4241V14.9424C12.2217 14.6058 12.082 14.4492 11.7815 14.4492Z" fill="#DBE2E6"/>
<path d="M15.2274 16.5727C15.2274 15.7758 13.523 16.0205 13.523 14.7619C13.523 13.9711 14.2027 13.7002 14.813 13.7002C15.1262 13.7002 15.8218 13.7747 15.8218 14.1249C15.8218 14.2472 15.7369 14.4914 15.5457 14.4914C15.3812 14.4914 15.2593 14.2894 14.813 14.2894C14.431 14.2894 14.213 14.4436 14.213 14.6981C14.213 15.3567 15.9174 15.1284 15.9174 16.5033C15.9174 17.2627 15.3863 17.6555 14.6518 17.6555C13.9566 17.6555 13.4255 17.3053 13.4255 16.9992C13.4255 16.8506 13.5633 16.6275 13.7283 16.6275C13.9458 16.6275 14.0893 17.0363 14.6307 17.0363C14.9532 17.0344 15.2274 16.8909 15.2274 16.5727Z" fill="#DBE2E6"/>
<path d="M14.6535 17.7727C13.9377 17.7727 13.3101 17.4103 13.3101 16.9974C13.3101 16.8005 13.4863 16.5084 13.7319 16.5084C13.859 16.5084 13.9537 16.5881 14.0544 16.673C14.1908 16.7874 14.3455 16.9172 14.6343 16.9172C14.7463 16.9172 15.1119 16.8924 15.1119 16.5727C15.1119 16.3092 14.8696 16.1883 14.474 16.0125C13.9968 15.8016 13.4062 15.5391 13.4062 14.7619C13.4062 13.8919 14.1641 13.583 14.8124 13.583C14.9277 13.583 15.9374 13.598 15.9374 14.1249C15.9374 14.2936 15.8221 14.6086 15.5441 14.6086C15.4585 14.603 15.3755 14.5763 15.3027 14.5308C15.1534 14.446 14.984 14.4031 14.8124 14.4066C14.6324 14.4066 14.3296 14.4445 14.3296 14.6981C14.3296 14.8809 14.5387 14.9794 14.8804 15.1238C15.3669 15.33 16.034 15.6131 16.034 16.5033C16.0344 17.2866 15.5052 17.7727 14.6535 17.7727ZM13.7301 16.7414C13.6457 16.7414 13.5426 16.8975 13.5426 16.9959C13.5426 17.2139 14.0085 17.5369 14.6516 17.5369C15.3697 17.5369 15.7982 17.1502 15.7982 16.5019C15.7982 15.7669 15.261 15.5391 14.7871 15.338C14.4308 15.1866 14.0938 15.0436 14.0938 14.6967C14.0938 14.3091 14.4646 14.1708 14.811 14.1708C15.0202 14.1665 15.2267 14.2183 15.4091 14.3208C15.45 14.3471 15.4957 14.3648 15.5437 14.3728C15.6468 14.3728 15.7026 14.1956 15.7026 14.1234C15.7026 13.9959 15.426 13.8159 14.8119 13.8159C13.7235 13.8159 13.6401 14.5392 13.6401 14.7605C13.6401 15.3853 14.1116 15.5944 14.5672 15.7969C14.9493 15.9666 15.3444 16.1419 15.3444 16.5713C15.3444 16.9228 15.0632 17.1502 14.6324 17.1502C14.2574 17.1502 14.0521 16.9772 13.9021 16.8506C13.8318 16.7934 13.7718 16.7428 13.7301 16.7428V16.7414Z" fill="#DBE2E6"/>
<path d="M17.0799 15.3938H17.8871C18.0249 15.3938 18.1046 15.5264 18.1046 15.6699C18.1046 15.7922 18.0357 15.9356 17.8871 15.9356H17.0799V17.0025H18.5827C18.7205 17.0025 18.8002 17.146 18.8002 17.3105C18.8002 17.4539 18.7313 17.6077 18.5827 17.6077H16.6922C16.5385 17.6077 16.3899 17.5336 16.3899 17.3902V13.9444C16.3899 13.801 16.5385 13.7269 16.6922 13.7269H18.5827C18.7313 13.7269 18.8002 13.8806 18.8002 14.0241C18.8002 14.1886 18.7205 14.3321 18.5827 14.3321H17.0799V15.3938Z" fill="#DBE2E6"/>
<path d="M18.5826 17.7249H16.6921C16.4489 17.7249 16.2703 17.5842 16.2703 17.3902V13.9444C16.2703 13.7503 16.4465 13.6097 16.6921 13.6097H18.5826C18.8025 13.6097 18.9173 13.8178 18.9173 14.0241C18.9173 14.2702 18.7767 14.4492 18.5826 14.4492H17.197V15.2766H17.887C18.0778 15.2766 18.2217 15.4458 18.2217 15.6699C18.2217 15.8574 18.1045 16.0528 17.887 16.0528H17.197V16.8853H18.5826C18.7767 16.8853 18.9173 17.0644 18.9173 17.3105C18.9173 17.5167 18.8025 17.7249 18.5826 17.7249ZM16.6921 13.8441C16.6204 13.8441 16.5046 13.8713 16.5046 13.9444V17.3906C16.5046 17.4638 16.6181 17.491 16.6921 17.491H18.5826C18.6651 17.491 18.6829 17.3611 18.6829 17.311C18.6829 17.2172 18.6478 17.1202 18.5826 17.1202H16.9626V15.8185H17.887C17.9695 15.8185 17.9873 15.7111 17.9873 15.6699C17.9873 15.6061 17.9606 15.511 17.887 15.511H16.9626V14.2149H18.5826C18.6478 14.2149 18.6829 14.1164 18.6829 14.0241C18.6829 13.9739 18.6651 13.8441 18.5826 13.8441H16.6921Z" fill="#DBE2E6"/>
</svg>
