<svg width="24" height="24" viewBox="0 0 24 24" fill="none" xmlns="http://www.w3.org/2000/svg">
<path d="M20.678 18.3281H3.24048C3.054 18.3281 2.87516 18.254 2.74329 18.1222C2.61143 17.9903 2.53735 17.8115 2.53735 17.625V6.60938C2.53735 6.42289 2.61143 6.24405 2.74329 6.11219C2.87516 5.98033 3.054 5.90625 3.24048 5.90625H20.678C20.8645 5.90625 21.0433 5.98033 21.1752 6.11219C21.307 6.24405 21.3811 6.42289 21.3811 6.60938V17.625C21.3811 17.8115 21.307 17.9903 21.1752 18.1222C21.0433 18.254 20.8645 18.3281 20.678 18.3281ZM3.9436 16.9219H19.9749V7.3125H3.9436V16.9219Z" fill="#DBE2E6"/>
<path d="M16.4658 16.125H7.45314C7.26665 16.125 7.08781 16.0509 6.95595 15.9191C6.82409 15.7872 6.75001 15.6084 6.75001 15.4219C6.74951 15.0756 6.6117 14.7436 6.3668 14.4988C6.12189 14.254 5.78989 14.1163 5.4436 14.1159C5.25712 14.1159 5.07828 14.0419 4.94642 13.91C4.81456 13.7781 4.74048 13.5993 4.74048 13.4128V10.822C4.74048 10.6356 4.81456 10.4567 4.94642 10.3248C5.07828 10.193 5.25712 10.1189 5.4436 10.1189C5.78997 10.1185 6.12204 9.98078 6.36696 9.73586C6.61188 9.49094 6.74964 9.15887 6.75001 8.8125C6.75001 8.62602 6.82409 8.44718 6.95595 8.31532C7.08781 8.18345 7.26665 8.10938 7.45314 8.10938H16.4658C16.6523 8.10938 16.8311 8.18345 16.963 8.31532C17.0948 8.44718 17.1689 8.62602 17.1689 8.8125C17.1693 9.15879 17.307 9.49079 17.5518 9.73569C17.7966 9.9806 18.1286 10.1184 18.4749 10.1189C18.6613 10.1189 18.8402 10.193 18.972 10.3248C19.1039 10.4567 19.178 10.6356 19.178 10.822V13.4128C19.178 13.5993 19.1039 13.7781 18.972 13.91C18.8402 14.0419 18.6613 14.1159 18.4749 14.1159C18.1286 14.1163 17.7967 14.254 17.5518 14.4988C17.307 14.7437 17.1693 15.0756 17.1689 15.4219C17.1689 15.6084 17.0948 15.7872 16.963 15.9191C16.8311 16.0509 16.6523 16.125 16.4658 16.125ZM8.06251 14.7188H15.855C15.9793 14.2597 16.2217 13.8413 16.558 13.505C16.8942 13.1687 17.3127 12.9264 17.7717 12.802V11.4328C17.3127 11.3084 16.8942 11.066 16.5579 10.7296C16.2216 10.3933 15.9793 9.97471 15.855 9.51562H8.06251C7.93817 9.97477 7.69576 10.3933 7.3594 10.7297C7.02304 11.0661 6.60447 11.3085 6.14532 11.4328V12.802C6.60445 12.9262 7.02304 13.1686 7.3594 13.5048C7.69577 13.8411 7.93818 14.2597 8.06251 14.7188Z" fill="#DBE2E6"/>
<path d="M11.9592 16.125C10.3889 16.125 9.15894 14.3648 9.15894 12.1172C9.15894 9.86953 10.3889 8.10938 11.9592 8.10938C13.5296 8.10938 14.76 9.87 14.76 12.1172C14.76 14.3644 13.53 16.125 11.9592 16.125ZM11.9592 9.51562C11.2997 9.51562 10.5652 10.5839 10.5652 12.1172C10.5652 13.6505 11.2997 14.7188 11.9592 14.7188C12.6188 14.7188 13.3538 13.6505 13.3538 12.1172C13.3538 10.5839 12.6192 9.51562 11.9592 9.51562Z" fill="#DBE2E6"/>
</svg>
