<svg width="24" height="24" viewBox="0 0 24 24" fill="none" xmlns="http://www.w3.org/2000/svg">
<path d="M12.0469 21.6309C6.70316 21.6309 2.35645 17.2837 2.35645 11.9405C2.35645 6.59719 6.70316 2.25 12.0469 2.25C17.3907 2.25 21.7374 6.59719 21.7374 11.9405C21.7374 17.2837 17.3907 21.6309 12.0469 21.6309ZM12.0469 3.65625C7.47895 3.65625 3.7627 7.3725 3.7627 11.9405C3.7627 16.5084 7.47895 20.2247 12.0469 20.2247C16.6149 20.2247 20.3311 16.5084 20.3311 11.9405C20.3311 7.3725 16.6149 3.65625 12.0469 3.65625Z" fill="#DBE2E6"/>
<path d="M12.047 18.8437C8.23935 18.8437 5.14185 15.75 5.14185 11.9405C5.14185 8.13093 8.23935 5.03531 12.047 5.03531C15.8547 5.03531 18.9522 8.13281 18.9522 11.9405C18.9522 15.7481 15.8542 18.8437 12.047 18.8437ZM12.047 6.43968C10.9595 6.43968 9.89642 6.76214 8.99217 7.36629C8.08792 7.97043 7.38311 8.82913 6.96685 9.83382C6.5506 10.8385 6.44159 11.9441 6.65362 13.0107C6.86564 14.0773 7.38918 15.0571 8.15803 15.8262C8.92687 16.5954 9.90651 17.1192 10.9731 17.3316C12.0396 17.544 13.1452 17.4354 14.15 17.0195C15.1549 16.6035 16.0138 15.899 16.6183 14.995C17.2227 14.0909 17.5455 13.028 17.5459 11.9405C17.5443 10.4826 16.9644 9.08483 15.9335 8.05393C14.9026 7.02304 13.5049 6.44317 12.047 6.44156V6.43968Z" fill="#DBE2E6"/>
<path d="M14.3906 12.6436H12.0469C11.8604 12.6436 11.6816 12.5695 11.5497 12.4377C11.4178 12.3058 11.3438 12.1269 11.3438 11.9405V8.10938C11.3438 7.92289 11.4178 7.74405 11.5497 7.61219C11.6816 7.48033 11.8604 7.40625 12.0469 7.40625C12.2334 7.40625 12.4122 7.48033 12.5441 7.61219C12.6759 7.74405 12.75 7.92289 12.75 8.10938V11.2373H14.3906C14.5771 11.2373 14.7559 11.3114 14.8878 11.4433C15.0197 11.5751 15.0938 11.754 15.0938 11.9405C15.0938 12.1269 15.0197 12.3058 14.8878 12.4377C14.7559 12.5695 14.5771 12.6436 14.3906 12.6436Z" fill="#DBE2E6"/>
</svg>
