<svg width="24" height="24" viewBox="0 0 24 24" fill="none" xmlns="http://www.w3.org/2000/svg">
<path d="M9 15.5625C5.32969 15.5625 2.34375 12.5766 2.34375 8.90625C2.34375 5.23594 5.32969 2.25 9 2.25C12.6703 2.25 15.6562 5.23594 15.6562 8.90625C15.6562 12.5766 12.6703 15.5625 9 15.5625ZM9 3.65625C7.96165 3.65625 6.94661 3.96416 6.08326 4.54103C5.2199 5.11791 4.54699 5.93785 4.14963 6.89716C3.75227 7.85647 3.6483 8.91207 3.85088 9.93047C4.05345 10.9489 4.55346 11.8843 5.28769 12.6186C6.02191 13.3528 6.95738 13.8528 7.97578 14.0554C8.99418 14.2579 10.0498 14.154 11.0091 13.7566C11.9684 13.3593 12.7883 12.6864 13.3652 11.823C13.9421 10.9596 14.25 9.9446 14.25 8.90625C14.2485 7.51432 13.6949 6.17983 12.7107 5.19558C11.7264 4.21134 10.3919 3.65774 9 3.65625Z" fill="#DBE2E6"/>
<path d="M9 13.0781C8.17488 13.0781 7.36829 12.8335 6.68223 12.375C5.99617 11.9166 5.46145 11.2651 5.14569 10.5028C4.82993 9.74045 4.74732 8.90162 4.90829 8.09236C5.06926 7.2831 5.46659 6.53974 6.05004 5.95629C6.63349 5.37284 7.37685 4.97551 8.18611 4.81454C8.99537 4.65357 9.8342 4.73618 10.5965 5.05194C11.3588 5.3677 12.0104 5.90242 12.4688 6.58848C12.9272 7.27454 13.1719 8.08113 13.1719 8.90625C13.1713 10.0125 12.7315 11.0733 11.9493 11.8555C11.167 12.6378 10.1063 13.0775 9 13.0781ZM9 6.14063C8.45301 6.14063 7.91831 6.30283 7.4635 6.60672C7.0087 6.91061 6.65422 7.34254 6.4449 7.84789C6.23557 8.35325 6.18081 8.90932 6.28752 9.4458C6.39423 9.98228 6.65763 10.4751 7.04441 10.8618C7.43119 11.2486 7.92398 11.512 8.46046 11.6187C8.99693 11.7254 9.55301 11.6707 10.0584 11.4614C10.5637 11.252 10.9956 10.8976 11.2995 10.4428C11.6034 9.98795 11.7656 9.45324 11.7656 8.90625C11.7656 8.17276 11.4742 7.46932 10.9556 6.95066C10.4369 6.432 9.73349 6.14063 9 6.14063Z" fill="#DBE2E6"/>
<path d="M14.4671 21.0295C12.792 21.0296 11.1786 20.3982 9.94854 19.2612C8.71851 18.1242 7.96237 16.5653 7.83096 14.8955C7.81654 14.7094 7.87664 14.5251 7.99804 14.3834C8.11944 14.2416 8.2922 14.1538 8.47831 14.1394C8.66441 14.125 8.84863 14.1851 8.99042 14.3065C9.13222 14.4279 9.21998 14.6006 9.2344 14.7867C9.31319 15.7868 9.67688 16.7435 10.2824 17.5433C10.888 18.3432 11.71 18.9528 12.6513 19.3C13.5925 19.6472 14.6135 19.7174 15.5934 19.5024C16.5733 19.2874 17.4711 18.7961 18.1805 18.0867C18.8899 17.3773 19.3812 16.4795 19.5962 15.4996C19.8112 14.5197 19.741 13.4987 19.3938 12.5575C19.0466 11.6163 18.437 10.7942 17.6371 10.1887C16.8372 9.58311 15.8806 9.21941 14.8805 9.14063C14.7867 9.1358 14.6949 9.11225 14.6104 9.07136C14.5259 9.03047 14.4504 8.97308 14.3885 8.90256C14.3265 8.83205 14.2793 8.74984 14.2496 8.66078C14.2199 8.57173 14.2084 8.47763 14.2156 8.38404C14.2229 8.29044 14.2488 8.19925 14.2919 8.11584C14.335 8.03243 14.3943 7.95849 14.4664 7.89838C14.5385 7.83827 14.6219 7.7932 14.7117 7.76584C14.8015 7.73848 14.8959 7.72937 14.9892 7.73906C16.6588 7.87044 18.2174 8.62632 19.3544 9.85595C20.4913 11.0856 21.1229 12.6986 21.1233 14.3733C21.1233 18.0436 18.1374 21.0295 14.4671 21.0295Z" fill="#DBE2E6"/>
<path d="M14.4671 18.5438C13.3904 18.5432 12.3556 18.1264 11.5791 17.3805C10.8027 16.6346 10.3446 15.6174 10.3008 14.5416C10.2935 14.3551 10.3605 14.1733 10.4872 14.0363C10.6139 13.8992 10.7898 13.8181 10.9763 13.8108C11.1628 13.8034 11.3445 13.8705 11.4816 13.9972C11.6186 14.1238 11.6998 14.2998 11.7071 14.4863C11.7285 15.0235 11.9062 15.5429 12.2182 15.9808C12.5302 16.4187 12.9632 16.7561 13.464 16.9518C13.9648 17.1475 14.5118 17.193 15.0381 17.0826C15.5644 16.9723 16.047 16.7109 16.4271 16.3305C16.8071 15.9501 17.068 15.4672 17.1778 14.9408C17.2877 14.4144 17.2417 13.8675 17.0455 13.3668C16.8493 12.8662 16.5114 12.4336 16.0732 12.122C15.635 11.8104 15.1155 11.6333 14.5782 11.6123C14.3917 11.605 14.2158 11.5239 14.0891 11.3868C13.9624 11.2498 13.8954 11.068 13.9027 10.8816C13.91 10.6951 13.9912 10.5192 14.1282 10.3925C14.2653 10.2658 14.447 10.1988 14.6335 10.2061C15.7124 10.2665 16.7258 10.7432 17.4603 11.5359C18.1948 12.3285 18.5931 13.3752 18.5713 14.4556C18.5495 15.536 18.1093 16.5658 17.3434 17.3282C16.5775 18.0906 15.5457 18.526 14.4652 18.5428L14.4671 18.5438Z" fill="#DBE2E6"/>
</svg>
