<svg width="24" height="24" viewBox="0 0 24 24" fill="none" xmlns="http://www.w3.org/2000/svg">
<path d="M7.45313 21.0938H3.24048C3.054 21.0938 2.87516 21.0197 2.74329 20.8878C2.61143 20.7559 2.53735 20.5771 2.53735 20.3906V14.6719C2.53735 14.4854 2.61143 14.3066 2.74329 14.1747C2.87516 14.0428 3.054 13.9688 3.24048 13.9688H7.45313C7.63962 13.9688 7.81846 14.0428 7.95032 14.1747C8.08218 14.3066 8.15626 14.4854 8.15626 14.6719V20.3906C8.15626 20.5771 8.08218 20.7559 7.95032 20.8878C7.81846 21.0197 7.63962 21.0938 7.45313 21.0938ZM3.9436 19.6875H6.75001V15.375H3.9436V19.6875Z" fill="#DBE2E6"/>
<path d="M14.0657 21.0938H9.85303C9.66655 21.0938 9.4877 21.0197 9.35584 20.8878C9.22398 20.7559 9.1499 20.5771 9.1499 20.3906V12.1927C9.1499 12.0062 9.22398 11.8273 9.35584 11.6955C9.4877 11.5636 9.66655 11.4895 9.85303 11.4895H14.0657C14.2522 11.4895 14.431 11.5636 14.5629 11.6955C14.6947 11.8273 14.7688 12.0062 14.7688 12.1927V20.3906C14.7688 20.5771 14.6947 20.7559 14.5629 20.8878C14.431 21.0197 14.2522 21.0938 14.0657 21.0938ZM10.5562 19.6875H13.3626V12.8958H10.5562V19.6875Z" fill="#DBE2E6"/>
<path d="M20.678 21.0938H16.4658C16.2793 21.0938 16.1005 21.0197 15.9686 20.8878C15.8368 20.756 15.7627 20.5771 15.7627 20.3906V9.36282C15.7627 9.17634 15.8368 8.9975 15.9686 8.86564C16.1005 8.73378 16.2793 8.6597 16.4658 8.6597H20.678C20.8645 8.6597 21.0433 8.73378 21.1752 8.86564C21.3071 8.9975 21.3811 9.17634 21.3811 9.36282V20.3906C21.3811 20.5771 21.3071 20.756 21.1752 20.8878C21.0433 21.0197 20.8645 21.0938 20.678 21.0938ZM17.1689 19.6875H19.9749V10.0659H17.1689V19.6875Z" fill="#DBE2E6"/>
<path d="M16.5501 7.21501C16.4298 7.21493 16.3115 7.18398 16.2066 7.12512C16.1017 7.06627 16.0136 6.98147 15.9508 6.87884C15.888 6.77622 15.8526 6.65919 15.848 6.53897C15.8433 6.41875 15.8696 6.29935 15.9243 6.1922L16.7146 4.64064L15.1636 3.85079C15.0811 3.80897 15.0077 3.7513 14.9476 3.68109C14.8875 3.61087 14.8418 3.52949 14.8132 3.4416C14.7845 3.35371 14.7735 3.26104 14.7807 3.16888C14.7879 3.07673 14.8132 2.9869 14.8552 2.90454C14.8972 2.82217 14.955 2.74889 15.0253 2.68889C15.0956 2.62889 15.1771 2.58334 15.265 2.55485C15.3529 2.52637 15.4456 2.5155 15.5378 2.52287C15.6299 2.53024 15.7197 2.55571 15.802 2.59782L17.9798 3.70735C18.1459 3.79206 18.2715 3.93923 18.3291 4.11653C18.3866 4.29382 18.3714 4.48672 18.2868 4.65282L17.1773 6.83064C17.1184 6.94637 17.0287 7.04354 16.918 7.11138C16.8073 7.17923 16.68 7.2151 16.5501 7.21501Z" fill="#DBE2E6"/>
<path d="M4.63414 9.26954C4.46664 9.26963 4.30461 9.20991 4.17723 9.10115C4.04984 8.99238 3.96547 8.84172 3.9393 8.67627C3.91313 8.51083 3.94688 8.34148 4.03448 8.19871C4.12208 8.05594 4.25776 7.94913 4.41711 7.89751L17.2206 3.73736C17.3973 3.68205 17.5886 3.69869 17.7532 3.78364C17.9177 3.86859 18.042 4.01501 18.0993 4.19111C18.1565 4.3672 18.1419 4.55876 18.0588 4.72419C17.9756 4.88962 17.8305 5.01557 17.6551 5.0747L4.85164 9.23439C4.78144 9.25746 4.70804 9.26933 4.63414 9.26954Z" fill="#DBE2E6"/>
</svg>
