<svg width="24" height="24" viewBox="0 0 24 24" fill="none" xmlns="http://www.w3.org/2000/svg">
<path d="M18.5531 18.7233H5.36579C4.61595 18.7225 3.89703 18.4244 3.36677 17.8942C2.83651 17.364 2.53822 16.6451 2.53735 15.8953V8.21249C2.53822 7.46265 2.83651 6.74378 3.36677 6.21361C3.89703 5.68344 4.61595 5.38527 5.36579 5.38452H18.5531C19.3029 5.38527 20.0218 5.68345 20.552 6.21364C21.0822 6.74382 21.3804 7.46269 21.3811 8.21249V15.8953C21.3804 16.6451 21.0822 17.364 20.552 17.8942C20.0218 18.4243 19.3029 18.7225 18.5531 18.7233ZM5.36579 6.79077C4.9888 6.79114 4.62735 6.94104 4.36073 7.20757C4.09411 7.4741 3.9441 7.8355 3.9436 8.21249V15.8953C3.9441 16.2723 4.09411 16.6337 4.36073 16.9002C4.62735 17.1668 4.9888 17.3166 5.36579 17.317H18.5531C18.9301 17.3166 19.2915 17.1667 19.558 16.9002C19.8246 16.6337 19.9745 16.2723 19.9749 15.8953V8.21249C19.9745 7.83554 19.8246 7.47414 19.558 7.20759C19.2915 6.94105 18.9301 6.79114 18.5531 6.79077H5.36579Z" fill="#DBE2E6"/>
<path d="M20.678 12.5494H3.24048C3.054 12.5494 2.87516 12.4753 2.74329 12.3434C2.61143 12.2116 2.53735 12.0327 2.53735 11.8463V8.94516C2.53735 8.75868 2.61143 8.57984 2.74329 8.44798C2.87516 8.31611 3.054 8.24203 3.24048 8.24203H20.678C20.8645 8.24203 21.0433 8.31611 21.1752 8.44798C21.307 8.57984 21.3811 8.75868 21.3811 8.94516V11.8463C21.3811 12.0327 21.307 12.2116 21.1752 12.3434C21.0433 12.4753 20.8645 12.5494 20.678 12.5494ZM3.9436 11.1431H19.9749V9.64828H3.9436V11.1431Z" fill="#DBE2E6"/>
<path d="M7.20902 14.8125H5.41699C5.23051 14.8125 5.05167 14.7384 4.91981 14.6066C4.78795 14.4747 4.71387 14.2959 4.71387 14.1094C4.71387 13.9229 4.78795 13.7441 4.91981 13.6122C5.05167 13.4803 5.23051 13.4062 5.41699 13.4062H7.20902C7.3955 13.4062 7.57435 13.4803 7.70621 13.6122C7.83807 13.7441 7.91215 13.9229 7.91215 14.1094C7.91215 14.2959 7.83807 14.4747 7.70621 14.6066C7.57435 14.7384 7.3955 14.8125 7.20902 14.8125Z" fill="#DBE2E6"/>
<path d="M10.8418 14.8125H9.0498C8.86332 14.8125 8.68448 14.7384 8.55262 14.6066C8.42076 14.4747 8.34668 14.2959 8.34668 14.1094C8.34668 13.9229 8.42076 13.7441 8.55262 13.6122C8.68448 13.4803 8.86332 13.4062 9.0498 13.4062H10.8418C11.0283 13.4062 11.2072 13.4803 11.339 13.6122C11.4709 13.7441 11.545 13.9229 11.545 14.1094C11.545 14.2959 11.4709 14.4747 11.339 14.6066C11.2072 14.7384 11.0283 14.8125 10.8418 14.8125Z" fill="#DBE2E6"/>
<path d="M14.4746 14.8125H12.6826C12.4961 14.8125 12.3173 14.7384 12.1854 14.6066C12.0536 14.4747 11.9795 14.2959 11.9795 14.1094C11.9795 13.9229 12.0536 13.7441 12.1854 13.6122C12.3173 13.4803 12.4961 13.4062 12.6826 13.4062H14.4746C14.6611 13.4062 14.84 13.4803 14.9718 13.6122C15.1037 13.7441 15.1778 13.9229 15.1778 14.1094C15.1778 14.2959 15.1037 14.4747 14.9718 14.6066C14.84 14.7384 14.6611 14.8125 14.4746 14.8125Z" fill="#DBE2E6"/>
</svg>
