<svg width="24" height="24" viewBox="0 0 24 24" fill="none" xmlns="http://www.w3.org/2000/svg">
<path d="M12.4219 9.09375C10.9786 9.09375 9.60938 8.78016 8.57109 8.21109C7.39688 7.56844 6.75 6.66703 6.75 5.67188C6.75 4.67672 7.39688 3.77531 8.57109 3.13266C9.60938 2.56359 10.9786 2.25 12.4219 2.25C13.8652 2.25 15.2344 2.56359 16.2727 3.13266C17.4469 3.77531 18.0938 4.67672 18.0938 5.67188C18.0938 6.66703 17.4469 7.56844 16.2727 8.21109C15.2344 8.78016 13.8652 9.09375 12.4219 9.09375ZM12.4219 3.65625C11.228 3.65625 10.0706 3.915 9.24609 4.36641C8.55328 4.74516 8.15625 5.22094 8.15625 5.67188C8.15625 6.12281 8.55328 6.59859 9.24609 6.97734C10.0706 7.42875 11.228 7.6875 12.4219 7.6875C13.6158 7.6875 14.7731 7.42875 15.5977 6.97734C16.2905 6.59859 16.6875 6.12281 16.6875 5.67188C16.6875 5.22094 16.2905 4.74516 15.5977 4.36641C14.7731 3.915 13.6158 3.65625 12.4219 3.65625Z" fill="#DBE2E6"/>
<path d="M12.4219 21.0591C10.9786 21.0591 9.60938 20.7455 8.57109 20.1764C7.39922 19.5342 6.75 18.6323 6.75 17.6372V5.67188C6.75 5.48539 6.82408 5.30655 6.95594 5.17469C7.0878 5.04283 7.26664 4.96875 7.45312 4.96875C7.63961 4.96875 7.81845 5.04283 7.95031 5.17469C8.08217 5.30655 8.15625 5.48539 8.15625 5.67188V17.6372C8.15625 18.0881 8.55328 18.5639 9.24609 18.9427C10.0706 19.3941 11.228 19.6528 12.4219 19.6528C13.6158 19.6528 14.7731 19.3941 15.5977 18.9427C16.2905 18.5625 16.6875 18.0881 16.6875 17.6372V5.67188C16.6875 5.48539 16.7616 5.30655 16.8934 5.17469C17.0253 5.04283 17.2041 4.96875 17.3906 4.96875C17.5771 4.96875 17.7559 5.04283 17.8878 5.17469C18.0197 5.30655 18.0938 5.48539 18.0938 5.67188V17.6372C18.0938 18.6323 17.4469 19.5342 16.2727 20.1764C15.2344 20.7455 13.8652 21.0591 12.4219 21.0591Z" fill="#DBE2E6"/>
<path d="M12.4219 18.9548C10.9786 18.9548 9.60938 18.6412 8.57109 18.0722C7.39922 17.4295 6.75 16.5253 6.75 15.533C6.75 15.3465 6.82408 15.1676 6.95594 15.0358C7.0878 14.9039 7.26664 14.8298 7.45312 14.8298C7.63961 14.8298 7.81845 14.9039 7.95031 15.0358C8.08217 15.1676 8.15625 15.3465 8.15625 15.533C8.15625 15.9834 8.55328 16.4597 9.24609 16.8384C10.0706 17.2894 11.228 17.5486 12.4219 17.5486C13.6158 17.5486 14.7731 17.2894 15.5977 16.8384C16.2905 16.4597 16.6875 15.9844 16.6875 15.533C16.6875 15.3465 16.7616 15.1676 16.8934 15.0358C17.0253 14.9039 17.2041 14.8298 17.3906 14.8298C17.5771 14.8298 17.7559 14.9039 17.8878 15.0358C18.0197 15.1676 18.0938 15.3465 18.0938 15.533C18.0938 16.5276 17.4469 17.4295 16.2727 18.0722C15.2344 18.6412 13.8652 18.9548 12.4219 18.9548Z" fill="#DBE2E6"/>
<path d="M12.4219 16.4311C10.9786 16.4311 9.60938 16.1175 8.57109 15.5484C7.39688 14.9062 6.75 14.0044 6.75 13.0092C6.75 12.8227 6.82408 12.6439 6.95594 12.512C7.0878 12.3802 7.26664 12.3061 7.45312 12.3061C7.63961 12.3061 7.81845 12.3802 7.95031 12.512C8.08217 12.6439 8.15625 12.8227 8.15625 13.0092C8.15625 13.4602 8.55328 13.9359 9.24609 14.3147C10.0706 14.7661 11.228 15.0248 12.4219 15.0248C13.6158 15.0248 14.7731 14.7661 15.5977 14.3147C16.2905 13.9359 16.6875 13.4602 16.6875 13.0092C16.6875 12.8227 16.7616 12.6439 16.8934 12.512C17.0253 12.3802 17.2041 12.3061 17.3906 12.3061C17.5771 12.3061 17.7559 12.3802 17.8878 12.512C18.0197 12.6439 18.0938 12.8227 18.0938 13.0092C18.0938 14.0044 17.4469 14.9058 16.2727 15.5484C15.2344 16.1175 13.8652 16.4311 12.4219 16.4311Z" fill="#DBE2E6"/>
<path d="M12.4219 13.9073C10.9786 13.9073 9.60938 13.5942 8.57109 13.0247C7.39922 12.3825 6.75 11.4806 6.75 10.4855C6.75 10.299 6.82408 10.1202 6.95594 9.98829C7.0878 9.85643 7.26664 9.78235 7.45312 9.78235C7.63961 9.78235 7.81845 9.85643 7.95031 9.98829C8.08217 10.1202 8.15625 10.299 8.15625 10.4855C8.15625 10.9364 8.55328 11.4122 9.24609 11.7914C10.0706 12.2423 11.228 12.5011 12.4219 12.5011C13.6158 12.5011 14.7731 12.2423 15.5977 11.7914C16.2905 11.4122 16.6875 10.9364 16.6875 10.4855C16.6875 10.299 16.7616 10.1202 16.8934 9.98829C17.0253 9.85643 17.2041 9.78235 17.3906 9.78235C17.5771 9.78235 17.7559 9.85643 17.8878 9.98829C18.0197 10.1202 18.0938 10.299 18.0938 10.4855C18.0938 11.4806 17.4469 12.3825 16.2727 13.0247C15.2344 13.5938 13.8652 13.9073 12.4219 13.9073Z" fill="#DBE2E6"/>
<path d="M12.4219 11.3841C10.9786 11.3841 9.60938 11.0705 8.57109 10.5014C7.39922 9.85875 6.75 8.95688 6.75 7.96219C6.75 7.77571 6.82408 7.59687 6.95594 7.465C7.0878 7.33314 7.26664 7.25906 7.45312 7.25906C7.63961 7.25906 7.81845 7.33314 7.95031 7.465C8.08217 7.59687 8.15625 7.77571 8.15625 7.96219C8.15625 8.41313 8.55328 8.88891 9.24609 9.26766C10.0706 9.71906 11.228 9.97781 12.4219 9.97781C13.6158 9.97781 14.7731 9.71906 15.5977 9.26766C16.2905 8.88891 16.6875 8.41313 16.6875 7.96219C16.6875 7.77571 16.7616 7.59687 16.8934 7.465C17.0253 7.33314 17.2041 7.25906 17.3906 7.25906C17.5771 7.25906 17.7559 7.33314 17.8878 7.465C18.0197 7.59687 18.0938 7.77571 18.0938 7.96219C18.0938 8.95688 17.4469 9.85875 16.2727 10.5014C15.2344 11.0705 13.8652 11.3841 12.4219 11.3841Z" fill="#DBE2E6"/>
</svg>
