<svg width="24" height="24" viewBox="0 0 24 24" fill="none" xmlns="http://www.w3.org/2000/svg">
<path d="M5.60635 10.0402C5.10059 10.0404 4.60389 9.90594 4.16729 9.65063C3.13089 9.0436 2.60729 7.81922 2.8651 6.60375L3.66948 2.80688C3.70306 2.64894 3.78998 2.50738 3.91564 2.40597C4.04129 2.30456 4.19801 2.24949 4.35948 2.25H7.75323C7.93971 2.25 8.11855 2.32408 8.25041 2.45594C8.38228 2.58781 8.45635 2.76665 8.45635 2.95313V7.19016C8.45549 7.94576 8.15494 8.67016 7.62065 9.20446C7.08636 9.73875 6.36196 10.0393 5.60635 10.0402ZM4.92714 3.65625L4.24089 6.89532C4.11104 7.5075 4.37307 8.14172 4.87792 8.4375C5.09739 8.56543 5.34671 8.63322 5.60075 8.63404C5.85478 8.63486 6.10454 8.56868 6.32483 8.44218C6.54513 8.31568 6.72817 8.13333 6.85551 7.91351C6.98284 7.6937 7.04996 7.44419 7.0501 7.19016V3.65625H4.92714Z" fill="#DBE2E6"/>
<path d="M9.90005 10.0402C9.14441 10.0395 8.41993 9.73898 7.88562 9.20466C7.3513 8.67035 7.05079 7.94587 7.05005 7.19023V2.9532C7.05005 2.76672 7.12413 2.58788 7.25599 2.45602C7.38785 2.32416 7.56669 2.25008 7.75317 2.25008H12.0469C12.2334 2.25008 12.4122 2.32416 12.5441 2.45602C12.676 2.58788 12.75 2.76672 12.75 2.9532V7.19023C12.7492 7.94583 12.4486 8.67024 11.9143 9.20453C11.3801 9.73882 10.6556 10.0394 9.90005 10.0402ZM8.4563 3.65633V7.19023C8.4563 7.57314 8.60841 7.94036 8.87916 8.21112C9.14992 8.48187 9.51714 8.63398 9.90005 8.63398C10.283 8.63398 10.6502 8.48187 10.9209 8.21112C11.1917 7.94036 11.3438 7.57314 11.3438 7.19023V3.65633H8.4563Z" fill="#DBE2E6"/>
<path d="M14.1937 10.0402C13.4381 10.0395 12.7136 9.73898 12.1793 9.20466C11.645 8.67035 11.3445 7.94587 11.3438 7.19023V2.9532C11.3438 2.76672 11.4178 2.58788 11.5497 2.45602C11.6816 2.32416 11.8604 2.25008 12.0469 2.25008H16.3406C16.5271 2.25008 16.7059 2.32416 16.8378 2.45602C16.9697 2.58788 17.0438 2.76672 17.0438 2.9532V7.19023C17.0429 7.94583 16.7423 8.67024 16.208 9.20453C15.6738 9.73882 14.9493 10.0394 14.1937 10.0402ZM12.75 3.65633V7.19023C12.75 7.57314 12.9021 7.94036 13.1729 8.21112C13.4436 8.48187 13.8108 8.63398 14.1937 8.63398C14.5767 8.63398 14.9439 8.48187 15.2146 8.21112C15.4854 7.94036 15.6375 7.57314 15.6375 7.19023V3.65633H12.75Z" fill="#DBE2E6"/>
<path d="M18.4872 10.0402C17.7317 10.0394 17.0073 9.7388 16.4731 9.2045C15.9389 8.6702 15.6384 7.94579 15.6377 7.19023V2.9532C15.6377 2.76672 15.7118 2.58788 15.8436 2.45602C15.9755 2.32416 16.1543 2.25008 16.3408 2.25008H19.7346C19.8957 2.25012 20.0519 2.3055 20.1771 2.40696C20.3023 2.50842 20.3888 2.64979 20.4222 2.80742L21.2271 6.60429C21.4844 7.81976 20.9608 9.04414 19.9244 9.65117C19.4883 9.90606 18.9923 10.0403 18.4872 10.0402ZM17.0439 3.65633V7.19023C17.0441 7.4442 17.1113 7.69362 17.2386 7.91337C17.3659 8.13312 17.5489 8.31543 17.7691 8.44192C17.9893 8.5684 18.239 8.6346 18.493 8.63384C18.7469 8.63308 18.9962 8.56538 19.2157 8.43758C19.7205 8.1418 19.9825 7.50758 19.8532 6.89539L19.1664 3.65633H17.0439Z" fill="#DBE2E6"/>
<path d="M19.9104 20.9747H4.18335C3.99687 20.9747 3.81803 20.9006 3.68617 20.7687C3.5543 20.6369 3.48022 20.458 3.48022 20.2716V8.79375C3.48022 8.60727 3.5543 8.42842 3.68617 8.29656C3.81803 8.1647 3.99687 8.09062 4.18335 8.09062C4.36983 8.09062 4.54867 8.1647 4.68053 8.29656C4.8124 8.42842 4.88647 8.60727 4.88647 8.79375V19.5684H19.2073V8.79375C19.2073 8.60727 19.2813 8.42842 19.4132 8.29656C19.5451 8.1647 19.7239 8.09062 19.9104 8.09062C20.0969 8.09062 20.2757 8.1647 20.4076 8.29656C20.5394 8.42842 20.6135 8.60727 20.6135 8.79375V20.2716C20.6135 20.458 20.5394 20.6369 20.4076 20.7687C20.2757 20.9006 20.0969 20.9747 19.9104 20.9747Z" fill="#DBE2E6"/>
<path d="M10.8179 20.9747H6.52417C6.33769 20.9747 6.15885 20.9006 6.02699 20.7688C5.89512 20.6369 5.82104 20.458 5.82104 20.2716V12.2752C5.82104 12.0887 5.89512 11.9098 6.02699 11.778C6.15885 11.6461 6.33769 11.572 6.52417 11.572H10.8179C11.0044 11.572 11.1832 11.6461 11.3151 11.778C11.447 11.9098 11.521 12.0887 11.521 12.2752V20.2716C11.521 20.458 11.447 20.6369 11.3151 20.7688C11.1832 20.9006 11.0044 20.9747 10.8179 20.9747ZM7.22729 19.5684H10.1148V12.9783H7.22729V19.5684Z" fill="#DBE2E6"/>
<path d="M17.5694 18.4256H13.2756C13.0892 18.4256 12.9103 18.3516 12.7785 18.2197C12.6466 18.0878 12.5725 17.909 12.5725 17.7225V12.2752C12.5725 12.0887 12.6466 11.9098 12.7785 11.778C12.9103 11.6461 13.0892 11.572 13.2756 11.572H17.5694C17.7559 11.572 17.9347 11.6461 18.0666 11.778C18.1984 11.9098 18.2725 12.0887 18.2725 12.2752V17.7225C18.2725 17.909 18.1984 18.0878 18.0666 18.2197C17.9347 18.3516 17.7559 18.4256 17.5694 18.4256ZM13.9788 17.0194H16.8663V12.9783H13.9788V17.0194Z" fill="#DBE2E6"/>
</svg>
