<svg width="24" height="24" viewBox="0 0 24 24" fill="none" xmlns="http://www.w3.org/2000/svg">
<path d="M20.678 21H3.24048C3.054 21 2.87516 20.9259 2.74329 20.7941C2.61143 20.6622 2.53735 20.4834 2.53735 20.2969V15.1772C2.53735 14.9907 2.61143 14.8119 2.74329 14.68C2.87516 14.5481 3.054 14.4741 3.24048 14.4741H20.678C20.8645 14.4741 21.0433 14.5481 21.1752 14.68C21.307 14.8119 21.3811 14.9907 21.3811 15.1772V20.2969C21.3811 20.4834 21.307 20.6622 21.1752 20.7941C21.0433 20.9259 20.8645 21 20.678 21ZM3.9436 19.5937H19.9749V15.8803H3.9436V19.5937Z" fill="#DBE2E6"/>
<path d="M19.2145 15.8803H4.70435C4.51787 15.8803 4.33902 15.8062 4.20716 15.6744C4.0753 15.5425 4.00122 15.3637 4.00122 15.1772V9.9375C4.00122 9.39049 4.21852 8.86589 4.60531 8.47909C4.99211 8.0923 5.51671 7.875 6.06372 7.875H17.8565C18.4035 7.875 18.9281 8.0923 19.3149 8.47909C19.7017 8.86589 19.919 9.39049 19.919 9.9375V15.1772C19.919 15.2696 19.9008 15.3612 19.8654 15.4466C19.83 15.532 19.778 15.6096 19.7126 15.6749C19.6472 15.7402 19.5695 15.7919 19.484 15.8272C19.3985 15.8624 19.307 15.8805 19.2145 15.8803ZM5.40747 14.4741H18.5114V9.9375C18.5114 9.76345 18.4422 9.59653 18.3192 9.47346C18.1961 9.35039 18.0292 9.28125 17.8551 9.28125H6.06185C5.8878 9.28125 5.72088 9.35039 5.59781 9.47346C5.47474 9.59653 5.4056 9.76345 5.4056 9.9375L5.40747 14.4741Z" fill="#DBE2E6"/>
<path d="M19.2258 6.20953H11.7187C11.5323 6.20953 11.3534 6.13545 11.2216 6.00359C11.0897 5.87173 11.0156 5.69289 11.0156 5.50641V2.85938C11.0156 2.67289 11.0897 2.49405 11.2216 2.36219C11.3534 2.23033 11.5323 2.15625 11.7187 2.15625H19.2258C19.4123 2.15625 19.5911 2.23033 19.723 2.36219C19.8548 2.49405 19.9289 2.67289 19.9289 2.85938V5.50688C19.9288 5.69327 19.8546 5.872 19.7228 6.00376C19.591 6.13552 19.4122 6.20953 19.2258 6.20953ZM12.4219 4.80328H18.5227V3.5625H12.4219V4.80328Z" fill="#DBE2E6"/>
<path d="M15.3577 9.28125C15.1712 9.28125 14.9923 9.20717 14.8605 9.07531C14.7286 8.94345 14.6545 8.76461 14.6545 8.57813V5.50641C14.6545 5.31993 14.7286 5.14109 14.8605 5.00922C14.9923 4.87736 15.1712 4.80328 15.3577 4.80328C15.5441 4.80328 15.723 4.87736 15.8549 5.00922C15.9867 5.14109 16.0608 5.31993 16.0608 5.50641V8.57813C16.0608 8.76461 15.9867 8.94345 15.8549 9.07531C15.723 9.20717 15.5441 9.28125 15.3577 9.28125Z" fill="#DBE2E6"/>
<path d="M8.63147 11.5851H7.1521C6.96562 11.5851 6.78678 11.5111 6.65492 11.3792C6.52305 11.2473 6.44897 11.0685 6.44897 10.882C6.44897 10.6955 6.52305 10.5167 6.65492 10.3848C6.78678 10.253 6.96562 10.1789 7.1521 10.1789H8.63147C8.81795 10.1789 8.9968 10.253 9.12866 10.3848C9.26052 10.5167 9.3346 10.6955 9.3346 10.882C9.3346 11.0685 9.26052 11.2473 9.12866 11.3792C8.9968 11.5111 8.81795 11.5851 8.63147 11.5851Z" fill="#DBE2E6"/>
<path d="M8.63147 13.5764H7.1521C6.96562 13.5764 6.78678 13.5023 6.65492 13.3705C6.52305 13.2386 6.44897 13.0598 6.44897 12.8733C6.44897 12.6868 6.52305 12.508 6.65492 12.3761C6.78678 12.2442 6.96562 12.1702 7.1521 12.1702H8.63147C8.81795 12.1702 8.9968 12.2442 9.12866 12.3761C9.26052 12.508 9.3346 12.6868 9.3346 12.8733C9.3346 13.0598 9.26052 13.2386 9.12866 13.3705C8.9968 13.5023 8.81795 13.5764 8.63147 13.5764Z" fill="#DBE2E6"/>
<path d="M16.7663 11.5851H15.2874C15.1009 11.5851 14.922 11.5111 14.7902 11.3792C14.6583 11.2473 14.5842 11.0685 14.5842 10.882C14.5842 10.6955 14.6583 10.5167 14.7902 10.3848C14.922 10.253 15.1009 10.1789 15.2874 10.1789H16.7663C16.9527 10.1789 17.1316 10.253 17.2634 10.3848C17.3953 10.5167 17.4694 10.6955 17.4694 10.882C17.4694 11.0685 17.3953 11.2473 17.2634 11.3792C17.1316 11.5111 16.9527 11.5851 16.7663 11.5851Z" fill="#DBE2E6"/>
<path d="M16.7663 13.5764H15.2874C15.1009 13.5764 14.922 13.5023 14.7902 13.3705C14.6583 13.2386 14.5842 13.0598 14.5842 12.8733C14.5842 12.6868 14.6583 12.508 14.7902 12.3761C14.922 12.2442 15.1009 12.1702 15.2874 12.1702H16.7663C16.9527 12.1702 17.1316 12.2442 17.2634 12.3761C17.3953 12.508 17.4694 12.6868 17.4694 12.8733C17.4694 13.0598 17.3953 13.2386 17.2634 13.3705C17.1316 13.5023 16.9527 13.5764 16.7663 13.5764Z" fill="#DBE2E6"/>
<path d="M12.6989 11.5851H11.22C11.0335 11.5851 10.8546 11.5111 10.7228 11.3792C10.5909 11.2473 10.5168 11.0685 10.5168 10.882C10.5168 10.6955 10.5909 10.5167 10.7228 10.3848C10.8546 10.253 11.0335 10.1789 11.22 10.1789H12.6989C12.8854 10.1789 13.0642 10.253 13.1961 10.3848C13.3279 10.5167 13.402 10.6955 13.402 10.882C13.402 11.0685 13.3279 11.2473 13.1961 11.3792C13.0642 11.5111 12.8854 11.5851 12.6989 11.5851Z" fill="#DBE2E6"/>
<path d="M12.6989 13.5764H11.22C11.0335 13.5764 10.8546 13.5023 10.7228 13.3705C10.5909 13.2386 10.5168 13.0598 10.5168 12.8733C10.5168 12.6868 10.5909 12.508 10.7228 12.3761C10.8546 12.2442 11.0335 12.1702 11.22 12.1702H12.6989C12.8854 12.1702 13.0642 12.2442 13.1961 12.3761C13.3279 12.508 13.402 12.6868 13.402 12.8733C13.402 13.0598 13.3279 13.2386 13.1961 13.3705C13.0642 13.5023 12.8854 13.5764 12.6989 13.5764Z" fill="#DBE2E6"/>
<path d="M11.9592 18.4397C11.9362 18.4398 11.9132 18.4387 11.8903 18.4364C11.8673 18.4341 11.8445 18.4307 11.8219 18.4261C11.7998 18.4214 11.7773 18.4158 11.7553 18.4092C11.7115 18.3955 11.669 18.3779 11.6283 18.3567C11.5878 18.3347 11.5494 18.3091 11.5134 18.2803C11.4956 18.2658 11.4783 18.2498 11.4623 18.2334C11.4458 18.2171 11.4302 18.1998 11.4155 18.1819C11.4007 18.1642 11.3869 18.1458 11.3742 18.1266C11.3614 18.1075 11.3497 18.0878 11.3391 18.0675C11.3283 18.0473 11.3184 18.0262 11.3095 18.0052C11.3006 17.9841 11.2931 17.9625 11.2866 17.9405C11.2798 17.9184 11.2741 17.8961 11.2697 17.8734C11.2651 17.851 11.2617 17.8283 11.2594 17.8055C11.2569 17.7824 11.2557 17.7593 11.2556 17.7361C11.2557 17.7131 11.2569 17.6901 11.2594 17.6672C11.2616 17.6442 11.2651 17.6214 11.2697 17.5987C11.2741 17.5763 11.2797 17.554 11.2866 17.5322C11.2931 17.5102 11.3011 17.4886 11.3095 17.4675C11.318 17.4464 11.3283 17.4253 11.3391 17.4052C11.3498 17.3849 11.3615 17.3652 11.3742 17.3461C11.387 17.3268 11.4008 17.3082 11.4155 17.2903C11.4448 17.2548 11.4774 17.2221 11.513 17.1928C11.5308 17.1781 11.5495 17.1644 11.5687 17.1516C11.5878 17.1388 11.6075 17.1271 11.6278 17.1164C11.648 17.1056 11.6691 17.0958 11.6901 17.0869C11.7112 17.078 11.7328 17.0705 11.7548 17.0639C11.7767 17.057 11.7989 17.0513 11.8214 17.047C11.844 17.0424 11.8669 17.039 11.8898 17.0367C11.9587 17.0298 12.0282 17.0332 12.0961 17.047C12.1188 17.0513 12.1411 17.0569 12.1631 17.0639C12.1851 17.0705 12.2067 17.0784 12.2278 17.0869C12.2489 17.0953 12.27 17.1056 12.2901 17.1164C12.3103 17.1272 12.33 17.1389 12.3492 17.1516C12.3685 17.1644 12.3871 17.1781 12.405 17.1928C12.4405 17.2221 12.4732 17.2548 12.5025 17.2903C12.517 17.3081 12.5306 17.3269 12.5437 17.3461C12.5569 17.3653 12.5681 17.385 12.5789 17.4052C12.5898 17.4253 12.5995 17.4462 12.608 17.4675C12.617 17.4886 12.6248 17.5102 12.6314 17.5322C12.638 17.5537 12.6436 17.5762 12.6483 17.5987C12.6529 17.6214 12.6563 17.6442 12.6586 17.6672C12.6608 17.6901 12.6619 17.7131 12.6619 17.7361C12.6619 17.7593 12.6608 17.7824 12.6586 17.8055C12.6563 17.8283 12.6529 17.851 12.6483 17.8734C12.6436 17.8959 12.638 17.9203 12.6314 17.9405C12.6177 17.9843 12.6001 18.0268 12.5789 18.0675C12.5681 18.0877 12.5559 18.1073 12.5437 18.1266C12.5316 18.1458 12.517 18.1645 12.5025 18.1819C12.4877 18.1998 12.4721 18.2171 12.4556 18.2334C12.4397 18.2494 12.4223 18.2653 12.4045 18.2803C12.3866 18.2948 12.368 18.3085 12.3487 18.3211C12.3295 18.3337 12.3098 18.3459 12.2897 18.3567C12.249 18.3779 12.2065 18.3955 12.1626 18.4092C12.1406 18.4158 12.1181 18.4214 12.0956 18.4261C12.0731 18.4307 12.0505 18.4341 12.0276 18.4364C12.0049 18.4386 11.9821 18.4397 11.9592 18.4397Z" fill="#DBE2E6"/>
</svg>
