<svg width="24" height="24" viewBox="0 0 24 24" fill="none" xmlns="http://www.w3.org/2000/svg">
<path d="M19.0731 21.0937C18.9621 21.0939 18.8526 21.0675 18.7538 21.0169L16.6346 19.9387L15.062 20.9789C14.9469 21.055 14.812 21.0956 14.6741 21.0956C14.5361 21.0956 14.4012 21.055 14.2862 20.9789L12.7585 19.9687L11.2318 20.9784C11.1168 21.0545 10.9819 21.0951 10.8439 21.0951C10.706 21.0951 10.5711 21.0545 10.456 20.9784L8.88196 19.9383L6.76087 21.0187C6.65356 21.0734 6.53399 21.0996 6.41364 21.0948C6.2933 21.09 6.1762 21.0544 6.07357 20.9913C5.97095 20.9283 5.88625 20.8399 5.82758 20.7348C5.76891 20.6296 5.73825 20.5111 5.73853 20.3906V2.95312C5.73857 2.83283 5.76947 2.71457 5.82827 2.60964C5.88707 2.5047 5.9718 2.41661 6.07437 2.35378C6.17694 2.29095 6.29392 2.25548 6.41411 2.25077C6.5343 2.24606 6.6537 2.27226 6.76087 2.32687L8.88009 3.40499L10.4532 2.36671C10.5683 2.29062 10.7032 2.25004 10.8411 2.25004C10.979 2.25004 11.1139 2.29062 11.229 2.36671L12.7557 3.37499L14.2829 2.36671C14.3979 2.29071 14.5327 2.2502 14.6706 2.2502C14.8084 2.2502 14.9432 2.29071 15.0582 2.36671L16.6327 3.40687L18.7538 2.3264C18.861 2.27188 18.9804 2.24577 19.1006 2.25056C19.2207 2.25535 19.3377 2.29087 19.4402 2.35375C19.5427 2.41662 19.6274 2.50474 19.6861 2.60967C19.7449 2.71461 19.7757 2.83286 19.7757 2.95312V20.3906C19.7757 20.5771 19.7016 20.7559 19.5698 20.8878C19.4379 21.0197 19.2591 21.0937 19.0726 21.0937H19.0731ZM8.9279 18.4219C9.06572 18.4218 9.20053 18.4622 9.31556 18.5381L10.8437 19.5469L12.3709 18.5372C12.4859 18.4612 12.6207 18.4207 12.7585 18.4207C12.8964 18.4207 13.0312 18.4612 13.1462 18.5372L14.672 19.5469L16.1992 18.5372C16.3029 18.4685 16.423 18.4286 16.5471 18.4216C16.6713 18.4145 16.7952 18.4405 16.906 18.4969L18.3681 19.2422V4.10156L16.9046 4.84734C16.7938 4.90381 16.67 4.92988 16.5458 4.92288C16.4216 4.91588 16.3015 4.87606 16.1977 4.80749L14.672 3.79687L13.1438 4.80562C13.0288 4.88172 12.8939 4.92229 12.7559 4.92229C12.618 4.92229 12.4831 4.88172 12.3681 4.80562L10.8409 3.79687L9.31368 4.80656C9.20995 4.8752 9.08987 4.9151 8.96569 4.92218C8.84151 4.92926 8.71767 4.90327 8.60681 4.84687L7.14478 4.10156V19.2422L8.60868 18.4964C8.70773 18.4468 8.81711 18.4212 8.9279 18.4219Z" fill="#DBE2E6"/>
<path d="M16.4532 7.75734H9.05957C8.87309 7.75734 8.69425 7.68326 8.56239 7.5514C8.43052 7.41954 8.35645 7.24069 8.35645 7.05421C8.35645 6.86773 8.43052 6.68889 8.56239 6.55703C8.69425 6.42517 8.87309 6.35109 9.05957 6.35109H16.4532C16.6396 6.35109 16.8185 6.42517 16.9503 6.55703C17.0822 6.68889 17.1563 6.86773 17.1563 7.05421C17.1563 7.24069 17.0822 7.41954 16.9503 7.5514C16.8185 7.68326 16.6396 7.75734 16.4532 7.75734Z" fill="#DBE2E6"/>
<path d="M16.4532 10.5412H9.05957C8.87309 10.5412 8.69425 10.4672 8.56239 10.3353C8.43052 10.2034 8.35645 10.0246 8.35645 9.83812C8.35645 9.65164 8.43052 9.4728 8.56239 9.34093C8.69425 9.20907 8.87309 9.13499 9.05957 9.13499H16.4532C16.6396 9.13499 16.8185 9.20907 16.9503 9.34093C17.0822 9.4728 17.1563 9.65164 17.1563 9.83812C17.1563 10.0246 17.0822 10.2034 16.9503 10.3353C16.8185 10.4672 16.6396 10.5412 16.4532 10.5412Z" fill="#DBE2E6"/>
<path d="M16.4532 16.3594H13.1555C12.969 16.3594 12.7902 16.2853 12.6583 16.1534C12.5265 16.0216 12.4524 15.8427 12.4524 15.6562C12.4524 15.4698 12.5265 15.2909 12.6583 15.1591C12.7902 15.0272 12.969 14.9531 13.1555 14.9531H16.4532C16.6397 14.9531 16.8185 15.0272 16.9504 15.1591C17.0822 15.2909 17.1563 15.4698 17.1563 15.6562C17.1563 15.8427 17.0822 16.0216 16.9504 16.1534C16.8185 16.2853 16.6397 16.3594 16.4532 16.3594Z" fill="#DBE2E6"/>
</svg>
