<svg width="24" height="24" viewBox="0 0 24 24" fill="none" xmlns="http://www.w3.org/2000/svg">
<path d="M6.95532 21.0938H3.24048C3.054 21.0938 2.87516 21.0197 2.74329 20.8878C2.61143 20.7559 2.53735 20.5771 2.53735 20.3906V16.6758C2.53735 16.4893 2.61143 16.3105 2.74329 16.1786C2.87516 16.0467 3.054 15.9727 3.24048 15.9727H6.95532C7.1418 15.9727 7.32064 16.0467 7.45251 16.1786C7.58437 16.3105 7.65845 16.4893 7.65845 16.6758V20.3906C7.65845 20.5771 7.58437 20.7559 7.45251 20.8878C7.32064 21.0197 7.1418 21.0938 6.95532 21.0938ZM3.9436 19.6875H6.2522V17.3789H3.9436V19.6875Z" fill="#DBE2E6"/>
<path d="M13.8169 21.0938H10.1021C9.91557 21.0938 9.73673 21.0197 9.60487 20.8878C9.473 20.7559 9.39893 20.5771 9.39893 20.3906V16.6758C9.39893 16.4893 9.473 16.3105 9.60487 16.1786C9.73673 16.0467 9.91557 15.9727 10.1021 15.9727H13.8169C14.0034 15.9727 14.1822 16.0467 14.3141 16.1786C14.4459 16.3105 14.52 16.4893 14.52 16.6758V20.3906C14.52 20.5771 14.4459 20.7559 14.3141 20.8878C14.1822 21.0197 14.0034 21.0938 13.8169 21.0938ZM10.8052 19.6875H13.1138V17.3789H10.8052V19.6875Z" fill="#DBE2E6"/>
<path d="M13.8169 7.40625H10.1021C9.91557 7.40625 9.73673 7.33217 9.60487 7.20031C9.473 7.06845 9.39893 6.88961 9.39893 6.70312V2.98828C9.39893 2.8018 9.473 2.62296 9.60487 2.4911C9.73673 2.35924 9.91557 2.28516 10.1021 2.28516H13.8169C14.0034 2.28516 14.1822 2.35924 14.3141 2.4911C14.4459 2.62296 14.52 2.8018 14.52 2.98828V6.70312C14.52 6.88961 14.4459 7.06845 14.3141 7.20031C14.1822 7.33217 14.0034 7.40625 13.8169 7.40625ZM10.8052 6H13.1138V3.69141H10.8052V6Z" fill="#DBE2E6"/>
<path d="M20.678 21.0938H16.9631C16.7767 21.0938 16.5978 21.0197 16.466 20.8878C16.3341 20.7559 16.26 20.5771 16.26 20.3906V16.6758C16.26 16.4893 16.3341 16.3105 16.466 16.1786C16.5978 16.0467 16.7767 15.9727 16.9631 15.9727H20.678C20.8645 15.9727 21.0433 16.0467 21.1752 16.1786C21.307 16.3105 21.3811 16.4893 21.3811 16.6758V20.3906C21.3811 20.5771 21.307 20.7559 21.1752 20.8878C21.0433 21.0197 20.8645 21.0938 20.678 21.0938ZM17.6663 19.6875H19.9749V17.3789H17.6663V19.6875Z" fill="#DBE2E6"/>
<path d="M18.8208 17.3789C18.6343 17.3789 18.4555 17.3048 18.3236 17.173C18.1918 17.0411 18.1177 16.8623 18.1177 16.6758V12.375H5.80127V16.6758C5.80127 16.8623 5.72719 17.0411 5.59533 17.173C5.46347 17.3048 5.28462 17.3789 5.09814 17.3789C4.91166 17.3789 4.73282 17.3048 4.60096 17.173C4.4691 17.0411 4.39502 16.8623 4.39502 16.6758V11.6719C4.39502 11.4854 4.4691 11.3066 4.60096 11.1747C4.73282 11.0428 4.91166 10.9688 5.09814 10.9688H18.8208C19.0073 10.9688 19.1861 11.0428 19.318 11.1747C19.4498 11.3066 19.5239 11.4854 19.5239 11.6719V16.6758C19.5239 16.8623 19.4498 17.0411 19.318 17.173C19.1861 17.3048 19.0073 17.3789 18.8208 17.3789Z" fill="#DBE2E6"/>
<path d="M11.9592 17.3789C11.7727 17.3789 11.5939 17.3048 11.462 17.173C11.3302 17.0411 11.2561 16.8623 11.2561 16.6758V6.70312C11.2561 6.51664 11.3302 6.3378 11.462 6.20594C11.5939 6.07408 11.7727 6 11.9592 6C12.1457 6 12.3246 6.07408 12.4564 6.20594C12.5883 6.3378 12.6624 6.51664 12.6624 6.70312V16.6758C12.6624 16.8623 12.5883 17.0411 12.4564 17.173C12.3246 17.3048 12.1457 17.3789 11.9592 17.3789Z" fill="#DBE2E6"/>
</svg>
