<svg width="24" height="24" viewBox="0 0 24 24" fill="none" xmlns="http://www.w3.org/2000/svg">
<path d="M19.2464 17.7947H4.67251C4.10646 17.7942 3.56374 17.5692 3.16344 17.1689C2.76314 16.7687 2.53797 16.2261 2.53735 15.66V4.36876C2.53797 3.80271 2.76314 3.26004 3.16344 2.85983C3.56374 2.45961 4.10646 2.23457 4.67251 2.23407H19.2464C19.8124 2.23469 20.355 2.45979 20.7552 2.85999C21.1554 3.26019 21.3805 3.80279 21.3811 4.36876V15.66C21.3805 16.226 21.1554 16.7686 20.7552 17.1688C20.355 17.569 19.8124 17.7941 19.2464 17.7947ZM4.67251 3.64032C4.47931 3.64044 4.29405 3.71721 4.1574 3.85378C4.02074 3.99035 3.94385 4.17556 3.9436 4.36876V15.66C3.94385 15.8532 4.02074 16.0384 4.1574 16.175C4.29405 16.3116 4.47931 16.3883 4.67251 16.3884H19.2464C19.4395 16.3882 19.6247 16.3114 19.7612 16.1748C19.8978 16.0383 19.9746 15.8531 19.9749 15.66V4.36876C19.9746 4.17564 19.8978 3.9905 19.7612 3.85395C19.6247 3.71739 19.4395 3.64057 19.2464 3.64032H4.67251Z" fill="#DBE2E6"/>
<path d="M15.3966 20.7722H8.77361C8.66059 20.7721 8.54924 20.7448 8.44903 20.6925C8.34881 20.6402 8.26267 20.5646 8.19791 20.4719C8.13314 20.3793 8.09167 20.2724 8.077 20.1604C8.06232 20.0483 8.07488 19.9343 8.11361 19.8281L9.20346 16.8511C9.25292 16.7158 9.34275 16.599 9.46079 16.5164C9.57884 16.4338 9.7194 16.3895 9.86346 16.3894H14.3067C14.4509 16.3894 14.5915 16.4337 14.7097 16.5162C14.8278 16.5988 14.9177 16.7157 14.9672 16.8511L16.0571 19.8281C16.096 19.9344 16.1087 20.0485 16.0941 20.1608C16.0795 20.273 16.038 20.38 15.9732 20.4728C15.9083 20.5656 15.822 20.6413 15.7217 20.6936C15.6213 20.7459 15.5098 20.7732 15.3966 20.7731V20.7722ZM9.78002 19.366H14.3906L13.8155 17.7947H10.3547L9.78002 19.366Z" fill="#DBE2E6"/>
<path d="M17.2829 20.7722H6.88745C6.70097 20.7722 6.52213 20.6981 6.39027 20.5663C6.25841 20.4344 6.18433 20.2556 6.18433 20.0691C6.18433 19.8826 6.25841 19.7038 6.39027 19.5719C6.52213 19.44 6.70097 19.366 6.88745 19.366H17.2829C17.4694 19.366 17.6482 19.44 17.7801 19.5719C17.912 19.7038 17.986 19.8826 17.986 20.0691C17.986 20.2556 17.912 20.4344 17.7801 20.5663C17.6482 20.6981 17.4694 20.7722 17.2829 20.7722Z" fill="#DBE2E6"/>
<path d="M20.678 14.8791H3.24048C3.054 14.8791 2.87516 14.805 2.74329 14.6731C2.61143 14.5413 2.53735 14.3624 2.53735 14.1759C2.53735 13.9895 2.61143 13.8106 2.74329 13.6788C2.87516 13.5469 3.054 13.4728 3.24048 13.4728H20.678C20.8645 13.4728 21.0433 13.5469 21.1752 13.6788C21.307 13.8106 21.3811 13.9895 21.3811 14.1759C21.3811 14.3624 21.307 14.5413 21.1752 14.6731C21.0433 14.805 20.8645 14.8791 20.678 14.8791Z" fill="#DBE2E6"/>
<path d="M13.995 12.3642H9.67317C9.52207 12.3642 9.37501 12.3155 9.25377 12.2253C9.13253 12.1351 9.04356 12.0083 9.00005 11.8636L8.01567 8.59406C7.98388 8.4889 7.97718 8.37776 7.9961 8.26954C8.01502 8.16132 8.05903 8.05904 8.12461 7.9709C8.1902 7.88276 8.27552 7.81122 8.37374 7.762C8.47196 7.71279 8.58034 7.68727 8.6902 7.6875H14.978C15.0876 7.68753 15.1958 7.7132 15.2937 7.76246C15.3917 7.81172 15.4767 7.88319 15.5421 7.97119C15.6075 8.05918 15.6514 8.16124 15.6704 8.26923C15.6893 8.37722 15.6827 8.48814 15.6511 8.59313L14.6668 11.8627C14.6235 12.0073 14.5348 12.1342 14.4138 12.2245C14.2929 12.3148 14.146 12.3638 13.995 12.3642ZM10.1958 10.958H13.4724L14.0325 9.09375H9.63567L10.1958 10.958Z" fill="#DBE2E6"/>
<path d="M8.6898 9.09376C8.5597 9.09337 8.43225 9.05689 8.32165 8.98838C8.21104 8.91987 8.12162 8.82202 8.06332 8.70571C8.00502 8.5894 7.98013 8.4592 7.99143 8.32959C8.00272 8.19998 8.04976 8.07604 8.1273 7.97157L10.0553 5.37282C10.1664 5.22308 10.3325 5.12362 10.517 5.09632C10.7014 5.06903 10.8892 5.11613 11.0389 5.22727C11.1887 5.33841 11.2881 5.50449 11.3154 5.68896C11.3427 5.87344 11.2956 6.0612 11.1845 6.21094L9.25511 8.81251C9.18933 8.90021 9.10396 8.97132 9.0058 9.02016C8.90764 9.06899 8.79943 9.09419 8.6898 9.09376Z" fill="#DBE2E6"/>
<path d="M14.9785 9.09375C14.8689 9.09419 14.7606 9.06899 14.6625 9.02015C14.5643 8.97132 14.479 8.90021 14.4132 8.8125L12.4852 6.21375C12.3741 6.06401 12.327 5.87625 12.3543 5.69177C12.3816 5.5073 12.481 5.34122 12.6308 5.23008C12.7805 5.11894 12.9683 5.07183 13.1527 5.09913C13.3372 5.12642 13.5033 5.22588 13.6144 5.37563L15.5424 7.97438C15.6199 8.07885 15.667 8.20278 15.6783 8.33239C15.6896 8.46201 15.6647 8.59221 15.6064 8.70852C15.5481 8.82483 15.4586 8.92268 15.348 8.99119C15.2374 9.0597 15.11 9.09618 14.9799 9.09656L14.9785 9.09375Z" fill="#DBE2E6"/>
</svg>
