<svg width="24" height="24" viewBox="0 0 24 24" fill="none" xmlns="http://www.w3.org/2000/svg">
<path d="M20.678 14.7188H3.24048C3.054 14.7188 2.87516 14.6447 2.74329 14.5128C2.61143 14.3809 2.53735 14.2021 2.53735 14.0156V3C2.53735 2.81352 2.61143 2.63468 2.74329 2.50282C2.87516 2.37095 3.054 2.29688 3.24048 2.29688H20.678C20.8645 2.29688 21.0433 2.37095 21.1752 2.50282C21.307 2.63468 21.3811 2.81352 21.3811 3V14.0156C21.3811 14.2021 21.307 14.3809 21.1752 14.5128C21.0433 14.6447 20.8645 14.7188 20.678 14.7188ZM3.9436 13.3125H19.9749V3.70312H3.9436V13.3125Z" fill="#DBE2E6"/>
<path d="M20.678 21.0938H3.24048C3.054 21.0938 2.87516 21.0197 2.74329 20.8878C2.61143 20.7559 2.53735 20.5771 2.53735 20.3906V14.0156C2.53735 13.8291 2.61143 13.6503 2.74329 13.5184C2.87516 13.3866 3.054 13.3125 3.24048 13.3125H20.678C20.8645 13.3125 21.0433 13.3866 21.1752 13.5184C21.307 13.6503 21.3811 13.8291 21.3811 14.0156V20.3906C21.3811 20.5771 21.307 20.7559 21.1752 20.8878C21.0433 21.0197 20.8645 21.0938 20.678 21.0938ZM3.9436 19.6875H19.9749V14.7188H3.9436V19.6875Z" fill="#DBE2E6"/>
<path d="M16.4658 12.5156H7.45314C7.26665 12.5156 7.08781 12.4415 6.95595 12.3097C6.82409 12.1778 6.75001 11.999 6.75001 11.8125C6.74964 11.4661 6.61188 11.1341 6.36696 10.8891C6.12204 10.6442 5.78997 10.5065 5.4436 10.5061C5.25712 10.5061 5.07828 10.432 4.94642 10.3002C4.81456 10.1683 4.74048 9.98945 4.74048 9.80297V7.21219C4.74048 7.02571 4.81456 6.84686 4.94642 6.715C5.07828 6.58314 5.25712 6.50906 5.4436 6.50906C5.78989 6.50869 6.12189 6.371 6.3668 6.12618C6.6117 5.88136 6.74951 5.54941 6.75001 5.20312C6.75001 5.01664 6.82409 4.8378 6.95595 4.70594C7.08781 4.57408 7.26665 4.5 7.45314 4.5H16.4658C16.6523 4.5 16.8311 4.57408 16.963 4.70594C17.0948 4.8378 17.1689 5.01664 17.1689 5.20312C17.1693 5.54937 17.307 5.88132 17.5518 6.12615C17.7967 6.37098 18.1286 6.50869 18.4749 6.50906C18.6613 6.50906 18.8402 6.58314 18.972 6.715C19.1039 6.84686 19.178 7.02571 19.178 7.21219V9.80297C19.178 9.98945 19.1039 10.1683 18.972 10.3002C18.8402 10.432 18.6613 10.5061 18.4749 10.5061C18.1286 10.5066 17.7966 10.6444 17.5518 10.8893C17.307 11.1342 17.1693 11.4662 17.1689 11.8125C17.1689 11.999 17.0948 12.1778 16.963 12.3097C16.8311 12.4415 16.6523 12.5156 16.4658 12.5156ZM8.06251 11.1094H15.855C15.9793 10.6503 16.2216 10.2317 16.5579 9.8954C16.8942 9.55904 17.3127 9.3166 17.7717 9.19219V7.82297C17.3127 7.69864 16.8942 7.45628 16.558 7.12001C16.2217 6.78374 15.9793 6.36527 15.855 5.90625H8.06251C7.93818 6.36535 7.69577 6.78387 7.3594 7.12016C7.02304 7.45644 6.60445 7.69875 6.14532 7.82297V9.19219C6.60447 9.31653 7.02304 9.55894 7.3594 9.8953C7.69576 10.2317 7.93817 10.6502 8.06251 11.1094Z" fill="#DBE2E6"/>
<path d="M11.9592 12.5156C10.3889 12.5156 9.15894 10.755 9.15894 8.50781C9.15894 6.26063 10.3889 4.5 11.9592 4.5C13.5296 4.5 14.76 6.26016 14.76 8.50781C14.76 10.7555 13.53 12.5156 11.9592 12.5156ZM11.9592 5.90625C11.2997 5.90625 10.5652 6.97453 10.5652 8.50781C10.5652 10.0411 11.2997 11.1094 11.9592 11.1094C12.6188 11.1094 13.3538 10.0411 13.3538 8.50781C13.3538 6.97453 12.6192 5.90625 11.9592 5.90625Z" fill="#DBE2E6"/>
<path d="M20.678 16.7812H3.24048C3.054 16.7812 2.87516 16.7072 2.74329 16.5753C2.61143 16.4434 2.53735 16.2646 2.53735 16.0781C2.53735 15.8916 2.61143 15.7128 2.74329 15.5809C2.87516 15.4491 3.054 15.375 3.24048 15.375H20.678C20.8645 15.375 21.0433 15.4491 21.1752 15.5809C21.307 15.7128 21.3811 15.8916 21.3811 16.0781C21.3811 16.2646 21.307 16.4434 21.1752 16.5753C21.0433 16.7072 20.8645 16.7812 20.678 16.7812Z" fill="#DBE2E6"/>
<path d="M20.678 19.0312H3.24048C3.054 19.0312 2.87516 18.9572 2.74329 18.8253C2.61143 18.6934 2.53735 18.5146 2.53735 18.3281C2.53735 18.1416 2.61143 17.9628 2.74329 17.8309C2.87516 17.6991 3.054 17.625 3.24048 17.625H20.678C20.8645 17.625 21.0433 17.6991 21.1752 17.8309C21.307 17.9628 21.3811 18.1416 21.3811 18.3281C21.3811 18.5146 21.307 18.6934 21.1752 18.8253C21.0433 18.9572 20.8645 19.0312 20.678 19.0312Z" fill="#DBE2E6"/>
</svg>
