<svg width="24" height="24" viewBox="0 0 24 24" fill="none" xmlns="http://www.w3.org/2000/svg">
<path d="M12.4219 16.5122C8.59312 16.5122 5.47827 13.3973 5.47827 9.56859C5.47827 5.73984 8.59077 2.625 12.4219 2.625C16.253 2.625 19.3655 5.73984 19.3655 9.56859C19.3655 13.3973 16.2483 16.5122 12.4219 16.5122ZM12.4219 4.03125C11.3266 4.03079 10.2558 4.35515 9.34484 4.96332C8.43392 5.57149 7.72382 6.43614 7.30436 7.44792C6.88489 8.4597 6.7749 9.57314 6.98829 10.6474C7.20169 11.7217 7.72888 12.7086 8.5032 13.4833C9.27752 14.2579 10.2642 14.7855 11.3384 14.9994C12.4126 15.2132 13.5261 15.1037 14.538 14.6847C15.55 14.2656 16.4149 13.5559 17.0235 12.6452C17.632 11.7346 17.9569 10.6639 17.9569 9.56859C17.9553 8.1009 17.3717 6.69375 16.3341 5.65571C15.2965 4.61767 13.8896 4.03348 12.4219 4.03125Z" fill="#DBE2E6"/>
<path d="M9.12235 21.0938C8.997 21.0938 8.87393 21.0603 8.76588 20.9967C8.65783 20.9332 8.56874 20.8419 8.50782 20.7323L7.48172 18.8873L5.16516 19.0369C5.04103 19.0449 4.91697 19.0199 4.80567 18.9644C4.69436 18.9088 4.59978 18.8247 4.53159 18.7207C4.46339 18.6167 4.42401 18.4964 4.41748 18.3722C4.41094 18.2479 4.43748 18.1242 4.49438 18.0136L6.9375 13.2595C7.02273 13.0936 7.17036 12.9684 7.34794 12.9113C7.52551 12.8543 7.71847 12.8701 7.88438 12.9553C8.05028 13.0405 8.17554 13.1882 8.23259 13.3657C8.28964 13.5433 8.27382 13.7363 8.1886 13.9022L6.3136 17.5538L7.8361 17.4553C7.96882 17.4468 8.10124 17.4761 8.21798 17.5398C8.33472 17.6035 8.431 17.6991 8.49563 17.8153L9.09891 18.8995L10.8 15.5883C10.8413 15.5047 10.8989 15.4302 10.9693 15.369C11.0397 15.3079 11.1216 15.2614 11.2101 15.2322C11.2987 15.203 11.3922 15.1917 11.4851 15.199C11.5781 15.2063 11.6687 15.232 11.7516 15.2746C11.8346 15.3172 11.9082 15.3759 11.9682 15.4472C12.0283 15.5186 12.0735 15.6012 12.1014 15.6902C12.1292 15.7792 12.139 15.8728 12.1303 15.9656C12.1216 16.0585 12.0945 16.1487 12.0506 16.2309L9.75 20.7117C9.6917 20.8253 9.60357 20.9209 9.49505 20.9882C9.38654 21.0555 9.26175 21.092 9.13407 21.0938H9.12235Z" fill="#DBE2E6"/>
<path d="M15.7167 21.0938H15.7031C15.5766 21.0909 15.4532 21.0539 15.3459 20.9867C15.2387 20.9196 15.1516 20.8247 15.0937 20.7122L12.7903 16.2309C12.7464 16.1487 12.7193 16.0585 12.7106 15.9656C12.7019 15.8728 12.7117 15.7792 12.7396 15.6902C12.7674 15.6012 12.8126 15.5186 12.8727 15.4472C12.9327 15.3759 13.0063 15.3172 13.0893 15.2746C13.1722 15.232 13.2628 15.2063 13.3558 15.199C13.4487 15.1917 13.5422 15.203 13.6308 15.2322C13.7193 15.2614 13.8012 15.3079 13.8716 15.369C13.942 15.4302 13.9996 15.5047 14.0409 15.5883L15.7434 18.9L16.3472 17.8153C16.4118 17.6991 16.5081 17.6035 16.6248 17.5398C16.7415 17.4761 16.874 17.4468 17.0067 17.4553L18.5287 17.5538L16.6537 13.9022C16.6098 13.8199 16.5827 13.7297 16.574 13.6369C16.5653 13.5441 16.5752 13.4504 16.603 13.3614C16.6308 13.2724 16.6761 13.1898 16.7361 13.1185C16.7961 13.0472 16.8698 12.9885 16.9527 12.9458C17.0357 12.9032 17.1262 12.8775 17.2192 12.8702C17.3122 12.863 17.4056 12.8743 17.4942 12.9034C17.5828 12.9326 17.6646 12.9792 17.735 13.0403C17.8055 13.1014 17.863 13.1759 17.9043 13.2595L20.3437 18.0136C20.4006 18.1242 20.4271 18.2479 20.4206 18.372C20.4141 18.4962 20.3748 18.6165 20.3066 18.7205C20.2385 18.8245 20.144 18.9086 20.0327 18.9642C19.9215 19.0198 19.7975 19.0448 19.6734 19.0369L17.3568 18.8873L16.3312 20.7323C16.2703 20.8419 16.1812 20.9332 16.0732 20.9967C15.9651 21.0603 15.842 21.0938 15.7167 21.0938Z" fill="#DBE2E6"/>
<path d="M12.7368 12.9427C12.5504 12.9427 12.3715 12.8686 12.2397 12.7367C12.1078 12.6049 12.0337 12.426 12.0337 12.2395V8.37375L10.7606 9.53109C10.6226 9.65653 10.4404 9.72202 10.2542 9.71314C10.0679 9.70426 9.89275 9.62175 9.76731 9.48375C9.64188 9.34575 9.57639 9.16358 9.58527 8.9773C9.59415 8.79103 9.67666 8.61591 9.81466 8.49047L12.2639 6.26391C12.3647 6.17228 12.4899 6.1119 12.6244 6.09011C12.7588 6.06832 12.8967 6.08606 13.0213 6.14117C13.1459 6.19628 13.2518 6.28639 13.3261 6.40055C13.4004 6.51471 13.44 6.648 13.44 6.78422V12.2395C13.44 12.426 13.3659 12.6049 13.234 12.7367C13.1022 12.8686 12.9233 12.9427 12.7368 12.9427Z" fill="#DBE2E6"/>
</svg>
