<svg width="24" height="24" viewBox="0 0 24 24" fill="none" xmlns="http://www.w3.org/2000/svg">
<path d="M20.678 21.0938H3.24048C3.054 21.0938 2.87516 21.0197 2.74329 20.8878C2.61143 20.7559 2.53735 20.5771 2.53735 20.3906V2.95312C2.53735 2.76664 2.61143 2.5878 2.74329 2.45594C2.87516 2.32408 3.054 2.25 3.24048 2.25H20.678C20.8645 2.25 21.0433 2.32408 21.1752 2.45594C21.307 2.5878 21.3811 2.76664 21.3811 2.95312V20.3906C21.3811 20.5771 21.307 20.7559 21.1752 20.8878C21.0433 21.0197 20.8645 21.0938 20.678 21.0938ZM3.9436 19.6875H19.9749V3.65625H3.9436V19.6875Z" fill="#DBE2E6"/>
<path d="M14.3967 9.28125H9.52173C9.33525 9.28125 9.15641 9.20717 9.02454 9.07531C8.89268 8.94345 8.8186 8.76461 8.8186 8.57812V2.95312C8.8186 2.76664 8.89268 2.5878 9.02454 2.45594C9.15641 2.32408 9.33525 2.25 9.52173 2.25H14.3967C14.5832 2.25 14.7621 2.32408 14.8939 2.45594C15.0258 2.5878 15.0999 2.76664 15.0999 2.95312V8.57812C15.0999 8.76461 15.0258 8.94345 14.8939 9.07531C14.7621 9.20717 14.5832 9.28125 14.3967 9.28125ZM10.2249 7.875H13.6936V3.65625H10.2249V7.875Z" fill="#DBE2E6"/>
<path d="M10.8878 14.3437C10.7954 14.3437 10.7039 14.3255 10.6186 14.2901C10.5332 14.2547 10.4557 14.2029 10.3904 14.1375L9.15949 12.9066L7.92856 14.1375C7.86327 14.2028 7.78577 14.2546 7.70046 14.29C7.61516 14.3253 7.52372 14.3435 7.43138 14.3436C7.33903 14.3436 7.24759 14.3254 7.16227 14.2901C7.07695 14.2548 6.99941 14.203 6.9341 14.1377C6.86879 14.0724 6.81698 13.9949 6.78162 13.9096C6.74626 13.8243 6.72805 13.7329 6.72803 13.6405C6.72801 13.5482 6.74617 13.4568 6.78149 13.3714C6.81681 13.2861 6.86859 13.2086 6.93387 13.1433L8.66215 11.415C8.72745 11.3497 8.80498 11.2978 8.89031 11.2625C8.97565 11.2271 9.06712 11.2089 9.15949 11.2089C9.25187 11.2089 9.34333 11.2271 9.42867 11.2625C9.51401 11.2978 9.59154 11.3497 9.65684 11.415L11.3851 13.1433C11.4835 13.2416 11.5505 13.3669 11.5777 13.5034C11.6048 13.6398 11.5909 13.7812 11.5377 13.9097C11.4844 14.0383 11.3943 14.1481 11.2786 14.2253C11.1629 14.3026 11.0269 14.3438 10.8878 14.3437Z" fill="#DBE2E6"/>
<path d="M9.15942 17.3437C8.97294 17.3437 8.7941 17.2697 8.66224 17.1378C8.53038 17.0059 8.4563 16.8271 8.4563 16.6406V12.1467C8.4563 11.9602 8.53038 11.7814 8.66224 11.6495C8.7941 11.5177 8.97294 11.4436 9.15942 11.4436C9.3459 11.4436 9.52475 11.5177 9.65661 11.6495C9.78847 11.7814 9.86255 11.9602 9.86255 12.1467V16.6406C9.86255 16.8271 9.78847 17.0059 9.65661 17.1378C9.52475 17.2697 9.3459 17.3437 9.15942 17.3437Z" fill="#DBE2E6"/>
<path d="M16.4877 14.3438C16.3953 14.3437 16.3038 14.3255 16.2185 14.2901C16.1332 14.2547 16.0556 14.2029 15.9904 14.1375L14.7594 12.9066L13.528 14.1375C13.3954 14.2656 13.2178 14.3365 13.0334 14.3349C12.8491 14.3332 12.6727 14.2593 12.5424 14.1289C12.412 13.9986 12.3381 13.8222 12.3365 13.6379C12.3349 13.4535 12.4057 13.2759 12.5338 13.1433L14.2621 11.415C14.3939 11.2832 14.5727 11.2091 14.7592 11.2091C14.9456 11.2091 15.1244 11.2832 15.2563 11.415L16.9846 13.1433C17.083 13.2416 17.15 13.3669 17.1771 13.5033C17.2043 13.6396 17.1904 13.781 17.1372 13.9095C17.084 14.038 16.9939 14.1479 16.8783 14.2252C16.7627 14.3025 16.6268 14.3437 16.4877 14.3438Z" fill="#DBE2E6"/>
<path d="M14.7595 17.3437C14.573 17.3437 14.3942 17.2697 14.2623 17.1378C14.1305 17.0059 14.0564 16.8271 14.0564 16.6406V12.1467C14.0564 11.9602 14.1305 11.7814 14.2623 11.6495C14.3942 11.5177 14.573 11.4436 14.7595 11.4436C14.946 11.4436 15.1248 11.5177 15.2567 11.6495C15.3886 11.7814 15.4626 11.9602 15.4626 12.1467V16.6406C15.4626 16.8271 15.3886 17.0059 15.2567 17.1378C15.1248 17.2697 14.946 17.3437 14.7595 17.3437Z" fill="#DBE2E6"/>
</svg>
