<svg width="24" height="24" viewBox="0 0 24 24" fill="none" xmlns="http://www.w3.org/2000/svg">
<path d="M10.5363 16.6683C10.3974 16.6681 10.2617 16.6267 10.1463 16.5495C10.0309 16.4722 9.9409 16.3625 9.88775 16.2342C9.83461 16.1059 9.82064 15.9647 9.84763 15.8285C9.87462 15.6923 9.94134 15.5671 10.0394 15.4687L13.8831 11.625C14.0158 11.4969 14.1934 11.426 14.3777 11.4276C14.5621 11.4292 14.7384 11.5032 14.8688 11.6336C14.9992 11.7639 15.0731 11.9403 15.0747 12.1246C15.0763 12.309 15.0054 12.4866 14.8774 12.6192L11.0336 16.463C10.9016 16.5946 10.7227 16.6685 10.5363 16.6683Z" fill="#DBE2E6"/>
<path d="M14.3814 16.6683C14.2891 16.6683 14.1976 16.6502 14.1123 16.6149C14.0269 16.5796 13.9494 16.5278 13.8841 16.4625L10.0403 12.6188C9.97056 12.5546 9.91449 12.477 9.8755 12.3906C9.8365 12.3042 9.81537 12.2108 9.81339 12.116C9.8114 12.0213 9.8286 11.9271 9.86394 11.8391C9.89928 11.7512 9.95205 11.6713 10.0191 11.6042C10.0861 11.5372 10.1659 11.4844 10.2539 11.449C10.3418 11.4136 10.436 11.3964 10.5308 11.3983C10.6255 11.4003 10.7189 11.4213 10.8053 11.4603C10.8917 11.4992 10.9694 11.5553 11.0336 11.625L14.8773 15.4688C14.9757 15.5671 15.0427 15.6923 15.0699 15.8287C15.0971 15.9651 15.0832 16.1065 15.03 16.235C14.9768 16.3635 14.8867 16.4733 14.7711 16.5506C14.6555 16.6279 14.5195 16.6692 14.3805 16.6692L14.3814 16.6683Z" fill="#DBE2E6"/>
<path d="M19.0436 21.0937H5.87402C5.68754 21.0937 5.5087 21.0197 5.37684 20.8878C5.24498 20.7559 5.1709 20.5771 5.1709 20.3906V7.69499C5.1709 7.50851 5.24498 7.32967 5.37684 7.19781C5.5087 7.06595 5.68754 6.99187 5.87402 6.99187H19.0459C19.2324 6.99187 19.4112 7.06595 19.5431 7.19781C19.6749 7.32967 19.749 7.50851 19.749 7.69499V20.3906C19.749 20.4832 19.7308 20.5748 19.6953 20.6602C19.6598 20.7457 19.6078 20.8233 19.5423 20.8886C19.4767 20.954 19.3989 21.0057 19.3133 21.0409C19.2278 21.0761 19.1361 21.0941 19.0436 21.0937ZM6.57715 19.6875H18.3428V8.39812H6.57715V19.6875Z" fill="#DBE2E6"/>
<path d="M14.9064 10.2319C14.72 10.2319 14.5411 10.1578 14.4093 10.0259C14.2774 9.89407 14.2033 9.71523 14.2033 9.52875V5.32406C14.207 5.10272 14.1666 4.88285 14.0845 4.67728C14.0024 4.47171 13.8801 4.28454 13.7249 4.1267C13.5697 3.96886 13.3846 3.8435 13.1804 3.75793C12.9763 3.67236 12.7571 3.62829 12.5357 3.62829C12.3144 3.62829 12.0952 3.67236 11.891 3.75793C11.6869 3.8435 11.5018 3.96886 11.3466 4.1267C11.1913 4.28454 11.0691 4.47171 10.987 4.67728C10.9048 4.88285 10.8644 5.10272 10.8682 5.32406V9.52875C10.8682 9.71523 10.7941 9.89407 10.6622 10.0259C10.5304 10.1578 10.3515 10.2319 10.165 10.2319C9.97855 10.2319 9.79971 10.1578 9.66784 10.0259C9.53598 9.89407 9.4619 9.71523 9.4619 9.52875V5.32406C9.45688 4.9172 9.53267 4.5134 9.6849 4.13606C9.83712 3.75872 10.0627 3.41535 10.3487 3.12587C10.6346 2.83639 10.9751 2.60655 11.3506 2.44968C11.726 2.29281 12.1288 2.21204 12.5357 2.21204C12.9426 2.21204 13.3455 2.29281 13.7209 2.44968C14.0963 2.60655 14.4369 2.83639 14.7228 3.12587C15.0087 3.41535 15.2343 3.75872 15.3866 4.13606C15.5388 4.5134 15.6146 4.9172 15.6096 5.32406V9.52875C15.6096 9.71523 15.5355 9.89407 15.4036 10.0259C15.2718 10.1578 15.0929 10.2319 14.9064 10.2319Z" fill="#DBE2E6"/>
</svg>
