<svg width="24" height="24" viewBox="0 0 24 24" fill="none" xmlns="http://www.w3.org/2000/svg">
<path d="M11.0945 10.245C10.908 10.245 10.7292 10.1709 10.5973 10.0391C10.4655 9.9072 10.3914 9.72836 10.3914 9.54187V5.32875C10.3914 4.88518 10.2152 4.45977 9.90152 4.14611C9.58787 3.83246 9.16246 3.65625 8.71889 3.65625C8.27531 3.65625 7.84991 3.83246 7.53625 4.14611C7.2226 4.45977 7.04639 4.88518 7.04639 5.32875V9.54187C7.04639 9.72836 6.97231 9.9072 6.84045 10.0391C6.70858 10.1709 6.52974 10.245 6.34326 10.245C6.15678 10.245 5.97794 10.1709 5.84608 10.0391C5.71422 9.9072 5.64014 9.72836 5.64014 9.54187V5.32875C5.64014 4.51221 5.9645 3.72912 6.54188 3.15175C7.11926 2.57437 7.90235 2.25 8.71889 2.25C9.53542 2.25 10.3185 2.57437 10.8959 3.15175C11.4733 3.72912 11.7976 4.51221 11.7976 5.32875V9.54187C11.7976 9.72836 11.7236 9.9072 11.5917 10.0391C11.4598 10.1709 11.281 10.245 11.0945 10.245Z" fill="#DBE2E6"/>
<path d="M14.0593 21.128H3.56958C3.3831 21.128 3.20426 21.0539 3.0724 20.922C2.94053 20.7902 2.86646 20.6113 2.86646 20.4248V6.85922C2.86646 6.67274 2.94053 6.4939 3.0724 6.36204C3.20426 6.23018 3.3831 6.1561 3.56958 6.1561H14.0593C14.2457 6.1561 14.4246 6.23018 14.5565 6.36204C14.6883 6.4939 14.7624 6.67274 14.7624 6.85922V11.7619C14.7624 11.9484 14.6883 12.1272 14.5565 12.2591C14.4246 12.3909 14.2457 12.465 14.0593 12.465C13.8728 12.465 13.6939 12.3909 13.5621 12.2591C13.4302 12.1272 13.3561 11.9484 13.3561 11.7619V7.56235H4.2727V19.7217H14.0593C14.2457 19.7217 14.4246 19.7958 14.5565 19.9277C14.6883 20.0595 14.7624 20.2384 14.7624 20.4248C14.7624 20.6113 14.6883 20.7902 14.5565 20.922C14.4246 21.0539 14.2457 21.128 14.0593 21.128Z" fill="#DBE2E6"/>
<path d="M20.785 21.1289H10.4106C10.3116 21.1289 10.2137 21.1081 10.1233 21.0676C10.033 21.0272 9.95216 20.9682 9.88618 20.8944C9.8202 20.8206 9.77056 20.7337 9.74049 20.6393C9.71042 20.545 9.70061 20.4454 9.7117 20.347L10.6876 11.6831C10.707 11.5114 10.7889 11.3528 10.9177 11.2377C11.0466 11.1225 11.2133 11.0588 11.3861 11.0587H19.8076C19.9805 11.0587 20.1474 11.1223 20.2763 11.2375C20.4052 11.3527 20.4872 11.5113 20.5065 11.6831L21.4834 20.347C21.4945 20.4454 21.4847 20.5449 21.4547 20.6392C21.4246 20.7335 21.375 20.8204 21.3091 20.8942C21.2432 20.968 21.1624 21.0271 21.0721 21.0675C20.9818 21.1079 20.8839 21.1289 20.785 21.1289ZM11.1976 19.7227H19.998L19.1795 12.465H12.0161L11.1976 19.7227Z" fill="#DBE2E6"/>
<path d="M15.5976 16.7967C14.9201 16.796 14.2706 16.5266 13.7915 16.0476C13.3124 15.5685 13.0429 14.9191 13.042 14.2416C13.042 14.0551 13.1161 13.8763 13.2479 13.7444C13.3798 13.6125 13.5586 13.5385 13.7451 13.5385C13.9316 13.5385 14.1104 13.6125 14.2423 13.7444C14.3742 13.8763 14.4482 14.0551 14.4482 14.2416C14.4602 14.5381 14.5865 14.8186 14.8005 15.0241C15.0146 15.2297 15.2999 15.3445 15.5967 15.3445C15.8935 15.3445 16.1788 15.2297 16.3928 15.0241C16.6069 14.8186 16.7331 14.5381 16.7451 14.2416C16.7451 14.0551 16.8192 13.8763 16.9511 13.7444C17.0829 13.6125 17.2618 13.5385 17.4482 13.5385C17.6347 13.5385 17.8136 13.6125 17.9454 13.7444C18.0773 13.8763 18.1514 14.0551 18.1514 14.2416C18.1505 14.9187 17.8812 15.5679 17.4025 16.0469C16.9238 16.5258 16.2748 16.7955 15.5976 16.7967Z" fill="#DBE2E6"/>
</svg>
