<svg width="24" height="24" viewBox="0 0 24 24" fill="none" xmlns="http://www.w3.org/2000/svg">
<path d="M5.28418 21.0938C5.0977 21.0938 4.91886 21.0197 4.787 20.8878C4.65513 20.7559 4.58105 20.5771 4.58105 20.3906V2.95312C4.58105 2.76664 4.65513 2.5878 4.787 2.45594C4.91886 2.32408 5.0977 2.25 5.28418 2.25C5.47066 2.25 5.6495 2.32408 5.78136 2.45594C5.91323 2.5878 5.9873 2.76664 5.9873 2.95312V20.3906C5.9873 20.483 5.96912 20.5744 5.93378 20.6597C5.89845 20.745 5.84666 20.8225 5.78136 20.8878C5.71607 20.9531 5.63856 21.0049 5.55325 21.0402C5.46795 21.0756 5.37652 21.0938 5.28418 21.0938Z" fill="#DBE2E6"/>
<path d="M20.8528 19.125H3.41528C3.2288 19.125 3.04996 19.0509 2.9181 18.9191C2.78624 18.7872 2.71216 18.6084 2.71216 18.4219C2.71216 18.2354 2.78624 18.0566 2.9181 17.9247C3.04996 17.7928 3.2288 17.7188 3.41528 17.7188H20.8528C21.0393 17.7188 21.2181 17.7928 21.35 17.9247C21.4818 18.0566 21.5559 18.2354 21.5559 18.4219C21.5559 18.6084 21.4818 18.7872 21.35 18.9191C21.2181 19.0509 21.0393 19.125 20.8528 19.125Z" fill="#DBE2E6"/>
<path d="M19.603 15.9375C19.4886 15.9376 19.3759 15.9097 19.2747 15.8564C19.1735 15.803 19.0868 15.7258 19.0222 15.6314L13.559 7.64671L11.2086 11.4047C11.1429 11.5107 11.0501 11.5972 10.9398 11.6555C10.8295 11.7138 10.7057 11.7417 10.5811 11.7364C10.4565 11.731 10.3355 11.6926 10.2306 11.6251C10.1258 11.5576 10.0407 11.4634 9.98427 11.3522L7.42021 6.3328C7.37552 6.25038 7.34777 6.15986 7.33859 6.06656C7.3294 5.97327 7.33897 5.87907 7.36672 5.78952C7.39448 5.69998 7.43986 5.61688 7.5002 5.54513C7.56054 5.47338 7.63462 5.41442 7.71808 5.37172C7.80154 5.32902 7.8927 5.30344 7.9862 5.29649C8.07969 5.28954 8.17363 5.30136 8.26248 5.33124C8.35134 5.36113 8.43333 5.40849 8.50362 5.47052C8.5739 5.53256 8.63108 5.60803 8.67177 5.69249L10.6738 9.60936L12.9374 5.98968C12.9994 5.89076 13.085 5.80883 13.1865 5.75127C13.288 5.6937 13.4023 5.66232 13.519 5.65995C13.6357 5.65758 13.7511 5.68429 13.8549 5.73768C13.9587 5.79107 14.0476 5.86946 14.1135 5.96577L20.1838 14.8373C20.2561 14.943 20.2982 15.0664 20.3055 15.1942C20.3128 15.322 20.2851 15.4494 20.2253 15.5626C20.1655 15.6758 20.076 15.7706 19.9663 15.8366C19.8567 15.9027 19.731 15.9376 19.603 15.9375Z" fill="#DBE2E6"/>
</svg>
