<svg width="24" height="24" viewBox="0 0 24 24" fill="none" xmlns="http://www.w3.org/2000/svg">
<path d="M14.7656 17.3859H9.98901C9.80253 17.3859 9.62369 17.3118 9.49183 17.18C9.35997 17.0481 9.28589 16.8693 9.28589 16.6828C9.28589 16.4963 9.35997 16.3175 9.49183 16.1856C9.62369 16.0538 9.80253 15.9797 9.98901 15.9797H14.7656C14.9521 15.9797 15.1309 16.0538 15.2628 16.1856C15.3946 16.3175 15.4687 16.4963 15.4687 16.6828C15.4687 16.8693 15.3946 17.0481 15.2628 17.18C15.1309 17.3118 14.9521 17.3859 14.7656 17.3859Z" fill="#DBE2E6"/>
<path d="M20.678 17.3859H19.0655C18.879 17.3859 18.7002 17.3118 18.5683 17.18C18.4365 17.0481 18.3624 16.8693 18.3624 16.6828C18.3624 16.4963 18.4365 16.3175 18.5683 16.1856C18.7002 16.0538 18.879 15.9797 19.0655 15.9797H19.9749V12.1505C19.9746 11.9471 19.8937 11.7522 19.75 11.6085C19.6062 11.4647 19.4113 11.3838 19.208 11.3836H17.5425C17.356 11.3836 17.1772 11.3095 17.0453 11.1776C16.9135 11.0458 16.8394 10.8669 16.8394 10.6805V7.65796C16.8394 7.40932 16.7406 7.17086 16.5648 6.99505C16.389 6.81923 16.1505 6.72046 15.9019 6.72046H13.905C13.7185 6.72046 13.5397 6.64638 13.4078 6.51452C13.276 6.38266 13.2019 6.20381 13.2019 6.01733C13.2019 5.83085 13.276 5.65201 13.4078 5.52015C13.5397 5.38829 13.7185 5.31421 13.905 5.31421H15.9019C16.5235 5.31421 17.1196 5.56114 17.5592 6.00068C17.9987 6.44022 18.2457 7.03636 18.2457 7.65796V9.97733H19.208C19.7842 9.97795 20.3365 10.2071 20.7439 10.6145C21.1513 11.0219 21.3805 11.5743 21.3811 12.1505V16.6828C21.3811 16.8693 21.307 17.0481 21.1752 17.18C21.0433 17.3118 20.8645 17.3859 20.678 17.3859Z" fill="#DBE2E6"/>
<path d="M7.83839 19.5351C7.27404 19.5351 6.72237 19.3678 6.25314 19.0543C5.78391 18.7407 5.4182 18.2951 5.20226 17.7737C4.98631 17.2523 4.92984 16.6785 5.03997 16.125C5.1501 15.5715 5.4219 15.0631 5.82098 14.6641C6.22007 14.2651 6.72852 13.9934 7.28203 13.8834C7.83554 13.7733 8.40926 13.8299 8.93062 14.0459C9.45198 14.2619 9.89757 14.6277 10.211 15.097C10.5245 15.5663 10.6918 16.118 10.6917 16.6823C10.6908 17.4388 10.3899 18.164 9.85498 18.6988C9.32006 19.2336 8.59482 19.5344 7.83839 19.5351ZM7.83839 15.2353C7.55219 15.2353 7.27243 15.3202 7.03446 15.4792C6.7965 15.6382 6.61103 15.8642 6.50151 16.1286C6.39199 16.393 6.36333 16.6839 6.41916 16.9646C6.475 17.2453 6.61281 17.5032 6.81518 17.7055C7.01756 17.9079 7.27539 18.0457 7.55609 18.1016C7.83678 18.1574 8.12773 18.1287 8.39214 18.0192C8.65655 17.9097 8.88255 17.7242 9.04155 17.4863C9.20055 17.2483 9.28542 16.9685 9.28542 16.6823C9.2853 16.2985 9.13283 15.9304 8.86152 15.6589C8.5902 15.3874 8.22221 15.2347 7.83839 15.2344V15.2353Z" fill="#DBE2E6"/>
<path d="M16.9153 19.5351C16.3509 19.5351 15.7993 19.3678 15.33 19.0543C14.8608 18.7407 14.4951 18.2951 14.2792 17.7737C14.0632 17.2523 14.0067 16.6785 14.1169 16.125C14.227 15.5715 14.4988 15.0631 14.8979 14.6641C15.297 14.2651 15.8054 13.9934 16.3589 13.8834C16.9124 13.7733 17.4862 13.8299 18.0075 14.0459C18.5289 14.2619 18.9745 14.6277 19.2879 15.097C19.6014 15.5663 19.7687 16.118 19.7686 16.6823C19.7677 17.4388 19.4668 18.164 18.9319 18.6988C18.397 19.2336 17.6717 19.5344 16.9153 19.5351ZM16.9153 15.2353C16.6291 15.2353 16.3493 15.3202 16.1114 15.4792C15.8734 15.6382 15.6879 15.8642 15.5784 16.1286C15.4689 16.393 15.4402 16.6839 15.4961 16.9646C15.5519 17.2453 15.6897 17.5032 15.8921 17.7055C16.0945 17.9079 16.3523 18.0457 16.633 18.1016C16.9137 18.1574 17.2046 18.1287 17.469 18.0192C17.7335 17.9097 17.9595 17.7242 18.1185 17.4863C18.2775 17.2483 18.3623 16.9685 18.3623 16.6823C18.3622 16.2985 18.2097 15.9304 17.9384 15.6589C17.6671 15.3874 17.2991 15.2347 16.9153 15.2344V15.2353Z" fill="#DBE2E6"/>
<path d="M17.5425 11.3836H13.9055C13.719 11.3836 13.5402 11.3095 13.4083 11.1777C13.2765 11.0458 13.2024 10.867 13.2024 10.6805C13.2024 10.494 13.2765 10.3152 13.4083 10.1833C13.5402 10.0514 13.719 9.97736 13.9055 9.97736H17.5425C17.729 9.97736 17.9079 10.0514 18.0397 10.1833C18.1716 10.3152 18.2457 10.494 18.2457 10.6805C18.2457 10.867 18.1716 11.0458 18.0397 11.1777C17.9079 11.3095 17.729 11.3836 17.5425 11.3836Z" fill="#DBE2E6"/>
<path d="M16.9153 17.3855C16.8922 17.3854 16.8692 17.3841 16.8464 17.3817C16.8234 17.3795 16.8005 17.376 16.7779 17.3714C16.7554 17.3672 16.7332 17.3616 16.7114 17.3545C16.6893 17.348 16.6678 17.34 16.6462 17.3316C16.6246 17.3231 16.6045 17.3128 16.5843 17.302C16.5641 17.2913 16.5443 17.2796 16.5253 17.2669C16.4868 17.2412 16.4508 17.2118 16.4179 17.1792C16.402 17.1633 16.3865 17.1459 16.371 17.1281C16.3556 17.1103 16.3429 17.0916 16.3303 17.0723C16.3176 17.0533 16.3058 17.0336 16.2951 17.0133C16.2843 16.9931 16.2745 16.972 16.2656 16.9509C16.2567 16.9298 16.2491 16.9082 16.2426 16.8862C16.2356 16.8644 16.23 16.8422 16.2257 16.8197C16.2211 16.7971 16.2177 16.7742 16.2154 16.7512C16.213 16.7284 16.2118 16.7054 16.2117 16.6823C16.2118 16.6592 16.213 16.636 16.2154 16.613C16.2177 16.5902 16.2212 16.5675 16.2257 16.545C16.23 16.5223 16.2356 16.4999 16.2426 16.478C16.2491 16.456 16.2567 16.4344 16.2656 16.4133C16.2745 16.3922 16.2843 16.3711 16.2951 16.3509C16.3059 16.3308 16.3176 16.3111 16.3303 16.2919C16.3429 16.2727 16.357 16.2539 16.371 16.2366C16.3851 16.2192 16.4015 16.2014 16.4179 16.185C16.4343 16.1685 16.4515 16.1529 16.4695 16.1381C16.4874 16.1236 16.506 16.11 16.5253 16.0973C16.5442 16.0843 16.5639 16.0724 16.5843 16.0617C16.6044 16.0509 16.6251 16.0412 16.6462 16.0327C16.6675 16.0237 16.6893 16.0159 16.7114 16.0092C16.7329 16.0027 16.7554 15.997 16.7779 15.9923C16.8005 15.9877 16.8234 15.9843 16.8464 15.982C16.9152 15.9751 16.9848 15.9785 17.0526 15.9923C17.0751 15.997 17.0995 16.0027 17.1196 16.0092C17.1416 16.0159 17.1632 16.0237 17.1843 16.0327C17.2056 16.0412 17.2264 16.0509 17.2467 16.0617C17.267 16.0725 17.2867 16.0844 17.3057 16.0973C17.3249 16.1099 17.3434 16.1235 17.361 16.1381C17.379 16.1529 17.3962 16.1685 17.4126 16.185C17.4285 16.2014 17.4445 16.2183 17.4595 16.2366C17.4741 16.2542 17.4877 16.2727 17.5003 16.2919C17.5129 16.3111 17.5251 16.3308 17.5359 16.3509C17.5467 16.3711 17.5565 16.3922 17.565 16.4133C17.5739 16.4344 17.5818 16.456 17.5884 16.478C17.595 16.5 17.6006 16.5248 17.6053 16.545C17.61 16.5652 17.6132 16.5919 17.6156 16.613C17.6178 16.636 17.6189 16.6592 17.6189 16.6823C17.6189 16.7054 17.6178 16.7283 17.6156 16.7512C17.6132 16.7742 17.6095 16.7981 17.6053 16.8197C17.601 16.8412 17.595 16.8642 17.5884 16.8862C17.5818 16.9082 17.5739 16.9298 17.565 16.9509C17.5565 16.972 17.5462 16.9931 17.5359 17.0133C17.5139 17.0537 17.4883 17.0922 17.4595 17.1281C17.445 17.1459 17.429 17.1633 17.4126 17.1792C17.3962 17.1957 17.379 17.2113 17.361 17.2261C17.3434 17.2409 17.3249 17.2547 17.3057 17.2673C17.2864 17.2798 17.2667 17.2916 17.2467 17.3025C17.2265 17.3133 17.2054 17.3231 17.1843 17.332C17.1632 17.3409 17.1412 17.3484 17.1196 17.355C17.0977 17.362 17.0753 17.3676 17.0526 17.3719C17.0301 17.3765 17.0075 17.3799 16.9846 17.3822C16.9616 17.3844 16.9384 17.3855 16.9153 17.3855Z" fill="#DBE2E6"/>
<path d="M7.83838 17.3855C7.81536 17.3854 7.79236 17.3841 7.76947 17.3817C7.7465 17.3795 7.72365 17.376 7.70103 17.3714C7.67852 17.3672 7.65629 17.3615 7.63447 17.3545C7.61244 17.348 7.59088 17.34 7.56979 17.3316C7.54869 17.3231 7.5276 17.3128 7.50744 17.302C7.48717 17.2913 7.46746 17.2796 7.44838 17.2669C7.4291 17.2541 7.41048 17.2403 7.3926 17.2256C7.35705 17.1963 7.3244 17.1637 7.2951 17.1281C7.28041 17.1102 7.26665 17.0916 7.25385 17.0723C7.2412 17.054 7.22947 17.0351 7.21869 17.0156C7.20791 16.9955 7.19807 16.9744 7.18916 16.9533C7.18025 16.9322 7.17275 16.9106 7.16619 16.8886C7.15925 16.8668 7.15362 16.8445 7.14932 16.822C7.1447 16.7994 7.14126 16.7766 7.139 16.7536C7.13659 16.7307 7.13533 16.7077 7.13525 16.6847C7.13533 16.6615 7.13659 16.6384 7.139 16.6153C7.14129 16.5925 7.14474 16.5698 7.14932 16.5473C7.15356 16.5247 7.1592 16.5023 7.16619 16.4803C7.17275 16.4583 7.18072 16.4367 7.18916 16.4156C7.1976 16.3945 7.20791 16.3734 7.21869 16.3533C7.22947 16.3331 7.24119 16.3134 7.25385 16.2942C7.29292 16.2365 7.34031 16.1848 7.39447 16.1409C7.43042 16.1121 7.46885 16.0866 7.50932 16.0645C7.55003 16.0433 7.59254 16.0257 7.63635 16.012C7.65838 16.0055 7.68041 15.9998 7.70291 15.9951C7.72553 15.9905 7.74837 15.9871 7.77135 15.9848C7.84022 15.9779 7.90976 15.9814 7.9776 15.9951C8.0001 15.9998 8.02447 16.0055 8.04463 16.012C8.06658 16.0187 8.08817 16.0265 8.10932 16.0355C8.13061 16.044 8.15143 16.0537 8.17166 16.0645C8.19182 16.0753 8.2115 16.0875 8.23072 16.1001C8.28877 16.1388 8.34048 16.1863 8.384 16.2408C8.39854 16.2581 8.41213 16.2769 8.42525 16.2961C8.43838 16.3153 8.44963 16.335 8.46041 16.3551C8.47119 16.3753 8.48103 16.3964 8.48994 16.4175C8.49885 16.4386 8.50635 16.4601 8.51291 16.4822C8.51947 16.5042 8.5251 16.5291 8.52979 16.5492C8.53437 16.5717 8.53781 16.5944 8.5401 16.6172C8.54236 16.6402 8.54346 16.6634 8.54338 16.6866C8.54346 16.7096 8.54236 16.7326 8.5401 16.7555C8.53784 16.7784 8.5344 16.8013 8.52979 16.8239C8.5251 16.8459 8.51947 16.8684 8.51291 16.8905C8.50635 16.9125 8.49838 16.9341 8.48994 16.9551C8.4815 16.9762 8.47119 16.9973 8.46041 17.0175C8.4497 17.0378 8.43797 17.0575 8.42525 17.0766C8.41213 17.0958 8.39854 17.1145 8.384 17.1323C8.36938 17.1503 8.35373 17.1673 8.33713 17.1834C8.30428 17.2159 8.2685 17.2452 8.23025 17.2711C8.21088 17.2836 8.19119 17.2953 8.17119 17.3062C8.15104 17.317 8.12994 17.3269 8.10885 17.3358C8.08775 17.3447 8.06572 17.3522 8.04416 17.3587C8.02218 17.3657 7.9998 17.3714 7.97713 17.3756C7.95466 17.3802 7.93198 17.3836 7.90916 17.3859C7.88557 17.387 7.86195 17.3868 7.83838 17.3855Z" fill="#DBE2E6"/>
<path d="M13.905 17.3859H9.98907C9.80259 17.3859 9.62375 17.3119 9.49189 17.18C9.36003 17.0481 9.28595 16.8693 9.28595 16.6828C9.28595 16.4963 9.36003 16.3175 9.49189 16.1856C9.62375 16.0538 9.80259 15.9797 9.98907 15.9797H13.2019V5.21484H3.9436V15.9797H5.68923C5.87571 15.9797 6.05455 16.0538 6.18641 16.1856C6.31827 16.3175 6.39235 16.4963 6.39235 16.6828C6.39235 16.8693 6.31827 17.0481 6.18641 17.18C6.05455 17.3119 5.87571 17.3859 5.68923 17.3859H3.24048C3.054 17.3859 2.87516 17.3119 2.74329 17.18C2.61143 17.0481 2.53735 16.8693 2.53735 16.6828V4.51172C2.53735 4.32524 2.61143 4.1464 2.74329 4.01453C2.87516 3.88267 3.054 3.80859 3.24048 3.80859H13.905C14.0915 3.80859 14.2703 3.88267 14.4022 4.01453C14.5341 4.1464 14.6081 4.32524 14.6081 4.51172V16.6828C14.6081 16.8693 14.5341 17.0481 14.4022 17.18C14.2703 17.3119 14.0915 17.3859 13.905 17.3859Z" fill="#DBE2E6"/>
<path d="M20.678 13.6875H19.7344C19.5479 13.6875 19.3691 13.6134 19.2372 13.4816C19.1053 13.3497 19.0312 13.1709 19.0312 12.9844C19.0312 12.7979 19.1053 12.6191 19.2372 12.4872C19.3691 12.3553 19.5479 12.2812 19.7344 12.2812H20.678C20.8644 12.2812 21.0433 12.3553 21.1752 12.4872C21.307 12.6191 21.3811 12.7979 21.3811 12.9844C21.3811 13.1709 21.307 13.3497 21.1752 13.4816C21.0433 13.6134 20.8644 13.6875 20.678 13.6875Z" fill="#DBE2E6"/>
</svg>
