<svg width="24" height="24" viewBox="0 0 24 24" fill="none" xmlns="http://www.w3.org/2000/svg">
<path d="M17.5622 17.1562H14.7787C13.8756 17.1553 13.0097 16.7961 12.3711 16.1574C11.7325 15.5188 11.3733 14.653 11.3723 13.7498V7.16812C11.3733 6.26499 11.7325 5.39914 12.3711 4.76053C13.0097 4.12192 13.8756 3.76271 14.7787 3.76172H17.5622C17.7486 3.76172 17.9275 3.8358 18.0593 3.96766C18.1912 4.09952 18.2653 4.27836 18.2653 4.46484V16.4531C18.2653 16.6396 18.1912 16.8184 18.0593 16.9503C17.9275 17.0822 17.7486 17.1562 17.5622 17.1562ZM14.7787 5.16797C14.2484 5.16859 13.74 5.37952 13.3651 5.75449C12.9901 6.12945 12.7792 6.63784 12.7786 7.16812V13.7508C12.7794 14.2809 12.9905 14.7891 13.3654 15.1638C13.7404 15.5386 14.2486 15.7494 14.7787 15.75H16.859V5.16797H14.7787Z" fill="#DBE2E6"/>
<path d="M12.3122 15.6999H6.7922C5.6642 15.6986 4.58276 15.25 3.7851 14.4524C2.98745 13.6549 2.53872 12.5735 2.53735 11.4455V9.47673C2.53872 8.34873 2.98745 7.26734 3.7851 6.46977C4.58276 5.6722 5.6642 5.22359 6.7922 5.22235H12.3103C12.4968 5.22235 12.6756 5.29643 12.8075 5.42829C12.9394 5.56015 13.0134 5.739 13.0134 5.92548C13.0134 6.11196 12.9394 6.2908 12.8075 6.42266C12.6756 6.55452 12.4968 6.6286 12.3103 6.6286H6.7922C6.03701 6.62935 5.31297 6.92964 4.77892 7.46359C4.24488 7.99754 3.94447 8.72154 3.9436 9.47673V11.4455C3.9446 12.2006 4.24505 12.9245 4.77906 13.4585C5.31307 13.9924 6.03705 14.2927 6.7922 14.2936H12.3122C12.4987 14.2936 12.6775 14.3677 12.8094 14.4995C12.9412 14.6314 13.0153 14.8102 13.0153 14.9967C13.0153 15.1832 12.9412 15.362 12.8094 15.4939C12.6775 15.6258 12.4987 15.6999 12.3122 15.6999Z" fill="#DBE2E6"/>
<path d="M9.18321 20.6625C8.68775 20.6609 8.20783 20.4895 7.82346 20.1768C7.43909 19.8642 7.17352 19.4293 7.07102 18.9445L6.28117 15.1406C6.26145 15.0499 6.2599 14.9561 6.27661 14.8648C6.29332 14.7734 6.32796 14.6863 6.37853 14.6084C6.4291 14.5305 6.49459 14.4634 6.57123 14.411C6.64787 14.3586 6.73414 14.3218 6.82505 14.3029C6.91597 14.284 7.00973 14.2833 7.10092 14.3008C7.19212 14.3183 7.27893 14.3537 7.35637 14.405C7.4338 14.4563 7.50031 14.5223 7.55207 14.5994C7.60382 14.6765 7.63979 14.7631 7.65789 14.8542L8.44774 18.6562C8.46787 18.7528 8.50682 18.8445 8.56238 18.926C8.61794 19.0076 8.68901 19.0773 8.77154 19.1314C8.85406 19.1855 8.94643 19.2227 9.04337 19.2411C9.1403 19.2595 9.2399 19.2586 9.33649 19.2384C9.43307 19.2183 9.52474 19.1793 9.60627 19.1238C9.6878 19.0682 9.75759 18.9972 9.81165 18.9146C9.86571 18.8321 9.90298 18.7397 9.92135 18.6428C9.93971 18.5459 9.9388 18.4463 9.91867 18.3497L9.25024 15.1406C9.23052 15.0499 9.22897 14.9561 9.24568 14.8648C9.26239 14.7734 9.29702 14.6863 9.34759 14.6084C9.39816 14.5305 9.46365 14.4634 9.54029 14.411C9.61693 14.3586 9.7032 14.3218 9.79412 14.3029C9.88503 14.284 9.97879 14.2833 10.07 14.3008C10.1612 14.3183 10.248 14.3537 10.3254 14.405C10.4029 14.4563 10.4694 14.5223 10.5211 14.5994C10.5729 14.6765 10.6089 14.7631 10.627 14.8542L11.2968 18.0652C11.3624 18.3791 11.3572 18.7037 11.2814 19.0154C11.2057 19.327 11.0614 19.6178 10.8591 19.8667C10.6567 20.1155 10.4014 20.3161 10.1117 20.4537C9.82206 20.5914 9.50533 20.6627 9.18461 20.6625H9.18321Z" fill="#DBE2E6"/>
<path d="M17.5623 14.2786C17.3758 14.2786 17.1969 14.2045 17.0651 14.0727C16.9332 13.9408 16.8591 13.7619 16.8591 13.5755C16.8591 13.389 16.9332 13.2101 17.0651 13.0783C17.1969 12.9464 17.3758 12.8723 17.5623 12.8723C18.2025 12.8723 18.8165 12.618 19.2693 12.1653C19.722 11.7126 19.9763 11.0985 19.9763 10.4583C19.9763 9.81803 19.722 9.20401 19.2693 8.75128C18.8165 8.29856 18.2025 8.04422 17.5623 8.04422C17.3758 8.04422 17.1969 7.97014 17.0651 7.83828C16.9332 7.70642 16.8591 7.52758 16.8591 7.34109C16.8591 7.15461 16.9332 6.97577 17.0651 6.84391C17.1969 6.71205 17.3758 6.63797 17.5623 6.63797C18.5755 6.63797 19.5472 7.04047 20.2636 7.75691C20.9801 8.47336 21.3826 9.44507 21.3826 10.4583C21.3826 11.4715 20.9801 12.4432 20.2636 13.1597C19.5472 13.8761 18.5755 14.2786 17.5623 14.2786Z" fill="#DBE2E6"/>
</svg>
