<svg width="24" height="24" viewBox="0 0 24 24" fill="none" xmlns="http://www.w3.org/2000/svg">
<path d="M19.3768 21.0309H4.54224C4.35576 21.0309 4.17691 20.9568 4.04505 20.825C3.91319 20.6931 3.83911 20.5143 3.83911 20.3278V10.2103C3.83911 10.0238 3.91319 9.84497 4.04505 9.71311C4.17691 9.58125 4.35576 9.50717 4.54224 9.50717H19.3768C19.5632 9.50717 19.7421 9.58125 19.874 9.71311C20.0058 9.84497 20.0799 10.0238 20.0799 10.2103V20.3278C20.0799 20.5143 20.0058 20.6931 19.874 20.825C19.7421 20.9568 19.5632 21.0309 19.3768 21.0309ZM5.24536 19.6247H18.6736V10.9134H5.24536V19.6247Z" fill="#DBE2E6"/>
<path d="M20.6471 10.9134H3.27197C3.08549 10.9134 2.90665 10.8394 2.77479 10.7075C2.64293 10.5756 2.56885 10.3968 2.56885 10.2103V6.43124C2.56885 6.24476 2.64293 6.06592 2.77479 5.93406C2.90665 5.8022 3.08549 5.72812 3.27197 5.72812H20.6471C20.8336 5.72812 21.0125 5.8022 21.1443 5.93406C21.2762 6.06592 21.3503 6.24476 21.3503 6.43124V10.2103C21.3503 10.3968 21.2762 10.5756 21.1443 10.7075C21.0125 10.8394 20.8336 10.9134 20.6471 10.9134ZM3.9751 9.50718H19.944V7.13437H3.9751V9.50718Z" fill="#DBE2E6"/>
<path d="M11.9589 7.13436C11.8014 7.13422 11.6486 7.08124 11.5248 6.98389L7.45327 3.78139C7.36869 3.71474 7.26705 3.67325 7.15998 3.66169C7.05292 3.65013 6.94476 3.66895 6.8479 3.71601C6.75104 3.76307 6.66939 3.83647 6.61231 3.92778C6.55523 4.0191 6.52502 4.12464 6.52515 4.23233V6.43124C6.52515 6.61772 6.45107 6.79656 6.31921 6.92842C6.18734 7.06028 6.0085 7.13436 5.82202 7.13436C5.63554 7.13436 5.4567 7.06028 5.32484 6.92842C5.19298 6.79656 5.1189 6.61772 5.1189 6.43124V4.23233C5.11893 3.86079 5.2235 3.49675 5.42066 3.18183C5.61781 2.86692 5.89959 2.61383 6.2338 2.45149C6.568 2.28916 6.94113 2.22413 7.31055 2.26385C7.67996 2.30356 8.03074 2.44642 8.3228 2.67608L12.3939 5.87858C12.5089 5.969 12.5928 6.09302 12.6339 6.23337C12.6751 6.37372 12.6714 6.52342 12.6235 6.6616C12.5756 6.79979 12.4858 6.9196 12.3666 7.00433C12.2474 7.08907 12.1047 7.13452 11.9584 7.13436H11.9589Z" fill="#DBE2E6"/>
<path d="M11.9598 7.13436C11.8136 7.13443 11.671 7.08891 11.5518 7.00413C11.4327 6.91936 11.3429 6.79955 11.2951 6.66138C11.2472 6.52322 11.2436 6.37357 11.2848 6.23326C11.326 6.09296 11.4099 5.96898 11.5248 5.87858L15.5954 2.67608C15.8875 2.44628 16.2383 2.30331 16.6078 2.26352C16.9773 2.22373 17.3505 2.28873 17.6848 2.45108C18.0191 2.61343 18.3009 2.86658 18.4981 3.18158C18.6953 3.49658 18.7998 3.86071 18.7998 4.23233V6.43124C18.7998 6.61772 18.7257 6.79656 18.5938 6.92842C18.462 7.06029 18.2831 7.13436 18.0967 7.13436C17.9102 7.13436 17.7313 7.06029 17.5995 6.92842C17.4676 6.79656 17.3935 6.61772 17.3935 6.43124V4.23233C17.3935 4.12464 17.3633 4.01911 17.3061 3.92783C17.249 3.83655 17.1673 3.76319 17.0704 3.71614C16.9735 3.6691 16.8654 3.65027 16.7583 3.66181C16.6512 3.67335 16.5496 3.71479 16.4649 3.7814L12.3943 6.98436C12.2704 7.08164 12.1173 7.13446 11.9598 7.13436Z" fill="#DBE2E6"/>
</svg>
