<svg width="24" height="24" viewBox="0 0 24 24" fill="none" xmlns="http://www.w3.org/2000/svg">
<path d="M12.0468 21.0938C11.9343 21.0938 11.8234 21.0668 11.7235 21.0151C11.6236 20.9634 11.5375 20.8884 11.4726 20.7966L2.88601 8.64985C2.8063 8.53706 2.76157 8.4033 2.7574 8.26525C2.75323 8.1272 2.78981 7.99099 2.86257 7.8736L6.14054 2.58282C6.20376 2.48078 6.29204 2.39663 6.39699 2.33837C6.50193 2.28011 6.62004 2.24969 6.74007 2.25H17.353C17.4732 2.24961 17.5914 2.28 17.6964 2.33826C17.8014 2.39652 17.8898 2.48071 17.953 2.58282L21.2343 7.8736C21.3071 7.99099 21.3436 8.1272 21.3395 8.26525C21.3353 8.4033 21.2906 8.53706 21.2109 8.64985L12.621 20.7966C12.5561 20.8884 12.47 20.9634 12.3701 21.0151C12.2702 21.0668 12.1593 21.0938 12.0468 21.0938ZM4.30351 8.2186L12.0468 19.1719L19.7896 8.2186L16.9616 3.65625H7.13148L4.30351 8.2186Z" fill="#DBE2E6"/>
<path d="M20.6329 8.94705H3.46021C3.27372 8.94705 3.09488 8.87297 2.96302 8.74111C2.83116 8.60925 2.75708 8.43041 2.75708 8.24393C2.75708 8.05745 2.83116 7.8786 2.96302 7.74674C3.09488 7.61488 3.27372 7.5408 3.46021 7.5408H20.6329C20.8193 7.5408 20.9982 7.61488 21.13 7.74674C21.2619 7.8786 21.336 8.05745 21.336 8.24393C21.336 8.43041 21.2619 8.60925 21.13 8.74111C20.9982 8.87297 20.8193 8.94705 20.6329 8.94705Z" fill="#DBE2E6"/>
<path d="M9.39312 8.94705C9.26286 8.94691 9.13519 8.91059 9.02437 8.84214C8.91354 8.77369 8.8239 8.6758 8.76546 8.55939L6.1114 3.26814C6.02956 3.10163 6.01686 2.90952 6.07605 2.73368C6.13525 2.55783 6.26155 2.41252 6.42742 2.3294C6.5933 2.24627 6.7853 2.23208 6.9616 2.28991C7.13789 2.34775 7.28418 2.47291 7.36859 2.63814L9.39312 6.67548L11.4181 2.63814C11.5025 2.47291 11.6488 2.34775 11.8251 2.28991C12.0014 2.23208 12.1934 2.24627 12.3593 2.3294C12.5252 2.41252 12.6515 2.55783 12.7106 2.73368C12.7698 2.90952 12.7571 3.10163 12.6753 3.26814L10.0217 8.55939C9.9632 8.67595 9.87342 8.77393 9.76241 8.84239C9.6514 8.91085 9.52354 8.94708 9.39312 8.94705Z" fill="#DBE2E6"/>
<path d="M14.7 8.94705C14.5696 8.94708 14.4417 8.91085 14.3307 8.84239C14.2197 8.77393 14.1299 8.67595 14.0714 8.55939L11.4183 3.26814C11.3761 3.1855 11.3506 3.09533 11.3434 3.00282C11.3362 2.9103 11.3474 2.81728 11.3763 2.72911C11.4053 2.64093 11.4514 2.55936 11.512 2.48909C11.5726 2.41881 11.6465 2.36123 11.7294 2.31966C11.8124 2.27809 11.9028 2.25334 11.9953 2.24686C12.0879 2.24038 12.1808 2.25229 12.2688 2.28189C12.3567 2.3115 12.4379 2.35822 12.5077 2.41936C12.5775 2.48051 12.6345 2.55486 12.6755 2.63814L14.7 6.67548L16.725 2.63814C16.7649 2.55319 16.8214 2.47709 16.8912 2.41432C16.9609 2.35155 17.0426 2.30338 17.1312 2.27266C17.2199 2.24194 17.3139 2.22928 17.4075 2.23543C17.5012 2.24158 17.5926 2.26642 17.6765 2.30848C17.7604 2.35054 17.8351 2.40897 17.896 2.48032C17.957 2.55168 18.003 2.63452 18.0315 2.72395C18.0599 2.81339 18.0702 2.90762 18.0616 3.00108C18.0531 3.09454 18.0259 3.18535 17.9817 3.26814L15.3281 8.55939C15.2696 8.67588 15.1799 8.77381 15.069 8.84227C14.9581 8.91072 14.8303 8.947 14.7 8.94705Z" fill="#DBE2E6"/>
<path d="M12.0467 21.0938C11.8863 21.0938 11.7306 21.039 11.6056 20.9384C11.4806 20.8378 11.3938 20.6974 11.3595 20.5406L8.70642 8.39438C8.66658 8.21219 8.70074 8.02164 8.8014 7.86463C8.90205 7.70763 9.06095 7.59704 9.24314 7.5572C9.42533 7.51735 9.61589 7.55152 9.77289 7.65217C9.9299 7.75282 10.0405 7.91172 10.0803 8.09392L12.0467 17.0939L14.0131 8.09392C14.0312 8.00205 14.0674 7.91471 14.1196 7.83701C14.1718 7.75932 14.239 7.69284 14.3173 7.64147C14.3956 7.5901 14.4833 7.55487 14.5753 7.53786C14.6674 7.52085 14.7619 7.52239 14.8534 7.5424C14.9448 7.56241 15.0314 7.60048 15.1079 7.65437C15.1845 7.70827 15.2495 7.77691 15.2991 7.85627C15.3488 7.93563 15.3821 8.0241 15.3971 8.11651C15.4122 8.20891 15.4086 8.30339 15.3866 8.39438L12.7335 20.5406C12.6992 20.6973 12.6125 20.8376 12.4876 20.9382C12.3627 21.0388 12.2071 21.0937 12.0467 21.0938Z" fill="#DBE2E6"/>
</svg>
