<svg width="24" height="24" viewBox="0 0 24 24" fill="none" xmlns="http://www.w3.org/2000/svg">
<path d="M15.9816 21.0937H4.86844C4.27363 21.0931 3.70336 20.8566 3.28277 20.436C2.86218 20.0154 2.62562 19.4451 2.625 18.8503V12.218C2.62562 11.6231 2.86218 11.0529 3.28277 10.6323C3.70336 10.2117 4.27363 9.97514 4.86844 9.97452H15.9816C16.5764 9.97514 17.1466 10.2117 17.5672 10.6323C17.9878 11.0529 18.2244 11.6231 18.225 12.218V18.8503C18.2244 19.4451 17.9878 20.0154 17.5672 20.436C17.1466 20.8566 16.5764 21.0931 15.9816 21.0937ZM4.86844 11.3808C4.64648 11.381 4.43368 11.4693 4.27673 11.6262C4.11978 11.7832 4.0315 11.996 4.03125 12.218V18.8503C4.0315 19.0723 4.11978 19.2851 4.27673 19.442C4.43368 19.599 4.64648 19.6872 4.86844 19.6875H15.9816C16.2035 19.6872 16.4163 19.599 16.5733 19.442C16.7302 19.2851 16.8185 19.0723 16.8187 18.8503V12.218C16.8185 11.996 16.7302 11.7832 16.5733 11.6262C16.4163 11.4693 16.2035 11.381 15.9816 11.3808H4.86844Z" fill="#DBE2E6"/>
<path d="M19.1324 17.3072H17.5218C17.3353 17.3072 17.1565 17.2331 17.0246 17.1012C16.8928 16.9694 16.8187 16.7905 16.8187 16.6041C16.8187 16.4176 16.8928 16.2387 17.0246 16.1069C17.1565 15.975 17.3353 15.9009 17.5218 15.9009H19.1324C19.3542 15.9004 19.5668 15.8121 19.7235 15.6551C19.8803 15.4982 19.9684 15.2855 19.9687 15.0638V8.43141C19.9686 8.20953 19.8805 7.99675 19.7237 7.83973C19.5669 7.6827 19.3543 7.59425 19.1324 7.59375H8.01932C7.79736 7.594 7.58456 7.68228 7.42761 7.83923C7.27066 7.99618 7.18238 8.20898 7.18213 8.43094V10.6772C7.18213 10.8637 7.10805 11.0425 6.97619 11.1744C6.84433 11.3062 6.66548 11.3803 6.479 11.3803C6.29252 11.3803 6.11368 11.3062 5.98182 11.1744C5.84996 11.0425 5.77588 10.8637 5.77588 10.6772V8.43141C5.77638 7.83652 6.01288 7.26613 6.43349 6.84544C6.85409 6.42475 7.42443 6.18812 8.01932 6.1875H19.1324C19.7272 6.18837 20.2973 6.4251 20.7177 6.84577C21.1381 7.26644 21.3744 7.83668 21.3749 8.43141V15.0638C21.3743 15.6584 21.1379 16.2285 20.7175 16.6491C20.2971 17.0696 19.7271 17.3063 19.1324 17.3072Z" fill="#DBE2E6"/>
<path d="M17.5219 16.0683H3.32812C3.14164 16.0683 2.9628 15.9942 2.83094 15.8623C2.69908 15.7305 2.625 15.5516 2.625 15.3652V13.0036C2.625 12.8171 2.69908 12.6383 2.83094 12.5064C2.9628 12.3746 3.14164 12.3005 3.32812 12.3005H17.5219C17.7084 12.3005 17.8872 12.3746 18.0191 12.5064C18.1509 12.6383 18.225 12.8171 18.225 13.0036V15.3652C18.225 15.5516 18.1509 15.7305 18.0191 15.8623C17.8872 15.9942 17.7084 16.0683 17.5219 16.0683ZM4.03125 14.662H16.8187V13.7067H4.03125V14.662Z" fill="#DBE2E6"/>
</svg>
