<svg width="24" height="24" viewBox="0 0 24 24" fill="none" xmlns="http://www.w3.org/2000/svg">
<path d="M18.8906 21.0938H5.02782C4.36758 21.0931 3.73455 20.8306 3.26765 20.3638C2.80074 19.897 2.5381 19.264 2.53735 18.6038V13.1775C2.5381 12.5173 2.80074 11.8843 3.26765 11.4175C3.73455 10.9506 4.36758 10.6881 5.02782 10.6875H18.8906C19.5508 10.6882 20.1837 10.9508 20.6505 11.4176C21.1173 11.8844 21.3799 12.5173 21.3806 13.1775V18.6038C21.3799 19.2639 21.1173 19.8968 20.6505 20.3636C20.1837 20.8304 19.5508 21.093 18.8906 21.0938ZM5.02782 12.0938C4.74043 12.094 4.46487 12.2082 4.2616 12.4114C4.05834 12.6146 3.94398 12.8901 3.9436 13.1775V18.6038C3.94398 18.8911 4.05834 19.1667 4.2616 19.3698C4.46487 19.573 4.74043 19.6873 5.02782 19.6875H18.8906C19.178 19.6873 19.4535 19.573 19.6567 19.3698C19.8599 19.1666 19.9741 18.8911 19.9744 18.6038V13.1775C19.9741 12.8901 19.8599 12.6146 19.6567 12.4114C19.4535 12.2083 19.178 12.094 18.8906 12.0938H5.02782Z" fill="#DBE2E6"/>
<path d="M16.0637 12.0938H7.85542C7.7283 12.0937 7.60357 12.0593 7.49449 11.994C7.3854 11.9288 7.29605 11.8351 7.23594 11.7231C7.17582 11.6111 7.1472 11.4849 7.1531 11.358C7.15901 11.231 7.19923 11.108 7.26948 11.002L10.547 6.05531C10.651 5.9021 10.8112 5.7961 10.9929 5.76032C11.1746 5.72454 11.363 5.76188 11.5174 5.86422C11.6717 5.96657 11.7794 6.12566 11.8171 6.30695C11.8549 6.48824 11.8195 6.67709 11.7189 6.8325L9.16464 10.6875H14.754L12.1993 6.8325C12.1471 6.75558 12.1107 6.66906 12.0921 6.57796C12.0736 6.48686 12.0733 6.39299 12.0912 6.30177C12.1092 6.21055 12.1451 6.1238 12.1968 6.04654C12.2485 5.96928 12.315 5.90304 12.3925 5.85165C12.47 5.80027 12.5569 5.76476 12.6482 5.74718C12.7394 5.7296 12.8333 5.7303 12.9243 5.74924C13.0154 5.76818 13.1017 5.80499 13.1784 5.85752C13.2551 5.91006 13.3207 5.97729 13.3712 6.05531L16.6496 11.002C16.7199 11.108 16.7601 11.231 16.766 11.358C16.7719 11.4849 16.7433 11.6111 16.6832 11.7231C16.6231 11.8351 16.5337 11.9288 16.4246 11.994C16.3156 12.0593 16.1908 12.0937 16.0637 12.0938Z" fill="#DBE2E6"/>
<path d="M5.70898 16.6524V15.2025C5.70898 14.2613 6.29445 13.9111 7.04914 13.9111C7.80383 13.9111 8.39492 14.2613 8.39492 15.2025V16.6524C8.39492 17.5931 7.8043 17.9433 7.04914 17.9433C6.29398 17.9433 5.70898 17.5931 5.70898 16.6524ZM7.5418 15.2025C7.5418 14.8247 7.3543 14.6555 7.04914 14.6555C6.74398 14.6555 6.56258 14.8247 6.56258 15.2025V16.6524C6.56258 17.0297 6.74352 17.1994 7.04961 17.1994C7.3557 17.1994 7.54227 17.0297 7.54227 16.6524L7.5418 15.2025Z" fill="#DBE2E6"/>
<path d="M7.04907 17.9611C6.17345 17.9611 5.6897 17.4961 5.6897 16.6523V15.2025C5.6897 14.3587 6.17204 13.8937 7.04907 13.8937C7.9261 13.8937 8.41267 14.3583 8.41267 15.2025V16.6523C8.41267 17.4961 7.92845 17.9611 7.04907 17.9611ZM7.04907 13.9298C5.95595 13.9298 5.72626 14.6222 5.72626 15.2034V16.6533C5.72626 17.2341 5.95595 17.9269 7.04907 17.9269C7.90595 17.9269 8.37751 17.4745 8.37751 16.6533V15.2025C8.37751 14.3812 7.90595 13.9289 7.04907 13.9289V13.9298ZM7.04907 17.2176C6.72095 17.2176 6.5447 17.0226 6.5447 16.6551V15.2025C6.5447 14.8331 6.71907 14.6376 7.04907 14.6376C7.37907 14.6376 7.55907 14.8331 7.55907 15.2025V16.6523C7.55907 17.0217 7.38282 17.2167 7.04907 17.2167V17.2176ZM7.04907 14.6737C6.73782 14.6737 6.58032 14.8519 6.58032 15.2034V16.6533C6.58032 17.0044 6.73829 17.1825 7.04907 17.1825C7.35985 17.1825 7.52392 17.0044 7.52392 16.6533V15.2025C7.52392 14.8509 7.36407 14.6719 7.04907 14.6719V14.6737Z" fill="#DBE2E6"/>
<path d="M9.07886 14.1684C9.07886 14.0316 9.20495 13.9111 9.3962 13.9111H10.5287C11.251 13.9111 11.8201 14.2505 11.8201 15.1697V15.1969C11.8201 16.1161 11.229 16.4663 10.4743 16.4663H9.93245V17.648C9.93245 17.8228 9.71917 17.9105 9.50589 17.9105C9.29261 17.9105 9.07886 17.8228 9.07886 17.648V14.1684ZM9.93245 14.6555V15.8095H10.4743C10.7804 15.8095 10.9665 15.6347 10.9665 15.2625V15.2025C10.9665 14.8303 10.779 14.6555 10.4743 14.6555H9.93245Z" fill="#DBE2E6"/>
<path d="M9.5059 17.9283C9.29168 17.9283 9.06152 17.8406 9.06152 17.647V14.1684C9.06152 14.0119 9.20543 13.8937 9.39621 13.8937H10.5287C11.3725 13.8937 11.8375 14.3466 11.8375 15.1697V15.1969C11.8375 16.0266 11.3532 16.4836 10.4743 16.4836H9.95027V17.648C9.95027 17.8406 9.71965 17.9283 9.5059 17.9283ZM9.39621 13.9289C9.22559 13.9289 9.09668 14.032 9.09668 14.1684V17.648C9.09668 17.8162 9.30855 17.8931 9.5059 17.8931C9.70324 17.8931 9.91512 17.8162 9.91512 17.648V16.4484H10.4743C10.9703 16.4484 11.8023 16.2858 11.8023 15.1969V15.1697C11.8023 14.3695 11.35 13.9289 10.5287 13.9289H9.39621ZM10.4743 15.8273H9.91512V14.6376H10.4743C10.8025 14.6376 10.9843 14.8383 10.9843 15.2025V15.2625C10.9843 15.6267 10.8029 15.8273 10.4743 15.8273ZM9.95027 15.7922H10.4743C10.7846 15.7922 10.9492 15.6089 10.9492 15.2625V15.2025C10.9492 14.8561 10.7846 14.6728 10.4743 14.6728H9.95027V15.7922Z" fill="#DBE2E6"/>
<path d="M13.1823 15.5799H14.0031C14.1671 15.5799 14.26 15.7388 14.26 15.9136C14.26 16.0613 14.1836 16.2366 14.0031 16.2366H13.1823V17.1666H14.6486C14.8126 17.1666 14.9059 17.3414 14.9059 17.5416C14.9059 17.7169 14.829 17.9081 14.6486 17.9081H12.7032C12.5157 17.9081 12.3311 17.8205 12.3311 17.6456V14.1741C12.3311 13.9988 12.5186 13.9111 12.7032 13.9111H14.6486C14.829 13.9111 14.9059 14.1028 14.9059 14.2777C14.9059 14.4802 14.8121 14.6555 14.6486 14.6555H13.1823V15.5799Z" fill="#DBE2E6"/>
<path d="M14.6486 17.9283H12.7033C12.5158 17.9283 12.3137 17.8406 12.3137 17.647V14.1741C12.3137 13.9814 12.5158 13.8928 12.7033 13.8928H14.6486C14.8384 13.8928 14.9233 14.0855 14.9233 14.2767C14.9233 14.5111 14.8103 14.6719 14.6486 14.6719H13.1997V15.5625H14.0031C14.1836 15.5625 14.2778 15.7392 14.2778 15.9136C14.2778 16.0777 14.1915 16.2539 14.0031 16.2539H13.1997V17.1488H14.6486C14.8103 17.1488 14.9233 17.3114 14.9233 17.5439C14.9233 17.7352 14.8384 17.9283 14.6486 17.9283ZM12.7033 13.9289C12.5326 13.9289 12.3489 14.0053 12.3489 14.1741V17.648C12.3489 17.8163 12.5326 17.8931 12.7033 17.8931H14.6486C14.814 17.8931 14.8881 17.7178 14.8881 17.5439C14.8881 17.37 14.8131 17.1839 14.6486 17.1839H13.1645V16.2188H14.0031C14.1676 16.2188 14.2426 16.0608 14.2426 15.9136C14.2426 15.7566 14.1601 15.5977 14.0031 15.5977H13.1645V14.6377H14.6486C14.8131 14.6377 14.8881 14.4502 14.8881 14.2777C14.8881 14.1052 14.814 13.9289 14.6486 13.9289H12.7033Z" fill="#DBE2E6"/>
<path d="M17.3071 17.6808L16.2679 15.788V17.648C16.2679 17.8228 16.0542 17.9105 15.8409 17.9105C15.6276 17.9105 15.4143 17.8228 15.4143 17.648V14.1741C15.4143 13.9931 15.6276 13.9111 15.8409 13.9111C16.1474 13.9111 16.2627 13.9388 16.4704 14.3381L17.3563 16.0284V14.1684C17.3563 13.988 17.5701 13.9111 17.7834 13.9111C17.9967 13.9111 18.2099 13.988 18.2099 14.1684V17.648C18.2099 17.8228 17.9967 17.9105 17.7834 17.9105C17.5865 17.9105 17.4112 17.872 17.3071 17.6808Z" fill="#DBE2E6"/>
<path d="M17.7834 17.9283C17.6043 17.9283 17.406 17.8997 17.2916 17.6892L16.2852 15.8564V17.648C16.2852 17.8406 16.0551 17.9292 15.8409 17.9292C15.6266 17.9292 15.3965 17.8416 15.3965 17.648V14.1741C15.3965 13.9805 15.6201 13.8928 15.8409 13.8928C16.1568 13.8928 16.2763 13.9266 16.4859 14.3288L17.339 15.9563V14.1684C17.339 13.9655 17.578 13.8938 17.7834 13.8938C17.9887 13.8938 18.2277 13.9655 18.2277 14.1684V17.648C18.2277 17.8406 17.9971 17.9283 17.7834 17.9283ZM16.2501 15.7191L17.3226 17.6719C17.428 17.8659 17.6062 17.8927 17.7834 17.8927C17.9802 17.8927 18.1926 17.8158 18.1926 17.6475V14.1684C18.1926 13.9917 17.9718 13.9289 17.7834 13.9289C17.5949 13.9289 17.3741 13.9917 17.3741 14.1684V16.0997L16.453 14.3461C16.2463 13.9491 16.1343 13.9289 15.8395 13.9289C15.636 13.9289 15.4302 14.0044 15.4302 14.1741V17.648C15.4302 17.8163 15.6426 17.8931 15.8395 17.8931C16.0363 17.8931 16.2487 17.8163 16.2487 17.648L16.2501 15.7191Z" fill="#DBE2E6"/>
<path d="M11.9592 7.39594C11.5244 7.39612 11.0994 7.26737 10.7378 7.02597C10.3762 6.78457 10.0943 6.44136 9.92783 6.03975C9.76133 5.63814 9.71767 5.19617 9.80237 4.76974C9.88708 4.34332 10.0963 3.95159 10.4037 3.6441C10.711 3.33662 11.1027 3.12719 11.5291 3.0423C11.9555 2.95742 12.3975 3.00089 12.7991 3.16722C13.2008 3.33355 13.5441 3.61527 13.7857 3.97675C14.0273 4.33822 14.1562 4.76321 14.1562 5.19797C14.1556 5.78055 13.9239 6.33911 13.5121 6.75115C13.1002 7.16319 12.5417 7.39507 11.9592 7.39594ZM11.9592 4.40625C11.8025 4.40607 11.6494 4.45234 11.5191 4.53922C11.3887 4.62611 11.2871 4.74969 11.227 4.89434C11.167 5.03899 11.1512 5.19821 11.1816 5.35185C11.212 5.50549 11.2874 5.64665 11.3981 5.75747C11.5087 5.86828 11.6498 5.94378 11.8034 5.97441C11.957 6.00503 12.1163 5.98941 12.261 5.92951C12.4057 5.86962 12.5294 5.76814 12.6164 5.63792C12.7035 5.5077 12.7499 5.3546 12.7499 5.19797C12.7497 4.98823 12.6663 4.78714 12.5181 4.63874C12.3699 4.49035 12.1689 4.40675 11.9592 4.40625Z" fill="#DBE2E6"/>
</svg>
