<svg width="24" height="24" viewBox="0 0 24 24" fill="none" xmlns="http://www.w3.org/2000/svg">
<path d="M9.48129 21.0548C9.01466 21.0548 8.55851 20.9165 8.17053 20.6572C7.78255 20.3979 7.48016 20.0295 7.30161 19.5983C7.12306 19.1672 7.07637 18.6928 7.16744 18.2352C7.25851 17.7775 7.48325 17.3572 7.81324 17.0272C8.14323 16.6973 8.56364 16.4726 9.02132 16.3817C9.47899 16.2907 9.95337 16.3375 10.3844 16.5161C10.8155 16.6948 11.184 16.9972 11.4431 17.3852C11.7023 17.7733 11.8406 18.2295 11.8405 18.6961C11.8398 19.3215 11.591 19.9211 11.1487 20.3633C10.7064 20.8055 10.1067 21.0542 9.48129 21.0548ZM9.48129 17.7431C9.29281 17.7431 9.10856 17.799 8.95185 17.9037C8.79513 18.0084 8.67299 18.1573 8.60086 18.3314C8.52873 18.5055 8.50986 18.6971 8.54663 18.882C8.5834 19.0669 8.67416 19.2367 8.80744 19.3699C8.94071 19.5032 9.11052 19.594 9.29538 19.6307C9.48023 19.6675 9.67184 19.6486 9.84598 19.5765C10.0201 19.5044 10.1689 19.3822 10.2737 19.2255C10.3784 19.0688 10.4343 18.8846 10.4343 18.6961C10.434 18.4434 10.3335 18.2012 10.1549 18.0225C9.9762 17.8438 9.73396 17.7434 9.48129 17.7431Z" fill="#DBE2E6"/>
<path d="M17.5255 21.0548C17.0588 21.0549 16.6026 20.9166 16.2146 20.6574C15.8265 20.3982 15.5241 20.0298 15.3454 19.5987C15.1668 19.1676 15.1201 18.6932 15.2111 18.2355C15.3021 17.7778 15.5268 17.3574 15.8568 17.0274C16.1867 16.6974 16.6072 16.4727 17.0648 16.3817C17.5225 16.2907 17.9969 16.3374 18.428 16.5161C18.8592 16.6947 19.2276 16.9972 19.4868 17.3852C19.746 17.7732 19.8843 18.2294 19.8842 18.6961C19.8835 19.3214 19.6347 19.921 19.1925 20.3631C18.7503 20.8053 18.1508 21.0541 17.5255 21.0548ZM17.5255 17.7431C17.337 17.743 17.1527 17.7988 16.9959 17.9035C16.8391 18.0081 16.7169 18.1569 16.6447 18.3311C16.5725 18.5052 16.5536 18.6968 16.5903 18.8817C16.627 19.0666 16.7177 19.2364 16.851 19.3698C16.9842 19.5031 17.154 19.5939 17.3389 19.6307C17.5238 19.6675 17.7154 19.6487 17.8896 19.5766C18.0637 19.5044 18.2126 19.3823 18.3173 19.2256C18.4221 19.0688 18.478 18.8846 18.478 18.6961C18.4777 18.4435 18.3773 18.2013 18.1987 18.0227C18.0202 17.844 17.778 17.7435 17.5255 17.7431Z" fill="#DBE2E6"/>
<path d="M20.6779 15.5077H6.55207C6.36559 15.5077 6.18675 15.4336 6.05489 15.3017C5.92302 15.1699 5.84895 14.991 5.84895 14.8045V4.75734C5.84845 4.47774 5.73709 4.20974 5.53929 4.01212C5.34149 3.81449 5.0734 3.70337 4.79379 3.70312H3.3252C3.13872 3.70312 2.95987 3.62905 2.82801 3.49718C2.69615 3.36532 2.62207 3.18648 2.62207 3C2.62207 2.81352 2.69615 2.63468 2.82801 2.50282C2.95987 2.37095 3.13872 2.29688 3.3252 2.29688H4.79379C5.44637 2.29762 6.072 2.55718 6.53344 3.01863C6.99489 3.48007 7.25445 4.1057 7.2552 4.75828V14.1014H20.6779C20.8643 14.1014 21.0432 14.1755 21.175 14.3073C21.3069 14.4392 21.381 14.6181 21.381 14.8045C21.381 14.991 21.3069 15.1699 21.175 15.3017C21.0432 15.4336 20.8643 15.5077 20.6779 15.5077Z" fill="#DBE2E6"/>
<path d="M19.3744 13.0448H8.92969C8.74321 13.0448 8.56436 12.9708 8.4325 12.8389C8.30064 12.707 8.22656 12.5282 8.22656 12.3417V8.60532C8.22656 8.41884 8.30064 8.23999 8.4325 8.10813C8.56436 7.97627 8.74321 7.90219 8.92969 7.90219H19.3744C19.5609 7.90219 19.7397 7.97627 19.8716 8.10813C20.0034 8.23999 20.0775 8.41884 20.0775 8.60532V12.3417C20.0775 12.5282 20.0034 12.707 19.8716 12.8389C19.7397 12.9708 19.5609 13.0448 19.3744 13.0448ZM9.63281 11.6386H18.6713V9.30844H9.63281V11.6386Z" fill="#DBE2E6"/>
<path d="M19.3744 9.30845H8.92969C8.74321 9.30845 8.56436 9.23437 8.4325 9.10251C8.30064 8.97065 8.22656 8.7918 8.22656 8.60532V4.86938C8.22656 4.6829 8.30064 4.50406 8.4325 4.3722C8.56436 4.24034 8.74321 4.16626 8.92969 4.16626H19.3744C19.5609 4.16626 19.7397 4.24034 19.8716 4.3722C20.0034 4.50406 20.0775 4.6829 20.0775 4.86938V8.60532C20.0775 8.7918 20.0034 8.97065 19.8716 9.10251C19.7397 9.23437 19.5609 9.30845 19.3744 9.30845ZM9.63281 7.9022H18.6713V5.57251H9.63281V7.9022Z" fill="#DBE2E6"/>
</svg>
