<svg width="24" height="24" viewBox="0 0 24 24" fill="none" xmlns="http://www.w3.org/2000/svg">
<path d="M14.5393 21.0938H4.78134C4.18694 21.093 3.61711 20.8566 3.1968 20.4363C2.7765 20.016 2.54005 19.4461 2.53931 18.8517V4.49203C2.54005 3.89764 2.7765 3.3278 3.1968 2.9075C3.61711 2.4872 4.18694 2.25074 4.78134 2.25H14.5393C15.1337 2.25074 15.7035 2.4872 16.1238 2.9075C16.5441 3.3278 16.7806 3.89764 16.7813 4.49203V18.8517C16.7806 19.4461 16.5441 20.016 16.1238 20.4363C15.7035 20.8566 15.1337 21.093 14.5393 21.0938ZM4.78134 3.65625C4.67146 3.65613 4.56263 3.67765 4.46107 3.71958C4.35951 3.76152 4.2672 3.82305 4.18941 3.90066C4.11163 3.97827 4.04989 4.07044 4.00773 4.1719C3.96557 4.27337 3.9438 4.38215 3.94368 4.49203V18.8517C3.9438 18.9616 3.96557 19.0704 4.00773 19.1718C4.04989 19.2733 4.11163 19.3655 4.18941 19.4431C4.2672 19.5207 4.35951 19.5822 4.46107 19.6242C4.56263 19.6661 4.67146 19.6876 4.78134 19.6875H14.5393C14.7609 19.6873 14.9733 19.5991 15.13 19.4424C15.2867 19.2857 15.3748 19.0733 15.3751 18.8517V4.49203C15.3748 4.27044 15.2867 4.058 15.13 3.90132C14.9733 3.74463 14.7609 3.6565 14.5393 3.65625H4.78134Z" fill="#DBE2E6"/>
<path d="M19.1283 17.4375H16.0781C15.8916 17.4375 15.7128 17.3634 15.5809 17.2316C15.4491 17.0997 15.375 16.9209 15.375 16.7344V5.29688C15.375 5.11039 15.4491 4.93155 15.5809 4.79969C15.7128 4.66783 15.8916 4.59375 16.0781 4.59375H19.1283C19.7256 4.59449 20.2983 4.83215 20.7206 5.25457C21.1429 5.677 21.3805 6.2497 21.3811 6.84703V15.1842C21.3805 15.7816 21.1429 16.3543 20.7206 16.7767C20.2983 17.1991 19.7256 17.4368 19.1283 17.4375ZM16.7812 16.0312H19.1283C19.3528 16.031 19.5681 15.9417 19.7268 15.7829C19.8855 15.624 19.9747 15.4087 19.9748 15.1842V6.84703C19.9747 6.6225 19.8855 6.4072 19.7268 6.24839C19.5681 6.08958 19.3528 6.00025 19.1283 6H16.7812V16.0312Z" fill="#DBE2E6"/>
<path d="M18.4219 9.5625C18.2354 9.5625 18.0566 9.48842 17.9247 9.35656C17.7928 9.2247 17.7188 9.04586 17.7188 8.85938V7.64062C17.7188 7.45414 17.7928 7.2753 17.9247 7.14344C18.0566 7.01158 18.2354 6.9375 18.4219 6.9375C18.6084 6.9375 18.7872 7.01158 18.9191 7.14344C19.0509 7.2753 19.125 7.45414 19.125 7.64062V8.85938C19.125 9.04586 19.0509 9.2247 18.9191 9.35656C18.7872 9.48842 18.6084 9.5625 18.4219 9.5625Z" fill="#DBE2E6"/>
<path d="M18.4219 12.9375C18.2354 12.9375 18.0566 12.8634 17.9247 12.7316C17.7928 12.5997 17.7188 12.4209 17.7188 12.2344V11.0156C17.7188 10.8291 17.7928 10.6503 17.9247 10.5184C18.0566 10.3866 18.2354 10.3125 18.4219 10.3125C18.6084 10.3125 18.7872 10.3866 18.9191 10.5184C19.0509 10.6503 19.125 10.8291 19.125 11.0156V12.2344C19.125 12.4209 19.0509 12.5997 18.9191 12.7316C18.7872 12.8634 18.6084 12.9375 18.4219 12.9375Z" fill="#DBE2E6"/>
<path d="M13.8784 9.79688H5.44092C5.25444 9.79688 5.0756 9.7228 4.94373 9.59093C4.81187 9.45907 4.73779 9.28023 4.73779 9.09375V5.34375C4.73779 5.15727 4.81187 4.97843 4.94373 4.84657C5.0756 4.7147 5.25444 4.64062 5.44092 4.64062H13.8784C14.0649 4.64062 14.2437 4.7147 14.3756 4.84657C14.5075 4.97843 14.5815 5.15727 14.5815 5.34375V9.09375C14.5815 9.28023 14.5075 9.45907 14.3756 9.59093C14.2437 9.7228 14.0649 9.79688 13.8784 9.79688ZM6.14404 8.39062H13.1753V6.04688H6.14404V8.39062Z" fill="#DBE2E6"/>
<path d="M6.56264 12.6436H5.44092C5.34858 12.6436 5.25715 12.6254 5.17184 12.5901C5.08654 12.5547 5.00902 12.5029 4.94373 12.4376C4.87844 12.3724 4.82665 12.2948 4.79132 12.2095C4.75598 12.1242 4.73779 12.0328 4.73779 11.9405C4.73779 11.8481 4.75598 11.7567 4.79132 11.6714C4.82665 11.5861 4.87844 11.5086 4.94373 11.4433C5.00902 11.378 5.08654 11.3262 5.17184 11.2909C5.25715 11.2555 5.34858 11.2373 5.44092 11.2373H6.56264C6.74912 11.2373 6.92796 11.3114 7.05982 11.4433C7.19168 11.5751 7.26576 11.754 7.26576 11.9405C7.26576 12.1269 7.19168 12.3058 7.05982 12.4376C6.92796 12.5695 6.74912 12.6436 6.56264 12.6436Z" fill="#DBE2E6"/>
<path d="M13.8783 12.6436H12.7561C12.6638 12.6436 12.5723 12.6254 12.487 12.5901C12.4017 12.5547 12.3242 12.5029 12.2589 12.4376C12.1936 12.3724 12.1418 12.2948 12.1065 12.2095C12.0712 12.1242 12.053 12.0328 12.053 11.9405C12.053 11.8481 12.0712 11.7567 12.1065 11.6714C12.1418 11.5861 12.1936 11.5086 12.2589 11.4433C12.3242 11.378 12.4017 11.3262 12.487 11.2909C12.5723 11.2555 12.6638 11.2373 12.7561 11.2373H13.8783C14.0648 11.2373 14.2436 11.3114 14.3755 11.4433C14.5073 11.5751 14.5814 11.754 14.5814 11.9405C14.5814 12.1269 14.5073 12.3058 14.3755 12.4376C14.2436 12.5695 14.0648 12.6436 13.8783 12.6436Z" fill="#DBE2E6"/>
<path d="M10.2189 12.6436H9.09863C9.0063 12.6436 8.91486 12.6254 8.82956 12.5901C8.74425 12.5547 8.66674 12.5029 8.60145 12.4376C8.53616 12.3724 8.48437 12.2948 8.44903 12.2095C8.41369 12.1242 8.39551 12.0328 8.39551 11.9405C8.39551 11.8481 8.41369 11.7567 8.44903 11.6714C8.48437 11.5861 8.53616 11.5086 8.60145 11.4433C8.66674 11.378 8.74425 11.3262 8.82956 11.2909C8.91486 11.2555 9.0063 11.2373 9.09863 11.2373H10.2189C10.4054 11.2373 10.5843 11.3114 10.7161 11.4433C10.848 11.5751 10.9221 11.754 10.9221 11.9405C10.9221 12.1269 10.848 12.3058 10.7161 12.4376C10.5843 12.5695 10.4054 12.6436 10.2189 12.6436Z" fill="#DBE2E6"/>
<path d="M6.56264 17.5439H5.44092C5.25444 17.5439 5.0756 17.4698 4.94373 17.338C4.81187 17.2061 4.73779 17.0273 4.73779 16.8408C4.73779 16.6543 4.81187 16.4755 4.94373 16.3436C5.0756 16.2117 5.25444 16.1377 5.44092 16.1377H6.56264C6.74912 16.1377 6.92796 16.2117 7.05982 16.3436C7.19168 16.4755 7.26576 16.6543 7.26576 16.8408C7.26576 17.0273 7.19168 17.2061 7.05982 17.338C6.92796 17.4698 6.74912 17.5439 6.56264 17.5439Z" fill="#DBE2E6"/>
<path d="M13.8783 17.5439H12.7561C12.5696 17.5439 12.3908 17.4698 12.2589 17.338C12.1271 17.2061 12.053 17.0273 12.053 16.8408C12.053 16.6543 12.1271 16.4755 12.2589 16.3436C12.3908 16.2117 12.5696 16.1377 12.7561 16.1377H13.8783C14.0648 16.1377 14.2436 16.2117 14.3755 16.3436C14.5073 16.4755 14.5814 16.6543 14.5814 16.8408C14.5814 17.0273 14.5073 17.2061 14.3755 17.338C14.2436 17.4698 14.0648 17.5439 13.8783 17.5439Z" fill="#DBE2E6"/>
<path d="M10.2189 17.5439H9.09863C8.91215 17.5439 8.73331 17.4698 8.60145 17.338C8.46959 17.2061 8.39551 17.0273 8.39551 16.8408C8.39551 16.6543 8.46959 16.4755 8.60145 16.3436C8.73331 16.2117 8.91215 16.1377 9.09863 16.1377H10.2189C10.4054 16.1377 10.5843 16.2117 10.7161 16.3436C10.848 16.4755 10.9221 16.6543 10.9221 16.8408C10.9221 17.0273 10.848 17.2061 10.7161 17.338C10.5843 17.4698 10.4054 17.5439 10.2189 17.5439Z" fill="#DBE2E6"/>
<path d="M6.56264 15.0938H5.44092C5.25444 15.0938 5.0756 15.0197 4.94373 14.8878C4.81187 14.7559 4.73779 14.5771 4.73779 14.3906C4.73779 14.2041 4.81187 14.0253 4.94373 13.8934C5.0756 13.7616 5.25444 13.6875 5.44092 13.6875H6.56264C6.74912 13.6875 6.92796 13.7616 7.05982 13.8934C7.19168 14.0253 7.26576 14.2041 7.26576 14.3906C7.26576 14.5771 7.19168 14.7559 7.05982 14.8878C6.92796 15.0197 6.74912 15.0938 6.56264 15.0938Z" fill="#DBE2E6"/>
<path d="M13.8783 15.0938H12.7561C12.5696 15.0938 12.3908 15.0197 12.2589 14.8878C12.1271 14.7559 12.053 14.5771 12.053 14.3906C12.053 14.2041 12.1271 14.0253 12.2589 13.8934C12.3908 13.7616 12.5696 13.6875 12.7561 13.6875H13.8783C14.0648 13.6875 14.2436 13.7616 14.3755 13.8934C14.5073 14.0253 14.5814 14.2041 14.5814 14.3906C14.5814 14.5771 14.5073 14.7559 14.3755 14.8878C14.2436 15.0197 14.0648 15.0938 13.8783 15.0938Z" fill="#DBE2E6"/>
<path d="M10.2189 15.0938H9.09863C8.91215 15.0938 8.73331 15.0197 8.60145 14.8878C8.46959 14.7559 8.39551 14.5771 8.39551 14.3906C8.39551 14.2041 8.46959 14.0253 8.60145 13.8934C8.73331 13.7616 8.91215 13.6875 9.09863 13.6875H10.2189C10.4054 13.6875 10.5843 13.7616 10.7161 13.8934C10.848 14.0253 10.9221 14.2041 10.9221 14.3906C10.9221 14.5771 10.848 14.7559 10.7161 14.8878C10.5843 15.0197 10.4054 15.0938 10.2189 15.0938Z" fill="#DBE2E6"/>
</svg>
