<svg width="24" height="24" viewBox="0 0 24 24" fill="none" xmlns="http://www.w3.org/2000/svg">
<path d="M12.0469 21.6309C6.70316 21.6309 2.35645 17.2837 2.35645 11.9405C2.35645 6.59719 6.70316 2.25 12.0469 2.25C17.3907 2.25 21.7374 6.59719 21.7374 11.9405C21.7374 17.2837 17.3907 21.6309 12.0469 21.6309ZM12.0469 3.65625C7.47895 3.65625 3.7627 7.3725 3.7627 11.9405C3.7627 16.5084 7.47895 20.2247 12.0469 20.2247C16.6149 20.2247 20.3311 16.5084 20.3311 11.9405C20.3311 7.3725 16.6149 3.65625 12.0469 3.65625Z" fill="#DBE2E6"/>
<path d="M21.0342 12.6436H12.0469C11.8604 12.6436 11.6816 12.5695 11.5497 12.4377C11.4178 12.3058 11.3438 12.1269 11.3438 11.9405V2.95313C11.3438 2.76664 11.4178 2.5878 11.5497 2.45594C11.6816 2.32408 11.8604 2.25 12.0469 2.25C12.2334 2.25 12.4122 2.32408 12.5441 2.45594C12.6759 2.5878 12.75 2.76664 12.75 2.95313V11.2373H21.0342C21.2207 11.2373 21.3995 11.3114 21.5314 11.4433C21.6633 11.5751 21.7373 11.754 21.7373 11.9405C21.7373 12.1269 21.6633 12.3058 21.5314 12.4377C21.3995 12.5695 21.2207 12.6436 21.0342 12.6436Z" fill="#DBE2E6"/>
<path d="M10.5469 21.5062C10.5073 21.5062 10.4678 21.5029 10.4288 21.4964C10.3377 21.481 10.2505 21.4478 10.1723 21.3987C10.094 21.3496 10.0262 21.2856 9.97269 21.2103C9.91919 21.135 9.88106 21.0499 9.86046 20.9598C9.83987 20.8698 9.83723 20.7765 9.85268 20.6855L11.3527 11.8233C11.3785 11.6702 11.4544 11.53 11.5683 11.4245C11.6822 11.319 11.8279 11.2542 11.9825 11.2401C12.1371 11.2261 12.292 11.2637 12.4231 11.3469C12.5541 11.4302 12.6539 11.5545 12.7069 11.7005L15.7744 20.1506C15.8381 20.3259 15.8295 20.5193 15.7505 20.6883C15.6716 20.8572 15.5288 20.9879 15.3535 21.0516C15.1782 21.1152 14.9848 21.1066 14.8158 21.0277C14.6469 20.9487 14.5162 20.8059 14.4525 20.6306L12.2963 14.685L11.2402 20.9194C11.2127 21.0834 11.128 21.2323 11.001 21.3398C10.8741 21.4472 10.7132 21.5062 10.5469 21.5062Z" fill="#DBE2E6"/>
</svg>
