<svg width="24" height="24" viewBox="0 0 24 24" fill="none" xmlns="http://www.w3.org/2000/svg">
<path d="M20.6781 9.15751H3.24058C3.08813 9.15753 2.93979 9.108 2.81793 9.01638C2.69607 8.92476 2.6073 8.79601 2.56498 8.64954C2.52266 8.50307 2.5291 8.34682 2.58332 8.20433C2.63754 8.06183 2.7366 7.94082 2.86558 7.85954L11.5843 2.35829C11.6966 2.2875 11.8266 2.24994 11.9593 2.24994C12.0921 2.24994 12.2221 2.2875 12.3343 2.35829L21.0531 7.85954C21.1821 7.94082 21.2811 8.06183 21.3353 8.20433C21.3896 8.34682 21.396 8.50307 21.3537 8.64954C21.3114 8.79601 21.2226 8.92476 21.1007 9.01638C20.9789 9.108 20.8305 9.15753 20.6781 9.15751ZM5.67199 7.75126H18.2462L11.9593 3.78469L5.67199 7.75126Z" fill="#DBE2E6"/>
<path d="M7.83814 18.2175H5.16626C4.97978 18.2175 4.80094 18.1434 4.66908 18.0116C4.53721 17.8797 4.46313 17.7009 4.46313 17.5144V8.45438C4.46313 8.2679 4.53721 8.08905 4.66908 7.95719C4.80094 7.82533 4.97978 7.75125 5.16626 7.75125H7.83814C8.02462 7.75125 8.20346 7.82533 8.33532 7.95719C8.46718 8.08905 8.54126 8.2679 8.54126 8.45438V17.5144C8.54126 17.7009 8.46718 17.8797 8.33532 18.0116C8.20346 18.1434 8.02462 18.2175 7.83814 18.2175ZM5.86938 16.8113H7.13501V9.1575H5.86938V16.8113Z" fill="#DBE2E6"/>
<path d="M13.2957 18.2175H10.6238C10.4373 18.2175 10.2585 18.1434 10.1266 18.0116C9.99473 17.8797 9.92065 17.7009 9.92065 17.5144V8.45438C9.92065 8.2679 9.99473 8.08905 10.1266 7.95719C10.2585 7.82533 10.4373 7.75125 10.6238 7.75125H13.2957C13.4821 7.75125 13.661 7.82533 13.7928 7.95719C13.9247 8.08905 13.9988 8.2679 13.9988 8.45438V17.5144C13.9988 17.7009 13.9247 17.8797 13.7928 18.0116C13.661 18.1434 13.4821 18.2175 13.2957 18.2175ZM11.3269 16.8113H12.5925V9.1575H11.3269V16.8113Z" fill="#DBE2E6"/>
<path d="M18.7529 18.2175H16.0811C15.8946 18.2175 15.7157 18.1434 15.5839 18.0116C15.452 17.8797 15.3779 17.7009 15.3779 17.5144V8.45438C15.3779 8.2679 15.452 8.08905 15.5839 7.95719C15.7157 7.82533 15.8946 7.75125 16.0811 7.75125H18.7529C18.9394 7.75125 19.1183 7.82533 19.2501 7.95719C19.382 8.08905 19.4561 8.2679 19.4561 8.45438V17.5144C19.4561 17.7009 19.382 17.8797 19.2501 18.0116C19.1183 18.1434 18.9394 18.2175 18.7529 18.2175ZM16.7842 16.8113H18.0498V9.1575H16.7842V16.8113Z" fill="#DBE2E6"/>
<path d="M20.678 21.0937H3.24048C3.054 21.0937 2.87516 21.0197 2.74329 20.8878C2.61143 20.7559 2.53735 20.5771 2.53735 20.3906V17.5144C2.53735 17.3279 2.61143 17.149 2.74329 17.0172C2.87516 16.8853 3.054 16.8112 3.24048 16.8112H20.678C20.8645 16.8112 21.0433 16.8853 21.1752 17.0172C21.307 17.149 21.3811 17.3279 21.3811 17.5144V20.3906C21.3811 20.5771 21.307 20.7559 21.1752 20.8878C21.0433 21.0197 20.8645 21.0937 20.678 21.0937ZM3.9436 19.6875H19.9749V18.2175H3.9436V19.6875Z" fill="#DBE2E6"/>
</svg>
