<svg width="24" height="24" viewBox="0 0 24 24" fill="none" xmlns="http://www.w3.org/2000/svg">
<path d="M10.2914 18.3684C6.01595 18.3684 2.53735 14.8898 2.53735 10.6144C2.53735 6.33891 6.01595 2.85938 10.2914 2.85938C14.5669 2.85938 18.0469 6.33891 18.0469 10.6144C18.0469 14.8898 14.5669 18.3684 10.2914 18.3684ZM10.2914 4.26656C6.79126 4.26562 3.9436 7.11422 3.9436 10.6144C3.9436 14.1145 6.79126 16.9622 10.2914 16.9622C13.7916 16.9622 16.6406 14.1145 16.6406 10.6144C16.6406 7.11422 13.7916 4.26562 10.2914 4.26562V4.26656Z" fill="#DBE2E6"/>
<path d="M10.2914 15.9741C9.23132 15.974 8.19513 15.6595 7.3138 15.0706C6.43246 14.4816 5.74557 13.6445 5.33998 12.6651C4.93439 11.6858 4.82832 10.6081 5.03517 9.56846C5.24203 8.52882 5.75253 7.57386 6.50211 6.82434C7.2517 6.07482 8.2067 5.5644 9.24637 5.35764C10.286 5.15087 11.3637 5.25704 12.343 5.66271C13.3223 6.06839 14.1594 6.75535 14.7483 7.63674C15.3372 8.51813 15.6515 9.55435 15.6515 10.6144C15.6499 12.0354 15.0846 13.3978 14.0797 14.4026C13.0749 15.4074 11.7124 15.9726 10.2914 15.9741ZM10.2914 6.66094C9.50945 6.66103 8.74514 6.89297 8.09507 7.32744C7.44499 7.7619 6.93834 8.37938 6.63918 9.10178C6.34003 9.82419 6.26181 10.6191 6.4144 11.3859C6.567 12.1528 6.94357 12.8572 7.49648 13.41C8.0494 13.9629 8.75383 14.3394 9.52071 14.4919C10.2876 14.6444 11.0825 14.5661 11.8048 14.2668C12.5272 13.9676 13.1446 13.4609 13.579 12.8107C14.0134 12.1606 14.2453 11.3963 14.2453 10.6144C14.2441 9.56612 13.8272 8.56112 13.0859 7.81994C12.3446 7.07875 11.3396 6.66193 10.2914 6.66094Z" fill="#DBE2E6"/>
<path d="M13.6276 18.3684H10.2915C10.105 18.3684 9.92618 18.2944 9.79432 18.1625C9.66246 18.0306 9.58838 17.8518 9.58838 17.6653C9.58838 17.4788 9.66246 17.3 9.79432 17.1681C9.92618 17.0363 10.105 16.9622 10.2915 16.9622H13.6276C17.1278 16.9622 19.9749 14.1145 19.9749 10.6144C19.9749 7.11422 17.1278 4.26562 13.6276 4.26562H10.2915C10.105 4.26562 9.92618 4.19155 9.79432 4.05968C9.66246 3.92782 9.58838 3.74898 9.58838 3.5625C9.58838 3.37602 9.66246 3.19718 9.79432 3.06532C9.92618 2.93345 10.105 2.85938 10.2915 2.85938H13.6276C17.9031 2.85938 21.3812 6.33797 21.3812 10.6134C21.3812 14.8889 17.9031 18.3684 13.6276 18.3684Z" fill="#DBE2E6"/>
<path d="M19.5053 7.42218H16.1692C15.9827 7.42218 15.8039 7.3481 15.672 7.21624C15.5401 7.08438 15.4661 6.90554 15.4661 6.71906C15.4661 6.53257 15.5401 6.35373 15.672 6.22187C15.8039 6.09001 15.9827 6.01593 16.1692 6.01593H19.5053C19.6918 6.01593 19.8706 6.09001 20.0025 6.22187C20.1343 6.35373 20.2084 6.53257 20.2084 6.71906C20.2084 6.90554 20.1343 7.08438 20.0025 7.21624C19.8706 7.3481 19.6918 7.42218 19.5053 7.42218Z" fill="#DBE2E6"/>
<path d="M19.0668 15.8044H15.7307C15.5442 15.8044 15.3654 15.7303 15.2335 15.5984C15.1017 15.4666 15.0276 15.2877 15.0276 15.1013C15.0276 14.9148 15.1017 14.7359 15.2335 14.6041C15.3654 14.4722 15.5442 14.3981 15.7307 14.3981H19.0668C19.2533 14.3981 19.4321 14.4722 19.564 14.6041C19.6959 14.7359 19.7699 14.9148 19.7699 15.1013C19.7699 15.2877 19.6959 15.4666 19.564 15.5984C19.4321 15.7303 19.2533 15.8044 19.0668 15.8044Z" fill="#DBE2E6"/>
<path d="M20.4735 13.0102H17.1375C16.951 13.0102 16.7721 12.9361 16.6403 12.8042C16.5084 12.6724 16.4343 12.4935 16.4343 12.307C16.4343 12.1206 16.5084 11.9417 16.6403 11.8099C16.7721 11.678 16.951 11.6039 17.1375 11.6039H20.4735C20.66 11.6039 20.8389 11.678 20.9707 11.8099C21.1026 11.9417 21.1767 12.1206 21.1767 12.307C21.1767 12.4935 21.1026 12.6724 20.9707 12.8042C20.8389 12.9361 20.66 13.0102 20.4735 13.0102Z" fill="#DBE2E6"/>
<path d="M20.5922 10.2188H17.2561C17.0696 10.2188 16.8908 10.1447 16.7589 10.0128C16.6271 9.88095 16.553 9.70211 16.553 9.51562C16.553 9.32914 16.6271 9.1503 16.7589 9.01844C16.8908 8.88658 17.0696 8.8125 17.2561 8.8125H20.5922C20.7787 8.8125 20.9575 8.88658 21.0894 9.01844C21.2212 9.1503 21.2953 9.32914 21.2953 9.51562C21.2953 9.70211 21.2212 9.88095 21.0894 10.0128C20.9575 10.1447 20.7787 10.2188 20.5922 10.2188Z" fill="#DBE2E6"/>
<path d="M10.3158 13.5361C10.1293 13.5361 9.95046 13.462 9.8186 13.3302C9.68674 13.1983 9.61266 13.0194 9.61266 12.833V10.4939L9.41344 10.7283C9.35327 10.7985 9.27985 10.8562 9.19738 10.8981C9.11491 10.9399 9.025 10.9652 8.93279 10.9723C8.84057 10.9794 8.74786 10.9683 8.65995 10.9396C8.57203 10.9108 8.49063 10.8651 8.42039 10.8049C8.27854 10.6834 8.19078 10.5105 8.1764 10.3243C8.16929 10.2321 8.1804 10.1393 8.20912 10.0514C8.23783 9.96351 8.28358 9.88211 8.34375 9.81188L9.78 8.13516C9.87349 8.02606 9.99815 7.94823 10.1372 7.91212C10.2763 7.87602 10.4231 7.88338 10.5578 7.93321C10.6926 7.98305 10.8088 8.07297 10.8909 8.19087C10.973 8.30877 11.017 8.44899 11.017 8.59266V12.833C11.017 13.0191 10.9432 13.1977 10.8118 13.3295C10.6803 13.4613 10.5019 13.5356 10.3158 13.5361Z" fill="#DBE2E6"/>
</svg>
