<svg width="24" height="24" viewBox="0 0 24 24" fill="none" xmlns="http://www.w3.org/2000/svg">
<path d="M10.8503 15.4289C10.3259 15.4291 9.81329 15.2737 9.37725 14.9825C8.94121 14.6912 8.60133 14.2772 8.40062 13.7928C8.1999 13.3084 8.14737 12.7753 8.24966 12.261C8.35195 11.7467 8.60447 11.2743 8.97527 10.9036C9.04059 10.8383 9.11812 10.7865 9.20346 10.7511C9.28879 10.7158 9.38025 10.6976 9.47262 10.6976C9.56498 10.6976 9.65644 10.7158 9.74178 10.7511C9.82711 10.7865 9.90465 10.8383 9.96996 10.9036C10.0353 10.9689 10.0871 11.0464 10.1224 11.1318C10.1578 11.2171 10.176 11.3086 10.176 11.4009C10.176 11.4933 10.1578 11.5848 10.1224 11.6701C10.0871 11.7554 10.0353 11.833 9.96996 11.8983C9.79586 12.0723 9.67728 12.2941 9.62922 12.5355C9.58116 12.7769 9.60578 13.0272 9.69996 13.2546C9.79414 13.4821 9.95366 13.6765 10.1583 13.8132C10.363 13.95 10.6036 14.023 10.8498 14.023C11.096 14.023 11.3366 13.95 11.5413 13.8132C11.746 13.6765 11.9055 13.4821 11.9996 13.2546C12.0938 13.0272 12.1184 12.7769 12.0704 12.5355C12.0223 12.2941 11.9037 12.0723 11.7296 11.8983C11.3591 11.5275 11.1068 11.0552 11.0047 10.541C10.9025 10.0269 10.9551 9.49397 11.1558 9.0097C11.3565 8.52544 11.6963 8.11154 12.1321 7.82035C12.568 7.52916 13.0804 7.37373 13.6046 7.37373C14.1288 7.37373 14.6413 7.52916 15.0772 7.82035C15.513 8.11154 15.8528 8.52544 16.0535 9.0097C16.2542 9.49397 16.3068 10.0269 16.2046 10.541C16.1025 11.0552 15.8502 11.5275 15.4796 11.8983C15.4143 11.9636 15.3368 12.0155 15.2514 12.0508C15.1661 12.0862 15.0746 12.1044 14.9822 12.1045C14.8898 12.1045 14.7984 12.0863 14.713 12.051C14.6276 12.0156 14.5501 11.9638 14.4847 11.8985C14.4194 11.8332 14.3675 11.7557 14.3322 11.6703C14.2968 11.585 14.2786 11.4935 14.2786 11.4011C14.2785 11.3087 14.2967 11.2172 14.332 11.1319C14.3674 11.0465 14.4192 10.9689 14.4845 10.9036C14.6587 10.7295 14.7773 10.5077 14.8254 10.2661C14.8735 10.0246 14.8489 9.77425 14.7547 9.54672C14.6605 9.31918 14.5009 9.12469 14.2962 8.98785C14.0914 8.85102 13.8507 8.77798 13.6044 8.77798C13.3581 8.77798 13.1174 8.85102 12.9127 8.98785C12.7079 9.12469 12.5483 9.31918 12.4541 9.54672C12.3599 9.77425 12.3353 10.0246 12.3834 10.2661C12.4315 10.5077 12.5501 10.7295 12.7243 10.9036C13.0951 11.2743 13.3477 11.7467 13.45 12.261C13.5522 12.7753 13.4997 13.3084 13.299 13.7928C13.0983 14.2772 12.7584 14.6912 12.3224 14.9825C11.8863 15.2737 11.3737 15.4291 10.8493 15.4289H10.8503Z" fill="#DBE2E6"/>
<path d="M8.81257 15.5199C8.67346 15.5199 8.53746 15.4787 8.42177 15.4015C8.30609 15.3242 8.21592 15.2144 8.16267 15.0858C8.10943 14.9573 8.0955 14.8159 8.12266 14.6795C8.14982 14.543 8.21683 14.4177 8.31523 14.3194L15.1459 7.48829C15.2779 7.35645 15.457 7.28248 15.6436 7.28265C15.8303 7.28283 16.0092 7.35714 16.141 7.48923C16.2729 7.62132 16.3468 7.80037 16.3466 7.987C16.3465 8.17363 16.2722 8.35254 16.1401 8.48438L9.30898 15.3136C9.17736 15.4454 8.99883 15.5196 8.81257 15.5199Z" fill="#DBE2E6"/>
<path d="M10.6656 21.0909C10.5732 21.0909 10.4817 21.0727 10.3964 21.0373C10.3111 21.0019 10.2335 20.9501 10.1682 20.8847L2.74371 13.4602C2.61189 13.3283 2.53784 13.1495 2.53784 12.963C2.53784 12.7766 2.61189 12.5978 2.74371 12.4659L12.7534 2.45578C12.822 2.38711 12.904 2.33337 12.9944 2.29796C13.0847 2.26254 13.1814 2.24621 13.2784 2.25L20.4203 2.53125C20.5971 2.53857 20.7647 2.61233 20.8896 2.7378C21.0145 2.86327 21.0874 3.03123 21.0939 3.20813L21.3751 10.35C21.379 10.4469 21.3627 10.5436 21.3274 10.634C21.292 10.7243 21.2384 10.8064 21.1698 10.875L11.1625 20.8847C11.0973 20.9501 11.0199 21.002 10.9346 21.0374C10.8493 21.0728 10.7579 21.091 10.6656 21.0909ZM4.23527 12.9633L10.6656 19.3931L19.9604 10.0983L19.7157 3.91313L13.5282 3.66797L4.23527 12.9633Z" fill="#DBE2E6"/>
<path d="M18.0288 6.30329C18.0056 6.30321 17.9824 6.30195 17.9594 6.29954C17.9364 6.29728 17.9136 6.29384 17.891 6.28922C17.8685 6.28493 17.8462 6.27929 17.8244 6.27235C17.8024 6.26579 17.7808 6.25782 17.7597 6.24938C17.7386 6.24094 17.7175 6.23063 17.6974 6.21985C17.6771 6.20914 17.6574 6.19741 17.6383 6.18469C17.619 6.17189 17.6004 6.15813 17.5825 6.14344C17.5469 6.11446 17.514 6.08213 17.4846 6.04688C17.4699 6.029 17.4561 6.01038 17.4433 5.9911C17.4306 5.97202 17.4189 5.95231 17.4081 5.93204C17.3974 5.91188 17.3875 5.89126 17.3786 5.86969C17.3697 5.84813 17.3622 5.82704 17.3556 5.80501C17.3486 5.7832 17.343 5.76097 17.3388 5.73844C17.3342 5.71582 17.3307 5.69298 17.3285 5.67001C17.326 5.64712 17.3248 5.62412 17.3247 5.6011C17.3248 5.57793 17.326 5.55477 17.3285 5.53172C17.3307 5.50891 17.3342 5.48622 17.3388 5.46376C17.343 5.44109 17.3487 5.4187 17.3556 5.39672C17.3622 5.37516 17.3702 5.35313 17.3786 5.33204C17.3871 5.31094 17.3974 5.28985 17.4081 5.26969C17.4189 5.24954 17.4306 5.22985 17.4433 5.21063C17.456 5.19174 17.4698 5.17359 17.4846 5.15626C17.4993 5.13829 17.5149 5.12108 17.5314 5.10469C17.5475 5.0881 17.5646 5.07245 17.5825 5.05782C17.6185 5.02901 17.6569 5.00344 17.6974 4.98141C17.7381 4.96019 17.7806 4.94262 17.8244 4.92891C17.8464 4.92235 17.8689 4.91672 17.891 4.91204C17.913 4.90735 17.9378 4.90407 17.9594 4.90172C18.0054 4.89704 18.0517 4.89704 18.0977 4.90172C18.1202 4.90172 18.1446 4.90782 18.1656 4.91204C18.1867 4.91626 18.2125 4.92235 18.2327 4.92891C18.2765 4.94262 18.319 4.96019 18.3597 4.98141C18.3799 4.99219 18.3996 5.00438 18.4188 5.01704C18.4571 5.04255 18.4929 5.07175 18.5256 5.10422C18.5421 5.12061 18.5578 5.13782 18.5725 5.15579C18.5872 5.17343 18.6008 5.1919 18.6133 5.2111C18.626 5.23032 18.6381 5.25001 18.6489 5.27016C18.6597 5.2904 18.6695 5.31121 18.678 5.33251C18.6869 5.35365 18.6947 5.37524 18.7014 5.39719C18.708 5.41922 18.7136 5.44407 18.7183 5.46422C18.7229 5.48669 18.7263 5.50938 18.7286 5.53219C18.731 5.55524 18.7323 5.5784 18.7324 5.60157C18.7323 5.62459 18.731 5.64758 18.7286 5.67047C18.7264 5.69345 18.7229 5.71629 18.7183 5.73891C18.7136 5.76141 18.708 5.78579 18.7014 5.80547C18.6948 5.82745 18.687 5.84905 18.678 5.87016C18.6695 5.8915 18.6598 5.91232 18.6489 5.93251C18.6267 5.97282 18.601 6.0111 18.5721 6.04688C18.5574 6.0648 18.5418 6.08186 18.5252 6.09797C18.4923 6.13042 18.4565 6.15976 18.4183 6.18563C18.3989 6.19844 18.3792 6.21016 18.3592 6.22079C18.3391 6.23157 18.318 6.24141 18.2969 6.25032C18.2758 6.25922 18.2542 6.26672 18.2322 6.27329C18.2102 6.28028 18.1878 6.28592 18.1652 6.29016C18.1427 6.29478 18.12 6.29822 18.0972 6.30047C18.0745 6.30255 18.0516 6.30349 18.0288 6.30329Z" fill="#DBE2E6"/>
</svg>
