<svg width="24" height="24" viewBox="0 0 24 24" fill="none" xmlns="http://www.w3.org/2000/svg">
<path d="M8.20923 8.56781C6.89673 8.56781 5.64751 8.28188 4.69829 7.7625C3.61454 7.17188 3.01782 6.33375 3.01782 5.40891C3.01782 4.48406 3.61454 3.64828 4.69829 3.05578C5.64751 2.53594 6.89439 2.25 8.20923 2.25C9.52407 2.25 10.7714 2.53594 11.7188 3.05578C12.8025 3.64828 13.3988 4.48406 13.3988 5.40891C13.3988 6.33375 12.8044 7.17188 11.7188 7.7625C10.7714 8.28188 9.52407 8.56781 8.20923 8.56781ZM8.20923 3.65625C7.14235 3.65625 6.10829 3.88688 5.37329 4.28906C4.77001 4.61719 4.42407 5.02734 4.42407 5.40891C4.42407 5.79047 4.77001 6.19875 5.37329 6.52875C6.10829 6.93094 7.14235 7.16156 8.20923 7.16156C9.2761 7.16156 10.3106 6.93094 11.0456 6.52875C11.6489 6.20062 11.9944 5.79047 11.9944 5.40891C11.9944 5.02734 11.6489 4.61906 11.0456 4.28906C10.3125 3.88688 9.27657 3.65625 8.20923 3.65625Z" fill="#DBE2E6"/>
<path d="M19.2878 11.7244C19.1442 11.7245 19.0041 11.6807 18.8861 11.5989C18.7682 11.517 18.6782 11.401 18.6281 11.2665C18.578 11.1319 18.5704 10.9853 18.6061 10.8463C18.6418 10.7073 18.7192 10.5825 18.8279 10.4887C19.0332 10.312 19.2775 10.0336 19.2775 9.71062C19.2775 8.88327 17.6589 7.95796 15.4923 7.95796C14.574 7.95796 13.6815 8.12671 12.9789 8.43374C12.8079 8.50834 12.6143 8.51197 12.4407 8.44384C12.2671 8.37571 12.1277 8.2414 12.0531 8.07046C11.9785 7.89952 11.9749 7.70595 12.043 7.53233C12.1111 7.35872 12.2454 7.21927 12.4164 7.14468C13.3046 6.75702 14.3687 6.55171 15.4923 6.55171C16.8071 6.55171 18.054 6.83765 19.0032 7.35702C20.087 7.94999 20.6837 8.78577 20.6837 9.71062C20.6837 10.3875 20.3598 11.0231 19.7462 11.5537C19.6187 11.6637 19.4561 11.7242 19.2878 11.7244Z" fill="#DBE2E6"/>
<path d="M8.20923 17.4755C6.89673 17.4755 5.64751 17.1895 4.69782 16.6697C3.61454 16.0781 3.01782 15.2414 3.01782 14.3166V5.41031C3.01782 5.22383 3.0919 5.04499 3.22376 4.91312C3.35562 4.78126 3.53447 4.70718 3.72095 4.70718C3.90743 4.70718 4.08627 4.78126 4.21813 4.91312C4.34999 5.04499 4.42407 5.22383 4.42407 5.41031V14.3166C4.42407 14.6981 4.77001 15.1059 5.37282 15.4359C6.10829 15.8386 7.14189 16.0692 8.20923 16.0692C8.91945 16.0744 9.62606 15.9678 10.3031 15.7533C10.4091 15.7181 10.5103 15.6811 10.6036 15.6436C10.7755 15.578 10.9663 15.5824 11.135 15.6559C11.3037 15.7293 11.4369 15.866 11.506 16.0366C11.575 16.2071 11.5745 16.3979 11.5045 16.5681C11.4345 16.7383 11.3005 16.8742 11.1314 16.9467C11.0095 16.9964 10.8788 17.0442 10.7433 17.0873C9.92419 17.3488 9.06905 17.4798 8.20923 17.4755Z" fill="#DBE2E6"/>
<path d="M12.6975 11.2312C12.511 11.2312 12.3322 11.1572 12.2003 11.0253C12.0685 10.8934 11.9944 10.7146 11.9944 10.5281V5.40891C11.9944 5.22242 12.0685 5.04358 12.2003 4.91172C12.3322 4.77986 12.511 4.70578 12.6975 4.70578C12.884 4.70578 13.0628 4.77986 13.1947 4.91172C13.3266 5.04358 13.4006 5.22242 13.4006 5.40891V10.5281C13.4006 10.7146 13.3266 10.8934 13.1947 11.0253C13.0628 11.1572 12.884 11.2312 12.6975 11.2312Z" fill="#DBE2E6"/>
<path d="M8.20923 15.1959C6.89673 15.1959 5.64751 14.91 4.69782 14.3902C3.61454 13.7972 3.01782 12.9619 3.01782 12.037C3.01782 11.8506 3.0919 11.6717 3.22376 11.5398C3.35562 11.408 3.53447 11.3339 3.72095 11.3339C3.90743 11.3339 4.08627 11.408 4.21813 11.5398C4.34999 11.6717 4.42407 11.8506 4.42407 12.037C4.42407 12.8644 6.04267 13.7897 8.20923 13.7897C8.91942 13.7949 9.62602 13.6885 10.3031 13.4742C10.4541 13.4241 10.598 13.3692 10.7297 13.3111C10.8146 13.2709 10.9067 13.2482 11.0005 13.2442C11.0943 13.2402 11.188 13.255 11.276 13.2878C11.364 13.3206 11.4445 13.3707 11.5128 13.4352C11.5811 13.4996 11.6359 13.5771 11.6738 13.663C11.7116 13.7489 11.7319 13.8416 11.7334 13.9355C11.7349 14.0294 11.7176 14.1226 11.6825 14.2097C11.6474 14.2968 11.5951 14.376 11.5289 14.4425C11.4627 14.5091 11.3838 14.5618 11.2969 14.5973C11.1244 14.6738 10.9388 14.745 10.7447 14.8092C9.9251 15.0705 9.06945 15.201 8.20923 15.1959Z" fill="#DBE2E6"/>
<path d="M8.20923 12.9164C6.89673 12.9164 5.64751 12.6305 4.69782 12.1106C3.61454 11.5177 3.01782 10.6824 3.01782 9.75751C3.01782 9.57103 3.0919 9.39218 3.22376 9.26032C3.35562 9.12846 3.53447 9.05438 3.72095 9.05438C3.90743 9.05438 4.08627 9.12846 4.21813 9.26032C4.34999 9.39218 4.42407 9.57103 4.42407 9.75751C4.42407 10.5849 6.04267 11.5102 8.20923 11.5102C9.10314 11.5102 9.94595 11.3569 10.6467 11.0672C10.732 11.0319 10.8235 11.0137 10.9158 11.0137C11.0082 11.0137 11.0996 11.0319 11.1849 11.0672C11.2702 11.1026 11.3478 11.1544 11.4131 11.2197C11.4784 11.285 11.5301 11.3625 11.5655 11.4478C11.6008 11.5331 11.619 11.6246 11.619 11.7169C11.619 11.8093 11.6008 11.9007 11.5654 11.986C11.5301 12.0713 11.4783 12.1489 11.413 12.2141C11.3477 12.2794 11.2702 12.3312 11.1849 12.3666C10.3149 12.7261 9.28642 12.9164 8.20923 12.9164Z" fill="#DBE2E6"/>
<path d="M12.3899 11.3555C12.2607 11.3554 12.1341 11.3198 12.0238 11.2525C11.9135 11.1852 11.824 11.0888 11.7649 10.9739C11.7058 10.8591 11.6795 10.7301 11.6889 10.6013C11.6982 10.4725 11.7429 10.3487 11.818 10.2436C11.9265 10.1042 11.9882 9.93406 11.9943 9.75751C11.9943 9.57103 12.0684 9.39218 12.2002 9.26032C12.3321 9.12846 12.5109 9.05438 12.6974 9.05438C12.8839 9.05438 13.0627 9.12846 13.1946 9.26032C13.3264 9.39218 13.4005 9.57103 13.4005 9.75751C13.4005 10.2155 13.2533 10.6542 12.9627 11.0611C12.8976 11.1523 12.8116 11.2265 12.712 11.2777C12.6124 11.3289 12.5019 11.3556 12.3899 11.3555Z" fill="#DBE2E6"/>
<path d="M8.20923 10.6369C6.89673 10.6369 5.64751 10.3509 4.69829 9.83109C3.61454 9.23812 3.01782 8.40234 3.01782 7.47797C3.01782 7.29149 3.0919 7.11264 3.22376 6.98078C3.35562 6.84892 3.53447 6.77484 3.72095 6.77484C3.90743 6.77484 4.08627 6.84892 4.21813 6.98078C4.34999 7.11264 4.42407 7.29149 4.42407 7.47797C4.42407 7.85953 4.77001 8.26734 5.37329 8.59734C6.10829 9 7.14235 9.23062 8.20923 9.23062C9.2761 9.23062 10.3125 9 11.0456 8.59734C11.6489 8.26922 11.9944 7.85953 11.9944 7.47797C11.9944 7.29149 12.0685 7.11264 12.2003 6.98078C12.3322 6.84892 12.511 6.77484 12.6975 6.77484C12.884 6.77484 13.0628 6.84892 13.1947 6.98078C13.3266 7.11264 13.4006 7.29149 13.4006 7.47797C13.4006 8.40234 12.8044 9.23812 11.7206 9.83109C10.7714 10.3509 9.52407 10.6369 8.20923 10.6369Z" fill="#DBE2E6"/>
<path d="M15.4922 16.1977C14.0489 16.1977 12.6797 15.8841 11.6409 15.315C10.4667 14.6728 9.82031 13.7709 9.82031 12.7758C9.82031 11.7806 10.4667 10.8792 11.6409 10.2366C12.6816 9.66751 14.0489 9.35391 15.4922 9.35391C16.9355 9.35391 18.3047 9.66751 19.343 10.2366C20.5172 10.8792 21.1641 11.7834 21.1641 12.7758C21.1641 13.7681 20.5172 14.6719 19.343 15.315C18.3028 15.8841 16.9355 16.1977 15.4922 16.1977ZM15.4922 10.7602C14.2983 10.7602 13.1409 11.0189 12.3164 11.4703C11.6236 11.8491 11.2266 12.3248 11.2266 12.7758C11.2266 13.2267 11.6236 13.7025 12.3164 14.0813C13.1409 14.5313 14.2969 14.7914 15.4922 14.7914C16.6875 14.7914 17.8434 14.5327 18.668 14.0813C19.3608 13.7025 19.7578 13.2267 19.7578 12.7758C19.7578 12.3248 19.3594 11.8491 18.668 11.4703C17.8434 11.0189 16.6875 10.7602 15.4922 10.7602Z" fill="#DBE2E6"/>
<path d="M15.4922 21.2447C14.0489 21.2447 12.6797 20.9316 11.6409 20.362C10.4667 19.7199 9.82031 18.818 9.82031 17.8228V12.7758C9.82031 12.5893 9.89439 12.4105 10.0263 12.2786C10.1581 12.1467 10.337 12.0727 10.5234 12.0727C10.7099 12.0727 10.8888 12.1467 11.0206 12.2786C11.1525 12.4105 11.2266 12.5893 11.2266 12.7758V17.8228C11.2266 18.2738 11.6236 18.7495 12.3164 19.1288C13.1409 19.5797 14.2983 19.8384 15.4922 19.8384C16.6861 19.8384 17.8434 19.5797 18.668 19.1288C19.3594 18.75 19.7578 18.2738 19.7578 17.8228V12.7758C19.7578 12.5893 19.8319 12.4105 19.9638 12.2786C20.0956 12.1467 20.2745 12.0727 20.4609 12.0727C20.6474 12.0727 20.8263 12.1467 20.9581 12.2786C21.09 12.4105 21.1641 12.5893 21.1641 12.7758V17.8228C21.1641 18.818 20.5172 19.7199 19.343 20.362C18.3028 20.9316 16.9355 21.2447 15.4922 21.2447Z" fill="#DBE2E6"/>
<path d="M15.4922 18.7214C14.0489 18.7214 12.6797 18.4078 11.6409 17.8387C10.4667 17.1961 9.82031 16.2942 9.82031 15.2995C9.82031 15.113 9.89439 14.9342 10.0263 14.8023C10.1581 14.6705 10.337 14.5964 10.5234 14.5964C10.7099 14.5964 10.8888 14.6705 11.0206 14.8023C11.1525 14.9342 11.2266 15.113 11.2266 15.2995C11.2266 15.75 11.6236 16.2262 12.3164 16.605C13.1409 17.0564 14.2983 17.3152 15.4922 17.3152C16.6861 17.3152 17.8434 17.0564 18.668 16.605C19.3594 16.2262 19.7578 15.75 19.7578 15.2995C19.7578 15.113 19.8319 14.9342 19.9638 14.8023C20.0956 14.6705 20.2745 14.5964 20.4609 14.5964C20.6474 14.5964 20.8263 14.6705 20.9581 14.8023C21.09 14.9342 21.1641 15.113 21.1641 15.2995C21.1641 16.2942 20.5172 17.1961 19.343 17.8387C18.3028 18.4078 16.9355 18.7214 15.4922 18.7214Z" fill="#DBE2E6"/>
<path d="M19.9805 12.383C19.794 12.383 19.6151 12.3089 19.4833 12.177C19.3514 12.0452 19.2773 11.8663 19.2773 11.6798V9.71109C19.2773 9.52461 19.3514 9.34577 19.4833 9.21391C19.6151 9.08204 19.794 9.00797 19.9805 9.00797C20.1669 9.00797 20.3458 9.08204 20.4777 9.21391C20.6095 9.34577 20.6836 9.52461 20.6836 9.71109V11.6798C20.6836 11.8663 20.6095 12.0452 20.4777 12.177C20.3458 12.3089 20.1669 12.383 19.9805 12.383Z" fill="#DBE2E6"/>
</svg>
