<svg width="24" height="24" viewBox="0 0 24 24" fill="none" xmlns="http://www.w3.org/2000/svg">
<path d="M11.7515 17.5645C11.6423 17.5645 11.5347 17.5391 11.4371 17.4903C11.3394 17.4415 11.2545 17.3706 11.189 17.2833L9.39698 14.8927C9.28509 14.7435 9.23704 14.5559 9.26342 14.3713C9.28979 14.1867 9.38842 14.0202 9.5376 13.9083C9.68678 13.7964 9.87431 13.7483 10.0589 13.7747C10.2435 13.8011 10.4101 13.8997 10.522 14.0489L11.7257 15.6562L14.3287 11.857C14.4344 11.7032 14.5968 11.5976 14.7803 11.5636C14.9638 11.5295 15.1534 11.5697 15.3072 11.6754C15.4611 11.7811 15.5666 11.9435 15.6007 12.127C15.6348 12.3105 15.5945 12.5001 15.4889 12.6539L12.3314 17.2617C12.2685 17.3535 12.1847 17.4291 12.0869 17.4823C11.9891 17.5354 11.8801 17.5645 11.7689 17.5673L11.7515 17.5645Z" fill="#DBE2E6"/>
<path d="M18.6313 21.0937H5.45947C5.27299 21.0937 5.09415 21.0197 4.96229 20.8878C4.83043 20.7559 4.75635 20.5771 4.75635 20.3906V7.69499C4.75635 7.50851 4.83043 7.32967 4.96229 7.19781C5.09415 7.06595 5.27299 6.99187 5.45947 6.99187H18.6313C18.8178 6.99187 18.9967 7.06595 19.1285 7.19781C19.2604 7.32967 19.3345 7.50851 19.3345 7.69499V20.3906C19.3345 20.5771 19.2604 20.7559 19.1285 20.8878C18.9967 21.0197 18.8178 21.0937 18.6313 21.0937ZM6.1626 19.6875H17.9282V8.39812H6.16494L6.1626 19.6875Z" fill="#DBE2E6"/>
<path d="M14.4951 10.2319C14.3086 10.2319 14.1297 10.1578 13.9979 10.0259C13.866 9.89407 13.7919 9.71523 13.7919 9.52875V5.32406C13.7956 5.10272 13.7553 4.88285 13.6731 4.67728C13.591 4.47171 13.4687 4.28454 13.3135 4.1267C13.1583 3.96886 12.9732 3.8435 12.7691 3.75793C12.5649 3.67236 12.3457 3.62829 12.1244 3.62829C11.903 3.62829 11.6838 3.67236 11.4797 3.75793C11.2755 3.8435 11.0904 3.96886 10.9352 4.1267C10.78 4.28454 10.6577 4.47171 10.5756 4.67728C10.4935 4.88285 10.4531 5.10272 10.4568 5.32406V9.52875C10.4568 9.71523 10.3827 9.89407 10.2508 10.0259C10.119 10.1578 9.94013 10.2319 9.75365 10.2319C9.56717 10.2319 9.38833 10.1578 9.25647 10.0259C9.12461 9.89407 9.05053 9.71523 9.05053 9.52875V5.32406C9.0455 4.9172 9.1213 4.5134 9.27352 4.13606C9.42574 3.75872 9.65136 3.41535 9.93729 3.12587C10.2232 2.83639 10.5638 2.60655 10.9392 2.44968C11.3146 2.29281 11.7175 2.21204 12.1244 2.21204C12.5312 2.21204 12.9341 2.29281 13.3095 2.44968C13.6849 2.60655 14.0255 2.83639 14.3114 3.12587C14.5974 3.41535 14.823 3.75872 14.9752 4.13606C15.1274 4.5134 15.2032 4.9172 15.1982 5.32406V9.52875C15.1982 9.71523 15.1241 9.89407 14.9922 10.0259C14.8604 10.1578 14.6815 10.2319 14.4951 10.2319Z" fill="#DBE2E6"/>
</svg>
