<svg width="24" height="24" viewBox="0 0 24 24" fill="none" xmlns="http://www.w3.org/2000/svg">
<path d="M9.01271 11.3695C8.47156 11.3695 7.94256 11.2091 7.49261 10.9084C7.04267 10.6078 6.69197 10.1804 6.48489 9.68049C6.2778 9.18054 6.22361 8.6304 6.32919 8.09965C6.43476 7.5689 6.69535 7.08137 7.078 6.69872C7.46065 6.31607 7.94817 6.05549 8.47892 5.94991C9.00967 5.84434 9.55981 5.89852 10.0598 6.10561C10.5597 6.3127 10.987 6.66339 11.2877 7.11334C11.5883 7.56329 11.7488 8.09229 11.7488 8.63343C11.7481 9.35886 11.4596 10.0544 10.9466 10.5673C10.4336 11.0803 9.73814 11.3688 9.01271 11.3695ZM9.01271 7.30359C8.74969 7.30359 8.49258 7.38158 8.27388 7.52771C8.05519 7.67383 7.88474 7.88153 7.78409 8.12452C7.68344 8.36752 7.6571 8.63491 7.70841 8.89287C7.75973 9.15084 7.88638 9.38779 8.07236 9.57378C8.25835 9.75976 8.4953 9.88641 8.75327 9.93773C9.01123 9.98904 9.27862 9.9627 9.52162 9.86205C9.76461 9.7614 9.97231 9.59095 10.1184 9.37226C10.2646 9.15356 10.3426 8.89645 10.3426 8.63343C10.3422 8.28085 10.202 7.94282 9.95264 7.6935C9.70332 7.44419 9.36529 7.30396 9.01271 7.30359Z" fill="#DBE2E6"/>
<path d="M15.0894 17.4464C14.5482 17.4464 14.0192 17.2859 13.5693 16.9853C13.1193 16.6846 12.7686 16.2573 12.5615 15.7574C12.3545 15.2574 12.3003 14.7073 12.4058 14.1765C12.5114 13.6458 12.772 13.1582 13.1547 12.7756C13.5373 12.3929 14.0248 12.1324 14.5556 12.0268C15.0863 11.9212 15.6365 11.9754 16.1364 12.1825C16.6364 12.3896 17.0637 12.7403 17.3643 13.1902C17.665 13.6402 17.8255 14.1692 17.8255 14.7103C17.8245 15.4357 17.5359 16.131 17.023 16.6439C16.5101 17.1568 15.8147 17.4454 15.0894 17.4464ZM15.0894 13.3805C14.8263 13.3805 14.5692 13.4585 14.3505 13.6046C14.1319 13.7507 13.9614 13.9584 13.8608 14.2014C13.7601 14.4444 13.7338 14.7118 13.7851 14.9697C13.8364 15.2277 13.963 15.4647 14.149 15.6506C14.335 15.8366 14.572 15.9633 14.8299 16.0146C15.0879 16.0659 15.3553 16.0396 15.5983 15.9389C15.8413 15.8383 16.049 15.6678 16.1951 15.4491C16.3412 15.2304 16.4192 14.9733 16.4192 14.7103C16.4188 14.3577 16.2786 14.0197 16.0293 13.7704C15.78 13.5211 15.4419 13.3808 15.0894 13.3805Z" fill="#DBE2E6"/>
<path d="M9.28913 16.4639C9.16159 16.4638 9.03648 16.429 8.92721 16.3632C8.81793 16.2974 8.7286 16.2032 8.66879 16.0905C8.60897 15.9779 8.58093 15.8511 8.58765 15.7237C8.59437 15.5964 8.63561 15.4732 8.70694 15.3675L14.2293 7.18923C14.3337 7.03464 14.4952 6.92784 14.6783 6.89232C14.8614 6.85681 15.0511 6.89549 15.2057 6.99986C15.3603 7.10422 15.4671 7.26573 15.5026 7.44884C15.5381 7.63195 15.4994 7.82167 15.3951 7.97626L9.87226 16.1545C9.8078 16.2499 9.72093 16.328 9.61926 16.3819C9.51759 16.4359 9.40423 16.464 9.28913 16.4639Z" fill="#DBE2E6"/>
<path d="M12.051 21.0938C6.85587 21.0938 2.62915 16.867 2.62915 11.6719C2.62915 6.47672 6.85587 2.25 12.051 2.25C17.2462 2.25 21.4729 6.47672 21.4729 11.6719C21.4729 16.867 17.2462 21.0938 12.051 21.0938ZM12.051 3.65625C7.63118 3.65625 4.0354 7.25203 4.0354 11.6719C4.0354 16.0917 7.63118 19.6875 12.051 19.6875C16.4709 19.6875 20.0667 16.0917 20.0667 11.6719C20.0667 7.25203 16.4709 3.65625 12.051 3.65625Z" fill="#DBE2E6"/>
</svg>
