<svg width="24" height="24" viewBox="0 0 24 24" fill="none" xmlns="http://www.w3.org/2000/svg">
<path d="M14.94 15.435C14.8477 15.4351 14.7563 15.417 14.671 15.3816C14.5857 15.3462 14.5083 15.2942 14.4432 15.2288L6.28691 7.0725C6.22157 7.0072 6.16974 6.92967 6.13438 6.84433C6.09901 6.759 6.08081 6.66753 6.08081 6.57516C6.08081 6.48278 6.09901 6.39131 6.13438 6.30598C6.16974 6.22064 6.22157 6.14311 6.28691 6.07781L9.86675 2.49844C9.99861 2.36662 10.1774 2.29257 10.3639 2.29257C10.5503 2.29257 10.7291 2.36662 10.861 2.49844L19.0172 10.6547C19.0826 10.72 19.1344 10.7975 19.1698 10.8829C19.2051 10.9682 19.2233 11.0597 19.2233 11.152C19.2233 11.2444 19.2051 11.3359 19.1698 11.4212C19.1344 11.5065 19.0826 11.5841 19.0172 11.6494L15.4374 15.2288C15.3721 15.2941 15.2946 15.346 15.2092 15.3814C15.1239 15.4168 15.0324 15.435 14.94 15.435ZM7.77613 6.57562L14.94 13.7372L17.5257 11.152L10.3594 3.98813L7.77613 6.57562Z" fill="#DBE2E6"/>
<path d="M12.7032 14.5856C12.5641 14.5857 12.4281 14.5445 12.3124 14.4672C12.1967 14.39 12.1065 14.2801 12.0533 14.1516C12.0001 14.0231 11.9861 13.8817 12.0133 13.7452C12.0404 13.6088 12.1075 13.4835 12.2059 13.3852L17.1732 8.41968C17.305 8.28778 17.4839 8.21365 17.6704 8.21361C17.8569 8.21356 18.0357 8.28761 18.1677 8.41945C18.2996 8.55129 18.3737 8.73013 18.3737 8.91663C18.3738 9.10312 18.2997 9.282 18.1679 9.4139L13.202 14.3794C13.1365 14.4449 13.0587 14.4969 12.9732 14.5323C12.8876 14.5677 12.7958 14.5858 12.7032 14.5856Z" fill="#DBE2E6"/>
<path d="M7.63118 9.51188C7.49207 9.51194 7.35606 9.47074 7.24038 9.39348C7.12469 9.31622 7.03452 9.20639 6.98128 9.07787C6.92803 8.94935 6.91411 8.80792 6.94126 8.67149C6.96842 8.53505 7.03544 8.40974 7.13383 8.31141L12.0993 3.34594C12.2311 3.21403 12.41 3.13991 12.5965 3.13986C12.783 3.13982 12.9619 3.21386 13.0938 3.3457C13.2257 3.47754 13.2998 3.65639 13.2998 3.84288C13.2999 4.02938 13.2258 4.20825 13.094 4.34016L8.12805 9.30563C8.06292 9.37106 7.98548 9.42297 7.90021 9.45837C7.81494 9.49376 7.72351 9.51195 7.63118 9.51188Z" fill="#DBE2E6"/>
<path d="M4.62708 18.855C4.23763 18.8551 3.8569 18.7397 3.53305 18.5234C3.20919 18.3071 2.95676 17.9997 2.80768 17.6399C2.6586 17.2801 2.61957 16.8842 2.69553 16.5022C2.77149 16.1203 2.95903 15.7694 3.23442 15.4941L9.4688 9.25968C9.60065 9.12787 9.77946 9.05382 9.9659 9.05382C10.1523 9.05382 10.3312 9.12787 10.463 9.25968L12.2532 11.0494C12.385 11.1812 12.459 11.36 12.459 11.5465C12.459 11.7329 12.385 11.9117 12.2532 12.0436L6.0188 18.278C5.83648 18.4614 5.6196 18.6068 5.38072 18.7058C5.14183 18.8049 4.88568 18.8556 4.62708 18.855ZM9.96614 10.7522L4.22958 16.4887C4.17714 16.541 4.13553 16.6031 4.10714 16.6715C4.07875 16.7398 4.06413 16.8131 4.06413 16.8872C4.06413 16.9612 4.07875 17.0345 4.10714 17.1029C4.13553 17.1713 4.17714 17.2334 4.22958 17.2856C4.28183 17.3381 4.34393 17.3797 4.4123 17.4081C4.48068 17.4365 4.55398 17.4511 4.62801 17.4511C4.70205 17.4511 4.77535 17.4365 4.84372 17.4081C4.9121 17.3797 4.97419 17.3381 5.02645 17.2856L10.7616 11.5477L9.96614 10.7522Z" fill="#DBE2E6"/>
<path d="M20.678 21.0938H13.3594C13.1729 21.0938 12.9941 21.0197 12.8622 20.8878C12.7303 20.7559 12.6562 20.5771 12.6562 20.3906V19.2975C12.6567 18.8043 12.8529 18.3315 13.2016 17.9828C13.5503 17.6341 14.0231 17.438 14.5162 17.4375H19.5216C20.0146 17.4381 20.4873 17.6343 20.8359 17.983C21.1845 18.3317 21.3806 18.8044 21.3811 19.2975V20.3906C21.3811 20.5771 21.307 20.7559 21.1752 20.8878C21.0433 21.0197 20.8644 21.0938 20.678 21.0938ZM14.0625 19.6875H19.9748V19.2975C19.9747 19.1773 19.9269 19.062 19.842 18.977C19.757 18.8919 19.6418 18.844 19.5216 18.8438H14.5162C14.3959 18.8439 14.2806 18.8917 14.1955 18.9768C14.1105 19.0619 14.0626 19.1772 14.0625 19.2975V19.6875Z" fill="#DBE2E6"/>
</svg>
