<svg width="24" height="24" viewBox="0 0 24 24" fill="none" xmlns="http://www.w3.org/2000/svg">
<path d="M15.9583 11.6873C15.9352 11.6874 15.9122 11.6863 15.8893 11.684C15.8664 11.6818 15.8435 11.6783 15.8209 11.6737C15.7984 11.6693 15.7762 11.6637 15.7543 11.6569C15.7323 11.6503 15.7108 11.6423 15.6897 11.6339C15.6686 11.6254 15.6475 11.6151 15.6273 11.6044C15.607 11.5936 15.5873 11.5819 15.5683 11.5692C15.549 11.5564 15.5304 11.5426 15.5125 11.5279C15.4769 11.4986 15.4443 11.466 15.415 11.4304C15.4003 11.4126 15.3865 11.3939 15.3737 11.3747C15.361 11.3556 15.3493 11.3359 15.3386 11.3156C15.3278 11.2954 15.3179 11.2744 15.309 11.2533C15.3001 11.2322 15.2926 11.2106 15.2861 11.1886C15.2791 11.1667 15.2735 11.1445 15.2692 11.122C15.2643 11.0994 15.2609 11.0766 15.2589 11.0536C15.2565 11.0307 15.2552 11.0077 15.2551 10.9847C15.2552 10.9615 15.2565 10.9383 15.2589 10.9153C15.2635 10.8695 15.2726 10.8243 15.2861 10.7803C15.2926 10.7583 15.3006 10.7367 15.309 10.7156C15.3175 10.6945 15.3278 10.6734 15.3386 10.6533C15.3493 10.6331 15.3611 10.6134 15.3737 10.5942C15.4128 10.5365 15.4602 10.4848 15.5143 10.4409C15.5322 10.4264 15.5509 10.4128 15.5701 10.3997C15.5892 10.387 15.6089 10.3752 15.6292 10.3645C15.6493 10.3537 15.67 10.3439 15.6915 10.335C15.7131 10.3261 15.7342 10.3186 15.7562 10.312C15.7783 10.3054 15.8003 10.2998 15.8228 10.2951C15.8454 10.2905 15.8682 10.2871 15.8912 10.2848C15.9601 10.2779 16.0296 10.2813 16.0975 10.2951C16.12 10.2998 16.1443 10.3054 16.1645 10.312C16.1847 10.3186 16.2081 10.3265 16.2292 10.335C16.2503 10.3434 16.2714 10.3537 16.2915 10.3645C16.3117 10.3753 16.3314 10.387 16.3506 10.3997C16.3698 10.4123 16.3886 10.4264 16.4059 10.4409C16.4239 10.4557 16.4411 10.4713 16.4575 10.4878C16.4899 10.5205 16.5191 10.5563 16.5447 10.5947C16.5573 10.6139 16.5695 10.6336 16.5803 10.6537C16.6015 10.6944 16.6191 10.737 16.6328 10.7808C16.6393 10.8028 16.645 10.8276 16.6497 10.8473C16.6589 10.8927 16.6634 10.9389 16.6633 10.9851C16.6633 11.0081 16.6622 11.0311 16.66 11.054C16.6577 11.077 16.6543 11.0999 16.6497 11.1225C16.645 11.1445 16.6393 11.167 16.6328 11.189C16.6191 11.2329 16.6015 11.2754 16.5803 11.3161C16.5583 11.3565 16.5327 11.395 16.5039 11.4309C16.4892 11.4488 16.4736 11.4659 16.457 11.482C16.4406 11.4985 16.4234 11.5141 16.4054 11.5289C16.3878 11.5437 16.3693 11.5575 16.3501 11.5701C16.3311 11.5829 16.3114 11.5947 16.2911 11.6053C16.2709 11.6161 16.2498 11.6259 16.2287 11.6348C16.2076 11.6437 16.1856 11.6512 16.164 11.6578C16.142 11.6646 16.1196 11.6702 16.097 11.6747C16.0745 11.6792 16.0518 11.6827 16.029 11.685C16.0055 11.687 15.9819 11.6878 15.9583 11.6873Z" fill="#DBE2E6"/>
<path d="M16.4222 19.9687H13.5404C13.3539 19.9687 13.175 19.8947 13.0432 19.7628C12.9113 19.6309 12.8372 19.4521 12.8372 19.2656V18.4411C12.5144 18.475 12.1901 18.492 11.8655 18.4922C11.0787 18.4937 10.2949 18.3942 9.53349 18.1959V19.2656C9.53349 19.4521 9.45941 19.6309 9.32755 19.7628C9.19568 19.8947 9.01684 19.9687 8.83036 19.9687H5.94849C5.76201 19.9687 5.58316 19.8947 5.4513 19.7628C5.31944 19.6309 5.24536 19.4521 5.24536 19.2656V15.4547C4.41614 14.3765 3.97974 13.1273 3.97974 11.8303C3.97974 10.0251 4.81692 8.33623 6.33755 7.07436C7.8202 5.84389 9.78333 5.16655 11.8655 5.16655C12.8571 5.16291 13.8425 5.32125 14.783 5.6353L16.7194 4.04155C16.8232 3.95609 16.9494 3.90219 17.0829 3.88625C17.2164 3.8703 17.3517 3.89298 17.4728 3.9516C17.5938 4.01021 17.6955 4.1023 17.7657 4.21694C17.836 4.33159 17.8719 4.46398 17.8693 4.59842L17.8125 7.44842C18.3822 7.99621 18.8493 8.64154 19.1916 9.35389H20.6799C20.8664 9.35389 21.0452 9.42797 21.1771 9.55983C21.3089 9.69169 21.383 9.87054 21.383 10.057V13.4634C21.383 13.6499 21.3089 13.8287 21.1771 13.9606C21.0452 14.0925 20.8664 14.1665 20.6799 14.1665H19.2549C18.8096 15.1772 18.083 16.0744 17.1272 16.7962V19.2656C17.1272 19.3581 17.109 19.4497 17.0735 19.5351C17.0381 19.6205 16.9861 19.6981 16.9206 19.7635C16.8551 19.8288 16.7774 19.8805 16.6919 19.9158C16.6064 19.951 16.5147 19.969 16.4222 19.9687ZM14.2435 18.5625H15.7191V16.4353C15.7191 16.3208 15.7471 16.2081 15.8006 16.1068C15.8541 16.0056 15.9316 15.919 16.0261 15.8545C17.0377 15.165 17.7582 14.2584 18.1093 13.2337C18.1597 13.0865 18.2574 12.9602 18.3873 12.8745C18.5172 12.7889 18.6718 12.7487 18.8269 12.7603H19.9749V10.7601H18.7777C18.626 10.7714 18.4748 10.7332 18.3466 10.6512C18.2185 10.5692 18.1204 10.4479 18.0671 10.3055C17.7858 9.55827 17.2918 8.85655 16.6355 8.27623C16.5589 8.20861 16.498 8.1251 16.4569 8.03151C16.4159 7.93793 16.3957 7.83653 16.3979 7.73436L16.4316 6.09842L15.3671 6.97452C15.2705 7.05416 15.1544 7.10658 15.0308 7.12635C14.9072 7.14613 14.7806 7.13255 14.664 7.08702C13.7714 6.74166 12.8221 6.56676 11.865 6.57139C8.29224 6.57139 5.38552 8.93014 5.38552 11.8289C5.38552 12.8761 5.76708 13.8886 6.48849 14.7576C6.59354 14.8839 6.65109 15.0429 6.65114 15.2072V18.5625H8.12677V17.2308C8.12666 17.1165 8.15444 17.0038 8.20768 16.9027C8.26091 16.8015 8.33802 16.7149 8.4323 16.6502C8.52658 16.5856 8.63521 16.5449 8.74876 16.5317C8.86231 16.5185 8.97736 16.5332 9.08395 16.5745C9.97125 16.9159 10.9143 17.0892 11.865 17.0855C12.3814 17.0852 12.8965 17.0345 13.403 16.934C13.5051 16.9137 13.6104 16.9163 13.7114 16.9416C13.8124 16.9669 13.9065 17.0144 13.9869 17.0805C14.0673 17.1466 14.132 17.2297 14.1764 17.3239C14.2208 17.418 14.2437 17.5209 14.2435 17.625V18.5625Z" fill="#DBE2E6"/>
<path d="M12.9426 8.67188H10.1892C10.0027 8.67188 9.82389 8.5978 9.69202 8.46593C9.56016 8.33407 9.48608 8.15523 9.48608 7.96875C9.48608 7.78227 9.56016 7.60343 9.69202 7.47157C9.82389 7.3397 10.0027 7.26562 10.1892 7.26562H12.9426C13.1291 7.26562 13.308 7.3397 13.4398 7.47157C13.5717 7.60343 13.6458 7.78227 13.6458 7.96875C13.6458 8.15523 13.5717 8.33407 13.4398 8.46593C13.308 8.5978 13.1291 8.67188 12.9426 8.67188Z" fill="#DBE2E6"/>
<path d="M4.68282 12.5311H3.24048C3.054 12.5311 2.87516 12.457 2.74329 12.3251C2.61143 12.1933 2.53735 12.0144 2.53735 11.8279C2.53735 11.6415 2.61143 11.4626 2.74329 11.3308C2.87516 11.1989 3.054 11.1248 3.24048 11.1248H4.68282C4.8693 11.1248 5.04815 11.1989 5.18001 11.3308C5.31187 11.4626 5.38595 11.6415 5.38595 11.8279C5.38595 12.0144 5.31187 12.1933 5.18001 12.3251C5.04815 12.457 4.8693 12.5311 4.68282 12.5311Z" fill="#DBE2E6"/>
</svg>
