<svg width="24" height="24" viewBox="0 0 24 24" fill="none" xmlns="http://www.w3.org/2000/svg">
<path d="M20.678 6.65625H3.24048C3.054 6.65625 2.87516 6.58217 2.74329 6.45031C2.61143 6.31845 2.53735 6.13961 2.53735 5.95312V2.95312C2.53735 2.76664 2.61143 2.5878 2.74329 2.45594C2.87516 2.32408 3.054 2.25 3.24048 2.25H20.678C20.8645 2.25 21.0433 2.32408 21.1752 2.45594C21.307 2.5878 21.3811 2.76664 21.3811 2.95312V5.95312C21.3811 6.13961 21.307 6.31845 21.1752 6.45031C21.0433 6.58217 20.8645 6.65625 20.678 6.65625ZM3.9436 5.25H19.9749V3.65625H3.9436V5.25Z" fill="#DBE2E6"/>
<path d="M19.2655 18.428H4.65552C4.46904 18.428 4.29019 18.3539 4.15833 18.222C4.02647 18.0902 3.95239 17.9113 3.95239 17.7248V5.95312C3.95239 5.76664 4.02647 5.5878 4.15833 5.45594C4.29019 5.32408 4.46904 5.25 4.65552 5.25H19.2655C19.452 5.25 19.6308 5.32408 19.7627 5.45594C19.8946 5.5878 19.9686 5.76664 19.9686 5.95312V17.7248C19.9686 17.9113 19.8946 18.0902 19.7627 18.222C19.6308 18.3539 19.452 18.428 19.2655 18.428ZM5.36099 17.0217H18.5624V6.65625H5.35864L5.36099 17.0217Z" fill="#DBE2E6"/>
<path d="M11.5111 21.1875C11.099 21.1876 10.6962 21.0655 10.3536 20.8366C10.0109 20.6078 9.74387 20.2824 9.58615 19.9018C9.42842 19.5211 9.38713 19.1022 9.46749 18.6981C9.54786 18.294 9.74627 17.9227 10.0376 17.6314C10.329 17.34 10.7002 17.1416 11.1043 17.0613C11.5085 16.9809 11.9273 17.0222 12.308 17.1799C12.6887 17.3376 13.014 17.6047 13.2429 17.9474C13.4717 18.29 13.5938 18.6928 13.5937 19.1049C13.593 19.657 13.3733 20.1863 12.9829 20.5767C12.5925 20.9671 12.0632 21.1868 11.5111 21.1875ZM11.5111 18.428C11.3772 18.4279 11.2463 18.4675 11.1349 18.5418C11.0235 18.6161 10.9367 18.7218 10.8854 18.8455C10.8341 18.9692 10.8206 19.1053 10.8467 19.2366C10.8728 19.3679 10.9372 19.4886 11.0318 19.5833C11.1265 19.678 11.2471 19.7425 11.3784 19.7687C11.5097 19.7948 11.6458 19.7815 11.7695 19.7302C11.8932 19.679 11.999 19.5923 12.0734 19.481C12.1478 19.3696 12.1875 19.2387 12.1875 19.1049C12.1872 18.9255 12.1159 18.7535 11.9891 18.6267C11.8623 18.4998 11.6904 18.4283 11.5111 18.428Z" fill="#DBE2E6"/>
<path d="M19.9687 18.428H3.94775C3.76127 18.428 3.58243 18.3539 3.45057 18.222C3.31871 18.0902 3.24463 17.9113 3.24463 17.7248C3.24463 17.5384 3.31871 17.3595 3.45057 17.2277C3.58243 17.0958 3.76127 17.0217 3.94775 17.0217H19.9687C20.1552 17.0217 20.334 17.0958 20.4659 17.2277C20.5977 17.3595 20.6718 17.5384 20.6718 17.7248C20.6718 17.9113 20.5977 18.0902 20.4659 18.222C20.334 18.3539 20.1552 18.428 19.9687 18.428Z" fill="#DBE2E6"/>
<path d="M6.70312 15.4688C6.51664 15.4688 6.3378 15.3947 6.20594 15.2628C6.07408 15.1309 6 14.9521 6 14.7656V12.7969C6 12.6104 6.07408 12.4316 6.20594 12.2997C6.3378 12.1678 6.51664 12.0938 6.70312 12.0938C6.88961 12.0938 7.06845 12.1678 7.20031 12.2997C7.33217 12.4316 7.40625 12.6104 7.40625 12.7969V14.7656C7.40625 14.9521 7.33217 15.1309 7.20031 15.2628C7.06845 15.3947 6.88961 15.4688 6.70312 15.4688Z" fill="#DBE2E6"/>
<path d="M8.66162 15.4688C8.47514 15.4688 8.2963 15.3947 8.16444 15.2628C8.03258 15.1309 7.9585 14.9521 7.9585 14.7656V10.7812C7.9585 10.5948 8.03258 10.4159 8.16444 10.2841C8.2963 10.1522 8.47514 10.0781 8.66162 10.0781C8.8481 10.0781 9.02694 10.1522 9.15881 10.2841C9.29067 10.4159 9.36475 10.5948 9.36475 10.7812V14.7656C9.36475 14.9521 9.29067 15.1309 9.15881 15.2628C9.02694 15.3947 8.8481 15.4688 8.66162 15.4688Z" fill="#DBE2E6"/>
<path d="M10.6204 15.4688C10.4339 15.4688 10.255 15.3947 10.1232 15.2628C9.99131 15.1309 9.91724 14.9521 9.91724 14.7656V8.10938C9.91724 7.92289 9.99131 7.74405 10.1232 7.61219C10.255 7.48033 10.4339 7.40625 10.6204 7.40625C10.8068 7.40625 10.9857 7.48033 11.1175 7.61219C11.2494 7.74405 11.3235 7.92289 11.3235 8.10938V14.7656C11.3235 14.9521 11.2494 15.1309 11.1175 15.2628C10.9857 15.3947 10.8068 15.4688 10.6204 15.4688Z" fill="#DBE2E6"/>
<path d="M17.1094 10.3125H13.2656C13.0791 10.3125 12.9003 10.2384 12.7684 10.1066C12.6366 9.9747 12.5625 9.79586 12.5625 9.60938C12.5625 9.42289 12.6366 9.24405 12.7684 9.11219C12.9003 8.98033 13.0791 8.90625 13.2656 8.90625H17.1094C17.2959 8.90625 17.4747 8.98033 17.6066 9.11219C17.7384 9.24405 17.8125 9.42289 17.8125 9.60938C17.8125 9.79586 17.7384 9.9747 17.6066 10.1066C17.4747 10.2384 17.2959 10.3125 17.1094 10.3125Z" fill="#DBE2E6"/>
<path d="M17.1094 12.5423H13.2656C13.0791 12.5423 12.9003 12.4683 12.7684 12.3364C12.6366 12.2045 12.5625 12.0257 12.5625 11.8392C12.5625 11.6527 12.6366 11.4739 12.7684 11.342C12.9003 11.2102 13.0791 11.1361 13.2656 11.1361H17.1094C17.2959 11.1361 17.4747 11.2102 17.6066 11.342C17.7384 11.4739 17.8125 11.6527 17.8125 11.8392C17.8125 12.0257 17.7384 12.2045 17.6066 12.3364C17.4747 12.4683 17.2959 12.5423 17.1094 12.5423Z" fill="#DBE2E6"/>
<path d="M17.1094 14.7717H13.2656C13.0791 14.7717 12.9003 14.6976 12.7684 14.5658C12.6366 14.4339 12.5625 14.2551 12.5625 14.0686C12.5625 13.8821 12.6366 13.7033 12.7684 13.5714C12.9003 13.4395 13.0791 13.3655 13.2656 13.3655H17.1094C17.2959 13.3655 17.4747 13.4395 17.6066 13.5714C17.7384 13.7033 17.8125 13.8821 17.8125 14.0686C17.8125 14.2551 17.7384 14.4339 17.6066 14.5658C17.4747 14.6976 17.2959 14.7717 17.1094 14.7717Z" fill="#DBE2E6"/>
</svg>
