<svg width="24" height="24" viewBox="0 0 24 24" fill="none" xmlns="http://www.w3.org/2000/svg">
<path d="M20.7656 21.0938H16.553C16.3665 21.0938 16.1877 21.0197 16.0558 20.8878C15.9239 20.7559 15.8499 20.5771 15.8499 20.3906V14.6719C15.8499 14.4854 15.9239 14.3066 16.0558 14.1747C16.1877 14.0428 16.3665 13.9688 16.553 13.9688H20.7656C20.9521 13.9688 21.131 14.0428 21.2628 14.1747C21.3947 14.3066 21.4688 14.4854 21.4688 14.6719V20.3906C21.4688 20.5771 21.3947 20.7559 21.2628 20.8878C21.131 21.0197 20.9521 21.0938 20.7656 21.0938ZM17.2561 19.6875H20.0625V15.375H17.2561V19.6875Z" fill="#DBE2E6"/>
<path d="M14.1531 21.0938H9.94043C9.75395 21.0938 9.57511 21.0197 9.44325 20.8878C9.31138 20.7559 9.2373 20.5771 9.2373 20.3906V12.1927C9.2373 12.0062 9.31138 11.8273 9.44325 11.6955C9.57511 11.5636 9.75395 11.4895 9.94043 11.4895H14.1531C14.3396 11.4895 14.5184 11.5636 14.6503 11.6955C14.7821 11.8273 14.8562 12.0062 14.8562 12.1927V20.3906C14.8562 20.5771 14.7821 20.7559 14.6503 20.8878C14.5184 21.0197 14.3396 21.0938 14.1531 21.0938ZM10.6436 19.6875H13.45V12.8958H10.6436V19.6875Z" fill="#DBE2E6"/>
<path d="M7.54031 21.0938H3.32813C3.14164 21.0938 2.9628 21.0197 2.83094 20.8878C2.69908 20.756 2.625 20.5771 2.625 20.3906V9.36282C2.625 9.17634 2.69908 8.9975 2.83094 8.86564C2.9628 8.73378 3.14164 8.6597 3.32813 8.6597H7.54031C7.72679 8.6597 7.90564 8.73378 8.0375 8.86564C8.16936 8.9975 8.24344 9.17634 8.24344 9.36282V20.3906C8.24344 20.5771 8.16936 20.756 8.0375 20.8878C7.90564 21.0197 7.72679 21.0938 7.54031 21.0938ZM4.03125 19.6875H6.83719V10.0659H4.03125V19.6875Z" fill="#DBE2E6"/>
<path d="M17.1946 9.26907C17.0367 9.26908 16.8834 9.21594 16.7594 9.11821C16.6354 9.02048 16.5479 8.88386 16.5109 8.73035C16.474 8.57684 16.4899 8.41536 16.5559 8.27194C16.6219 8.12851 16.7343 8.01149 16.8749 7.9397L18.426 7.14892L17.6357 5.59782C17.551 5.43142 17.5359 5.2382 17.5937 5.06067C17.6515 4.88314 17.7775 4.73585 17.9439 4.65118C18.1103 4.56652 18.3035 4.55143 18.481 4.60923C18.6586 4.66703 18.8059 4.79298 18.8905 4.95939L20.0001 7.1372C20.0847 7.3033 20.0998 7.4962 20.0423 7.6735C19.9847 7.85079 19.8591 7.99796 19.693 8.08267L17.5152 9.19267C17.4159 9.24318 17.306 9.26937 17.1946 9.26907Z" fill="#DBE2E6"/>
<path d="M19.149 8.08735C19.0753 8.08724 19.002 8.07553 18.9319 8.05266L6.1285 3.89298C6.03916 3.86575 5.95614 3.82099 5.88428 3.76132C5.81243 3.70164 5.75318 3.62825 5.71001 3.54543C5.66683 3.46261 5.64059 3.37202 5.63281 3.27894C5.62504 3.18586 5.63588 3.09217 5.66472 3.00333C5.69355 2.91449 5.7398 2.83229 5.80075 2.76152C5.86171 2.69075 5.93615 2.63284 6.01974 2.59116C6.10332 2.54948 6.19437 2.52487 6.28757 2.51877C6.38078 2.51267 6.47426 2.5252 6.56256 2.55563L19.3655 6.71532C19.5249 6.76694 19.6606 6.87375 19.7482 7.01652C19.8358 7.15929 19.8695 7.32864 19.8433 7.49408C19.8172 7.65953 19.7328 7.81019 19.6054 7.91896C19.478 8.02772 19.316 8.08744 19.1485 8.08735H19.149Z" fill="#DBE2E6"/>
</svg>
