<svg width="24" height="24" viewBox="0 0 24 24" fill="none" xmlns="http://www.w3.org/2000/svg">
<path d="M12.4275 21.0937C12.3073 21.0937 12.1892 21.0629 12.0843 21.0042C10.1203 19.9069 8.51902 18.4645 7.32464 16.7184C6.37027 15.3225 5.67511 13.7344 5.25839 11.9962C4.55246 9.04875 4.8909 6.70172 4.9059 6.60562C4.92769 6.46054 4.99431 6.32591 5.09644 6.22059C5.19857 6.11526 5.33109 6.04453 5.47543 6.01828L5.89449 5.94187C8.22996 5.51515 10.3481 4.29938 11.8945 2.49797C11.9605 2.42094 12.0424 2.3591 12.1346 2.31671C12.2267 2.27432 12.327 2.25237 12.4284 2.25237C12.5298 2.25237 12.6301 2.27432 12.7222 2.31671C12.8144 2.3591 12.8963 2.42094 12.9623 2.49797C14.5087 4.29938 16.6268 5.51515 18.9623 5.94187L19.3818 6.01828C19.5262 6.04453 19.6587 6.11526 19.7608 6.22059C19.8629 6.32591 19.9296 6.46054 19.9514 6.60562C19.9659 6.70406 20.3048 9.05109 19.5984 11.9962C19.1817 13.7339 18.487 15.3244 17.5321 16.7184C16.3382 18.4645 14.7365 19.9059 12.7725 21.0042C12.6671 21.0632 12.5482 21.094 12.4275 21.0937ZM6.24933 7.30406C6.15847 8.78679 6.28961 10.2748 6.63839 11.7187C7.01855 13.2802 7.64621 14.7042 8.50355 15.9506C9.50152 17.4037 10.8206 18.6225 12.4275 19.5787C14.0442 18.6159 15.3689 17.3878 16.3696 15.9225C17.227 14.6691 17.8528 13.237 18.2287 11.6667C18.5699 10.2386 18.6972 8.76771 18.6065 7.30218C16.2588 6.85153 14.1037 5.69731 12.4275 3.99281C10.7517 5.69778 8.59695 6.85265 6.24933 7.30406Z" fill="#DBE2E6"/>
<path d="M12.4275 14.8594C12.3184 14.8594 12.2107 14.834 12.1131 14.7851C12.0155 14.7363 11.9305 14.6654 11.865 14.5781L10.073 12.1875C10.0176 12.1136 9.97729 12.0296 9.95437 11.9401C9.93146 11.8507 9.92638 11.7576 9.93944 11.6662C9.9525 11.5748 9.98343 11.4868 10.0305 11.4074C10.0775 11.3279 10.1398 11.2585 10.2136 11.2031C10.2875 11.1477 10.3715 11.1074 10.461 11.0845C10.5504 11.0616 10.6435 11.0565 10.7349 11.0696C10.8263 11.0826 10.9143 11.1136 10.9937 11.1606C11.0732 11.2076 11.1426 11.2699 11.198 11.3437L12.4017 12.9487L15.0047 9.15187C15.1104 8.99803 15.2728 8.89246 15.4564 8.8584C15.6399 8.82433 15.8294 8.86456 15.9832 8.97023C16.1371 9.07591 16.2426 9.23836 16.2767 9.42187C16.3108 9.60538 16.2705 9.7949 16.1649 9.94875L13.0078 14.5566C12.9444 14.6482 12.86 14.7235 12.7617 14.7762C12.6634 14.8288 12.554 14.8573 12.4425 14.8594H12.4275Z" fill="#DBE2E6"/>
</svg>
