<svg width="24" height="24" viewBox="0 0 24 24" fill="none" xmlns="http://www.w3.org/2000/svg">
<path d="M9.47348 21.0938C9.33441 21.0937 9.19847 21.0525 9.08286 20.9752C8.96724 20.8979 8.87714 20.788 8.82396 20.6595C8.77077 20.531 8.75689 20.3896 8.78406 20.2533C8.81123 20.1169 8.87824 19.9916 8.97661 19.8933L17.1465 11.7234L8.97661 3.55359C8.84853 3.42098 8.77766 3.24337 8.77926 3.05901C8.78086 2.87466 8.85481 2.69831 8.98517 2.56794C9.11554 2.43758 9.29189 2.36363 9.47625 2.36203C9.6606 2.36042 9.83822 2.4313 9.97083 2.55938L18.638 11.2266C18.7698 11.3584 18.8439 11.5372 18.8439 11.7237C18.8439 11.9101 18.7698 12.0889 18.638 12.2208L9.97083 20.888C9.9055 20.9533 9.82796 21.005 9.74262 21.0403C9.65729 21.0756 9.56583 21.0938 9.47348 21.0938Z" fill="#DBE2E6"/>
</svg>
