<svg width="24" height="24" viewBox="0 0 24 24" fill="none" xmlns="http://www.w3.org/2000/svg">
<path d="M12.2867 17.7188C12.1664 17.7188 12.0481 17.688 11.9431 17.6292C10.2656 16.6907 8.86847 15.3222 7.89539 13.6645C6.92232 12.0067 6.40848 10.1197 6.40674 8.1975C6.40674 8.11938 6.40768 8.04125 6.40955 7.96313C6.44705 6.20531 7.10377 4.72359 8.30893 3.67875C9.37064 2.75719 10.7835 2.25 12.2867 2.25C13.79 2.25 15.2024 2.75719 16.2655 3.67828C17.4706 4.72312 18.1274 6.20484 18.1649 7.96266C18.1667 8.04078 18.1677 8.11891 18.1677 8.19703C18.1659 10.1195 17.6519 12.0067 16.6785 13.6645C15.7052 15.3223 14.3077 16.6908 12.6299 17.6292C12.525 17.6879 12.4069 17.7187 12.2867 17.7188ZM12.2867 3.65625C11.1219 3.65625 10.0367 4.04109 9.23002 4.74047C8.3333 5.51812 7.84393 6.64266 7.81533 7.99266C7.81533 8.06062 7.81533 8.12906 7.81533 8.1975C7.81682 9.80223 8.22864 11.3799 9.01167 12.7807C9.79469 14.1814 10.9229 15.3586 12.2891 16.2005C13.6552 15.3586 14.7833 14.1813 15.5663 12.7806C16.3492 11.3799 16.761 9.8022 16.7624 8.1975C16.7624 8.12906 16.7624 8.06062 16.76 7.99266C16.7314 6.64266 16.2421 5.51812 15.3453 4.74047C14.5367 4.04109 13.453 3.65625 12.2867 3.65625Z" fill="#DBE2E6"/>
<path d="M12.3013 11.5969C11.6325 11.5969 10.9788 11.3986 10.4228 11.0271C9.86681 10.6555 9.43345 10.1275 9.17754 9.50967C8.92163 8.89186 8.85467 8.21203 8.98513 7.55616C9.11559 6.9003 9.43761 6.29784 9.91047 5.82499C10.3833 5.35213 10.9858 5.03011 11.6416 4.89965C12.2975 4.76919 12.9773 4.83615 13.5951 5.09206C14.213 5.34797 14.741 5.78133 15.1125 6.33735C15.4841 6.89336 15.6824 7.54706 15.6824 8.21578C15.6814 9.1122 15.3248 9.97162 14.691 10.6055C14.0571 11.2393 13.1977 11.5959 12.3013 11.5969ZM12.3013 6.24141C11.9107 6.24141 11.5288 6.35724 11.204 6.57426C10.8793 6.79128 10.6262 7.09974 10.4767 7.46062C10.3272 7.8215 10.2882 8.2186 10.3644 8.6017C10.4406 8.98479 10.6288 9.33667 10.905 9.61284C11.1812 9.88901 11.5332 10.0771 11.9163 10.1532C12.2994 10.2294 12.6965 10.1902 13.0573 10.0406C13.4182 9.89109 13.7266 9.6379 13.9435 9.31307C14.1605 8.98825 14.2762 8.60639 14.2761 8.21578C14.2755 7.69225 14.0672 7.19035 13.697 6.82021C13.3267 6.45006 12.8248 6.2419 12.3013 6.24141Z" fill="#DBE2E6"/>
<path d="M12.2868 21.0938C10.3898 21.0938 8.59543 20.7159 7.23418 20.0302C5.71871 19.2656 4.88574 18.1964 4.88574 17.0156C4.88574 15.4495 6.35059 14.0972 8.80449 13.3988C8.98256 13.3521 9.17182 13.3772 9.33161 13.4686C9.49141 13.5599 9.60901 13.7103 9.65914 13.8874C9.70928 14.0645 9.68797 14.2543 9.59978 14.4158C9.51158 14.5774 9.36355 14.6979 9.18746 14.7516C7.4273 15.2527 6.29012 16.1414 6.29012 17.0156C6.29012 18.2813 8.75199 19.6875 12.285 19.6875C15.8179 19.6875 18.2812 18.2813 18.2812 17.0156C18.2812 16.1414 17.144 15.2527 15.3839 14.7516C15.295 14.7263 15.2121 14.6838 15.1397 14.6264C15.0673 14.5691 15.0069 14.4981 14.9619 14.4174C14.8712 14.2545 14.8488 14.0621 14.8999 13.8827C14.9509 13.7033 15.0711 13.5516 15.2341 13.4608C15.397 13.37 15.5893 13.3477 15.7687 13.3988C18.2226 14.0972 19.6875 15.4495 19.6875 17.0156C19.6875 18.1964 18.8536 19.2656 17.339 20.0302C15.9778 20.7159 14.1834 21.0938 12.2868 21.0938Z" fill="#DBE2E6"/>
</svg>
