<svg width="24" height="24" viewBox="0 0 24 24" fill="none" xmlns="http://www.w3.org/2000/svg">
<path d="M18.6459 14.8125H9.03044C8.87089 14.8128 8.716 14.7587 8.5912 14.6593C8.46641 14.5599 8.37914 14.421 8.34372 14.2655L6.72465 7.21172C6.70097 7.10868 6.70083 7.00162 6.72424 6.89852C6.74765 6.79542 6.79401 6.69893 6.85987 6.61622C6.92573 6.53351 7.00939 6.46672 7.10463 6.42082C7.19987 6.37492 7.30424 6.35108 7.40997 6.35109H20.2664C20.3722 6.35087 20.4767 6.37455 20.5722 6.42036C20.6676 6.46617 20.7514 6.53294 20.8174 6.61567C20.8835 6.6984 20.9299 6.79497 20.9534 6.89818C20.9769 7.00138 20.9768 7.10856 20.9531 7.21172L19.3312 14.2655C19.2959 14.4208 19.2088 14.5595 19.0843 14.6589C18.9598 14.7583 18.8052 14.8124 18.6459 14.8125ZM9.59012 13.4062H18.0862L19.3832 7.75875H8.29262L9.59012 13.4062Z" fill="#DBE2E6"/>
<path d="M10.406 21.0938C9.87315 21.0938 9.35222 20.9357 8.90913 20.6397C8.46604 20.3436 8.1207 19.9228 7.91677 19.4305C7.71284 18.9381 7.65948 18.3964 7.76344 17.8737C7.86741 17.3511 8.12402 16.871 8.50084 16.4942C8.87765 16.1174 9.35774 15.8607 9.8804 15.7568C10.4031 15.6528 10.9448 15.7062 11.4371 15.9101C11.9295 16.114 12.3503 16.4594 12.6463 16.9025C12.9424 17.3456 13.1004 17.8665 13.1004 18.3994C13.0997 19.1137 12.8156 19.7986 12.3104 20.3038C11.8053 20.8089 11.1204 21.093 10.406 21.0938ZM10.406 17.1117C10.1513 17.1117 9.90219 17.1873 9.69035 17.3288C9.47851 17.4704 9.31341 17.6716 9.21593 17.907C9.11845 18.1424 9.09297 18.4014 9.14271 18.6513C9.19245 18.9012 9.31518 19.1307 9.49537 19.3109C9.67556 19.491 9.90513 19.6136 10.155 19.6633C10.4049 19.7129 10.6639 19.6874 10.8993 19.5898C11.1347 19.4922 11.3358 19.327 11.4773 19.1151C11.6188 18.9033 11.6943 18.6542 11.6942 18.3994C11.6938 18.0579 11.558 17.7305 11.3164 17.4891C11.0749 17.2477 10.7475 17.112 10.406 17.1117Z" fill="#DBE2E6"/>
<path d="M17.2696 21.0938C16.7367 21.0938 16.2157 20.9357 15.7727 20.6397C15.3296 20.3436 14.9842 19.9228 14.7803 19.4305C14.5764 18.9381 14.523 18.3964 14.627 17.8737C14.7309 17.3511 14.9875 16.871 15.3644 16.4942C15.7412 16.1174 16.2213 15.8607 16.7439 15.7568C17.2666 15.6528 17.8083 15.7062 18.3007 15.9101C18.793 16.114 19.2138 16.4594 19.5099 16.9025C19.8059 17.3456 19.9639 17.8665 19.9639 18.3994C19.9632 19.1137 19.6791 19.7986 19.174 20.3038C18.6688 20.8089 17.9839 21.093 17.2696 21.0938ZM17.2696 17.1117C17.0148 17.1117 16.7657 17.1873 16.5539 17.3288C16.342 17.4704 16.1769 17.6716 16.0795 17.907C15.982 18.1424 15.9565 18.4014 16.0062 18.6513C16.056 18.9012 16.1787 19.1307 16.3589 19.3109C16.5391 19.491 16.7687 19.6136 17.0186 19.6633C17.2685 19.7129 17.5275 19.6874 17.7628 19.5898C17.9982 19.4922 18.1994 19.327 18.3408 19.1151C18.4823 18.9033 18.5578 18.6542 18.5577 18.3994C18.5573 18.0579 18.4215 17.7305 18.18 17.4891C17.9385 17.2477 17.611 17.112 17.2696 17.1117Z" fill="#DBE2E6"/>
<path d="M7.4099 7.75734C7.26231 7.75733 7.11847 7.71087 6.99875 7.62456C6.87903 7.53824 6.78951 7.41643 6.74287 7.27641L5.53771 3.65625H3.31396C3.12748 3.65625 2.94864 3.58217 2.81678 3.45031C2.68492 3.31845 2.61084 3.13961 2.61084 2.95312C2.61084 2.76664 2.68492 2.5878 2.81678 2.45594C2.94864 2.32408 3.12748 2.25 3.31396 2.25H6.04678C6.19437 2.25001 6.33821 2.29647 6.45793 2.38279C6.57765 2.46911 6.66717 2.59091 6.71381 2.73094L8.07928 6.83203C8.11448 6.93771 8.12406 7.05025 8.10725 7.16036C8.09043 7.27048 8.04769 7.37502 7.98256 7.46538C7.91742 7.55575 7.83174 7.62934 7.73259 7.6801C7.63343 7.73086 7.52364 7.75733 7.41225 7.75734H7.4099Z" fill="#DBE2E6"/>
</svg>
