<svg width="24" height="24" viewBox="0 0 24 24" fill="none" xmlns="http://www.w3.org/2000/svg">
<path d="M11.9593 19.7044C11.9016 19.7044 11.8441 19.6973 11.7882 19.6833C9.28972 19.0566 7.22254 17.9878 5.64472 16.5066C4.28863 15.2344 3.32394 13.6659 2.85566 11.9719C2.51816 10.7531 2.44738 9.50297 2.65129 8.36251C2.85519 7.22204 3.31269 6.26954 3.97597 5.60626C5.64754 3.93469 8.14785 3.91266 9.88222 4.63172C10.6758 4.95985 11.3499 5.44829 11.8322 6.04266C11.8757 6.0961 11.9174 6.15032 11.9574 6.20532C11.9977 6.15032 12.0396 6.0961 12.083 6.04266C12.5649 5.44829 13.2394 4.96032 14.033 4.63172C15.7674 3.91266 18.2696 3.93469 19.9393 5.60626C20.6025 6.26954 21.0605 7.22251 21.2639 8.36251C21.4674 9.50251 21.3971 10.7531 21.0596 11.9719C20.5908 13.6659 19.6266 15.2339 18.2705 16.5066C16.6927 17.9878 14.6255 19.0566 12.1266 19.6833C12.0719 19.697 12.0157 19.7041 11.9593 19.7044ZM7.61769 5.57532C6.50816 5.57532 5.55519 6.0136 4.97019 6.5986C3.98441 7.58672 3.67035 9.64219 4.21082 11.5974C4.61066 13.042 5.43894 14.3855 6.60707 15.4814C7.97301 16.7634 9.77301 17.7028 11.9593 18.2756C14.146 17.7028 15.946 16.7634 17.3119 15.4814C18.4796 14.3855 19.3083 13.0439 19.7077 11.5974C20.2486 9.64219 19.9364 7.58672 18.9488 6.5986C18.075 5.72532 16.3833 5.17922 14.573 5.92922C13.3768 6.42469 12.6624 7.31813 12.6624 8.31985C12.6624 8.50633 12.5883 8.68517 12.4564 8.81703C12.3246 8.9489 12.1457 9.02297 11.9593 9.02297C11.7728 9.02297 11.5939 8.9489 11.4621 8.81703C11.3302 8.68517 11.2561 8.50633 11.2561 8.31985C11.2561 7.31813 10.5422 6.42469 9.34597 5.92922C8.79884 5.6985 8.21148 5.57823 7.61769 5.57532Z" fill="#DBE2E6"/>
</svg>
