<svg width="24" height="24" viewBox="0 0 24 24" fill="none" xmlns="http://www.w3.org/2000/svg">
<path d="M7.54272 19.2895C7.35624 19.2895 7.1774 19.2155 7.04554 19.0836C6.91368 18.9517 6.8396 18.7729 6.8396 18.5864V4.75828C6.84022 4.09332 7.10462 3.45576 7.57478 2.98551C8.04494 2.51526 8.68245 2.25074 9.34741 2.25H19.8516C20.0381 2.25 20.217 2.32408 20.3488 2.45594C20.4807 2.5878 20.5548 2.76664 20.5548 2.95312V16.7812C20.5548 16.9677 20.4807 17.1466 20.3488 17.2784C20.217 17.4103 20.0381 17.4844 19.8516 17.4844C19.6652 17.4844 19.4863 17.4103 19.3544 17.2784C19.2226 17.1466 19.1485 16.9677 19.1485 16.7812V3.65625H9.34741C9.05542 3.6565 8.77544 3.77257 8.56893 3.979C8.36241 4.18543 8.24622 4.46535 8.24585 4.75734V18.5855C8.24597 18.6779 8.22788 18.7694 8.1926 18.8548C8.15732 18.9402 8.10554 19.0179 8.04024 19.0833C7.97494 19.1486 7.89738 19.2005 7.81202 19.2359C7.72665 19.2713 7.63514 19.2895 7.54272 19.2895Z" fill="#DBE2E6"/>
<path d="M19.8516 21.0938H9.34741C8.6823 21.0938 8.04443 20.8295 7.57412 20.3592C7.10381 19.8889 6.8396 19.2511 6.8396 18.5859C6.8396 17.9208 7.10381 17.283 7.57412 16.8126C8.04443 16.3423 8.6823 16.0781 9.34741 16.0781H19.8516C20.0381 16.0781 20.217 16.1522 20.3488 16.2841C20.4807 16.4159 20.5548 16.5948 20.5548 16.7812C20.5548 16.9677 20.4807 17.1466 20.3488 17.2784C20.217 17.4103 20.0381 17.4844 19.8516 17.4844H9.34741C9.20275 17.4844 9.05951 17.5129 8.92586 17.5682C8.79221 17.6236 8.67078 17.7047 8.56849 17.807C8.4662 17.9093 8.38506 18.0307 8.3297 18.1644C8.27434 18.298 8.24585 18.4413 8.24585 18.5859C8.24585 18.7306 8.27434 18.8738 8.3297 19.0075C8.38506 19.1411 8.4662 19.2626 8.56849 19.3649C8.67078 19.4671 8.79221 19.5483 8.92586 19.6036C9.05951 19.659 9.20275 19.6875 9.34741 19.6875H19.8516C20.0381 19.6875 20.217 19.7616 20.3488 19.8934C20.4807 20.0253 20.5548 20.2041 20.5548 20.3906C20.5548 20.5771 20.4807 20.7559 20.3488 20.8878C20.217 21.0197 20.0381 21.0938 19.8516 21.0938Z" fill="#DBE2E6"/>
<path d="M19.0378 20.9803C18.8514 20.9803 18.6725 20.9062 18.5407 20.7744C18.4088 20.6425 18.3347 20.4637 18.3347 20.2772V16.7812C18.3347 16.5948 18.4088 16.4159 18.5407 16.2841C18.6725 16.1522 18.8514 16.0781 19.0378 16.0781C19.2243 16.0781 19.4032 16.1522 19.535 16.2841C19.6669 16.4159 19.741 16.5948 19.741 16.7812V20.2767C19.741 20.3691 19.7229 20.4606 19.6876 20.5459C19.6523 20.6313 19.6005 20.7089 19.5352 20.7742C19.4699 20.8395 19.3924 20.8914 19.307 20.9267C19.2217 20.9621 19.1302 20.9803 19.0378 20.9803Z" fill="#DBE2E6"/>
<path d="M15.6657 13.9809C15.513 13.9808 15.3645 13.931 15.2426 13.839C15.1208 13.7469 15.0322 13.6178 14.9902 13.4709L13.6974 8.94609L12.4041 13.4709C12.3803 13.5613 12.3386 13.6461 12.2815 13.7202C12.2245 13.7943 12.1532 13.8563 12.0719 13.9025C11.9906 13.9487 11.901 13.9783 11.8081 13.9894C11.7153 14.0005 11.6211 13.993 11.5312 13.9673C11.4413 13.9417 11.3574 13.8983 11.2844 13.8398C11.2115 13.7813 11.151 13.7088 11.1064 13.6266C11.0618 13.5444 11.034 13.4541 11.0247 13.3611C11.0154 13.268 11.0248 13.1741 11.0523 13.0847L13.021 6.19406C13.0629 6.04706 13.1516 5.91772 13.2736 5.82564C13.3956 5.73356 13.5443 5.68375 13.6972 5.68375C13.8501 5.68375 13.9988 5.73356 14.1208 5.82564C14.2428 5.91772 14.3315 6.04706 14.3734 6.19406L16.3421 13.0847C16.3933 13.264 16.3712 13.4562 16.2807 13.6192C16.1901 13.7822 16.0386 13.9025 15.8593 13.9537C15.7964 13.972 15.7312 13.9811 15.6657 13.9809Z" fill="#DBE2E6"/>
<path d="M15.1674 12.105H12.2644C12.0779 12.105 11.8991 12.0309 11.7672 11.8991C11.6354 11.7672 11.5613 11.5884 11.5613 11.4019C11.5613 11.2154 11.6354 11.0365 11.7672 10.9047C11.8991 10.7728 12.0779 10.6987 12.2644 10.6987H15.1674C15.3539 10.6987 15.5327 10.7728 15.6646 10.9047C15.7964 11.0365 15.8705 11.2154 15.8705 11.4019C15.8705 11.5884 15.7964 11.7672 15.6646 11.8991C15.5327 12.0309 15.3539 12.105 15.1674 12.105Z" fill="#DBE2E6"/>
</svg>
