<svg width="24" height="24" viewBox="0 0 24 24" fill="none" xmlns="http://www.w3.org/2000/svg">
<path d="M4.80887 16.0041C4.67832 16.0041 4.55032 15.9679 4.43922 15.8993C4.32812 15.8308 4.23829 15.7326 4.1798 15.6159C3.34948 13.9639 3.06157 12.092 3.35707 10.2668C3.65257 8.44167 4.51641 6.75625 5.82559 5.45062C9.2559 2.01984 14.8378 2.01984 18.2681 5.45062C18.3962 5.58323 18.467 5.76084 18.4654 5.9452C18.4638 6.12956 18.3899 6.30591 18.2595 6.43627C18.1292 6.56664 17.9528 6.64058 17.7684 6.64219C17.5841 6.64379 17.4065 6.57292 17.2739 6.44484C14.3906 3.56249 9.70309 3.56249 6.8198 6.44484C5.7199 7.54182 4.99416 8.95788 4.74596 10.4914C4.49776 12.0248 4.73975 13.5975 5.43746 14.9855C5.49127 15.0926 5.51677 15.2118 5.51153 15.3316C5.5063 15.4514 5.47051 15.5679 5.40756 15.67C5.34461 15.7721 5.2566 15.8564 5.15189 15.9148C5.04719 15.9733 4.92926 16.004 4.80934 16.0041H4.80887Z" fill="#DBE2E6"/>
<path d="M12.047 20.4661C10.8916 20.4682 9.7473 20.242 8.67967 19.8005C7.61203 19.3591 6.64214 18.711 5.8257 17.8936C5.76039 17.8283 5.70858 17.7508 5.67322 17.6655C5.63786 17.5802 5.61965 17.4887 5.61963 17.3964C5.61961 17.3041 5.63777 17.2126 5.67309 17.1273C5.70841 17.042 5.76019 16.9644 5.82547 16.8991C5.89075 16.8338 5.96826 16.782 6.05356 16.7466C6.13887 16.7113 6.2303 16.6931 6.32265 16.6931C6.41499 16.693 6.50643 16.7112 6.59176 16.7465C6.67708 16.7818 6.75461 16.8336 6.81992 16.8989C9.7032 19.7812 14.3907 19.7812 17.274 16.8989C18.3739 15.8019 19.0996 14.3859 19.3478 12.8524C19.596 11.3189 19.354 9.7462 18.6563 8.35827C18.5727 8.19156 18.5588 7.99846 18.6175 7.82146C18.6763 7.64446 18.803 7.49805 18.9697 7.41444C19.1364 7.33084 19.3295 7.31688 19.5065 7.37565C19.6835 7.43442 19.8299 7.56109 19.9135 7.7278C20.5864 9.06907 20.9049 10.5602 20.8387 12.0593C20.7725 13.5584 20.3238 15.0157 19.5354 16.2924C18.7469 17.5692 17.6449 18.623 16.3342 19.3535C15.0234 20.084 13.5475 20.467 12.047 20.4661Z" fill="#DBE2E6"/>
<path d="M14.7755 6.94921C14.5956 6.94831 14.4229 6.87849 14.2929 6.75412C14.163 6.62975 14.0856 6.46028 14.0768 6.2806C14.0679 6.10092 14.1283 5.92469 14.2455 5.78818C14.3626 5.65166 14.5277 5.56525 14.7066 5.54672L16.9299 5.325L16.4841 3.09046C16.4501 2.90857 16.4892 2.72059 16.5928 2.56731C16.6965 2.41402 16.8564 2.30779 17.0379 2.27164C17.2194 2.23549 17.4078 2.27234 17.5623 2.3742C17.7168 2.47607 17.8249 2.63473 17.8632 2.81578L18.4604 5.8125C18.4796 5.9087 18.4784 6.00786 18.457 6.10359C18.4356 6.19932 18.3943 6.28951 18.336 6.36836C18.2776 6.44721 18.2034 6.51297 18.1181 6.56142C18.0328 6.60987 17.9383 6.63994 17.8407 6.64968L14.8463 6.94828C14.8224 6.94828 14.799 6.94921 14.7755 6.94921Z" fill="#DBE2E6"/>
<path d="M6.91921 21.0938C6.75666 21.0936 6.59917 21.0372 6.47354 20.934C6.34791 20.8309 6.2619 20.6874 6.23015 20.528L5.63296 17.5336C5.61377 17.4374 5.61494 17.3382 5.63639 17.2424C5.65784 17.1466 5.6991 17.0564 5.75751 16.9776C5.81593 16.8987 5.8902 16.833 5.97556 16.7845C6.06091 16.7361 6.15546 16.7061 6.25312 16.6964L9.24749 16.3978C9.43304 16.3792 9.61839 16.435 9.76278 16.553C9.90717 16.671 9.99876 16.8416 10.0174 17.0271C10.0361 17.2127 9.98024 17.398 9.86222 17.5424C9.7442 17.6868 9.57366 17.7784 9.38812 17.797L7.16483 18.0188L7.61015 20.2533C7.63048 20.3554 7.62789 20.4607 7.60257 20.5617C7.57725 20.6626 7.52982 20.7567 7.46371 20.8371C7.39761 20.9176 7.31447 20.9823 7.22031 21.0267C7.12615 21.071 7.02331 21.094 6.91921 21.0938Z" fill="#DBE2E6"/>
</svg>
