<svg width="24" height="24" viewBox="0 0 24 24" fill="none" xmlns="http://www.w3.org/2000/svg">
<path d="M19.3594 16.5539H4.55813C4.02242 16.5534 3.50879 16.3404 3.12994 15.9617C2.75109 15.5829 2.53797 15.0693 2.53735 14.5336V4.70438C2.53797 4.16862 2.75108 3.65499 3.12991 3.27615C3.50875 2.89732 4.02238 2.68421 4.55813 2.68359H19.3594C19.8951 2.68421 20.4087 2.89733 20.7874 3.27618C21.1662 3.65503 21.3792 4.16866 21.3797 4.70438V14.5336C21.3792 15.0693 21.1662 15.5828 20.7874 15.9616C20.4086 16.3404 19.8951 16.5534 19.3594 16.5539ZM4.55813 4.08984C4.39519 4.08997 4.23895 4.15475 4.12373 4.26997C4.00851 4.38519 3.94373 4.54143 3.9436 4.70438V14.5336C3.94385 14.6965 4.00869 14.8526 4.1239 14.9677C4.2391 15.0828 4.39527 15.1475 4.55813 15.1477H19.3594C19.5222 15.1474 19.6782 15.0826 19.7933 14.9675C19.9084 14.8524 19.9732 14.6964 19.9734 14.5336V4.70438C19.9733 4.54151 19.9086 4.38534 19.7935 4.27014C19.6784 4.15493 19.5222 4.09009 19.3594 4.08984H4.55813Z" fill="#DBE2E6"/>
<path d="M15.1935 19.0148H8.72478C8.61092 19.0147 8.4988 18.9869 8.39806 18.9339C8.29731 18.8809 8.21095 18.8042 8.1464 18.7104C8.08185 18.6166 8.04103 18.5085 8.02747 18.3955C8.0139 18.2825 8.02799 18.1678 8.06853 18.0614L9.00603 15.6005C9.05671 15.4674 9.14658 15.3529 9.26376 15.2721C9.38094 15.1912 9.51991 15.1478 9.66228 15.1477H14.256C14.3984 15.1478 14.5374 15.1912 14.6545 15.2721C14.7717 15.3529 14.8616 15.4674 14.9123 15.6005L15.8498 18.0614C15.8903 18.1678 15.9044 18.2825 15.8908 18.3955C15.8773 18.5085 15.8365 18.6166 15.7719 18.7104C15.7074 18.8042 15.621 18.8809 15.5202 18.9339C15.4195 18.9869 15.3074 19.0147 15.1935 19.0148ZM9.74524 17.6086H14.1731L13.7713 16.5539H10.1474L9.74524 17.6086Z" fill="#DBE2E6"/>
<path d="M16.6223 19.0148H7.29419C7.10771 19.0148 6.92887 18.9408 6.79701 18.8089C6.66514 18.677 6.59106 18.4982 6.59106 18.3117C6.59106 18.1252 6.66514 17.9464 6.79701 17.8145C6.92887 17.6827 7.10771 17.6086 7.29419 17.6086H16.6223C16.8088 17.6086 16.9876 17.6827 17.1195 17.8145C17.2514 17.9464 17.3254 18.1252 17.3254 18.3117C17.3254 18.4982 17.2514 18.677 17.1195 18.8089C16.9876 18.9408 16.8088 19.0148 16.6223 19.0148Z" fill="#DBE2E6"/>
<path d="M20.678 14.2341H3.24048C3.054 14.2341 2.87516 14.16 2.74329 14.0281C2.61143 13.8963 2.53735 13.7174 2.53735 13.5309C2.53735 13.3445 2.61143 13.1656 2.74329 13.0338C2.87516 12.9019 3.054 12.8278 3.24048 12.8278H20.678C20.8645 12.8278 21.0433 12.9019 21.1752 13.0338C21.307 13.1656 21.3811 13.3445 21.3811 13.5309C21.3811 13.7174 21.307 13.8963 21.1752 14.0281C21.0433 14.16 20.8645 14.2341 20.678 14.2341Z" fill="#DBE2E6"/>
</svg>
