<svg width="24" height="24" viewBox="0 0 24 24" fill="none" xmlns="http://www.w3.org/2000/svg">
<path d="M13.663 21.0909C13.5312 21.0909 13.4021 21.0537 13.2904 20.9838C13.1786 20.9138 13.0888 20.8139 13.0312 20.6953L9.72648 13.9017L2.93289 10.5975C2.81051 10.5379 2.70807 10.444 2.63803 10.3272C2.56799 10.2105 2.53335 10.0759 2.53831 9.93983C2.54327 9.80378 2.58763 9.67209 2.66599 9.56076C2.74436 9.44943 2.85336 9.36324 2.97976 9.31266L20.413 2.30063C20.541 2.24907 20.6812 2.23627 20.8164 2.26382C20.9515 2.29138 21.0756 2.35806 21.1731 2.45559C21.2706 2.55311 21.3373 2.67717 21.3648 2.81231C21.3924 2.94745 21.3796 3.08771 21.328 3.21563L14.3155 20.6503C14.2647 20.7766 14.1783 20.8855 14.0668 20.9636C13.9553 21.0417 13.8235 21.0858 13.6874 21.0905L13.663 21.0909ZM4.97335 10.0284L10.5599 12.7472C10.7015 12.816 10.8159 12.9304 10.8848 13.072L13.6035 18.6586L19.4062 4.21876L4.97335 10.0284Z" fill="#DBE2E6"/>
<path d="M10.2525 14.079C10.1135 14.0789 9.97753 14.0377 9.86191 13.9604C9.7463 13.8831 9.6562 13.7732 9.60301 13.6447C9.54983 13.5162 9.53594 13.3749 9.56311 13.2385C9.59028 13.1021 9.65729 12.9768 9.75566 12.8785L20.1783 2.45584C20.2436 2.39056 20.3212 2.33878 20.4065 2.30346C20.4918 2.26815 20.5832 2.24998 20.6756 2.25C20.7679 2.25002 20.8594 2.26823 20.9447 2.30359C21.03 2.33895 21.1075 2.39076 21.1728 2.45608C21.2381 2.52139 21.2898 2.59892 21.3251 2.68424C21.3605 2.76956 21.3786 2.86101 21.3786 2.95335C21.3786 3.04569 21.3604 3.13713 21.325 3.22243C21.2897 3.30774 21.2378 3.38525 21.1725 3.45053L10.7499 13.8751C10.6176 14.0062 10.4388 14.0795 10.2525 14.079Z" fill="#DBE2E6"/>
</svg>
