<svg width="24" height="24" viewBox="0 0 24 24" fill="none" xmlns="http://www.w3.org/2000/svg">
<path d="M6.72468 20.798C5.89648 20.7981 5.08685 20.5526 4.39819 20.0925C3.70952 19.6324 3.17275 18.9785 2.85574 18.2134C2.53874 17.4482 2.45575 16.6063 2.61727 15.794C2.77879 14.9817 3.17755 14.2355 3.76315 13.6499C4.34874 13.0642 5.09485 12.6654 5.90713 12.5038C6.71941 12.3422 7.56137 12.4251 8.32653 12.742C9.09169 13.0589 9.74569 13.5956 10.2058 14.2842C10.666 14.9728 10.9116 15.7824 10.9116 16.6106C10.9103 17.7207 10.4688 18.785 9.6839 19.57C8.899 20.355 7.83477 20.7966 6.72468 20.798ZM6.72468 13.83C6.17459 13.8299 5.63683 13.9929 5.17941 14.2985C4.72199 14.6041 4.36546 15.0384 4.1549 15.5466C3.94435 16.0548 3.88924 16.614 3.99653 17.1535C4.10383 17.6931 4.36871 18.1887 4.75768 18.5776C5.14665 18.9666 5.64224 19.2315 6.18176 19.3388C6.72128 19.4461 7.28051 19.391 7.78871 19.1804C8.2969 18.9698 8.73125 18.6133 9.0368 18.1559C9.34236 17.6985 9.5054 17.1607 9.5053 16.6106C9.50493 15.8731 9.21191 15.1659 8.69058 14.6442C8.16925 14.1225 7.46221 13.829 6.72468 13.8281V13.83Z" fill="#DBE2E6"/>
<path d="M17.1942 20.798C16.366 20.7981 15.5563 20.5526 14.8677 20.0925C14.179 19.6324 13.6422 18.9785 13.3252 18.2134C13.0082 17.4482 12.9252 16.6063 13.0868 15.794C13.2483 14.9817 13.647 14.2355 14.2326 13.6499C14.8182 13.0642 15.5643 12.6654 16.3766 12.5038C17.1889 12.3422 18.0308 12.4251 18.796 12.742C19.5612 13.0589 20.2152 13.5956 20.6753 14.2842C21.1354 14.9728 21.381 15.7824 21.381 16.6106C21.3799 17.7208 20.9385 18.7851 20.1535 19.5701C19.3686 20.3551 18.3043 20.7967 17.1942 20.798ZM17.1942 13.83C16.6441 13.8299 16.1063 13.9929 15.6489 14.2985C15.1915 14.6041 14.8349 15.0384 14.6244 15.5466C14.4138 16.0548 14.3587 16.614 14.466 17.1535C14.5733 17.6931 14.8382 18.1887 15.2272 18.5776C15.6161 18.9666 16.1117 19.2315 16.6512 19.3388C17.1908 19.4461 17.75 19.391 18.2582 19.1804C18.7664 18.9698 19.2007 18.6133 19.5063 18.1559C19.8118 17.6985 19.9749 17.1607 19.9748 16.6106C19.9744 15.8731 19.6814 15.1659 19.1601 14.6442C18.6387 14.1225 17.9317 13.829 17.1942 13.8281V13.83Z" fill="#DBE2E6"/>
<path d="M13.7105 17.3137H10.2085C10.022 17.3137 9.84317 17.2397 9.71131 17.1078C9.57945 16.9759 9.50537 16.7971 9.50537 16.6106C9.50537 16.4241 9.57945 16.2453 9.71131 16.1134C9.84317 15.9816 10.022 15.9075 10.2085 15.9075H13.7105C13.897 15.9075 14.0758 15.9816 14.2077 16.1134C14.3396 16.2453 14.4137 16.4241 14.4137 16.6106C14.4137 16.7971 14.3396 16.9759 14.2077 17.1078C14.0758 17.2397 13.897 17.3137 13.7105 17.3137Z" fill="#DBE2E6"/>
<path d="M3.24048 17.3137C3.054 17.3137 2.87516 17.2397 2.74329 17.1078C2.61143 16.9759 2.53735 16.7971 2.53735 16.6106V6.51984C2.53735 5.91999 2.77564 5.34471 3.1998 4.92056C3.62395 4.49641 4.19923 4.25812 4.79907 4.25812C5.39892 4.25812 5.97419 4.49641 6.39835 4.92056C6.8225 5.34471 7.06079 5.91999 7.06079 6.51984C7.06079 6.70632 6.98671 6.88516 6.85485 7.01702C6.72299 7.14888 6.54415 7.22296 6.35767 7.22296C6.17119 7.22296 5.99234 7.14888 5.86048 7.01702C5.72862 6.88516 5.65454 6.70632 5.65454 6.51984C5.65454 6.29295 5.56441 6.07536 5.40398 5.91493C5.24355 5.7545 5.02596 5.66437 4.79907 5.66437C4.57219 5.66437 4.3546 5.7545 4.19416 5.91493C4.03373 6.07536 3.9436 6.29295 3.9436 6.51984V16.6106C3.9436 16.7971 3.86952 16.9759 3.73766 17.1078C3.6058 17.2397 3.42696 17.3137 3.24048 17.3137Z" fill="#DBE2E6"/>
<path d="M20.678 17.3137C20.4915 17.3137 20.3127 17.2397 20.1808 17.1078C20.0489 16.9759 19.9749 16.7971 19.9749 16.6106V6.51984C19.9749 6.29295 19.8847 6.07536 19.7243 5.91493C19.5639 5.7545 19.3463 5.66437 19.1194 5.66437C18.8925 5.66437 18.6749 5.7545 18.5145 5.91493C18.354 6.07536 18.2639 6.29295 18.2639 6.51984C18.2639 6.70632 18.1898 6.88516 18.058 7.01702C17.9261 7.14888 17.7473 7.22296 17.5608 7.22296C17.3743 7.22296 17.1955 7.14888 17.0636 7.01702C16.9317 6.88516 16.8577 6.70632 16.8577 6.51984C16.8577 5.91999 17.096 5.34471 17.5201 4.92056C17.9443 4.49641 18.5195 4.25812 19.1194 4.25812C19.7192 4.25812 20.2945 4.49641 20.7187 4.92056C21.1428 5.34471 21.3811 5.91999 21.3811 6.51984V16.6106C21.3811 16.7971 21.307 16.9759 21.1752 17.1078C21.0433 17.2397 20.8645 17.3137 20.678 17.3137Z" fill="#DBE2E6"/>
</svg>
