<svg width="24" height="24" viewBox="0 0 24 24" fill="none" xmlns="http://www.w3.org/2000/svg">
<path d="M17.8125 21.0937H6.70312C6.51664 21.0937 6.3378 21.0197 6.20594 20.8878C6.07408 20.7559 6 20.5771 6 20.3906V10.0153C6 9.82882 6.07408 9.64998 6.20594 9.51812C6.3378 9.38626 6.51664 9.31218 6.70312 9.31218H17.8125C17.999 9.31218 18.1778 9.38626 18.3097 9.51812C18.4415 9.64998 18.5156 9.82882 18.5156 10.0153V20.3906C18.5156 20.5771 18.4415 20.7559 18.3097 20.8878C18.1778 21.0197 17.999 21.0937 17.8125 21.0937ZM7.40625 19.6875H17.1094V10.7184H7.40625V19.6875Z" fill="#DBE2E6"/>
<path d="M16.4841 10.7184H8.03491C7.84843 10.7184 7.66959 10.6444 7.53773 10.5125C7.40587 10.3806 7.33179 10.2018 7.33179 10.0153V7.1775C7.34445 5.87891 7.8692 4.63781 8.79196 3.72401C9.71471 2.81021 10.9609 2.29759 12.2595 2.29759C13.5582 2.29759 14.8043 2.81021 15.7271 3.72401C16.6498 4.63781 17.1746 5.87891 17.1873 7.1775V10.0153C17.1873 10.2018 17.1132 10.3806 16.9813 10.5125C16.8495 10.6444 16.6706 10.7184 16.4841 10.7184ZM8.73804 9.31219H15.781V7.1775C15.7703 6.25058 15.3946 5.36526 14.7353 4.71357C14.0761 4.06189 13.1865 3.69641 12.2595 3.69641C11.3325 3.69641 10.4429 4.06189 9.7837 4.71357C9.12445 5.36526 8.74873 6.25058 8.73804 7.1775V9.31219Z" fill="#DBE2E6"/>
<path d="M12.2598 16.5314C11.8287 16.5314 11.4072 16.4036 11.0488 16.1641C10.6903 15.9246 10.411 15.5841 10.246 15.1858C10.081 14.7876 10.0379 14.3493 10.122 13.9265C10.2061 13.5037 10.4137 13.1153 10.7185 12.8104C11.0233 12.5056 11.4117 12.298 11.8345 12.2139C12.2573 12.1298 12.6956 12.173 13.0939 12.3379C13.4922 12.5029 13.8326 12.7823 14.0721 13.1407C14.3116 13.4992 14.4395 13.9206 14.4395 14.3517C14.4388 14.9296 14.209 15.4837 13.8004 15.8923C13.3917 16.3009 12.8377 16.5308 12.2598 16.5314ZM12.2598 13.5783C12.1068 13.5783 11.9573 13.6236 11.8301 13.7086C11.7029 13.7936 11.6037 13.9144 11.5452 14.0557C11.4867 14.1971 11.4713 14.3526 11.5012 14.5026C11.531 14.6526 11.6047 14.7905 11.7129 14.8986C11.821 15.0068 11.9588 15.0804 12.1089 15.1103C12.2589 15.1401 12.4144 15.1248 12.5557 15.0663C12.6971 15.0077 12.8179 14.9086 12.9029 14.7814C12.9878 14.6542 13.0332 14.5047 13.0332 14.3517C13.033 14.1467 12.9514 13.9501 12.8064 13.8051C12.6614 13.6601 12.4648 13.5785 12.2598 13.5783Z" fill="#DBE2E6"/>
<path d="M12.2598 18.2344C12.0733 18.2344 11.8944 18.1603 11.7626 18.0284C11.6307 17.8966 11.5566 17.7177 11.5566 17.5312V15.8283C11.5566 15.6418 11.6307 15.463 11.7626 15.3311C11.8944 15.1992 12.0733 15.1252 12.2598 15.1252C12.4462 15.1252 12.6251 15.1992 12.757 15.3311C12.8888 15.463 12.9629 15.6418 12.9629 15.8283V17.5312C12.9629 17.7177 12.8888 17.8966 12.757 18.0284C12.6251 18.1603 12.4462 18.2344 12.2598 18.2344Z" fill="#DBE2E6"/>
</svg>
