<svg width="24" height="24" viewBox="0 0 24 24" fill="none" xmlns="http://www.w3.org/2000/svg">
<path d="M15.2017 18.173H8.71884C8.53236 18.173 8.35352 18.0989 8.22165 17.967C8.08979 17.8352 8.01571 17.6563 8.01571 17.4698V11.0531H5.38181C5.24579 11.0532 5.11268 11.0138 4.99861 10.9397C4.88453 10.8656 4.7944 10.76 4.73913 10.6357C4.68386 10.5114 4.66583 10.3738 4.68721 10.2394C4.7086 10.1051 4.76849 9.97988 4.85962 9.8789L11.4376 2.58281C11.5035 2.50962 11.5841 2.4511 11.6741 2.41104C11.7641 2.37098 11.8615 2.35028 11.96 2.35028C12.0585 2.35028 12.1559 2.37098 12.2459 2.41104C12.3359 2.4511 12.4165 2.50962 12.4824 2.58281L19.0595 9.8789C19.1506 9.97988 19.2105 10.1051 19.2319 10.2394C19.2533 10.3738 19.2352 10.5114 19.18 10.6357C19.1247 10.76 19.0345 10.8656 18.9205 10.9397C18.8064 11.0138 18.6733 11.0532 18.5373 11.0531H15.9048V17.4698C15.9048 17.6563 15.8307 17.8352 15.6988 17.967C15.567 18.0989 15.3881 18.173 15.2017 18.173ZM9.42196 16.7667H14.4985V10.35C14.4985 10.1635 14.5726 9.98467 14.7045 9.85281C14.8363 9.72095 15.0152 9.64687 15.2017 9.64687H16.9566L11.9593 4.1039L6.96243 9.64687H8.71884C8.90532 9.64687 9.08416 9.72095 9.21602 9.85281C9.34788 9.98467 9.42196 10.1635 9.42196 10.35V16.7667Z" fill="#DBE2E6"/>
<path d="M18.3206 21.1945H5.59829C4.78675 21.1937 4.00869 20.8709 3.43484 20.297C2.86099 19.7232 2.53822 18.9451 2.53735 18.1336V16.3444C2.53735 16.1579 2.61143 15.9791 2.74329 15.8472C2.87516 15.7153 3.054 15.6413 3.24048 15.6413C3.42696 15.6413 3.6058 15.7153 3.73766 15.8472C3.86952 15.9791 3.9436 16.1579 3.9436 16.3444V18.1336C3.9441 18.5723 4.11859 18.9929 4.4288 19.3031C4.73901 19.6133 5.15959 19.7878 5.59829 19.7883H18.3206C18.7593 19.7878 19.1798 19.6133 19.49 19.3031C19.8001 18.9928 19.9745 18.5723 19.9749 18.1336V16.3444C19.9749 16.1579 20.0489 15.9791 20.1808 15.8472C20.3127 15.7153 20.4915 15.6413 20.678 15.6413C20.8645 15.6413 21.0433 15.7153 21.1752 15.8472C21.307 15.9791 21.3811 16.1579 21.3811 16.3444V18.1336C21.3802 18.9451 21.0575 19.723 20.4838 20.2969C19.91 20.8707 19.1321 21.1935 18.3206 21.1945Z" fill="#DBE2E6"/>
</svg>
