<svg width="24" height="24" viewBox="0 0 24 24" fill="none" xmlns="http://www.w3.org/2000/svg">
<path d="M10.7813 21.3623C8.59533 21.3607 6.4994 20.4917 4.95372 18.946C3.40804 17.4003 2.53897 15.3044 2.53735 13.1184C2.53782 8.57297 6.23438 4.875 10.7813 4.875C10.9677 4.875 11.1466 4.94908 11.2784 5.08094C11.4103 5.2128 11.4844 5.39164 11.4844 5.57812V12.4153H18.322C18.5085 12.4153 18.6874 12.4894 18.8192 12.6213C18.9511 12.7531 19.0252 12.932 19.0252 13.1184C19.0252 17.6639 15.3281 21.3623 10.7813 21.3623ZM10.0781 6.31547C6.63704 6.66844 3.94407 9.58406 3.9436 13.117C3.94484 14.9302 4.66559 16.6688 5.94759 17.9511C7.22959 19.2334 8.96805 19.9545 10.7813 19.9561C14.3142 19.9561 17.2299 17.2631 17.5828 13.8216H10.7813C10.5948 13.8216 10.4159 13.7475 10.2841 13.6156C10.1522 13.4838 10.0781 13.3049 10.0781 13.1184V6.31547Z" fill="#DBE2E6"/>
<path d="M20.6779 11.6545H12.9482C12.7618 11.6545 12.5829 11.5805 12.4511 11.4486C12.3192 11.3167 12.2451 11.1379 12.2451 10.9514V3.22173C12.2451 3.03525 12.3192 2.8564 12.4511 2.72454C12.5829 2.59268 12.7618 2.5186 12.9482 2.5186C17.5982 2.5186 21.3811 6.30188 21.3811 10.9514C21.3811 11.1379 21.307 11.3167 21.1751 11.4486C21.0433 11.5805 20.8644 11.6545 20.6779 11.6545ZM13.6514 10.2483H19.9401C19.7757 8.63648 19.0603 7.13074 17.9147 5.98515C16.769 4.83956 15.2632 4.12428 13.6514 3.96001V10.2483Z" fill="#DBE2E6"/>
</svg>
