<svg width="24" height="24" viewBox="0 0 24 24" fill="none" xmlns="http://www.w3.org/2000/svg">
<path d="M16.7179 21.0937H8.03755C7.52946 21.0925 7.04253 20.8901 6.68326 20.5308C6.32399 20.1716 6.1216 19.6846 6.12036 19.1766V5.65593C6.12036 5.46945 6.19444 5.29061 6.3263 5.15874C6.45816 5.02688 6.63701 4.9528 6.82349 4.9528H17.9329C18.1193 4.9528 18.2982 5.02688 18.43 5.15874C18.5619 5.29061 18.636 5.46945 18.636 5.65593V19.1766C18.6347 19.6848 18.4322 20.1719 18.0728 20.5312C17.7133 20.8905 17.2261 21.0928 16.7179 21.0937ZM7.52661 6.35905V19.1766C7.52674 19.312 7.58061 19.4419 7.6764 19.5377C7.77219 19.6335 7.90208 19.6874 8.03755 19.6875H16.7179C16.8534 19.6875 16.9834 19.6337 17.0793 19.5379C17.1752 19.4421 17.2291 19.3121 17.2293 19.1766V6.35905H7.52661Z" fill="#DBE2E6"/>
<path d="M15.3308 6.35906H9.42456C9.23808 6.35906 9.05924 6.28498 8.92738 6.15312C8.79551 6.02126 8.72144 5.84241 8.72144 5.65593V4.37812C8.72218 3.82218 8.94339 3.28924 9.33654 2.89617C9.72969 2.50311 10.2627 2.28202 10.8186 2.2814H13.9367C14.4927 2.28202 15.0257 2.50311 15.4188 2.89617C15.812 3.28924 16.0332 3.82218 16.0339 4.37812V5.65593C16.0339 5.84241 15.9599 6.02126 15.828 6.15312C15.6961 6.28498 15.5173 6.35906 15.3308 6.35906ZM10.1277 4.95281H14.6277V4.37812C14.6274 4.19499 14.5545 4.01944 14.425 3.88999C14.2955 3.76055 14.1199 3.68778 13.9367 3.68765H10.8186C10.6356 3.6879 10.4601 3.76073 10.3307 3.89016C10.2012 4.01959 10.1284 4.19507 10.1282 4.37812L10.1277 4.95281Z" fill="#DBE2E6"/>
<path d="M12.3777 18.4022C12.1912 18.4022 12.0124 18.3281 11.8805 18.1962C11.7486 18.0644 11.6746 17.8855 11.6746 17.6991V8.34796C11.6746 8.16148 11.7486 7.98264 11.8805 7.85078C12.0124 7.71892 12.1912 7.64484 12.3777 7.64484C12.5642 7.64484 12.743 7.71892 12.8749 7.85078C13.0067 7.98264 13.0808 8.16148 13.0808 8.34796V17.6991C13.0808 17.8855 13.0067 18.0644 12.8749 18.1962C12.743 18.3281 12.5642 18.4022 12.3777 18.4022Z" fill="#DBE2E6"/>
<path d="M9.83887 18.4022C9.65239 18.4022 9.47354 18.3281 9.34168 18.1962C9.20982 18.0644 9.13574 17.8855 9.13574 17.6991V8.34796C9.13574 8.16148 9.20982 7.98264 9.34168 7.85078C9.47354 7.71892 9.65239 7.64484 9.83887 7.64484C10.0253 7.64484 10.2042 7.71892 10.3361 7.85078C10.4679 7.98264 10.542 8.16148 10.542 8.34796V17.6991C10.542 17.8855 10.4679 18.0644 10.3361 18.1962C10.2042 18.3281 10.0253 18.4022 9.83887 18.4022Z" fill="#DBE2E6"/>
<path d="M14.917 18.4022C14.7305 18.4022 14.5517 18.3281 14.4198 18.1962C14.2879 18.0644 14.2139 17.8855 14.2139 17.6991V8.34796C14.2139 8.16148 14.2879 7.98264 14.4198 7.85078C14.5517 7.71892 14.7305 7.64484 14.917 7.64484C15.1035 7.64484 15.2823 7.71892 15.4142 7.85078C15.546 7.98264 15.6201 8.16148 15.6201 8.34796V17.6991C15.6201 17.8855 15.546 18.0644 15.4142 18.1962C15.2823 18.3281 15.1035 18.4022 14.917 18.4022Z" fill="#DBE2E6"/>
<path d="M19.0222 6.35905H5.73364C5.54716 6.35905 5.36832 6.28498 5.23646 6.15311C5.1046 6.02125 5.03052 5.84241 5.03052 5.65593C5.03052 5.46945 5.1046 5.29061 5.23646 5.15874C5.36832 5.02688 5.54716 4.9528 5.73364 4.9528H19.0222C19.2087 4.9528 19.3876 5.02688 19.5194 5.15874C19.6513 5.29061 19.7254 5.46945 19.7254 5.65593C19.7254 5.84241 19.6513 6.02125 19.5194 6.15311C19.3876 6.28498 19.2087 6.35905 19.0222 6.35905Z" fill="#DBE2E6"/>
</svg>
