<svg width="24" height="24" viewBox="0 0 24 24" fill="none" xmlns="http://www.w3.org/2000/svg">
<path d="M14.4613 21.0937H3.77759C3.59111 21.0937 3.41227 21.0197 3.2804 20.8878C3.14854 20.7559 3.07446 20.5771 3.07446 20.3906V6.74672C3.07446 6.56024 3.14854 6.3814 3.2804 6.24954C3.41227 6.11767 3.59111 6.04359 3.77759 6.04359H14.4613C14.6478 6.04359 14.8267 6.11767 14.9585 6.24954C15.0904 6.3814 15.1645 6.56024 15.1645 6.74672V20.3906C15.1645 20.5771 15.0904 20.7559 14.9585 20.8878C14.8267 21.0197 14.6478 21.0937 14.4613 21.0937ZM4.48071 19.6875H13.7582V7.44984H4.48071V19.6875Z" fill="#DBE2E6"/>
<path d="M18.255 17.3002H14.4614C14.275 17.3002 14.0961 17.2261 13.9643 17.0942C13.8324 16.9624 13.7583 16.7835 13.7583 16.597C13.7583 16.4105 13.8324 16.2317 13.9643 16.0998C14.0961 15.968 14.275 15.8939 14.4614 15.8939H17.5519V3.65625H8.27441V6.74625C8.27441 6.93273 8.20033 7.11157 8.06847 7.24343C7.93661 7.37529 7.75777 7.44937 7.57129 7.44937C7.38481 7.44937 7.20597 7.37529 7.0741 7.24343C6.94224 7.11157 6.86816 6.93273 6.86816 6.74625V2.95312C6.86816 2.76664 6.94224 2.5878 7.0741 2.45594C7.20597 2.32408 7.38481 2.25 7.57129 2.25H18.255C18.4415 2.25 18.6204 2.32408 18.7522 2.45594C18.8841 2.5878 18.9582 2.76664 18.9582 2.95312V16.597C18.9582 16.7835 18.8841 16.9624 18.7522 17.0942C18.6204 17.2261 18.4415 17.3002 18.255 17.3002Z" fill="#DBE2E6"/>
</svg>
