<svg width="24" height="24" viewBox="0 0 24 24" fill="none" xmlns="http://www.w3.org/2000/svg">
<path d="M16.584 17.28H6.34275C5.3772 17.2791 4.44812 16.9111 3.74378 16.2507C3.03945 15.5902 2.61255 14.6867 2.5496 13.7232C2.48666 12.7597 2.79237 11.8083 3.4048 11.0618C4.01722 10.3154 4.89053 9.82965 5.84775 9.70312C6.14825 8.59409 6.76047 7.59449 7.61183 6.82284C8.46318 6.05119 9.51796 5.53985 10.6511 5.34946C11.7842 5.15907 12.9482 5.2976 14.005 5.74864C15.0618 6.19968 15.9671 6.9443 16.6135 7.89422C17.8505 7.90985 19.0314 8.41321 19.8992 9.29485C20.767 10.1765 21.2517 11.3651 21.2478 12.6022C21.2439 13.8393 20.7518 15.0248 19.8784 15.901C19.005 16.7772 17.8211 17.2731 16.584 17.2809V17.28ZM6.34275 11.0766C5.70661 11.0766 5.09651 11.3293 4.64669 11.7791C4.19687 12.2289 3.94416 12.839 3.94416 13.4752C3.94416 14.1113 4.19687 14.7214 4.64669 15.1712C5.09651 15.621 5.70661 15.8738 6.34275 15.8738H16.584C17.449 15.8634 18.2751 15.5126 18.8831 14.8972C19.4911 14.2819 19.8321 13.4517 19.8321 12.5866C19.8321 11.7216 19.4911 10.8914 18.8831 10.2761C18.2751 9.66073 17.449 9.30986 16.584 9.29953C16.4949 9.29953 16.4012 9.30375 16.2967 9.31312C16.1638 9.32459 16.0304 9.29802 15.912 9.23652C15.7936 9.17502 15.6952 9.08112 15.6282 8.96578C15.1541 8.14795 14.4397 7.49597 13.582 7.09849C12.7243 6.70101 11.765 6.57731 10.8346 6.74422C9.90412 6.91113 9.04764 7.36054 8.38159 8.03135C7.71554 8.70216 7.27224 9.56182 7.11197 10.4934C7.08352 10.66 6.99605 10.8107 6.86555 10.9181C6.73505 11.0254 6.57026 11.0822 6.40135 11.078H6.36853L6.34275 11.0766Z" fill="#DBE2E6"/>
</svg>
