<svg width="24" height="24" viewBox="0 0 24 24" fill="none" xmlns="http://www.w3.org/2000/svg">
<path d="M18.922 8.80968C18.7784 8.80953 18.635 8.79966 18.4927 8.78015C17.6541 8.66765 16.8286 8.24203 16.1691 7.5825C15.5095 6.9225 15.0839 6.0975 14.9709 5.25843C14.8505 4.36218 15.1083 3.52078 15.6792 2.94984C16.2502 2.3789 17.0916 2.12062 17.9878 2.24156C18.8269 2.35453 19.6523 2.77968 20.3119 3.43968C20.9714 4.09968 21.397 4.92468 21.51 5.76328C21.6305 6.66 21.3722 7.5014 20.8017 8.07234C20.3231 8.55047 19.6542 8.80968 18.922 8.80968ZM17.1633 6.58781C17.5997 7.02468 18.1528 7.31578 18.6806 7.38468C19.1452 7.4475 19.5455 7.33781 19.8056 7.07578C20.0658 6.81375 20.1773 6.4139 20.1145 5.95078C20.0437 5.42297 19.7527 4.86984 19.3177 4.43343C18.4687 3.58453 17.2575 3.36047 16.6734 3.94406C16.0894 4.52765 16.3139 5.7389 17.1633 6.58781Z" fill="#DBE2E6"/>
<path d="M8.8761 18.855C8.73264 18.855 8.58935 18.8453 8.4472 18.8259C7.60813 18.713 6.78266 18.2878 6.12313 17.6278C5.4636 16.9678 5.03798 16.1428 4.92501 15.3042C4.80454 14.4075 5.06282 13.5661 5.63329 12.9952C5.76519 12.8633 5.94409 12.7892 6.13063 12.7892C6.31717 12.7892 6.49607 12.8633 6.62798 12.9952C6.75988 13.1271 6.83398 13.306 6.83398 13.4925C6.83398 13.679 6.75988 13.8579 6.62798 13.9898C6.36594 14.2514 6.25626 14.6517 6.3186 15.1148C6.38985 15.6427 6.68095 16.1958 7.11548 16.6322C7.9686 17.4844 9.17751 17.707 9.76157 17.1234C9.82643 17.0563 9.90402 17.0027 9.9898 16.9659C10.0756 16.929 10.1678 16.9096 10.2612 16.9088C10.3546 16.908 10.4472 16.9258 10.5336 16.9611C10.62 16.9965 10.6985 17.0487 10.7645 17.1147C10.8305 17.1807 10.8827 17.2592 10.9181 17.3457C10.9534 17.4321 10.9712 17.5247 10.9704 17.618C10.9696 17.7114 10.9502 17.8036 10.9134 17.8894C10.8765 17.9752 10.8229 18.0528 10.7558 18.1177C10.2772 18.5963 9.60923 18.855 8.8761 18.855Z" fill="#DBE2E6"/>
<path d="M3.36042 21.0937C3.25516 21.0937 3.15125 21.0701 3.05636 21.0245C2.96146 20.979 2.878 20.9127 2.81213 20.8306C2.74627 20.7485 2.69968 20.6526 2.6758 20.5501C2.65192 20.4476 2.65137 20.341 2.67417 20.2383C2.68636 20.1834 2.97699 18.8789 3.38058 17.4398C4.13808 14.7398 4.59511 14.0334 4.9087 13.7198L15.6792 2.94984C15.744 2.88268 15.8216 2.82912 15.9074 2.79227C15.9932 2.75542 16.0855 2.73602 16.1788 2.73521C16.2722 2.7344 16.3648 2.75219 16.4512 2.78754C16.5376 2.8229 16.6161 2.87511 16.6821 2.94112C16.7481 3.00714 16.8003 3.08565 16.8357 3.17206C16.871 3.25847 16.8888 3.35106 16.888 3.44442C16.8872 3.53778 16.8678 3.63004 16.831 3.71583C16.7941 3.80161 16.7405 3.8792 16.6734 3.94406L5.90339 14.7145C5.86074 14.7567 5.46886 15.2034 4.73433 17.82C4.5698 18.4064 4.42261 18.9773 4.30777 19.4437C4.77652 19.328 5.34886 19.1808 5.93667 19.0153C8.54855 18.2822 8.9948 17.8903 9.03699 17.8481L19.807 7.07812C19.9388 6.94622 20.1177 6.87209 20.3042 6.87205C20.4907 6.872 20.6695 6.94604 20.8014 7.07789C20.9333 7.20973 21.0075 7.38857 21.0075 7.57506C21.0076 7.76156 20.9335 7.94044 20.8017 8.07234L10.0312 18.8437C9.71761 19.1573 9.01167 19.6144 6.3112 20.3723C4.87449 20.7755 3.56761 21.0661 3.51277 21.0783C3.4627 21.089 3.41162 21.0942 3.36042 21.0937Z" fill="#DBE2E6"/>
<path d="M18.3576 6.33141C18.2652 6.33139 18.1737 6.31316 18.0884 6.27777C18.003 6.24238 17.9255 6.19052 17.8602 6.12516L17.6258 5.89078C17.4978 5.75817 17.4269 5.58056 17.4285 5.3962C17.4301 5.21185 17.504 5.03549 17.6344 4.90513C17.7648 4.77476 17.9411 4.70082 18.1255 4.69921C18.3098 4.69761 18.4875 4.76848 18.6201 4.89656L18.8544 5.13094C18.9528 5.22925 19.0198 5.35452 19.047 5.49091C19.0742 5.6273 19.0603 5.76868 19.0071 5.89718C18.9539 6.02568 18.8638 6.13552 18.7482 6.21282C18.6326 6.29011 18.4966 6.33138 18.3576 6.33141Z" fill="#DBE2E6"/>
</svg>
