<svg width="24" height="24" viewBox="0 0 24 24" fill="none" xmlns="http://www.w3.org/2000/svg">
<path d="M18.4219 21.0938C18.2991 21.0937 18.1785 21.0614 18.0722 21L12.0469 17.5448L6.02156 21C5.91469 21.0613 5.7936 21.0934 5.67041 21.0931C5.54722 21.0929 5.42626 21.0602 5.31965 20.9985C5.21303 20.9368 5.1245 20.8482 5.06292 20.7415C5.00133 20.6348 4.96886 20.5138 4.96875 20.3906V2.95312C4.96875 2.76664 5.04283 2.5878 5.17469 2.45594C5.30655 2.32408 5.48539 2.25 5.67188 2.25H18.4219C18.6084 2.25 18.7872 2.32408 18.9191 2.45594C19.0509 2.5878 19.125 2.76664 19.125 2.95312V20.3906C19.125 20.5771 19.0509 20.7559 18.9191 20.8878C18.7872 21.0197 18.6084 21.0938 18.4219 21.0938ZM12.0469 16.0312C12.1696 16.0313 12.2902 16.0636 12.3966 16.125L17.7188 19.1766V3.65625H6.375V19.1766L11.6972 16.125C11.8035 16.0636 11.9241 16.0313 12.0469 16.0312Z" fill="#DBE2E6"/>
</svg>
