<svg width="24" height="24" viewBox="0 0 24 24" fill="none" xmlns="http://www.w3.org/2000/svg">
<path d="M7.36583 15.5306C6.47397 15.5301 5.60987 15.2204 4.92075 14.6543C4.23164 14.0881 3.76015 13.3005 3.58662 12.4257C3.41309 11.5509 3.54825 10.643 3.96908 9.85663C4.38991 9.0703 5.07037 8.45421 5.89452 8.11333C6.71867 7.77245 7.63551 7.72787 8.48884 7.98719C9.34217 8.24651 10.0792 8.79369 10.5743 9.53549C11.0694 10.2773 11.292 11.1678 11.2042 12.0553C11.1164 12.9429 10.7235 13.7725 10.0926 14.4028C9.73475 14.7612 9.30966 15.0453 8.84173 15.2388C8.37379 15.4323 7.87222 15.5315 7.36583 15.5306ZM7.36583 9.22641C6.79916 9.2271 6.25026 9.42422 5.81262 9.7842C5.37498 10.1442 5.07568 10.6447 4.96569 11.2006C4.85571 11.7565 4.94184 12.3334 5.20943 12.8329C5.47702 13.3324 5.9095 13.7237 6.43321 13.9401C6.95693 14.1565 7.53947 14.1847 8.08162 14.0198C8.62377 13.8549 9.09198 13.5071 9.4065 13.0358C9.72103 12.5644 9.8624 11.9986 9.80655 11.4347C9.7507 10.8708 9.50108 10.3436 9.10021 9.94313C8.87261 9.71527 8.60221 9.53464 8.30457 9.41164C8.00692 9.28864 7.68789 9.22569 7.36583 9.22641Z" fill="#DBE2E6"/>
<path d="M17.0156 9.97126C16.3812 9.9715 15.7566 9.81527 15.197 9.51641C14.6375 9.21755 14.1603 8.78529 13.8077 8.25792C13.4552 7.73055 13.2381 7.12437 13.1759 6.49307C13.1136 5.86178 13.208 5.22487 13.4507 4.63877C13.6934 4.05268 14.0769 3.53549 14.5672 3.13305C15.0576 2.7306 15.6396 2.45531 16.2618 2.33158C16.884 2.20785 17.5271 2.2395 18.1341 2.42371C18.7411 2.60792 19.2934 2.93902 19.7418 3.38766C20.281 3.92702 20.6482 4.61412 20.7969 5.36211C20.9457 6.11009 20.8693 6.88538 20.5775 7.58999C20.2858 8.2946 19.7916 8.89689 19.1576 9.32074C18.5236 9.74459 17.7782 9.97097 17.0156 9.97126ZM17.0156 3.66423C16.4487 3.6646 15.8994 3.86151 15.4614 4.22141C15.0234 4.58131 14.7237 5.08193 14.6134 5.638C14.5031 6.19407 14.589 6.77118 14.8565 7.27102C15.1239 7.77087 15.5564 8.16253 16.0802 8.37928C16.6041 8.59603 17.1868 8.62447 17.7293 8.45974C18.2717 8.29502 18.7403 7.94733 19.0551 7.4759C19.37 7.00447 19.5117 6.43847 19.456 5.8743C19.4004 5.31014 19.1508 4.78272 18.75 4.38188C18.5227 4.15345 18.2524 3.97239 17.9547 3.8492C17.657 3.72601 17.3378 3.66314 17.0156 3.66423Z" fill="#DBE2E6"/>
<path d="M17.0156 21.0938C16.2527 21.0938 15.507 20.8675 14.8728 20.4437C14.2385 20.0199 13.7441 19.4175 13.4522 18.7127C13.1603 18.008 13.084 17.2324 13.2328 16.4843C13.3817 15.7361 13.7491 15.0489 14.2885 14.5095C14.828 13.9701 15.5152 13.6028 16.2634 13.4541C17.0116 13.3053 17.7871 13.3817 18.4919 13.6737C19.1966 13.9657 19.7989 14.4601 20.2227 15.0945C20.6464 15.7288 20.8725 16.4745 20.8724 17.2374C20.8712 18.2598 20.4644 19.2401 19.7414 19.963C19.0183 20.686 18.0381 21.0926 17.0156 21.0938ZM17.0156 14.7867C16.5309 14.7867 16.0571 14.9305 15.6541 15.1997C15.2511 15.469 14.937 15.8517 14.7515 16.2995C14.566 16.7473 14.5175 17.2401 14.612 17.7154C14.7066 18.1908 14.94 18.6275 15.2827 18.9702C15.6254 19.3129 16.0621 19.5463 16.5375 19.6409C17.0128 19.7354 17.5056 19.6869 17.9534 19.5014C18.4012 19.316 18.7839 19.0018 19.0532 18.5988C19.3225 18.1958 19.4662 17.722 19.4662 17.2374C19.4656 16.5876 19.2072 15.9646 18.7477 15.5052C18.2883 15.0457 17.6653 14.7873 17.0156 14.7867Z" fill="#DBE2E6"/>
<path d="M10.0992 10.8042C9.94419 10.8045 9.79347 10.7536 9.67043 10.6594C9.54739 10.5651 9.45892 10.4329 9.41878 10.2832C9.37863 10.1336 9.38906 9.97482 9.44844 9.83168C9.50782 9.68854 9.61282 9.56903 9.74712 9.49172L13.9307 7.08047C14.0923 6.98723 14.2844 6.96201 14.4646 7.01036C14.6448 7.05871 14.7984 7.17667 14.8917 7.33828C14.9849 7.4999 15.0101 7.69194 14.9618 7.87215C14.9134 8.05236 14.7955 8.20598 14.6338 8.29922L10.4502 10.7105C10.3435 10.7719 10.2224 10.8043 10.0992 10.8042Z" fill="#DBE2E6"/>
<path d="M14.2817 16.3655C14.1586 16.3654 14.0377 16.3331 13.931 16.2717L9.74697 13.8605C9.58536 13.7672 9.4674 13.6136 9.41905 13.4334C9.3707 13.2532 9.39592 13.0611 9.48916 12.8995C9.5824 12.7379 9.73603 12.62 9.91624 12.5716C10.0964 12.5233 10.2885 12.5485 10.4501 12.6417L14.6337 15.053C14.768 15.1303 14.8729 15.2497 14.9323 15.3928C14.9917 15.5359 15.0022 15.6946 14.9621 15.8443C14.922 15.9939 14.8336 16.1261 14.7107 16.2204C14.5877 16.3146 14.4371 16.3656 14.2821 16.3655H14.2817Z" fill="#DBE2E6"/>
</svg>
