<svg width="24" height="24" viewBox="0 0 24 24" fill="none" xmlns="http://www.w3.org/2000/svg">
<path d="M7.01568 18.4219C6.13035 18.4221 5.26483 18.1598 4.52858 17.6681C3.79234 17.1765 3.21843 16.4775 2.87944 15.6596C2.54046 14.8418 2.45162 13.9418 2.62417 13.0734C2.79671 12.2051 3.22289 11.4074 3.8488 10.7813L6.88162 7.74844C7.72213 6.91003 8.86085 6.43919 10.048 6.43919C11.2352 6.43919 12.3739 6.91003 13.2144 7.74844C14.053 8.58897 14.5239 9.72779 14.5239 10.9151C14.5239 12.1024 14.053 13.2412 13.2144 14.0817L10.1821 17.1141C9.76642 17.5298 9.27272 17.8594 8.72934 18.0838C8.18595 18.3083 7.60359 18.4231 7.01568 18.4219ZM10.048 7.84266C9.64441 7.84182 9.24461 7.92082 8.87166 8.07512C8.4987 8.22942 8.15995 8.45597 7.8749 8.74172L4.84209 11.7745C4.26605 12.3508 3.94251 13.1322 3.94264 13.947C3.94277 14.7618 4.26657 15.5431 4.84279 16.1191C5.41901 16.6952 6.20047 17.0187 7.01524 17.0186C7.83001 17.0185 8.61136 16.6947 9.1874 16.1184L12.2202 13.0856C12.6498 12.6561 12.9424 12.1089 13.061 11.5131C13.1795 10.9173 13.1186 10.2997 12.8861 9.73846C12.6536 9.17724 12.2598 8.69761 11.7546 8.36023C11.2494 8.02285 10.6555 7.8429 10.048 7.84313V7.84266Z" fill="#DBE2E6"/>
<path d="M13.8702 16.9083C13.4885 16.9085 13.1083 16.8597 12.7391 16.763C12.5649 16.7103 12.4179 16.5922 12.329 16.4335C12.2401 16.2747 12.2162 16.0877 12.2623 15.9117C12.3084 15.7356 12.421 15.5844 12.5763 15.4896C12.7317 15.3949 12.9177 15.364 13.0953 15.4036C13.6137 15.5388 14.1584 15.536 14.6754 15.3955C15.1924 15.2551 15.6636 14.9819 16.0424 14.603L19.0752 11.5706C19.6513 10.9945 19.9749 10.2132 19.9749 9.39844C19.9749 8.58371 19.6513 7.80236 19.0752 7.22626C18.4991 6.65016 17.7177 6.32651 16.903 6.32651C16.0883 6.32651 15.3069 6.65016 14.7308 7.22626L11.6985 10.2591C11.3207 10.6387 11.0482 11.1102 10.9078 11.627C10.7675 12.1439 10.764 12.6884 10.8978 13.207C10.9351 13.3839 10.9028 13.5683 10.8077 13.722C10.7125 13.8757 10.5619 13.9868 10.387 14.0324C10.212 14.0779 10.0263 14.0543 9.86831 13.9666C9.71031 13.8788 9.59219 13.7335 9.53846 13.5609C9.34336 12.8051 9.34838 12.0116 9.55304 11.2583C9.75769 10.505 10.1549 9.81802 10.7056 9.26485L13.738 6.23204C14.1499 5.79959 14.6441 5.4539 15.1916 5.21531C15.739 4.97672 16.3287 4.85005 16.9259 4.84276C17.523 4.83546 18.1156 4.94769 18.6688 5.17284C19.2219 5.39798 19.7244 5.7315 20.1467 6.15375C20.569 6.57601 20.9026 7.07848 21.1279 7.63158C21.3531 8.18469 21.4654 8.77726 21.4582 9.37442C21.451 9.97158 21.3244 10.5613 21.0859 11.1088C20.8474 11.6563 20.5018 12.1506 20.0694 12.5625L17.0371 15.5948C16.6223 16.0123 16.1288 16.3434 15.5852 16.5688C15.0416 16.7943 14.4587 16.9097 13.8702 16.9083Z" fill="#DBE2E6"/>
</svg>
