<svg width="24" height="24" viewBox="0 0 24 24" fill="none" xmlns="http://www.w3.org/2000/svg">
<path d="M16.7582 15.0937H14.1445C13.958 15.0937 13.7791 15.0197 13.6473 14.8878C13.5154 14.7559 13.4413 14.5771 13.4413 14.3906C13.4413 14.2041 13.5154 14.0253 13.6473 13.8934C13.7791 13.7616 13.958 13.6875 14.1445 13.6875H16.7582C17.6232 13.6772 18.4493 13.3263 19.0573 12.711C19.6653 12.0956 20.0063 11.2654 20.0063 10.4004C20.0063 9.53532 19.6653 8.70513 19.0573 8.0898C18.4493 7.47447 17.6232 7.1236 16.7582 7.11327C16.6696 7.11327 16.5754 7.11749 16.4704 7.12687C16.3375 7.1382 16.2042 7.11151 16.0859 7.04993C15.9677 6.98835 15.8693 6.8944 15.8024 6.77906C15.3283 5.96122 14.6138 5.30925 13.7561 4.9118C12.8984 4.51434 11.9391 4.39069 11.0086 4.55765C10.0781 4.7246 9.22166 5.17408 8.55564 5.84495C7.88963 6.51582 7.44638 7.37553 7.28618 8.30718C7.25753 8.4753 7.16876 8.62728 7.03639 8.73482C6.90402 8.84235 6.73707 8.89811 6.56665 8.89171H6.51696C6.19718 8.88387 5.87906 8.94008 5.58133 9.05701C5.2836 9.17395 5.01226 9.34926 4.78329 9.57262C4.55431 9.79599 4.37233 10.0629 4.24805 10.3576C4.12376 10.6524 4.05969 10.969 4.05959 11.2889C4.0595 11.6088 4.12339 11.9254 4.2475 12.2202C4.37161 12.5151 4.55344 12.7821 4.78228 13.0056C5.01112 13.2291 5.28235 13.4045 5.58002 13.5216C5.87769 13.6388 6.19577 13.6951 6.51555 13.6875H10.0176C10.2041 13.6875 10.3829 13.7616 10.5148 13.8934C10.6466 14.0253 10.7207 14.2041 10.7207 14.3906C10.7207 14.5771 10.6466 14.7559 10.5148 14.8878C10.3829 15.0197 10.2041 15.0937 10.0176 15.0937H6.51555C5.54989 15.0928 4.62069 14.7248 3.91627 14.0643C3.21185 13.4037 2.78491 12.5001 2.72197 11.5365C2.65902 10.5729 2.96478 9.62136 3.57728 8.8748C4.18979 8.12824 5.06321 7.64247 6.02055 7.51593C6.32105 6.4069 6.93328 5.4073 7.78463 4.63565C8.63598 3.864 9.69076 3.35266 10.8239 3.16227C11.957 2.97187 13.121 3.11041 14.1778 3.56144C15.2346 4.01248 16.1399 4.7571 16.7863 5.70702C18.0233 5.72252 19.2041 6.22574 20.0721 7.10724C20.94 7.98875 21.4248 9.17725 21.4211 10.4143C21.4174 11.6514 20.9255 12.837 20.0523 13.7132C19.1791 14.5895 17.9953 15.0857 16.7582 15.0937Z" fill="#DBE2E6"/>
<path d="M14.3399 12.4744C14.2475 12.4744 14.1561 12.4563 14.0708 12.4209C13.9855 12.3855 13.9081 12.3336 13.843 12.2681L12.0814 10.507L10.3203 12.2681C10.1865 12.3897 10.011 12.4551 9.83031 12.4507C9.64957 12.4463 9.47748 12.3725 9.34976 12.2445C9.22204 12.1165 9.14852 11.9443 9.14446 11.7636C9.14041 11.5828 9.20613 11.4075 9.32798 11.2739L11.5864 9.01547C11.7183 8.88365 11.8971 8.8096 12.0835 8.8096C12.27 8.8096 12.4488 8.88365 12.5806 9.01547L14.8391 11.2739C14.9375 11.3722 15.0045 11.4976 15.0316 11.634C15.0588 11.7704 15.0449 11.9118 14.9916 12.0404C14.9384 12.1689 14.8482 12.2787 14.7325 12.356C14.6168 12.4332 14.4808 12.4744 14.3417 12.4744H14.3399Z" fill="#DBE2E6"/>
<path d="M12.0815 17.9386C11.8951 17.9386 11.7162 17.8645 11.5844 17.7326C11.4525 17.6008 11.3784 17.4219 11.3784 17.2355V9.5128C11.3784 9.32632 11.4525 9.14748 11.5844 9.01562C11.7162 8.88376 11.8951 8.80968 12.0815 8.80968C12.268 8.80968 12.4469 8.88376 12.5787 9.01562C12.7106 9.14748 12.7847 9.32632 12.7847 9.5128V17.2355C12.7847 17.4219 12.7106 17.6008 12.5787 17.7326C12.4469 17.8645 12.268 17.9386 12.0815 17.9386Z" fill="#DBE2E6"/>
</svg>
