<svg width="24" height="24" viewBox="0 0 24 24" fill="none" xmlns="http://www.w3.org/2000/svg">
<path d="M12.1143 14.6719C11.2877 14.6727 10.4869 14.3841 9.85075 13.8562C8.96639 13.1228 8.26197 12.1963 7.79163 11.148C7.32129 10.0998 7.09756 8.95762 7.13763 7.80937L7.16528 7.0275C7.20857 5.7438 7.74894 4.52715 8.67235 3.63435C9.59575 2.74156 10.8299 2.24249 12.1143 2.24249C13.3988 2.24249 14.6329 2.74156 15.5563 3.63435C16.4798 4.52715 17.0201 5.7438 17.0634 7.0275L17.0911 7.80937C17.1311 8.95762 16.9074 10.0998 16.4371 11.148C15.9667 12.1963 15.2623 13.1228 14.3779 13.8562C13.7418 14.3841 12.941 14.6727 12.1143 14.6719ZM10.7484 12.7758C11.1325 13.0939 11.6156 13.2679 12.1143 13.2679C12.6131 13.2679 13.0962 13.0939 13.4803 12.7758C14.197 12.1776 14.7682 11.4239 15.1503 10.5721C15.5324 9.72031 15.7155 8.79266 15.6858 7.85953L15.6562 7.07812C15.6228 6.16056 15.2349 5.29172 14.5739 4.65439C13.913 4.01706 13.0306 3.66093 12.1125 3.66093C11.1943 3.66093 10.3119 4.01706 9.651 4.65439C8.99007 5.29172 8.6021 6.16056 8.56872 7.07812L8.54107 7.85999C8.51158 8.7932 8.69503 9.72086 9.07749 10.5726C9.45995 11.4243 10.0314 12.1778 10.7484 12.7758Z" fill="#DBE2E6"/>
<path d="M17.7861 21.0937H6.44239C6.25591 21.0937 6.07706 21.0197 5.9452 20.8878C5.81334 20.7559 5.73926 20.5771 5.73926 20.3906V17.8556C5.73807 16.6693 6.11019 15.5127 6.80292 14.5497C7.49565 13.5866 8.47386 12.866 9.59895 12.4898C9.68712 12.4579 9.7808 12.4439 9.87445 12.4488C9.96811 12.4536 10.0599 12.4771 10.1443 12.5179C10.2287 12.5587 10.3042 12.616 10.3661 12.6864C10.4281 12.7568 10.4753 12.8388 10.5051 12.9278C10.5349 13.0167 10.5466 13.1107 10.5395 13.2042C10.5324 13.2977 10.5066 13.3888 10.4638 13.4723C10.4209 13.5557 10.3618 13.6297 10.2899 13.6899C10.218 13.7501 10.1348 13.7954 10.0452 13.823C9.20008 14.1058 8.46533 14.6473 7.94494 15.3707C7.42454 16.0942 7.14487 16.963 7.14551 17.8542V19.6875H17.083V17.8556C17.0836 16.9644 16.804 16.0956 16.2836 15.3721C15.7632 14.6487 15.0284 14.1072 14.1833 13.8244C14.0937 13.7968 14.0105 13.7515 13.9386 13.6913C13.8667 13.6311 13.8076 13.5571 13.7648 13.4737C13.7219 13.3903 13.6962 13.2991 13.6891 13.2056C13.682 13.1121 13.6936 13.0181 13.7234 12.9292C13.7532 12.8402 13.8004 12.7582 13.8624 12.6878C13.9244 12.6174 13.9998 12.5601 14.0842 12.5193C14.1687 12.4785 14.2604 12.455 14.3541 12.4502C14.4477 12.4453 14.5414 12.4593 14.6296 12.4912C15.7547 12.8674 16.7329 13.588 17.4256 14.5511C18.1183 15.5141 18.4905 16.6707 18.4893 17.857V20.3906C18.4893 20.5771 18.4152 20.7559 18.2833 20.8878C18.1515 21.0197 17.9726 21.0937 17.7861 21.0937Z" fill="#DBE2E6"/>
</svg>
