<svg width="24" height="24" viewBox="0 0 24 24" fill="none" xmlns="http://www.w3.org/2000/svg">
<path d="M16.6251 21.0937H11.6095C11.4776 21.093 11.3486 21.0552 11.2372 20.9847C11.1258 20.9141 11.0365 20.8137 10.9795 20.6948C10.9224 20.5759 10.9 20.4434 10.9146 20.3124C10.9293 20.1813 10.9805 20.0571 11.0625 19.9537C11.2831 19.6766 11.4025 19.3325 11.4009 18.9783C11.3938 18.5654 11.2248 18.1719 10.9303 17.8825C10.6359 17.5931 10.2395 17.4309 9.8266 17.4309C9.41371 17.4309 9.01735 17.5931 8.72289 17.8825C8.42842 18.1719 8.25943 18.5654 8.25231 18.9783C8.25075 19.3325 8.37014 19.6766 8.59074 19.9537C8.67297 20.0574 8.72426 20.1822 8.73873 20.3138C8.75319 20.4453 8.73024 20.5783 8.67251 20.6973C8.61478 20.8164 8.52462 20.9168 8.41239 20.9869C8.30016 21.057 8.17042 21.0941 8.03809 21.0937H3.02246C2.83598 21.0937 2.65714 21.0197 2.52528 20.8878C2.39341 20.7559 2.31934 20.5771 2.31934 20.3906V13.9247C2.31934 13.7941 2.3557 13.6661 2.42435 13.555C2.493 13.4439 2.59122 13.3542 2.70801 13.2958C2.82481 13.2374 2.95555 13.2127 3.08561 13.2244C3.21566 13.2361 3.33987 13.2838 3.44434 13.3622C3.67819 13.538 3.95639 13.6451 4.24774 13.6716C4.53909 13.6982 4.83207 13.643 5.09381 13.5123C5.35555 13.3816 5.57571 13.1806 5.72958 12.9317C5.88345 12.6829 5.96496 12.3961 5.96496 12.1036C5.96496 11.811 5.88345 11.5243 5.72958 11.2754C5.57571 11.0266 5.35555 10.8256 5.09381 10.6949C4.83207 10.5642 4.53909 10.509 4.24774 10.5355C3.95639 10.562 3.67819 10.6692 3.44434 10.845C3.33987 10.9233 3.21566 10.9711 3.08561 10.9828C2.95555 10.9945 2.82481 10.9698 2.70801 10.9114C2.59122 10.853 2.493 10.7632 2.42435 10.6521C2.3557 10.5411 2.31934 10.4131 2.31934 10.2825V6.79031C2.31934 6.60383 2.39341 6.42498 2.52528 6.29312C2.65714 6.16126 2.83598 6.08718 3.02246 6.08718H6.96746C6.83413 5.64214 6.80667 5.17209 6.88728 4.71455C6.96789 4.25701 7.15433 3.82464 7.43173 3.45196C7.70912 3.07928 8.06979 2.7766 8.48495 2.56807C8.90011 2.35954 9.35826 2.25095 9.82285 2.25095C10.2874 2.25095 10.7456 2.35954 11.1608 2.56807C11.5759 2.7766 11.9366 3.07928 12.214 3.45196C12.4914 3.82464 12.6778 4.25701 12.7584 4.71455C12.839 5.17209 12.8116 5.64214 12.6782 6.08718H16.6232C16.8097 6.08718 16.9886 6.16126 17.1204 6.29312C17.2523 6.42498 17.3264 6.60383 17.3264 6.79031V9.23671C17.7697 9.11105 18.2362 9.08989 18.6891 9.17491C19.1421 9.25993 19.5691 9.44881 19.9367 9.72672C20.3043 10.0046 20.6025 10.364 20.8078 10.7765C21.0131 11.1891 21.12 11.6437 21.12 12.1045C21.12 12.5654 21.0131 13.0199 20.8078 13.4325C20.6025 13.8451 20.3043 14.2044 19.9367 14.4823C19.5691 14.7602 19.1421 14.9491 18.6891 15.0341C18.2362 15.1192 17.7697 15.098 17.3264 14.9723V20.3906C17.3264 20.5768 17.2525 20.7553 17.1211 20.8871C16.9896 21.0189 16.8113 21.0932 16.6251 21.0937ZM12.7195 19.6875H15.922V13.8037C15.922 13.668 15.9613 13.5352 16.0351 13.4213C16.1089 13.3074 16.2142 13.2173 16.3381 13.1619C16.462 13.1065 16.5993 13.0881 16.7334 13.109C16.8675 13.1299 16.9927 13.1892 17.0939 13.2797C17.3206 13.4818 17.6009 13.6141 17.9011 13.6605C18.2013 13.707 18.5085 13.6656 18.7857 13.5414C19.0629 13.4172 19.2982 13.2154 19.4633 12.9605C19.6285 12.7055 19.7163 12.4083 19.7163 12.1045C19.7163 11.8008 19.6285 11.5035 19.4633 11.2486C19.2982 10.9936 19.0629 10.7919 18.7857 10.6677C18.5085 10.5434 18.2013 10.5021 17.9011 10.5485C17.6009 10.5949 17.3206 10.7272 17.0939 10.9294C16.9927 11.0199 16.8675 11.0791 16.7334 11.1C16.5993 11.1209 16.462 11.1026 16.3381 11.0472C16.2142 10.9917 16.1089 10.9017 16.0351 10.7878C15.9613 10.6739 15.922 10.541 15.922 10.4053V7.49343H11.4843C11.3472 7.49341 11.213 7.45325 11.0983 7.37791C10.9837 7.30258 10.8936 7.19535 10.8391 7.06944C10.7847 6.94353 10.7682 6.80444 10.7918 6.6693C10.8154 6.53416 10.8781 6.40889 10.972 6.3089C11.1827 6.08511 11.3233 5.80454 11.3765 5.50179C11.4296 5.19904 11.393 4.88735 11.2711 4.60516C11.1492 4.32298 10.9474 4.08264 10.6906 3.9138C10.4337 3.74495 10.133 3.65498 9.82566 3.65498C9.51828 3.65498 9.21762 3.74495 8.96077 3.9138C8.70391 4.08264 8.5021 4.32298 8.38021 4.60516C8.25832 4.88735 8.2217 5.19904 8.27485 5.50179C8.32801 5.80454 8.46862 6.08511 8.67934 6.3089C8.77326 6.40889 8.83588 6.53416 8.85949 6.6693C8.8831 6.80444 8.86666 6.94353 8.8122 7.06944C8.75774 7.19535 8.66764 7.30258 8.553 7.37791C8.43835 7.45325 8.30417 7.49341 8.16699 7.49343H3.72746V9.19781C3.94591 9.14853 4.16915 9.12369 4.39309 9.12374C4.81251 9.1242 5.22712 9.21317 5.60981 9.38483C5.9925 9.55649 6.33466 9.80698 6.61391 10.1199C6.89316 10.4329 7.10323 10.8012 7.23037 11.2009C7.35752 11.6006 7.39888 12.0226 7.35176 12.4394C7.30464 12.8562 7.17009 13.2583 6.95691 13.6195C6.74373 13.9807 6.45672 14.2929 6.11465 14.5356C5.77257 14.7783 5.38312 14.9461 4.97176 15.028C4.56041 15.1098 4.1364 15.104 3.72746 15.0108V19.6875H6.92996C6.82218 19.2486 6.8156 18.7909 6.91073 18.3491C7.00586 17.9073 7.20021 17.4929 7.47908 17.1373C7.75795 16.7817 8.11403 16.4941 8.5204 16.2963C8.92677 16.0986 9.37279 15.9958 9.82473 15.9958C10.2767 15.9958 10.7227 16.0986 11.1291 16.2963C11.5354 16.4941 11.8915 16.7817 12.1704 17.1373C12.4492 17.4929 12.6436 17.9073 12.7387 18.3491C12.8339 18.7909 12.8273 19.2486 12.7195 19.6875Z" fill="#DBE2E6"/>
</svg>
