<svg width="24" height="24" viewBox="0 0 24 24" fill="none" xmlns="http://www.w3.org/2000/svg">
<path d="M17.5045 20.8331C17.4042 20.8331 17.3052 20.8117 17.2139 20.7703C17.1226 20.729 17.0413 20.6685 16.9752 20.5931L14.7285 18.0258C13.8238 18.2586 12.8933 18.376 11.9592 18.375C9.46868 18.375 7.1179 17.5641 5.34368 16.0945C3.5329 14.5945 2.5354 12.5859 2.5354 10.4419C2.5354 8.29781 3.53478 6.29062 5.34368 4.78968C7.1179 3.32015 9.46868 2.51062 11.9592 2.51062C14.4496 2.51062 16.8004 3.32015 18.5732 4.78968C20.384 6.28968 21.381 8.29828 21.381 10.4419C21.381 12.7303 20.2293 14.8762 18.2076 16.3819V20.1319C18.2076 20.3184 18.1335 20.4972 18.0016 20.6291C17.8698 20.7609 17.6909 20.835 17.5045 20.835V20.8331ZM14.9652 16.5262C15.0655 16.5262 15.1645 16.5476 15.2558 16.589C15.3471 16.6304 15.4285 16.6908 15.4945 16.7662L16.8013 18.2592V16.0205C16.8015 15.9059 16.8296 15.7931 16.8833 15.6919C16.9369 15.5906 17.0145 15.5041 17.1093 15.4397C18.9318 14.1933 19.9767 12.3717 19.9767 10.4419C19.9767 6.84421 16.3809 3.91687 11.961 3.91687C7.54118 3.91687 3.9454 6.84421 3.9454 10.4419C3.9454 14.0395 7.53931 16.9687 11.9592 16.9687C12.9081 16.9709 13.852 16.8325 14.7604 16.5581C14.8267 16.5374 14.8958 16.5266 14.9652 16.5262Z" fill="#DBE2E6"/>
<path d="M9.44481 12.375C9.42184 12.375 9.39793 12.375 9.3759 12.3717C9.35387 12.3684 9.32902 12.3656 9.30746 12.3614C9.2859 12.3572 9.26059 12.3511 9.2409 12.3445C9.22121 12.338 9.19684 12.33 9.17574 12.3211C9.15465 12.3122 9.13402 12.3023 9.11387 12.2916C9.09344 12.2809 9.07358 12.2691 9.05434 12.2564C9.03559 12.2437 9.01684 12.2302 8.99902 12.2156C8.98121 12.2011 8.96387 12.1852 8.94746 12.1687C8.93106 12.1523 8.91559 12.135 8.90059 12.1172C8.88559 12.0994 8.87246 12.0806 8.8598 12.0619C8.84709 12.0426 8.83536 12.0228 8.82465 12.0023C8.81371 11.982 8.80387 11.9614 8.79512 11.9405C8.78635 11.9193 8.77868 11.8977 8.77215 11.8758C8.76515 11.8538 8.75952 11.8314 8.75527 11.8087C8.75046 11.7863 8.74702 11.7636 8.74496 11.7408C8.74254 11.7177 8.74129 11.6946 8.74121 11.6714C8.74128 11.6484 8.74253 11.6254 8.74496 11.6025C8.74962 11.5566 8.75872 11.5112 8.77215 11.467C8.77868 11.4451 8.78635 11.4235 8.79512 11.4023C8.80418 11.3814 8.81402 11.3608 8.82465 11.3405C8.83536 11.32 8.84709 11.3002 8.8598 11.2809C8.87246 11.2622 8.88606 11.2434 8.90059 11.2256C8.91512 11.2078 8.93106 11.1905 8.94746 11.1741C8.96387 11.1577 8.98121 11.1422 8.99902 11.1272C9.01684 11.1122 9.03559 11.0991 9.05434 11.0864C9.07347 11.0735 9.09335 11.0618 9.11387 11.0512C9.13418 11.0406 9.1548 11.0308 9.17574 11.0217C9.19702 11.0127 9.21877 11.0049 9.2409 10.9983C9.26246 10.9917 9.28496 10.9861 9.30746 10.9814C9.32996 10.9767 9.35434 10.9734 9.3759 10.9711C9.42187 10.9664 9.46821 10.9664 9.51418 10.9711C9.53668 10.9734 9.56105 10.9772 9.58215 10.9814C9.60324 10.9856 9.62902 10.9917 9.64918 10.9983C9.67113 11.005 9.69272 11.0128 9.71387 11.0217C9.73496 11.0306 9.75605 11.0405 9.77621 11.0512C9.79652 11.0619 9.81624 11.0736 9.83527 11.0864C9.85439 11.099 9.87286 11.1127 9.89059 11.1272C9.9084 11.1417 9.92574 11.1577 9.94215 11.1741C9.95856 11.1905 9.97402 11.2078 9.98902 11.2256C10.004 11.2434 10.0171 11.2622 10.0298 11.2809C10.0425 11.3002 10.0543 11.32 10.065 11.3405C10.0756 11.3608 10.0854 11.3814 10.0945 11.4023C10.1034 11.4234 10.1109 11.4455 10.1179 11.467C10.125 11.4886 10.1301 11.5139 10.1348 11.5341C10.144 11.5793 10.1486 11.6253 10.1484 11.6714C10.1485 11.6946 10.1474 11.7177 10.1451 11.7408C10.1428 11.7636 10.1394 11.7863 10.1348 11.8087C10.1301 11.8312 10.1245 11.8556 10.1179 11.8758C10.1114 11.8959 10.1034 11.9194 10.0945 11.9405C10.0856 11.9616 10.0757 11.9822 10.065 12.0023C10.0543 12.0228 10.0425 12.0426 10.0298 12.0619C10.0171 12.0806 10.0036 12.0994 9.98902 12.1172C9.97449 12.135 9.95856 12.1523 9.94215 12.1687C9.92574 12.1852 9.9084 12.2006 9.89059 12.2156C9.87286 12.2302 9.85439 12.2438 9.83527 12.2564C9.8159 12.2689 9.79621 12.2806 9.77621 12.2916C9.75605 12.3023 9.73496 12.3122 9.71387 12.3211C9.69277 12.33 9.67074 12.3375 9.64918 12.3445C9.62762 12.3516 9.60465 12.3567 9.58215 12.3614C9.55965 12.3661 9.53527 12.3694 9.51418 12.3717C9.49309 12.3741 9.46871 12.375 9.44481 12.375Z" fill="#DBE2E6"/>
<path d="M14.6484 12.375C14.6254 12.3751 14.6024 12.374 14.5795 12.3717C14.5566 12.3694 14.5327 12.3656 14.5111 12.3614C14.4895 12.3572 14.4642 12.3511 14.4445 12.3445C14.4248 12.338 14.4009 12.33 14.3798 12.3211C14.3587 12.3122 14.3377 12.3023 14.3175 12.2916C14.2771 12.2699 14.2388 12.2445 14.2031 12.2156C14.1853 12.2011 14.168 12.1852 14.152 12.1687C14.1355 12.1524 14.1199 12.1352 14.1052 12.1172C14.0906 12.0994 14.0766 12.0806 14.0639 12.0619C14.0512 12.0426 14.0395 12.0228 14.0287 12.0023C14.0181 11.982 14.0083 11.9614 13.9992 11.9405C13.9908 11.9194 13.9828 11.8973 13.9763 11.8758C13.9693 11.8538 13.9636 11.8314 13.9594 11.8087C13.9503 11.7635 13.9456 11.7175 13.9453 11.6714C13.9454 11.6482 13.9466 11.6251 13.9491 11.602C13.9514 11.5792 13.9548 11.5565 13.9594 11.5341C13.9636 11.5114 13.9693 11.489 13.9763 11.467C13.9828 11.4455 13.9908 11.4234 13.9992 11.4023C14.0077 11.3812 14.018 11.3606 14.0287 11.3405C14.0395 11.32 14.0512 11.3002 14.0639 11.2809C14.0766 11.2622 14.0906 11.2434 14.1052 11.2256C14.1199 11.2077 14.1355 11.1904 14.152 11.1741C14.168 11.1581 14.1853 11.1422 14.2031 11.1272C14.2389 11.0983 14.2774 11.0729 14.318 11.0512C14.3381 11.0405 14.3587 11.0306 14.3803 11.0217C14.4019 11.0128 14.423 11.0053 14.445 10.9983C14.467 10.9912 14.4891 10.9861 14.5116 10.9814C14.5341 10.9767 14.5584 10.9734 14.58 10.9711C14.6268 10.9667 14.6739 10.9667 14.7206 10.9711C14.7431 10.9734 14.7675 10.9772 14.7886 10.9814C14.8097 10.9856 14.8355 10.9917 14.8556 10.9983C14.8758 11.0048 14.8992 11.0128 14.9203 11.0217C14.9414 11.0306 14.9625 11.0405 14.9827 11.0512C15.0028 11.062 15.0225 11.0737 15.0417 11.0864C15.0609 11.0989 15.0794 11.1125 15.097 11.1272C15.1148 11.1417 15.1322 11.1577 15.1486 11.1741C15.165 11.1905 15.1805 11.2078 15.1955 11.2256C15.2105 11.2434 15.2236 11.2622 15.2363 11.2809C15.2491 11.3002 15.261 11.32 15.2719 11.3405C15.2822 11.3606 15.2925 11.3812 15.3009 11.4023C15.3099 11.4235 15.3177 11.4451 15.3244 11.467C15.3309 11.4891 15.3366 11.5139 15.3413 11.5341C15.3459 11.5542 15.3492 11.5809 15.3516 11.602C15.3538 11.6251 15.3549 11.6482 15.3548 11.6714C15.3549 11.6944 15.3538 11.7174 15.3516 11.7403C15.3492 11.7633 15.3455 11.7872 15.3413 11.8087C15.337 11.8303 15.3309 11.8556 15.3244 11.8758C15.3177 11.8977 15.3099 11.9193 15.3009 11.9405C15.2925 11.9616 15.2822 11.9822 15.2719 12.0023C15.261 12.0228 15.2491 12.0426 15.2363 12.0619C15.2236 12.0806 15.21 12.0994 15.1955 12.1172C15.1809 12.135 15.165 12.1523 15.1486 12.1687C15.1322 12.1852 15.1148 12.2006 15.097 12.2156C15.0794 12.2303 15.0609 12.2439 15.0417 12.2564C15.0227 12.2689 15.003 12.2806 14.9827 12.2916C14.9625 12.3023 14.9414 12.3122 14.9203 12.3211C14.8992 12.33 14.8772 12.3375 14.8556 12.3445C14.8341 12.3516 14.8111 12.3567 14.7886 12.3614C14.7661 12.3661 14.7417 12.3694 14.7206 12.3717C14.6966 12.3741 14.6725 12.3752 14.6484 12.375Z" fill="#DBE2E6"/>
<path d="M12.0467 12.375C11.8603 12.3745 11.6816 12.3006 11.5494 12.1692C11.5329 12.1528 11.5172 12.1356 11.5025 12.1177C11.488 12.0998 11.4744 12.0811 11.4612 12.0623C11.4481 12.0436 11.4369 12.0234 11.4261 12.0028C11.4153 11.9827 11.4056 11.9621 11.397 11.9409C11.3881 11.9198 11.3803 11.8982 11.3736 11.8762C11.367 11.8542 11.3614 11.8294 11.3567 11.8092C11.3521 11.7867 11.3487 11.7641 11.3464 11.7412C11.3419 11.6945 11.3419 11.6474 11.3464 11.6006C11.3487 11.5778 11.3521 11.5551 11.3567 11.5327C11.3614 11.5102 11.367 11.4858 11.3736 11.4656C11.3803 11.4437 11.3881 11.4221 11.397 11.4009C11.4056 11.3798 11.4153 11.3591 11.4261 11.3391C11.4369 11.3184 11.449 11.2987 11.4612 11.2795C11.4734 11.2603 11.488 11.242 11.5025 11.2242C11.5172 11.2062 11.5329 11.189 11.5494 11.1727C11.6231 11.0995 11.7121 11.0434 11.8099 11.0084C11.9078 10.9734 12.0121 10.9603 12.1156 10.9702C12.1386 10.9725 12.1625 10.9762 12.184 10.9805C12.2056 10.9847 12.2286 10.9908 12.2506 10.9973C12.2726 11.0039 12.2942 11.0119 12.3153 11.0208C12.3364 11.0297 12.3575 11.0395 12.3776 11.0503C12.4182 11.072 12.4567 11.0974 12.4925 11.1262C12.5103 11.1408 12.5276 11.1567 12.5436 11.1731C12.5601 11.1895 12.5757 11.2067 12.5905 11.2247C12.605 11.2425 12.619 11.2612 12.6317 11.28C12.6444 11.2992 12.6561 11.3191 12.6669 11.3395C12.6775 11.3598 12.6873 11.3805 12.6964 11.4014C12.7048 11.4225 12.7128 11.4445 12.7194 11.4661C12.7264 11.4881 12.732 11.5105 12.7362 11.5331C12.7408 11.5556 12.7443 11.5783 12.7465 11.6011C12.7517 11.6478 12.7517 11.695 12.7465 11.7417C12.7443 11.7645 12.7408 11.7872 12.7362 11.8097C12.732 11.8324 12.7264 11.8547 12.7194 11.8767C12.7128 11.8983 12.7048 11.9203 12.6964 11.9414C12.688 11.9625 12.6776 11.9831 12.6669 12.0033C12.6561 12.0237 12.6444 12.0436 12.6317 12.0628C12.619 12.0816 12.605 12.1003 12.5905 12.1181C12.5757 12.1361 12.5601 12.1533 12.5436 12.1697C12.5276 12.1856 12.5103 12.2011 12.4925 12.2166C12.4567 12.2454 12.4182 12.2709 12.3776 12.2925C12.3575 12.3033 12.3364 12.3131 12.3153 12.322C12.2942 12.3309 12.2726 12.3384 12.2506 12.3455C12.2286 12.3525 12.2037 12.3577 12.184 12.3623C12.1644 12.367 12.1372 12.3703 12.1156 12.3727C12.0927 12.3746 12.0697 12.3754 12.0467 12.375Z" fill="#DBE2E6"/>
</svg>
