<svg width="24" height="24" viewBox="0 0 24 24" fill="none" xmlns="http://www.w3.org/2000/svg">
<path d="M3.41532 19.1011H3.24048C3.054 19.1011 2.87516 19.027 2.74329 18.8952C2.61143 18.7633 2.53735 18.5845 2.53735 18.398V13.2305C2.53735 9.45094 5.61282 6.375 9.39235 6.375H11.7459V3.31641C11.7463 3.18084 11.7859 3.04826 11.8598 2.93465C11.9338 2.82104 12.039 2.73123 12.1629 2.67605C12.2867 2.62087 12.4239 2.60267 12.5578 2.62363C12.6917 2.6446 12.8168 2.70384 12.9178 2.79422L21.1491 10.2131C21.2222 10.2791 21.2806 10.3596 21.3207 10.4496C21.3607 10.5395 21.3813 10.6369 21.3813 10.7353C21.3813 10.8338 21.3607 10.9311 21.3207 11.0211C21.2806 11.111 21.2222 11.1916 21.1491 11.2575L12.9202 18.6769C12.8191 18.7673 12.694 18.8265 12.56 18.8475C12.426 18.8684 12.2889 18.8502 12.165 18.795C12.0412 18.7397 11.9359 18.6498 11.862 18.5362C11.788 18.4225 11.7486 18.2898 11.7483 18.1542V15.0938H8.6086C7.57745 15.0935 6.57529 15.435 5.75874 16.0647C4.9422 16.6944 4.35731 17.5769 4.09548 18.5742C4.05645 18.725 3.96849 18.8585 3.84539 18.9538C3.7223 19.0492 3.57103 19.101 3.41532 19.1011ZM8.6086 13.6875H12.4491C12.6356 13.6875 12.8144 13.7616 12.9463 13.8934C13.0781 14.0253 13.1522 14.2041 13.1522 14.3906V16.5722L19.628 10.7344L13.1522 4.89704V7.07813C13.1522 7.26461 13.0781 7.44345 12.9463 7.57531C12.8144 7.70717 12.6356 7.78125 12.4491 7.78125H9.39235C7.94767 7.78287 6.56262 8.35751 5.54112 9.3791C4.51962 10.4007 3.94509 11.7858 3.9436 13.2305V15.8723C4.51362 15.1886 5.22693 14.6385 6.03306 14.261C6.83919 13.8834 7.71844 13.6877 8.6086 13.6875Z" fill="#DBE2E6"/>
</svg>
