<svg width="24" height="24" viewBox="0 0 24 24" fill="none" xmlns="http://www.w3.org/2000/svg">
<path d="M10.365 18.2545C9.29539 18.2564 8.23596 18.0469 7.24756 17.6381C6.25916 17.2293 5.36127 16.6292 4.60547 15.8723C1.42969 12.6966 1.42969 7.52859 4.60547 4.35328C7.78125 1.17797 12.9492 1.1775 16.1245 4.35328C17.2642 5.49194 18.0404 6.94309 18.3549 8.52308C18.6695 10.1031 18.5083 11.7409 17.8916 13.2292C17.275 14.7175 16.2307 15.9894 14.8909 16.884C13.5511 17.7785 11.976 18.2555 10.365 18.2545ZM10.365 3.37687C9.4802 3.37518 8.60379 3.54823 7.78603 3.88607C6.96828 4.22392 6.22528 4.71993 5.59969 5.34562C2.97469 7.97344 2.97469 12.2484 5.59969 14.8762C6.222 15.517 6.96549 16.0277 7.78694 16.3786C8.60838 16.7295 9.49139 16.9136 10.3846 16.9202C11.2778 16.9268 12.1635 16.7557 12.99 16.417C13.8165 16.0782 14.5675 15.5785 15.1991 14.947C15.8308 14.3154 16.3307 13.5646 16.6696 12.7381C17.0085 11.9116 17.1797 11.0261 17.1733 10.1328C17.1669 9.2396 16.983 8.35656 16.6323 7.53505C16.2815 6.71353 15.771 5.96994 15.1303 5.3475C14.5051 4.72108 13.7622 4.22436 12.9444 3.88586C12.1267 3.54736 11.2501 3.37375 10.365 3.375V3.37687Z" fill="#DBE2E6"/>
<path d="M10.365 15.57C9.10245 15.5692 7.87929 15.1306 6.90387 14.3291C5.92846 13.5275 5.26113 12.4126 5.01559 11.1742C4.77005 9.93577 4.96149 8.65055 5.55728 7.53747C6.15308 6.42439 7.11638 5.55233 8.28305 5.06985C9.44973 4.58737 10.7476 4.52433 11.9555 4.89147C13.1635 5.25861 14.2068 6.03322 14.9076 7.08331C15.6085 8.13341 15.9236 9.39403 15.7992 10.6504C15.6749 11.9068 15.1187 13.0811 14.2256 13.9734C13.719 14.4807 13.1171 14.8829 12.4546 15.1569C11.792 15.4309 11.0819 15.5713 10.365 15.57ZM10.365 6.06094C9.42756 6.06154 8.51938 6.38714 7.79513 6.98226C7.07089 7.57738 6.57539 8.4052 6.39306 9.32469C6.21073 10.2442 6.35285 11.1984 6.7952 12.0249C7.23756 12.8513 7.95278 13.4989 8.81901 13.8571C9.68524 14.2154 10.6489 14.2622 11.5458 13.9896C12.4427 13.717 13.2173 13.1419 13.7377 12.3622C14.2581 11.5826 14.492 10.6466 14.3997 9.71374C14.3074 8.78091 13.8945 7.90894 13.2314 7.24641C12.8552 6.86978 12.4083 6.57117 11.9164 6.36773C11.4245 6.16429 10.8973 6.06003 10.365 6.06094Z" fill="#DBE2E6"/>
<path d="M19.4447 21.1144C19.1922 21.115 18.942 21.0657 18.7087 20.9691C18.4754 20.8726 18.2635 20.7308 18.0853 20.5519L14.1979 16.6641C14.066 16.5322 13.9919 16.3533 13.9919 16.1667C13.9919 15.9802 14.066 15.8013 14.1979 15.6694C14.3299 15.5375 14.5088 15.4634 14.6953 15.4634C14.8818 15.4634 15.0607 15.5375 15.1926 15.6694L19.0781 19.5567C19.1254 19.6068 19.1824 19.647 19.2455 19.6747C19.3086 19.7025 19.3767 19.7173 19.4456 19.7183C19.5146 19.7192 19.583 19.7064 19.6469 19.6805C19.7108 19.6545 19.7688 19.616 19.8176 19.5673C19.8663 19.5185 19.9048 19.4605 19.9307 19.3966C19.9567 19.3327 19.9695 19.2643 19.9685 19.1953C19.9676 19.1264 19.9528 19.0583 19.925 18.9952C19.8973 18.9321 19.8571 18.8752 19.807 18.8278L15.9197 14.9405C15.8544 14.8752 15.8025 14.7976 15.7672 14.7123C15.7319 14.627 15.7137 14.5355 15.7137 14.4431C15.7137 14.3508 15.7319 14.2593 15.7672 14.174C15.8025 14.0886 15.8544 14.0111 15.9197 13.9458C15.985 13.8805 16.0625 13.8287 16.1479 13.7933C16.2332 13.758 16.3246 13.7398 16.417 13.7398C16.5094 13.7398 16.6008 13.758 16.6862 13.7933C16.7715 13.8287 16.849 13.8805 16.9144 13.9458L20.8017 17.8331C21.0706 18.1019 21.2538 18.4444 21.328 18.8173C21.4023 19.1903 21.3642 19.5768 21.2187 19.9281C21.0731 20.2794 20.8267 20.5796 20.5105 20.7907C20.1943 21.0019 19.8226 21.1145 19.4423 21.1144H19.4447Z" fill="#DBE2E6"/>
</svg>
