<svg width="24" height="24" viewBox="0 0 24 24" fill="none" xmlns="http://www.w3.org/2000/svg">
<path d="M18.6155 21.0938H5.30298C4.56976 21.0929 3.86681 20.8012 3.34835 20.2828C2.82988 19.7643 2.53822 19.0613 2.53735 18.3281V9.14062C2.53822 8.4074 2.82988 7.70446 3.34835 7.18599C3.86681 6.66752 4.56976 6.37587 5.30298 6.375H9.98438C10.3449 6.375 10.6907 6.23178 10.9456 5.97685C11.2005 5.72192 11.3438 5.37615 11.3438 5.01562C11.3445 4.28236 11.6361 3.57935 12.1546 3.06086C12.6731 2.54236 13.3761 2.25074 14.1094 2.25H18.6155C19.3487 2.25074 20.0518 2.54236 20.5702 3.06086C21.0887 3.57935 21.3804 4.28236 21.3811 5.01562V18.3281C21.3804 19.0614 21.0887 19.7644 20.5702 20.2829C20.0518 20.8014 19.3487 21.093 18.6155 21.0938ZM5.30298 7.78125C4.94245 7.78125 4.59669 7.92447 4.34176 8.1794C4.08682 8.43433 3.9436 8.7801 3.9436 9.14062V18.3281C3.9436 18.6887 4.08682 19.0344 4.34176 19.2893C4.59669 19.5443 4.94245 19.6875 5.30298 19.6875H18.6155C18.976 19.6875 19.3218 19.5443 19.5767 19.2893C19.8316 19.0344 19.9749 18.6887 19.9749 18.3281V5.01562C19.9749 4.6551 19.8316 4.30933 19.5767 4.0544C19.3218 3.79947 18.976 3.65625 18.6155 3.65625H14.1094C13.7489 3.65625 13.4031 3.79947 13.1482 4.0544C12.8932 4.30933 12.75 4.6551 12.75 5.01562C12.7491 5.74885 12.4575 6.45179 11.939 6.97026C11.4206 7.48873 10.7176 7.78038 9.98438 7.78125H5.30298Z" fill="#DBE2E6"/>
</svg>
