<svg width="24" height="24" viewBox="0 0 24 24" fill="none" xmlns="http://www.w3.org/2000/svg">
<path d="M11.9592 18.0722C11.8605 18.0719 11.7631 18.0509 11.6731 18.0105C11.5832 17.9702 11.5027 17.9113 11.437 17.8378L4.85947 10.5436C4.76909 10.4425 4.70985 10.3175 4.68888 10.1836C4.66791 10.0496 4.68612 9.91249 4.7413 9.78866C4.79648 9.66482 4.88628 9.55958 4.9999 9.48561C5.11351 9.41163 5.24608 9.37208 5.38166 9.37172H8.01556V2.95313C8.01556 2.76664 8.08964 2.5878 8.2215 2.45594C8.35337 2.32408 8.53221 2.25 8.71869 2.25H15.2015C15.388 2.25 15.5668 2.32408 15.6987 2.45594C15.8305 2.5878 15.9046 2.76664 15.9046 2.95313V9.36984H18.5371C18.6727 9.37021 18.8053 9.40976 18.9189 9.48373C19.0325 9.5577 19.1223 9.66295 19.1775 9.78678C19.2327 9.91062 19.2509 10.0478 19.2299 10.1817C19.2089 10.3156 19.1497 10.4407 19.0593 10.5417L12.4813 17.8397C12.4154 17.9128 12.3349 17.9713 12.2449 18.0114C12.155 18.0514 12.0576 18.0722 11.9592 18.0722ZM6.96228 10.7761L11.9592 16.3191L16.9565 10.7761H15.2015C15.015 10.7761 14.8362 10.702 14.7043 10.5702C14.5725 10.4383 14.4984 10.2594 14.4984 10.073V3.65625H9.42181V10.073C9.42181 10.2594 9.34773 10.4383 9.21587 10.5702C9.08401 10.702 8.90517 10.7761 8.71869 10.7761H6.96228Z" fill="#DBE2E6"/>
<path d="M18.3206 21.0938H5.59829C4.78683 21.0929 4.00884 20.7702 3.43501 20.1964C2.86117 19.6227 2.53835 18.8447 2.53735 18.0333V16.2441C2.53735 16.0576 2.61143 15.8787 2.74329 15.7469C2.87516 15.615 3.054 15.5409 3.24048 15.5409C3.42696 15.5409 3.6058 15.615 3.73766 15.7469C3.86952 15.8787 3.9436 16.0576 3.9436 16.2441V18.0333C3.94422 18.4719 4.11877 18.8924 4.42896 19.2025C4.73916 19.5126 5.15967 19.687 5.59829 19.6875H18.3206C18.7592 19.687 19.1797 19.5126 19.4898 19.2024C19.7999 18.8923 19.9744 18.4719 19.9749 18.0333V16.2441C19.9749 16.0576 20.0489 15.8787 20.1808 15.7469C20.3127 15.615 20.4915 15.5409 20.678 15.5409C20.8645 15.5409 21.0433 15.615 21.1752 15.7469C21.307 15.8787 21.3811 16.0576 21.3811 16.2441V18.0333C21.3801 18.8447 21.0574 19.6225 20.4836 20.1963C19.9099 20.77 19.132 21.0928 18.3206 21.0938Z" fill="#DBE2E6"/>
</svg>
