<svg width="24" height="24" viewBox="0 0 24 24" fill="none" xmlns="http://www.w3.org/2000/svg">
<path d="M8.39063 16.5H4.84454C4.23291 16.4994 3.6465 16.2562 3.21396 15.8237C2.78143 15.3913 2.5381 14.8049 2.53735 14.1933V9.43172C2.5381 8.82009 2.78143 8.23373 3.21396 7.80128C3.6465 7.36883 4.23291 7.12562 4.84454 7.125H8.39063C8.57712 7.125 8.75596 7.19908 8.88782 7.33094C9.01968 7.4628 9.09376 7.64164 9.09376 7.82812V15.7969C9.09376 15.9834 9.01968 16.1622 8.88782 16.2941C8.75596 16.4259 8.57712 16.5 8.39063 16.5ZM4.84454 8.53125C4.60575 8.5315 4.37681 8.62643 4.20792 8.79524C4.03903 8.96404 3.94398 9.19293 3.9436 9.43172V14.1933C3.94398 14.4321 4.03903 14.661 4.20792 14.8298C4.37681 14.9986 4.60575 15.0935 4.84454 15.0938H7.68751V8.53125H4.84454Z" fill="#DBE2E6"/>
<path d="M13.8281 19.5431H11.5134C10.4991 19.542 9.52658 19.1386 8.80932 18.4213C8.09206 17.704 7.68862 16.7315 7.6875 15.7172V7.90782C7.68862 6.89346 8.09206 5.92096 8.80932 5.2037C9.52658 4.48644 10.4991 4.083 11.5134 4.08188H13.8281C14.0146 4.08188 14.1934 4.15596 14.3253 4.28782C14.4572 4.41968 14.5312 4.59852 14.5312 4.785V18.84C14.5312 19.0265 14.4572 19.2053 14.3253 19.3372C14.1934 19.469 14.0146 19.5431 13.8281 19.5431ZM11.5134 5.48813C10.8719 5.48887 10.2569 5.74404 9.80328 6.19766C9.34966 6.65128 9.09449 7.2663 9.09375 7.90782V15.7172C9.09449 16.3587 9.34966 16.9737 9.80328 17.4273C10.2569 17.881 10.8719 18.1361 11.5134 18.1369H13.125V5.48813H11.5134Z" fill="#DBE2E6"/>
<path d="M16.704 14.5027C16.5649 14.5026 16.4289 14.4614 16.3133 14.3841C16.1977 14.3068 16.1076 14.1969 16.0544 14.0684C16.0012 13.9399 15.9874 13.7985 16.0145 13.6622C16.0417 13.5258 16.1087 13.4005 16.2071 13.3022L20.1811 9.32812C20.313 9.19628 20.4919 9.12224 20.6784 9.12228C20.8649 9.12233 21.0438 9.19646 21.1756 9.32836C21.3074 9.46026 21.3815 9.63914 21.3814 9.82563C21.3814 10.0121 21.3073 10.191 21.1754 10.3228L17.2032 14.2969C17.1376 14.3624 17.0598 14.4143 16.9741 14.4496C16.8884 14.4849 16.7966 14.5029 16.704 14.5027Z" fill="#DBE2E6"/>
<path d="M20.678 14.5027C20.5857 14.5028 20.4942 14.4847 20.409 14.4494C20.3237 14.4141 20.2462 14.3623 20.1811 14.2969L16.207 10.3228C16.0751 10.1907 16.0011 10.0117 16.0012 9.82498C16.0014 9.63831 16.0756 9.45933 16.2077 9.32743C16.3398 9.19552 16.5189 9.1215 16.7056 9.12163C16.8922 9.12176 17.0712 9.19604 17.2031 9.32813L21.1772 13.3022C21.2756 13.4005 21.3426 13.5258 21.3698 13.6623C21.3969 13.7987 21.383 13.9401 21.3297 14.0687C21.2765 14.1972 21.1863 14.307 21.0706 14.3843C20.9549 14.4615 20.8189 14.5027 20.6798 14.5027H20.678Z" fill="#DBE2E6"/>
</svg>
