<svg width="24" height="24" viewBox="0 0 24 24" fill="none" xmlns="http://www.w3.org/2000/svg">
<path d="M17.355 19.9495C17.2407 19.9499 17.128 19.9223 17.0269 19.8689L12.0469 17.25L7.06594 19.8689C6.94985 19.9296 6.81911 19.9567 6.68845 19.9471C6.5578 19.9375 6.43243 19.8916 6.32647 19.8145C6.22052 19.7375 6.1382 19.6324 6.0888 19.511C6.0394 19.3897 6.02487 19.257 6.04687 19.1278L6.99844 13.5816L2.96719 9.65344C2.87318 9.56188 2.80667 9.44584 2.77518 9.31844C2.74369 9.19105 2.74848 9.05738 2.78902 8.93257C2.82955 8.80775 2.9042 8.69678 3.00453 8.61219C3.10485 8.52759 3.22685 8.47277 3.35672 8.45391L8.92594 7.64485L11.4164 2.59828C11.4745 2.48066 11.5643 2.38163 11.6757 2.31238C11.7871 2.24313 11.9157 2.20644 12.0469 2.20644C12.1781 2.20644 12.3066 2.24313 12.418 2.31238C12.5294 2.38163 12.6193 2.48066 12.6773 2.59828L15.1678 7.64485L20.7366 8.45391C20.8665 8.4727 20.9885 8.52747 21.0889 8.61203C21.1893 8.69659 21.264 8.80757 21.3046 8.93239C21.3452 9.05722 21.35 9.19091 21.3185 9.31834C21.2871 9.44577 21.2206 9.56185 21.1266 9.65344L17.0953 13.5816L18.0469 19.1278C18.0641 19.2287 18.0592 19.3321 18.0323 19.4309C18.0055 19.5297 17.9574 19.6214 17.8914 19.6996C17.8254 19.7779 17.7431 19.8408 17.6503 19.884C17.5575 19.9271 17.4564 19.9495 17.3541 19.9495H17.355ZM4.96875 9.64078L8.24297 12.8325C8.32439 12.9119 8.38534 13.0098 8.42061 13.1179C8.45588 13.226 8.46441 13.341 8.44547 13.4531L7.6725 17.9597L11.7187 15.8334C11.8199 15.7801 11.9325 15.7522 12.0469 15.7522C12.1612 15.7522 12.2739 15.7801 12.375 15.8334L16.4222 17.9611L15.6483 13.4531C15.629 13.3408 15.6374 13.2255 15.6726 13.1172C15.7078 13.0088 15.7688 12.9107 15.8503 12.8311L19.125 9.64078L14.6002 8.98453C14.4874 8.96814 14.3803 8.92459 14.2881 8.85763C14.1959 8.79067 14.1214 8.70231 14.0709 8.60016L12.0469 4.5L10.0233 8.60016C9.97277 8.70237 9.89816 8.79077 9.80588 8.85773C9.71361 8.92469 9.60643 8.96821 9.49359 8.98453L4.96875 9.64078Z" fill="#DBE2E6"/>
</svg>
