<svg width="24" height="24" viewBox="0 0 24 24" fill="none" xmlns="http://www.w3.org/2000/svg">
<path d="M17.4763 21.0938H5.24194C5.05546 21.0938 4.87662 21.0197 4.74476 20.8878C4.6129 20.7559 4.53882 20.5771 4.53882 20.3906V7.05797C4.53882 6.87149 4.6129 6.69264 4.74476 6.56078C4.87662 6.42892 5.05546 6.35484 5.24194 6.35484H17.4763C17.6628 6.35484 17.8416 6.42892 17.9735 6.56078C18.1054 6.69264 18.1794 6.87149 18.1794 7.05797V20.3906C18.1794 20.5771 18.1054 20.7559 17.9735 20.8878C17.8416 21.0197 17.6628 21.0938 17.4763 21.0938ZM5.94507 19.6875H16.7732V7.76109H5.94507V19.6875Z" fill="#DBE2E6"/>
<path d="M14.1008 10.2187C13.9143 10.2187 13.7355 10.1447 13.6036 10.0128C13.4718 9.88095 13.3977 9.70211 13.3977 9.51562V5.69531C13.3863 5.16209 13.1664 4.65456 12.7853 4.28149C12.4041 3.90843 11.892 3.69951 11.3586 3.69951C10.8253 3.69951 10.3132 3.90843 9.93202 4.28149C9.55087 4.65456 9.33101 5.16209 9.31958 5.69531V9.51562C9.31958 9.70211 9.2455 9.88095 9.11364 10.0128C8.98178 10.1447 8.80294 10.2187 8.61646 10.2187C8.42997 10.2187 8.25113 10.1447 8.11927 10.0128C7.98741 9.88095 7.91333 9.70211 7.91333 9.51562V5.69531C7.92824 4.7914 8.29779 3.92956 8.94228 3.2956C9.58678 2.66165 10.4546 2.30637 11.3586 2.30637C12.2627 2.30637 13.1305 2.66165 13.775 3.2956C14.4195 3.92956 14.789 4.7914 14.804 5.69531V9.51562C14.804 9.70211 14.7299 9.88095 14.598 10.0128C14.4662 10.1447 14.2873 10.2187 14.1008 10.2187Z" fill="#DBE2E6"/>
</svg>
