<svg width="24" height="24" viewBox="0 0 24 24" fill="none" xmlns="http://www.w3.org/2000/svg">
<path d="M11.9592 19.3092C10.9209 19.3092 9.90585 19.0013 9.04249 18.4244C8.17913 17.8476 7.50622 17.0276 7.10886 16.0683C6.7115 15.109 6.60754 14.0534 6.81011 13.035C7.01268 12.0166 7.51269 11.0811 8.24692 10.3469C8.98115 9.61269 9.91661 9.11267 10.935 8.9101C11.9534 8.70753 13.009 8.81149 13.9683 9.20885C14.9276 9.60621 15.7476 10.2791 16.3244 11.1425C16.9013 12.0058 17.2092 13.0209 17.2092 14.0592C17.2081 15.4513 16.6546 16.786 15.6703 17.7703C14.686 18.7546 13.3513 19.3081 11.9592 19.3092ZM11.9592 10.2188C11.199 10.2188 10.4559 10.4442 9.82376 10.8665C9.19166 11.2889 8.69899 11.8892 8.40807 12.5916C8.11714 13.2939 8.04103 14.0668 8.18934 14.8124C8.33765 15.558 8.70373 16.2429 9.24129 16.7804C9.77885 17.318 10.4637 17.6841 11.2094 17.8324C11.955 17.9807 12.7278 17.9046 13.4302 17.6137C14.1325 17.3227 14.7328 16.8301 15.1552 16.198C15.5775 15.5659 15.803 14.8227 15.803 14.0625C15.8022 13.0433 15.397 12.0661 14.6764 11.3454C13.9557 10.6247 12.9784 10.2195 11.9592 10.2188Z" fill="#DBE2E6"/>
<path d="M6.42191 18.6563C6.3989 18.6563 6.3759 18.6552 6.353 18.653C6.33003 18.6506 6.30613 18.6469 6.28456 18.6427C6.263 18.6384 6.23769 18.6323 6.21753 18.6258C6.19558 18.6191 6.17399 18.6113 6.15285 18.6023C6.13175 18.5937 6.11109 18.584 6.09097 18.5733C6.07054 18.5624 6.05067 18.5505 6.03144 18.5377C6.01269 18.525 5.99394 18.5114 5.97613 18.4969C5.95831 18.4823 5.94097 18.4664 5.92456 18.45C5.90816 18.4336 5.89269 18.4163 5.87769 18.3984C5.86269 18.3806 5.84956 18.3619 5.83691 18.3431C5.82419 18.3239 5.81246 18.304 5.80175 18.2836C5.79113 18.2633 5.78128 18.2427 5.77222 18.2217C5.76331 18.2006 5.75581 18.1786 5.74878 18.1566C5.74175 18.1345 5.7366 18.1125 5.73191 18.09C5.72722 18.0675 5.72394 18.0431 5.7216 18.0216C5.71949 17.9988 5.71856 17.976 5.71878 17.9531C5.71871 17.93 5.7198 17.9068 5.72206 17.8838C5.72441 17.8613 5.72816 17.8369 5.73238 17.8158C5.7366 17.7947 5.74269 17.7689 5.74925 17.7488C5.75581 17.7286 5.76378 17.7052 5.77269 17.6841C5.7816 17.663 5.79144 17.6423 5.80222 17.6222C5.81293 17.6018 5.82466 17.5819 5.83738 17.5627C5.85003 17.5439 5.86363 17.5252 5.87816 17.5073C5.89269 17.4895 5.90863 17.4722 5.92503 17.4558C5.94144 17.4394 5.95878 17.4239 5.9766 17.4089C5.99441 17.3939 6.01316 17.3808 6.03191 17.3681C6.0704 17.343 6.11102 17.3214 6.15331 17.3034C6.17441 17.2945 6.19644 17.287 6.218 17.28C6.23956 17.273 6.26488 17.2678 6.28503 17.2631C6.30519 17.2584 6.33191 17.2552 6.35347 17.2528C6.39947 17.2486 6.44575 17.2486 6.49175 17.2528C6.51425 17.2552 6.53863 17.2589 6.55972 17.2631C6.58081 17.2673 6.6066 17.2734 6.62628 17.28C6.64597 17.2866 6.67035 17.2945 6.69144 17.3034C6.71253 17.3123 6.73316 17.3222 6.75331 17.333C6.7939 17.3546 6.83235 17.38 6.86816 17.4089C6.88597 17.4234 6.90331 17.4394 6.91925 17.4558C6.93519 17.4722 6.95113 17.4895 6.96613 17.5073C6.98113 17.5252 6.99425 17.5439 7.00691 17.5627C7.01962 17.5819 7.03136 17.6018 7.04206 17.6222C7.05269 17.6425 7.06253 17.6631 7.0716 17.6841C7.0805 17.7052 7.088 17.7272 7.09503 17.7488C7.10206 17.7703 7.10722 17.7933 7.11191 17.8158C7.1166 17.8383 7.11988 17.8627 7.12222 17.8838C7.12433 17.9068 7.12527 17.93 7.12503 17.9531C7.12512 17.9761 7.12402 17.9991 7.12175 18.022C7.11941 18.045 7.11566 18.0689 7.11144 18.0905C7.10722 18.112 7.10113 18.1373 7.09456 18.157C7.088 18.1767 7.08003 18.2011 7.07113 18.2222C7.06222 18.2433 7.05238 18.2639 7.0416 18.2841C7.03089 18.3045 7.01915 18.3244 7.00644 18.3436C6.99378 18.3623 6.97972 18.3811 6.96566 18.3989C6.9516 18.4167 6.93519 18.4341 6.91878 18.4505C6.90238 18.4669 6.8855 18.4823 6.86769 18.4973C6.83174 18.5262 6.79331 18.5517 6.75285 18.5738C6.73269 18.5841 6.71206 18.5944 6.69097 18.6028C6.6697 18.6118 6.64794 18.6196 6.62581 18.6262C6.60425 18.6328 6.58175 18.6384 6.55925 18.6431C6.53675 18.6478 6.51238 18.6511 6.49128 18.6534C6.46822 18.6555 6.44507 18.6565 6.42191 18.6563Z" fill="#DBE2E6"/>
<path d="M20.678 21.6478H3.24048C3.054 21.6478 2.87516 21.5737 2.74329 21.4419C2.61143 21.31 2.53735 21.1312 2.53735 20.9447V8.39906C2.53735 8.21258 2.61143 8.03374 2.74329 7.90188C2.87516 7.77002 3.054 7.69594 3.24048 7.69594H7.01907L8.14407 5.45063C8.20245 5.33412 8.29206 5.23614 8.40289 5.1676C8.51372 5.09907 8.64142 5.06268 8.77173 5.0625H15.1467C15.2773 5.06242 15.4053 5.09868 15.5164 5.16723C15.6275 5.23578 15.7173 5.33391 15.7758 5.45063L16.9008 7.69594H20.6789C20.8654 7.69594 21.0442 7.77002 21.1761 7.90188C21.308 8.03374 21.382 8.21258 21.382 8.39906V20.9447C21.382 21.0371 21.3638 21.1286 21.3284 21.214C21.293 21.2993 21.2412 21.3769 21.1758 21.4422C21.1104 21.5075 21.0328 21.5593 20.9473 21.5946C20.8619 21.6298 20.7704 21.6479 20.678 21.6478ZM3.9436 20.2416H19.9749V9.10219H16.4658C16.3353 9.10218 16.2074 9.06588 16.0964 8.99733C15.9854 8.92879 15.8956 8.83071 15.8372 8.71406L14.7122 6.46875H9.20626L8.08126 8.71406C8.02284 8.83064 7.93317 8.92867 7.82224 8.99721C7.71132 9.06575 7.58352 9.1021 7.45313 9.10219H3.9436V20.2416Z" fill="#DBE2E6"/>
</svg>
