<svg width="24" height="24" viewBox="0 0 24 24" fill="none" xmlns="http://www.w3.org/2000/svg">
<path d="M16.636 15.0938H14.0222C13.8357 15.0938 13.6569 15.0197 13.525 14.8878C13.3932 14.756 13.3191 14.5771 13.3191 14.3906C13.3191 14.2042 13.3932 14.0253 13.525 13.8934C13.6569 13.7616 13.8357 13.6875 14.0222 13.6875H16.636C17.501 13.6772 18.327 13.3263 18.935 12.711C19.5431 12.0956 19.884 11.2655 19.884 10.4004C19.884 9.53534 19.5431 8.70514 18.935 8.08981C18.327 7.47448 17.501 7.12362 16.636 7.11329C16.5474 7.11329 16.4531 7.11751 16.3481 7.12688C16.2153 7.13821 16.0819 7.11153 15.9637 7.04994C15.8454 6.98836 15.7471 6.89441 15.6802 6.77907C15.206 5.96123 14.4916 5.30927 13.6338 4.91181C12.7761 4.51435 11.8168 4.3907 10.8863 4.55766C9.95588 4.72462 9.09941 5.17409 8.43339 5.84496C7.76737 6.51583 7.32413 7.37554 7.16392 8.30719C7.13528 8.47532 7.0465 8.6273 6.91413 8.73483C6.78176 8.84237 6.61482 8.89813 6.44439 8.89172H6.3947C6.07972 8.89172 5.76781 8.95377 5.4768 9.07431C5.18579 9.19485 4.92137 9.37153 4.69864 9.59426C4.47591 9.81699 4.29923 10.0814 4.17869 10.3724C4.05815 10.6634 3.99611 10.9753 3.99611 11.2903C3.99611 11.6053 4.05815 11.9172 4.17869 12.2082C4.29923 12.4992 4.47591 12.7636 4.69864 12.9864C4.92137 13.2091 5.18579 13.3858 5.4768 13.5063C5.76781 13.6269 6.07972 13.6889 6.3947 13.6889H9.89674C10.0832 13.6889 10.2621 13.763 10.3939 13.8949C10.5258 14.0267 10.5999 14.2056 10.5999 14.392C10.5999 14.5785 10.5258 14.7574 10.3939 14.8892C10.2621 15.0211 10.0832 15.0952 9.89674 15.0952H6.3947C5.42904 15.0942 4.49984 14.7262 3.79542 14.0657C3.09101 13.4051 2.66406 12.5015 2.60112 11.5379C2.53817 10.5743 2.84393 9.62278 3.45643 8.87622C4.06894 8.12966 4.94236 7.64389 5.8997 7.51735C6.2002 6.40832 6.81243 5.40872 7.66378 4.63707C8.51513 3.86541 9.56991 3.35408 10.703 3.16368C11.8362 2.97329 13.0002 3.11183 14.0569 3.56286C15.1137 4.0139 16.019 4.75852 16.6655 5.70844C17.8939 5.73656 19.0624 6.2453 19.9199 7.12541C20.7774 8.00552 21.2555 9.18681 21.2517 10.4156C21.2478 11.6443 20.7622 12.8226 19.8992 13.6973C19.0362 14.572 17.8646 15.0734 16.636 15.0938Z" fill="#DBE2E6"/>
<path d="M11.9592 19.9219C11.7728 19.9217 11.594 19.8475 11.4623 19.7156L9.20388 17.4577C9.07197 17.3258 8.99785 17.147 8.9978 16.9605C8.99776 16.774 9.0718 16.5951 9.20364 16.4632C9.33548 16.3313 9.51432 16.2572 9.70082 16.2571C9.88732 16.2571 10.0662 16.3311 10.1981 16.463L11.9592 18.2245L13.7208 16.463C13.8527 16.3311 14.0315 16.2571 14.218 16.2571C14.4045 16.2572 14.5834 16.3313 14.7152 16.4632C14.847 16.5951 14.9211 16.774 14.921 16.9605C14.921 17.147 14.8469 17.3258 14.715 17.4577L12.4565 19.7156C12.3912 19.781 12.3137 19.8328 12.2284 19.8682C12.143 19.9036 12.0516 19.9219 11.9592 19.9219Z" fill="#DBE2E6"/>
<path d="M11.9592 19.9219C11.7727 19.9219 11.5939 19.8478 11.462 19.7159C11.3302 19.5841 11.2561 19.4052 11.2561 19.2188V11.4956C11.2561 11.3092 11.3302 11.1303 11.462 10.9985C11.5939 10.8666 11.7727 10.7925 11.9592 10.7925C12.1457 10.7925 12.3246 10.8666 12.4564 10.9985C12.5883 11.1303 12.6624 11.3092 12.6624 11.4956V19.2188C12.6624 19.4052 12.5883 19.5841 12.4564 19.7159C12.3246 19.8478 12.1457 19.9219 11.9592 19.9219Z" fill="#DBE2E6"/>
</svg>
