<svg width="24" height="24" viewBox="0 0 24 24" fill="none" xmlns="http://www.w3.org/2000/svg">
<path d="M17.0625 21.0938C16.9623 21.0938 16.8632 21.0724 16.772 21.031C16.6807 20.9896 16.5993 20.9292 16.5333 20.8538L12.8203 16.6097H5.56128C4.75964 16.6087 3.99112 16.2898 3.42432 15.7229C2.85751 15.156 2.53871 14.3874 2.53784 13.5858V5.27391C2.53871 4.47226 2.85751 3.7037 3.42432 3.13681C3.99112 2.56992 4.75964 2.25099 5.56128 2.25H18.3582C19.1598 2.25099 19.9283 2.56992 20.4951 3.13681C21.0619 3.7037 21.3807 4.47226 21.3816 5.27391V13.5858C21.3807 14.3874 21.0619 15.156 20.4951 15.7229C19.9283 16.2898 19.1598 16.6087 18.3582 16.6097H17.7657V20.3906C17.7657 20.5771 17.6916 20.7559 17.5597 20.8878C17.4279 21.0197 17.249 21.0938 17.0625 21.0938ZM5.56128 3.65625C5.13248 3.65687 4.72144 3.82752 4.41827 4.13076C4.11511 4.43401 3.94459 4.84511 3.94409 5.27391V13.5858C3.94459 14.0146 4.11511 14.4257 4.41827 14.7289C4.72144 15.0322 5.13248 15.2028 5.56128 15.2034H13.1391C13.2393 15.2034 13.3384 15.2248 13.4297 15.2662C13.5209 15.3076 13.6023 15.368 13.6683 15.4434L16.3594 18.5198V15.9066C16.3594 15.7201 16.4335 15.5412 16.5653 15.4094C16.6972 15.2775 16.876 15.2034 17.0625 15.2034H18.3558C18.7846 15.2028 19.1957 15.0322 19.4988 14.7289C19.802 14.4257 19.9725 14.0146 19.973 13.5858V5.27391C19.9725 4.84543 19.8022 4.43462 19.4995 4.13142C19.1967 3.82823 18.7862 3.65737 18.3577 3.65625H5.56128Z" fill="#DBE2E6"/>
<path d="M9.35761 12.375C9.17091 12.3747 8.99186 12.3007 8.85933 12.1692C8.84339 12.1528 8.82792 12.1355 8.81246 12.1177C8.79793 12.0999 8.78432 12.0815 8.77167 12.0623C8.75886 12.0433 8.74714 12.0236 8.73652 12.0033C8.72574 11.9831 8.71589 11.962 8.70699 11.9409C8.69808 11.9198 8.69058 11.8978 8.68355 11.8763C8.67652 11.8547 8.67136 11.8294 8.66667 11.8092C8.66199 11.7891 8.65871 11.7623 8.65636 11.7413C8.6541 11.7182 8.653 11.695 8.65308 11.6719C8.65299 11.6489 8.65409 11.6259 8.65636 11.603C8.65871 11.58 8.66246 11.5561 8.66667 11.5345C8.67089 11.513 8.67699 11.4877 8.68355 11.468C8.69011 11.4483 8.69808 11.4239 8.70699 11.4028C8.71589 11.3817 8.72574 11.3611 8.73652 11.3409C8.74723 11.3205 8.75896 11.3007 8.77167 11.2814C8.78433 11.2627 8.79792 11.2439 8.81246 11.2261C8.82699 11.2083 8.84292 11.1909 8.85933 11.1745C8.93315 11.1014 9.02212 11.0454 9.11996 11.0104C9.2178 10.9754 9.32213 10.9623 9.42558 10.972C9.44855 10.9744 9.47246 10.9781 9.49402 10.9823C9.51558 10.9866 9.54089 10.9927 9.56058 10.9992C9.58027 11.0058 9.60464 11.0138 9.62574 11.0227C9.64683 11.0316 9.66746 11.0414 9.68761 11.0522C9.70777 11.063 9.72792 11.0747 9.74714 11.0873C9.76636 11.1 9.78464 11.1136 9.80246 11.1281C9.82027 11.1427 9.83761 11.1586 9.85355 11.175C9.86949 11.1914 9.88542 11.2088 9.90042 11.2266C9.91542 11.2444 9.92855 11.2631 9.94121 11.2819C9.95392 11.3011 9.96565 11.321 9.97636 11.3414C9.9873 11.3617 9.99714 11.3823 10.0059 11.4033C10.0148 11.4244 10.0223 11.4464 10.0293 11.4684C10.0364 11.4905 10.0415 11.5125 10.0462 11.535C10.0509 11.5575 10.0542 11.5819 10.0565 11.6034C10.0589 11.625 10.0598 11.6503 10.0598 11.6723C10.0598 11.6944 10.0598 11.7192 10.0565 11.7417C10.0532 11.7642 10.0504 11.7886 10.0462 11.8097C10.042 11.8308 10.0359 11.8566 10.0293 11.8767C10.0228 11.8969 10.0148 11.9203 10.0059 11.9414C9.99699 11.9625 9.98714 11.9836 9.97636 12.0038C9.96558 12.0239 9.95386 12.0436 9.94121 12.0628C9.92855 12.082 9.91449 12.1003 9.90042 12.1181C9.88636 12.1359 9.86996 12.1533 9.85355 12.1697C9.83714 12.1861 9.82027 12.2016 9.80246 12.2166C9.78464 12.2316 9.76589 12.2447 9.74714 12.2573C9.72839 12.27 9.70777 12.2817 9.68761 12.2925C9.66746 12.3033 9.64683 12.3131 9.62574 12.322C9.60464 12.3309 9.58261 12.3384 9.56058 12.3455C9.53855 12.3525 9.51652 12.3577 9.49402 12.3623C9.47152 12.367 9.44714 12.3703 9.42558 12.3727C9.40402 12.375 9.38058 12.375 9.35761 12.375Z" fill="#DBE2E6"/>
<path d="M14.5613 12.375C14.5383 12.375 14.5144 12.375 14.4924 12.3717C14.4703 12.3684 14.4455 12.3656 14.4239 12.3614C14.4024 12.3572 14.377 12.3511 14.3569 12.3445C14.3367 12.338 14.3133 12.33 14.2922 12.3211C14.2711 12.3122 14.2505 12.3023 14.2303 12.2916C14.2099 12.2809 14.19 12.2691 14.1708 12.2564C14.152 12.2437 14.1333 12.2302 14.1155 12.2156C14.0977 12.2011 14.0803 12.1852 14.0639 12.1687C14.0475 12.1523 14.032 12.135 14.017 12.1172C14.002 12.0994 13.9889 12.0806 13.9763 12.0619C13.9635 12.0426 13.9518 12.0228 13.9411 12.0023C13.9302 11.982 13.9203 11.9614 13.9116 11.9405C13.9027 11.9194 13.8952 11.8973 13.8881 11.8758C13.8811 11.8542 13.8759 11.8289 13.8713 11.8087C13.8666 11.7886 13.8633 11.7619 13.8609 11.7408C13.8586 11.7197 13.8577 11.6939 13.8577 11.6714C13.8577 11.6489 13.8577 11.6245 13.8609 11.602C13.8642 11.5795 13.867 11.5552 13.8713 11.5341C13.8755 11.513 13.8816 11.4872 13.8881 11.467C13.8947 11.4469 13.9027 11.4234 13.9116 11.4023C13.9205 11.3812 13.9303 11.3602 13.9411 11.34C13.9519 11.3198 13.9636 11.3002 13.9763 11.2809C13.9889 11.2618 14.0025 11.2434 14.017 11.2256C14.0316 11.2078 14.0475 11.1905 14.0639 11.1741C14.0803 11.1577 14.0977 11.1422 14.1155 11.1272C14.1333 11.1122 14.152 11.0991 14.1708 11.0864C14.19 11.0737 14.2099 11.062 14.2303 11.0512C14.2506 11.0406 14.2713 11.0308 14.2922 11.0217C14.3133 11.0128 14.3353 11.0053 14.3569 10.9983C14.3784 10.9912 14.4038 10.9861 14.4239 10.9814C14.4441 10.9767 14.4708 10.9734 14.4924 10.9711C14.5384 10.9669 14.5846 10.9669 14.6306 10.9711C14.6531 10.9734 14.6775 10.9772 14.6986 10.9814C14.7197 10.9856 14.7455 10.9917 14.7656 10.9983C14.7858 11.0048 14.8092 11.0128 14.8303 11.0217C14.8514 11.0306 14.872 11.0405 14.8922 11.0512C14.9126 11.062 14.9325 11.0737 14.9517 11.0864C14.9705 11.0991 14.9892 11.1127 15.007 11.1272C15.0249 11.1417 15.0422 11.1577 15.0586 11.1741C15.075 11.1905 15.0905 11.2078 15.1055 11.2256C15.12 11.2434 15.1336 11.2618 15.1463 11.2809C15.1588 11.3003 15.1705 11.32 15.1814 11.34C15.1922 11.3602 15.202 11.3812 15.2109 11.4023C15.2199 11.4234 15.2274 11.4455 15.2344 11.467C15.2414 11.4886 15.2466 11.5139 15.2513 11.5341C15.2559 11.5542 15.2592 11.5809 15.2616 11.602C15.2661 11.6488 15.2661 11.6959 15.2616 11.7427C15.2592 11.7652 15.2555 11.7895 15.2513 11.8106C15.247 11.8317 15.2409 11.8575 15.2344 11.8777C15.2278 11.8978 15.2199 11.9212 15.2109 11.9423C15.202 11.9634 15.1922 11.9841 15.1814 12.0042C15.1707 12.0246 15.159 12.0445 15.1463 12.0637C15.1336 12.0825 15.12 12.1012 15.1055 12.1191C15.0909 12.1369 15.075 12.1542 15.0586 12.1706C15.0422 12.187 15.0249 12.2025 15.007 12.2175C14.9892 12.2325 14.9705 12.2456 14.9517 12.2583C14.9325 12.271 14.9126 12.2827 14.8922 12.2934C14.8719 12.3041 14.8513 12.3139 14.8303 12.323C14.8092 12.3319 14.7872 12.3394 14.7656 12.3464C14.7441 12.3534 14.7211 12.3586 14.6986 12.3633C14.6761 12.368 14.6517 12.3712 14.6306 12.3736C14.6095 12.3759 14.5842 12.375 14.5613 12.375Z" fill="#DBE2E6"/>
<path d="M11.9592 12.375C11.9362 12.3751 11.9132 12.374 11.8903 12.3717C11.8674 12.3694 11.8435 12.3656 11.8219 12.3614C11.8003 12.3572 11.7774 12.3511 11.7553 12.3445C11.7333 12.338 11.7117 12.33 11.6906 12.3211C11.6695 12.3122 11.6485 12.3023 11.6283 12.2916C11.5877 12.2699 11.5493 12.2445 11.5135 12.2156C11.4956 12.2011 11.4783 12.1852 11.4624 12.1687C11.4459 12.1524 11.4302 12.1352 11.4155 12.1172C11.401 12.0994 11.3869 12.0806 11.3742 12.0619C11.3615 12.0426 11.3498 12.0228 11.3391 12.0023C11.3285 11.982 11.3186 11.9614 11.3095 11.9405C11.3011 11.9194 11.2931 11.8973 11.2866 11.8753C11.2797 11.8534 11.2741 11.8312 11.2697 11.8087C11.2605 11.7635 11.256 11.7175 11.2561 11.6714C11.256 11.6482 11.2571 11.6251 11.2594 11.602C11.2617 11.5792 11.2651 11.5565 11.2697 11.5341C11.2742 11.5114 11.2798 11.4891 11.2866 11.467C11.2931 11.4455 11.3011 11.4234 11.3095 11.4023C11.318 11.3812 11.3283 11.3606 11.3391 11.3405C11.3498 11.32 11.3615 11.3002 11.3742 11.2809C11.3869 11.2622 11.401 11.2434 11.4155 11.2256C11.4302 11.2077 11.4459 11.1904 11.4624 11.1741C11.4783 11.1581 11.4956 11.1422 11.5135 11.1272C11.5493 11.0983 11.5877 11.0729 11.6283 11.0512C11.6485 11.0405 11.6695 11.0306 11.6906 11.0217C11.7117 11.0128 11.7333 11.0053 11.7553 10.9983C11.7774 10.9912 11.7999 10.9861 11.8219 10.9814C11.8439 10.9767 11.8688 10.9734 11.8903 10.9711C11.9371 10.9667 11.9842 10.9667 12.031 10.9711C12.0539 10.9734 12.0778 10.9772 12.0989 10.9814C12.12 10.9856 12.1458 10.9917 12.166 10.9983C12.1861 11.0048 12.2095 11.0128 12.2306 11.0217C12.2517 11.0306 12.2728 11.0405 12.293 11.0512C12.3131 11.062 12.3328 11.0737 12.352 11.0864C12.3713 11.099 12.3899 11.1127 12.4078 11.1272C12.4256 11.1417 12.443 11.1577 12.4589 11.1741C12.4754 11.1904 12.4911 11.2077 12.5058 11.2256C12.5203 11.2434 12.5339 11.2622 12.547 11.2809C12.5598 11.3002 12.5715 11.32 12.5822 11.3405C12.593 11.3605 12.6027 11.3812 12.6113 11.4023C12.6202 11.4235 12.628 11.4451 12.6347 11.467C12.6413 11.4891 12.6469 11.5139 12.6516 11.5341C12.6562 11.5565 12.6596 11.5792 12.6619 11.602C12.6642 11.6251 12.6652 11.6482 12.6652 11.6714C12.6653 11.7175 12.6608 11.7635 12.6516 11.8087C12.6469 11.8312 12.6413 11.8556 12.6347 11.8753C12.6281 11.8974 12.6203 11.9192 12.6113 11.9405C12.6027 11.9616 12.593 11.9823 12.5822 12.0023C12.5714 12.0225 12.5597 12.0427 12.547 12.0619C12.5344 12.0811 12.5203 12.0994 12.5058 12.1172C12.4911 12.1352 12.4754 12.1524 12.4589 12.1687C12.443 12.1847 12.4256 12.2006 12.4078 12.2156C12.3899 12.2302 12.3713 12.2438 12.352 12.2564C12.333 12.2689 12.3133 12.2806 12.293 12.2916C12.2728 12.3023 12.2517 12.3122 12.2306 12.3211C12.2095 12.33 12.188 12.3375 12.166 12.3445C12.1439 12.3516 12.1214 12.3567 12.0989 12.3614C12.0764 12.3661 12.052 12.3694 12.031 12.3717C12.0071 12.3741 11.9832 12.3752 11.9592 12.375Z" fill="#DBE2E6"/>
</svg>
