<svg width="24" height="24" viewBox="0 0 24 24" fill="none" xmlns="http://www.w3.org/2000/svg">
<path d="M17.5604 20.918C17.4601 20.918 17.3611 20.8966 17.2698 20.8552C17.1785 20.8138 17.0971 20.7534 17.0311 20.678L14.7586 18.0816C13.8442 18.3168 12.9035 18.4351 11.9593 18.4336C9.44395 18.4336 7.07301 17.6166 5.28379 16.1334C3.45566 14.6184 2.4502 12.593 2.4502 10.4297C2.4502 8.26641 3.4566 6.24094 5.28379 4.72594C7.07301 3.24281 9.44395 2.42578 11.9593 2.42578C14.4746 2.42578 16.846 3.24281 18.6352 4.72594C20.4633 6.24094 21.4688 8.26641 21.4688 10.4297C21.4688 12.7392 20.3054 14.9058 18.2635 16.4259V20.2148C18.2635 20.4013 18.1894 20.5802 18.0575 20.712C17.9257 20.8439 17.7468 20.918 17.5604 20.918ZM14.9954 16.5816C15.0956 16.5815 15.1946 16.6029 15.2859 16.6443C15.3772 16.6857 15.4586 16.7462 15.5246 16.8216L16.8572 18.3441V16.0636C16.8572 15.9493 16.8851 15.8367 16.9384 15.7355C16.9918 15.6344 17.069 15.5478 17.1633 15.4833C19.0055 14.2233 20.0625 12.3811 20.0625 10.4297C20.0625 6.79172 16.4274 3.83203 11.9593 3.83203C7.49113 3.83203 3.85645 6.79172 3.85645 10.4297C3.85645 14.0677 7.4916 17.0273 11.9593 17.0273C12.9183 17.0296 13.8725 16.8896 14.7905 16.612C14.857 16.592 14.926 16.5817 14.9954 16.5816Z" fill="#DBE2E6"/>
<path d="M11.9594 14.3784C11.9017 14.3783 11.8442 14.371 11.7883 14.3569C9.57764 13.8023 8.02327 12.4491 7.52264 10.6439C7.17811 9.3975 7.41342 8.13375 8.12264 7.42453C8.8778 6.66938 10.1073 6.46031 11.1822 6.90563C11.4669 7.02163 11.7295 7.18592 11.9584 7.39125C12.1876 7.18604 12.4503 7.02177 12.7351 6.90563C13.8095 6.46031 15.0391 6.67125 15.7947 7.42453C16.5039 8.13375 16.7392 9.3975 16.3942 10.6439C15.895 12.4491 14.3406 13.8023 12.1286 14.3569C12.0733 14.3709 12.0164 14.3781 11.9594 14.3784ZM10.0131 8.08172C9.69061 8.08172 9.35967 8.17547 9.1178 8.41922C8.82577 8.71125 8.64905 9.44016 8.87921 10.2689C9.22749 11.5284 10.3455 12.4978 11.9594 12.9478C13.5737 12.4978 14.6917 11.5284 15.04 10.2689C15.2692 9.44016 15.0934 8.71125 14.8014 8.41922C14.3898 8.00766 13.7233 8.01938 13.2742 8.205C13.1308 8.26406 12.6625 8.49094 12.6625 8.91141C12.6625 9.09789 12.5884 9.27673 12.4565 9.40859C12.3247 9.54045 12.1458 9.61453 11.9594 9.61453C11.7729 9.61453 11.594 9.54045 11.4622 9.40859C11.3303 9.27673 11.2562 9.09789 11.2562 8.91141C11.2562 8.48953 10.7875 8.26406 10.6469 8.205C10.4456 8.1233 10.2303 8.08143 10.0131 8.08172Z" fill="#DBE2E6"/>
</svg>
