<svg width="24" height="24" viewBox="0 0 24 24" fill="none" xmlns="http://www.w3.org/2000/svg">
<path d="M16.3337 20.2828H12.272C11.4795 20.2835 10.6933 20.1422 9.95073 19.8656L6.78667 18.6905C6.61337 18.6244 6.47319 18.4926 6.39665 18.3236C6.32012 18.1547 6.31342 17.9624 6.37802 17.7885C6.44263 17.6147 6.5733 17.4734 6.74158 17.3954C6.90987 17.3175 7.10213 17.3092 7.27651 17.3723L10.4401 18.5475C11.0263 18.7653 11.6467 18.8764 12.272 18.8756H16.3337C16.5104 18.8756 16.6798 18.8054 16.8047 18.6805C16.9296 18.5556 16.9998 18.3862 16.9998 18.2095C16.9998 18.0329 16.9296 17.8634 16.8047 17.7385C16.6798 17.6136 16.5104 17.5434 16.3337 17.5434C16.1472 17.5434 15.9684 17.4694 15.8365 17.3375C15.7047 17.2056 15.6306 17.0268 15.6306 16.8403C15.6306 16.6538 15.7047 16.475 15.8365 16.3431C15.9684 16.2113 16.1472 16.1372 16.3337 16.1372H17.2923C17.469 16.1372 17.6384 16.067 17.7633 15.9421C17.8882 15.8172 17.9584 15.6477 17.9584 15.4711C17.9584 15.2944 17.8882 15.125 17.7633 15.0001C17.6384 14.8752 17.469 14.805 17.2923 14.805C17.1058 14.805 16.927 14.7309 16.7951 14.5991C16.6632 14.4672 16.5892 14.2884 16.5892 14.1019C16.5892 13.9154 16.6632 13.7365 16.7951 13.6047C16.927 13.4728 17.1058 13.3987 17.2923 13.3987H18.2504C18.3822 13.3988 18.511 13.3597 18.6206 13.2866C18.7302 13.2134 18.8156 13.1093 18.866 12.9876C18.9164 12.8658 18.9296 12.7319 18.9039 12.6027C18.8782 12.4734 18.8147 12.3547 18.7215 12.2616C18.6598 12.1994 18.5864 12.1502 18.5056 12.1167C18.4247 12.0833 18.338 12.0662 18.2504 12.0666C18.0639 12.0666 17.8851 11.9925 17.7532 11.8606C17.6214 11.7288 17.5473 11.5499 17.5473 11.3634C17.5473 11.177 17.6214 10.9981 17.7532 10.8663C17.8851 10.7344 18.0639 10.6603 18.2504 10.6603H19.209C19.3406 10.6599 19.4691 10.6205 19.5783 10.5471C19.6875 10.4738 19.7725 10.3697 19.8227 10.2481C19.8728 10.1264 19.8858 9.99266 19.86 9.86364C19.8342 9.73463 19.7708 9.61614 19.6778 9.52312C19.6164 9.46122 19.5434 9.41208 19.4629 9.37853C19.3825 9.34498 19.2962 9.32769 19.209 9.32765H12.5696C12.4473 9.3278 12.327 9.29602 12.2207 9.23545C12.1144 9.17488 12.0257 9.08761 11.9635 8.98228C11.9012 8.87694 11.8675 8.75718 11.8657 8.63484C11.8639 8.51249 11.8941 8.3918 11.9532 8.28469C12.1668 7.85131 12.3123 7.38758 12.3845 6.90984C12.5434 5.88469 12.3475 4.95797 11.8023 4.15547C11.7321 4.05551 11.632 3.98047 11.5163 3.94119C11.4007 3.90192 11.2755 3.90044 11.159 3.93697C11.0425 3.9735 10.9406 4.04615 10.8681 4.14442C10.7955 4.24268 10.7561 4.36146 10.7556 4.48359C10.7785 6.89203 9.66573 8.64234 7.53761 9.54609C7.45228 9.58425 7.36021 9.60502 7.26677 9.60718C7.17332 9.60933 7.08039 9.59284 6.99339 9.55866C6.9064 9.52447 6.8271 9.47329 6.76012 9.4081C6.69314 9.34291 6.63983 9.26501 6.60331 9.17898C6.56679 9.09294 6.54778 9.00048 6.54742 8.90702C6.54705 8.81355 6.56532 8.72095 6.60116 8.63462C6.637 8.5483 6.68969 8.46999 6.75615 8.40427C6.82261 8.33855 6.90151 8.28674 6.98823 8.25187C7.86573 7.87687 8.50511 7.32609 8.88901 6.6075C9.20214 6.02109 9.35776 5.3114 9.34979 4.49812C9.34276 3.60937 9.89073 2.85937 10.7429 2.59406C11.5951 2.32875 12.4684 2.63062 12.9671 3.36562C14.1254 5.07 13.9164 6.83906 13.599 7.92234H19.209C19.6766 7.9224 20.1305 8.0806 20.4968 8.37123C20.8631 8.66185 21.1203 9.06783 21.2267 9.52316C21.3331 9.9785 21.2824 10.4564 21.0828 10.8793C20.8832 11.3022 20.5465 11.6451 20.1273 11.8523C20.357 12.3435 20.3854 12.905 20.2063 13.4168C20.0272 13.9286 19.655 14.35 19.1692 14.5908C19.399 15.082 19.4274 15.6437 19.2482 16.1556C19.069 16.6675 18.6966 17.089 18.2106 17.3297C18.3586 17.6455 18.4245 17.9935 18.4023 18.3415C18.3801 18.6896 18.2705 19.0264 18.0835 19.3208C17.8966 19.6152 17.6384 19.8578 17.3329 20.0259C17.0273 20.1941 16.6843 20.2824 16.3356 20.2828H16.3337Z" fill="#DBE2E6"/>
<path d="M7.26563 19.2417H3.24048C3.054 19.2417 2.87516 19.1676 2.74329 19.0358C2.61143 18.9039 2.53735 18.7251 2.53735 18.5386V8.89969C2.53735 8.71321 2.61143 8.53437 2.74329 8.4025C2.87516 8.27064 3.054 8.19656 3.24048 8.19656H7.26563C7.45212 8.19656 7.63096 8.27064 7.76282 8.4025C7.89468 8.53437 7.96876 8.71321 7.96876 8.89969V18.5386C7.96876 18.7251 7.89468 18.9039 7.76282 19.0358C7.63096 19.1676 7.45212 19.2417 7.26563 19.2417ZM3.94501 17.8355H6.56251V9.60281H3.9436L3.94501 17.8355Z" fill="#DBE2E6"/>
</svg>
