<svg width="24" height="24" viewBox="0 0 24 24" fill="none" xmlns="http://www.w3.org/2000/svg">
<path d="M11.3568 20.0339C11.1486 20.0339 10.9415 20.0023 10.7427 19.9402C9.88868 19.6734 9.34259 18.9258 9.35103 18.0361C9.35853 17.2228 9.20337 16.5127 8.89025 15.9267C8.50634 15.2081 7.86696 14.655 6.98946 14.2823C6.90424 14.2463 6.82695 14.1938 6.76202 14.1278C6.69708 14.0619 6.64577 13.9838 6.61102 13.898C6.57626 13.8123 6.55874 13.7205 6.55945 13.6279C6.56016 13.5354 6.57909 13.4439 6.61517 13.3587C6.65124 13.2734 6.70375 13.1962 6.76969 13.1312C6.83563 13.0663 6.91371 13.015 6.99948 12.9802C7.08525 12.9455 7.17703 12.9279 7.26957 12.9287C7.36212 12.9294 7.45361 12.9483 7.53884 12.9844C9.66696 13.8872 10.7798 15.6375 10.7568 18.0469C10.7574 18.169 10.7968 18.2878 10.8693 18.3861C10.9418 18.4843 11.0437 18.557 11.1602 18.5935C11.2768 18.63 11.4019 18.6286 11.5176 18.5893C11.6332 18.55 11.7333 18.475 11.8035 18.375C13.132 16.4198 11.9662 14.2673 11.9545 14.2458C11.8952 14.1387 11.8648 14.0181 11.8664 13.8957C11.868 13.7734 11.9016 13.6535 11.9637 13.5481C12.0258 13.4427 12.1144 13.3553 12.2206 13.2945C12.3268 13.2338 12.4471 13.2019 12.5695 13.2019H19.2088C19.3825 13.1973 19.5475 13.125 19.6687 13.0006C19.7899 12.8761 19.8577 12.7093 19.8577 12.5355C19.8577 12.3618 19.7899 12.195 19.6687 12.0705C19.5475 11.946 19.3825 11.8738 19.2088 11.8692H18.2502C18.0638 11.8692 17.8849 11.7951 17.7531 11.6633C17.6212 11.5314 17.5471 11.3526 17.5471 11.1661C17.5471 10.9796 17.6212 10.8008 17.7531 10.6689C17.8849 10.537 18.0638 10.463 18.2502 10.463C18.3377 10.463 18.4244 10.4458 18.5052 10.4124C18.5861 10.3789 18.6595 10.3299 18.7214 10.268C18.7832 10.2061 18.8323 10.1327 18.8658 10.0519C18.8992 9.97101 18.9164 9.88437 18.9163 9.79688C18.9161 9.62029 18.8458 9.45101 18.721 9.32615C18.5961 9.20129 18.4268 9.13103 18.2502 9.13078H17.2921C17.1056 9.13078 16.9268 9.0567 16.7949 8.92484C16.6631 8.79298 16.589 8.61414 16.589 8.42766C16.589 8.24118 16.6631 8.06233 16.7949 7.93047C16.9268 7.79861 17.1056 7.72453 17.2921 7.72453C17.4688 7.72453 17.6382 7.65435 17.7631 7.52944C17.888 7.40452 17.9582 7.2351 17.9582 7.05844C17.9582 6.88178 17.888 6.71236 17.7631 6.58744C17.6382 6.46252 17.4688 6.39234 17.2921 6.39234H16.3335C16.147 6.39234 15.9682 6.31827 15.8363 6.1864C15.7045 6.05454 15.6304 5.8757 15.6304 5.68922C15.6304 5.50274 15.7045 5.3239 15.8363 5.19203C15.9682 5.06017 16.147 4.98609 16.3335 4.98609C16.5102 4.98609 16.6796 4.91592 16.8045 4.791C16.9294 4.66608 16.9996 4.49666 16.9996 4.32C16.9996 4.14334 16.9294 3.97392 16.8045 3.849C16.6796 3.72408 16.5102 3.65391 16.3335 3.65391H12.2718C11.6466 3.65306 11.0264 3.76419 10.4404 3.98203L7.27634 5.15719C7.10629 5.20562 6.92423 5.18821 6.76645 5.10842C6.60866 5.02863 6.48673 4.89232 6.42494 4.72665C6.36316 4.56099 6.36605 4.37812 6.43306 4.2145C6.50007 4.05087 6.62626 3.9185 6.78649 3.84375L9.95056 2.66859C10.6931 2.3915 11.4793 2.24973 12.2718 2.25H16.3335C16.6822 2.25064 17.0251 2.33916 17.3305 2.50737C17.6359 2.67559 17.8939 2.91807 18.0808 3.21242C18.2677 3.50676 18.3774 3.84346 18.3997 4.19141C18.422 4.53935 18.3563 4.88731 18.2085 5.20313C18.6945 5.44384 19.067 5.86527 19.2461 6.37717C19.4253 6.88908 19.3969 7.45078 19.1671 7.94203C19.6529 8.18283 20.0252 8.60421 20.2043 9.11599C20.3833 9.62778 20.355 10.1893 20.1252 10.6805C20.5444 10.8877 20.8812 11.2307 21.0808 11.6535C21.2804 12.0764 21.3311 12.5543 21.2247 13.0096C21.1183 13.465 20.861 13.871 20.4947 14.1616C20.1284 14.4522 19.6746 14.6104 19.207 14.6105H13.5988C13.9162 15.6938 14.1252 17.4628 12.967 19.1677C12.791 19.4338 12.5518 19.6522 12.2709 19.8033C11.9899 19.9545 11.6759 20.0337 11.3568 20.0339Z" fill="#DBE2E6"/>
<path d="M7.26563 14.3367H3.24048C3.054 14.3367 2.87516 14.2626 2.74329 14.1308C2.61143 13.9989 2.53735 13.8201 2.53735 13.6336V3.99422C2.53735 3.80774 2.61143 3.62889 2.74329 3.49703C2.87516 3.36517 3.054 3.29109 3.24048 3.29109H7.26563C7.45212 3.29109 7.63096 3.36517 7.76282 3.49703C7.89468 3.62889 7.96876 3.80774 7.96876 3.99422V13.6336C7.96876 13.8201 7.89468 13.9989 7.76282 14.1308C7.63096 14.2626 7.45212 14.3367 7.26563 14.3367ZM3.94501 12.9305H6.56251V4.69734H3.9436L3.94501 12.9305Z" fill="#DBE2E6"/>
</svg>
