<svg width="24" height="24" viewBox="0 0 24 24" fill="none" xmlns="http://www.w3.org/2000/svg">
<path d="M17.6475 20.918C17.5473 20.918 17.4482 20.8966 17.3569 20.8552C17.2657 20.8138 17.1843 20.7534 17.1183 20.678L14.8458 18.0816C13.9315 18.3168 12.991 18.4351 12.0469 18.4336C9.5311 18.4336 7.16017 17.6166 5.37095 16.1334C3.54282 14.6184 2.53735 12.593 2.53735 10.4297C2.53735 8.26641 3.54376 6.24094 5.37095 4.72594C7.16017 3.24281 9.5311 2.42578 12.0469 2.42578C14.5627 2.42578 16.9331 3.24281 18.7224 4.72594C20.5505 6.24094 21.5559 8.26641 21.5559 10.4297C21.5559 12.7392 20.3925 14.9058 18.3506 16.4259V20.2148C18.3506 20.4013 18.2766 20.5802 18.1447 20.712C18.0128 20.8439 17.834 20.918 17.6475 20.918ZM15.0825 16.5816C15.1827 16.5815 15.2818 16.6029 15.3731 16.6443C15.4643 16.6857 15.5457 16.7462 15.6117 16.8216L16.9444 18.3441V16.0636C16.9443 15.9493 16.9721 15.8367 17.0254 15.7356C17.0786 15.6345 17.1557 15.5479 17.25 15.4833C19.0927 14.2233 20.1492 12.3811 20.1492 10.4297C20.1492 6.79172 16.5141 3.83203 12.0464 3.83203C7.57876 3.83203 3.9436 6.79172 3.9436 10.4297C3.9436 14.0677 7.57876 17.0273 12.0469 17.0273C13.0058 17.0296 13.9598 16.8896 14.8777 16.612C14.9441 16.592 15.0131 16.5818 15.0825 16.5816Z" fill="#DBE2E6"/>
<path d="M14.9892 8.41734H9.104C8.91752 8.41734 8.73868 8.34326 8.60682 8.2114C8.47496 8.07954 8.40088 7.9007 8.40088 7.71422C8.40088 7.52774 8.47496 7.34889 8.60682 7.21703C8.73868 7.08517 8.91752 7.01109 9.104 7.01109H14.9892C15.1756 7.01109 15.3545 7.08517 15.4863 7.21703C15.6182 7.34889 15.6923 7.52774 15.6923 7.71422C15.6923 7.9007 15.6182 8.07954 15.4863 8.2114C15.3545 8.34326 15.1756 8.41734 14.9892 8.41734Z" fill="#DBE2E6"/>
<path d="M14.9892 11.0705H9.104C8.91752 11.0705 8.73868 10.9964 8.60682 10.8645C8.47496 10.7327 8.40088 10.5538 8.40088 10.3673C8.40088 10.1809 8.47496 10.002 8.60682 9.87016C8.73868 9.73829 8.91752 9.66422 9.104 9.66422H14.9892C15.1756 9.66422 15.3545 9.73829 15.4863 9.87016C15.6182 10.002 15.6923 10.1809 15.6923 10.3673C15.6923 10.5538 15.6182 10.7327 15.4863 10.8645C15.3545 10.9964 15.1756 11.0705 14.9892 11.0705Z" fill="#DBE2E6"/>
<path d="M14.9892 13.7236H9.104C8.91752 13.7236 8.73868 13.6495 8.60682 13.5176C8.47496 13.3858 8.40088 13.2069 8.40088 13.0205C8.40088 12.834 8.47496 12.6551 8.60682 12.5233C8.73868 12.3914 8.91752 12.3173 9.104 12.3173H14.9892C15.1756 12.3173 15.3545 12.3914 15.4863 12.5233C15.6182 12.6551 15.6923 12.834 15.6923 13.0205C15.6923 13.2069 15.6182 13.3858 15.4863 13.5176C15.3545 13.6495 15.1756 13.7236 14.9892 13.7236Z" fill="#DBE2E6"/>
</svg>
