<svg width="24" height="24" viewBox="0 0 24 24" fill="none" xmlns="http://www.w3.org/2000/svg">
<path d="M17.8794 21.0938H7.15115C6.52841 21.093 5.93139 20.8453 5.49105 20.4049C5.0507 19.9646 4.80299 19.3676 4.80225 18.7448V4.59891C4.80299 3.97617 5.0507 3.37914 5.49105 2.9388C5.93139 2.49846 6.52841 2.25074 7.15115 2.25H14.1871C14.2794 2.24996 14.3709 2.26811 14.4562 2.30342C14.5416 2.33873 14.6191 2.3905 14.6844 2.45578L20.0226 7.79391C20.0878 7.85923 20.1396 7.93677 20.1749 8.02211C20.2102 8.10744 20.2284 8.1989 20.2283 8.29125V18.7444C20.2277 19.3672 19.9801 19.9643 19.5397 20.4048C19.0993 20.8452 18.5023 21.093 17.8794 21.0938ZM7.15115 3.65625C6.90122 3.6565 6.6616 3.75589 6.48487 3.93262C6.30814 4.10935 6.20874 4.34897 6.2085 4.59891V18.7448C6.20874 18.9948 6.30814 19.2344 6.48487 19.4111C6.6616 19.5879 6.90122 19.6873 7.15115 19.6875H17.8794C18.1294 19.6873 18.369 19.5879 18.5457 19.4111C18.7224 19.2344 18.8218 18.9948 18.8221 18.7448V8.58234L13.896 3.65625H7.15115Z" fill="#DBE2E6"/>
<path d="M19.5251 8.99438H15.8328C15.2101 8.99363 14.613 8.74592 14.1727 8.30557C13.7323 7.86523 13.4846 7.26821 13.4839 6.64547V2.95312C13.4839 2.76664 13.558 2.5878 13.6898 2.45594C13.8217 2.32408 14.0005 2.25 14.187 2.25C14.3735 2.25 14.5523 2.32408 14.6842 2.45594C14.8161 2.5878 14.8901 2.76664 14.8901 2.95312V6.64547C14.8904 6.8954 14.9898 7.13502 15.1665 7.31175C15.3432 7.48848 15.5829 7.58788 15.8328 7.58813H19.5251C19.7116 7.58813 19.8905 7.6622 20.0223 7.79407C20.1542 7.92593 20.2283 8.10477 20.2283 8.29125C20.2283 8.47773 20.1542 8.65657 20.0223 8.78843C19.8905 8.9203 19.7116 8.99438 19.5251 8.99438Z" fill="#DBE2E6"/>
<path d="M8.87017 13.0847C8.51673 13.0847 8.31188 13.2834 8.31188 13.7053V15.3497C8.31188 15.7716 8.51673 15.9703 8.87438 15.9703C9.37079 15.9703 9.40173 15.5916 9.42048 15.3497C9.43923 15.12 9.65017 15.0581 9.89813 15.0581C10.2333 15.0581 10.3884 15.1448 10.3884 15.517C10.3884 16.3425 9.7186 16.8141 8.83126 16.8141C8.01845 16.8141 7.34204 16.417 7.34204 15.3497V13.7053C7.34204 12.638 8.01845 12.2409 8.83126 12.2409C9.7186 12.2409 10.3884 12.6877 10.3884 13.4756C10.3884 13.8483 10.2333 13.935 9.9047 13.935C9.64407 13.935 9.43313 13.8666 9.42048 13.6434C9.41626 13.4822 9.39751 13.0847 8.87017 13.0847Z" fill="#DBE2E6"/>
<path d="M12.4008 12.2409C13.2572 12.2409 13.927 12.638 13.927 13.7053V15.3127C13.927 16.3795 13.2572 16.7766 12.4008 16.7766H11.3025C11.048 16.7766 10.8806 16.6402 10.8806 16.485V12.5325C10.8806 12.3773 11.048 12.2409 11.3025 12.2409H12.4008ZM11.8486 13.0847V15.9328H12.4008C12.7481 15.9328 12.9591 15.7345 12.9591 15.3127V13.7053C12.9591 13.2834 12.7481 13.0847 12.4008 13.0847H11.8486Z" fill="#DBE2E6"/>
<path d="M14.541 12.5325C14.5406 12.4935 14.5481 12.4549 14.563 12.4189C14.578 12.3829 14.6 12.3503 14.6279 12.3231C14.6557 12.2959 14.6888 12.2745 14.7251 12.2604C14.7614 12.2463 14.8002 12.2397 14.8392 12.2409H16.1249C16.9748 12.2409 17.6512 12.5573 17.6512 13.5689C17.6512 14.2636 17.3348 14.6611 16.9012 14.8284L17.6582 16.1995C17.6792 16.2331 17.6901 16.272 17.6896 16.3116C17.6896 16.5534 17.3667 16.8141 17.0803 16.8141C17.0167 16.8173 16.9536 16.802 16.8986 16.7701C16.8436 16.7381 16.799 16.6909 16.7704 16.6341L15.9187 14.9836H15.509V16.4789C15.509 16.6777 15.2671 16.7766 15.0253 16.7766C14.7834 16.7766 14.541 16.6777 14.541 16.4789V12.5325ZM15.509 13.0847V14.2392H16.1249C16.4723 14.2392 16.6832 14.0986 16.6832 13.6622C16.6832 13.2258 16.4723 13.0847 16.1249 13.0847H15.509Z" fill="#DBE2E6"/>
</svg>
