<svg width="24" height="24" viewBox="0 0 24 24" fill="none" xmlns="http://www.w3.org/2000/svg">
<path d="M17.4107 21.0938H6.6824C6.05966 21.093 5.46264 20.8453 5.0223 20.4049C4.58195 19.9646 4.33424 19.3676 4.3335 18.7448V4.59891C4.33424 3.97617 4.58195 3.37914 5.0223 2.9388C5.46264 2.49846 6.05966 2.25074 6.6824 2.25H13.7183C13.8107 2.24996 13.9021 2.26811 13.9875 2.30342C14.0728 2.33873 14.1504 2.3905 14.2157 2.45578L19.5538 7.79391C19.6191 7.85923 19.6709 7.93677 19.7062 8.02211C19.7415 8.10744 19.7596 8.1989 19.7596 8.29125V18.7444C19.759 19.3672 19.5113 19.9643 19.071 20.4048C18.6306 20.8452 18.0335 21.093 17.4107 21.0938ZM6.6824 3.65625C6.43247 3.6565 6.19285 3.75589 6.01612 3.93262C5.83939 4.10935 5.73999 4.34897 5.73975 4.59891V18.7448C5.73999 18.9948 5.83939 19.2344 6.01612 19.4111C6.19285 19.5879 6.43247 19.6873 6.6824 19.6875H17.4107C17.6606 19.6873 17.9002 19.5879 18.077 19.4111C18.2537 19.2344 18.3531 18.9948 18.3533 18.7448V8.58234L13.4272 3.65625H6.6824Z" fill="#DBE2E6"/>
<path d="M19.0564 8.99438H15.364C14.7413 8.99363 14.1443 8.74592 13.7039 8.30557C13.2636 7.86523 13.0159 7.26821 13.0151 6.64547V2.95312C13.0151 2.76664 13.0892 2.5878 13.2211 2.45594C13.3529 2.32408 13.5318 2.25 13.7183 2.25C13.9047 2.25 14.0836 2.32408 14.2154 2.45594C14.3473 2.5878 14.4214 2.76664 14.4214 2.95312V6.64547C14.4216 6.8954 14.521 7.13502 14.6978 7.31175C14.8745 7.48848 15.1141 7.58788 15.364 7.58813H19.0564C19.2429 7.58813 19.4217 7.6622 19.5536 7.79407C19.6854 7.92593 19.7595 8.10477 19.7595 8.29125C19.7595 8.47773 19.6854 8.65657 19.5536 8.78843C19.4217 8.9203 19.2429 8.99438 19.0564 8.99438Z" fill="#DBE2E6"/>
<path d="M7.10474 12.5325C7.10474 12.3773 7.24536 12.2409 7.46427 12.2409H8.74864C9.56802 12.2409 10.213 12.6258 10.213 13.6683V13.6992C10.213 14.7417 9.54317 15.1387 8.68677 15.1387H8.0727V16.4789C8.0727 16.6777 7.83036 16.7766 7.58849 16.7766C7.34661 16.7766 7.10474 16.6777 7.10474 16.4789V12.5325ZM8.0727 13.0847V14.3939H8.68677C9.03411 14.3939 9.24505 14.1956 9.24505 13.7737V13.7053C9.24505 13.2834 9.03411 13.0847 8.68677 13.0847H8.0727Z" fill="#DBE2E6"/>
<path d="M12.4964 15.5625C12.4964 14.8125 10.5277 14.9419 10.5277 13.4902C10.5277 12.5592 11.3405 12.2058 12.1163 12.2058C12.4444 12.2058 13.3509 12.2677 13.3509 12.7519C13.3509 12.9192 13.2394 13.2605 12.9661 13.2605C12.743 13.2605 12.6248 13.0261 12.1163 13.0261C11.6756 13.0261 11.4956 13.2061 11.4956 13.3983C11.4956 14.0189 13.4644 13.9012 13.4644 15.4645C13.4644 16.358 12.8128 16.8422 11.9133 16.8422C11.1005 16.8422 10.418 16.4452 10.418 16.0355C10.418 15.8245 10.6055 15.5142 10.8398 15.5142C11.1314 15.5142 11.3175 15.9736 11.8945 15.9736C12.18 15.9703 12.4964 15.8583 12.4964 15.5625Z" fill="#DBE2E6"/>
<path d="M15.4621 12.2409C16.3185 12.2409 16.9888 12.638 16.9888 13.7053V15.3127C16.9888 16.3795 16.3185 16.7766 15.4621 16.7766H14.3638C14.1097 16.7766 13.9419 16.6402 13.9419 16.485V12.5325C13.9419 12.3773 14.1097 12.2409 14.3638 12.2409H15.4621ZM14.9099 13.0847V15.9328H15.4621C15.8099 15.9328 16.0208 15.7345 16.0208 15.3127V13.7053C16.0208 13.2834 15.8099 13.0847 15.4621 13.0847H14.9099Z" fill="#DBE2E6"/>
</svg>
