<svg width="24" height="24" viewBox="0 0 24 24" fill="none" xmlns="http://www.w3.org/2000/svg">
<path d="M18.4419 21.0938H7.71365C7.09091 21.093 6.49389 20.8453 6.05355 20.4049C5.6132 19.9646 5.36549 19.3676 5.36475 18.7448V4.59891C5.36549 3.97617 5.6132 3.37914 6.05355 2.9388C6.49389 2.49846 7.09091 2.25074 7.71365 2.25H14.7496C14.8419 2.24996 14.9334 2.26811 15.0187 2.30342C15.1041 2.33873 15.1816 2.3905 15.2469 2.45578L20.5851 7.79391C20.6503 7.85923 20.7021 7.93677 20.7374 8.02211C20.7727 8.10744 20.7909 8.1989 20.7908 8.29125V18.7444C20.7902 19.3672 20.5426 19.9643 20.1022 20.4048C19.6618 20.8452 19.0648 21.093 18.4419 21.0938ZM7.71365 3.65625C7.46372 3.6565 7.2241 3.75589 7.04737 3.93262C6.87064 4.10935 6.77124 4.34897 6.771 4.59891V18.7448C6.77124 18.9948 6.87064 19.2344 7.04737 19.4111C7.2241 19.5879 7.46372 19.6873 7.71365 19.6875H18.4419C18.6919 19.6873 18.9315 19.5879 19.1082 19.4111C19.2849 19.2344 19.3843 18.9948 19.3846 18.7448V8.58234L14.4585 3.65625H7.71365Z" fill="#DBE2E6"/>
<path d="M20.0876 8.99438H16.3953C15.7726 8.99363 15.1755 8.74592 14.7352 8.30557C14.2948 7.86523 14.0471 7.26821 14.0464 6.64547V2.95312C14.0464 2.76664 14.1205 2.5878 14.2523 2.45594C14.3842 2.32408 14.563 2.25 14.7495 2.25C14.936 2.25 15.1148 2.32408 15.2467 2.45594C15.3786 2.5878 15.4526 2.76664 15.4526 2.95312V6.64547C15.4529 6.8954 15.5523 7.13502 15.729 7.31175C15.9057 7.48848 16.1454 7.58788 16.3953 7.58813H20.0876C20.2741 7.58813 20.453 7.6622 20.5848 7.79407C20.7167 7.92593 20.7908 8.10477 20.7908 8.29125C20.7908 8.47773 20.7167 8.65657 20.5848 8.78843C20.453 8.9203 20.2741 8.99438 20.0876 8.99438Z" fill="#DBE2E6"/>
<path d="M9.76763 13.0847C9.41372 13.0847 9.20935 13.2834 9.20935 13.7053V15.3497C9.20935 15.7716 9.41372 15.9703 9.77185 15.9703C10.2683 15.9703 10.2992 15.5916 10.3179 15.3497C10.3367 15.12 10.5476 15.0581 10.7956 15.0581C11.1308 15.0581 11.2859 15.1448 11.2859 15.517C11.2859 16.3425 10.6156 16.8141 9.72872 16.8141C8.91544 16.8141 8.2395 16.417 8.2395 15.3497V13.7053C8.2395 12.638 8.91544 12.2409 9.72872 12.2409C10.6156 12.2409 11.2859 12.6877 11.2859 13.4756C11.2859 13.8483 11.1308 13.935 10.8022 13.935C10.5415 13.935 10.3306 13.8666 10.3179 13.6434C10.3123 13.4822 10.295 13.0847 9.76763 13.0847Z" fill="#DBE2E6"/>
<path d="M13.6404 15.5625C13.6404 14.8125 11.6717 14.9419 11.6717 13.4902C11.6717 12.5592 12.4845 12.2058 13.2598 12.2058C13.5879 12.2058 14.4945 12.2677 14.4945 12.7519C14.4945 12.9192 14.3829 13.2605 14.1101 13.2605C13.8865 13.2605 13.7688 13.0261 13.2598 13.0261C12.8192 13.0261 12.6392 13.2061 12.6392 13.3983C12.6392 14.0189 14.6079 13.9012 14.6079 15.4645C14.6079 16.358 13.9563 16.8422 13.0563 16.8422C12.2435 16.8422 11.561 16.4452 11.561 16.0355C11.561 15.8245 11.7485 15.5142 11.9829 15.5142C12.2749 15.5142 12.461 15.9736 13.0381 15.9736C13.3231 15.9703 13.6404 15.8583 13.6404 15.5625Z" fill="#DBE2E6"/>
<path d="M16.9466 15.5625C16.9466 14.8125 14.9778 14.9419 14.9778 13.4902C14.9778 12.5592 15.7906 12.2058 16.566 12.2058C16.8941 12.2058 17.8006 12.2677 17.8006 12.7519C17.8006 12.9192 17.6891 13.2605 17.4163 13.2605C17.1927 13.2605 17.075 13.0261 16.566 13.0261C16.1258 13.0261 15.9458 13.2061 15.9458 13.3983C15.9458 14.0189 17.9146 13.9012 17.9146 15.4645C17.9146 16.358 17.263 16.8422 16.363 16.8422C15.5502 16.8422 14.8677 16.4452 14.8677 16.0355C14.8677 15.8245 15.0552 15.5142 15.2896 15.5142C15.5816 15.5142 15.7677 15.9736 16.3447 15.9736C16.6302 15.9703 16.9466 15.8583 16.9466 15.5625Z" fill="#DBE2E6"/>
</svg>
