<svg width="24" height="24" viewBox="0 0 24 24" fill="none" xmlns="http://www.w3.org/2000/svg">
<path d="M17.3169 21.0938H6.58865C5.96591 21.093 5.36889 20.8453 4.92855 20.4049C4.4882 19.9646 4.24049 19.3676 4.23975 18.7448V4.59891C4.24049 3.97617 4.4882 3.37914 4.92855 2.9388C5.36889 2.49846 5.96591 2.25074 6.58865 2.25H13.6246C13.7169 2.24996 13.8084 2.26811 13.8937 2.30342C13.9791 2.33873 14.0566 2.3905 14.1219 2.45578L19.4601 7.79391C19.5253 7.85923 19.5771 7.93677 19.6124 8.02211C19.6477 8.10744 19.6659 8.1989 19.6658 8.29125V18.7444C19.6652 19.3672 19.4176 19.9643 18.9772 20.4048C18.5368 20.8452 17.9398 21.093 17.3169 21.0938ZM6.58865 3.65625C6.33872 3.6565 6.0991 3.75589 5.92237 3.93262C5.74564 4.10935 5.64624 4.34897 5.646 4.59891V18.7448C5.64624 18.9948 5.74564 19.2344 5.92237 19.4111C6.0991 19.5879 6.33872 19.6873 6.58865 19.6875H17.3169C17.5669 19.6873 17.8065 19.5879 17.9832 19.4111C18.1599 19.2344 18.2593 18.9948 18.2596 18.7448V8.58234L13.3335 3.65625H6.58865Z" fill="#DBE2E6"/>
<path d="M18.9626 8.99438H15.2703C14.6476 8.99363 14.0505 8.74592 13.6102 8.30557C13.1698 7.86523 12.9221 7.26821 12.9214 6.64547V2.95312C12.9214 2.76664 12.9955 2.5878 13.1273 2.45594C13.2592 2.32408 13.438 2.25 13.6245 2.25C13.811 2.25 13.9898 2.32408 14.1217 2.45594C14.2536 2.5878 14.3276 2.76664 14.3276 2.95312V6.64547C14.3279 6.8954 14.4273 7.13502 14.604 7.31175C14.7807 7.48848 15.0204 7.58788 15.2703 7.58813H18.9626C19.1491 7.58813 19.328 7.6622 19.4598 7.79407C19.5917 7.92593 19.6658 8.10477 19.6658 8.29125C19.6658 8.47773 19.5917 8.65657 19.4598 8.78843C19.328 8.9203 19.1491 8.99438 18.9626 8.99438Z" fill="#DBE2E6"/>
<path d="M7.42017 12.5391C7.42017 12.3403 7.6311 12.2409 7.84204 12.2409H9.99548C10.1999 12.2409 10.287 12.4584 10.287 12.6567C10.287 12.8864 10.1816 13.0847 9.99548 13.0847H8.39048V14.1337H9.32798C9.51548 14.1337 9.61954 14.3133 9.61954 14.512C9.61954 14.6794 9.53282 14.8781 9.32798 14.8781H8.39048V16.4789C8.39048 16.6777 8.1486 16.7766 7.90673 16.7766C7.66485 16.7766 7.42251 16.6777 7.42251 16.4789L7.42017 12.5391Z" fill="#DBE2E6"/>
<path d="M11.0376 16.7766C10.8267 16.7766 10.6157 16.6777 10.6157 16.4789V12.5325C10.6157 12.3281 10.8576 12.2409 11.0999 12.2409C11.3423 12.2409 11.5837 12.3281 11.5837 12.5325V15.9328H12.9984C13.1859 15.9328 13.2796 16.1437 13.2796 16.3547C13.2796 16.5656 13.1859 16.7766 12.9984 16.7766H11.0376Z" fill="#DBE2E6"/>
<path d="M12.8928 12.7064C12.8861 12.6841 12.8819 12.6612 12.8801 12.638C12.8801 12.4087 13.234 12.2409 13.5008 12.2409C13.6559 12.2409 13.782 12.2906 13.8172 12.4209L14.6858 15.6042L15.5483 12.4219C15.5858 12.2916 15.71 12.2419 15.8647 12.2419C16.1318 12.2419 16.4853 12.4097 16.4853 12.6389C16.4837 12.6621 16.4796 12.685 16.4731 12.7073L15.319 16.4925C15.2506 16.7095 14.9712 16.815 14.6858 16.815C14.4003 16.815 14.1233 16.7095 14.0529 16.4925L12.8928 12.7064Z" fill="#DBE2E6"/>
</svg>
