<svg width="24" height="24" viewBox="0 0 24 24" fill="none" xmlns="http://www.w3.org/2000/svg">
<path d="M17.8794 21.0938H7.15115C6.52841 21.093 5.93139 20.8453 5.49105 20.4049C5.0507 19.9646 4.80299 19.3676 4.80225 18.7448V4.59891C4.80299 3.97617 5.0507 3.37914 5.49105 2.9388C5.93139 2.49846 6.52841 2.25074 7.15115 2.25H14.1871C14.2794 2.24996 14.3709 2.26811 14.4562 2.30342C14.5416 2.33873 14.6191 2.3905 14.6844 2.45578L20.0226 7.79391C20.0878 7.85923 20.1396 7.93677 20.1749 8.02211C20.2102 8.10744 20.2284 8.1989 20.2283 8.29125V18.7444C20.2277 19.3672 19.9801 19.9643 19.5397 20.4048C19.0993 20.8452 18.5023 21.093 17.8794 21.0938ZM7.15115 3.65625C6.90122 3.6565 6.6616 3.75589 6.48487 3.93262C6.30814 4.10935 6.20874 4.34897 6.2085 4.59891V18.7448C6.20874 18.9948 6.30814 19.2344 6.48487 19.4111C6.6616 19.5879 6.90122 19.6873 7.15115 19.6875H17.8794C18.1294 19.6873 18.369 19.5879 18.5457 19.4111C18.7224 19.2344 18.8218 18.9948 18.8221 18.7448V8.58234L13.896 3.65625H7.15115Z" fill="#DBE2E6"/>
<path d="M19.5251 8.99438H15.8328C15.2101 8.99363 14.613 8.74592 14.1727 8.30557C13.7323 7.86523 13.4846 7.26821 13.4839 6.64547V2.95312C13.4839 2.76664 13.558 2.5878 13.6898 2.45594C13.8217 2.32408 14.0005 2.25 14.187 2.25C14.3735 2.25 14.5523 2.32408 14.6842 2.45594C14.8161 2.5878 14.8901 2.76664 14.8901 2.95312V6.64547C14.8904 6.8954 14.9898 7.13502 15.1665 7.31175C15.3432 7.48848 15.5829 7.58788 15.8328 7.58813H19.5251C19.7116 7.58813 19.8905 7.6622 20.0223 7.79407C20.1542 7.92593 20.2283 8.10477 20.2283 8.29125C20.2283 8.47773 20.1542 8.65657 20.0223 8.78843C19.8905 8.9203 19.7116 8.99438 19.5251 8.99438Z" fill="#DBE2E6"/>
<path d="M9.33545 12.5325C9.33545 12.3773 9.47607 12.2409 9.69545 12.2409H10.9798C11.7987 12.2409 12.4442 12.6258 12.4442 13.6683V13.6992C12.4442 14.7417 11.7739 15.1387 10.9175 15.1387H10.3034V16.4789C10.3034 16.6777 10.0615 16.7766 9.8192 16.7766C9.57686 16.7766 9.33545 16.6777 9.33545 16.4789V12.5325ZM10.3034 13.0847V14.3939H10.9175C11.2648 14.3939 11.4762 14.1956 11.4762 13.7737V13.7053C11.4762 13.2834 11.2648 13.0847 10.9175 13.0847H10.3034Z" fill="#DBE2E6"/>
<path d="M14.7276 15.5625C14.7276 14.8125 12.7589 14.9419 12.7589 13.4902C12.7589 12.5592 13.5721 12.2058 14.3475 12.2058C14.6756 12.2058 15.5821 12.2677 15.5821 12.7519C15.5821 12.9192 15.4706 13.2605 15.1973 13.2605C14.9742 13.2605 14.8565 13.0261 14.3475 13.0261C13.9068 13.0261 13.7268 13.2061 13.7268 13.3983C13.7268 14.0189 15.6956 13.9012 15.6956 15.4645C15.6956 16.358 15.0445 16.8422 14.1445 16.8422C13.3317 16.8422 12.6492 16.4452 12.6492 16.0355C12.6492 15.8245 12.8367 15.5142 13.071 15.5142C13.3626 15.5142 13.5487 15.9736 14.1262 15.9736C14.4107 15.9703 14.7276 15.8583 14.7276 15.5625Z" fill="#DBE2E6"/>
</svg>
