<svg width="24" height="24" viewBox="0 0 24 24" fill="none" xmlns="http://www.w3.org/2000/svg">
<path d="M17.3169 21.0938H6.58865C5.96591 21.093 5.36889 20.8453 4.92855 20.4049C4.4882 19.9646 4.24049 19.3676 4.23975 18.7448V4.59891C4.24049 3.97617 4.4882 3.37914 4.92855 2.9388C5.36889 2.49846 5.96591 2.25074 6.58865 2.25H13.6246C13.7169 2.24996 13.8084 2.26811 13.8937 2.30342C13.9791 2.33873 14.0566 2.3905 14.1219 2.45578L19.4601 7.79391C19.5253 7.85923 19.5771 7.93677 19.6124 8.02211C19.6477 8.10744 19.6659 8.1989 19.6658 8.29125V18.7444C19.6652 19.3672 19.4176 19.9643 18.9772 20.4048C18.5368 20.8452 17.9398 21.093 17.3169 21.0938ZM6.58865 3.65625C6.33872 3.6565 6.0991 3.75589 5.92237 3.93262C5.74564 4.10935 5.64624 4.34897 5.646 4.59891V18.7448C5.64624 18.9948 5.74564 19.2344 5.92237 19.4111C6.0991 19.5879 6.33872 19.6873 6.58865 19.6875H17.3169C17.5669 19.6873 17.8065 19.5879 17.9832 19.4111C18.1599 19.2344 18.2593 18.9948 18.2596 18.7448V8.58234L13.3335 3.65625H6.58865Z" fill="#DBE2E6"/>
<path d="M18.9626 8.99438H15.2703C14.6476 8.99363 14.0505 8.74592 13.6102 8.30557C13.1698 7.86523 12.9221 7.26821 12.9214 6.64547V2.95312C12.9214 2.76664 12.9955 2.5878 13.1273 2.45594C13.2592 2.32408 13.438 2.25 13.6245 2.25C13.811 2.25 13.9898 2.32408 14.1217 2.45594C14.2536 2.5878 14.3276 2.76664 14.3276 2.95312V6.64547C14.3279 6.8954 14.4273 7.13502 14.604 7.31175C14.7807 7.48848 15.0204 7.58788 15.2703 7.58813H18.9626C19.1491 7.58813 19.328 7.6622 19.4598 7.79407C19.5917 7.92593 19.6658 8.10477 19.6658 8.29125C19.6658 8.47773 19.5917 8.65657 19.4598 8.78843C19.328 8.9203 19.1491 8.99438 18.9626 8.99438Z" fill="#DBE2E6"/>
<path d="M8.66437 15.1697C8.63228 15.2264 8.58523 15.2731 8.52835 15.3049C8.47147 15.3366 8.40697 15.3521 8.34188 15.3497C8.27905 15.3531 8.21663 15.3378 8.16248 15.3058C8.10833 15.2738 8.0649 15.2264 8.03766 15.1697L7.44844 14.0916V16.4822C7.44844 16.6809 7.20656 16.7798 6.96422 16.7798C6.72188 16.7798 6.48047 16.6809 6.48047 16.4822V12.7252C6.48047 12.3712 6.72234 12.2409 6.96422 12.2409C7.31203 12.2409 7.46063 12.2784 7.71422 12.7252L8.35312 13.8417L8.9925 12.7252C9.24703 12.2784 9.39562 12.2409 9.7425 12.2409C9.99047 12.2409 10.2263 12.3712 10.2263 12.7252V16.4789C10.2263 16.6777 9.98437 16.7766 9.7425 16.7766C9.50062 16.7766 9.25828 16.6777 9.25828 16.4789V14.152L8.66437 15.1697Z" fill="#DBE2E6"/>
<path d="M10.8979 12.5325C10.8979 12.3773 11.0386 12.2409 11.2579 12.2409H12.5423C13.3612 12.2409 14.0067 12.6258 14.0067 13.6683V13.6992C14.0067 14.7417 13.3369 15.1387 12.4804 15.1387H11.8659V16.4789C11.8659 16.6777 11.624 16.7766 11.3822 16.7766C11.1403 16.7766 10.8979 16.6777 10.8979 16.4789V12.5325ZM11.8659 13.0847V14.3939H12.4804C12.8278 14.3939 13.0387 14.1956 13.0387 13.7737V13.7053C13.0387 13.2834 12.8278 13.0847 12.4804 13.0847H11.8659Z" fill="#DBE2E6"/>
<path d="M15.9052 13.0847C15.5517 13.0847 15.3469 13.2834 15.3469 13.7053V15.3497C15.3469 15.7716 15.5517 15.9703 15.8991 15.9703C16.2464 15.9703 16.4578 15.7716 16.4578 15.3497V15.1406H16.0912C15.9037 15.1406 15.7997 14.9606 15.7997 14.7684C15.7997 14.5884 15.9052 14.3958 16.0912 14.3958H17.1337C17.3212 14.3958 17.4253 14.5387 17.4253 14.7V15.3516C17.4253 16.4189 16.7555 16.8159 15.8991 16.8159C15.0427 16.8159 14.3789 16.4189 14.3789 15.3516V13.7053C14.3789 12.638 15.0553 12.2409 15.8681 12.2409C16.7555 12.2409 17.4253 12.6877 17.4253 13.4756C17.4253 13.8483 17.2706 13.935 16.9416 13.935C16.6809 13.935 16.4639 13.8666 16.4578 13.6434C16.4517 13.4203 16.433 13.0847 15.9052 13.0847Z" fill="#DBE2E6"/>
</svg>
