<svg width="24" height="24" viewBox="0 0 24 24" fill="none" xmlns="http://www.w3.org/2000/svg">
<path d="M16.9419 21.0938H6.21365C5.59091 21.093 4.99389 20.8453 4.55355 20.4049C4.1132 19.9646 3.86549 19.3676 3.86475 18.7448V4.59891C3.86549 3.97617 4.1132 3.37914 4.55355 2.9388C4.99389 2.49846 5.59091 2.25074 6.21365 2.25H13.2496C13.3419 2.24996 13.4334 2.26811 13.5187 2.30342C13.6041 2.33873 13.6816 2.3905 13.7469 2.45578L19.0851 7.79391C19.1503 7.85923 19.2021 7.93677 19.2374 8.02211C19.2727 8.10744 19.2909 8.1989 19.2908 8.29125V18.7444C19.2902 19.3672 19.0426 19.9643 18.6022 20.4048C18.1618 20.8452 17.5648 21.093 16.9419 21.0938ZM6.21365 3.65625C5.96372 3.6565 5.7241 3.75589 5.54737 3.93262C5.37064 4.10935 5.27124 4.34897 5.271 4.59891V18.7448C5.27124 18.9948 5.37064 19.2344 5.54737 19.4111C5.7241 19.5879 5.96372 19.6873 6.21365 19.6875H16.9419C17.1919 19.6873 17.4315 19.5879 17.6082 19.4111C17.7849 19.2344 17.8843 18.9948 17.8846 18.7448V8.58234L12.9585 3.65625H6.21365Z" fill="#DBE2E6"/>
<path d="M18.5876 8.99438H14.8953C14.2726 8.99363 13.6755 8.74592 13.2352 8.30557C12.7948 7.86523 12.5471 7.26821 12.5464 6.64547V2.95312C12.5464 2.76664 12.6205 2.5878 12.7523 2.45594C12.8842 2.32408 13.063 2.25 13.2495 2.25C13.436 2.25 13.6148 2.32408 13.7467 2.45594C13.8786 2.5878 13.9526 2.76664 13.9526 2.95312V6.64547C13.9529 6.8954 14.0523 7.13502 14.229 7.31175C14.4057 7.48848 14.6454 7.58788 14.8953 7.58813H18.5876C18.7741 7.58813 18.953 7.6622 19.0848 7.79407C19.2167 7.92593 19.2908 8.10477 19.2908 8.29125C19.2908 8.47773 19.2167 8.65657 19.0848 8.78843C18.953 8.9203 18.7741 8.99438 18.5876 8.99438Z" fill="#DBE2E6"/>
<path d="M6.35328 12.8437C6.35295 12.8109 6.35926 12.7783 6.37184 12.748C6.38441 12.7176 6.40299 12.6901 6.42646 12.6671C6.44993 12.6442 6.4778 12.6262 6.5084 12.6142C6.539 12.6023 6.5717 12.5966 6.60453 12.5976H7.68735C8.40453 12.5976 8.975 12.8648 8.975 13.718C8.975 14.3044 8.70828 14.6395 8.34172 14.7811L8.98157 15.9375C8.9989 15.9657 9.00784 15.9982 9.00735 16.0312C9.00735 16.2352 8.73547 16.4531 8.49453 16.4531C8.44094 16.4557 8.38774 16.4427 8.34133 16.4158C8.29493 16.3888 8.2573 16.3491 8.23297 16.3012L7.51578 14.9091H7.17172V16.1719C7.17172 16.3397 6.96782 16.4231 6.76344 16.4231C6.55907 16.4231 6.35516 16.3397 6.35516 16.1719L6.35328 12.8437ZM7.17172 13.3073V14.2814H7.68735C7.98032 14.2814 8.1561 14.1609 8.1561 13.7944C8.1561 13.4278 7.97797 13.3073 7.68735 13.3073H7.17172Z" fill="#DBE2E6"/>
<path d="M9.14893 16.087C9.1503 16.0676 9.15375 16.0485 9.15924 16.0298L10.1328 12.8362C10.1905 12.653 10.4263 12.5644 10.6672 12.5644C10.9081 12.5644 11.1435 12.653 11.2011 12.8362L12.1799 16.0312C12.1853 16.0499 12.1888 16.069 12.1902 16.0884C12.1902 16.2825 11.8921 16.4236 11.6671 16.4236C11.5358 16.4236 11.4327 16.3819 11.3999 16.2717L11.2217 15.6155H10.1174L9.93924 16.2717C9.90783 16.3819 9.8033 16.4236 9.67252 16.4236C9.44705 16.4222 9.14893 16.2811 9.14893 16.087ZM11.0492 14.9878L10.6672 13.5848L10.2847 14.9878H11.0492Z" fill="#DBE2E6"/>
<path d="M15.75 16.1812C15.6872 16.3645 15.4519 16.4536 15.2109 16.4536C14.97 16.4536 14.7239 16.3645 14.6822 16.1812L14.4099 14.9409L14.138 16.1812C14.0958 16.3645 13.8445 16.4536 13.6092 16.4536C13.3739 16.4536 13.1274 16.3645 13.0697 16.1812L12.0281 12.9881C12.0214 12.9661 12.0179 12.9432 12.0178 12.9201C12.0178 12.742 12.3108 12.5953 12.5466 12.5953C12.6722 12.5953 12.7767 12.6375 12.8081 12.7472L13.605 15.4327L14.0156 13.6636C14.047 13.523 14.2303 13.4489 14.408 13.4489C14.5856 13.4489 14.7694 13.522 14.8008 13.6636L15.2142 15.4327L16.0111 12.7472C16.0425 12.6375 16.147 12.5953 16.2727 12.5953C16.507 12.5953 16.8014 12.742 16.8014 12.9201C16.8013 12.9432 16.7979 12.9661 16.7911 12.9881L15.75 16.1812Z" fill="#DBE2E6"/>
</svg>
