<svg width="24" height="24" viewBox="0 0 24 24" fill="none" xmlns="http://www.w3.org/2000/svg">
<path d="M17.8794 21.0938H7.15115C6.52841 21.093 5.93139 20.8453 5.49105 20.4049C5.0507 19.9646 4.80299 19.3676 4.80225 18.7448V4.59891C4.80299 3.97617 5.0507 3.37914 5.49105 2.9388C5.93139 2.49846 6.52841 2.25074 7.15115 2.25H14.1871C14.2794 2.24996 14.3709 2.26811 14.4562 2.30342C14.5416 2.33873 14.6191 2.3905 14.6844 2.45578L20.0226 7.79391C20.0878 7.85923 20.1396 7.93677 20.1749 8.02211C20.2102 8.10744 20.2284 8.1989 20.2283 8.29125V18.7444C20.2277 19.3672 19.9801 19.9643 19.5397 20.4048C19.0993 20.8452 18.5023 21.093 17.8794 21.0938ZM7.15115 3.65625C6.90122 3.6565 6.6616 3.75589 6.48487 3.93262C6.30814 4.10935 6.20874 4.34897 6.2085 4.59891V18.7448C6.20874 18.9948 6.30814 19.2344 6.48487 19.4111C6.6616 19.5879 6.90122 19.6873 7.15115 19.6875H17.8794C18.1294 19.6873 18.369 19.5879 18.5457 19.4111C18.7224 19.2344 18.8218 18.9948 18.8221 18.7448V8.58234L13.896 3.65625H7.15115Z" fill="#DBE2E6"/>
<path d="M19.5251 8.99438H15.8328C15.2101 8.99363 14.613 8.74592 14.1727 8.30557C13.7323 7.86523 13.4846 7.26821 13.4839 6.64547V2.95312C13.4839 2.76664 13.558 2.5878 13.6898 2.45594C13.8217 2.32408 14.0005 2.25 14.187 2.25C14.3735 2.25 14.5523 2.32408 14.6842 2.45594C14.8161 2.5878 14.8901 2.76664 14.8901 2.95312V6.64547C14.8904 6.8954 14.9898 7.13502 15.1665 7.31175C15.3432 7.48848 15.5829 7.58788 15.8328 7.58813H19.5251C19.7116 7.58813 19.8905 7.6622 20.0223 7.79407C20.1542 7.92593 20.2283 8.10477 20.2283 8.29125C20.2283 8.47773 20.1542 8.65657 20.0223 8.78843C19.8905 8.9203 19.7116 8.99438 19.5251 8.99438Z" fill="#DBE2E6"/>
<path d="M9.32014 15.1697C9.288 15.2263 9.24094 15.2731 9.18407 15.3048C9.12721 15.3366 9.06272 15.3521 8.99764 15.3497C8.9348 15.3532 8.87235 15.3379 8.81819 15.3059C8.76404 15.2738 8.72061 15.2264 8.69342 15.1697L8.10373 14.0916V16.4822C8.10373 16.6809 7.86186 16.7798 7.61998 16.7798C7.37811 16.7798 7.13623 16.6809 7.13623 16.4822V12.7252C7.13623 12.3712 7.37811 12.2409 7.61998 12.2409C7.96732 12.2409 8.11639 12.2784 8.36998 12.7252L9.00889 13.8417L9.64779 12.7252C9.90232 12.2784 10.0514 12.2409 10.3978 12.2409C10.6462 12.2409 10.882 12.3712 10.882 12.7252V16.4789C10.882 16.6777 10.6397 16.7766 10.3978 16.7766C10.1559 16.7766 9.91404 16.6777 9.91404 16.4789V14.152L9.32014 15.1697Z" fill="#DBE2E6"/>
<path d="M11.5537 12.5325C11.5537 12.3773 11.6943 12.2409 11.9137 12.2409H13.1981C14.017 12.2409 14.6625 12.6258 14.6625 13.6683V13.6992C14.6625 14.7417 13.9921 15.1387 13.1357 15.1387H12.5217V16.4789C12.5217 16.6777 12.2798 16.7766 12.0375 16.7766C11.7951 16.7766 11.5537 16.6777 11.5537 16.4789V12.5325ZM12.5217 13.0847V14.3939H13.1357C13.4836 14.3939 13.6945 14.1956 13.6945 13.7737V13.7053C13.6945 13.2834 13.4836 13.0847 13.1357 13.0847H12.5217Z" fill="#DBE2E6"/>
<path d="M16.927 15.4116V15.2939C16.927 14.8781 16.6725 14.7975 16.3313 14.7975C16.1203 14.7975 16.0524 14.61 16.0524 14.4253C16.0524 14.2406 16.1203 14.0527 16.3313 14.0527C16.5656 14.0527 16.8155 14.0217 16.8155 13.5192C16.8155 13.1592 16.6106 13.0725 16.3561 13.0725C16.0524 13.0725 15.8972 13.147 15.8972 13.3889C15.8972 13.5998 15.8035 13.7428 15.4439 13.7428C14.9972 13.7428 14.9414 13.6491 14.9414 13.3519C14.9414 12.8677 15.2888 12.2409 16.3561 12.2409C17.1441 12.2409 17.7399 12.5264 17.7399 13.3659C17.7399 13.8187 17.5725 14.2411 17.2622 14.3836C17.6283 14.52 17.895 14.7933 17.895 15.2958V15.4134C17.895 16.4311 17.1919 16.8159 16.3252 16.8159C15.2578 16.8159 14.8481 16.1644 14.8481 15.6441C14.8481 15.3628 14.9663 15.2906 15.3075 15.2906C15.7046 15.2906 15.8039 15.3773 15.8039 15.6131C15.8039 15.9047 16.0767 15.9731 16.3561 15.9731C16.778 15.9703 16.927 15.8152 16.927 15.4116Z" fill="#DBE2E6"/>
</svg>
