<svg width="24" height="24" viewBox="0 0 24 24" fill="none" xmlns="http://www.w3.org/2000/svg">
<path d="M17.3169 21.0938H6.58865C5.96591 21.093 5.36889 20.8453 4.92855 20.4049C4.4882 19.9646 4.24049 19.3676 4.23975 18.7448V4.59891C4.24049 3.97617 4.4882 3.37914 4.92855 2.9388C5.36889 2.49846 5.96591 2.25074 6.58865 2.25H13.6246C13.7169 2.24996 13.8084 2.26811 13.8937 2.30342C13.9791 2.33873 14.0566 2.3905 14.1219 2.45578L19.4601 7.79391C19.5253 7.85923 19.5771 7.93677 19.6124 8.02211C19.6477 8.10744 19.6659 8.1989 19.6658 8.29125V18.7444C19.6652 19.3672 19.4176 19.9643 18.9772 20.4048C18.5368 20.8452 17.9398 21.093 17.3169 21.0938ZM6.58865 3.65625C6.33872 3.6565 6.0991 3.75589 5.92237 3.93262C5.74564 4.10935 5.64624 4.34897 5.646 4.59891V18.7448C5.64624 18.9948 5.74564 19.2344 5.92237 19.4111C6.0991 19.5879 6.33872 19.6873 6.58865 19.6875H17.3169C17.5669 19.6873 17.8065 19.5879 17.9832 19.4111C18.1599 19.2344 18.2593 18.9948 18.2596 18.7448V8.58234L13.3335 3.65625H6.58865Z" fill="#DBE2E6"/>
<path d="M18.9626 8.99438H15.2703C14.6476 8.99363 14.0505 8.74592 13.6102 8.30557C13.1698 7.86523 12.9221 7.26821 12.9214 6.64547V2.95312C12.9214 2.76664 12.9955 2.5878 13.1273 2.45594C13.2592 2.32408 13.438 2.25 13.6245 2.25C13.811 2.25 13.9898 2.32408 14.1217 2.45594C14.2536 2.5878 14.3276 2.76664 14.3276 2.95312V6.64547C14.3279 6.8954 14.4273 7.13502 14.604 7.31175C14.7807 7.48848 15.0204 7.58788 15.2703 7.58813H18.9626C19.1491 7.58813 19.328 7.6622 19.4598 7.79407C19.5917 7.92593 19.6658 8.10477 19.6658 8.29125C19.6658 8.47773 19.5917 8.65657 19.4598 8.78843C19.328 8.9203 19.1491 8.99438 18.9626 8.99438Z" fill="#DBE2E6"/>
<path d="M9.42461 13.0847C9.0707 13.0847 8.86586 13.2834 8.86586 13.7053V15.3497C8.86586 15.7716 9.0707 15.9703 9.41851 15.9703C9.76633 15.9703 9.9768 15.7716 9.9768 15.3497V15.1406H9.6093C9.4218 15.1406 9.31773 14.9606 9.31773 14.7684C9.31773 14.5884 9.4232 14.3958 9.6093 14.3958H10.6518C10.8393 14.3958 10.9434 14.5387 10.9434 14.7V15.3516C10.9434 16.4189 10.273 16.8159 9.41711 16.8159C8.56117 16.8159 7.89648 16.4189 7.89648 15.3516V13.7053C7.89648 12.638 8.57289 12.2409 9.3857 12.2409C10.273 12.2409 10.9434 12.6877 10.9434 13.4756C10.9434 13.8483 10.7882 13.935 10.4591 13.935C10.1985 13.935 9.98148 13.8666 9.97539 13.6434C9.9693 13.4203 9.95195 13.0847 9.42461 13.0847Z" fill="#DBE2E6"/>
<path d="M11.5029 12.5325C11.5029 12.3281 11.7448 12.2409 11.9867 12.2409C12.2286 12.2409 12.4709 12.3281 12.4709 12.5325V16.4789C12.4709 16.6777 12.229 16.7766 11.9867 16.7766C11.7443 16.7766 11.5029 16.6777 11.5029 16.4789V12.5325Z" fill="#DBE2E6"/>
<path d="M13.1409 12.5391C13.1409 12.3403 13.3518 12.2409 13.5627 12.2409H15.7162C15.921 12.2409 16.0077 12.4584 16.0077 12.6567C16.0077 12.8864 15.9023 13.0847 15.7162 13.0847H14.1093V14.1337H15.0468C15.2343 14.1337 15.3384 14.3133 15.3384 14.512C15.3384 14.6794 15.2517 14.8781 15.0468 14.8781H14.1093V16.4789C14.1093 16.6777 13.8674 16.7766 13.6256 16.7766C13.3837 16.7766 13.1413 16.6777 13.1413 16.4789L13.1409 12.5391Z" fill="#DBE2E6"/>
</svg>
