<svg width="24" height="24" viewBox="0 0 24 24" fill="none" xmlns="http://www.w3.org/2000/svg">
<path d="M17.8794 21.0938H7.15115C6.52841 21.093 5.93139 20.8453 5.49105 20.4049C5.0507 19.9646 4.80299 19.3676 4.80225 18.7448V4.59891C4.80299 3.97617 5.0507 3.37914 5.49105 2.9388C5.93139 2.49846 6.52841 2.25074 7.15115 2.25H14.1871C14.2794 2.24996 14.3709 2.26811 14.4562 2.30342C14.5416 2.33873 14.6191 2.3905 14.6844 2.45578L20.0226 7.79391C20.0878 7.85923 20.1396 7.93677 20.1749 8.02211C20.2102 8.10744 20.2284 8.1989 20.2283 8.29125V18.7444C20.2277 19.3672 19.9801 19.9643 19.5397 20.4048C19.0993 20.8452 18.5023 21.093 17.8794 21.0938ZM7.15115 3.65625C6.90122 3.6565 6.6616 3.75589 6.48487 3.93262C6.30814 4.10935 6.20874 4.34897 6.2085 4.59891V18.7448C6.20874 18.9948 6.30814 19.2344 6.48487 19.4111C6.6616 19.5879 6.90122 19.6873 7.15115 19.6875H17.8794C18.1294 19.6873 18.369 19.5879 18.5457 19.4111C18.7224 19.2344 18.8218 18.9948 18.8221 18.7448V8.58234L13.896 3.65625H7.15115Z" fill="#DBE2E6"/>
<path d="M19.5251 8.99438H15.8328C15.2101 8.99363 14.613 8.74592 14.1727 8.30557C13.7323 7.86523 13.4846 7.26821 13.4839 6.64547V2.95312C13.4839 2.76664 13.558 2.5878 13.6898 2.45594C13.8217 2.32408 14.0005 2.25 14.187 2.25C14.3735 2.25 14.5523 2.32408 14.6842 2.45594C14.8161 2.5878 14.8901 2.76664 14.8901 2.95312V6.64547C14.8904 6.8954 14.9898 7.13502 15.1665 7.31175C15.3432 7.48848 15.5829 7.58788 15.8328 7.58813H19.5251C19.7116 7.58813 19.8905 7.6622 20.0223 7.79407C20.1542 7.92593 20.2283 8.10477 20.2283 8.29125C20.2283 8.47773 20.1542 8.65657 20.0223 8.78843C19.8905 8.9203 19.7116 8.99438 19.5251 8.99438Z" fill="#DBE2E6"/>
<path d="M8.63154 14.1337H9.56248C9.74998 14.1337 9.85404 14.3133 9.85404 14.512C9.85404 14.6794 9.76732 14.8781 9.56248 14.8781H8.63154V15.9328H10.2942C10.4817 15.9328 10.5858 16.1316 10.5858 16.3612C10.5858 16.5595 10.499 16.7766 10.2942 16.7766H8.08545C7.87451 16.7766 7.66357 16.6777 7.66357 16.4789V12.5391C7.66357 12.3403 7.87451 12.2409 8.08545 12.2409H10.2942C10.499 12.2409 10.5858 12.4584 10.5858 12.6567C10.5858 12.8864 10.4803 13.0847 10.2942 13.0847H8.63154V14.1337Z" fill="#DBE2E6"/>
<path d="M11.0076 12.5325C11.0076 12.3773 11.1482 12.2409 11.3676 12.2409H12.6519C13.4708 12.2409 14.1163 12.6258 14.1163 13.6683V13.6992C14.1163 14.7417 13.446 15.1387 12.5896 15.1387H11.9755V16.4789C11.9755 16.6777 11.7337 16.7766 11.4918 16.7766C11.2499 16.7766 11.0076 16.6777 11.0076 16.4789V12.5325ZM11.9755 13.0847V14.3939H12.5896C12.9374 14.3939 13.1483 14.1956 13.1483 13.7737V13.7053C13.1483 13.2834 12.9374 13.0847 12.5896 13.0847H11.9755Z" fill="#DBE2E6"/>
<path d="M16.3997 15.5625C16.3997 14.8125 14.431 14.9419 14.431 13.4902C14.431 12.5592 15.2438 12.2058 16.0191 12.2058C16.3472 12.2058 17.2538 12.2677 17.2538 12.7519C17.2538 12.9192 17.1422 13.2605 16.8694 13.2605C16.6458 13.2605 16.5281 13.0261 16.0191 13.0261C15.5785 13.0261 15.3989 13.2061 15.3989 13.3983C15.3989 14.0189 17.3677 13.9012 17.3677 15.4645C17.3677 16.358 16.7161 16.8422 15.8161 16.8422C15.0033 16.8422 14.3208 16.4452 14.3208 16.0355C14.3208 15.8245 14.5083 15.5142 14.7427 15.5142C15.0347 15.5142 15.2208 15.9736 15.7978 15.9736C16.0833 15.9703 16.3997 15.8583 16.3997 15.5625Z" fill="#DBE2E6"/>
</svg>
