<svg width="24" height="24" viewBox="0 0 24 24" fill="none" xmlns="http://www.w3.org/2000/svg">
<path d="M13.3941 21.0937H4.62422C4.08154 21.0925 3.56147 20.8762 3.17795 20.4923C2.79444 20.1083 2.57874 19.588 2.57812 19.0453V7.48218C2.57875 6.93909 2.79476 6.41843 3.17878 6.03441C3.56281 5.65038 4.08347 5.43437 4.62656 5.43375H10.3781C10.5645 5.43379 10.7432 5.5078 10.875 5.63953L15.2344 10.0031C15.2997 10.0684 15.3516 10.1459 15.387 10.2313C15.4224 10.3166 15.4406 10.4081 15.4406 10.5005V19.0453C15.44 19.5881 15.2242 20.1085 14.8406 20.4924C14.457 20.8764 13.9368 21.0926 13.3941 21.0937ZM4.62422 6.84C4.45434 6.84074 4.29167 6.90871 4.17177 7.02905C4.05187 7.14939 3.9845 7.31231 3.98438 7.48218V19.0453C3.98462 19.2151 4.05204 19.378 4.17191 19.4983C4.29178 19.6186 4.45438 19.6866 4.62422 19.6875H13.3941C13.5643 19.6872 13.7275 19.6195 13.8479 19.4991C13.9683 19.3788 14.036 19.2156 14.0363 19.0453V10.7916L10.0847 6.84H4.62422Z" fill="#DBE2E6"/>
<path d="M16.5347 17.9531H14.7394C14.5529 17.9531 14.3741 17.879 14.2422 17.7472C14.1103 17.6153 14.0363 17.4365 14.0363 17.25C14.0363 17.0635 14.1103 16.8847 14.2422 16.7528C14.3741 16.6209 14.5529 16.5469 14.7394 16.5469H16.5347C16.7049 16.5466 16.8681 16.4789 16.9885 16.3585C17.1089 16.2381 17.1766 16.0749 17.1769 15.9047V4.34156C17.1766 4.17132 17.1089 4.00812 16.9885 3.88774C16.8681 3.76736 16.7049 3.69962 16.5347 3.69937H7.76484C7.59501 3.70024 7.43241 3.76825 7.31254 3.88856C7.19266 4.00888 7.12525 4.17172 7.125 4.34156V6.13687C7.125 6.32335 7.05092 6.50219 6.91906 6.63406C6.7872 6.76592 6.60836 6.84 6.42188 6.84C6.23539 6.84 6.05655 6.76592 5.92469 6.63406C5.79283 6.50219 5.71875 6.32335 5.71875 6.13687V4.34156C5.71925 3.79843 5.93522 3.27769 6.31927 2.89364C6.70332 2.50959 7.22406 2.29362 7.76719 2.29312H16.5347C17.0778 2.29362 17.5986 2.50959 17.9826 2.89364C18.3667 3.27769 18.5826 3.79843 18.5831 4.34156V15.9047C18.5826 16.4478 18.3667 16.9685 17.9826 17.3526C17.5986 17.7366 17.0778 17.9526 16.5347 17.9531Z" fill="#DBE2E6"/>
<path d="M14.7393 11.2031H11.721C11.178 11.2025 10.6573 10.9865 10.2733 10.6025C9.88924 10.2184 9.67323 9.69777 9.67261 9.15468V6.13687C9.67261 5.95039 9.74669 5.77155 9.87855 5.63969C10.0104 5.50783 10.1893 5.43375 10.3757 5.43375C10.5622 5.43375 10.7411 5.50783 10.8729 5.63969C11.0048 5.77155 11.0789 5.95039 11.0789 6.13687V9.15515C11.079 9.32543 11.1467 9.4887 11.2671 9.60911C11.3875 9.72952 11.5508 9.79722 11.721 9.79734H14.7393C14.9258 9.79734 15.1046 9.87142 15.2365 10.0033C15.3684 10.1351 15.4425 10.314 15.4425 10.5005C15.4425 10.6869 15.3684 10.8658 15.2365 10.9977C15.1046 11.1295 14.9258 11.2036 14.7393 11.2036V11.2031Z" fill="#DBE2E6"/>
</svg>
