<svg width="24" height="24" viewBox="0 0 24 24" fill="none" xmlns="http://www.w3.org/2000/svg">
<path d="M18.3699 21.0938H7.64065C7.01791 21.093 6.42089 20.8453 5.98055 20.4049C5.5402 19.9646 5.29249 19.3676 5.29175 18.7448V4.59891C5.29249 3.97617 5.5402 3.37914 5.98055 2.9388C6.42089 2.49846 7.01791 2.25074 7.64065 2.25H14.6766C14.7689 2.24996 14.8604 2.26811 14.9457 2.30342C15.0311 2.33873 15.1086 2.3905 15.1739 2.45578L20.513 7.79391C20.5783 7.85923 20.6301 7.93677 20.6654 8.02211C20.7007 8.10744 20.7188 8.1989 20.7188 8.29125V18.7444C20.7182 19.3672 20.4705 19.9643 20.0301 20.4048C19.5898 20.8452 18.9927 21.093 18.3699 21.0938ZM7.64065 3.65625C7.39072 3.6565 7.1511 3.75589 6.97437 3.93262C6.79764 4.10935 6.69825 4.34897 6.698 4.59891V18.7448C6.69825 18.9948 6.79764 19.2344 6.97437 19.4111C7.1511 19.5879 7.39072 19.6873 7.64065 19.6875H18.3699C18.6198 19.6873 18.8594 19.5879 19.0362 19.4111C19.2129 19.2344 19.3123 18.9948 19.3125 18.7448V8.58234L14.3864 3.65625H7.64065Z" fill="#DBE2E6"/>
<path d="M20.0156 8.99438H16.3233C15.7005 8.99363 15.1035 8.74592 14.6632 8.30557C14.2228 7.86523 13.9751 7.26821 13.9744 6.64547V2.95312C13.9744 2.76664 14.0484 2.5878 14.1803 2.45594C14.3122 2.32408 14.491 2.25 14.6775 2.25C14.864 2.25 15.0428 2.32408 15.1747 2.45594C15.3065 2.5878 15.3806 2.76664 15.3806 2.95312V6.64547C15.3809 6.8954 15.4803 7.13502 15.657 7.31175C15.8337 7.48848 16.0733 7.58788 16.3233 7.58813H20.0156C20.2021 7.58813 20.3809 7.6622 20.5128 7.79407C20.6447 7.92593 20.7187 8.10477 20.7187 8.29125C20.7187 8.47773 20.6447 8.65657 20.5128 8.78843C20.3809 8.9203 20.2021 8.99438 20.0156 8.99438Z" fill="#DBE2E6"/>
</svg>
