<svg width="24" height="24" viewBox="0 0 24 24" fill="none" xmlns="http://www.w3.org/2000/svg">
<path d="M17.3169 21.0938H6.58865C5.96591 21.093 5.36889 20.8453 4.92855 20.4049C4.4882 19.9646 4.24049 19.3676 4.23975 18.7448V4.59891C4.24049 3.97617 4.4882 3.37914 4.92855 2.9388C5.36889 2.49846 5.96591 2.25074 6.58865 2.25H13.6246C13.7169 2.24996 13.8084 2.26811 13.8937 2.30342C13.9791 2.33873 14.0566 2.3905 14.1219 2.45578L19.4601 7.79391C19.5253 7.85923 19.5771 7.93677 19.6124 8.02211C19.6477 8.10744 19.6659 8.1989 19.6658 8.29125V18.7444C19.6652 19.3672 19.4176 19.9643 18.9772 20.4048C18.5368 20.8452 17.9398 21.093 17.3169 21.0938ZM6.58865 3.65625C6.33872 3.6565 6.0991 3.75589 5.92237 3.93262C5.74564 4.10935 5.64624 4.34897 5.646 4.59891V18.7448C5.64624 18.9948 5.74564 19.2344 5.92237 19.4111C6.0991 19.5879 6.33872 19.6873 6.58865 19.6875H17.3169C17.5669 19.6873 17.8065 19.5879 17.9832 19.4111C18.1599 19.2344 18.2593 18.9948 18.2596 18.7448V8.58234L13.3335 3.65625H6.58865Z" fill="#DBE2E6"/>
<path d="M18.9626 8.99438H15.2703C14.6476 8.99363 14.0505 8.74592 13.6102 8.30557C13.1698 7.86523 12.9221 7.26821 12.9214 6.64547V2.95312C12.9214 2.76664 12.9955 2.5878 13.1273 2.45594C13.2592 2.32408 13.438 2.25 13.6245 2.25C13.811 2.25 13.9898 2.32408 14.1217 2.45594C14.2536 2.5878 14.3276 2.76664 14.3276 2.95312V6.64547C14.3279 6.8954 14.4273 7.13502 14.604 7.31175C14.7807 7.48848 15.0204 7.58788 15.2703 7.58813H18.9626C19.1491 7.58813 19.328 7.6622 19.4598 7.79407C19.5917 7.92593 19.6658 8.10477 19.6658 8.29125C19.6658 8.47773 19.5917 8.65657 19.4598 8.78843C19.328 8.9203 19.1491 8.99438 18.9626 8.99438Z" fill="#DBE2E6"/>
<path d="M9.01201 15.4116V15.2939C9.01201 14.8781 8.75748 14.7975 8.41623 14.7975C8.20529 14.7975 8.13498 14.61 8.13498 14.4253C8.13498 14.2406 8.20342 14.0527 8.41623 14.0527C8.65061 14.0527 8.89998 14.0217 8.89998 13.5192C8.89998 13.1592 8.69514 13.0725 8.44107 13.0725C8.13686 13.0725 7.9817 13.147 7.9817 13.3889C7.9817 13.5998 7.88795 13.7428 7.52889 13.7428C7.08217 13.7428 7.02639 13.6491 7.02639 13.3519C7.02639 12.8677 7.37373 12.2409 8.44107 12.2409C9.22904 12.2409 9.82482 12.5264 9.82482 13.3659C9.82482 13.8187 9.65701 14.2411 9.3467 14.3836C9.71279 14.52 9.97951 14.7933 9.97951 15.2958V15.4134C9.97951 16.4311 9.27639 16.8159 8.41014 16.8159C7.34279 16.8159 6.93311 16.1644 6.93311 15.6441C6.93311 15.3628 7.05123 15.2906 7.39248 15.2906C7.78951 15.2906 7.88889 15.3773 7.88889 15.6131C7.88889 15.9047 8.1617 15.9731 8.44107 15.9731C8.86295 15.9703 9.01201 15.8152 9.01201 15.4116Z" fill="#DBE2E6"/>
<path d="M12.0028 12.2409C12.8588 12.2409 13.5291 12.638 13.5291 13.7053V15.3127C13.5291 16.3795 12.8588 16.7766 12.0028 16.7766H10.9045C10.65 16.7766 10.4827 16.6402 10.4827 16.485V12.5325C10.4827 12.3773 10.65 12.2409 10.9045 12.2409H12.0028ZM11.4506 13.0847V15.9328H12.0028C12.3502 15.9328 12.5611 15.7345 12.5611 15.3127V13.7053C12.5611 13.2834 12.3502 13.0847 12.0028 13.0847H11.4506Z" fill="#DBE2E6"/>
<path d="M16.0045 15.5625C16.0045 14.8125 14.0357 14.9419 14.0357 13.4902C14.0357 12.5592 14.8485 12.2058 15.6243 12.2058C15.9524 12.2058 16.859 12.2677 16.859 12.7519C16.859 12.9192 16.7474 13.2605 16.4742 13.2605C16.251 13.2605 16.1329 13.0261 15.6243 13.0261C15.1837 13.0261 15.0037 13.2061 15.0037 13.3983C15.0037 14.0189 16.9724 13.9012 16.9724 15.4645C16.9724 16.358 16.3209 16.8422 15.4213 16.8422C14.6085 16.8422 13.926 16.4452 13.926 16.0355C13.926 15.8245 14.1135 15.5142 14.3479 15.5142C14.6395 15.5142 14.8256 15.9736 15.4026 15.9736C15.6881 15.9703 16.0045 15.8583 16.0045 15.5625Z" fill="#DBE2E6"/>
</svg>
