<svg width="24" height="24" viewBox="0 0 24 24" fill="none" xmlns="http://www.w3.org/2000/svg">
<path d="M17.1394 21.0938H6.41116C5.78842 21.093 5.1914 20.8453 4.75106 20.4049C4.31071 19.9646 4.063 19.3676 4.06226 18.7448V4.59891C4.063 3.97617 4.31071 3.37914 4.75106 2.9388C5.1914 2.49846 5.78842 2.25074 6.41116 2.25H13.4471C13.6334 2.25004 13.8122 2.32405 13.944 2.45578L19.2821 7.79391C19.3475 7.85919 19.3993 7.93672 19.4347 8.02205C19.4701 8.10739 19.4883 8.19887 19.4883 8.29125V18.7444C19.4877 19.3672 19.2401 19.9643 18.7997 20.4048C18.3594 20.8452 17.7623 21.093 17.1394 21.0938ZM6.41116 3.65625C6.16123 3.6565 5.92161 3.75589 5.74488 3.93262C5.56815 4.10935 5.46875 4.34897 5.46851 4.59891V18.7448C5.46875 18.9948 5.56815 19.2344 5.74488 19.4111C5.92161 19.5879 6.16123 19.6873 6.41116 19.6875H17.1394C17.3894 19.6873 17.629 19.5879 17.8057 19.4111C17.9825 19.2344 18.0819 18.9948 18.0821 18.7448V8.58234L13.1555 3.65625H6.41116Z" fill="#DBE2E6"/>
<path d="M18.7852 8.99438H15.0938C14.471 8.99363 13.874 8.74592 13.4337 8.30557C12.9933 7.86523 12.7456 7.26821 12.7449 6.64547V2.95312C12.7449 2.76664 12.819 2.5878 12.9508 2.45594C13.0827 2.32408 13.2615 2.25 13.448 2.25C13.6345 2.25 13.8133 2.32408 13.9452 2.45594C14.077 2.5878 14.1511 2.76664 14.1511 2.95312V6.64547C14.1514 6.8954 14.2508 7.13502 14.4275 7.31175C14.6042 7.48848 14.8438 7.58788 15.0938 7.58813H18.7861C18.9726 7.58813 19.1514 7.6622 19.2833 7.79407C19.4152 7.92593 19.4892 8.10477 19.4892 8.29125C19.4892 8.47773 19.4152 8.65657 19.2833 8.78843C19.1514 8.9203 18.9726 8.99438 18.7861 8.99438H18.7852Z" fill="#DBE2E6"/>
<path d="M14.5408 17.8125H9.00952C8.82304 17.8125 8.6442 17.7384 8.51234 17.6066C8.38048 17.4747 8.3064 17.2959 8.3064 17.1094V13.0781C8.3064 12.8916 8.38048 12.7128 8.51234 12.5809C8.6442 12.4491 8.82304 12.375 9.00952 12.375H14.5408C14.7273 12.375 14.9061 12.4491 15.038 12.5809C15.1698 12.7128 15.2439 12.8916 15.2439 13.0781V17.1094C15.2439 17.2959 15.1698 17.4747 15.038 17.6066C14.9061 17.7384 14.7273 17.8125 14.5408 17.8125ZM9.71265 16.4062H13.8376V13.7812H9.71265V16.4062Z" fill="#DBE2E6"/>
<path d="M13.9075 13.7812H9.64185C9.45537 13.7812 9.27652 13.7072 9.14466 13.5753C9.0128 13.4434 8.93872 13.2646 8.93872 13.0781V11.6475C8.93872 10.8954 9.23751 10.174 9.76935 9.64218C10.3012 9.11034 11.0225 8.81155 11.7747 8.81155C12.5268 8.81155 13.2481 9.11034 13.78 9.64218C14.3118 10.174 14.6106 10.8954 14.6106 11.6475V13.0781C14.6106 13.2646 14.5365 13.4434 14.4047 13.5753C14.2728 13.7072 14.094 13.7812 13.9075 13.7812ZM10.345 12.375H13.2043V11.6475C13.2043 11.2683 13.0537 10.9047 12.7856 10.6365C12.5175 10.3684 12.1538 10.2178 11.7747 10.2178C11.3955 10.2178 11.0318 10.3684 10.7637 10.6365C10.4956 10.9047 10.345 11.2683 10.345 11.6475V12.375Z" fill="#DBE2E6"/>
</svg>
