<svg width="24" height="24" viewBox="0 0 24 24" fill="none" xmlns="http://www.w3.org/2000/svg">
<path d="M18.0389 21.0938H7.31253C6.68979 21.093 6.09277 20.8453 5.65242 20.4049C5.21208 19.9646 4.96437 19.3676 4.96362 18.7448V4.59891C4.96437 3.97617 5.21208 3.37914 5.65242 2.9388C6.09277 2.49846 6.68979 2.25074 7.31253 2.25H14.3485C14.4408 2.24996 14.5323 2.26811 14.6176 2.30342C14.7029 2.33873 14.7805 2.3905 14.8458 2.45578L20.1821 7.79391C20.2473 7.85923 20.2991 7.93677 20.3344 8.02211C20.3697 8.10744 20.3879 8.1989 20.3878 8.29125V18.7444C20.3872 19.3672 20.1396 19.9643 19.6992 20.4048C19.2589 20.8452 18.6618 21.093 18.0389 21.0938ZM7.31253 3.65625C7.0626 3.6565 6.82297 3.75589 6.64625 3.93262C6.46952 4.10935 6.37012 4.34897 6.36987 4.59891V18.7448C6.37012 18.9948 6.46952 19.2344 6.64625 19.4111C6.82297 19.5879 7.0626 19.6873 7.31253 19.6875H18.0389C18.2889 19.6873 18.5285 19.5879 18.7052 19.4111C18.8819 19.2344 18.9813 18.9948 18.9816 18.7448V8.58234L14.0555 3.65625H7.31253Z" fill="#DBE2E6"/>
<path d="M19.6848 8.99438H15.9925C15.3697 8.99363 14.7727 8.74592 14.3324 8.30557C13.892 7.86523 13.6443 7.26821 13.6436 6.64547V2.95312C13.6436 2.76664 13.7176 2.5878 13.8495 2.45594C13.9814 2.32408 14.1602 2.25 14.3467 2.25C14.5332 2.25 14.712 2.32408 14.8439 2.45594C14.9757 2.5878 15.0498 2.76664 15.0498 2.95312V6.64547C15.0501 6.8954 15.1494 7.13502 15.3262 7.31175C15.5029 7.48848 15.7425 7.58788 15.9925 7.58813H19.6848C19.8713 7.58813 20.0501 7.6622 20.182 7.79407C20.3139 7.92593 20.3879 8.10477 20.3879 8.29125C20.3879 8.47773 20.3139 8.65657 20.182 8.78843C20.0501 8.9203 19.8713 8.99438 19.6848 8.99438Z" fill="#DBE2E6"/>
<path d="M15.2269 14.0836C15.1345 14.0837 15.0431 14.0655 14.9578 14.0301C14.8725 13.9947 14.7951 13.9428 14.73 13.8773L12.675 11.8223L10.6195 13.8773C10.5547 13.9445 10.4771 13.9981 10.3913 14.0349C10.3055 14.0718 10.2132 14.0912 10.1199 14.092C10.0265 14.0928 9.93393 14.075 9.84752 14.0396C9.76111 14.0043 9.6826 13.9521 9.61658 13.8861C9.55057 13.82 9.49836 13.7415 9.463 13.6551C9.42765 13.5687 9.40986 13.4761 9.41067 13.3828C9.41148 13.2894 9.43088 13.1971 9.46773 13.1113C9.50458 13.0256 9.55814 12.948 9.6253 12.8831L12.1776 10.3308C12.3095 10.199 12.4883 10.1249 12.6748 10.1249C12.8612 10.1249 13.04 10.199 13.1719 10.3308L15.7242 12.8831C15.8226 12.9815 15.8896 13.1068 15.9168 13.2432C15.9439 13.3796 15.93 13.5211 15.8768 13.6496C15.8235 13.7781 15.7334 13.8879 15.6177 13.9652C15.502 14.0424 15.366 14.0837 15.2269 14.0836Z" fill="#DBE2E6"/>
<path d="M12.675 17.5781C12.4886 17.5781 12.3097 17.504 12.1779 17.3722C12.046 17.2403 11.9719 17.0615 11.9719 16.875V11.2969C11.9719 11.1104 12.046 10.9316 12.1779 10.7997C12.3097 10.6678 12.4886 10.5938 12.675 10.5938C12.8615 10.5938 13.0404 10.6678 13.1722 10.7997C13.3041 10.9316 13.3782 11.1104 13.3782 11.2969V16.875C13.3782 17.0615 13.3041 17.2403 13.1722 17.3722C13.0404 17.504 12.8615 17.5781 12.675 17.5781Z" fill="#DBE2E6"/>
</svg>
