<svg width="24" height="24" viewBox="0 0 24 24" fill="none" xmlns="http://www.w3.org/2000/svg">
<path d="M17.4107 21.0938H6.6824C6.05966 21.093 5.46264 20.8453 5.0223 20.4049C4.58195 19.9646 4.33424 19.3676 4.3335 18.7448V4.59891C4.33424 3.97617 4.58195 3.37914 5.0223 2.9388C5.46264 2.49846 6.05966 2.25074 6.6824 2.25H13.7183C13.8107 2.24996 13.9021 2.26811 13.9875 2.30342C14.0728 2.33873 14.1504 2.3905 14.2157 2.45578L19.5538 7.79391C19.6191 7.85923 19.6709 7.93677 19.7062 8.02211C19.7415 8.10744 19.7596 8.1989 19.7596 8.29125V18.7444C19.759 19.3672 19.5113 19.9643 19.071 20.4048C18.6306 20.8452 18.0335 21.093 17.4107 21.0938ZM6.6824 3.65625C6.43247 3.6565 6.19285 3.75589 6.01612 3.93262C5.83939 4.10935 5.73999 4.34897 5.73975 4.59891V18.7448C5.73999 18.9948 5.83939 19.2344 6.01612 19.4111C6.19285 19.5879 6.43247 19.6873 6.6824 19.6875H17.4107C17.6606 19.6873 17.9002 19.5879 18.077 19.4111C18.2537 19.2344 18.3531 18.9948 18.3533 18.7448V8.58234L13.4272 3.65625H6.6824Z" fill="#DBE2E6"/>
<path d="M19.0564 8.99438H15.364C14.7413 8.99363 14.1443 8.74592 13.7039 8.30557C13.2636 7.86523 13.0159 7.26821 13.0151 6.64547V2.95312C13.0151 2.76664 13.0892 2.5878 13.2211 2.45594C13.3529 2.32408 13.5318 2.25 13.7183 2.25C13.9047 2.25 14.0836 2.32408 14.2154 2.45594C14.3473 2.5878 14.4214 2.76664 14.4214 2.95312V6.64547C14.4216 6.8954 14.521 7.13502 14.6978 7.31175C14.8745 7.48848 15.1141 7.58788 15.364 7.58813H19.0564C19.2429 7.58813 19.4217 7.6622 19.5536 7.79407C19.6854 7.92593 19.7595 8.10477 19.7595 8.29125C19.7595 8.47773 19.6854 8.65657 19.5536 8.78843C19.4217 8.9203 19.2429 8.99438 19.0564 8.99438Z" fill="#DBE2E6"/>
<path d="M8.91311 15.1758L8.00748 16.7147C7.96389 16.7831 7.87717 16.814 7.77779 16.814C7.51107 16.814 7.13232 16.6031 7.13232 16.3364C7.13458 16.2744 7.15388 16.2142 7.18811 16.1625L8.26154 14.5059L7.23029 12.8555C7.19116 12.7987 7.16963 12.7317 7.16842 12.6628C7.16842 12.4022 7.52186 12.2039 7.79514 12.2039C7.85419 12.1993 7.9133 12.2121 7.96513 12.2407C8.01697 12.2694 8.05924 12.3127 8.0867 12.3651L8.9117 13.8047L9.73717 12.3651C9.76458 12.3126 9.80684 12.2693 9.85869 12.2407C9.91053 12.212 9.96967 12.1992 10.0287 12.2039C10.3015 12.2039 10.6554 12.4022 10.6554 12.6628C10.654 12.7317 10.6324 12.7988 10.5931 12.8555L9.56186 14.5059L10.6404 16.1625C10.6747 16.2142 10.694 16.2744 10.6962 16.3364C10.6962 16.6031 10.3179 16.814 10.0512 16.814C9.95185 16.814 9.85857 16.7831 9.82154 16.7147L8.91311 15.1758Z" fill="#DBE2E6"/>
<path d="M11.5007 16.7766C11.2898 16.7766 11.0789 16.6777 11.0789 16.4789V12.5325C11.0789 12.3281 11.3207 12.2409 11.5626 12.2409C11.8045 12.2409 12.0468 12.3281 12.0468 12.5325V15.9328H13.4615C13.649 15.9328 13.7404 16.1437 13.7404 16.3547C13.7404 16.5656 13.6467 16.7766 13.4615 16.7766H11.5007Z" fill="#DBE2E6"/>
<path d="M15.9927 15.5625C15.9927 14.8125 14.024 14.9419 14.024 13.4902C14.024 12.5592 14.8368 12.2058 15.6126 12.2058C15.9407 12.2058 16.8473 12.2677 16.8473 12.7519C16.8473 12.9192 16.7357 13.2605 16.4624 13.2605C16.2393 13.2605 16.1212 13.0261 15.6126 13.0261C15.172 13.0261 14.992 13.2061 14.992 13.3983C14.992 14.0189 16.9607 13.9012 16.9607 15.4645C16.9607 16.358 16.3092 16.8422 15.4096 16.8422C14.5968 16.8422 13.9143 16.4452 13.9143 16.0355C13.9143 15.8245 14.1018 15.5142 14.3362 15.5142C14.6277 15.5142 14.8138 15.9736 15.3909 15.9736C15.6763 15.9703 15.9927 15.8583 15.9927 15.5625Z" fill="#DBE2E6"/>
</svg>
