<svg width="24" height="24" viewBox="0 0 24 24" fill="none" xmlns="http://www.w3.org/2000/svg">
<path d="M18.4419 21.0938H7.71365C7.09091 21.093 6.49389 20.8453 6.05355 20.4049C5.6132 19.9646 5.36549 19.3676 5.36475 18.7448V4.59891C5.36549 3.97617 5.6132 3.37914 6.05355 2.9388C6.49389 2.49846 7.09091 2.25074 7.71365 2.25H14.7496C14.8419 2.24996 14.9334 2.26811 15.0187 2.30342C15.1041 2.33873 15.1816 2.3905 15.2469 2.45578L20.5851 7.79391C20.6503 7.85923 20.7021 7.93677 20.7374 8.02211C20.7727 8.10744 20.7909 8.1989 20.7908 8.29125V18.7444C20.7902 19.3672 20.5426 19.9643 20.1022 20.4048C19.6618 20.8452 19.0648 21.093 18.4419 21.0938ZM7.71365 3.65625C7.46372 3.6565 7.2241 3.75589 7.04737 3.93262C6.87064 4.10935 6.77124 4.34897 6.771 4.59891V18.7448C6.77124 18.9948 6.87064 19.2344 7.04737 19.4111C7.2241 19.5879 7.46372 19.6873 7.71365 19.6875H18.4419C18.6919 19.6873 18.9315 19.5879 19.1082 19.4111C19.2849 19.2344 19.3843 18.9948 19.3846 18.7448V8.58234L14.4585 3.65625H7.71365Z" fill="#DBE2E6"/>
<path d="M20.0876 8.99438H16.3953C15.7726 8.99363 15.1755 8.74592 14.7352 8.30557C14.2948 7.86523 14.0471 7.26821 14.0464 6.64547V2.95312C14.0464 2.76664 14.1205 2.5878 14.2523 2.45594C14.3842 2.32408 14.563 2.25 14.7495 2.25C14.936 2.25 15.1148 2.32408 15.2467 2.45594C15.3786 2.5878 15.4526 2.76664 15.4526 2.95312V6.64547C15.4529 6.8954 15.5523 7.13502 15.729 7.31175C15.9057 7.48848 16.1454 7.58788 16.3953 7.58813H20.0876C20.2741 7.58813 20.453 7.6622 20.5848 7.79407C20.7167 7.92593 20.7908 8.10477 20.7908 8.29125C20.7908 8.47773 20.7167 8.65657 20.5848 8.78843C20.453 8.9203 20.2741 8.99438 20.0876 8.99438Z" fill="#DBE2E6"/>
<path d="M10.9064 12.2409C11.1113 12.2409 11.198 12.4645 11.198 12.6694C11.198 12.9037 11.0925 13.1095 10.9064 13.1095H10.05V16.4789C10.05 16.6777 9.80814 16.7766 9.56627 16.7766C9.32439 16.7766 9.08205 16.6777 9.08205 16.4789V13.1095H8.22564C8.03814 13.1095 7.93408 12.9052 7.93408 12.6694C7.93408 12.4645 8.02127 12.2409 8.22564 12.2409H10.9064Z" fill="#DBE2E6"/>
<path d="M13.0781 15.1758L12.1721 16.7147C12.1285 16.7831 12.0417 16.814 11.9424 16.814C11.6756 16.814 11.2974 16.6031 11.2974 16.3364C11.2994 16.2744 11.3187 16.2141 11.3531 16.1625L12.4266 14.5059L11.3953 12.8555C11.3564 12.7986 11.3349 12.7317 11.3335 12.6628C11.3335 12.4022 11.6874 12.2039 11.9602 12.2039C12.0192 12.1992 12.0784 12.212 12.1302 12.2407C12.1821 12.2693 12.2243 12.3126 12.2517 12.3651L13.0781 13.8047L13.9031 12.3651C13.9306 12.3127 13.9729 12.2694 14.0247 12.2407C14.0765 12.2121 14.1357 12.1993 14.1947 12.2039C14.468 12.2039 14.8214 12.4022 14.8214 12.6628C14.8202 12.7317 14.7987 12.7987 14.7596 12.8555L13.7283 14.5059L14.8017 16.1625C14.836 16.2142 14.8553 16.2744 14.8575 16.3364C14.8575 16.6031 14.4788 16.814 14.2121 16.814C14.1127 16.814 14.0199 16.7831 13.9824 16.7147L13.0781 15.1758Z" fill="#DBE2E6"/>
<path d="M17.9301 12.2409C18.135 12.2409 18.2217 12.4645 18.2217 12.6694C18.2217 12.9037 18.1162 13.1095 17.9301 13.1095H17.0737V16.4789C17.0737 16.6777 16.8318 16.7766 16.59 16.7766C16.3481 16.7766 16.1057 16.6777 16.1057 16.4789V13.1095H15.2493C15.0618 13.1095 14.9578 12.9052 14.9578 12.6694C14.9578 12.4645 15.045 12.2409 15.2493 12.2409H17.9301Z" fill="#DBE2E6"/>
</svg>
