<svg width="24" height="24" viewBox="0 0 24 24" fill="none" xmlns="http://www.w3.org/2000/svg">
<path d="M18.4419 21.0938H7.71365C7.09091 21.093 6.49389 20.8453 6.05355 20.4049C5.6132 19.9646 5.36549 19.3676 5.36475 18.7448V4.59891C5.36549 3.97617 5.6132 3.37914 6.05355 2.9388C6.49389 2.49846 7.09091 2.25074 7.71365 2.25H14.7496C14.8419 2.24996 14.9334 2.26811 15.0187 2.30342C15.1041 2.33873 15.1816 2.3905 15.2469 2.45578L20.5851 7.79391C20.6503 7.85923 20.7021 7.93677 20.7374 8.02211C20.7727 8.10744 20.7909 8.1989 20.7908 8.29125V18.7444C20.7902 19.3672 20.5426 19.9643 20.1022 20.4048C19.6618 20.8452 19.0648 21.093 18.4419 21.0938ZM7.71365 3.65625C7.46372 3.6565 7.2241 3.75589 7.04737 3.93262C6.87064 4.10935 6.77124 4.34897 6.771 4.59891V18.7448C6.77124 18.9948 6.87064 19.2344 7.04737 19.4111C7.2241 19.5879 7.46372 19.6873 7.71365 19.6875H18.4419C18.6919 19.6873 18.9315 19.5879 19.1082 19.4111C19.2849 19.2344 19.3843 18.9948 19.3846 18.7448V8.58234L14.4585 3.65625H7.71365Z" fill="#DBE2E6"/>
<path d="M20.0876 8.99438H16.3953C15.7726 8.99363 15.1755 8.74592 14.7352 8.30557C14.2948 7.86523 14.0471 7.26821 14.0464 6.64547V2.95312C14.0464 2.76664 14.1205 2.5878 14.2523 2.45594C14.3842 2.32408 14.563 2.25 14.7495 2.25C14.936 2.25 15.1148 2.32408 15.2467 2.45594C15.3786 2.5878 15.4526 2.76664 15.4526 2.95312V6.64547C15.4529 6.8954 15.5523 7.13502 15.729 7.31175C15.9057 7.48848 16.1454 7.58788 16.3953 7.58813H20.0876C20.2741 7.58813 20.453 7.6622 20.5848 7.79407C20.7167 7.92593 20.7908 8.10477 20.7908 8.29125C20.7908 8.47773 20.7167 8.65657 20.5848 8.78843C20.453 8.9203 20.2741 8.99438 20.0876 8.99438Z" fill="#DBE2E6"/>
<path d="M8.54517 12.5391C8.54517 12.3403 8.7561 12.2409 8.96704 12.2409H11.1205C11.3249 12.2409 11.412 12.4584 11.412 12.6567C11.412 12.8864 11.3066 13.0847 11.1205 13.0847H9.51548V14.1337H10.453C10.6405 14.1337 10.7445 14.3133 10.7445 14.512C10.7445 14.6794 10.6578 14.8781 10.453 14.8781H9.51548V16.4789C9.51548 16.6777 9.2736 16.7766 9.03173 16.7766C8.78985 16.7766 8.54751 16.6777 8.54751 16.4789L8.54517 12.5391Z" fill="#DBE2E6"/>
<path d="M12.1626 16.7766C11.9517 16.7766 11.7407 16.6777 11.7407 16.4789V12.5325C11.7407 12.3281 11.9826 12.2409 12.2249 12.2409C12.4673 12.2409 12.7087 12.3281 12.7087 12.5325V15.9328H14.1234C14.3109 15.9328 14.4046 16.1437 14.4046 16.3547C14.4046 16.5656 14.3109 16.7766 14.1234 16.7766H12.1626Z" fill="#DBE2E6"/>
<path d="M14.0178 12.7064C14.0111 12.6841 14.0069 12.6612 14.0051 12.638C14.0051 12.4087 14.359 12.2409 14.6258 12.2409C14.7809 12.2409 14.907 12.2906 14.9422 12.4209L15.8108 15.6042L16.6733 12.4219C16.7108 12.2916 16.835 12.2419 16.9897 12.2419C17.2568 12.2419 17.6103 12.4097 17.6103 12.6389C17.6087 12.6621 17.6046 12.685 17.5981 12.7073L16.444 16.4925C16.3756 16.7095 16.0962 16.815 15.8108 16.815C15.5253 16.815 15.2483 16.7095 15.1779 16.4925L14.0178 12.7064Z" fill="#DBE2E6"/>
</svg>
