<svg width="24" height="24" viewBox="0 0 24 24" fill="none" xmlns="http://www.w3.org/2000/svg">
<path d="M17.3169 21.0938H6.58865C5.96591 21.093 5.36889 20.8453 4.92855 20.4049C4.4882 19.9646 4.24049 19.3676 4.23975 18.7448V4.59891C4.24049 3.97617 4.4882 3.37914 4.92855 2.9388C5.36889 2.49846 5.96591 2.25074 6.58865 2.25H13.6246C13.7169 2.24996 13.8084 2.26811 13.8937 2.30342C13.9791 2.33873 14.0566 2.3905 14.1219 2.45578L19.4601 7.79391C19.5253 7.85923 19.5771 7.93677 19.6124 8.02211C19.6477 8.10744 19.6659 8.1989 19.6658 8.29125V18.7444C19.6652 19.3672 19.4176 19.9643 18.9772 20.4048C18.5368 20.8452 17.9398 21.093 17.3169 21.0938ZM6.58865 3.65625C6.33872 3.6565 6.0991 3.75589 5.92237 3.93262C5.74564 4.10935 5.64624 4.34897 5.646 4.59891V18.7448C5.64624 18.9948 5.74564 19.2344 5.92237 19.4111C6.0991 19.5879 6.33872 19.6873 6.58865 19.6875H17.3169C17.5669 19.6873 17.8065 19.5879 17.9832 19.4111C18.1599 19.2344 18.2593 18.9948 18.2596 18.7448V8.58234L13.3335 3.65625H6.58865Z" fill="#DBE2E6"/>
<path d="M18.9626 8.99438H15.2703C14.6476 8.99363 14.0505 8.74592 13.6102 8.30557C13.1698 7.86523 12.9221 7.26821 12.9214 6.64547V2.95312C12.9214 2.76664 12.9955 2.5878 13.1273 2.45594C13.2592 2.32408 13.438 2.25 13.6245 2.25C13.811 2.25 13.9898 2.32408 14.1217 2.45594C14.2536 2.5878 14.3276 2.76664 14.3276 2.95312V6.64547C14.3279 6.8954 14.4273 7.13502 14.604 7.31175C14.7807 7.48848 15.0204 7.58788 15.2703 7.58813H18.9626C19.1491 7.58813 19.328 7.6622 19.4598 7.79407C19.5917 7.92593 19.6658 8.10477 19.6658 8.29125C19.6658 8.47773 19.5917 8.65657 19.4598 8.78843C19.328 8.9203 19.1491 8.99438 18.9626 8.99438Z" fill="#DBE2E6"/>
<path d="M9.48657 16.3795C9.48818 16.3565 9.49242 16.3337 9.49923 16.3116L10.6533 12.5264C10.7213 12.3094 11.0006 12.2039 11.2861 12.2039C11.5716 12.2039 11.8486 12.3094 11.9189 12.5264L13.0781 16.3125C13.0849 16.3346 13.0892 16.3574 13.0908 16.3805C13.0908 16.6102 12.7369 16.7775 12.4702 16.7775C12.315 16.7775 12.1889 16.7306 12.1538 16.598L11.9428 15.8222H10.6345L10.4236 16.598C10.3861 16.7283 10.2624 16.7775 10.1072 16.7775C9.84048 16.7766 9.48657 16.6092 9.48657 16.3795ZM11.7389 15.0769L11.2861 13.4138L10.8333 15.0769H11.7389Z" fill="#DBE2E6"/>
<path d="M13.4531 12.5325C13.4531 12.3281 13.695 12.2409 13.9373 12.2409C14.1797 12.2409 14.4211 12.3281 14.4211 12.5325V16.4789C14.4211 16.6777 14.1792 16.7766 13.9373 16.7766C13.6955 16.7766 13.4531 16.6777 13.4531 16.4789V12.5325Z" fill="#DBE2E6"/>
</svg>
