<svg width="24" height="24" viewBox="0 0 24 24" fill="none" xmlns="http://www.w3.org/2000/svg">
<path d="M17.6082 21.0938H6.87991C6.25717 21.093 5.66015 20.8453 5.21981 20.4049C4.77946 19.9646 4.53175 19.3676 4.53101 18.7448V4.59891C4.53175 3.97617 4.77946 3.37914 5.21981 2.9388C5.66015 2.49846 6.25717 2.25074 6.87991 2.25H13.9158C14.1022 2.25004 14.2809 2.32405 14.4127 2.45578L19.7508 7.79391C19.8162 7.85919 19.8681 7.93672 19.9035 8.02205C19.9389 8.10739 19.9571 8.19887 19.9571 8.29125V18.7444C19.9565 19.3672 19.7088 19.9643 19.2685 20.4048C18.8281 20.8452 18.231 21.093 17.6082 21.0938ZM6.87991 3.65625C6.62998 3.6565 6.39036 3.75589 6.21363 3.93262C6.0369 4.10935 5.9375 4.34897 5.93726 4.59891V18.7448C5.9375 18.9948 6.0369 19.2344 6.21363 19.4111C6.39036 19.5879 6.62998 19.6873 6.87991 19.6875H17.6082C17.8581 19.6873 18.0977 19.5879 18.2745 19.4111C18.4512 19.2344 18.5506 18.9948 18.5508 18.7448V8.58234L13.6243 3.65625H6.87991Z" fill="#DBE2E6"/>
<path d="M19.2539 8.99438H15.5625C14.9398 8.99363 14.3428 8.74592 13.9024 8.30557C13.4621 7.86523 13.2144 7.26821 13.2136 6.64547V2.95312C13.2136 2.76664 13.2877 2.5878 13.4196 2.45594C13.5514 2.32408 13.7303 2.25 13.9167 2.25C14.1032 2.25 14.2821 2.32408 14.4139 2.45594C14.5458 2.5878 14.6199 2.76664 14.6199 2.95312V6.64547C14.6201 6.8954 14.7195 7.13502 14.8962 7.31175C15.073 7.48848 15.3126 7.58788 15.5625 7.58813H19.2549C19.4414 7.58813 19.6202 7.6622 19.7521 7.79407C19.8839 7.92593 19.958 8.10477 19.958 8.29125C19.958 8.47773 19.8839 8.65657 19.7521 8.78843C19.6202 8.9203 19.4414 8.99438 19.2549 8.99438H19.2539Z" fill="#DBE2E6"/>
<path d="M12.2437 16.8281C11.2501 16.8282 10.2766 16.5481 9.43505 16.0199C8.59347 15.4918 7.91789 14.737 7.48589 13.8422C7.43974 13.7468 7.41577 13.6421 7.41577 13.5361C7.41577 13.4301 7.43974 13.3255 7.48589 13.23C7.91802 12.3354 8.59363 11.5807 9.4352 11.0526C10.2768 10.5245 11.2502 10.2444 12.2437 10.2444C13.2372 10.2444 14.2107 10.5245 15.0522 11.0526C15.8938 11.5807 16.5694 12.3354 17.0015 13.23C17.0477 13.3255 17.0716 13.4301 17.0716 13.5361C17.0716 13.6421 17.0477 13.7468 17.0015 13.8422C16.5696 14.737 15.8941 15.4919 15.0525 16.0201C14.2108 16.5483 13.2373 16.8283 12.2437 16.8281ZM8.91558 13.5361C9.25981 14.1111 9.7472 14.587 10.3302 14.9175C10.9132 15.248 11.5719 15.4217 12.2421 15.4217C12.9122 15.4217 13.5709 15.248 14.1539 14.9175C14.7369 14.587 15.2243 14.1111 15.5686 13.5361C15.2242 12.9612 14.7368 12.4854 14.1538 12.155C13.5708 11.8246 12.9122 11.651 12.2421 11.651C11.572 11.651 10.9133 11.8246 10.3303 12.155C9.74732 12.4854 9.2599 12.9612 8.91558 13.5361Z" fill="#DBE2E6"/>
<path d="M12.2439 14.9658H12.1736L12.1033 14.9602C12.0803 14.9578 12.0564 14.955 12.0339 14.9517C12.0114 14.9484 11.987 14.9442 11.9645 14.9395L11.8961 14.9241C11.8736 14.918 11.8492 14.9119 11.8291 14.9049C11.8089 14.8978 11.7822 14.8908 11.7625 14.8828C11.7428 14.8749 11.7185 14.8669 11.6974 14.858C11.6763 14.8491 11.6542 14.8392 11.6331 14.8294C11.612 14.8195 11.591 14.8092 11.5708 14.798C11.5506 14.7867 11.5295 14.7755 11.5094 14.7638C11.4892 14.752 11.4695 14.7394 11.4503 14.7263C11.4311 14.7131 11.4114 14.7 11.3931 14.6859C11.3749 14.6719 11.3556 14.6578 11.3374 14.6428C11.3191 14.6278 11.3013 14.6128 11.2839 14.5959C11.2666 14.5791 11.2497 14.5636 11.2328 14.5491C11.216 14.5345 11.2 14.5153 11.186 14.498C11.1719 14.4806 11.155 14.4628 11.1391 14.4445C11.1231 14.4263 11.11 14.408 11.096 14.3892C11.0819 14.3705 11.0688 14.3513 11.0556 14.3316C11.0425 14.3119 11.0303 14.2927 11.0181 14.2725C11.006 14.2524 10.9947 14.2322 10.9839 14.2116C10.9731 14.1909 10.9624 14.1699 10.9525 14.1488C10.9427 14.1277 10.9333 14.1066 10.9244 14.085C10.9155 14.0634 10.907 14.0414 10.8991 14.0199C10.8911 13.9983 10.8836 13.9753 10.877 13.9533C10.8705 13.9313 10.8639 13.9064 10.8583 13.8858C10.8527 13.8652 10.8475 13.8389 10.8428 13.8174C10.8381 13.7958 10.8339 13.7705 10.8306 13.7484C10.8274 13.7264 10.8241 13.7016 10.8217 13.6786C10.8194 13.6556 10.8175 13.6317 10.8166 13.6088C10.8156 13.5858 10.8166 13.5619 10.8166 13.538C10.8166 13.5141 10.8166 13.4911 10.8166 13.4677C10.8166 13.4442 10.8194 13.4208 10.8217 13.3974C10.8241 13.3739 10.8269 13.3505 10.8306 13.328C10.8344 13.3055 10.8381 13.2811 10.8428 13.2586C10.8475 13.2361 10.8527 13.2117 10.8583 13.1906C10.8639 13.1695 10.87 13.1438 10.877 13.1231C10.8841 13.1025 10.8911 13.0786 10.8991 13.0566C10.907 13.0345 10.9155 13.013 10.9244 12.9914C10.9333 12.9699 10.9427 12.9483 10.9525 12.9272C10.9624 12.9061 10.9731 12.8855 10.9839 12.8649C10.9947 12.8442 11.0064 12.8236 11.0181 12.8039C11.0299 12.7842 11.043 12.7641 11.0556 12.7444C11.0683 12.7247 11.0824 12.7059 11.096 12.6872C11.1095 12.6684 11.1245 12.6497 11.1391 12.6314C11.1536 12.6131 11.1691 12.5953 11.186 12.5784C11.2028 12.5616 11.2178 12.5438 11.2328 12.5274C11.2478 12.5109 11.2666 12.4941 11.2839 12.4805C11.3013 12.4669 11.3195 12.4495 11.3374 12.4336C11.3552 12.4177 11.3739 12.4045 11.3931 12.3905C11.4124 12.3764 11.4311 12.3633 11.4503 12.3502C11.4695 12.337 11.4897 12.3249 11.5094 12.3131C11.5291 12.3014 11.5502 12.2897 11.5708 12.2784C11.5914 12.2672 11.612 12.2574 11.6331 12.247C11.6542 12.2367 11.6758 12.2278 11.6974 12.2189C11.7189 12.21 11.7405 12.2016 11.7625 12.1936C11.7845 12.1856 11.8066 12.1786 11.8291 12.1716C11.8516 12.1645 11.876 12.1584 11.8961 12.1528L11.9645 12.1374C11.9875 12.1327 12.0114 12.1284 12.0339 12.1252C12.0564 12.1219 12.0808 12.1186 12.1033 12.1163C12.1258 12.1139 12.1502 12.1125 12.1736 12.1111C12.2205 12.1088 12.2674 12.1088 12.3142 12.1111C12.3372 12.1111 12.3611 12.1139 12.3841 12.1163C12.407 12.1186 12.431 12.1219 12.4539 12.1252C12.4769 12.1284 12.5008 12.1327 12.5228 12.1374C12.5449 12.142 12.5697 12.1472 12.5913 12.1528C12.6128 12.1584 12.6381 12.165 12.6588 12.1716C12.6794 12.1781 12.7033 12.1856 12.7249 12.1936C12.7464 12.2016 12.7689 12.21 12.7905 12.2189C12.812 12.2278 12.8331 12.2372 12.8542 12.247L12.917 12.2784C12.9372 12.2897 12.9578 12.3009 12.978 12.3131C12.9981 12.3253 13.0178 12.3375 13.037 12.3502C13.0563 12.3628 13.076 12.3769 13.0947 12.3905C13.1135 12.4041 13.1322 12.4191 13.15 12.4336C13.1678 12.4481 13.1861 12.4641 13.2035 12.4805C13.2208 12.4969 13.2381 12.5124 13.2545 12.5274C13.271 12.5424 13.2874 12.5606 13.3014 12.5784C13.3155 12.5963 13.3328 12.6136 13.3483 12.6314C13.3638 12.6492 13.3778 12.6684 13.3914 12.6872C13.405 12.7059 13.4186 12.7252 13.4317 12.7444C13.4449 12.7636 13.457 12.7838 13.4692 12.8039C13.4814 12.8241 13.4927 12.8442 13.5035 12.8649C13.5142 12.8855 13.525 12.9061 13.5349 12.9272C13.5447 12.9483 13.5541 12.9699 13.563 12.9914C13.5719 13.013 13.5803 13.0345 13.5883 13.0566C13.5963 13.0786 13.6038 13.1006 13.6103 13.1231C13.6169 13.1456 13.6235 13.17 13.6291 13.1906C13.6347 13.2113 13.6403 13.2375 13.6445 13.2586C13.6488 13.2797 13.6535 13.3055 13.6567 13.328C13.66 13.3505 13.6633 13.3749 13.6656 13.3974C13.668 13.4199 13.6699 13.4442 13.6708 13.4677C13.6717 13.4911 13.6708 13.5145 13.6708 13.538C13.6708 13.5614 13.6708 13.5849 13.6708 13.6088C13.6708 13.6327 13.668 13.6556 13.6656 13.6786C13.6633 13.7016 13.6605 13.7255 13.6567 13.7484C13.653 13.7714 13.6492 13.7953 13.6445 13.8174C13.6399 13.8394 13.6347 13.8642 13.6291 13.8858C13.6235 13.9074 13.6174 13.9327 13.6103 13.9533C13.6033 13.9739 13.5963 13.9978 13.5883 14.0199C13.5803 14.0419 13.5719 14.0634 13.563 14.085C13.5541 14.1066 13.5447 14.1281 13.5349 14.1488C13.525 14.1694 13.5142 14.1909 13.5035 14.2116C13.4927 14.2322 13.481 14.2524 13.4692 14.2725C13.4575 14.2927 13.4444 14.3124 13.4317 14.3316C13.4191 14.3508 13.4055 14.3705 13.3914 14.3892C13.3774 14.408 13.3633 14.4267 13.3483 14.4445C13.3333 14.4624 13.3183 14.4806 13.3014 14.498C13.2845 14.5153 13.2695 14.5327 13.2545 14.5491C13.2395 14.5655 13.2208 14.5819 13.2035 14.5959C13.1861 14.61 13.1683 14.6269 13.15 14.6428C13.1317 14.6588 13.1135 14.6724 13.0947 14.6859C13.076 14.6995 13.0567 14.7136 13.037 14.7263C13.0174 14.7389 12.9977 14.7516 12.978 14.7638C12.9583 14.7759 12.9372 14.7872 12.917 14.798C12.8969 14.8088 12.8753 14.8195 12.8542 14.8294C12.8331 14.8392 12.8116 14.8491 12.7905 14.858C12.7694 14.8669 12.7469 14.8753 12.7249 14.8828C12.7028 14.8903 12.6808 14.8983 12.6588 14.9049C12.6367 14.9114 12.6119 14.918 12.5913 14.9241C12.5706 14.9302 12.5444 14.9349 12.5228 14.9395C12.5013 14.9442 12.476 14.948 12.4539 14.9517C12.4319 14.9555 12.407 14.9578 12.3841 14.9602C12.3611 14.9625 12.3372 14.9644 12.3142 14.9658C12.2913 14.9672 12.2674 14.9658 12.2439 14.9658Z" fill="#DBE2E6"/>
</svg>
