<svg width="24" height="24" viewBox="0 0 24 24" fill="none" xmlns="http://www.w3.org/2000/svg">
<path d="M18.4419 21.0938H7.71365C7.09091 21.093 6.49389 20.8453 6.05355 20.4049C5.6132 19.9646 5.36549 19.3676 5.36475 18.7448V4.59891C5.36549 3.97617 5.6132 3.37914 6.05355 2.9388C6.49389 2.49846 7.09091 2.25074 7.71365 2.25H14.7496C14.8419 2.24996 14.9334 2.26811 15.0187 2.30342C15.1041 2.33873 15.1816 2.3905 15.2469 2.45578L20.5851 7.79391C20.6503 7.85923 20.7021 7.93677 20.7374 8.02211C20.7727 8.10744 20.7909 8.1989 20.7908 8.29125V18.7444C20.7902 19.3672 20.5426 19.9643 20.1022 20.4048C19.6618 20.8452 19.0648 21.093 18.4419 21.0938ZM7.71365 3.65625C7.46372 3.6565 7.2241 3.75589 7.04737 3.93262C6.87064 4.10935 6.77124 4.34897 6.771 4.59891V18.7448C6.77124 18.9948 6.87064 19.2344 7.04737 19.4111C7.2241 19.5879 7.46372 19.6873 7.71365 19.6875H18.4419C18.6919 19.6873 18.9315 19.5879 19.1082 19.4111C19.2849 19.2344 19.3843 18.9948 19.3846 18.7448V8.58234L14.4585 3.65625H7.71365Z" fill="#DBE2E6"/>
<path d="M20.0876 8.99438H16.3953C15.7726 8.99363 15.1755 8.74592 14.7352 8.30557C14.2948 7.86523 14.0471 7.26821 14.0464 6.64547V2.95312C14.0464 2.76664 14.1205 2.5878 14.2523 2.45594C14.3842 2.32408 14.563 2.25 14.7495 2.25C14.936 2.25 15.1148 2.32408 15.2467 2.45594C15.3786 2.5878 15.4526 2.76664 15.4526 2.95312V6.64547C15.4529 6.8954 15.5523 7.13502 15.729 7.31175C15.9057 7.48848 16.1454 7.58788 16.3953 7.58813H20.0876C20.2741 7.58813 20.453 7.6622 20.5848 7.79407C20.7167 7.92593 20.7908 8.10477 20.7908 8.29125C20.7908 8.47773 20.7167 8.65657 20.5848 8.78843C20.453 8.9203 20.2741 8.99438 20.0876 8.99438Z" fill="#DBE2E6"/>
<path d="M9.50377 13.0847C9.31627 13.0847 9.21221 12.8864 9.21221 12.6567C9.21221 12.4584 9.29939 12.2409 9.50377 12.2409H10.5899C10.8008 12.2409 11.0117 12.3403 11.0117 12.5391V15.3516C11.0117 16.4189 10.3353 16.8159 9.52252 16.8159C8.63518 16.8159 7.96533 16.3444 7.96533 15.5189C7.96533 15.1467 8.12049 15.06 8.45518 15.06C8.70361 15.06 8.91455 15.1219 8.9333 15.3516C8.95158 15.5934 8.98299 15.9722 9.47893 15.9722C9.83893 15.9722 10.0438 15.7734 10.0438 15.3516V13.0847H9.50377Z" fill="#DBE2E6"/>
<path d="M11.6633 12.5325C11.6633 12.3773 11.804 12.2409 12.0229 12.2409H13.3077C14.1266 12.2409 14.7716 12.6258 14.7716 13.6683V13.6992C14.7716 14.7417 14.1018 15.1387 13.2454 15.1387H12.6313V16.4789C12.6313 16.6777 12.389 16.7766 12.1471 16.7766C11.9052 16.7766 11.6633 16.6777 11.6633 16.4789V12.5325ZM12.6313 13.0847V14.3939H13.2454C13.5927 14.3939 13.8036 14.1956 13.8036 13.7737V13.7053C13.8036 13.2834 13.5927 13.0847 13.2454 13.0847H12.6313Z" fill="#DBE2E6"/>
<path d="M16.6705 13.0847C16.3166 13.0847 16.1118 13.2834 16.1118 13.7053V15.3497C16.1118 15.7716 16.3166 15.9703 16.664 15.9703C17.0113 15.9703 17.2227 15.7716 17.2227 15.3497V15.1406H16.8566C16.6691 15.1406 16.565 14.9606 16.565 14.7684C16.565 14.5884 16.6705 14.3958 16.8566 14.3958H17.8991C18.0866 14.3958 18.1907 14.5387 18.1907 14.7V15.3516C18.1907 16.4189 17.5204 16.8159 16.664 16.8159C15.8075 16.8159 15.1438 16.4189 15.1438 15.3516V13.7053C15.1438 12.638 15.8202 12.2409 16.633 12.2409C17.5204 12.2409 18.1907 12.6877 18.1907 13.4756C18.1907 13.8483 18.0355 13.935 17.7065 13.935C17.4458 13.935 17.2288 13.8666 17.2227 13.6434C17.2166 13.4203 17.1979 13.0847 16.6705 13.0847Z" fill="#DBE2E6"/>
</svg>
