<svg width="24" height="24" viewBox="0 0 24 24" fill="none" xmlns="http://www.w3.org/2000/svg">
<path d="M16.9419 21.0938H6.21365C5.59091 21.093 4.99389 20.8453 4.55355 20.4049C4.1132 19.9646 3.86549 19.3676 3.86475 18.7448V4.59891C3.86549 3.97617 4.1132 3.37914 4.55355 2.9388C4.99389 2.49846 5.59091 2.25074 6.21365 2.25H13.2496C13.3419 2.24996 13.4334 2.26811 13.5187 2.30342C13.6041 2.33873 13.6816 2.3905 13.7469 2.45578L19.0851 7.79391C19.1503 7.85923 19.2021 7.93677 19.2374 8.02211C19.2727 8.10744 19.2909 8.1989 19.2908 8.29125V18.7444C19.2902 19.3672 19.0426 19.9643 18.6022 20.4048C18.1618 20.8452 17.5648 21.093 16.9419 21.0938ZM6.21365 3.65625C5.96372 3.6565 5.7241 3.75589 5.54737 3.93262C5.37064 4.10935 5.27124 4.34897 5.271 4.59891V18.7448C5.27124 18.9948 5.37064 19.2344 5.54737 19.4111C5.7241 19.5879 5.96372 19.6873 6.21365 19.6875H16.9419C17.1919 19.6873 17.4315 19.5879 17.6082 19.4111C17.7849 19.2344 17.8843 18.9948 17.8846 18.7448V8.58234L12.9585 3.65625H6.21365Z" fill="#DBE2E6"/>
<path d="M18.5876 8.99438H14.8953C14.2726 8.99363 13.6755 8.74592 13.2352 8.30557C12.7948 7.86523 12.5471 7.26821 12.5464 6.64547V2.95312C12.5464 2.76664 12.6205 2.5878 12.7523 2.45594C12.8842 2.32408 13.063 2.25 13.2495 2.25C13.436 2.25 13.6148 2.32408 13.7467 2.45594C13.8786 2.5878 13.9526 2.76664 13.9526 2.95312V6.64547C13.9529 6.8954 14.0523 7.13502 14.229 7.31175C14.4057 7.48848 14.6454 7.58788 14.8953 7.58813H18.5876C18.7741 7.58813 18.953 7.6622 19.0848 7.79407C19.2167 7.92593 19.2908 8.10477 19.2908 8.29125C19.2908 8.47773 19.2167 8.65657 19.0848 8.78843C18.953 8.9203 18.7741 8.99438 18.5876 8.99438Z" fill="#DBE2E6"/>
<path d="M6.33789 12.5325C6.33789 12.3773 6.47852 12.2409 6.69789 12.2409H7.98226C8.80117 12.2409 9.44664 12.6258 9.44664 13.6683V13.6992C9.44664 14.7417 8.77633 15.1387 7.92039 15.1387H7.30586V16.4789C7.30586 16.6777 7.06398 16.7766 6.82211 16.7766C6.58023 16.7766 6.33789 16.6777 6.33789 16.4789V12.5325ZM7.30586 13.0847V14.3939H7.9218C8.26914 14.3939 8.48008 14.1956 8.48008 13.7737V13.7053C8.48008 13.2834 8.26914 13.0847 7.9218 13.0847H7.30586Z" fill="#DBE2E6"/>
<path d="M12.0711 14.7975H10.8364V16.4789C10.8364 16.6777 10.5945 16.7766 10.3522 16.7766C10.1098 16.7766 9.86841 16.6777 9.86841 16.4789V12.5325C9.86841 12.3281 10.1103 12.2409 10.3522 12.2409C10.594 12.2409 10.8364 12.3281 10.8364 12.5325V14.0527H12.0711V12.5325C12.0711 12.3281 12.3129 12.2409 12.5553 12.2409C12.7976 12.2409 13.039 12.3281 13.039 12.5325V16.4789C13.039 16.6777 12.7972 16.7766 12.5553 16.7766C12.3134 16.7766 12.0711 16.6777 12.0711 16.4789V14.7975Z" fill="#DBE2E6"/>
<path d="M13.709 12.5325C13.709 12.3773 13.852 12.2409 14.069 12.2409H15.3534C16.1723 12.2409 16.8177 12.6258 16.8177 13.6683V13.6992C16.8177 14.7417 16.1474 15.1387 15.2915 15.1387H14.677V16.4789C14.677 16.6777 14.4351 16.7766 14.1932 16.7766C13.9513 16.7766 13.709 16.6777 13.709 16.4789V12.5325ZM14.677 13.0847V14.3939H15.2915C15.6388 14.3939 15.8498 14.1956 15.8498 13.7737V13.7053C15.8498 13.2834 15.6388 13.0847 15.2915 13.0847H14.677Z" fill="#DBE2E6"/>
</svg>
