<svg width="24" height="24" viewBox="0 0 24 24" fill="none" xmlns="http://www.w3.org/2000/svg">
<path d="M17.7032 21.0938H6.97488C6.35214 21.093 5.75512 20.8453 5.31478 20.4049C4.87443 19.9646 4.62672 19.3676 4.62598 18.7448V4.59891C4.62672 3.97617 4.87443 3.37914 5.31478 2.9388C5.75512 2.49846 6.35214 2.25074 6.97488 2.25H14.0108C14.1972 2.25004 14.3759 2.32405 14.5077 2.45578L19.8458 7.79391C19.9112 7.85919 19.963 7.93672 19.9984 8.02205C20.0338 8.10739 20.0521 8.19887 20.0521 8.29125V18.7444C20.0514 19.3672 19.8038 19.9643 19.3634 20.4048C18.9231 20.8452 18.326 21.093 17.7032 21.0938ZM6.97488 3.65625C6.72495 3.6565 6.48533 3.75589 6.3086 3.93262C6.13187 4.10935 6.03247 4.34897 6.03223 4.59891V18.7448C6.03247 18.9948 6.13187 19.2344 6.3086 19.4111C6.48533 19.5879 6.72495 19.6873 6.97488 19.6875H17.7032C17.9531 19.6873 18.1927 19.5879 18.3694 19.4111C18.5462 19.2344 18.6456 18.9948 18.6458 18.7448V8.58234L13.7193 3.65625H6.97488Z" fill="#DBE2E6"/>
<path d="M19.3488 8.99438H15.656C15.0333 8.99363 14.4363 8.74592 13.9959 8.30557C13.5556 7.86523 13.3079 7.26821 13.3071 6.64547V2.95312C13.3071 2.76664 13.3812 2.5878 13.5131 2.45594C13.6449 2.32408 13.8238 2.25 14.0103 2.25C14.1967 2.25 14.3756 2.32408 14.5074 2.45594C14.6393 2.5878 14.7134 2.76664 14.7134 2.95312V6.64547C14.7136 6.8954 14.813 7.13502 14.9897 7.31175C15.1665 7.48848 15.4061 7.58788 15.656 7.58813H19.3484C19.5349 7.58813 19.7137 7.6622 19.8456 7.79407C19.9774 7.92593 20.0515 8.10477 20.0515 8.29125C20.0515 8.47773 19.9774 8.65657 19.8456 8.78843C19.7137 8.9203 19.5349 8.99438 19.3484 8.99438H19.3488Z" fill="#DBE2E6"/>
<path d="M7.3125 12.5325C7.3125 12.3773 7.45312 12.2409 7.6725 12.2409H8.95312C9.77203 12.2409 10.4175 12.6258 10.4175 13.6683V13.6992C10.4175 14.7417 9.74719 15.1387 8.89078 15.1387H8.27813V16.4789C8.27813 16.6777 8.03625 16.7766 7.79391 16.7766C7.55156 16.7766 7.3125 16.6777 7.3125 16.4789V12.5325ZM8.28047 13.0847V14.3939H8.89453C9.24187 14.3939 9.45328 14.1956 9.45328 13.7737V13.7053C9.45328 13.2834 9.24187 13.0847 8.89453 13.0847H8.28047Z" fill="#DBE2E6"/>
<path d="M12.3602 12.2409C13.2167 12.2409 13.887 12.638 13.887 13.7053V15.3127C13.887 16.3795 13.2167 16.7766 12.3602 16.7766H11.262C11.0079 16.7766 10.8401 16.6402 10.8401 16.485V12.5325C10.8401 12.3773 11.0079 12.2409 11.262 12.2409H12.3602ZM11.8081 13.0847V15.9328H12.3602C12.7081 15.9328 12.919 15.7345 12.919 15.3127V13.7053C12.919 13.2834 12.7081 13.0847 12.3602 13.0847H11.8081Z" fill="#DBE2E6"/>
<path d="M14.5012 12.5391C14.5012 12.3403 14.7121 12.2409 14.9231 12.2409H17.076C17.2809 12.2409 17.3681 12.4584 17.3681 12.6567C17.3681 12.8864 17.2626 13.0847 17.076 13.0847H15.4687V14.1337H16.4062C16.5937 14.1337 16.6978 14.3133 16.6978 14.512C16.6978 14.6794 16.611 14.8781 16.4062 14.8781H15.4687V16.4789C15.4687 16.6777 15.2268 16.7766 14.985 16.7766C14.7431 16.7766 14.5007 16.6777 14.5007 16.4789L14.5012 12.5391Z" fill="#DBE2E6"/>
</svg>
