<svg width="24" height="24" viewBox="0 0 24 24" fill="none" xmlns="http://www.w3.org/2000/svg">
<path d="M17.1394 21.0938H6.41116C5.78842 21.093 5.1914 20.8453 4.75106 20.4049C4.31071 19.9646 4.063 19.3676 4.06226 18.7448V4.59891C4.063 3.97617 4.31071 3.37914 4.75106 2.9388C5.1914 2.49846 5.78842 2.25074 6.41116 2.25H13.4471C13.6334 2.25004 13.8122 2.32405 13.944 2.45578L19.2821 7.79391C19.3475 7.85919 19.3993 7.93672 19.4347 8.02205C19.4701 8.10739 19.4883 8.19887 19.4883 8.29125V18.7444C19.4877 19.3672 19.2401 19.9643 18.7997 20.4048C18.3594 20.8452 17.7623 21.093 17.1394 21.0938ZM6.41116 3.65625C6.16123 3.6565 5.92161 3.75589 5.74488 3.93262C5.56815 4.10935 5.46875 4.34897 5.46851 4.59891V18.7448C5.46875 18.9948 5.56815 19.2344 5.74488 19.4111C5.92161 19.5879 6.16123 19.6873 6.41116 19.6875H17.1394C17.3894 19.6873 17.629 19.5879 17.8057 19.4111C17.9825 19.2344 18.0819 18.9948 18.0821 18.7448V8.58234L13.1555 3.65625H6.41116Z" fill="#DBE2E6"/>
<path d="M18.7852 8.99438H15.0938C14.471 8.99363 13.874 8.74592 13.4337 8.30557C12.9933 7.86523 12.7456 7.26821 12.7449 6.64547V2.95312C12.7449 2.76664 12.819 2.5878 12.9508 2.45594C13.0827 2.32408 13.2615 2.25 13.448 2.25C13.6345 2.25 13.8133 2.32408 13.9452 2.45594C14.077 2.5878 14.1511 2.76664 14.1511 2.95312V6.64547C14.1514 6.8954 14.2508 7.13502 14.4275 7.31175C14.6042 7.48848 14.8438 7.58788 15.0938 7.58813H18.7861C18.9726 7.58813 19.1514 7.6622 19.2833 7.79407C19.4152 7.92593 19.4892 8.10477 19.4892 8.29125C19.4892 8.47773 19.4152 8.65657 19.2833 8.78843C19.1514 8.9203 18.9726 8.99438 18.7861 8.99438H18.7852Z" fill="#DBE2E6"/>
<path d="M9.31074 16.7841C9.21823 16.7842 9.1266 16.7661 9.04109 16.7308C8.95559 16.6955 8.87789 16.6437 8.81246 16.5783L6.92339 14.6888C6.79158 14.5569 6.71753 14.3781 6.71753 14.1916C6.71753 14.0052 6.79158 13.8264 6.92339 13.6945L8.81246 11.8055C8.9443 11.6736 9.12314 11.5994 9.30964 11.5994C9.49613 11.5994 9.67501 11.6734 9.80691 11.8052C9.93881 11.9371 10.0129 12.1159 10.013 12.3024C10.013 12.4889 9.93899 12.6678 9.80715 12.7997L8.41496 14.1919L9.80715 15.5836C9.90554 15.6819 9.97256 15.8072 9.99972 15.9437C10.0269 16.0801 10.0129 16.2215 9.9597 16.3501C9.90646 16.4786 9.81629 16.5884 9.7006 16.6657C9.58492 16.7429 9.44891 16.7841 9.3098 16.7841H9.31074Z" fill="#DBE2E6"/>
<path d="M14.2394 16.7841C14.1003 16.784 13.9644 16.7428 13.8487 16.6655C13.7331 16.5882 13.643 16.4783 13.5898 16.3498C13.5367 16.2213 13.5228 16.08 13.5499 15.9436C13.5771 15.8072 13.6441 15.6819 13.7425 15.5836L15.1342 14.1919L13.7425 12.7997C13.6753 12.7348 13.6218 12.6572 13.5849 12.5715C13.5481 12.4857 13.5287 12.3934 13.5279 12.3001C13.527 12.2067 13.5448 12.1141 13.5802 12.0277C13.6155 11.9413 13.6678 11.8628 13.7338 11.7968C13.7998 11.7307 13.8783 11.6785 13.9647 11.6432C14.0511 11.6078 14.1437 11.59 14.2371 11.5908C14.3304 11.5917 14.4227 11.6111 14.5085 11.6479C14.5943 11.6848 14.6718 11.7383 14.7367 11.8055L16.6258 13.6945C16.7576 13.8264 16.8316 14.0052 16.8316 14.1916C16.8316 14.3781 16.7576 14.5569 16.6258 14.6888L14.7367 16.5783C14.6714 16.6436 14.5938 16.6953 14.5085 16.7307C14.4232 16.766 14.3317 16.7841 14.2394 16.7841Z" fill="#DBE2E6"/>
<path d="M11.2134 17.9184C11.171 17.9184 11.1286 17.9145 11.0869 17.9067C10.996 17.8902 10.9093 17.856 10.8316 17.806C10.754 17.756 10.687 17.6912 10.6344 17.6153C10.5818 17.5393 10.5447 17.4538 10.5252 17.3636C10.5056 17.2733 10.5041 17.1801 10.5206 17.0892L11.6456 10.9017C11.679 10.718 11.784 10.555 11.9375 10.4487C12.091 10.3424 12.2805 10.3014 12.4643 10.3348C12.648 10.3681 12.811 10.4732 12.9173 10.6267C13.0236 10.7802 13.0646 10.9697 13.0312 11.1534L11.9062 17.3409C11.8768 17.5031 11.7913 17.6499 11.6646 17.7554C11.538 17.861 11.3783 17.9187 11.2134 17.9184Z" fill="#DBE2E6"/>
</svg>
