<svg width="24" height="24" viewBox="0 0 24 24" fill="none" xmlns="http://www.w3.org/2000/svg">
<path d="M17.3169 21.0938H6.58865C5.96591 21.093 5.36889 20.8453 4.92855 20.4049C4.4882 19.9646 4.24049 19.3676 4.23975 18.7448V4.59891C4.24049 3.97617 4.4882 3.37914 4.92855 2.9388C5.36889 2.49846 5.96591 2.25074 6.58865 2.25H13.6246C13.7169 2.24996 13.8084 2.26811 13.8937 2.30342C13.9791 2.33873 14.0566 2.3905 14.1219 2.45578L19.4601 7.79391C19.5253 7.85923 19.5771 7.93677 19.6124 8.02211C19.6477 8.10744 19.6659 8.1989 19.6658 8.29125V18.7444C19.6652 19.3672 19.4176 19.9643 18.9772 20.4048C18.5368 20.8452 17.9398 21.093 17.3169 21.0938ZM6.58865 3.65625C6.33872 3.6565 6.0991 3.75589 5.92237 3.93262C5.74564 4.10935 5.64624 4.34897 5.646 4.59891V18.7448C5.64624 18.9948 5.74564 19.2344 5.92237 19.4111C6.0991 19.5879 6.33872 19.6873 6.58865 19.6875H17.3169C17.5669 19.6873 17.8065 19.5879 17.9832 19.4111C18.1599 19.2344 18.2593 18.9948 18.2596 18.7448V8.58234L13.3335 3.65625H6.58865Z" fill="#DBE2E6"/>
<path d="M18.9626 8.99438H15.2703C14.6476 8.99363 14.0505 8.74592 13.6102 8.30557C13.1698 7.86523 12.9221 7.26821 12.9214 6.64547V2.95312C12.9214 2.76664 12.9955 2.5878 13.1273 2.45594C13.2592 2.32408 13.438 2.25 13.6245 2.25C13.811 2.25 13.9898 2.32408 14.1217 2.45594C14.2536 2.5878 14.3276 2.76664 14.3276 2.95312V6.64547C14.3279 6.8954 14.4273 7.13502 14.604 7.31175C14.7807 7.48848 15.0204 7.58788 15.2703 7.58813H18.9626C19.1491 7.58813 19.328 7.6622 19.4598 7.79407C19.5917 7.92593 19.6658 8.10477 19.6658 8.29125C19.6658 8.47773 19.5917 8.65657 19.4598 8.78843C19.328 8.9203 19.1491 8.99438 18.9626 8.99438Z" fill="#DBE2E6"/>
<path d="M6.76904 12.5325C6.76904 12.3773 6.90967 12.2409 7.12857 12.2409H8.41295C9.23232 12.2409 9.87732 12.6258 9.87732 13.6683V13.6992C9.87732 14.7417 9.20748 15.1387 8.35107 15.1387H7.73654V16.4789C7.73654 16.6777 7.49467 16.7766 7.25279 16.7766C7.01092 16.7766 6.76904 16.6777 6.76904 16.4789V12.5325ZM7.73654 13.0847V14.3939H8.35107C8.69842 14.3939 8.90936 14.1956 8.90936 13.7737V13.7053C8.90936 13.2834 8.69842 13.0847 8.35107 13.0847H7.73654Z" fill="#DBE2E6"/>
<path d="M12.4462 16.5164L11.2673 14.3695V16.4789C11.2673 16.6777 11.0254 16.7766 10.7835 16.7766C10.5417 16.7766 10.2993 16.6777 10.2993 16.4789V12.5391C10.2993 12.3342 10.5412 12.2409 10.7835 12.2409C11.1309 12.2409 11.2612 12.2719 11.497 12.7252L12.502 14.6423V12.533C12.502 12.3286 12.7438 12.2414 12.9862 12.2414C13.2285 12.2414 13.4699 12.3286 13.4699 12.533V16.4794C13.4699 16.6781 13.2281 16.777 12.9862 16.777C12.7626 16.7766 12.5624 16.7344 12.4462 16.5164Z" fill="#DBE2E6"/>
<path d="M15.6168 13.0847C15.2629 13.0847 15.0581 13.2834 15.0581 13.7053V15.3497C15.0581 15.7716 15.2629 15.9703 15.6107 15.9703C15.9585 15.9703 16.169 15.7716 16.169 15.3497V15.1406H15.8029C15.6154 15.1406 15.5114 14.9606 15.5114 14.7684C15.5114 14.5884 15.6168 14.3958 15.8029 14.3958H16.8454C17.0329 14.3958 17.137 14.5387 17.137 14.7V15.3516C17.137 16.4189 16.4667 16.8159 15.6107 16.8159C14.7548 16.8159 14.0906 16.4189 14.0906 15.3516V13.7053C14.0906 12.638 14.7665 12.2409 15.5793 12.2409C16.4667 12.2409 17.137 12.6877 17.137 13.4756C17.137 13.8483 16.9818 13.935 16.6528 13.935C16.3921 13.935 16.1751 13.8666 16.169 13.6434C16.1629 13.4203 16.1442 13.0847 15.6168 13.0847Z" fill="#DBE2E6"/>
</svg>
