<svg width="24" height="24" viewBox="0 0 24 24" fill="none" xmlns="http://www.w3.org/2000/svg">
<path d="M16.9419 21.0938H6.21365C5.59091 21.093 4.99389 20.8453 4.55355 20.4049C4.1132 19.9646 3.86549 19.3676 3.86475 18.7448V4.59891C3.86549 3.97617 4.1132 3.37914 4.55355 2.9388C4.99389 2.49846 5.59091 2.25074 6.21365 2.25H13.2496C13.3419 2.24996 13.4334 2.26811 13.5187 2.30342C13.6041 2.33873 13.6816 2.3905 13.7469 2.45578L19.0851 7.79391C19.1503 7.85923 19.2021 7.93677 19.2374 8.02211C19.2727 8.10744 19.2909 8.1989 19.2908 8.29125V18.7444C19.2902 19.3672 19.0426 19.9643 18.6022 20.4048C18.1618 20.8452 17.5648 21.093 16.9419 21.0938ZM6.21365 3.65625C5.96372 3.6565 5.7241 3.75589 5.54737 3.93262C5.37064 4.10935 5.27124 4.34897 5.271 4.59891V18.7448C5.27124 18.9948 5.37064 19.2344 5.54737 19.4111C5.7241 19.5879 5.96372 19.6873 6.21365 19.6875H16.9419C17.1919 19.6873 17.4315 19.5879 17.6082 19.4111C17.7849 19.2344 17.8843 18.9948 17.8846 18.7448V8.58234L12.9585 3.65625H6.21365Z" fill="#DBE2E6"/>
<path d="M18.5876 8.99438H14.8953C14.2726 8.99363 13.6755 8.74592 13.2352 8.30557C12.7948 7.86523 12.5471 7.26821 12.5464 6.64547V2.95312C12.5464 2.76664 12.6205 2.5878 12.7523 2.45594C12.8842 2.32408 13.063 2.25 13.2495 2.25C13.436 2.25 13.6148 2.32408 13.7467 2.45594C13.8786 2.5878 13.9526 2.76664 13.9526 2.95312V6.64547C13.9529 6.8954 14.0523 7.13502 14.229 7.31175C14.4057 7.48848 14.6454 7.58788 14.8953 7.58813H18.5876C18.7741 7.58813 18.953 7.6622 19.0848 7.79407C19.2167 7.92593 19.2908 8.10477 19.2908 8.29125C19.2908 8.47773 19.2167 8.65657 19.0848 8.78843C18.953 8.9203 18.7741 8.99438 18.5876 8.99438Z" fill="#DBE2E6"/>
<path d="M8.09699 15.1697C8.06486 15.2263 8.0178 15.2731 7.96093 15.3048C7.90406 15.3366 7.83957 15.3521 7.77449 15.3497C7.71166 15.3532 7.64921 15.3379 7.59505 15.3059C7.54089 15.2738 7.49746 15.2264 7.47027 15.1697L6.88059 14.0916V16.4822C6.88059 16.6809 6.63871 16.7798 6.39684 16.7798C6.15496 16.7798 5.91309 16.6809 5.91309 16.4822V12.7252C5.91309 12.3712 6.15496 12.2409 6.39684 12.2409C6.74418 12.2409 6.89324 12.2784 7.14684 12.7252L7.78574 13.8417L8.42465 12.7252C8.67918 12.2784 8.82824 12.2409 9.17465 12.2409C9.42309 12.2409 9.65887 12.3712 9.65887 12.7252V16.4789C9.65887 16.6777 9.41652 16.7766 9.17465 16.7766C8.93277 16.7766 8.6909 16.6777 8.6909 16.4789V14.152L8.09699 15.1697Z" fill="#DBE2E6"/>
<path d="M10.281 15.3497V13.7053C10.281 12.638 10.9448 12.2409 11.8012 12.2409C12.6576 12.2409 13.3274 12.638 13.3274 13.7053V15.3497C13.3274 16.417 12.6576 16.8141 11.8012 16.8141C10.9448 16.8141 10.281 16.417 10.281 15.3497ZM12.3599 13.7053C12.3599 13.2773 12.1485 13.0847 11.8012 13.0847C11.4538 13.0847 11.2499 13.2773 11.2499 13.7053V15.3497C11.2499 15.7777 11.4548 15.9703 11.8021 15.9703C12.1494 15.9703 12.3609 15.7777 12.3609 15.3497L12.3599 13.7053Z" fill="#DBE2E6"/>
<path d="M13.6504 12.7064C13.6435 12.6842 13.6393 12.6612 13.6377 12.638C13.6377 12.4087 13.9916 12.2409 14.2583 12.2409C14.4135 12.2409 14.5396 12.2906 14.5747 12.4209L15.4433 15.6042L16.3058 12.4219C16.3429 12.2916 16.4671 12.2419 16.6222 12.2419C16.8889 12.2419 17.2429 12.4097 17.2429 12.6389C17.2413 12.6621 17.237 12.6851 17.2302 12.7073L16.078 16.4916C16.01 16.7086 15.7307 16.8141 15.4452 16.8141C15.1597 16.8141 14.8827 16.7086 14.8124 16.4916L13.6504 12.7064Z" fill="#DBE2E6"/>
</svg>
