<svg width="24" height="24" viewBox="0 0 24 24" fill="none" xmlns="http://www.w3.org/2000/svg">
<path d="M18.4419 21.0938H7.71365C7.09091 21.093 6.49389 20.8453 6.05355 20.4049C5.6132 19.9646 5.36549 19.3676 5.36475 18.7448V4.59891C5.36549 3.97617 5.6132 3.37914 6.05355 2.9388C6.49389 2.49846 7.09091 2.25074 7.71365 2.25H14.7496C14.8419 2.24996 14.9334 2.26811 15.0187 2.30342C15.1041 2.33873 15.1816 2.3905 15.2469 2.45578L20.5851 7.79391C20.6503 7.85923 20.7021 7.93677 20.7374 8.02211C20.7727 8.10744 20.7909 8.1989 20.7908 8.29125V18.7444C20.7902 19.3672 20.5426 19.9643 20.1022 20.4048C19.6618 20.8452 19.0648 21.093 18.4419 21.0938ZM7.71365 3.65625C7.46372 3.6565 7.2241 3.75589 7.04737 3.93262C6.87064 4.10935 6.77124 4.34897 6.771 4.59891V18.7448C6.77124 18.9948 6.87064 19.2344 7.04737 19.4111C7.2241 19.5879 7.46372 19.6873 7.71365 19.6875H18.4419C18.6919 19.6873 18.9315 19.5879 19.1082 19.4111C19.2849 19.2344 19.3843 18.9948 19.3846 18.7448V8.58234L14.4585 3.65625H7.71365Z" fill="#DBE2E6"/>
<path d="M20.0876 8.99438H16.3953C15.7726 8.99363 15.1755 8.74592 14.7352 8.30557C14.2948 7.86523 14.0471 7.26821 14.0464 6.64547V2.95312C14.0464 2.76664 14.1205 2.5878 14.2523 2.45594C14.3842 2.32408 14.563 2.25 14.7495 2.25C14.936 2.25 15.1148 2.32408 15.2467 2.45594C15.3786 2.5878 15.4526 2.76664 15.4526 2.95312V6.64547C15.4529 6.8954 15.5523 7.13502 15.729 7.31175C15.9057 7.48848 16.1454 7.58788 16.3953 7.58813H20.0876C20.2741 7.58813 20.453 7.6622 20.5848 7.79407C20.7167 7.92593 20.7908 8.10477 20.7908 8.29125C20.7908 8.47773 20.7167 8.65657 20.5848 8.78843C20.453 8.9203 20.2741 8.99438 20.0876 8.99438Z" fill="#DBE2E6"/>
<path d="M11.9736 12.2409C12.1779 12.2409 12.2651 12.4645 12.2651 12.6694C12.2651 12.9037 12.1597 13.1095 11.9736 13.1095H11.1172V16.4789C11.1172 16.6777 10.8753 16.7766 10.6329 16.7766C10.3906 16.7766 10.1492 16.6777 10.1492 16.4789V13.1095H9.29278C9.10528 13.1095 9.00122 12.9052 9.00122 12.6694C9.00122 12.4645 9.08794 12.2409 9.29278 12.2409H11.9736Z" fill="#DBE2E6"/>
<path d="M12.6497 12.5325C12.6497 12.3281 12.892 12.2409 13.1339 12.2409C13.3758 12.2409 13.6176 12.3281 13.6176 12.5325V16.4789C13.6176 16.6777 13.3758 16.7766 13.1339 16.7766C12.892 16.7766 12.6497 16.6777 12.6497 16.4789V12.5325Z" fill="#DBE2E6"/>
<path d="M14.2878 12.5391C14.2878 12.3403 14.4988 12.2409 14.7097 12.2409H16.8627C17.0675 12.2409 17.1542 12.4584 17.1542 12.6567C17.1542 12.8864 17.0488 13.0847 16.8627 13.0847H15.2558V14.1337H16.1933C16.3808 14.1337 16.4853 14.3133 16.4853 14.512C16.4853 14.6794 16.3982 14.8781 16.1933 14.8781H15.2558V16.4789C15.2558 16.6777 15.0135 16.7766 14.7716 16.7766C14.5297 16.7766 14.2878 16.6777 14.2878 16.4789V12.5391Z" fill="#DBE2E6"/>
</svg>
