<svg width="24" height="24" viewBox="0 0 24 24" fill="none" xmlns="http://www.w3.org/2000/svg">
<path d="M17.4107 21.0938H6.6824C6.05966 21.093 5.46264 20.8453 5.0223 20.4049C4.58195 19.9646 4.33424 19.3676 4.3335 18.7448V4.59891C4.33424 3.97617 4.58195 3.37914 5.0223 2.9388C5.46264 2.49846 6.05966 2.25074 6.6824 2.25H13.7183C13.8107 2.24996 13.9021 2.26811 13.9875 2.30342C14.0728 2.33873 14.1504 2.3905 14.2157 2.45578L19.5538 7.79391C19.6191 7.85923 19.6709 7.93677 19.7062 8.02211C19.7415 8.10744 19.7596 8.1989 19.7596 8.29125V18.7444C19.759 19.3672 19.5113 19.9643 19.071 20.4048C18.6306 20.8452 18.0335 21.093 17.4107 21.0938ZM6.6824 3.65625C6.43247 3.6565 6.19285 3.75589 6.01612 3.93262C5.83939 4.10935 5.73999 4.34897 5.73975 4.59891V18.7448C5.73999 18.9948 5.83939 19.2344 6.01612 19.4111C6.19285 19.5879 6.43247 19.6873 6.6824 19.6875H17.4107C17.6606 19.6873 17.9002 19.5879 18.077 19.4111C18.2537 19.2344 18.3531 18.9948 18.3533 18.7448V8.58234L13.4272 3.65625H6.6824Z" fill="#DBE2E6"/>
<path d="M19.0564 8.99438H15.364C14.7413 8.99363 14.1443 8.74592 13.7039 8.30557C13.2636 7.86523 13.0159 7.26821 13.0151 6.64547V2.95312C13.0151 2.76664 13.0892 2.5878 13.2211 2.45594C13.3529 2.32408 13.5318 2.25 13.7183 2.25C13.9047 2.25 14.0836 2.32408 14.2154 2.45594C14.3473 2.5878 14.4214 2.76664 14.4214 2.95312V6.64547C14.4216 6.8954 14.521 7.13502 14.6978 7.31175C14.8745 7.48848 15.1141 7.58788 15.364 7.58813H19.0564C19.2429 7.58813 19.4217 7.6622 19.5536 7.79407C19.6854 7.92593 19.7595 8.10477 19.7595 8.29125C19.7595 8.47773 19.6854 8.65657 19.5536 8.78843C19.4217 8.9203 19.2429 8.99438 19.0564 8.99438Z" fill="#DBE2E6"/>
<path d="M8.07544 12.5325C8.07544 12.3281 8.31731 12.2409 8.55966 12.2409C8.802 12.2409 9.04341 12.3281 9.04341 12.5325V16.4789C9.04341 16.6777 8.80153 16.7766 8.55966 16.7766C8.31778 16.7766 8.07544 16.6777 8.07544 16.4789V12.5325Z" fill="#DBE2E6"/>
<path d="M11.5752 15.5625C11.5752 14.8125 9.60649 14.9419 9.60649 13.4902C9.60649 12.5592 10.4193 12.2058 11.1946 12.2058C11.5227 12.2058 12.4293 12.2677 12.4293 12.7519C12.4293 12.9192 12.3177 13.2605 12.0449 13.2605C11.8213 13.2605 11.7037 13.0261 11.1946 13.0261C10.754 13.0261 10.5745 13.2061 10.5745 13.3983C10.5745 14.0189 12.5432 13.9012 12.5432 15.4645C12.5432 16.358 11.8917 16.8422 10.9917 16.8422C10.1788 16.8422 9.49634 16.4452 9.49634 16.0355C9.49634 15.8245 9.68384 15.5142 9.91821 15.5142C10.2102 15.5142 10.3963 15.9736 10.9734 15.9736C11.2588 15.9703 11.5752 15.8583 11.5752 15.5625Z" fill="#DBE2E6"/>
<path d="M12.9712 15.3497V13.7053C12.9712 12.638 13.6349 12.2409 14.4913 12.2409C15.3478 12.2409 16.0176 12.638 16.0176 13.7053V15.3497C16.0176 16.417 15.3478 16.8141 14.4913 16.8141C13.6349 16.8141 12.9712 16.417 12.9712 15.3497ZM15.0496 13.7053C15.0496 13.2773 14.8387 13.0847 14.4913 13.0847C14.144 13.0847 13.9392 13.2773 13.9392 13.7053V15.3497C13.9392 15.7777 14.144 15.9703 14.4913 15.9703C14.8387 15.9703 15.0496 15.7777 15.0496 15.3497V13.7053Z" fill="#DBE2E6"/>
</svg>
