<svg width="24" height="24" viewBox="0 0 24 24" fill="none" xmlns="http://www.w3.org/2000/svg">
<path d="M17.4107 21.0938H6.6824C6.05966 21.093 5.46264 20.8453 5.0223 20.4049C4.58195 19.9646 4.33424 19.3676 4.3335 18.7448V4.59891C4.33424 3.97617 4.58195 3.37914 5.0223 2.9388C5.46264 2.49846 6.05966 2.25074 6.6824 2.25H13.7183C13.8107 2.24996 13.9021 2.26811 13.9875 2.30342C14.0728 2.33873 14.1504 2.3905 14.2157 2.45578L19.5538 7.79391C19.6191 7.85923 19.6709 7.93677 19.7062 8.02211C19.7415 8.10744 19.7596 8.1989 19.7596 8.29125V18.7444C19.759 19.3672 19.5113 19.9643 19.071 20.4048C18.6306 20.8452 18.0335 21.093 17.4107 21.0938ZM6.6824 3.65625C6.43247 3.6565 6.19285 3.75589 6.01612 3.93262C5.83939 4.10935 5.73999 4.34897 5.73975 4.59891V18.7448C5.73999 18.9948 5.83939 19.2344 6.01612 19.4111C6.19285 19.5879 6.43247 19.6873 6.6824 19.6875H17.4107C17.6606 19.6873 17.9002 19.5879 18.077 19.4111C18.2537 19.2344 18.3531 18.9948 18.3533 18.7448V8.58234L13.4272 3.65625H6.6824Z" fill="#DBE2E6"/>
<path d="M19.0564 8.99438H15.364C14.7413 8.99363 14.1443 8.74592 13.7039 8.30557C13.2636 7.86523 13.0159 7.26821 13.0151 6.64547V2.95312C13.0151 2.76664 13.0892 2.5878 13.2211 2.45594C13.3529 2.32408 13.5318 2.25 13.7183 2.25C13.9047 2.25 14.0836 2.32408 14.2154 2.45594C14.3473 2.5878 14.4214 2.76664 14.4214 2.95312V6.64547C14.4216 6.8954 14.521 7.13502 14.6978 7.31175C14.8745 7.48848 15.1141 7.58788 15.364 7.58813H19.0564C19.2429 7.58813 19.4217 7.6622 19.5536 7.79407C19.6854 7.92593 19.7595 8.10477 19.7595 8.29125C19.7595 8.47773 19.6854 8.65657 19.5536 8.78843C19.4217 8.9203 19.2429 8.99438 19.0564 8.99438Z" fill="#DBE2E6"/>
<path d="M12.0467 18.4542C11.9543 18.4543 11.8629 18.4361 11.7776 18.4008C11.6922 18.3655 11.6147 18.3137 11.5494 18.2484L8.05951 14.7581C7.54936 14.248 7.26274 13.5562 7.2627 12.8348C7.26265 12.1133 7.54919 11.4215 8.05928 10.9113C8.56936 10.4012 9.26121 10.1145 9.98263 10.1145C10.704 10.1145 11.3959 10.401 11.9061 10.9111L12.0467 11.0517L12.1873 10.9111C12.6978 10.4016 13.3896 10.1155 14.1108 10.1155C14.8321 10.1155 15.5239 10.4016 16.0344 10.9111C16.5438 11.4216 16.83 12.1134 16.83 12.8346C16.83 13.5558 16.5438 14.2476 16.0344 14.7581L12.5436 18.2484C12.4118 18.3802 12.233 18.4542 12.0467 18.4542ZM9.9842 11.5214C9.72413 11.5208 9.46975 11.5975 9.25335 11.7418C9.03694 11.886 8.86827 12.0913 8.76873 12.3315C8.66919 12.5718 8.64327 12.8362 8.69426 13.0912C8.74525 13.3463 8.87086 13.5804 9.05513 13.7639L12.0467 16.7569L15.0397 13.7639C15.286 13.5174 15.4244 13.1832 15.4243 12.8347C15.4242 12.4863 15.2857 12.1521 15.0392 11.9058C14.9172 11.7838 14.7723 11.6871 14.6129 11.6211C14.4534 11.5551 14.2826 11.5211 14.11 11.5212C13.7616 11.5213 13.4274 11.6598 13.1811 11.9062L12.5436 12.5437C12.4117 12.6756 12.2329 12.7496 12.0465 12.7496C11.86 12.7496 11.6812 12.6756 11.5494 12.5437L10.9119 11.9062C10.7902 11.7842 10.6456 11.6874 10.4864 11.6214C10.3272 11.5553 10.1565 11.5214 9.9842 11.5214Z" fill="#DBE2E6"/>
</svg>
