<svg width="24" height="24" viewBox="0 0 24 24" fill="none" xmlns="http://www.w3.org/2000/svg">
<path d="M18.4419 21.0938H7.71365C7.09091 21.093 6.49389 20.8453 6.05355 20.4049C5.6132 19.9646 5.36549 19.3676 5.36475 18.7448V4.59891C5.36549 3.97617 5.6132 3.37914 6.05355 2.9388C6.49389 2.49846 7.09091 2.25074 7.71365 2.25H14.7496C14.8419 2.24996 14.9334 2.26811 15.0187 2.30342C15.1041 2.33873 15.1816 2.3905 15.2469 2.45578L20.5851 7.79391C20.6503 7.85923 20.7021 7.93677 20.7374 8.02211C20.7727 8.10744 20.7909 8.1989 20.7908 8.29125V18.7444C20.7902 19.3672 20.5426 19.9643 20.1022 20.4048C19.6618 20.8452 19.0648 21.093 18.4419 21.0938ZM7.71365 3.65625C7.46372 3.6565 7.2241 3.75589 7.04737 3.93262C6.87064 4.10935 6.77124 4.34897 6.771 4.59891V18.7448C6.77124 18.9948 6.87064 19.2344 7.04737 19.4111C7.2241 19.5879 7.46372 19.6873 7.71365 19.6875H18.4419C18.6919 19.6873 18.9315 19.5879 19.1082 19.4111C19.2849 19.2344 19.3843 18.9948 19.3846 18.7448V8.58234L14.4585 3.65625H7.71365Z" fill="#DBE2E6"/>
<path d="M20.0876 8.99438H16.3953C15.7726 8.99363 15.1755 8.74592 14.7352 8.30557C14.2948 7.86523 14.0471 7.26821 14.0464 6.64547V2.95312C14.0464 2.76664 14.1205 2.5878 14.2523 2.45594C14.3842 2.32408 14.563 2.25 14.7495 2.25C14.936 2.25 15.1148 2.32408 15.2467 2.45594C15.3786 2.5878 15.4526 2.76664 15.4526 2.95312V6.64547C15.4529 6.8954 15.5523 7.13502 15.729 7.31175C15.9057 7.48848 16.1454 7.58788 16.3953 7.58813H20.0876C20.2741 7.58813 20.453 7.6622 20.5848 7.79407C20.7167 7.92593 20.7908 8.10477 20.7908 8.29125C20.7908 8.47773 20.7167 8.65657 20.5848 8.78843C20.453 8.9203 20.2741 8.99438 20.0876 8.99438Z" fill="#DBE2E6"/>
<path d="M8.90186 16.3795C8.90369 16.3565 8.90793 16.3337 8.91451 16.3116L10.0686 12.5264C10.137 12.3094 10.4159 12.2039 10.7014 12.2039C10.9869 12.2039 11.2639 12.3094 11.3342 12.5264L12.4948 16.3125C12.5013 16.3347 12.5054 16.3575 12.507 16.3805C12.507 16.6102 12.1536 16.7775 11.8864 16.7775C11.7312 16.7775 11.6051 16.7306 11.57 16.598L11.359 15.8222H10.0498L9.83889 16.598C9.80186 16.7283 9.67764 16.7775 9.52248 16.7775C9.25576 16.7766 8.90186 16.6092 8.90186 16.3795ZM11.1561 15.0769L10.7033 13.4138L10.2504 15.0769H11.1561Z" fill="#DBE2E6"/>
<path d="M12.3332 12.7064C12.3268 12.6841 12.3227 12.6611 12.321 12.638C12.321 12.4087 12.6745 12.2409 12.9417 12.2409C13.0964 12.2409 13.2229 12.2906 13.2581 12.4209L14.1267 15.6042L14.9892 12.4219C15.0262 12.2916 15.1504 12.2419 15.3056 12.2419C15.5723 12.2419 15.9262 12.4097 15.9262 12.6389C15.9244 12.6621 15.9202 12.685 15.9135 12.7073L14.7595 16.4925C14.691 16.7095 14.4121 16.815 14.1267 16.815C13.8412 16.815 13.5618 16.7095 13.4939 16.4925L12.3332 12.7064Z" fill="#DBE2E6"/>
<path d="M16.2856 12.5325C16.2856 12.3281 16.5275 12.2409 16.7699 12.2409C17.0122 12.2409 17.2536 12.3281 17.2536 12.5325V16.4789C17.2536 16.6777 17.0117 16.7766 16.7699 16.7766C16.528 16.7766 16.2856 16.6777 16.2856 16.4789V12.5325Z" fill="#DBE2E6"/>
</svg>
