<svg width="24" height="24" viewBox="0 0 24 24" fill="none" xmlns="http://www.w3.org/2000/svg">
<path d="M17.4107 21.0938H6.6824C6.05966 21.093 5.46264 20.8453 5.0223 20.4049C4.58195 19.9646 4.33424 19.3676 4.3335 18.7448V4.59891C4.33424 3.97617 4.58195 3.37914 5.0223 2.9388C5.46264 2.49846 6.05966 2.25074 6.6824 2.25H13.7183C13.8107 2.24996 13.9021 2.26811 13.9875 2.30342C14.0728 2.33873 14.1504 2.3905 14.2157 2.45578L19.5538 7.79391C19.6191 7.85923 19.6709 7.93677 19.7062 8.02211C19.7415 8.10744 19.7596 8.1989 19.7596 8.29125V18.7444C19.759 19.3672 19.5113 19.9643 19.071 20.4048C18.6306 20.8452 18.0335 21.093 17.4107 21.0938ZM6.6824 3.65625C6.43247 3.6565 6.19285 3.75589 6.01612 3.93262C5.83939 4.10935 5.73999 4.34897 5.73975 4.59891V18.7448C5.73999 18.9948 5.83939 19.2344 6.01612 19.4111C6.19285 19.5879 6.43247 19.6873 6.6824 19.6875H17.4107C17.6606 19.6873 17.9002 19.5879 18.077 19.4111C18.2537 19.2344 18.3531 18.9948 18.3533 18.7448V8.58234L13.4272 3.65625H6.6824Z" fill="#DBE2E6"/>
<path d="M19.0564 8.99438H15.364C14.7413 8.99363 14.1443 8.74592 13.7039 8.30557C13.2636 7.86523 13.0159 7.26821 13.0151 6.64547V2.95312C13.0151 2.76664 13.0892 2.5878 13.2211 2.45594C13.3529 2.32408 13.5318 2.25 13.7183 2.25C13.9047 2.25 14.0836 2.32408 14.2154 2.45594C14.3473 2.5878 14.4214 2.76664 14.4214 2.95312V6.64547C14.4216 6.8954 14.521 7.13502 14.6978 7.31175C14.8745 7.48848 15.1141 7.58788 15.364 7.58813H19.0564C19.2429 7.58813 19.4217 7.6622 19.5536 7.79407C19.6854 7.92593 19.7595 8.10477 19.7595 8.29125C19.7595 8.47773 19.6854 8.65657 19.5536 8.78843C19.4217 8.9203 19.2429 8.99438 19.0564 8.99438Z" fill="#DBE2E6"/>
<path d="M8.33135 14.8884H7.40229V16.1541C7.40229 16.3036 7.22041 16.3781 7.03854 16.3781C6.85666 16.3781 6.67432 16.3036 6.67432 16.1541V13.1845C6.67432 13.0308 6.85619 12.9651 7.03854 12.9651C7.22088 12.9651 7.40229 13.0308 7.40229 13.1845V14.3283H8.33135V13.1845C8.33135 13.0308 8.51322 12.9651 8.69557 12.9651C8.87791 12.9651 9.05932 13.0308 9.05932 13.1845V16.1531C9.05932 16.3026 8.87744 16.3772 8.69557 16.3772C8.51369 16.3772 8.33135 16.3026 8.33135 16.1531V14.8884Z" fill="#DBE2E6"/>
<path d="M11.5846 12.9651C11.7388 12.9651 11.8039 13.1334 11.8039 13.2872C11.8039 13.4648 11.7247 13.6186 11.5846 13.6186H10.9405V16.1531C10.9405 16.3026 10.7582 16.3772 10.5763 16.3772C10.3944 16.3772 10.2121 16.3026 10.2121 16.1531V13.6186H9.56801C9.42738 13.6186 9.34863 13.4648 9.34863 13.2872C9.34863 13.1334 9.41426 12.9651 9.56801 12.9651H11.5846Z" fill="#DBE2E6"/>
<path d="M13.7344 15.1683C13.7102 15.211 13.6748 15.2462 13.632 15.2701C13.5892 15.294 13.5406 15.3056 13.4916 15.3037C13.4444 15.3062 13.3975 15.2947 13.3569 15.2706C13.3163 15.2465 13.2837 15.2109 13.2633 15.1683L12.8198 14.3564V16.1531C12.8198 16.3026 12.6375 16.3772 12.4556 16.3772C12.2738 16.3772 12.0938 16.3026 12.0938 16.1531V13.3294C12.0938 13.0631 12.2756 12.9651 12.458 12.9651C12.7191 12.9651 12.833 12.9933 13.0228 13.3294L13.5033 14.1694L13.9842 13.3294C14.1755 12.9933 14.2875 12.9651 14.5491 12.9651C14.7366 12.9651 14.9133 13.0631 14.9133 13.3294V16.1531C14.9133 16.3026 14.7309 16.3772 14.5491 16.3772C14.3672 16.3772 14.1848 16.3026 14.1848 16.1531V14.4028L13.7344 15.1683Z" fill="#DBE2E6"/>
<path d="M15.7338 16.3772C15.5749 16.3772 15.4165 16.3026 15.4165 16.1531V13.1845C15.4165 13.0308 15.5984 12.9651 15.7803 12.9651C15.9621 12.9651 16.1445 13.0308 16.1445 13.1845V15.7425H17.2085C17.3492 15.7425 17.419 15.9014 17.419 16.0598C17.419 16.2183 17.3487 16.3772 17.2085 16.3772H15.7338Z" fill="#DBE2E6"/>
</svg>
