<svg width="24" height="24" viewBox="0 0 24 24" fill="none" xmlns="http://www.w3.org/2000/svg">
<path d="M16.9419 21.0938H6.21365C5.59091 21.093 4.99389 20.8453 4.55355 20.4049C4.1132 19.9646 3.86549 19.3676 3.86475 18.7448V4.59891C3.86549 3.97617 4.1132 3.37914 4.55355 2.9388C4.99389 2.49846 5.59091 2.25074 6.21365 2.25H13.2496C13.3419 2.24996 13.4334 2.26811 13.5187 2.30342C13.6041 2.33873 13.6816 2.3905 13.7469 2.45578L19.0851 7.79391C19.1503 7.85923 19.2021 7.93677 19.2374 8.02211C19.2727 8.10744 19.2909 8.1989 19.2908 8.29125V18.7444C19.2902 19.3672 19.0426 19.9643 18.6022 20.4048C18.1618 20.8452 17.5648 21.093 16.9419 21.0938ZM6.21365 3.65625C5.96372 3.6565 5.7241 3.75589 5.54737 3.93262C5.37064 4.10935 5.27124 4.34897 5.271 4.59891V18.7448C5.27124 18.9948 5.37064 19.2344 5.54737 19.4111C5.7241 19.5879 5.96372 19.6873 6.21365 19.6875H16.9419C17.1919 19.6873 17.4315 19.5879 17.6082 19.4111C17.7849 19.2344 17.8843 18.9948 17.8846 18.7448V8.58234L12.9585 3.65625H6.21365Z" fill="#DBE2E6"/>
<path d="M18.5876 8.99438H14.8953C14.2726 8.99363 13.6755 8.74592 13.2352 8.30557C12.7948 7.86523 12.5471 7.26821 12.5464 6.64547V2.95312C12.5464 2.76664 12.6205 2.5878 12.7523 2.45594C12.8842 2.32408 13.063 2.25 13.2495 2.25C13.436 2.25 13.6148 2.32408 13.7467 2.45594C13.8786 2.5878 13.9526 2.76664 13.9526 2.95312V6.64547C13.9529 6.8954 14.0523 7.13502 14.229 7.31175C14.4057 7.48848 14.6454 7.58788 14.8953 7.58813H18.5876C18.7741 7.58813 18.953 7.6622 19.0848 7.79407C19.2167 7.92593 19.2908 8.10477 19.2908 8.29125C19.2908 8.47773 19.2167 8.65657 19.0848 8.78843C18.953 8.9203 18.7741 8.99438 18.5876 8.99438Z" fill="#DBE2E6"/>
<path d="M8.56867 15.5625C8.56867 14.8125 6.59992 14.9419 6.59992 13.4902C6.59992 12.5592 7.41273 12.2058 8.18805 12.2058C8.51617 12.2058 9.4232 12.2677 9.4232 12.7519C9.4232 12.9192 9.31117 13.2605 9.03836 13.2605C8.81477 13.2605 8.69711 13.0261 8.18805 13.0261C7.74789 13.0261 7.56789 13.2061 7.56789 13.3983C7.56789 14.0189 9.53664 13.9012 9.53664 15.4645C9.53664 16.358 8.88508 16.8422 7.98555 16.8422C7.17273 16.8422 6.49023 16.4452 6.49023 16.0355C6.49023 15.8245 6.67773 15.5142 6.91211 15.5142C7.20367 15.5142 7.38977 15.9736 7.9668 15.9736C8.25227 15.9703 8.56867 15.8583 8.56867 15.5625Z" fill="#DBE2E6"/>
<path d="M9.71651 12.7064C9.70967 12.6842 9.70542 12.6612 9.70386 12.638C9.70386 12.4087 10.0578 12.2409 10.3245 12.2409C10.4796 12.2409 10.6057 12.2906 10.6409 12.4209L11.5095 15.6042L12.372 12.4219C12.409 12.2916 12.5332 12.2419 12.6884 12.2419C12.9551 12.2419 13.309 12.4097 13.309 12.6389C13.3075 12.6621 13.3032 12.6851 13.2964 12.7073L12.1404 16.4916C12.0725 16.7086 11.7931 16.8141 11.5076 16.8141C11.2221 16.8141 10.9451 16.7086 10.8748 16.4916L9.71651 12.7064Z" fill="#DBE2E6"/>
<path d="M15.1456 13.0847C14.7917 13.0847 14.5869 13.2834 14.5869 13.7053V15.3497C14.5869 15.7716 14.7917 15.9703 15.1391 15.9703C15.4864 15.9703 15.6978 15.7716 15.6978 15.3497V15.1406H15.3317C15.1442 15.1406 15.0401 14.9606 15.0401 14.7684C15.0401 14.5884 15.1456 14.3958 15.3317 14.3958H16.3742C16.5617 14.3958 16.6658 14.5387 16.6658 14.7V15.3516C16.6658 16.4189 15.9955 16.8159 15.1391 16.8159C14.2826 16.8159 13.6189 16.4189 13.6189 15.3516V13.7053C13.6189 12.638 14.2953 12.2409 15.1081 12.2409C15.9955 12.2409 16.6658 12.6877 16.6658 13.4756C16.6658 13.8483 16.5106 13.935 16.1816 13.935C15.9209 13.935 15.7039 13.8666 15.6978 13.6434C15.6917 13.4203 15.673 13.0847 15.1456 13.0847Z" fill="#DBE2E6"/>
</svg>
