<svg width="24" height="24" viewBox="0 0 24 24" fill="none" xmlns="http://www.w3.org/2000/svg">
<path d="M16.9419 21.0938H6.21365C5.59091 21.093 4.99389 20.8453 4.55355 20.4049C4.1132 19.9646 3.86549 19.3676 3.86475 18.7448V4.59891C3.86549 3.97617 4.1132 3.37914 4.55355 2.9388C4.99389 2.49846 5.59091 2.25074 6.21365 2.25H13.2496C13.3419 2.24996 13.4334 2.26811 13.5187 2.30342C13.6041 2.33873 13.6816 2.3905 13.7469 2.45578L19.0851 7.79391C19.1503 7.85923 19.2021 7.93677 19.2374 8.02211C19.2727 8.10744 19.2909 8.1989 19.2908 8.29125V18.7444C19.2902 19.3672 19.0426 19.9643 18.6022 20.4048C18.1618 20.8452 17.5648 21.093 16.9419 21.0938ZM6.21365 3.65625C5.96372 3.6565 5.7241 3.75589 5.54737 3.93262C5.37064 4.10935 5.27124 4.34897 5.271 4.59891V18.7448C5.27124 18.9948 5.37064 19.2344 5.54737 19.4111C5.7241 19.5879 5.96372 19.6873 6.21365 19.6875H16.9419C17.1919 19.6873 17.4315 19.5879 17.6082 19.4111C17.7849 19.2344 17.8843 18.9948 17.8846 18.7448V8.58234L12.9585 3.65625H6.21365Z" fill="#DBE2E6"/>
<path d="M18.5876 8.99438H14.8953C14.2726 8.99363 13.6755 8.74592 13.2352 8.30557C12.7948 7.86523 12.5471 7.26821 12.5464 6.64547V2.95312C12.5464 2.76664 12.6205 2.5878 12.7523 2.45594C12.8842 2.32408 13.063 2.25 13.2495 2.25C13.436 2.25 13.6148 2.32408 13.7467 2.45594C13.8786 2.5878 13.9526 2.76664 13.9526 2.95312V6.64547C13.9529 6.8954 14.0523 7.13502 14.229 7.31175C14.4057 7.48848 14.6454 7.58788 14.8953 7.58813H18.5876C18.7741 7.58813 18.953 7.6622 19.0848 7.79407C19.2167 7.92593 19.2908 8.10477 19.2908 8.29125C19.2908 8.47773 19.2167 8.65657 19.0848 8.78843C18.953 8.9203 18.7741 8.99438 18.5876 8.99438Z" fill="#DBE2E6"/>
<path d="M9.85312 13.0847C9.66562 13.0847 9.56155 12.8864 9.56155 12.6567C9.56155 12.4584 9.64827 12.2409 9.85312 12.2409H10.9387C11.1497 12.2409 11.3606 12.3403 11.3606 12.5391V15.3516C11.3606 16.4189 10.6847 16.8159 9.87187 16.8159C8.98452 16.8159 8.31421 16.3444 8.31421 15.5189C8.31421 15.1467 8.46937 15.06 8.80452 15.06C9.05249 15.06 9.26343 15.1219 9.28218 15.3516C9.30093 15.5934 9.33187 15.9722 9.82827 15.9722C10.1883 15.9722 10.3931 15.7734 10.3931 15.3516V13.0847H9.85312Z" fill="#DBE2E6"/>
<path d="M13.8748 15.5625C13.8748 14.8125 11.9061 14.9419 11.9061 13.4902C11.9061 12.5592 12.7189 12.2058 13.4947 12.2058C13.8228 12.2058 14.7294 12.2677 14.7294 12.7519C14.7294 12.9192 14.6178 13.2605 14.3445 13.2605C14.1214 13.2605 14.0033 13.0261 13.4947 13.0261C13.054 13.0261 12.874 13.2061 12.874 13.3983C12.874 14.0189 14.8428 13.9012 14.8428 15.4645C14.8428 16.358 14.1912 16.8422 13.2917 16.8422C12.4789 16.8422 11.7964 16.4452 11.7964 16.0355C11.7964 15.8245 11.9839 15.5142 12.2183 15.5142C12.5098 15.5142 12.6959 15.9736 13.2729 15.9736C13.557 15.9703 13.8748 15.8583 13.8748 15.5625Z" fill="#DBE2E6"/>
</svg>
