<svg width="24" height="24" viewBox="0 0 24 24" fill="none" xmlns="http://www.w3.org/2000/svg">
<path d="M17.4107 21.0938H6.6824C6.05966 21.093 5.46264 20.8453 5.0223 20.4049C4.58195 19.9646 4.33424 19.3676 4.3335 18.7448V4.59891C4.33424 3.97617 4.58195 3.37914 5.0223 2.9388C5.46264 2.49846 6.05966 2.25074 6.6824 2.25H13.7183C13.8107 2.24996 13.9021 2.26811 13.9875 2.30342C14.0728 2.33873 14.1504 2.3905 14.2157 2.45578L19.5538 7.79391C19.6191 7.85923 19.6709 7.93677 19.7062 8.02211C19.7415 8.10744 19.7596 8.1989 19.7596 8.29125V18.7444C19.759 19.3672 19.5113 19.9643 19.071 20.4048C18.6306 20.8452 18.0335 21.093 17.4107 21.0938ZM6.6824 3.65625C6.43247 3.6565 6.19285 3.75589 6.01612 3.93262C5.83939 4.10935 5.73999 4.34897 5.73975 4.59891V18.7448C5.73999 18.9948 5.83939 19.2344 6.01612 19.4111C6.19285 19.5879 6.43247 19.6873 6.6824 19.6875H17.4107C17.6606 19.6873 17.9002 19.5879 18.077 19.4111C18.2537 19.2344 18.3531 18.9948 18.3533 18.7448V8.58234L13.4272 3.65625H6.6824Z" fill="#DBE2E6"/>
<path d="M19.0564 8.99438H15.364C14.7413 8.99363 14.1443 8.74592 13.7039 8.30557C13.2636 7.86523 13.0159 7.26821 13.0151 6.64547V2.95312C13.0151 2.76664 13.0892 2.5878 13.2211 2.45594C13.3529 2.32408 13.5318 2.25 13.7183 2.25C13.9047 2.25 14.0836 2.32408 14.2154 2.45594C14.3473 2.5878 14.4214 2.76664 14.4214 2.95312V6.64547C14.4216 6.8954 14.521 7.13502 14.6978 7.31175C14.8745 7.48848 15.1141 7.58788 15.364 7.58813H19.0564C19.2429 7.58813 19.4217 7.6622 19.5536 7.79407C19.6854 7.92593 19.7595 8.10477 19.7595 8.29125C19.7595 8.47773 19.6854 8.65657 19.5536 8.78843C19.4217 8.9203 19.2429 8.99438 19.0564 8.99438Z" fill="#DBE2E6"/>
<path d="M8.42934 12.2409C9.28527 12.2409 9.95559 12.638 9.95559 13.7053V15.3127C9.95559 16.3795 9.28527 16.7766 8.42934 16.7766H7.33105C7.07652 16.7766 6.90918 16.6402 6.90918 16.485V12.5325C6.90918 12.3773 7.07652 12.2409 7.33105 12.2409H8.42934ZM7.87715 13.0847V15.9328H8.42934C8.77668 15.9328 8.98762 15.7345 8.98762 15.3127V13.7053C8.98762 13.2834 8.77668 13.0847 8.42934 13.0847H7.87715Z" fill="#DBE2E6"/>
<path d="M10.52 15.3497V13.7053C10.52 12.638 11.1842 12.2409 12.0402 12.2409C12.8961 12.2409 13.5669 12.638 13.5669 13.7053V15.3497C13.5669 16.417 12.8966 16.8141 12.0402 16.8141C11.1838 16.8141 10.52 16.417 10.52 15.3497ZM12.5989 13.7053C12.5989 13.2773 12.388 13.0847 12.0402 13.0847C11.6924 13.0847 11.488 13.2773 11.488 13.7053V15.3497C11.488 15.7777 11.6928 15.9703 12.0402 15.9703C12.3875 15.9703 12.5989 15.7777 12.5989 15.3497V13.7053Z" fill="#DBE2E6"/>
<path d="M15.6642 13.0847C15.3103 13.0847 15.1054 13.2834 15.1054 13.7053V15.3497C15.1054 15.7716 15.3103 15.9703 15.6703 15.9703C16.1667 15.9703 16.1976 15.5916 16.2164 15.3497C16.2346 15.12 16.446 15.0581 16.694 15.0581C17.0292 15.0581 17.1843 15.1448 17.1843 15.517C17.1843 16.3425 16.514 16.8141 15.6267 16.8141C14.8139 16.8141 14.1375 16.417 14.1375 15.3497V13.7053C14.1375 12.638 14.8139 12.2409 15.6267 12.2409C16.514 12.2409 17.1843 12.6877 17.1843 13.4756C17.1843 13.8483 17.0292 13.935 16.7001 13.935C16.4395 13.935 16.2285 13.8666 16.2164 13.6434C16.2103 13.4822 16.1915 13.0847 15.6642 13.0847Z" fill="#DBE2E6"/>
</svg>
