<svg width="24" height="24" viewBox="0 0 24 24" fill="none" xmlns="http://www.w3.org/2000/svg">
<path d="M17.4107 21.0938H6.6824C6.05966 21.093 5.46264 20.8453 5.0223 20.4049C4.58195 19.9646 4.33424 19.3676 4.3335 18.7448V4.59891C4.33424 3.97617 4.58195 3.37914 5.0223 2.9388C5.46264 2.49846 6.05966 2.25074 6.6824 2.25H13.7183C13.8107 2.24996 13.9021 2.26811 13.9875 2.30342C14.0728 2.33873 14.1504 2.3905 14.2157 2.45578L19.5538 7.79391C19.6191 7.85923 19.6709 7.93677 19.7062 8.02211C19.7415 8.10744 19.7596 8.1989 19.7596 8.29125V18.7444C19.759 19.3672 19.5113 19.9643 19.071 20.4048C18.6306 20.8452 18.0335 21.093 17.4107 21.0938ZM6.6824 3.65625C6.43247 3.6565 6.19285 3.75589 6.01612 3.93262C5.83939 4.10935 5.73999 4.34897 5.73975 4.59891V18.7448C5.73999 18.9948 5.83939 19.2344 6.01612 19.4111C6.19285 19.5879 6.43247 19.6873 6.6824 19.6875H17.4107C17.6606 19.6873 17.9002 19.5879 18.077 19.4111C18.2537 19.2344 18.3531 18.9948 18.3533 18.7448V8.58234L13.4272 3.65625H6.6824Z" fill="#DBE2E6"/>
<path d="M19.0564 8.99438H15.364C14.7413 8.99363 14.1443 8.74592 13.7039 8.30557C13.2636 7.86523 13.0159 7.26821 13.0151 6.64547V2.95312C13.0151 2.76664 13.0892 2.5878 13.2211 2.45594C13.3529 2.32408 13.5318 2.25 13.7183 2.25C13.9047 2.25 14.0836 2.32408 14.2154 2.45594C14.3473 2.5878 14.4214 2.76664 14.4214 2.95312V6.64547C14.4216 6.8954 14.521 7.13502 14.6978 7.31175C14.8745 7.48848 15.1141 7.58788 15.364 7.58813H19.0564C19.2429 7.58813 19.4217 7.6622 19.5536 7.79407C19.6854 7.92593 19.7595 8.10477 19.7595 8.29125C19.7595 8.47773 19.6854 8.65657 19.5536 8.78843C19.4217 8.9203 19.2429 8.99438 19.0564 8.99438Z" fill="#DBE2E6"/>
<path d="M6.50903 12.5391C6.50903 12.3403 6.71997 12.2409 6.93091 12.2409H8.2031C8.82325 12.2409 9.44388 12.4645 9.44388 13.3453C9.44388 13.8483 9.24513 14.1769 8.91653 14.3198C9.29481 14.4605 9.55544 14.692 9.55544 15.3127V15.443C9.55544 16.4231 9.00935 16.7766 8.30856 16.7766H6.93091C6.67028 16.7766 6.50903 16.6402 6.50903 16.485V12.5391ZM7.47091 13.9453H8.12247C8.35685 13.9453 8.47591 13.7283 8.47591 13.5173C8.47591 13.3064 8.35825 13.0828 8.12247 13.0828H7.47091V13.9453ZM8.09106 15.9309C8.40138 15.9309 8.58747 15.7575 8.58747 15.36V15.2611C8.58747 14.8392 8.39997 14.6902 8.09106 14.6902H7.47091V15.9328L8.09106 15.9309Z" fill="#DBE2E6"/>
<path d="M12.2422 15.1697C12.21 15.2264 12.1629 15.2731 12.1059 15.3049C12.049 15.3366 11.9844 15.3521 11.9193 15.3497C11.8565 15.3531 11.7942 15.3378 11.7401 15.3057C11.686 15.2737 11.6427 15.2264 11.6155 15.1697L11.0258 14.0916V16.4822C11.0258 16.6809 10.784 16.7798 10.5421 16.7798C10.3002 16.7798 10.0579 16.6809 10.0579 16.4822V12.7252C10.0579 12.3712 10.3002 12.2409 10.5421 12.2409C10.8894 12.2409 11.0385 12.2784 11.2921 12.7252L11.9315 13.8417L12.5704 12.7252C12.8249 12.2784 12.974 12.2409 13.3204 12.2409C13.5683 12.2409 13.8041 12.3712 13.8041 12.7252V16.4789C13.8041 16.6777 13.5622 16.7766 13.3204 16.7766C13.0785 16.7766 12.8361 16.6777 12.8361 16.4789V14.152L12.2422 15.1697Z" fill="#DBE2E6"/>
<path d="M14.4758 12.5325C14.4758 12.3773 14.6165 12.2409 14.8354 12.2409H16.1202C16.9391 12.2409 17.5841 12.6258 17.5841 13.6683V13.6992C17.5841 14.7417 16.9143 15.1387 16.0579 15.1387H15.4438V16.4789C15.4438 16.6777 15.2015 16.7766 14.9596 16.7766C14.7177 16.7766 14.4758 16.6777 14.4758 16.4789V12.5325ZM15.4438 13.0847V14.3939H16.0579C16.4052 14.3939 16.6166 14.1956 16.6166 13.7737V13.7053C16.6166 13.2834 16.4052 13.0847 16.0579 13.0847H15.4438Z" fill="#DBE2E6"/>
</svg>
