<svg width="24" height="24" viewBox="0 0 24 24" fill="none" xmlns="http://www.w3.org/2000/svg">
<path d="M17.8794 21.0938H7.15115C6.52841 21.093 5.93139 20.8453 5.49105 20.4049C5.0507 19.9646 4.80299 19.3676 4.80225 18.7448V4.59891C4.80299 3.97617 5.0507 3.37914 5.49105 2.9388C5.93139 2.49846 6.52841 2.25074 7.15115 2.25H14.1871C14.2794 2.24996 14.3709 2.26811 14.4562 2.30342C14.5416 2.33873 14.6191 2.3905 14.6844 2.45578L20.0226 7.79391C20.0878 7.85923 20.1396 7.93677 20.1749 8.02211C20.2102 8.10744 20.2284 8.1989 20.2283 8.29125V18.7444C20.2277 19.3672 19.9801 19.9643 19.5397 20.4048C19.0993 20.8452 18.5023 21.093 17.8794 21.0938ZM7.15115 3.65625C6.90122 3.6565 6.6616 3.75589 6.48487 3.93262C6.30814 4.10935 6.20874 4.34897 6.2085 4.59891V18.7448C6.20874 18.9948 6.30814 19.2344 6.48487 19.4111C6.6616 19.5879 6.90122 19.6873 7.15115 19.6875H17.8794C18.1294 19.6873 18.369 19.5879 18.5457 19.4111C18.7224 19.2344 18.8218 18.9948 18.8221 18.7448V8.58234L13.896 3.65625H7.15115Z" fill="#DBE2E6"/>
<path d="M19.5251 8.99438H15.8328C15.2101 8.99363 14.613 8.74592 14.1727 8.30557C13.7323 7.86523 13.4846 7.26821 13.4839 6.64547V2.95312C13.4839 2.76664 13.558 2.5878 13.6898 2.45594C13.8217 2.32408 14.0005 2.25 14.187 2.25C14.3735 2.25 14.5523 2.32408 14.6842 2.45594C14.8161 2.5878 14.8901 2.76664 14.8901 2.95312V6.64547C14.8904 6.8954 14.9898 7.13502 15.1665 7.31175C15.3432 7.48848 15.5829 7.58788 15.8328 7.58813H19.5251C19.7116 7.58813 19.8905 7.6622 20.0223 7.79407C20.1542 7.92593 20.2283 8.10477 20.2283 8.29125C20.2283 8.47773 20.1542 8.65657 20.0223 8.78843C19.8905 8.9203 19.7116 8.99438 19.5251 8.99438Z" fill="#DBE2E6"/>
<path d="M9.57468 15.9328H11.2622C11.4497 15.9328 11.5537 16.1564 11.5537 16.3547C11.5537 16.553 11.4483 16.7766 11.2622 16.7766H8.6189C8.42015 16.7766 8.33765 16.6711 8.33765 16.5225C8.34362 16.4017 8.37989 16.2844 8.44312 16.1812L10.193 13.0847H8.7553C8.5678 13.0847 8.46374 12.8864 8.46374 12.6628C8.46374 12.4584 8.55046 12.2409 8.7553 12.2409H11.1506C11.3381 12.2409 11.4319 12.3464 11.4319 12.4955C11.4252 12.6161 11.389 12.7333 11.3264 12.8367L9.57468 15.9328Z" fill="#DBE2E6"/>
<path d="M11.9446 12.5325C11.9446 12.3281 12.1865 12.2409 12.4283 12.2409C12.6702 12.2409 12.9125 12.3281 12.9125 12.5325V16.4789C12.9125 16.6777 12.6707 16.7766 12.4283 16.7766C12.186 16.7766 11.9446 16.6777 11.9446 16.4789V12.5325Z" fill="#DBE2E6"/>
<path d="M13.5825 12.5325C13.5825 12.3773 13.7255 12.2409 13.9425 12.2409H15.2269C16.0458 12.2409 16.6913 12.6258 16.6913 13.6683V13.6992C16.6913 14.7417 16.021 15.1387 15.165 15.1387H14.5505V16.4789C14.5505 16.6777 14.3086 16.7766 14.0667 16.7766C13.8249 16.7766 13.5825 16.6777 13.5825 16.4789V12.5325ZM14.5505 13.0847V14.3939H15.165C15.5124 14.3939 15.7233 14.1956 15.7233 13.7737V13.7053C15.7233 13.2834 15.5124 13.0847 15.165 13.0847H14.5505Z" fill="#DBE2E6"/>
</svg>
