<svg width="24" height="24" viewBox="0 0 24 24" fill="none" xmlns="http://www.w3.org/2000/svg">
<path d="M17.6639 21.0938H6.93753C6.31479 21.093 5.71777 20.8453 5.27742 20.4049C4.83708 19.9646 4.58937 19.3676 4.58862 18.7448V4.59891C4.58937 3.97617 4.83708 3.37914 5.27742 2.9388C5.71777 2.49846 6.31479 2.25074 6.93753 2.25H13.9735C14.0658 2.24996 14.1573 2.26811 14.2426 2.30342C14.3279 2.33873 14.4055 2.3905 14.4708 2.45578L19.8071 7.79391C19.8723 7.85923 19.9241 7.93677 19.9594 8.02211C19.9947 8.10744 20.0129 8.1989 20.0128 8.29125V18.7444C20.0122 19.3672 19.7646 19.9643 19.3242 20.4048C18.8839 20.8452 18.2868 21.093 17.6639 21.0938ZM6.93753 3.65625C6.6876 3.6565 6.44797 3.75589 6.27125 3.93262C6.09452 4.10935 5.99512 4.34897 5.99487 4.59891V18.7448C5.99512 18.9948 6.09452 19.2344 6.27125 19.4111C6.44797 19.5879 6.6876 19.6873 6.93753 19.6875H17.6639C17.9139 19.6873 18.1535 19.5879 18.3302 19.4111C18.5069 19.2344 18.6063 18.9948 18.6066 18.7448V8.58234L13.6805 3.65625H6.93753Z" fill="#DBE2E6"/>
<path d="M19.3098 8.99438H15.6175C14.9947 8.99363 14.3977 8.74592 13.9574 8.30557C13.517 7.86523 13.2693 7.26821 13.2686 6.64547V2.95312C13.2686 2.76664 13.3426 2.5878 13.4745 2.45594C13.6064 2.32408 13.7852 2.25 13.9717 2.25C14.1582 2.25 14.337 2.32408 14.4689 2.45594C14.6007 2.5878 14.6748 2.76664 14.6748 2.95312V6.64547C14.6751 6.8954 14.7744 7.13502 14.9512 7.31175C15.1279 7.48848 15.3675 7.58788 15.6175 7.58813H19.3098C19.4963 7.58813 19.6751 7.6622 19.807 7.79407C19.9389 7.92593 20.0129 8.10477 20.0129 8.29125C20.0129 8.47773 19.9389 8.65657 19.807 8.78843C19.6751 8.9203 19.4963 8.99438 19.3098 8.99438Z" fill="#DBE2E6"/>
<path d="M11.8304 16.7751C10.9953 16.7748 10.1862 16.4848 9.54094 15.9548C8.89567 15.4247 8.45417 14.6873 8.29167 13.8682C8.12916 13.0491 8.2557 12.199 8.64973 11.4627C9.04376 10.7264 9.68089 10.1496 10.4526 9.83041C11.2242 9.51125 12.0827 9.46954 12.8817 9.71239C13.6807 9.95524 14.3707 10.4676 14.8343 11.1622C15.2978 11.8568 15.5062 12.6907 15.4238 13.5217C15.3415 14.3527 14.9736 15.1294 14.3827 15.7195C14.0478 16.055 13.65 16.321 13.2119 16.5021C12.7739 16.6833 12.3044 16.7761 11.8304 16.7751ZM11.8304 10.9655C11.3207 10.9658 10.8268 11.1429 10.433 11.4665C10.0393 11.7901 9.76986 12.2403 9.67077 12.7403C9.57169 13.2403 9.64903 13.7592 9.88963 14.2085C10.1302 14.6579 10.5192 15.0099 10.9903 15.2046C11.4613 15.3993 11.9853 15.4247 12.473 15.2764C12.9606 15.128 13.3818 14.8152 13.6646 14.3912C13.9475 13.9672 14.0746 13.4582 14.0242 12.951C13.9739 12.4437 13.7492 11.9697 13.3885 11.6095C13.184 11.4048 12.9411 11.2426 12.6737 11.132C12.4063 11.0215 12.1197 10.9649 11.8304 10.9655Z" fill="#DBE2E6"/>
<path d="M15.6756 17.7155C15.5832 17.7155 15.4918 17.6973 15.4064 17.662C15.3211 17.6267 15.2435 17.575 15.1782 17.5097L13.3885 15.7195C13.2605 15.5869 13.1896 15.4093 13.1912 15.2249C13.1928 15.0406 13.2667 14.8642 13.3971 14.7339C13.5275 14.6035 13.7038 14.5296 13.8882 14.528C14.0725 14.5263 14.2501 14.5972 14.3828 14.7253L16.172 16.5155C16.2702 16.6138 16.3371 16.739 16.3641 16.8753C16.3912 17.0116 16.3773 17.1529 16.3241 17.2813C16.271 17.4097 16.1809 17.5195 16.0654 17.5968C15.9499 17.674 15.8141 17.7153 15.6751 17.7155H15.6756Z" fill="#DBE2E6"/>
</svg>
