<svg width="24" height="24" viewBox="0 0 24 24" fill="none" xmlns="http://www.w3.org/2000/svg">
<path d="M17.5261 21.0938H6.7969C6.17416 21.093 5.57714 20.8453 5.1368 20.4049C4.69645 19.9646 4.44874 19.3676 4.448 18.7448V4.59891C4.44874 3.97617 4.69645 3.37914 5.1368 2.9388C5.57714 2.49846 6.17416 2.25074 6.7969 2.25H13.8328C13.9252 2.24996 14.0166 2.26811 14.102 2.30342C14.1873 2.33873 14.2649 2.3905 14.3302 2.45578L19.6692 7.79391C19.7345 7.85923 19.7863 7.93677 19.8216 8.02211C19.8569 8.10744 19.8751 8.1989 19.875 8.29125V18.7444C19.8744 19.3672 19.6268 19.9643 19.1864 20.4048C18.746 20.8452 18.1489 21.093 17.5261 21.0938ZM6.7969 3.65625C6.54697 3.6565 6.30735 3.75589 6.13062 3.93262C5.95389 4.10935 5.8545 4.34897 5.85425 4.59891V18.7448C5.8545 18.9948 5.95389 19.2344 6.13062 19.4111C6.30735 19.5879 6.54697 19.6873 6.7969 19.6875H17.5261C17.7761 19.6873 18.0157 19.5879 18.1924 19.4111C18.3691 19.2344 18.4685 18.9948 18.4688 18.7448V8.58234L13.5427 3.65625H6.7969Z" fill="#DBE2E6"/>
<path d="M19.1719 8.99438H15.4795C14.8568 8.99363 14.2598 8.74592 13.8194 8.30557C13.3791 7.86523 13.1314 7.26821 13.1306 6.64547V2.95312C13.1306 2.76664 13.2047 2.5878 13.3366 2.45594C13.4684 2.32408 13.6473 2.25 13.8337 2.25C14.0202 2.25 14.1991 2.32408 14.3309 2.45594C14.4628 2.5878 14.5369 2.76664 14.5369 2.95312V6.64547C14.5371 6.8954 14.6365 7.13502 14.8132 7.31175C14.99 7.48848 15.2296 7.58788 15.4795 7.58813H19.1719C19.3583 7.58813 19.5372 7.6622 19.669 7.79407C19.8009 7.92593 19.875 8.10477 19.875 8.29125C19.875 8.47773 19.8009 8.65657 19.669 8.78843C19.5372 8.9203 19.3583 8.99438 19.1719 8.99438Z" fill="#DBE2E6"/>
<path d="M11.7189 16.875C11.6015 16.875 11.486 16.8456 11.383 16.7895C11.2799 16.7334 11.1925 16.6524 11.1287 16.5539L9.06621 13.3664C9.0141 13.2889 8.97795 13.2018 8.95986 13.1102C8.94177 13.0186 8.9421 12.9243 8.96085 12.8329C8.97959 12.7414 9.01637 12.6546 9.06903 12.5774C9.12169 12.5003 9.18918 12.4345 9.26757 12.3838C9.34595 12.333 9.43366 12.2984 9.52557 12.2819C9.61748 12.2654 9.71175 12.2674 9.80288 12.2878C9.89401 12.3081 9.98018 12.3464 10.0563 12.4004C10.1325 12.4544 10.1972 12.5231 10.2465 12.6023L11.7189 14.8776L14.5782 10.4606C14.6284 10.3831 14.6934 10.3162 14.7694 10.2638C14.8454 10.2113 14.931 10.1744 15.0213 10.155C15.1116 10.1357 15.2048 10.1343 15.2957 10.151C15.3865 10.1677 15.4731 10.2021 15.5507 10.2523C15.6282 10.3024 15.6951 10.3674 15.7475 10.4434C15.7999 10.5194 15.8369 10.605 15.8562 10.6953C15.8756 10.7856 15.877 10.8788 15.8603 10.9697C15.8436 11.0605 15.8092 11.1471 15.759 11.2247L12.309 16.5539C12.2453 16.6524 12.1579 16.7334 12.0548 16.7895C11.9517 16.8456 11.8362 16.875 11.7189 16.875Z" fill="#DBE2E6"/>
</svg>
