<svg width="24" height="24" viewBox="0 0 24 24" fill="none" xmlns="http://www.w3.org/2000/svg">
<path d="M17.7577 21.0938H7.03128C6.40854 21.093 5.81152 20.8453 5.37117 20.4049C4.93083 19.9646 4.68312 19.3676 4.68237 18.7448V4.59891C4.68312 3.97617 4.93083 3.37914 5.37117 2.9388C5.81152 2.49846 6.40854 2.25074 7.03128 2.25H14.0672C14.1596 2.24996 14.251 2.26811 14.3364 2.30342C14.4217 2.33873 14.4992 2.3905 14.5646 2.45578L19.9008 7.79391C19.9661 7.85923 20.0179 7.93677 20.0532 8.02211C20.0885 8.10744 20.1066 8.1989 20.1066 8.29125V18.7444C20.106 19.3672 19.8583 19.9643 19.418 20.4048C18.9776 20.8452 18.3805 21.093 17.7577 21.0938ZM7.03128 3.65625C6.78135 3.6565 6.54172 3.75589 6.365 3.93262C6.18827 4.10935 6.08887 4.34897 6.08862 4.59891V18.7448C6.08887 18.9948 6.18827 19.2344 6.365 19.4111C6.54172 19.5879 6.78135 19.6873 7.03128 19.6875H17.7577C18.0076 19.6873 18.2472 19.5879 18.424 19.4111C18.6007 19.2344 18.7001 18.9948 18.7003 18.7448V8.58234L13.7742 3.65625H7.03128Z" fill="#DBE2E6"/>
<path d="M19.4036 8.99438H15.7112C15.0885 8.99363 14.4915 8.74592 14.0511 8.30557C13.6108 7.86523 13.363 7.26821 13.3623 6.64547V2.95312C13.3623 2.76664 13.4364 2.5878 13.5682 2.45594C13.7001 2.32408 13.8789 2.25 14.0654 2.25C14.2519 2.25 14.4308 2.32408 14.5626 2.45594C14.6945 2.5878 14.7686 2.76664 14.7686 2.95312V6.64547C14.7688 6.8954 14.8682 7.13502 15.0449 7.31175C15.2217 7.48848 15.4613 7.58788 15.7112 7.58813H19.4036C19.59 7.58813 19.7689 7.6622 19.9007 7.79407C20.0326 7.92593 20.1067 8.10477 20.1067 8.29125C20.1067 8.47773 20.0326 8.65657 19.9007 8.78843C19.7689 8.9203 19.59 8.99438 19.4036 8.99438Z" fill="#DBE2E6"/>
<path d="M12.3937 17.5781C12.3013 17.5781 12.2098 17.5599 12.1245 17.5245C12.0392 17.4891 11.9616 17.4372 11.8964 17.3719L9.34401 14.82C9.2787 14.7547 9.22689 14.6772 9.19153 14.5919C9.15617 14.5066 9.13796 14.4152 9.13794 14.3228C9.13792 14.2305 9.15608 14.139 9.1914 14.0537C9.22672 13.9684 9.2785 13.8909 9.34378 13.8256C9.40906 13.7602 9.48657 13.7084 9.57187 13.6731C9.65718 13.6377 9.74862 13.6195 9.84096 13.6195C9.9333 13.6195 10.0247 13.6376 10.1101 13.6729C10.1954 13.7083 10.2729 13.76 10.3382 13.8253L12.3937 15.8803L14.4487 13.8253C14.514 13.76 14.5915 13.7083 14.6769 13.6729C14.7622 13.6376 14.8536 13.6195 14.946 13.6195C15.0383 13.6195 15.1298 13.6377 15.2151 13.6731C15.3004 13.7084 15.3779 13.7602 15.4432 13.8256C15.5084 13.8909 15.5602 13.9684 15.5955 14.0537C15.6309 14.139 15.649 14.2305 15.649 14.3228C15.649 14.4152 15.6308 14.5066 15.5954 14.5919C15.56 14.6772 15.5082 14.7547 15.4429 14.82L12.8906 17.3695C12.8255 17.4353 12.7482 17.4875 12.6629 17.5233C12.5777 17.5591 12.4862 17.5777 12.3937 17.5781Z" fill="#DBE2E6"/>
<path d="M12.3938 17.1094C12.2073 17.1094 12.0285 17.0353 11.8966 16.9034C11.7648 16.7716 11.6907 16.5927 11.6907 16.4062V10.8281C11.6907 10.6416 11.7648 10.4628 11.8966 10.3309C12.0285 10.1991 12.2073 10.125 12.3938 10.125C12.5803 10.125 12.7591 10.1991 12.891 10.3309C13.0228 10.4628 13.0969 10.6416 13.0969 10.8281V16.4062C13.0969 16.5927 13.0228 16.7716 12.891 16.9034C12.7591 17.0353 12.5803 17.1094 12.3938 17.1094Z" fill="#DBE2E6"/>
</svg>
