<svg width="24" height="24" viewBox="0 0 24 24" fill="none" xmlns="http://www.w3.org/2000/svg">
<path d="M17.4107 21.0938H6.6824C6.05966 21.093 5.46264 20.8453 5.0223 20.4049C4.58195 19.9646 4.33424 19.3676 4.3335 18.7448V4.59891C4.33424 3.97617 4.58195 3.37914 5.0223 2.9388C5.46264 2.49846 6.05966 2.25074 6.6824 2.25H13.7183C13.8107 2.24996 13.9021 2.26811 13.9875 2.30342C14.0728 2.33873 14.1504 2.3905 14.2157 2.45578L19.5538 7.79391C19.6191 7.85923 19.6709 7.93677 19.7062 8.02211C19.7415 8.10744 19.7596 8.1989 19.7596 8.29125V18.7444C19.759 19.3672 19.5113 19.9643 19.071 20.4048C18.6306 20.8452 18.0335 21.093 17.4107 21.0938ZM6.6824 3.65625C6.43247 3.6565 6.19285 3.75589 6.01612 3.93262C5.83939 4.10935 5.73999 4.34897 5.73975 4.59891V18.7448C5.73999 18.9948 5.83939 19.2344 6.01612 19.4111C6.19285 19.5879 6.43247 19.6873 6.6824 19.6875H17.4107C17.6606 19.6873 17.9002 19.5879 18.077 19.4111C18.2537 19.2344 18.3531 18.9948 18.3533 18.7448V8.58234L13.4272 3.65625H6.6824Z" fill="#DBE2E6"/>
<path d="M19.0564 8.99438H15.364C14.7413 8.99363 14.1443 8.74592 13.7039 8.30557C13.2636 7.86523 13.0159 7.26821 13.0151 6.64547V2.95312C13.0151 2.76664 13.0892 2.5878 13.2211 2.45594C13.3529 2.32408 13.5318 2.25 13.7183 2.25C13.9047 2.25 14.0836 2.32408 14.2154 2.45594C14.3473 2.5878 14.4214 2.76664 14.4214 2.95312V6.64547C14.4216 6.8954 14.521 7.13502 14.6978 7.31175C14.8745 7.48848 15.1141 7.58788 15.364 7.58813H19.0564C19.2429 7.58813 19.4217 7.6622 19.5536 7.79407C19.6854 7.92593 19.7595 8.10477 19.7595 8.29125C19.7595 8.47773 19.6854 8.65657 19.5536 8.78843C19.4217 8.9203 19.2429 8.99438 19.0564 8.99438Z" fill="#DBE2E6"/>
<path d="M8.31447 15.1758L7.40838 16.7147C7.36525 16.7831 7.27807 16.814 7.17916 16.814C6.91197 16.814 6.53369 16.6031 6.53369 16.3364C6.53573 16.2744 6.55505 16.2141 6.58947 16.1625L7.66291 14.5059L6.63166 12.8555C6.59241 12.7988 6.57073 12.7317 6.56932 12.6628C6.56932 12.4022 6.92322 12.2039 7.19604 12.2039C7.2551 12.1992 7.31423 12.212 7.36608 12.2407C7.41792 12.2693 7.46019 12.3126 7.4876 12.3651L8.31307 13.8047L9.14041 12.3651C9.16787 12.3127 9.21014 12.2694 9.26198 12.2407C9.31381 12.2121 9.37292 12.1993 9.43197 12.2039C9.70525 12.2039 10.0587 12.4022 10.0587 12.6628C10.0575 12.7317 10.036 12.7987 9.99682 12.8555L8.96557 14.5059L10.039 16.1625C10.0732 16.2142 10.0925 16.2744 10.0948 16.3364C10.0948 16.6031 9.71604 16.814 9.44932 16.814C9.34994 16.814 9.25713 16.7831 9.21963 16.7147L8.31447 15.1758Z" fill="#DBE2E6"/>
<path d="M12.6641 15.1697C12.6319 15.2264 12.5848 15.2731 12.5278 15.3049C12.4709 15.3366 12.4063 15.3521 12.3411 15.3497C12.2784 15.3531 12.216 15.3378 12.162 15.3057C12.1079 15.2737 12.0646 15.2264 12.0374 15.1697L11.4477 14.0916V16.4822C11.4477 16.6809 11.2058 16.7798 10.964 16.7798C10.7221 16.7798 10.4797 16.6809 10.4797 16.4822V12.7252C10.4797 12.3712 10.7221 12.2409 10.964 12.2409C11.3113 12.2409 11.4604 12.2784 11.714 12.7252L12.3529 13.8417L12.9918 12.7252C13.2463 12.2784 13.3954 12.2409 13.7418 12.2409C13.9902 12.2409 14.226 12.3712 14.226 12.7252V16.4789C14.226 16.6777 13.9836 16.7766 13.7418 16.7766C13.4999 16.7766 13.258 16.6777 13.258 16.4789V14.152L12.6641 15.1697Z" fill="#DBE2E6"/>
<path d="M15.3196 16.7766C15.1086 16.7766 14.8977 16.6777 14.8977 16.4789V12.5325C14.8977 12.3281 15.1396 12.2409 15.3815 12.2409C15.6233 12.2409 15.8657 12.3281 15.8657 12.5325V15.9328H17.2804C17.4679 15.9328 17.5616 16.1437 17.5616 16.3547C17.5616 16.5656 17.4679 16.7766 17.2804 16.7766H15.3196Z" fill="#DBE2E6"/>
</svg>
