<svg width="24" height="24" viewBox="0 0 24 24" fill="none" xmlns="http://www.w3.org/2000/svg">
<path d="M18.0389 21.0938H7.31253C6.68979 21.093 6.09277 20.8453 5.65242 20.4049C5.21208 19.9646 4.96437 19.3676 4.96362 18.7448V4.59891C4.96437 3.97617 5.21208 3.37914 5.65242 2.9388C6.09277 2.49846 6.68979 2.25074 7.31253 2.25H14.3485C14.4408 2.24996 14.5323 2.26811 14.6176 2.30342C14.7029 2.33873 14.7805 2.3905 14.8458 2.45578L20.1821 7.79391C20.2473 7.85923 20.2991 7.93677 20.3344 8.02211C20.3697 8.10744 20.3879 8.1989 20.3878 8.29125V18.7444C20.3872 19.3672 20.1396 19.9643 19.6992 20.4048C19.2589 20.8452 18.6618 21.093 18.0389 21.0938ZM7.31253 3.65625C7.0626 3.6565 6.82297 3.75589 6.64625 3.93262C6.46952 4.10935 6.37012 4.34897 6.36987 4.59891V18.7448C6.37012 18.9948 6.46952 19.2344 6.64625 19.4111C6.82297 19.5879 7.0626 19.6873 7.31253 19.6875H18.0389C18.2889 19.6873 18.5285 19.5879 18.7052 19.4111C18.8819 19.2344 18.9813 18.9948 18.9816 18.7448V8.58234L14.0555 3.65625H7.31253Z" fill="#DBE2E6"/>
<path d="M19.6848 8.99438H15.9925C15.3697 8.99363 14.7727 8.74592 14.3324 8.30557C13.892 7.86523 13.6443 7.26821 13.6436 6.64547V2.95312C13.6436 2.76664 13.7176 2.5878 13.8495 2.45594C13.9814 2.32408 14.1602 2.25 14.3467 2.25C14.5332 2.25 14.712 2.32408 14.8439 2.45594C14.9757 2.5878 15.0498 2.76664 15.0498 2.95312V6.64547C15.0501 6.8954 15.1494 7.13502 15.3262 7.31175C15.5029 7.48848 15.7425 7.58788 15.9925 7.58813H19.6848C19.8713 7.58813 20.0501 7.6622 20.182 7.79407C20.3139 7.92593 20.3879 8.10477 20.3879 8.29125C20.3879 8.47773 20.3139 8.65657 20.182 8.78843C20.0501 8.9203 19.8713 8.99438 19.6848 8.99438Z" fill="#DBE2E6"/>
<path d="M11.9531 10.7344C11.798 10.7344 11.6472 10.6832 11.5242 10.5886L10.125 9.51047L8.72578 10.5886C8.6217 10.6687 8.49726 10.7181 8.36657 10.7311C8.23587 10.7441 8.10414 10.7203 7.9863 10.6623C7.86846 10.6042 7.76923 10.5144 7.69985 10.4028C7.63047 10.2913 7.59372 10.1626 7.59375 10.0312V2.95312C7.59375 2.76664 7.66783 2.5878 7.79969 2.45594C7.93155 2.32408 8.11039 2.25 8.29688 2.25C8.48336 2.25 8.6622 2.32408 8.79406 2.45594C8.92592 2.5878 9 2.76664 9 2.95312V8.60297L9.69609 8.06766C9.819 7.97312 9.96971 7.92187 10.1248 7.92187C10.2798 7.92187 10.4305 7.97312 10.5534 8.06766L11.25 8.60297V2.95312C11.25 2.76664 11.3241 2.5878 11.4559 2.45594C11.5878 2.32408 11.7666 2.25 11.9531 2.25C12.1396 2.25 12.3184 2.32408 12.4503 2.45594C12.5822 2.5878 12.6562 2.76664 12.6562 2.95312V10.0312C12.6562 10.2177 12.5822 10.3966 12.4503 10.5284C12.3184 10.6603 12.1396 10.7344 11.9531 10.7344Z" fill="#DBE2E6"/>
</svg>
