<svg width="24" height="24" viewBox="0 0 24 24" fill="none" xmlns="http://www.w3.org/2000/svg">
<path d="M17.4107 21.0938H6.6824C6.05966 21.093 5.46264 20.8453 5.0223 20.4049C4.58195 19.9646 4.33424 19.3676 4.3335 18.7448V4.59891C4.33424 3.97617 4.58195 3.37914 5.0223 2.9388C5.46264 2.49846 6.05966 2.25074 6.6824 2.25H13.7183C13.8107 2.24996 13.9021 2.26811 13.9875 2.30342C14.0728 2.33873 14.1504 2.3905 14.2157 2.45578L19.5538 7.79391C19.6191 7.85923 19.6709 7.93677 19.7062 8.02211C19.7415 8.10744 19.7596 8.1989 19.7596 8.29125V18.7444C19.759 19.3672 19.5113 19.9643 19.071 20.4048C18.6306 20.8452 18.0335 21.093 17.4107 21.0938ZM6.6824 3.65625C6.43247 3.6565 6.19285 3.75589 6.01612 3.93262C5.83939 4.10935 5.73999 4.34897 5.73975 4.59891V18.7448C5.73999 18.9948 5.83939 19.2344 6.01612 19.4111C6.19285 19.5879 6.43247 19.6873 6.6824 19.6875H17.4107C17.6606 19.6873 17.9002 19.5879 18.077 19.4111C18.2537 19.2344 18.3531 18.9948 18.3533 18.7448V8.58234L13.4272 3.65625H6.6824Z" fill="#DBE2E6"/>
<path d="M19.0564 8.99438H15.364C14.7413 8.99363 14.1443 8.74592 13.7039 8.30557C13.2636 7.86523 13.0159 7.26821 13.0151 6.64547V2.95312C13.0151 2.76664 13.0892 2.5878 13.2211 2.45594C13.3529 2.32408 13.5318 2.25 13.7183 2.25C13.9047 2.25 14.0836 2.32408 14.2154 2.45594C14.3473 2.5878 14.4214 2.76664 14.4214 2.95312V6.64547C14.4216 6.8954 14.521 7.13502 14.6978 7.31175C14.8745 7.48848 15.1141 7.58788 15.364 7.58813H19.0564C19.2429 7.58813 19.4217 7.6622 19.5536 7.79407C19.6854 7.92593 19.7595 8.10477 19.7595 8.29125C19.7595 8.47773 19.6854 8.65657 19.5536 8.78843C19.4217 8.9203 19.2429 8.99438 19.0564 8.99438Z" fill="#DBE2E6"/>
<path d="M14.3554 18.4542C14.2411 18.4544 14.1285 18.4267 14.0273 18.3736L12.0468 17.3316L10.0649 18.375C9.94873 18.4356 9.81789 18.4626 9.68718 18.4528C9.55647 18.443 9.4311 18.3969 9.32522 18.3196C9.21934 18.2423 9.13716 18.137 9.08797 18.0155C9.03877 17.894 9.02452 17.7612 9.04681 17.632L9.42181 15.4256L7.81869 13.8633C7.72467 13.7717 7.65816 13.6556 7.6267 13.5282C7.59524 13.4008 7.60007 13.2671 7.64066 13.1422C7.68124 13.0174 7.75595 12.9064 7.85634 12.8219C7.95673 12.7373 8.07878 12.6825 8.20869 12.6638L10.424 12.3417L11.4149 10.3345C11.473 10.2169 11.5628 10.1179 11.6742 10.0486C11.7857 9.97938 11.9142 9.94269 12.0454 9.94269C12.1766 9.94269 12.3052 9.97938 12.4166 10.0486C12.528 10.1179 12.6178 10.2169 12.6759 10.3345L13.6663 12.3417L15.8821 12.6638C16.012 12.6826 16.134 12.7374 16.2343 12.822C16.3346 12.9066 16.4093 13.0176 16.4498 13.1424C16.4904 13.2672 16.4952 13.4009 16.4637 13.5283C16.4322 13.6557 16.3657 13.7717 16.2717 13.8633L14.6718 15.4256L15.0468 17.632C15.0642 17.733 15.0592 17.8364 15.0324 17.9353C15.0056 18.0341 14.9575 18.1259 14.8915 18.2042C14.8255 18.2825 14.7433 18.3454 14.6504 18.3886C14.5576 18.4318 14.4564 18.4542 14.354 18.4542H14.3554ZM12.0468 15.8344C12.1611 15.8342 12.2737 15.8619 12.3749 15.915L13.4226 16.4658L13.2224 15.2991C13.2031 15.1867 13.2114 15.0713 13.2466 14.9629C13.2818 14.8544 13.3428 14.7562 13.4245 14.6766L14.2724 13.8506L13.1006 13.6805C12.9877 13.6641 12.8805 13.6205 12.7882 13.5535C12.6959 13.4864 12.6213 13.3979 12.5709 13.2956L12.0468 12.2344L11.5228 13.2956C11.4723 13.3979 11.3978 13.4863 11.3056 13.5534C11.2134 13.6204 11.1063 13.664 10.9935 13.6805L9.82166 13.8506L10.6692 14.6766C10.7508 14.7562 10.8118 14.8544 10.847 14.9629C10.8822 15.0713 10.8905 15.1867 10.8712 15.2991L10.6715 16.4658L11.7187 15.915C11.8199 15.8619 11.9325 15.8342 12.0468 15.8344Z" fill="#DBE2E6"/>
</svg>
