<svg width="24" height="24" viewBox="0 0 24 24" fill="none" xmlns="http://www.w3.org/2000/svg">
<path d="M17.6719 21.0938H6.94219C6.31953 21.0929 5.72263 20.8451 5.28238 20.4048C4.84214 19.9645 4.59449 19.3675 4.59375 18.7448V4.59891C4.59449 3.97625 4.84214 3.3793 5.28238 2.93897C5.72263 2.49864 6.31953 2.25087 6.94219 2.25H13.9781C14.0705 2.24996 14.1619 2.26811 14.2473 2.30342C14.3326 2.33873 14.4101 2.3905 14.4755 2.45578L19.8136 7.79391C19.8789 7.85923 19.9306 7.93677 19.966 8.02211C20.0013 8.10744 20.0194 8.1989 20.0194 8.29125V18.7444C20.0188 19.367 19.7713 19.9639 19.3312 20.4043C18.8912 20.8447 18.2945 21.0926 17.6719 21.0938ZM6.94219 3.65625C6.69238 3.65675 6.45294 3.75624 6.27634 3.93292C6.09974 4.10961 6.00037 4.34909 6 4.59891V18.7448C6.00037 18.9947 6.09974 19.2341 6.27634 19.4108C6.45294 19.5875 6.69238 19.687 6.94219 19.6875H17.6719C17.9218 19.6873 18.1614 19.5879 18.3382 19.4111C18.5149 19.2344 18.6143 18.9948 18.6145 18.7448V8.58234L13.6875 3.65625H6.94219Z" fill="#DBE2E6"/>
<path d="M19.3162 8.99438H15.6238C15.0011 8.99363 14.404 8.74592 13.9637 8.30557C13.5234 7.86523 13.2756 7.26821 13.2749 6.64547V2.95312C13.2749 2.76664 13.349 2.5878 13.4808 2.45594C13.6127 2.32408 13.7915 2.25 13.978 2.25C14.1645 2.25 14.3434 2.32408 14.4752 2.45594C14.6071 2.5878 14.6812 2.76664 14.6812 2.95312V6.64547C14.6815 6.89536 14.781 7.13491 14.9577 7.31162C15.1344 7.48832 15.3739 7.58775 15.6238 7.58813H19.3162C19.5026 7.58813 19.6815 7.6622 19.8133 7.79407C19.9452 7.92593 20.0193 8.10477 20.0193 8.29125C20.0193 8.47773 19.9452 8.65657 19.8133 8.78843C19.6815 8.9203 19.5026 8.99438 19.3162 8.99438Z" fill="#DBE2E6"/>
<path d="M9.73083 16.875C9.5918 16.8749 9.45592 16.8335 9.34038 16.7562C9.22483 16.6789 9.13481 16.569 9.08168 16.4406C9.02855 16.3121 9.01471 16.1707 9.04189 16.0344C9.06908 15.898 9.13608 15.7728 9.23442 15.6745L14.385 10.5234C14.4504 10.4582 14.5279 10.4064 14.6132 10.3711C14.6985 10.3357 14.79 10.3176 14.8823 10.3176C14.9747 10.3176 15.0661 10.3358 15.1514 10.3712C15.2367 10.4065 15.3142 10.4584 15.3795 10.5237C15.4448 10.589 15.4966 10.6665 15.5319 10.7518C15.5672 10.8372 15.5854 10.9286 15.5853 11.0209C15.5853 11.1133 15.5671 11.2047 15.5318 11.29C15.4964 11.3753 15.4446 11.4528 15.3793 11.5181L10.2282 16.6692C10.1628 16.7345 10.0853 16.7863 9.99997 16.8216C9.91463 16.8569 9.82318 16.875 9.73083 16.875Z" fill="#DBE2E6"/>
<path d="M14.882 16.875C14.6956 16.875 14.5169 16.801 14.3851 16.6692L9.23447 11.5181C9.10633 11.3856 9.03537 11.208 9.03689 11.0236C9.0384 10.8393 9.11227 10.6629 9.24257 10.5325C9.37288 10.402 9.54919 10.328 9.73355 10.3263C9.91791 10.3246 10.0956 10.3954 10.2282 10.5234L15.3793 15.6745C15.4777 15.7729 15.5447 15.8982 15.5719 16.0346C15.599 16.1711 15.5851 16.3125 15.5319 16.441C15.4786 16.5695 15.3885 16.6794 15.2728 16.7566C15.1571 16.8339 15.0211 16.8751 14.882 16.875Z" fill="#DBE2E6"/>
</svg>
