<svg width="24" height="24" viewBox="0 0 24 24" fill="none" xmlns="http://www.w3.org/2000/svg">
<path d="M17.1511 21.0938H6.4219C5.79916 21.093 5.20214 20.8453 4.7618 20.4049C4.32145 19.9646 4.07374 19.3676 4.073 18.7448V4.59891C4.07374 3.97617 4.32145 3.37914 4.7618 2.9388C5.20214 2.49846 5.79916 2.25074 6.4219 2.25H13.4578C13.5502 2.24996 13.6416 2.26811 13.727 2.30342C13.8123 2.33873 13.8899 2.3905 13.9552 2.45578L19.2942 7.79391C19.3595 7.85923 19.4113 7.93677 19.4466 8.02211C19.4819 8.10744 19.5001 8.1989 19.5 8.29125V18.7444C19.4994 19.3672 19.2518 19.9643 18.8114 20.4048C18.371 20.8452 17.7739 21.093 17.1511 21.0938ZM6.4219 3.65625C6.17197 3.6565 5.93235 3.75589 5.75562 3.93262C5.57889 4.10935 5.4795 4.34897 5.47925 4.59891V18.7448C5.4795 18.9948 5.57889 19.2344 5.75562 19.4111C5.93235 19.5879 6.17197 19.6873 6.4219 19.6875H17.1511C17.4011 19.6873 17.6407 19.5879 17.8174 19.4111C17.9941 19.2344 18.0935 18.9948 18.0938 18.7448V8.58234L13.1677 3.65625H6.4219Z" fill="#DBE2E6"/>
<path d="M18.7969 8.99438H15.1045C14.4818 8.99363 13.8848 8.74592 13.4444 8.30557C13.0041 7.86523 12.7564 7.26821 12.7556 6.64547V2.95312C12.7556 2.76664 12.8297 2.5878 12.9616 2.45594C13.0934 2.32408 13.2723 2.25 13.4587 2.25C13.6452 2.25 13.8241 2.32408 13.9559 2.45594C14.0878 2.5878 14.1619 2.76664 14.1619 2.95312V6.64547C14.1621 6.8954 14.2615 7.13502 14.4382 7.31175C14.615 7.48848 14.8546 7.58788 15.1045 7.58813H18.7969C18.9833 7.58813 19.1622 7.6622 19.294 7.79407C19.4259 7.92593 19.5 8.10477 19.5 8.29125C19.5 8.47773 19.4259 8.65657 19.294 8.78843C19.1622 8.9203 18.9833 8.99438 18.7969 8.99438Z" fill="#DBE2E6"/>
<path d="M10.8318 18.7659C10.2932 18.7653 9.77686 18.5511 9.396 18.1702C9.01514 17.7894 8.8009 17.273 8.80028 16.7344V11.8805C8.79533 11.4851 8.86892 11.0927 9.01679 10.726C9.16466 10.3593 9.38387 10.0256 9.6617 9.74428C9.93952 9.46295 10.2704 9.23958 10.6353 9.08713C11.0001 8.93467 11.3915 8.85617 11.7869 8.85617C12.1823 8.85617 12.5738 8.93467 12.9386 9.08713C13.3034 9.23958 13.6343 9.46295 13.9122 9.74428C14.19 10.0256 14.4092 10.3593 14.5571 10.726C14.7049 11.0927 14.7785 11.4851 14.7736 11.8805V16.0884C14.7736 16.2749 14.6995 16.4538 14.5676 16.5856C14.4358 16.7175 14.2569 16.7916 14.0704 16.7916C13.884 16.7916 13.7051 16.7175 13.5733 16.5856C13.4414 16.4538 13.3673 16.2749 13.3673 16.0884V11.8805C13.3709 11.6706 13.3327 11.4622 13.2549 11.2673C13.1771 11.0724 13.0613 10.8949 12.9142 10.7452C12.7671 10.5956 12.5916 10.4767 12.3981 10.3956C12.2045 10.3144 11.9968 10.2726 11.7869 10.2726C11.5771 10.2726 11.3693 10.3144 11.1758 10.3956C10.9822 10.4767 10.8068 10.5956 10.6597 10.7452C10.5126 10.8949 10.3967 11.0724 10.3189 11.2673C10.2411 11.4622 10.2029 11.6706 10.2065 11.8805V16.7344C10.211 16.8973 10.2789 17.0521 10.3957 17.1658C10.5125 17.2794 10.6691 17.343 10.8321 17.343C10.9951 17.343 11.1517 17.2794 11.2685 17.1658C11.3853 17.0521 11.4532 16.8973 11.4576 16.7344V11.9803C11.4576 11.7938 11.5317 11.615 11.6636 11.4831C11.7954 11.3513 11.9743 11.2772 12.1608 11.2772C12.3472 11.2772 12.5261 11.3513 12.6579 11.4831C12.7898 11.615 12.8639 11.7938 12.8639 11.9803V16.7344C12.8633 17.2731 12.649 17.7895 12.268 18.1704C11.887 18.5513 11.3705 18.7654 10.8318 18.7659Z" fill="#DBE2E6"/>
</svg>
