<svg width="24" height="24" viewBox="0 0 24 24" fill="none" xmlns="http://www.w3.org/2000/svg">
<path d="M16.9419 21.0938H6.21365C5.59091 21.093 4.99389 20.8453 4.55355 20.4049C4.1132 19.9646 3.86549 19.3676 3.86475 18.7448V4.59891C3.86549 3.97617 4.1132 3.37914 4.55355 2.9388C4.99389 2.49846 5.59091 2.25074 6.21365 2.25H13.2496C13.3419 2.24996 13.4334 2.26811 13.5187 2.30342C13.6041 2.33873 13.6816 2.3905 13.7469 2.45578L19.0851 7.79391C19.1503 7.85923 19.2021 7.93677 19.2374 8.02211C19.2727 8.10744 19.2909 8.1989 19.2908 8.29125V18.7444C19.2902 19.3672 19.0426 19.9643 18.6022 20.4048C18.1618 20.8452 17.5648 21.093 16.9419 21.0938ZM6.21365 3.65625C5.96372 3.6565 5.7241 3.75589 5.54737 3.93262C5.37064 4.10935 5.27124 4.34897 5.271 4.59891V18.7448C5.27124 18.9948 5.37064 19.2344 5.54737 19.4111C5.7241 19.5879 5.96372 19.6873 6.21365 19.6875H16.9419C17.1919 19.6873 17.4315 19.5879 17.6082 19.4111C17.7849 19.2344 17.8843 18.9948 17.8846 18.7448V8.58234L12.9585 3.65625H6.21365Z" fill="#DBE2E6"/>
<path d="M18.5876 8.99438H14.8953C14.2726 8.99363 13.6755 8.74592 13.2352 8.30557C12.7948 7.86523 12.5471 7.26821 12.5464 6.64547V2.95312C12.5464 2.76664 12.6205 2.5878 12.7523 2.45594C12.8842 2.32408 13.063 2.25 13.2495 2.25C13.436 2.25 13.6148 2.32408 13.7467 2.45594C13.8786 2.5878 13.9526 2.76664 13.9526 2.95312V6.64547C13.9529 6.8954 14.0523 7.13502 14.229 7.31175C14.4057 7.48848 14.6454 7.58788 14.8953 7.58813H18.5876C18.7741 7.58813 18.953 7.6622 19.0848 7.79407C19.2167 7.92593 19.2908 8.10477 19.2908 8.29125C19.2908 8.47773 19.2167 8.65657 19.0848 8.78843C18.953 8.9203 18.7741 8.99438 18.5876 8.99438Z" fill="#DBE2E6"/>
<path d="M6.55811 12.5325C6.55811 12.3773 6.70107 12.2409 6.91811 12.2409H8.20295C9.02186 12.2409 9.66732 12.6258 9.66732 13.6683V13.6992C9.66732 14.7417 8.99701 15.1387 8.14107 15.1387H7.52607V16.4789C7.52607 16.6777 7.2842 16.7766 7.04232 16.7766C6.80045 16.7766 6.55811 16.6777 6.55811 16.4789V12.5325ZM7.52607 13.0847V14.3939H8.14061C8.48795 14.3939 8.69889 14.1956 8.69889 13.7737V13.7053C8.69889 13.2834 8.48795 13.0847 8.14061 13.0847H7.52607Z" fill="#DBE2E6"/>
<path d="M10.0889 12.5325C10.0889 12.3773 10.2295 12.2409 10.4489 12.2409H11.7332C12.5521 12.2409 13.1976 12.6258 13.1976 13.6683V13.6992C13.1976 14.7417 12.5273 15.1387 11.6709 15.1387H11.0568V16.4789C11.0568 16.6777 10.815 16.7766 10.5726 16.7766C10.3303 16.7766 10.0889 16.6777 10.0889 16.4789V12.5325ZM11.0568 13.0847V14.3939H11.6718C12.0196 14.3939 12.2306 14.1956 12.2306 13.7737V13.7053C12.2306 13.2834 12.0196 13.0847 11.6718 13.0847H11.0568Z" fill="#DBE2E6"/>
<path d="M16.3058 12.2409C16.5107 12.2409 16.5974 12.4645 16.5974 12.6694C16.5974 12.9037 16.4919 13.1095 16.3058 13.1095H15.4494V16.4789C15.4494 16.6777 15.2076 16.7766 14.9657 16.7766C14.7238 16.7766 14.4815 16.6777 14.4815 16.4789V13.1095H13.6255C13.438 13.1095 13.3335 12.9052 13.3335 12.6694C13.3335 12.4645 13.4207 12.2409 13.6255 12.2409H16.3058Z" fill="#DBE2E6"/>
</svg>
