<svg width="24" height="24" viewBox="0 0 24 24" fill="none" xmlns="http://www.w3.org/2000/svg">
<path d="M18.0469 21.0938H7.31719C6.69453 21.0929 6.09763 20.8451 5.65738 20.4048C5.21714 19.9645 4.96949 19.3675 4.96875 18.7448V4.59891C4.96949 3.97625 5.21714 3.3793 5.65738 2.93897C6.09763 2.49864 6.69453 2.25087 7.31719 2.25H14.3531C14.4455 2.24996 14.5369 2.26811 14.6223 2.30342C14.7076 2.33873 14.7851 2.3905 14.8505 2.45578L20.1886 7.79391C20.2539 7.85923 20.3056 7.93677 20.341 8.02211C20.3763 8.10744 20.3944 8.1989 20.3944 8.29125V18.7444C20.3938 19.367 20.1463 19.9639 19.7062 20.4043C19.2662 20.8447 18.6695 21.0926 18.0469 21.0938ZM7.31719 3.65625C7.06738 3.65675 6.82794 3.75624 6.65134 3.93292C6.47474 4.10961 6.37537 4.34909 6.375 4.59891V18.7448C6.37537 18.9947 6.47474 19.2341 6.65134 19.4108C6.82794 19.5875 7.06738 19.687 7.31719 19.6875H18.0469C18.2968 19.6873 18.5364 19.5879 18.7132 19.4111C18.8899 19.2344 18.9893 18.9948 18.9895 18.7448V8.58234L14.0625 3.65625H7.31719Z" fill="#DBE2E6"/>
<path d="M19.6912 8.99438H15.9988C15.3761 8.99363 14.779 8.74592 14.3387 8.30557C13.8984 7.86523 13.6506 7.26821 13.6499 6.64547V2.95312C13.6499 2.76664 13.724 2.5878 13.8558 2.45594C13.9877 2.32408 14.1665 2.25 14.353 2.25C14.5395 2.25 14.7184 2.32408 14.8502 2.45594C14.9821 2.5878 15.0562 2.76664 15.0562 2.95312V6.64547C15.0565 6.89536 15.156 7.13491 15.3327 7.31162C15.5094 7.48832 15.7489 7.58775 15.9988 7.58813H19.6912C19.8776 7.58813 20.0565 7.6622 20.1883 7.79407C20.3202 7.92593 20.3943 8.10477 20.3943 8.29125C20.3943 8.47773 20.3202 8.65657 20.1883 8.78843C20.0565 8.9203 19.8776 8.99438 19.6912 8.99438Z" fill="#DBE2E6"/>
<path d="M15.4139 14.5453H9.94873C9.76225 14.5453 9.58341 14.4712 9.45155 14.3394C9.31968 14.2075 9.24561 14.0287 9.24561 13.8422C9.24561 13.6557 9.31968 13.4769 9.45155 13.345C9.58341 13.2131 9.76225 13.1391 9.94873 13.1391H15.4139C15.6004 13.1391 15.7792 13.2131 15.9111 13.345C16.0429 13.4769 16.117 13.6557 16.117 13.8422C16.117 14.0287 16.0429 14.2075 15.9111 14.3394C15.7792 14.4712 15.6004 14.5453 15.4139 14.5453Z" fill="#DBE2E6"/>
</svg>
