<svg width="24" height="24" viewBox="0 0 24 24" fill="none" xmlns="http://www.w3.org/2000/svg">
<path d="M17.6719 21.0938H6.94219C6.31953 21.0929 5.72263 20.8451 5.28238 20.4048C4.84214 19.9645 4.59449 19.3675 4.59375 18.7448V4.59891C4.59449 3.97625 4.84214 3.3793 5.28238 2.93897C5.72263 2.49864 6.31953 2.25087 6.94219 2.25H13.9781C14.0705 2.24996 14.1619 2.26811 14.2473 2.30342C14.3326 2.33873 14.4101 2.3905 14.4755 2.45578L19.8136 7.79391C19.8789 7.85923 19.9306 7.93677 19.966 8.02211C20.0013 8.10744 20.0194 8.1989 20.0194 8.29125V18.7444C20.0188 19.367 19.7713 19.9639 19.3312 20.4043C18.8912 20.8447 18.2945 21.0926 17.6719 21.0938ZM6.94219 3.65625C6.69238 3.65675 6.45294 3.75624 6.27634 3.93292C6.09974 4.10961 6.00037 4.34909 6 4.59891V18.7448C6.00037 18.9947 6.09974 19.2341 6.27634 19.4108C6.45294 19.5875 6.69238 19.687 6.94219 19.6875H17.6719C17.9218 19.6873 18.1614 19.5879 18.3382 19.4111C18.5149 19.2344 18.6143 18.9948 18.6145 18.7448V8.58234L13.6875 3.65625H6.94219Z" fill="#DBE2E6"/>
<path d="M19.3162 8.99438H15.6238C15.0011 8.99363 14.404 8.74592 13.9637 8.30557C13.5234 7.86523 13.2756 7.26821 13.2749 6.64547V2.95312C13.2749 2.76664 13.349 2.5878 13.4808 2.45594C13.6127 2.32408 13.7915 2.25 13.978 2.25C14.1645 2.25 14.3434 2.32408 14.4752 2.45594C14.6071 2.5878 14.6812 2.76664 14.6812 2.95312V6.64547C14.6815 6.89536 14.781 7.13491 14.9577 7.31162C15.1344 7.48832 15.3739 7.58775 15.6238 7.58813H19.3162C19.5026 7.58813 19.6815 7.6622 19.8133 7.79407C19.9452 7.92593 20.0193 8.10477 20.0193 8.29125C20.0193 8.47773 19.9452 8.65657 19.8133 8.78843C19.6815 8.9203 19.5026 8.99438 19.3162 8.99438Z" fill="#DBE2E6"/>
<path d="M15.0389 14.5453H9.57373C9.38725 14.5453 9.20841 14.4712 9.07655 14.3394C8.94468 14.2075 8.87061 14.0287 8.87061 13.8422C8.87061 13.6557 8.94468 13.4769 9.07655 13.345C9.20841 13.2131 9.38725 13.1391 9.57373 13.1391H15.0389C15.2254 13.1391 15.4042 13.2131 15.5361 13.345C15.6679 13.4769 15.742 13.6557 15.742 13.8422C15.742 14.0287 15.6679 14.2075 15.5361 14.3394C15.4042 14.4712 15.2254 14.5453 15.0389 14.5453Z" fill="#DBE2E6"/>
<path d="M12.3066 17.2777C12.1202 17.2777 11.9413 17.2036 11.8095 17.0717C11.6776 16.9399 11.6035 16.761 11.6035 16.5745V11.1094C11.6035 10.9229 11.6776 10.7441 11.8095 10.6122C11.9413 10.4803 12.1202 10.4062 12.3066 10.4062C12.4931 10.4062 12.672 10.4803 12.8038 10.6122C12.9357 10.7441 13.0098 10.9229 13.0098 11.1094V16.5745C13.0098 16.761 12.9357 16.9399 12.8038 17.0717C12.672 17.2036 12.4931 17.2777 12.3066 17.2777Z" fill="#DBE2E6"/>
</svg>
