<svg width="24" height="24" viewBox="0 0 24 24" fill="none" xmlns="http://www.w3.org/2000/svg">
<path d="M18.3202 21.0938H7.59378C6.97104 21.093 6.37402 20.8453 5.93367 20.4049C5.49333 19.9646 5.24562 19.3676 5.24487 18.7448V4.59891C5.24562 3.97617 5.49333 3.37914 5.93367 2.9388C6.37402 2.49846 6.97104 2.25074 7.59378 2.25H14.6297C14.7221 2.24996 14.8135 2.26811 14.8989 2.30342C14.9842 2.33873 15.0617 2.3905 15.1271 2.45578L20.4633 7.79391C20.5286 7.85923 20.5804 7.93677 20.6157 8.02211C20.651 8.10744 20.6691 8.1989 20.6691 8.29125V18.7444C20.6685 19.3672 20.4208 19.9643 19.9805 20.4048C19.5401 20.8452 18.943 21.093 18.3202 21.0938ZM7.59378 3.65625C7.34385 3.6565 7.10422 3.75589 6.9275 3.93262C6.75077 4.10935 6.65137 4.34897 6.65112 4.59891V18.7448C6.65137 18.9948 6.75077 19.2344 6.9275 19.4111C7.10422 19.5879 7.34385 19.6873 7.59378 19.6875H18.3202C18.5701 19.6873 18.8097 19.5879 18.9865 19.4111C19.1632 19.2344 19.2626 18.9948 19.2628 18.7448V8.58234L14.3367 3.65625H7.59378Z" fill="#DBE2E6"/>
<path d="M19.9661 8.99438H16.2737C15.651 8.99363 15.054 8.74592 14.6136 8.30557C14.1733 7.86523 13.9255 7.26821 13.9248 6.64547V2.95312C13.9248 2.76664 13.9989 2.5878 14.1307 2.45594C14.2626 2.32408 14.4414 2.25 14.6279 2.25C14.8144 2.25 14.9933 2.32408 15.1251 2.45594C15.257 2.5878 15.3311 2.76664 15.3311 2.95312V6.64547C15.3313 6.8954 15.4307 7.13502 15.6074 7.31175C15.7842 7.48848 16.0238 7.58788 16.2737 7.58813H19.9661C20.1525 7.58813 20.3314 7.6622 20.4632 7.79407C20.5951 7.92593 20.6692 8.10477 20.6692 8.29125C20.6692 8.47773 20.5951 8.65657 20.4632 8.78843C20.3314 8.9203 20.1525 8.99438 19.9661 8.99438Z" fill="#DBE2E6"/>
<path d="M11.0371 16.8637C10.8506 16.8637 10.6718 16.7897 10.5399 16.6578C10.4081 16.5259 10.334 16.3471 10.334 16.1606V10.6472C10.3339 10.5237 10.3663 10.4024 10.428 10.2955C10.4897 10.1885 10.5784 10.0997 10.6854 10.0379C10.7923 9.97615 10.9135 9.94362 11.037 9.9436C11.1605 9.94358 11.2818 9.97607 11.3887 10.0378L16.1638 12.7969C16.2709 12.8585 16.3599 12.9473 16.4217 13.0543C16.4836 13.1613 16.5162 13.2827 16.5162 13.4062C16.5162 13.5298 16.4836 13.6512 16.4217 13.7582C16.3599 13.8652 16.2709 13.954 16.1638 14.0156L11.3905 16.7695C11.2831 16.8316 11.1612 16.8641 11.0371 16.8637ZM11.7402 11.865V14.9428L14.406 13.4062L11.7402 11.865Z" fill="#DBE2E6"/>
</svg>
