<svg xmlns="http://www.w3.org/2000/svg" width="24" height="24" fill="none"><path fill="#DBE2E6" d="M12.114 14.672a3.54 3.54 0 0 1-2.263-.816A7.52 7.52 0 0 1 7.138 7.81l.027-.782a4.952 4.952 0 0 1 9.898 0l.028.782a7.52 7.52 0 0 1-2.713 6.047 3.54 3.54 0 0 1-2.264.816m-1.366-1.896a2.14 2.14 0 0 0 2.732 0 6.15 6.15 0 0 0 2.206-4.916l-.03-.782a3.546 3.546 0 0 0-7.087 0l-.028.782a6.15 6.15 0 0 0 2.207 4.916"/><path fill="#DBE2E6" d="M17.786 21.094H6.442a.703.703 0 0 1-.703-.703v-2.535A5.65 5.65 0 0 1 9.6 12.49a.702.702 0 1 1 .446 1.333 4.25 4.25 0 0 0-2.9 4.031v1.834h9.938v-1.832a4.25 4.25 0 0 0-2.9-4.032.704.704 0 1 1 .447-1.333 5.65 5.65 0 0 1 3.86 5.366v2.534a.703.703 0 0 1-.704.703"/></svg>