<svg xmlns="http://www.w3.org/2000/svg" width="24" height="24" fill="none"><path fill="#DBE2E6" d="M20.678 9.158H3.241a.703.703 0 0 1-.375-1.298l8.718-5.502a.7.7 0 0 1 .75 0l8.72 5.502a.703.703 0 0 1-.376 1.298M5.672 7.75h12.574L11.96 3.785z"/><path fill="#DBE2E6" d="M7.838 18.218H5.166a.703.703 0 0 1-.703-.704v-9.06a.703.703 0 0 1 .703-.703h2.672a.703.703 0 0 1 .703.703v9.06a.703.703 0 0 1-.703.704M5.87 16.81h1.266V9.158H5.869zM13.296 18.218h-2.672a.703.703 0 0 1-.703-.704v-9.06a.703.703 0 0 1 .703-.703h2.672a.703.703 0 0 1 .703.703v9.06a.703.703 0 0 1-.703.704m-1.97-1.407h1.266V9.158h-1.265zM18.753 18.218H16.08a.703.703 0 0 1-.703-.704v-9.06a.703.703 0 0 1 .703-.703h2.672a.703.703 0 0 1 .703.703v9.06a.703.703 0 0 1-.703.704m-1.969-1.407h1.266V9.158h-1.266z"/><path fill="#DBE2E6" d="M20.678 21.094H3.24a.703.703 0 0 1-.703-.703v-2.877a.703.703 0 0 1 .703-.703h17.438a.703.703 0 0 1 .703.703v2.877a.703.703 0 0 1-.703.703M3.944 19.687h16.03v-1.47H3.945z"/></svg>