<svg xmlns="http://www.w3.org/2000/svg" width="24" height="24" fill="none"><path fill="#DBE2E6" d="M20.678 21.094H3.24a.703.703 0 0 1-.703-.703V2.953a.703.703 0 0 1 .703-.703h17.438a.703.703 0 0 1 .703.703v17.438a.703.703 0 0 1-.703.703M3.944 19.687h16.03V3.657H3.945z"/><path fill="#DBE2E6" d="M14.397 9.281H9.522a.703.703 0 0 1-.703-.703V2.953a.703.703 0 0 1 .703-.703h4.875a.703.703 0 0 1 .703.703v5.625a.703.703 0 0 1-.703.703m-4.172-1.406h3.469V3.656h-3.47zM10.888 14.344a.7.7 0 0 1-.498-.207l-1.23-1.23-1.231 1.23a.704.704 0 0 1-.995-.994l1.728-1.728a.703.703 0 0 1 .995 0l1.728 1.728a.703.703 0 0 1-.497 1.2"/><path fill="#DBE2E6" d="M9.16 17.344a.703.703 0 0 1-.704-.703v-4.494a.703.703 0 0 1 1.407 0v4.494a.703.703 0 0 1-.704.703M16.488 14.344a.7.7 0 0 1-.498-.207l-1.23-1.23-1.232 1.23a.703.703 0 0 1-.994-.994l1.728-1.728a.703.703 0 0 1 .994 0l1.729 1.728a.702.702 0 0 1-.497 1.2"/><path fill="#DBE2E6" d="M14.76 17.344a.703.703 0 0 1-.704-.703v-4.494a.703.703 0 0 1 1.407 0v4.494a.703.703 0 0 1-.703.703"/></svg>