<svg xmlns="http://www.w3.org/2000/svg" width="24" height="24" fill="none"><path fill="#DBE2E6" d="M14.235 21.094a.7.7 0 0 1-.338-.087l-1.803-.987-1.803.988a.7.7 0 0 1-.676 0l-1.802-.988-1.804.988a.703.703 0 0 1-1.04-.617V2.953a.703.703 0 0 1 .703-.703h12.844a.703.703 0 0 1 .703.703v17.438a.703.703 0 0 1-1.04.617l-1.804-.988-1.803.988a.7.7 0 0 1-.337.086m-2.141-2.578c.118 0 .234.03.337.086l1.804.987 1.802-.987a.7.7 0 0 1 .676 0l1.1.602V3.656H6.374v15.548l1.1-.602a.7.7 0 0 1 .675 0l1.803.987 1.803-.987a.7.7 0 0 1 .338-.086"/><path fill="#DBE2E6" d="M12.094 14.344a2.654 2.654 0 0 1-2.651-2.651.703.703 0 1 1 1.406 0 1.245 1.245 0 1 0 1.245-1.246 2.65 2.65 0 1 1 2.65-2.65.703.703 0 1 1-1.406 0 1.244 1.244 0 1 0-1.244 1.244 2.651 2.651 0 1 1 0 5.303"/><path fill="#DBE2E6" d="M12.094 15.278a.703.703 0 0 1-.703-.704v-9.66a.703.703 0 0 1 1.406 0v9.66a.704.704 0 0 1-.703.704M15.656 17.344H8.531a.703.703 0 0 1 0-1.407h7.125a.703.703 0 1 1 0 1.407"/></svg>