<svg xmlns="http://www.w3.org/2000/svg" width="24" height="24" fill="none"><path fill="#DBE2E6" d="M10.85 15.429a2.65 2.65 0 0 1-1.875-4.525.705.705 0 0 1 .995.994 1.244 1.244 0 1 0 1.76 0 2.65 2.65 0 1 1 3.75 0 .702.702 0 0 1-1.201-.497.7.7 0 0 1 .206-.497 1.245 1.245 0 1 0-1.76 0 2.65 2.65 0 0 1-1.876 4.525z"/><path fill="#DBE2E6" d="M8.813 15.52a.704.704 0 0 1-.498-1.2l6.83-6.832a.703.703 0 1 1 .995.996l-6.831 6.83a.7.7 0 0 1-.496.206"/><path fill="#DBE2E6" d="M10.666 21.09a.7.7 0 0 1-.498-.205L2.744 13.46a.703.703 0 0 1 0-.994l10.01-10.01a.7.7 0 0 1 .524-.206l7.142.281a.703.703 0 0 1 .674.677l.281 7.142a.7.7 0 0 1-.205.525l-10.008 10.01a.7.7 0 0 1-.496.206m-6.43-8.127 6.43 6.43 9.294-9.295-.244-6.185-6.188-.245z"/><path fill="#DBE2E6" d="M18.029 6.303a.7.7 0 0 1-.332-.083.7.7 0 0 1-.212-.173.7.7 0 0 1-.146-.309.7.7 0 0 1 0-.274.6.6 0 0 1 .04-.132.7.7 0 0 1 .152-.227.6.6 0 0 1 .166-.124.8.8 0 0 1 .262-.08.7.7 0 0 1 .139 0c.022 0 .047.007.068.011a.6.6 0 0 1 .194.07.8.8 0 0 1 .213.174.6.6 0 0 1 .076.114.6.6 0 0 1 .052.127q.01.035.017.067a.68.68 0 0 1-.04.406.784.784 0 0 1-.153.228.8.8 0 0 1-.228.152.6.6 0 0 1-.132.04.7.7 0 0 1-.136.013"/></svg>