<svg xmlns="http://www.w3.org/2000/svg" width="24" height="24" fill="none"><path fill="#DBE2E6" d="M6.955 21.094H3.24a.703.703 0 0 1-.703-.703v-3.715a.703.703 0 0 1 .703-.703h3.715a.703.703 0 0 1 .703.703v3.715a.703.703 0 0 1-.703.703m-3.011-1.407h2.308V17.38H3.944zM13.817 21.094h-3.715a.703.703 0 0 1-.703-.703v-3.715a.703.703 0 0 1 .703-.703h3.715a.703.703 0 0 1 .703.703v3.715a.703.703 0 0 1-.703.703m-3.012-1.407h2.309V17.38h-2.309zM13.817 7.406h-3.715a.703.703 0 0 1-.703-.703V2.988a.703.703 0 0 1 .703-.703h3.715a.703.703 0 0 1 .703.703v3.715a.703.703 0 0 1-.703.703M10.805 6h2.309V3.691h-2.309zM20.678 21.094h-3.715a.703.703 0 0 1-.703-.703v-3.715a.703.703 0 0 1 .703-.703h3.715a.703.703 0 0 1 .703.703v3.715a.703.703 0 0 1-.703.703m-3.012-1.407h2.309V17.38h-2.309z"/><path fill="#DBE2E6" d="M18.82 17.379a.703.703 0 0 1-.702-.703v-4.301H5.8v4.3a.703.703 0 0 1-1.406 0v-5.003a.703.703 0 0 1 .703-.703h13.723a.703.703 0 0 1 .703.703v5.004a.703.703 0 0 1-.703.703"/><path fill="#DBE2E6" d="M11.96 17.379a.703.703 0 0 1-.704-.703V6.703a.703.703 0 0 1 1.406 0v9.973a.703.703 0 0 1-.703.703"/></svg>