<svg xmlns="http://www.w3.org/2000/svg" width="24" height="24" fill="none"><path fill="#DBE2E6" d="M14.54 21.094H4.78a2.245 2.245 0 0 1-2.242-2.242V4.492A2.245 2.245 0 0 1 4.781 2.25h9.758a2.245 2.245 0 0 1 2.242 2.242v14.36a2.245 2.245 0 0 1-2.242 2.242M4.78 3.656a.837.837 0 0 0-.837.836v14.36a.836.836 0 0 0 .837.835h9.758a.836.836 0 0 0 .836-.835V4.492a.837.837 0 0 0-.836-.836z"/><path fill="#DBE2E6" d="M19.128 17.438h-3.05a.703.703 0 0 1-.703-.704V5.297a.703.703 0 0 1 .703-.703h3.05a2.256 2.256 0 0 1 2.253 2.253v8.337a2.256 2.256 0 0 1-2.253 2.254m-2.347-1.407h2.347a.847.847 0 0 0 .847-.847V6.847A.847.847 0 0 0 19.128 6h-2.347z"/><path fill="#DBE2E6" d="M18.422 9.563a.703.703 0 0 1-.703-.704V7.641a.703.703 0 1 1 1.406 0v1.218a.703.703 0 0 1-.703.704M18.422 12.938a.703.703 0 0 1-.703-.704v-1.218a.703.703 0 1 1 1.406 0v1.218a.703.703 0 0 1-.703.704M13.878 9.797H5.441a.703.703 0 0 1-.703-.703v-3.75a.703.703 0 0 1 .703-.703h8.437a.703.703 0 0 1 .704.703v3.75a.703.703 0 0 1-.704.703M6.144 8.39h7.031V6.047H6.144zM6.563 12.644H5.44a.704.704 0 0 1 0-1.407h1.122a.703.703 0 0 1 0 1.407M13.878 12.644h-1.122a.704.704 0 0 1 0-1.407h1.122a.703.703 0 0 1 0 1.407M10.219 12.644h-1.12a.704.704 0 0 1 0-1.407h1.12a.703.703 0 1 1 0 1.407M6.563 17.544H5.44a.703.703 0 0 1 0-1.406h1.122a.703.703 0 1 1 0 1.406M13.878 17.544h-1.122a.703.703 0 0 1 0-1.406h1.122a.703.703 0 1 1 0 1.406M10.219 17.544h-1.12a.703.703 0 0 1 0-1.406h1.12a.703.703 0 1 1 0 1.406M6.563 15.094H5.44a.703.703 0 0 1 0-1.406h1.122a.703.703 0 0 1 0 1.406M13.878 15.094h-1.122a.703.703 0 0 1 0-1.406h1.122a.703.703 0 0 1 0 1.406M10.219 15.094h-1.12a.703.703 0 0 1 0-1.406h1.12a.703.703 0 1 1 0 1.406"/></svg>