<svg xmlns="http://www.w3.org/2000/svg" width="24" height="24" fill="none"><path fill="#DBE2E6" d="M7.453 21.094H3.24a.703.703 0 0 1-.703-.703v-5.72a.703.703 0 0 1 .703-.702h4.213a.703.703 0 0 1 .703.703v5.719a.703.703 0 0 1-.703.703m-3.51-1.407H6.75v-4.312H3.944zM14.066 21.094H9.853a.703.703 0 0 1-.703-.703v-8.198a.703.703 0 0 1 .703-.703h4.213a.703.703 0 0 1 .703.703v8.198a.703.703 0 0 1-.703.703m-3.51-1.407h2.807v-6.791h-2.807zM20.678 21.094h-4.212a.703.703 0 0 1-.703-.703V9.363a.703.703 0 0 1 .703-.703h4.212a.703.703 0 0 1 .703.703V20.39a.703.703 0 0 1-.703.703m-3.51-1.407h2.807v-9.621h-2.806zM16.55 7.215a.703.703 0 0 1-.626-1.023l.79-1.551-1.55-.79a.702.702 0 1 1 .638-1.253l2.178 1.11a.703.703 0 0 1 .307.945l-1.11 2.178a.7.7 0 0 1-.627.384"/><path fill="#DBE2E6" d="M4.634 9.27a.703.703 0 0 1-.217-1.372l12.804-4.16a.703.703 0 0 1 .434 1.337L4.852 9.235a.7.7 0 0 1-.218.035"/></svg>