<svg xmlns="http://www.w3.org/2000/svg" width="24" height="24" fill="none"><path fill="#DBE2E6" d="M19.246 17.795H4.673a2.137 2.137 0 0 1-2.136-2.135V4.369a2.137 2.137 0 0 1 2.136-2.135h14.573a2.137 2.137 0 0 1 2.135 2.135V15.66a2.137 2.137 0 0 1-2.135 2.135M4.673 3.64a.73.73 0 0 0-.73.729V15.66a.73.73 0 0 0 .73.728h14.573a.73.73 0 0 0 .729-.728V4.369a.73.73 0 0 0-.729-.729z"/><path fill="#DBE2E6" d="M15.397 20.772H8.774a.703.703 0 0 1-.66-.944l1.09-2.977a.7.7 0 0 1 .66-.462h4.443a.7.7 0 0 1 .66.462l1.09 2.977a.704.704 0 0 1-.66.945M9.78 19.366h4.61l-.575-1.571h-3.46z"/><path fill="#DBE2E6" d="M17.283 20.772H6.887a.703.703 0 0 1 0-1.406h10.396a.703.703 0 1 1 0 1.406M20.678 14.88H3.24a.703.703 0 0 1 0-1.407h17.438a.703.703 0 0 1 0 1.406M13.995 12.364H9.673a.7.7 0 0 1-.673-.5l-.984-3.27a.703.703 0 0 1 .674-.906h6.288a.703.703 0 0 1 .673.905l-.984 3.27a.7.7 0 0 1-.672.501m-3.8-1.406h3.277l.56-1.864H9.637z"/><path fill="#DBE2E6" d="M8.69 9.094a.703.703 0 0 1-.563-1.122l1.928-2.6a.703.703 0 1 1 1.13.839l-1.93 2.602a.7.7 0 0 1-.565.28M14.979 9.094a.7.7 0 0 1-.566-.281l-1.928-2.6a.703.703 0 0 1 1.13-.837l1.927 2.598a.704.704 0 0 1-.562 1.123z"/></svg>