<svg xmlns="http://www.w3.org/2000/svg" width="24" height="24" fill="none"><path fill="#DBE2E6" d="M11.691 16.291c-1.279 0-2.52-.83-3.494-2.34-.811-1.255-1.315-2.826-1.315-4.099a4.809 4.809 0 1 1 9.618 0c0 1.273-.504 2.844-1.315 4.1-.975 1.509-2.215 2.34-3.494 2.34m0-9.841a3.406 3.406 0 0 0-3.403 3.402c0 1.002.428 2.312 1.09 3.337.696 1.078 1.54 1.696 2.313 1.696s1.616-.618 2.312-1.696c.663-1.025 1.09-2.335 1.09-3.337a3.406 3.406 0 0 0-3.402-3.402"/><path fill="#DBE2E6" d="M7.585 12.896a3.043 3.043 0 1 1 0-6.086q.44 0 .863.124a.703.703 0 1 1-.392 1.35 1.7 1.7 0 0 0-.471-.068 1.637 1.637 0 1 0 0 3.274 1.6 1.6 0 0 0 .334-.035.704.704 0 0 1 .287 1.377 3 3 0 0 1-.621.064"/><path fill="#DBE2E6" d="M18.137 10.858a.703.703 0 0 1-.703-.703c0-3.584-2.575-6.499-5.743-6.499s-5.743 2.915-5.743 6.499a.703.703 0 1 1-1.406 0c0-4.359 3.207-7.905 7.149-7.905s7.149 3.546 7.149 7.905a.703.703 0 0 1-.703.703"/><path fill="#DBE2E6" d="M15.797 12.896a3 3 0 0 1-.546-.05h-2.405a.703.703 0 0 1 0-1.406h2.473q.074 0 .145.015.165.035.333.034a1.636 1.636 0 1 0 0-3.273q-.24.001-.469.068a.703.703 0 0 1-.392-1.35c.28-.082.57-.124.86-.124a3.043 3.043 0 1 1 0 6.086M17.987 21.094H5.395a.7.7 0 0 1-.697-.612L4.5 18.968a3.23 3.23 0 0 1 1.798-3.328l3.164-1.53a.702.702 0 1 1 .612 1.265l-3.162 1.529a1.82 1.82 0 0 0-1.017 1.88l.118.901h11.356l.118-.9a1.82 1.82 0 0 0-1.017-1.881l-3.162-1.529a.703.703 0 1 1 .61-1.266l3.162 1.529a3.23 3.23 0 0 1 1.799 3.328l-.197 1.514a.7.7 0 0 1-.695.614"/></svg>