<svg xmlns="http://www.w3.org/2000/svg" width="24" height="24" fill="none"><path fill="#DBE2E6" d="M10.536 16.668a.703.703 0 0 1-.497-1.2l3.844-3.843a.703.703 0 0 1 .994.994l-3.843 3.844a.7.7 0 0 1-.498.205"/><path fill="#DBE2E6" d="M14.381 16.668a.7.7 0 0 1-.497-.206L10.04 12.62a.703.703 0 1 1 .994-.994l3.843 3.844a.703.703 0 0 1-.497 1.2z"/><path fill="#DBE2E6" d="M19.044 21.094H5.874a.703.703 0 0 1-.703-.703V7.695a.703.703 0 0 1 .703-.703h13.172a.703.703 0 0 1 .703.703v12.696a.7.7 0 0 1-.705.703M6.577 19.687h11.766V8.399H6.577z"/><path fill="#DBE2E6" d="M14.906 10.232a.703.703 0 0 1-.703-.703V5.324a1.669 1.669 0 1 0-3.335 0V9.53a.703.703 0 1 1-1.406 0V5.324a3.074 3.074 0 1 1 6.148 0V9.53a.703.703 0 0 1-.704.703"/></svg>