<svg xmlns="http://www.w3.org/2000/svg" width="24" height="24" fill="none"><path fill="#DBE2E6" d="M9.013 11.37a2.736 2.736 0 1 1 0-5.472 2.736 2.736 0 0 1 0 5.472m0-4.066a1.33 1.33 0 1 0 0 2.66 1.33 1.33 0 0 0 0-2.66M15.09 17.446a2.736 2.736 0 1 1 0-5.472 2.736 2.736 0 0 1 0 5.472m0-4.066a1.33 1.33 0 1 0 0 2.66 1.33 1.33 0 0 0 0-2.66M9.29 16.464a.703.703 0 0 1-.583-1.096l5.522-8.179a.703.703 0 0 1 1.166.787l-5.523 8.179a.7.7 0 0 1-.583.309"/><path fill="#DBE2E6" d="M12.051 21.094c-5.195 0-9.422-4.227-9.422-9.422S6.856 2.25 12.051 2.25s9.422 4.227 9.422 9.422-4.227 9.422-9.422 9.422m0-17.438c-4.42 0-8.016 3.596-8.016 8.016s3.596 8.015 8.016 8.015 8.016-3.595 8.016-8.015-3.596-8.016-8.016-8.016"/></svg>