<svg xmlns="http://www.w3.org/2000/svg" width="24" height="24" fill="none"><path fill="#DBE2E6" d="M10.291 18.368c-4.275 0-7.754-3.478-7.754-7.754S6.016 2.86 10.291 2.86c4.276 0 7.756 3.48 7.756 7.755s-3.48 7.754-7.756 7.754m0-14.101a6.354 6.354 0 0 0-6.347 6.347c0 3.5 2.847 6.348 6.347 6.348s6.35-2.847 6.35-6.348-2.85-6.348-6.35-6.348"/><path fill="#DBE2E6" d="M10.291 15.974a5.36 5.36 0 1 1 5.36-5.36 5.366 5.366 0 0 1-5.36 5.36m0-9.313a3.953 3.953 0 1 0 .001 7.907 3.953 3.953 0 0 0 0-7.907"/><path fill="#DBE2E6" d="M13.628 18.368H10.29a.703.703 0 1 1 0-1.406h3.337c3.5 0 6.347-2.847 6.347-6.348s-2.847-6.348-6.347-6.348H10.29a.703.703 0 1 1 0-1.407h3.337c4.275 0 7.753 3.479 7.753 7.754 0 4.276-3.478 7.755-7.753 7.755"/><path fill="#DBE2E6" d="M19.505 7.422H16.17a.703.703 0 0 1 0-1.406h3.336a.703.703 0 0 1 0 1.406M19.067 15.804H15.73a.703.703 0 0 1 0-1.406h3.336a.703.703 0 0 1 0 1.406M20.474 13.01h-3.337a.703.703 0 1 1 0-1.406h3.337a.703.703 0 1 1 0 1.406M20.592 10.219h-3.336a.703.703 0 0 1 0-1.406h3.336a.703.703 0 0 1 0 1.406M10.316 13.536a.703.703 0 0 1-.703-.703v-2.34l-.2.235a.705.705 0 0 1-1.07-.916L9.78 8.135a.703.703 0 0 1 1.237.458v4.24a.703.703 0 0 1-.701.703"/></svg>