<svg xmlns="http://www.w3.org/2000/svg" width="24" height="24" fill="none"><path fill="#DBE2E6" d="M19.073 21.094a.7.7 0 0 1-.32-.077l-2.118-1.078-1.573 1.04a.7.7 0 0 1-.776 0l-1.527-1.01-1.527 1.01a.7.7 0 0 1-.776 0l-1.574-1.04-2.121 1.08a.703.703 0 0 1-1.022-.628V2.953a.703.703 0 0 1 1.022-.626l2.12 1.078 1.572-1.038a.7.7 0 0 1 .776 0l1.527 1.008 1.527-1.008a.7.7 0 0 1 .775 0l1.575 1.04 2.12-1.08a.703.703 0 0 1 1.023.626v17.438a.703.703 0 0 1-.703.703M8.928 18.422c.138 0 .273.04.388.116l1.528 1.009 1.527-1.01a.7.7 0 0 1 .775 0l1.526 1.01 1.527-1.01a.7.7 0 0 1 .707-.04l1.462.745V4.102l-1.463.745a.7.7 0 0 1-.707-.04l-1.526-1.01-1.528 1.009a.7.7 0 0 1-.776 0l-1.527-1.01-1.527 1.01a.7.7 0 0 1-.707.04l-1.462-.744v15.14l1.464-.746q.15-.075.319-.074"/><path fill="#DBE2E6" d="M16.453 7.757H9.06a.703.703 0 0 1 0-1.406h7.393a.703.703 0 0 1 0 1.406M16.453 10.541H9.06a.703.703 0 1 1 0-1.406h7.393a.703.703 0 0 1 0 1.406M16.453 16.36h-3.297a.703.703 0 0 1 0-1.407h3.297a.703.703 0 0 1 0 1.406"/></svg>