<svg width="24" height="24" viewBox="0 0 24 24" fill="none" xmlns="http://www.w3.org/2000/svg">
<path d="M20.678 7.80562H3.24048C3.054 7.80562 2.87516 7.73154 2.74329 7.59968C2.61143 7.46782 2.53735 7.28897 2.53735 7.10249C2.53735 6.91601 2.61143 6.73717 2.74329 6.60531C2.87516 6.47345 3.054 6.39937 3.24048 6.39937H20.678C20.8645 6.39937 21.0433 6.47345 21.1752 6.60531C21.307 6.73717 21.3811 6.91601 21.3811 7.10249C21.3811 7.28897 21.307 7.46782 21.1752 7.59968C21.0433 7.73154 20.8645 7.80562 20.678 7.80562Z" fill="currentColor"/>
<path d="M20.678 13.1119H3.24048C3.054 13.1119 2.87516 13.0378 2.74329 12.9059C2.61143 12.7741 2.53735 12.5952 2.53735 12.4087C2.53735 12.2223 2.61143 12.0434 2.74329 11.9116C2.87516 11.7797 3.054 11.7056 3.24048 11.7056H20.678C20.8645 11.7056 21.0433 11.7797 21.1752 11.9116C21.307 12.0434 21.3811 12.2223 21.3811 12.4087C21.3811 12.5952 21.307 12.7741 21.1752 12.9059C21.0433 13.0378 20.8645 13.1119 20.678 13.1119Z" fill="currentColor"/>
<path d="M20.678 18.4181H3.24048C3.054 18.4181 2.87516 18.344 2.74329 18.2122C2.61143 18.0803 2.53735 17.9015 2.53735 17.715C2.53735 17.5285 2.61143 17.3497 2.74329 17.2178C2.87516 17.0859 3.054 17.0119 3.24048 17.0119H20.678C20.8645 17.0119 21.0433 17.0859 21.1752 17.2178C21.307 17.3497 21.3811 17.5285 21.3811 17.715C21.3811 17.9015 21.307 18.0803 21.1752 18.2122C21.0433 18.344 20.8645 18.4181 20.678 18.4181Z" fill="currentColor"/>
</svg>
