<svg xmlns="http://www.w3.org/2000/svg" width="24" height="24" fill="none"><path fill="#DBE2E6" d="M13.394 21.094h-8.77a2.05 2.05 0 0 1-2.046-2.049V7.482a2.05 2.05 0 0 1 2.049-2.048h5.751c.187 0 .365.074.497.206l4.36 4.363a.7.7 0 0 1 .206.498v8.544a2.05 2.05 0 0 1-2.047 2.049M4.624 6.84a.643.643 0 0 0-.64.642v11.563a.643.643 0 0 0 .64.642h8.77a.643.643 0 0 0 .642-.642v-8.253L10.085 6.84z"/><path fill="#DBE2E6" d="M16.535 17.953h-1.796a.703.703 0 0 1 0-1.406h1.796a.643.643 0 0 0 .642-.642V4.342a.643.643 0 0 0-.642-.643h-8.77a.643.643 0 0 0-.64.643v1.795a.703.703 0 0 1-1.406 0V4.342a2.05 2.05 0 0 1 2.048-2.049h8.768a2.05 2.05 0 0 1 2.048 2.049v11.563a2.05 2.05 0 0 1-2.048 2.048"/><path fill="#DBE2E6" d="M14.74 11.203H11.72a2.05 2.05 0 0 1-2.048-2.048V6.137a.703.703 0 0 1 1.406 0v3.018a.643.643 0 0 0 .642.642h3.018a.703.703 0 0 1 0 1.407"/></svg>