<svg xmlns="http://www.w3.org/2000/svg" width="24" height="24" fill="none"><path fill="#DBE2E6" d="M17.14 21.094H6.41a2.35 2.35 0 0 1-2.349-2.35V4.6a2.35 2.35 0 0 1 2.35-2.349h7.035c.186 0 .365.074.497.206l5.338 5.338a.7.7 0 0 1 .206.497v10.453a2.35 2.35 0 0 1-2.349 2.35M6.41 3.656a.944.944 0 0 0-.942.943v14.146a.943.943 0 0 0 .942.942H17.14a.943.943 0 0 0 .943-.942V8.582l-4.927-4.926z"/><path fill="#DBE2E6" d="M18.785 8.994h-3.691a2.35 2.35 0 0 1-2.35-2.349V2.953a.703.703 0 0 1 1.407 0v3.692a.944.944 0 0 0 .943.943h3.692a.703.703 0 1 1 0 1.406M14.54 17.813H9.01a.703.703 0 0 1-.704-.704v-4.03a.703.703 0 0 1 .704-.704h5.53a.703.703 0 0 1 .704.703v4.031a.703.703 0 0 1-.703.703m-4.827-1.407h4.125v-2.625H9.713z"/><path fill="#DBE2E6" d="M13.908 13.781H9.642a.703.703 0 0 1-.703-.703v-1.43a2.836 2.836 0 0 1 5.672 0v1.43a.703.703 0 0 1-.703.703m-3.563-1.406h2.86v-.727a1.43 1.43 0 0 0-2.86 0z"/></svg>