<svg xmlns="http://www.w3.org/2000/svg" width="24" height="24" fill="none"><path fill="#DBE2E6" d="M17.672 21.094H6.942a2.35 2.35 0 0 1-2.348-2.35V4.6A2.35 2.35 0 0 1 6.942 2.25h7.036a.7.7 0 0 1 .498.206l5.338 5.338a.7.7 0 0 1 .205.497v10.453a2.35 2.35 0 0 1-2.347 2.35M6.942 3.656A.944.944 0 0 0 6 4.6v14.146a.944.944 0 0 0 .942.942h10.73a.943.943 0 0 0 .942-.942V8.582l-4.927-4.926z"/><path fill="#DBE2E6" d="M19.316 8.994h-3.692a2.35 2.35 0 0 1-2.35-2.349V2.953a.703.703 0 0 1 1.407 0v3.692a.944.944 0 0 0 .943.943h3.692a.703.703 0 0 1 0 1.406M9.73 16.875a.703.703 0 0 1-.496-1.2l5.151-5.152a.705.705 0 0 1 1.147.229.7.7 0 0 1-.153.766l-5.15 5.151a.7.7 0 0 1-.498.206"/><path fill="#DBE2E6" d="M14.882 16.875a.7.7 0 0 1-.497-.206l-5.15-5.15a.703.703 0 0 1 .993-.996l5.151 5.152a.704.704 0 0 1-.497 1.2"/></svg>