<svg xmlns="http://www.w3.org/2000/svg" width="24" height="24" fill="none"><path fill="#DBE2E6" d="M17.41 21.094H6.683a2.35 2.35 0 0 1-2.349-2.35V4.6a2.35 2.35 0 0 1 2.35-2.349h7.035a.7.7 0 0 1 .498.206l5.338 5.338a.7.7 0 0 1 .206.497v10.453a2.35 2.35 0 0 1-2.35 2.35M6.683 3.656a.944.944 0 0 0-.942.943v14.146a.943.943 0 0 0 .942.942h10.729a.943.943 0 0 0 .942-.942V8.582l-4.926-4.926z"/><path fill="#DBE2E6" d="M19.056 8.994h-3.692a2.35 2.35 0 0 1-2.349-2.349V2.953a.703.703 0 0 1 1.406 0v3.692a.943.943 0 0 0 .943.943h3.692a.703.703 0 1 1 0 1.406M8.43 12.24c.855 0 1.526.398 1.526 1.465v1.608c0 1.066-.67 1.464-1.527 1.464H7.331c-.254 0-.422-.137-.422-.292v-3.952c0-.156.168-.292.422-.292zm-.553.845v2.848h.552c.348 0 .559-.198.559-.62v-1.608c0-.422-.211-.62-.559-.62zM10.52 15.35v-1.645c0-1.067.664-1.464 1.52-1.464s1.527.397 1.527 1.464v1.645c0 1.067-.67 1.464-1.527 1.464s-1.52-.397-1.52-1.464m2.079-1.645c0-.428-.211-.62-.559-.62s-.552.192-.552.62v1.645c0 .428.205.62.552.62s.559-.192.559-.62zM15.664 13.085c-.354 0-.559.198-.559.62v1.645c0 .422.205.62.565.62.497 0 .528-.378.546-.62.019-.23.23-.292.478-.292.335 0 .49.087.49.459 0 .826-.67 1.297-1.557 1.297-.813 0-1.49-.397-1.49-1.464v-1.645c0-1.067.677-1.464 1.49-1.464.887 0 1.557.447 1.557 1.235 0 .372-.155.459-.484.459-.26 0-.471-.068-.484-.292-.006-.16-.024-.558-.552-.558"/></svg>