<svg xmlns="http://www.w3.org/2000/svg" width="24" height="24" fill="none"><path fill="#DBE2E6" d="M18.442 21.094H7.714a2.35 2.35 0 0 1-2.35-2.35V4.6a2.35 2.35 0 0 1 2.35-2.349h7.036a.7.7 0 0 1 .497.206l5.338 5.338a.7.7 0 0 1 .206.497v10.453a2.35 2.35 0 0 1-2.35 2.35M7.714 3.656a.944.944 0 0 0-.943.943v14.146a.943.943 0 0 0 .943.942h10.728a.943.943 0 0 0 .943-.942V8.582l-4.927-4.926z"/><path fill="#DBE2E6" d="M20.088 8.994h-3.693a2.35 2.35 0 0 1-2.349-2.349V2.953a.703.703 0 0 1 1.407 0v3.692a.944.944 0 0 0 .942.943h3.693a.703.703 0 1 1 0 1.406M8.902 16.38a.3.3 0 0 1 .013-.068l1.154-3.786c.068-.217.347-.322.632-.322s.563.105.633.322l1.16 3.787q.01.033.013.068c0 .23-.353.396-.62.396-.156 0-.282-.046-.317-.179l-.211-.776h-1.31l-.21.776c-.037.13-.161.18-.317.18-.266-.001-.62-.169-.62-.398m2.254-1.303-.453-1.663-.453 1.663zM12.333 12.706a.3.3 0 0 1-.012-.068c0-.23.354-.397.62-.397.155 0 .282.05.317.18l.869 3.183.862-3.182c.037-.13.161-.18.317-.18.266 0 .62.168.62.397a.3.3 0 0 1-.012.068l-1.155 3.785c-.068.217-.347.323-.632.323s-.565-.106-.633-.323zM16.286 12.533c0-.205.241-.292.484-.292.242 0 .484.087.484.292v3.946c0 .199-.242.298-.484.298s-.484-.1-.484-.298z"/></svg>