<svg xmlns="http://www.w3.org/2000/svg" width="24" height="24" fill="none"><path fill="#DBE2E6" d="M17.41 21.094H6.683a2.35 2.35 0 0 1-2.349-2.35V4.6a2.35 2.35 0 0 1 2.35-2.349h7.035a.7.7 0 0 1 .498.206l5.338 5.338a.7.7 0 0 1 .206.497v10.453a2.35 2.35 0 0 1-2.35 2.35M6.683 3.656a.944.944 0 0 0-.942.943v14.146a.943.943 0 0 0 .942.942h10.729a.943.943 0 0 0 .942-.942V8.582l-4.926-4.926z"/><path fill="#DBE2E6" d="M19.056 8.994h-3.692a2.35 2.35 0 0 1-2.349-2.349V2.953a.703.703 0 0 1 1.406 0v3.692a.943.943 0 0 0 .943.943h3.692a.703.703 0 1 1 0 1.406M7.105 12.533c0-.156.14-.292.36-.292h1.284c.819 0 1.464.385 1.464 1.427v.031c0 1.043-.67 1.44-1.526 1.44h-.614v1.34c0 .199-.243.298-.485.298-.241 0-.483-.1-.483-.298zm.968.552v1.309h.614c.347 0 .558-.198.558-.62v-.069c0-.422-.21-.62-.558-.62zM12.496 15.563c0-.75-1.968-.621-1.968-2.073 0-.93.813-1.284 1.588-1.284.328 0 1.235.062 1.235.546 0 .167-.112.508-.385.508-.223 0-.341-.234-.85-.234-.44 0-.62.18-.62.372 0 .62 1.968.503 1.968 2.066 0 .894-.651 1.378-1.55 1.378-.813 0-1.496-.397-1.496-.806 0-.212.188-.522.422-.522.291 0 .478.46 1.055.46.285-.004.601-.116.601-.412M15.462 12.24c.857 0 1.527.398 1.527 1.465v1.608c0 1.066-.67 1.464-1.527 1.464h-1.098c-.254 0-.422-.137-.422-.292v-3.952c0-.156.168-.292.422-.292zm-.552.845v2.848h.552c.348 0 .559-.198.559-.62v-1.608c0-.422-.211-.62-.559-.62z"/></svg>