<svg xmlns="http://www.w3.org/2000/svg" width="24" height="24" fill="none"><path fill="#DBE2E6" d="M18.442 21.094H7.714a2.35 2.35 0 0 1-2.35-2.35V4.6a2.35 2.35 0 0 1 2.35-2.349h7.036a.7.7 0 0 1 .497.206l5.338 5.338a.7.7 0 0 1 .206.497v10.453a2.35 2.35 0 0 1-2.35 2.35M7.714 3.656a.944.944 0 0 0-.943.943v14.146a.943.943 0 0 0 .943.942h10.728a.943.943 0 0 0 .943-.942V8.582l-4.927-4.926z"/><path fill="#DBE2E6" d="M20.088 8.994h-3.693a2.35 2.35 0 0 1-2.349-2.349V2.953a.703.703 0 0 1 1.407 0v3.692a.944.944 0 0 0 .942.943h3.693a.703.703 0 1 1 0 1.406M9.768 13.085c-.354 0-.559.198-.559.62v1.645c0 .422.205.62.563.62.496 0 .527-.378.546-.62.019-.23.23-.292.478-.292.335 0 .49.087.49.459 0 .826-.67 1.297-1.557 1.297-.814 0-1.49-.397-1.49-1.464v-1.645c0-1.067.676-1.464 1.49-1.464.887 0 1.557.447 1.557 1.235 0 .372-.155.459-.484.459-.26 0-.471-.068-.484-.292-.006-.16-.023-.558-.55-.558M13.64 15.563c0-.75-1.968-.621-1.968-2.073 0-.93.813-1.284 1.588-1.284.328 0 1.235.062 1.235.546 0 .167-.112.508-.385.508-.223 0-.341-.234-.85-.234-.44 0-.62.18-.62.372 0 .62 1.968.503 1.968 2.066 0 .894-.652 1.378-1.552 1.378-.812 0-1.495-.397-1.495-.806 0-.212.188-.522.422-.522.292 0 .478.46 1.055.46.285-.004.602-.116.602-.412M16.947 15.563c0-.75-1.97-.621-1.97-2.073 0-.93.814-1.284 1.589-1.284.328 0 1.235.062 1.235.546 0 .167-.112.508-.385.508-.223 0-.341-.234-.85-.234-.44 0-.62.18-.62.372 0 .62 1.969.503 1.969 2.066 0 .894-.652 1.378-1.552 1.378-.813 0-1.495-.397-1.495-.806 0-.212.187-.522.422-.522.292 0 .478.46 1.055.46.285-.004.602-.116.602-.412"/></svg>