<svg xmlns="http://www.w3.org/2000/svg" width="24" height="24" fill="none"><path fill="#DBE2E6" d="M17.88 21.094H7.15a2.35 2.35 0 0 1-2.349-2.35V4.6a2.35 2.35 0 0 1 2.35-2.349h7.035a.7.7 0 0 1 .497.206l5.339 5.338a.7.7 0 0 1 .205.497v10.453a2.35 2.35 0 0 1-2.349 2.35M7.15 3.656a.944.944 0 0 0-.942.943v14.146a.943.943 0 0 0 .942.942H17.88a.943.943 0 0 0 .943-.942V8.582l-4.926-4.926z"/><path fill="#DBE2E6" d="M19.525 8.994h-3.692a2.35 2.35 0 0 1-2.35-2.349V2.953a.703.703 0 0 1 1.407 0v3.692a.944.944 0 0 0 .943.943h3.692a.703.703 0 1 1 0 1.406M9.575 15.933h1.687c.188 0 .292.223.292.422s-.106.422-.292.422H8.62c-.199 0-.281-.106-.281-.255a.7.7 0 0 1 .105-.34l1.75-3.097H8.755c-.187 0-.291-.199-.291-.422 0-.205.086-.422.291-.422h2.396c.187 0 .28.105.28.255a.74.74 0 0 1-.105.34zM11.945 12.533c0-.205.242-.292.483-.292.242 0 .484.087.484.292v3.946c0 .199-.241.298-.484.298-.242 0-.483-.1-.483-.298zM13.583 12.533c0-.156.143-.292.36-.292h1.284c.819 0 1.464.385 1.464 1.427v.031c0 1.043-.67 1.44-1.526 1.44h-.614v1.34c0 .199-.242.298-.484.298s-.485-.1-.485-.298zm.967.552v1.309h.615c.347 0 .558-.198.558-.62v-.069c0-.422-.21-.62-.558-.62z"/></svg>