<svg xmlns="http://www.w3.org/2000/svg" width="24" height="24" fill="none"><path fill="#DBE2E6" d="M17.317 21.094H6.589a2.35 2.35 0 0 1-2.35-2.35V4.6A2.35 2.35 0 0 1 6.59 2.25h7.036a.7.7 0 0 1 .497.206l5.338 5.338a.7.7 0 0 1 .206.497v10.453a2.35 2.35 0 0 1-2.35 2.35M6.589 3.656a.944.944 0 0 0-.943.943v14.146a.943.943 0 0 0 .943.942h10.728a.943.943 0 0 0 .943-.942V8.582l-4.927-4.926z"/><path fill="#DBE2E6" d="M18.963 8.994H15.27a2.35 2.35 0 0 1-2.349-2.349V2.953a.703.703 0 0 1 1.407 0v3.692a.944.944 0 0 0 .942.943h3.693a.703.703 0 1 1 0 1.406M8.664 15.17a.36.36 0 0 1-.322.18.32.32 0 0 1-.304-.18l-.59-1.078v2.39c0 .199-.241.298-.484.298-.242 0-.484-.1-.484-.298v-3.757c0-.354.242-.484.484-.484.348 0 .497.037.75.484l.64 1.117.639-1.117c.254-.447.403-.484.75-.484.247 0 .483.13.483.484v3.754c0 .199-.242.298-.484.298-.241 0-.484-.1-.484-.298v-2.327zM10.898 12.533c0-.156.14-.292.36-.292h1.284c.82 0 1.465.385 1.465 1.427v.031c0 1.043-.67 1.44-1.527 1.44h-.614v1.34c0 .199-.242.298-.484.298s-.484-.1-.484-.298zm.968.552v1.309h.614c.348 0 .559-.198.559-.62v-.069c0-.422-.211-.62-.559-.62zM15.905 13.085c-.353 0-.558.198-.558.62v1.645c0 .422.205.62.552.62s.559-.198.559-.62v-.21h-.367c-.187 0-.291-.18-.291-.372 0-.18.105-.372.291-.372h1.043c.187 0 .291.143.291.304v.652c0 1.067-.67 1.464-1.526 1.464s-1.52-.397-1.52-1.464v-1.647c0-1.067.676-1.464 1.49-1.464.887 0 1.556.447 1.556 1.235 0 .372-.154.459-.483.459-.261 0-.478-.068-.484-.292s-.025-.558-.553-.558"/></svg>