<svg xmlns="http://www.w3.org/2000/svg" width="24" height="24" fill="none"><path fill="#DBE2E6" d="M17.664 21.094H6.938a2.35 2.35 0 0 1-2.35-2.35V4.6a2.35 2.35 0 0 1 2.35-2.349h7.036a.7.7 0 0 1 .497.206l5.336 5.338a.7.7 0 0 1 .206.497v10.453a2.35 2.35 0 0 1-2.35 2.35M6.938 3.656a.944.944 0 0 0-.943.943v14.146a.943.943 0 0 0 .943.942h10.726a.943.943 0 0 0 .943-.942V8.582L13.68 3.656z"/><path fill="#DBE2E6" d="M19.31 8.994h-3.692a2.35 2.35 0 0 1-2.35-2.349V2.953a.703.703 0 1 1 1.407 0v3.692a.944.944 0 0 0 .942.943h3.693a.703.703 0 1 1 0 1.406M11.83 16.775a3.61 3.61 0 1 1 .003-7.218 3.61 3.61 0 0 1-.003 7.218m0-5.81a2.203 2.203 0 1 0 .003 4.407 2.203 2.203 0 0 0-.003-4.406"/><path fill="#DBE2E6" d="M15.676 17.716a.7.7 0 0 1-.498-.206l-1.79-1.79a.703.703 0 0 1 .995-.995l1.789 1.79a.702.702 0 0 1-.497 1.2"/></svg>