<svg xmlns="http://www.w3.org/2000/svg" width="24" height="24" fill="none"><path fill="#DBE2E6" d="M11.96 18.072a.7.7 0 0 1-.523-.234l-6.578-7.294a.703.703 0 0 1 .523-1.172h2.634V2.953a.703.703 0 0 1 .703-.703h6.483a.703.703 0 0 1 .703.703V9.37h2.632a.703.703 0 0 1 .522 1.172l-6.578 7.298a.7.7 0 0 1-.522.232m-4.998-7.296 4.997 5.543 4.997-5.543h-1.755a.703.703 0 0 1-.703-.703V3.656H9.422v6.417a.703.703 0 0 1-.703.703z"/><path fill="#DBE2E6" d="M18.32 21.094H5.599a3.064 3.064 0 0 1-3.06-3.06v-1.79a.703.703 0 1 1 1.406 0v1.79a1.657 1.657 0 0 0 1.654 1.654h12.723a1.656 1.656 0 0 0 1.654-1.655v-1.789a.703.703 0 1 1 1.406 0v1.79a3.064 3.064 0 0 1-3.06 3.06"/></svg>