<svg xmlns="http://www.w3.org/2000/svg" width="24" height="24" fill="none"><path fill="#DBE2E6" d="M18.37 21.094H7.64a2.35 2.35 0 0 1-2.348-2.35V4.6A2.35 2.35 0 0 1 7.64 2.25h7.036a.7.7 0 0 1 .497.206l5.339 5.338a.7.7 0 0 1 .206.497v10.453a2.35 2.35 0 0 1-2.35 2.35M7.64 3.656a.944.944 0 0 0-.942.943v14.146a.943.943 0 0 0 .943.942H18.37a.943.943 0 0 0 .942-.942V8.582l-4.926-4.926z"/><path fill="#DBE2E6" d="M20.016 8.994h-3.693a2.35 2.35 0 0 1-2.349-2.349V2.953a.703.703 0 1 1 1.407 0v3.692a.944.944 0 0 0 .942.943h3.693a.703.703 0 1 1 0 1.406"/></svg>