<svg xmlns="http://www.w3.org/2000/svg" width="24" height="24" fill="none"><path fill="#DBE2E6" d="M12.08 21.094c-5.194 0-9.422-4.226-9.422-9.422S6.884 2.25 12.08 2.25s9.422 4.226 9.422 9.422c0 5.195-4.227 9.422-9.422 9.422m0-17.435c-4.419 0-8.016 3.595-8.016 8.016S7.66 19.69 12.08 19.69s8.016-3.595 8.016-8.015S16.5 3.659 12.08 3.659"/><path fill="#DBE2E6" d="M12.08 17.709a3.375 3.375 0 0 1-3.369-3.37.703.703 0 0 1 1.406 0 1.964 1.964 0 1 0 1.963-1.964 3.37 3.37 0 1 1 3.37-3.37.703.703 0 1 1-1.407 0 1.963 1.963 0 1 0-1.963 1.964 3.37 3.37 0 1 1 0 6.739"/><path fill="#DBE2E6" d="M12.08 18.989a.703.703 0 0 1-.703-.704V5.063a.703.703 0 1 1 1.406 0v13.223a.704.704 0 0 1-.703.703"/></svg>