<svg xmlns="http://www.w3.org/2000/svg" width="24" height="24" fill="none"><path fill="#DBE2E6" d="M16.758 15.094h-2.613a.703.703 0 1 1 0-1.406h2.613a3.287 3.287 0 0 0 0-6.575q-.131 0-.288.014a.7.7 0 0 1-.668-.348 4.602 4.602 0 0 0-8.516 1.528.7.7 0 0 1-.72.585h-.049a2.399 2.399 0 1 0-.001 4.796h3.502a.703.703 0 0 1 0 1.406H6.516a3.805 3.805 0 0 1-.495-7.578 6.008 6.008 0 0 1 10.765-1.809 4.694 4.694 0 0 1-.028 9.387"/><path fill="#DBE2E6" d="M14.34 12.474a.7.7 0 0 1-.497-.206l-1.762-1.761-1.76 1.761a.703.703 0 0 1-.993-.994l2.258-2.259a.703.703 0 0 1 .995 0l2.258 2.259a.703.703 0 0 1-.497 1.2z"/><path fill="#DBE2E6" d="M12.082 17.939a.703.703 0 0 1-.704-.704V9.513a.703.703 0 0 1 1.407 0v7.722a.703.703 0 0 1-.703.704"/></svg>