<svg xmlns="http://www.w3.org/2000/svg" width="24" height="24" fill="none"><path fill="#DBE2E6" d="M18.922 8.81q-.216 0-.43-.03c-.838-.112-1.663-.538-2.323-1.197-.66-.66-1.085-1.485-1.198-2.325-.12-.896.137-1.737.708-2.308s1.413-.83 2.309-.708c.839.113 1.664.538 2.324 1.198s1.085 1.485 1.198 2.323c.12.897-.138 1.738-.708 2.31-.479.477-1.148.737-1.88.737m-1.759-2.222c.437.437.99.728 1.518.797.464.063.864-.047 1.125-.31.26-.261.371-.661.308-1.124-.07-.528-.361-1.081-.796-1.518-.85-.848-2.06-1.073-2.645-.489-.584.584-.36 1.795.49 2.644M8.876 18.855q-.215 0-.429-.03c-.839-.112-1.664-.537-2.324-1.197s-1.085-1.485-1.198-2.324c-.12-.896.138-1.738.708-2.309a.703.703 0 0 1 .995.995c-.262.261-.372.662-.31 1.125.072.528.363 1.08.797 1.517.854.852 2.063 1.075 2.647.491a.703.703 0 1 1 .994.995c-.479.478-1.147.737-1.88.737"/><path fill="#DBE2E6" d="M3.36 21.094a.702.702 0 0 1-.686-.856c.012-.055.303-1.36.707-2.798.757-2.7 1.214-3.407 1.528-3.72l10.77-10.77a.702.702 0 1 1 .994.994l-10.77 10.77c-.042.043-.434.49-1.169 3.106a53 53 0 0 0-.426 1.624 53 53 0 0 0 1.629-.429c2.612-.733 3.058-1.125 3.1-1.167l10.77-10.77a.703.703 0 1 1 .995.994l-10.77 10.772c-.314.313-1.02.77-3.72 1.528-1.438.404-2.744.694-2.8.706a.7.7 0 0 1-.152.016"/><path fill="#DBE2E6" d="M18.358 6.331a.7.7 0 0 1-.498-.206l-.234-.234a.703.703 0 0 1 .994-.994l.234.234a.703.703 0 0 1-.496 1.2"/></svg>