<svg xmlns="http://www.w3.org/2000/svg" width="24" height="24" fill="none"><path fill="#DBE2E6" d="M17.355 19.95a.7.7 0 0 1-.328-.081l-4.98-2.619-4.981 2.619a.703.703 0 0 1-1.02-.741l.952-5.546-4.03-3.929a.703.703 0 0 1 .389-1.2l5.569-.808 2.49-5.047a.703.703 0 0 1 1.261 0l2.49 5.047 5.57.809a.703.703 0 0 1 .39 1.2l-4.032 3.928.952 5.546a.704.704 0 0 1-.693.822zM4.969 9.64l3.274 3.192a.7.7 0 0 1 .202.621l-.772 4.507 4.046-2.127a.7.7 0 0 1 .656 0l4.047 2.128-.774-4.508a.7.7 0 0 1 .202-.622l3.275-3.19-4.525-.656a.7.7 0 0 1-.53-.385l-2.023-4.1-2.024 4.1a.7.7 0 0 1-.53.385z"/></svg>