<svg xmlns="http://www.w3.org/2000/svg" width="24" height="24" fill="none"><path fill="#DBE2E6" d="M16.942 21.094H6.214a2.35 2.35 0 0 1-2.35-2.35V4.6a2.35 2.35 0 0 1 2.35-2.349h7.036a.7.7 0 0 1 .497.206l5.338 5.338a.7.7 0 0 1 .206.497v10.453a2.35 2.35 0 0 1-2.35 2.35M6.214 3.656a.944.944 0 0 0-.943.943v14.146a.943.943 0 0 0 .943.942h10.728a.943.943 0 0 0 .943-.942V8.582l-4.927-4.926z"/><path fill="#DBE2E6" d="M18.588 8.994h-3.693a2.35 2.35 0 0 1-2.349-2.349V2.953a.703.703 0 0 1 1.407 0v3.692a.944.944 0 0 0 .942.943h3.693a.703.703 0 1 1 0 1.406M8.569 15.563c0-.75-1.97-.621-1.97-2.073 0-.93.814-1.284 1.59-1.284.327 0 1.234.062 1.234.546 0 .167-.112.508-.385.508-.223 0-.34-.234-.85-.234-.44 0-.62.18-.62.372 0 .62 1.969.503 1.969 2.066 0 .894-.652 1.378-1.551 1.378-.813 0-1.496-.397-1.496-.806 0-.212.188-.522.422-.522.292 0 .478.46 1.055.46.285-.004.602-.116.602-.412M9.717 12.706a.3.3 0 0 1-.013-.068c0-.23.354-.397.62-.397.156 0 .282.05.317.18l.868 3.183.863-3.182c.037-.13.161-.18.316-.18.267 0 .621.168.621.397a.3.3 0 0 1-.013.068l-1.156 3.785c-.068.217-.347.322-.632.322s-.563-.105-.633-.322zM15.146 13.085c-.354 0-.56.198-.56.62v1.645c0 .422.206.62.553.62s.559-.198.559-.62v-.21h-.366c-.188 0-.292-.18-.292-.372 0-.18.106-.372.292-.372h1.042c.188 0 .292.143.292.304v.652c0 1.067-.67 1.464-1.527 1.464s-1.52-.397-1.52-1.464v-1.647c0-1.067.676-1.464 1.49-1.464.886 0 1.557.447 1.557 1.235 0 .372-.155.459-.484.459-.261 0-.478-.068-.484-.292s-.025-.558-.552-.558"/></svg>