<svg xmlns="http://www.w3.org/2000/svg" width="24" height="24" fill="none"><path fill="#DBE2E6" d="M17.151 21.094H6.421a2.35 2.35 0 0 1-2.348-2.35V4.6A2.35 2.35 0 0 1 6.422 2.25h7.036a.7.7 0 0 1 .497.206l5.34 5.338a.7.7 0 0 1 .205.497v10.453a2.35 2.35 0 0 1-2.349 2.35M6.421 3.656a.944.944 0 0 0-.942.943v14.146a.943.943 0 0 0 .943.942h10.73a.943.943 0 0 0 .942-.942V8.582l-4.926-4.926z"/><path fill="#DBE2E6" d="M18.797 8.994h-3.693a2.35 2.35 0 0 1-2.348-2.349V2.953a.703.703 0 0 1 1.406 0v3.692a.943.943 0 0 0 .942.943h3.693a.703.703 0 0 1 0 1.406M15.537 11.531h-7.5a.703.703 0 1 1 0-1.406h7.5a.704.704 0 0 1 0 1.406M15.537 14.438h-7.5a.703.703 0 0 1 0-1.407h7.5a.703.703 0 0 1 0 1.406M15.537 17.344h-7.5a.703.703 0 0 1 0-1.407h7.5a.703.703 0 0 1 0 1.407"/></svg>