<svg xmlns="http://www.w3.org/2000/svg" width="24" height="24" fill="none"><path fill="#DBE2E6" d="M18.039 21.094H7.313a2.35 2.35 0 0 1-2.35-2.35V4.6a2.35 2.35 0 0 1 2.35-2.349h7.036a.7.7 0 0 1 .497.206l5.336 5.338a.7.7 0 0 1 .206.497v10.453a2.35 2.35 0 0 1-2.35 2.35M7.313 3.656a.944.944 0 0 0-.943.943v14.146a.943.943 0 0 0 .943.942h10.726a.943.943 0 0 0 .943-.942V8.582l-4.926-4.926z"/><path fill="#DBE2E6" d="M19.685 8.994h-3.692a2.35 2.35 0 0 1-2.35-2.349V2.953a.703.703 0 1 1 1.407 0v3.692a.944.944 0 0 0 .942.943h3.693a.703.703 0 1 1 0 1.406M11.953 10.734a.7.7 0 0 1-.429-.145L10.125 9.51l-1.4 1.079a.703.703 0 0 1-1.131-.558V2.953a.703.703 0 0 1 1.406 0v5.65l.696-.535a.7.7 0 0 1 .857 0l.697.535v-5.65a.703.703 0 0 1 1.406 0v7.078a.703.703 0 0 1-.703.703"/></svg>