<svg xmlns="http://www.w3.org/2000/svg" width="24" height="24" fill="none"><path fill="#DBE2E6" d="M17.41 21.094H6.683a2.35 2.35 0 0 1-2.349-2.35V4.6a2.35 2.35 0 0 1 2.35-2.349h7.035a.7.7 0 0 1 .498.206l5.338 5.338a.7.7 0 0 1 .206.497v10.453a2.35 2.35 0 0 1-2.35 2.35M6.683 3.656a.944.944 0 0 0-.942.943v14.146a.943.943 0 0 0 .942.942h10.729a.943.943 0 0 0 .942-.942V8.582l-4.926-4.926z"/><path fill="#DBE2E6" d="M19.056 8.994h-3.692a2.35 2.35 0 0 1-2.349-2.349V2.953a.703.703 0 0 1 1.406 0v3.692a.943.943 0 0 0 .943.943h3.692a.703.703 0 1 1 0 1.406M14.355 18.454a.7.7 0 0 1-.328-.08l-1.98-1.042-1.982 1.043a.703.703 0 0 1-1.018-.743l.375-2.206-1.603-1.563a.703.703 0 0 1 .39-1.2l2.215-.321.99-2.008a.704.704 0 0 1 1.262 0l.99 2.008 2.216.322a.702.702 0 0 1 .39 1.2l-1.6 1.562.375 2.206a.703.703 0 0 1-.693.822zm-2.308-2.62c.114 0 .227.028.328.081l1.048.55-.2-1.166a.7.7 0 0 1 .201-.622l.848-.826-1.171-.17a.7.7 0 0 1-.53-.385l-.524-1.062-.524 1.062a.7.7 0 0 1-.53.385l-1.171.17.847.826a.7.7 0 0 1 .202.622l-.2 1.167 1.048-.551a.7.7 0 0 1 .328-.08"/></svg>