<svg xmlns="http://www.w3.org/2000/svg" width="24" height="24" fill="none"><path fill="#DBE2E6" d="M17.317 21.094H6.589a2.35 2.35 0 0 1-2.35-2.35V4.6A2.35 2.35 0 0 1 6.59 2.25h7.036a.7.7 0 0 1 .497.206l5.338 5.338a.7.7 0 0 1 .206.497v10.453a2.35 2.35 0 0 1-2.35 2.35M6.589 3.656a.944.944 0 0 0-.943.943v14.146a.943.943 0 0 0 .943.942h10.728a.943.943 0 0 0 .943-.942V8.582l-4.927-4.926z"/><path fill="#DBE2E6" d="M18.963 8.994H15.27a2.35 2.35 0 0 1-2.349-2.349V2.953a.703.703 0 0 1 1.407 0v3.692a.944.944 0 0 0 .942.943h3.693a.703.703 0 1 1 0 1.406M9.425 13.085c-.354 0-.56.198-.56.62v1.645c0 .422.206.62.554.62.347 0 .558-.198.558-.62v-.21h-.368c-.187 0-.291-.18-.291-.372 0-.18.105-.372.291-.372h1.043c.187 0 .291.143.291.304v.652c0 1.067-.67 1.464-1.526 1.464s-1.52-.397-1.52-1.464v-1.647c0-1.067.676-1.464 1.489-1.464.887 0 1.557.447 1.557 1.235 0 .372-.155.459-.484.459-.26 0-.478-.068-.484-.292s-.023-.558-.55-.558M11.503 12.533c0-.205.242-.292.484-.292s.484.087.484.292v3.946c0 .199-.242.298-.484.298-.243 0-.484-.1-.484-.298zM13.14 12.54c0-.2.212-.3.423-.3h2.153c.205 0 .292.218.292.417 0 .23-.106.428-.292.428H14.11v1.049h.938c.187 0 .291.18.291.378 0 .167-.086.366-.291.366h-.938v1.6c0 .2-.242.299-.483.299-.242 0-.485-.1-.485-.298z"/></svg>