<svg xmlns="http://www.w3.org/2000/svg" width="24" height="24" fill="none"><path fill="#DBE2E6" d="M18.32 21.094H7.594a2.35 2.35 0 0 1-2.35-2.35V4.6a2.35 2.35 0 0 1 2.35-2.349h7.036a.7.7 0 0 1 .497.206l5.336 5.338a.7.7 0 0 1 .206.497v10.453a2.35 2.35 0 0 1-2.349 2.35M7.594 3.656a.944.944 0 0 0-.943.943v14.146a.943.943 0 0 0 .943.942H18.32a.943.943 0 0 0 .943-.942V8.582l-4.926-4.926z"/><path fill="#DBE2E6" d="M19.966 8.994h-3.692a2.35 2.35 0 0 1-2.35-2.349V2.953a.703.703 0 0 1 1.407 0v3.692a.943.943 0 0 0 .943.943h3.692a.703.703 0 0 1 0 1.406M11.037 16.864a.703.703 0 0 1-.703-.703v-5.514a.702.702 0 0 1 1.055-.61l4.775 2.76a.702.702 0 0 1 0 1.219L11.39 16.77a.7.7 0 0 1-.353.094m.703-4.999v3.078l2.666-1.537z"/></svg>