<svg xmlns="http://www.w3.org/2000/svg" width="24" height="24" fill="none"><path fill="#DBE2E6" d="M17.317 21.094H6.589a2.35 2.35 0 0 1-2.35-2.35V4.6A2.35 2.35 0 0 1 6.59 2.25h7.036a.7.7 0 0 1 .497.206l5.338 5.338a.7.7 0 0 1 .206.497v10.453a2.35 2.35 0 0 1-2.35 2.35M6.589 3.656a.944.944 0 0 0-.943.943v14.146a.943.943 0 0 0 .943.942h10.728a.943.943 0 0 0 .943-.942V8.582l-4.927-4.926z"/><path fill="#DBE2E6" d="M18.963 8.994H15.27a2.35 2.35 0 0 1-2.349-2.349V2.953a.703.703 0 0 1 1.407 0v3.692a.944.944 0 0 0 .942.943h3.693a.703.703 0 1 1 0 1.406M9.487 16.38a.3.3 0 0 1 .012-.068l1.154-3.786c.068-.217.348-.322.633-.322s.563.105.633.322l1.16 3.787a.3.3 0 0 1 .012.068c0 .23-.354.396-.62.396-.156 0-.282-.046-.317-.179l-.211-.776h-1.309l-.21.776c-.038.13-.162.18-.317.18-.267-.001-.62-.169-.62-.398m2.252-1.303-.453-1.663-.453 1.663zM13.453 12.533c0-.205.242-.292.484-.292.243 0 .484.087.484.292v3.946c0 .199-.242.298-.484.298s-.484-.1-.484-.298z"/></svg>