<svg xmlns="http://www.w3.org/2000/svg" width="24" height="24" fill="none"><path fill="#DBE2E6" d="M17.41 21.094H6.683a2.35 2.35 0 0 1-2.349-2.35V4.6a2.35 2.35 0 0 1 2.35-2.349h7.035a.7.7 0 0 1 .498.206l5.338 5.338a.7.7 0 0 1 .206.497v10.453a2.35 2.35 0 0 1-2.35 2.35M6.683 3.656a.944.944 0 0 0-.942.943v14.146a.943.943 0 0 0 .942.942h10.729a.943.943 0 0 0 .942-.942V8.582l-4.926-4.926z"/><path fill="#DBE2E6" d="M19.056 8.994h-3.692a2.35 2.35 0 0 1-2.349-2.349V2.953a.703.703 0 0 1 1.406 0v3.692a.943.943 0 0 0 .943.943h3.692a.703.703 0 1 1 0 1.406M8.913 15.176l-.906 1.539c-.043.068-.13.099-.23.099-.266 0-.645-.21-.645-.478a.34.34 0 0 1 .056-.173l1.074-1.657-1.032-1.65a.35.35 0 0 1-.062-.193c0-.26.354-.46.627-.46a.3.3 0 0 1 .292.162l.825 1.44.825-1.44a.3.3 0 0 1 .292-.161c.273 0 .626.198.626.459a.35.35 0 0 1-.062.192l-1.031 1.65 1.078 1.658a.34.34 0 0 1 .056.173c0 .267-.378.478-.645.478-.1 0-.192-.03-.23-.1zM11.5 16.777c-.21 0-.421-.1-.421-.298v-3.946c0-.205.242-.292.484-.292s.484.087.484.292v3.4h1.414c.188 0 .28.21.28.422 0 .21-.094.422-.28.422zM15.993 15.563c0-.75-1.969-.621-1.969-2.073 0-.93.813-1.284 1.589-1.284.328 0 1.234.062 1.234.546 0 .167-.111.508-.385.508-.223 0-.34-.234-.85-.234-.44 0-.62.18-.62.372 0 .62 1.969.503 1.969 2.066 0 .894-.652 1.378-1.551 1.378-.813 0-1.496-.397-1.496-.806 0-.212.188-.522.422-.522.292 0 .478.46 1.055.46.285-.004.602-.116.602-.412"/></svg>