<svg xmlns="http://www.w3.org/2000/svg" width="24" height="24" fill="none"><path fill="#DBE2E6" d="M17.88 21.094H7.15a2.35 2.35 0 0 1-2.349-2.35V4.6a2.35 2.35 0 0 1 2.35-2.349h7.035a.7.7 0 0 1 .497.206l5.339 5.338a.7.7 0 0 1 .205.497v10.453a2.35 2.35 0 0 1-2.349 2.35M7.15 3.656a.944.944 0 0 0-.942.943v14.146a.943.943 0 0 0 .942.942H17.88a.943.943 0 0 0 .943-.942V8.582l-4.926-4.926z"/><path fill="#DBE2E6" d="M19.525 8.994h-3.692a2.35 2.35 0 0 1-2.35-2.349V2.953a.703.703 0 0 1 1.407 0v3.692a.944.944 0 0 0 .943.943h3.692a.703.703 0 1 1 0 1.406M8.632 14.134h.93c.188 0 .292.18.292.378 0 .167-.087.366-.292.366h-.93v1.055h1.662c.188 0 .292.199.292.428 0 .198-.087.416-.292.416H8.085c-.21 0-.421-.1-.421-.298v-3.94c0-.199.21-.298.421-.298h2.21c.204 0 .29.217.29.416 0 .23-.105.428-.29.428H8.631zM11.008 12.533c0-.156.14-.292.36-.292h1.284c.819 0 1.464.385 1.464 1.427v.031c0 1.043-.67 1.44-1.526 1.44h-.614v1.34c0 .199-.242.298-.484.298s-.484-.1-.484-.298zm.968.552v1.309h.614c.347 0 .558-.198.558-.62v-.069c0-.422-.21-.62-.558-.62zM16.4 15.563c0-.75-1.969-.621-1.969-2.073 0-.93.813-1.284 1.588-1.284.328 0 1.235.062 1.235.546 0 .167-.112.508-.385.508-.223 0-.34-.234-.85-.234-.44 0-.62.18-.62.372 0 .62 1.969.503 1.969 2.066 0 .894-.652 1.378-1.552 1.378-.813 0-1.495-.397-1.495-.806 0-.212.187-.522.422-.522.292 0 .478.46 1.055.46.285-.004.602-.116.602-.412"/></svg>