<svg xmlns="http://www.w3.org/2000/svg" width="24" height="24" fill="none"><path fill="#DBE2E6" d="M5.606 10.04a2.85 2.85 0 0 1-1.439-.39c-1.036-.606-1.56-1.83-1.302-3.046l.804-3.797a.7.7 0 0 1 .69-.557h3.394a.703.703 0 0 1 .703.703V7.19a2.853 2.853 0 0 1-2.85 2.85m-.679-6.384-.686 3.24c-.13.612.132 1.246.637 1.542A1.445 1.445 0 0 0 7.05 7.19V3.656z"/><path fill="#DBE2E6" d="M9.9 10.04a2.853 2.853 0 0 1-2.85-2.85V2.953a.703.703 0 0 1 .703-.703h4.294a.703.703 0 0 1 .703.703V7.19a2.853 2.853 0 0 1-2.85 2.85M8.456 3.656V7.19a1.444 1.444 0 0 0 2.888 0V3.656z"/><path fill="#DBE2E6" d="M14.194 10.04a2.853 2.853 0 0 1-2.85-2.85V2.953a.703.703 0 0 1 .703-.703h4.294a.703.703 0 0 1 .703.703V7.19a2.853 2.853 0 0 1-2.85 2.85M12.75 3.656V7.19a1.444 1.444 0 1 0 2.887 0V3.656z"/><path fill="#DBE2E6" d="M18.487 10.04a2.853 2.853 0 0 1-2.85-2.85V2.953a.703.703 0 0 1 .704-.703h3.394a.7.7 0 0 1 .687.557l.805 3.797c.257 1.216-.266 2.44-1.303 3.047-.436.255-.932.39-1.437.39m-1.443-6.384V7.19a1.445 1.445 0 0 0 2.172 1.248c.505-.296.767-.93.637-1.543l-.687-3.239z"/><path fill="#DBE2E6" d="M19.91 20.975H4.183a.703.703 0 0 1-.703-.703V8.794a.703.703 0 1 1 1.406 0v10.774h14.321V8.794a.703.703 0 1 1 1.406 0v11.478a.703.703 0 0 1-.703.703"/><path fill="#DBE2E6" d="M10.818 20.975H6.524a.703.703 0 0 1-.703-.703v-7.997a.703.703 0 0 1 .703-.703h4.294a.703.703 0 0 1 .703.703v7.997a.703.703 0 0 1-.703.703m-3.59-1.407h2.887v-6.59H7.227zM17.57 18.426h-4.294a.703.703 0 0 1-.703-.703v-5.448a.703.703 0 0 1 .703-.703h4.293a.703.703 0 0 1 .704.703v5.448a.703.703 0 0 1-.704.703m-3.591-1.407h2.887v-4.04H13.98z"/></svg>