<svg xmlns="http://www.w3.org/2000/svg" width="24" height="24" fill="none"><path fill="#DBE2E6" d="M18.89 20.88H5.029a2.493 2.493 0 0 1-2.49-2.489v-5.426a2.493 2.493 0 0 1 2.49-2.49H18.89a2.493 2.493 0 0 1 2.49 2.49v5.426a2.493 2.493 0 0 1-2.49 2.49M5.028 11.882a1.085 1.085 0 0 0-1.084 1.084v5.426a1.085 1.085 0 0 0 1.084 1.084h13.864a1.084 1.084 0 0 0 1.083-1.084v-5.426a1.085 1.085 0 0 0-1.083-1.084z"/><path fill="#DBE2E6" d="M16.064 11.88H7.855a.703.703 0 0 1-.586-1.09l3.278-4.947a.703.703 0 1 1 1.172.777l-2.555 3.855h5.59L12.199 6.62a.703.703 0 1 1 1.172-.777l3.279 4.947a.704.704 0 0 1-.586 1.09"/><path fill="#DBE2E6" d="M11.96 7.183a2.198 2.198 0 1 1-.003-4.396 2.198 2.198 0 0 1 .002 4.396m0-2.99a.792.792 0 1 0-.003 1.583.792.792 0 0 0 .002-1.583M6.366 14.332c-.355 0-.557.196-.557.61v1.481c0 .414.202.61.568.61.483 0 .526-.346.542-.569.01-.164.159-.217.34-.217.238 0 .35.069.35.34 0 .642-.526 1.05-1.27 1.05-.668 0-1.218-.327-1.218-1.215v-1.48c0-.886.557-1.215 1.226-1.215.739 0 1.266.393 1.266 1.009 0 .276-.112.34-.345.34-.196 0-.34-.06-.345-.219s-.052-.525-.557-.525"/><path fill="#DBE2E6" d="M6.34 17.757C5.489 17.757 5 17.27 5 16.424v-1.482c0-.847.49-1.332 1.344-1.332.826 0 1.38.452 1.38 1.125 0 .402-.234.457-.461.457-.408 0-.46-.232-.463-.331-.014-.213-.076-.413-.435-.413-.3 0-.44.157-.44.493v1.482c0 .34.14.493.45.493.363 0 .408-.217.425-.46.007-.097.064-.327.457-.327.218 0 .469.052.469.457-.001.702-.558 1.17-1.387 1.17m.005-3.913c-.917 0-1.11.597-1.11 1.098v1.482c0 .501.192 1.098 1.105 1.098.689 0 1.151-.375 1.151-.933 0-.188-.037-.223-.234-.223-.216 0-.22.078-.223.108-.013.187-.046.678-.658.678-.442 0-.685-.259-.685-.728v-1.482c0-.468.24-.727.674-.727q.627.002.67.635c.003.108.172.108.228.108.162 0 .228-.009.228-.222 0-.533-.46-.892-1.146-.892M8.379 17.608c-.155 0-.303-.074-.303-.218v-3.45c0-.15.17-.213.345-.213s.345.064.345.212v3.064h1.295c.14 0 .207.148.207.302 0 .155-.068.303-.207.303z"/><path fill="#DBE2E6" d="M10.061 17.725H8.378c-.243 0-.421-.14-.421-.335v-3.45c0-.198.187-.329.462-.329.274 0 .462.132.462.328v2.946h1.178c.192 0 .325.173.325.422 0 .25-.135.418-.323.418m-1.64-3.88c-.11 0-.228.032-.228.093v3.453c0 .073.114.1.187.1h1.683c.056 0 .09-.096.09-.185 0-.077-.028-.188-.09-.188H8.65V13.94c0-.06-.118-.095-.228-.095M10.54 16.424v-1.482c0-.886.54-1.215 1.242-1.215.7 0 1.247.328 1.247 1.215v1.482c0 .887-.547 1.216-1.248 1.216-.7 0-1.242-.33-1.242-1.216m1.799-1.482c0-.419-.213-.609-.558-.609-.344 0-.552.191-.552.61v1.481c0 .42.202.61.553.61.35 0 .557-.192.557-.61z"/><path fill="#DBE2E6" d="M11.782 17.757c-.877 0-1.36-.474-1.36-1.333v-1.482c0-.859.483-1.332 1.36-1.332.867 0 1.364.485 1.364 1.332v1.482c0 .847-.497 1.333-1.365 1.333m0-3.913c-.747 0-1.126.37-1.126 1.098v1.482c0 .729.379 1.098 1.125 1.098.516 0 1.131-.19 1.131-1.098v-1.482c0-.5-.196-1.098-1.13-1.098m0 3.308c-.432 0-.67-.259-.67-.728v-1.482c0-.468.238-.727.67-.727.431 0 .674.265.674.727v1.482c0 .462-.246.728-.675.728m0-2.703c-.301 0-.435.152-.435.493v1.482c0 .34.134.493.434.493.301 0 .44-.156.44-.493v-1.482c0-.336-.139-.493-.44-.493M15.227 16.573c0-.797-1.704-.553-1.704-1.811 0-.79.68-1.062 1.29-1.062.313 0 1.009.075 1.009.425 0 .122-.085.366-.276.366-.165 0-.287-.202-.733-.202-.382 0-.6.155-.6.41 0 .658 1.704.43 1.704 1.804 0 .76-.53 1.152-1.265 1.152-.695 0-1.226-.35-1.226-.656 0-.148.137-.371.302-.371.218 0 .361.408.903.408.322-.002.596-.145.596-.463"/><path fill="#DBE2E6" d="M14.654 17.773c-.716 0-1.344-.363-1.344-.776 0-.197.176-.489.422-.489.127 0 .222.08.322.165.137.114.291.244.58.244.112 0 .478-.025.478-.344 0-.264-.242-.385-.638-.56-.477-.211-1.068-.474-1.068-1.251 0-.87.758-1.179 1.406-1.179.116 0 1.125.015 1.125.542 0 .169-.115.484-.393.484a.5.5 0 0 1-.241-.078.95.95 0 0 0-.49-.124c-.18 0-.483.037-.483.291 0 .183.209.281.55.426.487.206 1.154.49 1.154 1.38 0 .783-.529 1.269-1.38 1.269m-.924-1.032c-.084 0-.187.157-.187.255 0 .218.466.54 1.109.54.718 0 1.146-.386 1.146-1.034 0-.735-.537-.963-1.01-1.164-.357-.151-.694-.294-.694-.641 0-.388.37-.526.717-.526.21-.005.416.047.598.15q.062.04.135.052c.103 0 .159-.177.159-.25 0-.127-.277-.307-.891-.307-1.088 0-1.172.723-1.172.944 0 .625.472.834.927 1.037.382.17.777.345.777.774 0 .352-.28.58-.712.58-.375 0-.58-.174-.73-.3-.07-.058-.13-.108-.172-.108zM17.08 15.394h.807c.138 0 .218.132.218.276 0 .122-.07.266-.218.266h-.807v1.067h1.503c.138 0 .217.143.217.308 0 .143-.069.297-.217.297h-1.89c-.155 0-.303-.074-.303-.218v-3.446c0-.143.148-.217.302-.217h1.89c.15 0 .218.154.218.297 0 .165-.08.308-.217.308H17.08z"/><path fill="#DBE2E6" d="M18.583 17.725h-1.89c-.244 0-.423-.14-.423-.335v-3.446c0-.194.177-.334.422-.334h1.89c.22 0 .335.208.335.414 0 .246-.14.425-.334.425h-1.386v.828h.69c.19 0 .335.169.335.393 0 .187-.117.383-.335.383h-.69v.832h1.386c.194 0 .334.18.334.425 0 .207-.115.415-.334.415m-1.89-3.88c-.073 0-.188.026-.188.1v3.446c0 .073.113.1.187.1h1.89c.083 0 .1-.13.1-.18 0-.094-.034-.19-.1-.19h-1.62v-1.302h.925c.082 0 .1-.108.1-.15 0-.063-.026-.158-.1-.158h-.924v-1.296h1.62c.065 0 .1-.099.1-.19 0-.051-.018-.18-.1-.18z"/></svg>