<svg xmlns="http://www.w3.org/2000/svg" width="24" height="24" fill="none"><path fill="#DBE2E6" d="M9.481 21.055a2.359 2.359 0 1 1 0-4.718 2.359 2.359 0 0 1 0 4.718m0-3.312a.953.953 0 1 0 0 1.906.953.953 0 0 0 0-1.906M17.526 21.055a2.359 2.359 0 1 1-.002-4.718 2.359 2.359 0 0 1 .002 4.718m0-3.312a.953.953 0 1 0-.002 1.906.953.953 0 0 0 .002-1.906M20.678 15.508H6.552a.703.703 0 0 1-.703-.703V4.757a1.056 1.056 0 0 0-1.055-1.054H3.325a.703.703 0 1 1 0-1.406h1.469a2.464 2.464 0 0 1 2.461 2.461v9.343h13.423a.703.703 0 0 1 0 1.407"/><path fill="#DBE2E6" d="M19.374 13.045H8.93a.703.703 0 0 1-.703-.703V8.605a.703.703 0 0 1 .703-.703h10.444a.703.703 0 0 1 .704.703v3.737a.703.703 0 0 1-.704.703m-9.741-1.406h9.038v-2.33H9.633z"/><path fill="#DBE2E6" d="M19.374 9.308H8.93a.703.703 0 0 1-.703-.703V4.87a.703.703 0 0 1 .703-.703h10.444a.703.703 0 0 1 .704.703v3.736a.703.703 0 0 1-.704.703M9.633 7.902h9.038v-2.33H9.633z"/></svg>