<svg xmlns="http://www.w3.org/2000/svg" width="24" height="24" fill="none"><path fill="#DBE2E6" d="M19.52 8.993H5.909a3.371 3.371 0 1 1 0-6.743h13.61a.703.703 0 0 1 .704.703V8.29a.703.703 0 0 1-.703.704M5.909 3.656a1.965 1.965 0 0 0 0 3.93h12.908v-3.93z"/><path fill="#DBE2E6" d="M19.52 21.202H5.909a3.375 3.375 0 0 1-3.372-3.371V5.62a.703.703 0 0 1 1.407 0v12.21a1.97 1.97 0 0 0 1.965 1.965h12.908V8.289a.703.703 0 1 1 1.406 0V20.5a.703.703 0 0 1-.703.703"/><path fill="#DBE2E6" d="M15.896 16.491a2.25 2.25 0 1 1 0-4.5 2.25 2.25 0 0 1 0 4.5m0-3.094a.844.844 0 1 0 0 1.687.844.844 0 0 0 0-1.686M6.357 8.993a.703.703 0 0 1-.703-.704V5.621a.703.703 0 0 1 .703-.703H19.52a.703.703 0 0 1 0 1.406H7.06V8.29a.703.703 0 0 1-.703.704"/></svg>