<svg xmlns="http://www.w3.org/2000/svg" width="24" height="24" fill="none"><path fill="#DBE2E6" d="M20.678 18.328H3.24a.703.703 0 0 1-.703-.703V6.609a.703.703 0 0 1 .703-.703h17.438a.703.703 0 0 1 .703.703v11.016a.703.703 0 0 1-.703.703M3.944 16.922h16.03v-9.61H3.945z"/><path fill="#DBE2E6" d="M16.466 16.125H7.453a.703.703 0 0 1-.703-.703 1.31 1.31 0 0 0-1.306-1.306.703.703 0 0 1-.704-.703v-2.591a.703.703 0 0 1 .704-.703A1.31 1.31 0 0 0 6.75 8.813a.703.703 0 0 1 .703-.704h9.013a.703.703 0 0 1 .703.704 1.31 1.31 0 0 0 1.306 1.306.703.703 0 0 1 .703.703v2.59a.703.703 0 0 1-.703.704 1.31 1.31 0 0 0-1.306 1.306.703.703 0 0 1-.703.703m-8.403-1.406h7.792a2.72 2.72 0 0 1 1.917-1.917v-1.37a2.72 2.72 0 0 1-1.917-1.916H8.063a2.72 2.72 0 0 1-1.918 1.917v1.369a2.72 2.72 0 0 1 1.918 1.917"/><path fill="#DBE2E6" d="M11.96 16.125c-1.571 0-2.801-1.76-2.801-4.008 0-2.247 1.23-4.008 2.8-4.008s2.801 1.761 2.801 4.008-1.23 4.008-2.8 4.008m0-6.61c-.66 0-1.395 1.069-1.395 2.602s.735 2.602 1.394 2.602c.66 0 1.395-1.069 1.395-2.602s-.735-2.601-1.395-2.601"/></svg>