<svg xmlns="http://www.w3.org/2000/svg" width="24" height="24" fill="none"><path fill="#DBE2E6" d="M20.678 21H3.24a.703.703 0 0 1-.703-.703v-5.12a.703.703 0 0 1 .703-.703h17.438a.703.703 0 0 1 .703.703v5.12a.703.703 0 0 1-.703.703M3.944 19.594h16.03V15.88H3.945z"/><path fill="#DBE2E6" d="M19.215 15.88H4.705A.703.703 0 0 1 4 15.177v-5.24a2.063 2.063 0 0 1 2.063-2.062h11.793a2.063 2.063 0 0 1 2.062 2.063v5.24a.704.704 0 0 1-.704.702M5.407 14.474h13.104V9.938a.657.657 0 0 0-.656-.657H6.062a.656.656 0 0 0-.656.656zM19.226 6.21h-7.507a.703.703 0 0 1-.703-.704V2.86a.703.703 0 0 1 .703-.703h7.507a.703.703 0 0 1 .703.703v2.648a.703.703 0 0 1-.703.703m-6.804-1.407h6.1v-1.24h-6.1z"/><path fill="#DBE2E6" d="M15.358 9.281a.703.703 0 0 1-.703-.703V5.506a.703.703 0 0 1 1.406 0v3.072a.703.703 0 0 1-.703.703M8.631 11.585H7.152a.703.703 0 1 1 0-1.406h1.48a.703.703 0 0 1 0 1.406M8.631 13.576H7.152a.703.703 0 0 1 0-1.406h1.48a.703.703 0 1 1 0 1.406M16.766 11.585h-1.479a.703.703 0 1 1 0-1.406h1.48a.703.703 0 0 1 0 1.406M16.766 13.576h-1.479a.703.703 0 1 1 0-1.406h1.48a.703.703 0 1 1 0 1.406M12.699 11.585H11.22a.703.703 0 1 1 0-1.406h1.479a.703.703 0 0 1 0 1.406M12.699 13.576H11.22a.703.703 0 1 1 0-1.406h1.479a.703.703 0 1 1 0 1.406M11.96 18.44a.7.7 0 0 1-.205-.03.8.8 0 0 1-.242-.13.6.6 0 0 1-.098-.098.6.6 0 0 1-.105-.177.6.6 0 0 1-.04-.132.7.7 0 0 1 .017-.34.8.8 0 0 1 .087-.187.7.7 0 0 1 .254-.23.8.8 0 0 1 .193-.069.7.7 0 0 1 .47.07.7.7 0 0 1 .211.173 1 1 0 0 1 .077.115.6.6 0 0 1 .052.127.8.8 0 0 1 .03.204.7.7 0 0 1-.03.204.8.8 0 0 1-.087.187.5.5 0 0 1-.088.106 1 1 0 0 1-.107.088l-.06.036a.8.8 0 0 1-.261.08z"/></svg>