<svg xmlns="http://www.w3.org/2000/svg" width="24" height="24" fill="none"><path fill="#DBE2E6" d="M9 15.563a6.664 6.664 0 0 1-6.656-6.657A6.664 6.664 0 0 1 9 2.25a6.664 6.664 0 0 1 6.656 6.656A6.664 6.664 0 0 1 9 15.562M9 3.656a5.25 5.25 0 1 0 0 10.5 5.25 5.25 0 0 0 0-10.5"/><path fill="#DBE2E6" d="M9 13.078a4.171 4.171 0 1 1 0-8.342 4.171 4.171 0 0 1 0 8.342m0-6.937a2.766 2.766 0 1 0 0 5.53 2.766 2.766 0 0 0 0-5.53"/><path fill="#DBE2E6" d="M14.467 21.03a6.656 6.656 0 0 1-6.636-6.135.704.704 0 1 1 1.403-.108 5.25 5.25 0 1 0 5.647-5.646.703.703 0 1 1 .108-1.402 6.656 6.656 0 0 1 6.134 6.634 6.664 6.664 0 0 1-6.656 6.656"/><path fill="#DBE2E6" d="M14.467 18.544a4.17 4.17 0 0 1-4.166-4.002.704.704 0 1 1 1.406-.056 2.765 2.765 0 1 0 2.871-2.874.703.703 0 1 1 .056-1.406 4.172 4.172 0 0 1-.169 8.337z"/></svg>