<svg xmlns="http://www.w3.org/2000/svg" width="24" height="24" fill="none"><path fill="#DBE2E6" d="M20.678 14.719H3.24a.703.703 0 0 1-.703-.703V3a.703.703 0 0 1 .703-.703h17.438a.703.703 0 0 1 .703.703v11.016a.703.703 0 0 1-.703.703M3.944 13.313h16.03v-9.61H3.945z"/><path fill="#DBE2E6" d="M20.678 21.094H3.24a.703.703 0 0 1-.703-.703v-6.375a.703.703 0 0 1 .703-.703h17.438a.703.703 0 0 1 .703.703v6.375a.703.703 0 0 1-.703.703M3.944 19.687h16.03V14.72H3.945zM16.466 12.516H7.453a.703.703 0 0 1-.703-.703 1.31 1.31 0 0 0-1.306-1.307.703.703 0 0 1-.704-.703v-2.59a.703.703 0 0 1 .704-.704A1.31 1.31 0 0 0 6.75 5.203a.703.703 0 0 1 .703-.703h9.013a.703.703 0 0 1 .703.703 1.31 1.31 0 0 0 1.306 1.306.703.703 0 0 1 .703.703v2.591a.703.703 0 0 1-.703.703 1.31 1.31 0 0 0-1.306 1.306.703.703 0 0 1-.703.704m-8.403-1.407h7.792a2.72 2.72 0 0 1 1.917-1.917V7.823a2.72 2.72 0 0 1-1.917-1.917H8.063a2.72 2.72 0 0 1-1.918 1.917v1.37a2.72 2.72 0 0 1 1.918 1.916"/><path fill="#DBE2E6" d="M11.96 12.516c-1.571 0-2.801-1.761-2.801-4.008s1.23-4.008 2.8-4.008 2.801 1.76 2.801 4.008-1.23 4.008-2.8 4.008m0-6.61c-.66 0-1.395 1.069-1.395 2.602s.735 2.601 1.394 2.601c.66 0 1.395-1.068 1.395-2.601s-.735-2.602-1.395-2.602M20.678 16.781H3.24a.703.703 0 1 1 0-1.406h17.438a.703.703 0 0 1 0 1.406M20.678 19.031H3.24a.703.703 0 1 1 0-1.406h17.438a.703.703 0 0 1 0 1.406"/></svg>