<svg xmlns="http://www.w3.org/2000/svg" width="24" height="24" fill="none"><path fill="#DBE2E6" d="M12.064 21.094a.7.7 0 0 1-.343-.09c-1.965-1.097-3.565-2.54-4.76-4.286-.955-1.396-1.65-2.984-2.066-4.722-.706-2.95-.368-5.293-.353-5.393a.7.7 0 0 1 .57-.587l.421-.076a10.36 10.36 0 0 0 5.998-3.444.703.703 0 0 1 1.068 0 10.36 10.36 0 0 0 6 3.444l.42.076a.7.7 0 0 1 .57.587c.015.099.353 2.446-.354 5.39-.416 1.739-1.11 3.329-2.065 4.723-1.195 1.746-2.796 3.188-4.76 4.286a.7.7 0 0 1-.346.092M5.886 7.304c-.091 1.483.04 2.97.389 4.415.38 1.561 1.007 2.985 1.865 4.232.998 1.453 2.317 2.671 3.924 3.628 1.607-.957 2.926-2.177 3.924-3.628.857-1.247 1.485-2.672 1.865-4.232.349-1.444.48-2.932.389-4.415a11.8 11.8 0 0 1-6.178-3.311 11.8 11.8 0 0 1-6.178 3.311"/><path fill="#DBE2E6" d="M10.141 14.297a.703.703 0 0 1-.497-1.2l3.844-3.844a.703.703 0 1 1 .996.993L10.64 14.09a.7.7 0 0 1-.499.207"/><path fill="#DBE2E6" d="M13.986 14.297a.7.7 0 0 1-.497-.206l-3.844-3.844a.703.703 0 1 1 .995-.995l3.844 3.844a.704.704 0 0 1-.497 1.2"/></svg>