<svg xmlns="http://www.w3.org/2000/svg" width="24" height="24" fill="none"><path fill="#DBE2E6" d="M14.153 21.094H9.94a.703.703 0 0 1-.703-.703v-8.063a.703.703 0 0 1 .703-.703h4.213a.703.703 0 0 1 .703.703v8.063a.703.703 0 0 1-.703.703m-3.51-1.407h2.807v-6.656h-2.806zM7.54 21.094H3.328a.703.703 0 0 1-.703-.703V7.41a.703.703 0 0 1 .703-.703H7.54a.703.703 0 0 1 .703.703v12.98a.703.703 0 0 1-.703.703m-3.509-1.407h2.806V8.116H4.031zM20.766 21.094h-4.213a.703.703 0 0 1-.703-.703V2.953a.703.703 0 0 1 .703-.703h4.213a.703.703 0 0 1 .703.703v17.438a.703.703 0 0 1-.703.703m-3.51-1.407h2.807V3.657h-2.807z"/></svg>