<svg xmlns="http://www.w3.org/2000/svg" width="24" height="24" fill="none"><path fill="#DBE2E6" d="M11.095 10.245a.703.703 0 0 1-.704-.703V5.329a1.672 1.672 0 1 0-3.345 0v4.213a.703.703 0 0 1-1.406 0V5.329a3.079 3.079 0 1 1 6.158 0v4.213a.703.703 0 0 1-.703.703"/><path fill="#DBE2E6" d="M14.06 21.128H3.57a.703.703 0 0 1-.704-.703V6.859a.703.703 0 0 1 .704-.703h10.49a.703.703 0 0 1 .702.703v4.903a.703.703 0 0 1-1.406 0v-4.2H4.273v12.16h9.786a.703.703 0 0 1 0 1.406"/><path fill="#DBE2E6" d="M20.785 21.129H10.411a.703.703 0 0 1-.7-.782l.977-8.664a.703.703 0 0 1 .698-.624h8.422a.703.703 0 0 1 .698.624l.977 8.664a.703.703 0 0 1-.698.782m-9.587-1.406h8.8l-.819-7.258h-7.163z"/><path fill="#DBE2E6" d="M15.598 16.797a2.56 2.56 0 0 1-2.556-2.555.703.703 0 0 1 1.406 0 1.15 1.15 0 0 0 2.297 0 .703.703 0 0 1 1.406 0 2.56 2.56 0 0 1-2.553 2.555"/></svg>