<svg xmlns="http://www.w3.org/2000/svg" width="24" height="24" fill="none"><path fill="#DBE2E6" d="M16.334 20.283h-4.062c-.793 0-1.579-.14-2.321-.417L6.787 18.69a.703.703 0 0 1 .49-1.319l3.163 1.175a5.2 5.2 0 0 0 1.832.329h4.062a.666.666 0 1 0 0-1.333.703.703 0 1 1 0-1.406h.958a.666.666 0 1 0 0-1.332.703.703 0 0 1 0-1.406h.958a.666.666 0 1 0 0-1.332.703.703 0 0 1 0-1.407h.959a.666.666 0 0 0 0-1.332h-6.64a.703.703 0 0 1-.616-1.043c.214-.434.36-.897.431-1.375.16-1.025-.037-1.952-.582-2.755a.576.576 0 0 0-1.046.329c.022 2.408-1.09 4.158-3.218 5.062a.703.703 0 1 1-.55-1.294c.878-.375 1.517-.926 1.901-1.645.313-.586.469-1.296.46-2.109a1.95 1.95 0 0 1 1.394-1.904 1.94 1.94 0 0 1 2.224.772c1.158 1.704.95 3.473.632 4.556h5.61a2.072 2.072 0 0 1 .918 3.93 2.075 2.075 0 0 1-.958 2.739 2.075 2.075 0 0 1-.958 2.739 2.073 2.073 0 0 1-1.875 2.953z"/><path fill="#DBE2E6" d="M7.266 19.242H3.24a.703.703 0 0 1-.703-.703v-9.64a.703.703 0 0 1 .703-.702h4.026a.703.703 0 0 1 .703.703v9.639a.703.703 0 0 1-.703.703m-3.321-1.407h2.618V9.604h-2.62z"/></svg>