<svg xmlns="http://www.w3.org/2000/svg" width="24" height="24" fill="none"><path fill="#DBE2E6" d="M18.442 21.094H7.714a2.35 2.35 0 0 1-2.35-2.35V4.6a2.35 2.35 0 0 1 2.35-2.349h7.036a.7.7 0 0 1 .497.206l5.338 5.338a.7.7 0 0 1 .206.497v10.453a2.35 2.35 0 0 1-2.35 2.35M7.714 3.656a.944.944 0 0 0-.943.943v14.146a.943.943 0 0 0 .943.942h10.728a.943.943 0 0 0 .943-.942V8.582l-4.927-4.926z"/><path fill="#DBE2E6" d="M20.088 8.994h-3.693a2.35 2.35 0 0 1-2.349-2.349V2.953a.703.703 0 0 1 1.407 0v3.692a.944.944 0 0 0 .942.943h3.693a.703.703 0 1 1 0 1.406M8.545 12.54c0-.2.211-.3.422-.3h2.153c.205 0 .292.218.292.417 0 .23-.105.428-.292.428H9.516v1.049h.938c.188 0 .292.18.292.378 0 .167-.087.366-.292.366h-.938v1.6c0 .2-.241.299-.483.299s-.484-.1-.484-.298zM12.163 16.777c-.211 0-.422-.1-.422-.298v-3.946c0-.205.242-.292.484-.292s.484.087.484.292v3.4h1.414c.188 0 .282.21.282.422 0 .21-.094.422-.282.422zM14.018 12.706a.3.3 0 0 1-.013-.068c0-.23.354-.397.62-.397.156 0 .282.05.317.18l.869 3.183.862-3.182c.038-.13.162-.18.317-.18.267 0 .62.168.62.397a.3.3 0 0 1-.012.068l-1.154 3.785c-.068.217-.348.323-.633.323s-.563-.106-.633-.323z"/></svg>