<svg xmlns="http://www.w3.org/2000/svg" width="24" height="24" fill="none"><path fill="#DBE2E6" d="M18.616 21.094H5.303a2.77 2.77 0 0 1-2.766-2.766V9.141a2.77 2.77 0 0 1 2.766-2.766h4.681a1.36 1.36 0 0 0 1.36-1.36 2.77 2.77 0 0 1 2.765-2.765h4.507a2.77 2.77 0 0 1 2.765 2.766v13.312a2.77 2.77 0 0 1-2.765 2.766M5.303 7.78a1.36 1.36 0 0 0-1.36 1.36v9.187a1.36 1.36 0 0 0 1.36 1.36h13.313a1.36 1.36 0 0 0 1.359-1.36V5.016a1.36 1.36 0 0 0-1.36-1.36H14.11a1.36 1.36 0 0 0-1.359 1.36A2.77 2.77 0 0 1 9.984 7.78z"/></svg>