<svg xmlns="http://www.w3.org/2000/svg" width="24" height="24" fill="none"><path fill="#DBE2E6" d="M11.96 19.704a.7.7 0 0 1-.172-.02c-2.498-.627-4.565-1.696-6.143-3.177-1.356-1.273-2.321-2.841-2.79-4.535-.337-1.219-.408-2.469-.204-3.61.204-1.14.662-2.092 1.325-2.756 1.672-1.671 4.172-1.693 5.906-.974.794.328 1.468.816 1.95 1.41q.066.08.125.163.06-.082.126-.162c.482-.595 1.156-1.083 1.95-1.411 1.734-.72 4.237-.697 5.906.974.663.664 1.122 1.617 1.325 2.757s.133 2.39-.204 3.609c-.47 1.694-1.433 3.262-2.79 4.535-1.577 1.48-3.644 2.55-6.143 3.176a.7.7 0 0 1-.168.021M7.617 5.575c-1.11 0-2.063.439-2.648 1.024-.986.988-1.3 3.043-.76 4.998.4 1.445 1.229 2.789 2.397 3.884 1.366 1.282 3.166 2.222 5.352 2.795 2.187-.573 3.987-1.513 5.353-2.795 1.168-1.095 1.996-2.437 2.396-3.884.54-1.955.228-4.01-.76-4.998-.873-.874-2.565-1.42-4.375-.67-1.196.496-1.91 1.39-1.91 2.39a.703.703 0 0 1-1.407 0c0-1-.714-1.894-1.91-2.39a4.5 4.5 0 0 0-1.728-.354"/></svg>