<svg xmlns="http://www.w3.org/2000/svg" width="24" height="24" fill="none"><path fill="#DBE2E6" d="M12.047 21.63c-5.344 0-9.69-4.346-9.69-9.69s4.346-9.69 9.69-9.69 9.69 4.347 9.69 9.69c0 5.344-4.346 9.69-9.69 9.69m0-17.974c-4.568 0-8.284 3.716-8.284 8.285 0 4.567 3.716 8.284 8.284 8.284s8.284-3.717 8.284-8.285-3.716-8.284-8.284-8.284"/><path fill="#DBE2E6" d="M16.074 16.781a.7.7 0 0 1-.497-.205L7.522 8.52a.703.703 0 1 1 .994-.994l8.056 8.055a.703.703 0 0 1-.498 1.2"/><path fill="#DBE2E6" d="M8.019 16.781a.703.703 0 0 1-.497-1.2l8.055-8.055a.703.703 0 0 1 .995.994l-8.056 8.056a.7.7 0 0 1-.497.205"/></svg>