<svg width="24" height="24" viewBox="0 0 24 24" fill="none" xmlns="http://www.w3.org/2000/svg">
<path d="M16.5469 21.0938C16.4546 21.0938 16.3631 21.0756 16.2778 21.0403C16.1925 21.005 16.1149 20.9533 16.0496 20.888L7.38287 12.2208C7.25105 12.0889 7.177 11.9101 7.177 11.7237C7.177 11.5372 7.25105 11.3584 7.38287 11.2266L16.0496 2.55938C16.1149 2.49407 16.1924 2.44225 16.2777 2.40689C16.363 2.37153 16.4544 2.35332 16.5468 2.3533C16.6391 2.35328 16.7306 2.37145 16.8159 2.40677C16.9012 2.44208 16.9787 2.49386 17.044 2.55914C17.1094 2.62442 17.1612 2.70193 17.1965 2.78724C17.2319 2.87254 17.2501 2.96398 17.2501 3.05632C17.2501 3.14866 17.232 3.24011 17.1967 3.32543C17.1613 3.41075 17.1096 3.48828 17.0443 3.5536L8.87443 11.7234L17.0443 19.8933C17.1427 19.9916 17.2097 20.1169 17.2368 20.2534C17.264 20.3898 17.2501 20.5312 17.1968 20.6597C17.1436 20.7883 17.0534 20.8981 16.9377 20.9754C16.822 21.0526 16.686 21.0938 16.5469 21.0938Z" fill="#DBE2E6"/>
</svg>
