<svg xmlns="http://www.w3.org/2000/svg" width="24" height="24" fill="none"><path fill="#DBE2E6" d="M18.539 21.094H5.897a.703.703 0 0 1-.703-.703V9.234a.703.703 0 1 1 1.406 0v10.454h11.236V9.234a.703.703 0 1 1 1.406 0v11.157a.703.703 0 0 1-.703.703"/><path fill="#DBE2E6" d="M20.865 12.265a.7.7 0 0 1-.498-.206l-8.15-8.15-8.15 8.15a.703.703 0 0 1-.993-.994l8.645-8.647a.703.703 0 0 1 .994 0l8.649 8.647a.704.704 0 0 1-.497 1.2M14.257 21.094H10.18a.703.703 0 0 1-.703-.703v-6.072a.703.703 0 0 1 .703-.703h4.078a.703.703 0 0 1 .703.703v6.072a.703.703 0 0 1-.703.703m-3.375-1.407h2.672v-4.664h-2.672z"/></svg>