<svg xmlns="http://www.w3.org/2000/svg" width="24" height="24" fill="none"><path fill="#DBE2E6" d="M16.718 21.094h-8.68a1.92 1.92 0 0 1-1.918-1.917V5.656a.703.703 0 0 1 .703-.703h11.11a.703.703 0 0 1 .703.703v13.52a1.92 1.92 0 0 1-1.918 1.918M7.527 6.359v12.818a.51.51 0 0 0 .51.51h8.68a.51.51 0 0 0 .512-.51V6.359z"/><path fill="#DBE2E6" d="M15.33 6.36H9.426a.703.703 0 0 1-.704-.704V4.378a2.1 2.1 0 0 1 2.098-2.097h3.118a2.1 2.1 0 0 1 2.097 2.097v1.278a.703.703 0 0 1-.703.703m-5.202-1.407h4.5v-.575a.69.69 0 0 0-.691-.69h-3.118a.69.69 0 0 0-.69.69zM12.378 18.402a.703.703 0 0 1-.703-.703V8.348a.703.703 0 1 1 1.406 0v9.351a.703.703 0 0 1-.703.703M9.839 18.402a.703.703 0 0 1-.703-.703V8.348a.703.703 0 0 1 1.406 0v9.351a.703.703 0 0 1-.703.703M14.917 18.402a.703.703 0 0 1-.703-.703V8.348a.703.703 0 1 1 1.406 0v9.351a.703.703 0 0 1-.703.703"/><path fill="#DBE2E6" d="M19.022 6.359H5.734a.703.703 0 1 1 0-1.406h13.288a.703.703 0 1 1 0 1.406"/></svg>