<svg xmlns="http://www.w3.org/2000/svg" width="24" height="24" fill="none"><path fill="#DBE2E6" d="M16.942 21.094H6.214a2.35 2.35 0 0 1-2.35-2.35V4.6a2.35 2.35 0 0 1 2.35-2.349h7.036a.7.7 0 0 1 .497.206l5.338 5.338a.7.7 0 0 1 .206.497v10.453a2.35 2.35 0 0 1-2.35 2.35M6.214 3.656a.944.944 0 0 0-.943.943v14.146a.943.943 0 0 0 .943.942h10.728a.943.943 0 0 0 .943-.942V8.582l-4.927-4.926z"/><path fill="#DBE2E6" d="M18.588 8.994h-3.693a2.35 2.35 0 0 1-2.349-2.349V2.953a.703.703 0 0 1 1.407 0v3.692a.944.944 0 0 0 .942.943h3.693a.703.703 0 1 1 0 1.406M9.853 13.085c-.187 0-.291-.199-.291-.428 0-.199.086-.416.291-.416h1.086c.21 0 .422.1.422.298v2.813c0 1.067-.676 1.464-1.49 1.464-.886 0-1.557-.472-1.557-1.297 0-.372.155-.459.49-.459.248 0 .46.062.478.292.019.241.05.62.546.62.36 0 .565-.199.565-.62v-2.267zM13.875 15.563c0-.75-1.969-.621-1.969-2.073 0-.93.813-1.284 1.589-1.284.328 0 1.234.062 1.234.546 0 .167-.111.508-.384.508-.224 0-.342-.234-.85-.234-.441 0-.621.18-.621.372 0 .62 1.969.503 1.969 2.066 0 .894-.652 1.378-1.551 1.378-.813 0-1.496-.397-1.496-.806 0-.212.188-.522.422-.522.292 0 .478.46 1.055.46.284-.004.602-.116.602-.412"/></svg>