<svg xmlns="http://www.w3.org/2000/svg" width="24" height="24" fill="none"><path fill="#DBE2E6" d="M12 3c-4.962.001-9 4.038-9 9s4.037 8.999 9 9c4.963-.002 9-4.039 9-9s-4.037-8.999-9-9m-8.188 9c0-3.85 2.671-7.087 6.258-7.958-.271.21-.555.457-.839.748A8.4 8.4 0 0 0 7.77 6.84H6.173a.406.406 0 0 0 0 .81h1.228c-.42 1.06-.719 2.36-.764 3.945H4.421a.406.406 0 1 0 0 .81h2.215c.043 1.585.342 2.886.761 3.944H6.173a.406.406 0 0 0 0 .811h1.591c.45.88.976 1.551 1.463 2.05.284.29.568.538.838.747-3.584-.873-6.253-4.109-6.253-7.957m7.785 7.975a7 7 0 0 1-1.82-1.362A7.6 7.6 0 0 1 8.68 17.16h2.917zm0-3.626H8.266c-.504-1.142-.778-2.46-.818-3.943h4.15zm0-4.754H7.45q.066-2.228.824-3.944h3.323zm0-4.755h-2.91a7.6 7.6 0 0 1 1.095-1.453 7 7 0 0 1 1.815-1.361zm.806-2.814a7 7 0 0 1 1.815 1.362q.634.659 1.095 1.452h-2.91zm0 3.625h3.324q.758 1.716.824 3.944h-4.148zm0 4.755h4.15q-.062 2.226-.818 3.943h-3.332zm0 4.754h2.917a7.6 7.6 0 0 1-1.098 1.453 7 7 0 0 1-1.82 1.362zm1.532 2.797c.27-.21.554-.457.838-.747a8.4 8.4 0 0 0 1.463-2.05h1.591a.405.405 0 1 0 0-.81h-1.224c.42-1.06.718-2.36.761-3.944h2.215a.406.406 0 1 0 0-.811h-2.216c-.045-1.585-.344-2.886-.764-3.944h1.228a.405.405 0 1 0 0-.811h-1.596a8.4 8.4 0 0 0-1.462-2.05 8 8 0 0 0-.838-.748c3.586.871 6.257 4.108 6.257 7.958s-2.668 7.084-6.253 7.957"/></svg>