<svg width="24" height="24" viewBox="0 0 24 24" fill="none" xmlns="http://www.w3.org/2000/svg">
<path d="M12.0002 3C7.03757 3.00149 3 7.03833 3 12C3 16.9617 7.03707 20.9985 12.0002 21C16.9629 20.9985 21 16.9612 21 12C21 7.03882 16.9629 3.00149 12.0002 3ZM3.81207 12C3.81207 8.1505 6.4833 4.9131 10.0697 4.04229C9.79902 4.25194 9.51494 4.49926 9.23136 4.79019C8.74451 5.28928 8.21949 5.96134 7.76933 6.83958H6.17344C5.94935 6.83958 5.7679 7.02148 5.7679 7.2455C5.7679 7.46952 5.94935 7.65092 6.17344 7.65092H7.40146C6.98105 8.70907 6.6821 10.0101 6.63698 11.5946H4.42138C4.19729 11.5946 4.01534 11.776 4.01534 12.0005C4.01534 12.225 4.19729 12.4059 4.42138 12.4059H6.63649C6.67913 13.9904 6.97758 15.2914 7.397 16.3491H6.17344C5.94935 16.3491 5.7679 16.531 5.7679 16.755C5.7679 16.979 5.94935 17.1604 6.17344 17.1604H7.76437C8.21453 18.0392 8.74005 18.7112 9.22739 19.2103C9.51098 19.5007 9.79456 19.7481 10.0652 19.9567C6.48082 19.0844 3.81207 15.848 3.81207 12ZM11.5972 19.9746C11.1431 19.7421 10.4569 19.3164 9.7777 18.6126C9.35431 18.174 8.98843 17.6892 8.67956 17.1604H11.5967V19.9746H11.5972ZM11.5972 16.3491H8.2656C7.76189 15.2067 7.48823 13.8888 7.44757 12.4059H11.5972V16.3491ZM11.5972 11.5946H7.44955C7.49269 10.1112 7.76933 8.79382 8.27353 7.65092H11.5972V11.5946ZM11.5972 6.83958H8.687C8.99587 6.31125 9.35927 5.82554 9.78216 5.38741C10.4599 4.68412 11.144 4.25888 11.5972 4.02594V6.83958ZM12.4033 4.02643C12.8564 4.25938 13.5406 4.68462 14.2183 5.38791C14.6407 5.82604 15.0046 6.31175 15.3135 6.84008H12.4033V4.02643ZM12.4033 7.65092H15.727C16.2317 8.79382 16.5078 10.1112 16.5509 11.5946H12.4033V7.65092ZM12.4033 12.4059H16.5529C16.5118 13.8888 16.2386 15.2067 15.7349 16.3491H12.4033V12.4059ZM12.4033 17.1604H15.3204C15.0116 17.6892 14.6457 18.174 14.2223 18.6126C13.5431 19.3164 12.8569 19.7416 12.4028 19.9746V17.1604H12.4033ZM13.9352 19.9567C14.2059 19.7476 14.4895 19.5002 14.7731 19.2103C15.2604 18.7112 15.786 18.0392 16.2361 17.1604H17.8271C18.0511 17.1604 18.2326 16.979 18.2326 16.755C18.2326 16.531 18.0511 16.3491 17.8271 16.3491H16.6035C17.0229 15.2909 17.3214 13.9899 17.364 12.4059H19.5791C19.8032 12.4059 19.9852 12.2245 19.9852 12.0005C19.9852 11.7765 19.8032 11.5946 19.5791 11.5946H17.3635C17.3184 10.0101 17.0189 8.70907 16.599 7.65092H17.8271C18.0511 7.65092 18.2326 7.46952 18.2326 7.2455C18.2326 7.02148 18.0511 6.83958 17.8271 6.83958H16.2312C15.781 5.96085 15.256 5.28878 14.7691 4.79019C14.4856 4.49926 14.2015 4.25194 13.9308 4.04229C17.5172 4.9131 20.1884 8.1505 20.1884 12C20.1884 15.8495 17.5197 19.0844 13.9352 19.9567Z" fill="#DBE2E6"/>
</svg>
