<svg xmlns="http://www.w3.org/2000/svg" width="24" height="24" fill="none"><path fill="#DBE2E6" fill-rule="evenodd" d="M12.054 3.046C17 3.075 21 7.072 21 12s-4 8.924-8.944 8.954L12 21l-.055-.046C7 20.925 3 16.928 3 12s4-8.925 8.946-8.954L11.999 3l.054.046zM4.703 9.813a7.58 7.58 0 0 0 0 4.373h3.014a10 10 0 0 1-.236-2.142c0-.716.088-1.491.255-2.232H4.703zm4.328 0a9.8 9.8 0 0 0-.267 2.233c0 .736.084 1.432.248 2.142h5.976c.164-.71.248-1.43.248-2.142s-.09-1.489-.267-2.233H9.03zm7.236 0a9.858 9.858 0 0 1 .018 4.375H19.3a7.58 7.58 0 0 0 0-4.373h-3.033zm2.664-.973a7.63 7.63 0 0 0-5.332-4.256c1.093 1.284 1.914 2.742 2.403 4.256h2.93zm-4.238 0a11.4 11.4 0 0 0-2.692-4.378A11.4 11.4 0 0 0 9.308 8.84h5.387zm-6.692 0a12.6 12.6 0 0 1 2.403-4.256A7.62 7.62 0 0 0 5.072 8.84h2.93zm-2.929 6.32a7.63 7.63 0 0 0 5.321 4.253c-1.105-1.287-1.93-2.74-2.414-4.253zm4.215 0a11.4 11.4 0 0 0 2.712 4.378 11.4 11.4 0 0 0 2.714-4.378zm6.735 0c-.484 1.515-1.309 2.967-2.414 4.253a7.62 7.62 0 0 0 5.322-4.253z" clip-rule="evenodd"/></svg>