<svg width="24" height="24" viewBox="0 0 24 24" fill="none" xmlns="http://www.w3.org/2000/svg">
<path fill-rule="evenodd" clip-rule="evenodd" d="M12.0544 3.04575C17 3.07472 21 7.0715 21 12C21 16.9285 17 20.9238 12.0559 20.9543L12.0008 21L11.9456 20.9543C7 20.9253 3 16.9285 3 12C3 7.0715 7 3.07472 11.9456 3.04575L11.9992 3L12.0529 3.04575H12.0544ZM4.70268 9.81329C4.49272 10.5056 4.38084 11.2406 4.38084 12C4.38084 12.7594 4.49425 13.4944 4.70268 14.1867H7.71724C7.56092 13.4792 7.48123 12.7609 7.48123 12.0442C7.48123 11.3275 7.56858 10.5529 7.73563 9.81176H4.70268V9.81329ZM9.03065 9.81329C8.85594 10.5574 8.76399 11.3092 8.76399 12.0457C8.76399 12.7823 8.84828 13.4776 9.01226 14.1882H14.9877C15.1517 13.4776 15.236 12.7579 15.236 12.0457C15.236 11.3336 15.1456 10.5574 14.9693 9.81329H9.02912H9.03065ZM16.2674 9.81329C16.4345 10.5544 16.5218 11.3031 16.5218 12.0457C16.5218 12.7884 16.4406 13.4792 16.2858 14.1882H19.3004C19.5103 13.4959 19.6222 12.7609 19.6222 12.0015C19.6222 11.2421 19.5088 10.5071 19.3004 9.81481H16.2674V9.81329ZM18.931 8.84039C17.941 6.69485 15.9762 5.08912 13.5992 4.58438C14.692 5.86835 15.5134 7.32616 16.0023 8.84039H18.9326H18.931ZM14.6935 8.84039C14.1556 7.23467 13.233 5.70366 12.0008 4.46239C10.7686 5.70366 9.84598 7.23467 9.30804 8.84039H14.695H14.6935ZM8.00076 8.84039C8.48965 7.32616 9.30958 5.86835 10.4038 4.58438C8.02682 5.08912 6.06053 6.69485 5.07203 8.84039H8.0023H8.00076ZM5.07203 15.1596C6.06053 17.3006 8.02222 18.9063 10.3931 19.4126C9.28812 18.1256 8.4636 16.6738 7.97931 15.1596H5.07203ZM9.28659 15.1596C9.82145 16.7608 10.7533 18.2811 11.9992 19.5376C13.2467 18.2811 14.177 16.7608 14.7134 15.1596H9.28659ZM16.0222 15.1596C15.5379 16.6754 14.7134 18.1271 13.6084 19.4126C15.9808 18.9063 17.9425 17.3006 18.9295 15.1596H16.0222Z" fill="#DBE2E6"/>
</svg>
