<svg xmlns="http://www.w3.org/2000/svg" width="24" height="24" fill="none"><path fill="#DBE2E6" d="M20.678 19.031H3.24a.703.703 0 0 1-.703-.703V6.516a.703.703 0 0 1 .703-.703h17.438a.703.703 0 0 1 .703.703v11.812a.703.703 0 0 1-.703.703M3.944 17.625h16.03V7.22H3.945z"/><path fill="#DBE2E6" d="M11.96 15.75a.7.7 0 0 1-.493-.2L2.75 7.017a.703.703 0 0 1 .984-1.005l8.226 8.05 8.227-8.05a.704.704 0 0 1 .985 1.005l-8.72 8.531a.7.7 0 0 1-.492.201"/><path fill="#DBE2E6" d="M3.24 19.031a.703.703 0 0 1-.468-1.225l6.275-5.67a.704.704 0 1 1 .942 1.044l-6.277 5.672a.7.7 0 0 1-.471.18M20.678 19.031a.7.7 0 0 1-.47-.181l-6.277-5.672a.703.703 0 0 1 .943-1.044l6.277 5.672a.704.704 0 0 1-.473 1.225"/></svg>