<svg xmlns="http://www.w3.org/2000/svg" width="24" height="24" fill="none"><path fill="#DBE2E6" d="M17.41 21.094H6.683a2.35 2.35 0 0 1-2.349-2.35V4.6a2.35 2.35 0 0 1 2.35-2.349h7.035a.7.7 0 0 1 .498.206l5.338 5.338a.7.7 0 0 1 .206.497v10.453a2.35 2.35 0 0 1-2.35 2.35M6.683 3.656a.944.944 0 0 0-.942.943v14.146a.943.943 0 0 0 .942.942h10.729a.943.943 0 0 0 .942-.942V8.582l-4.926-4.926z"/><path fill="#DBE2E6" d="M19.056 8.994h-3.692a2.35 2.35 0 0 1-2.349-2.349V2.953a.703.703 0 0 1 1.406 0v3.692a.943.943 0 0 0 .943.943h3.692a.703.703 0 1 1 0 1.406M12.047 18.454a.7.7 0 0 1-.498-.206l-3.49-3.49a2.72 2.72 0 1 1 3.847-3.847l.14.14.141-.14a2.723 2.723 0 0 1 3.847 0 2.723 2.723 0 0 1 0 3.847l-3.49 3.49a.7.7 0 0 1-.497.206m-2.063-6.933a1.312 1.312 0 0 0-.929 2.243l2.992 2.993 2.993-2.993a1.314 1.314 0 0 0-1.859-1.858l-.637.638a.703.703 0 0 1-.995 0l-.637-.638a1.3 1.3 0 0 0-.928-.385"/></svg>