<svg xmlns="http://www.w3.org/2000/svg" width="24" height="24" fill="none"><path fill="#DBE2E6" d="M17.813 21.094H6.703A.703.703 0 0 1 6 20.39V10.015a.703.703 0 0 1 .703-.703h11.11a.703.703 0 0 1 .703.703v10.376a.703.703 0 0 1-.703.703M7.406 19.687h9.703v-8.969H7.406z"/><path fill="#DBE2E6" d="M16.484 10.718h-8.45a.703.703 0 1 1 0-1.406h7.747V7.178a3.522 3.522 0 0 0-7.043 0 .703.703 0 0 1-1.406 0 4.928 4.928 0 0 1 9.855 0v2.837a.703.703 0 0 1-.703.703M12.26 16.531a2.18 2.18 0 1 1 0-4.359 2.18 2.18 0 0 1 0 4.36m0-2.953a.773.773 0 1 0 0 1.547.773.773 0 0 0 0-1.547"/><path fill="#DBE2E6" d="M12.26 18.234a.703.703 0 0 1-.703-.703v-1.703a.703.703 0 0 1 1.406 0v1.703a.703.703 0 0 1-.703.703"/></svg>