<svg xmlns="http://www.w3.org/2000/svg" width="24" height="24" fill="none"><path fill="#DBE2E6" d="M17.063 21.094a.7.7 0 0 1-.53-.24L12.82 16.61H5.561a3.027 3.027 0 0 1-3.023-3.024V5.274A3.027 3.027 0 0 1 5.56 2.25h12.797a3.027 3.027 0 0 1 3.024 3.024v8.312a3.027 3.027 0 0 1-3.024 3.024h-.592v3.78a.703.703 0 0 1-.703.704M5.56 3.656a1.62 1.62 0 0 0-1.617 1.618v8.312a1.62 1.62 0 0 0 1.617 1.617h7.578a.7.7 0 0 1 .53.24l2.69 3.077v-2.613a.703.703 0 0 1 .703-.704h1.294a1.62 1.62 0 0 0 1.617-1.617V5.274a1.62 1.62 0 0 0-1.615-1.618z"/><path fill="#DBE2E6" d="M9.358 12.375a.71.71 0 0 1-.674-.499.645.645 0 0 1-.027-.273 1 1 0 0 1 .027-.135q.01-.032.023-.065a.8.8 0 0 1 .152-.229.71.71 0 0 1 .702-.175q.032.01.065.024a.74.74 0 0 1 .274.204.6.6 0 0 1 .106.176.8.8 0 0 1 .05.2l.004.07q.001.033-.004.069l-.01.068a.6.6 0 0 1-.04.131.8.8 0 0 1-.106.177.6.6 0 0 1-.098.099.6.6 0 0 1-.114.075.7.7 0 0 1-.262.08q-.033.004-.068.003M14.561 12.375q-.035 0-.069-.003l-.068-.01a.6.6 0 0 1-.132-.04.8.8 0 0 1-.176-.106.7.7 0 0 1-.175-.214.7.7 0 0 1-.053-.126c-.007-.022-.012-.047-.017-.067a.7.7 0 0 1-.013-.138q0-.034.003-.069l.01-.068a.7.7 0 0 1 .07-.194.8.8 0 0 1 .123-.166 1 1 0 0 1 .107-.088.7.7 0 0 1 .186-.088c.021-.007.047-.012.067-.017l.068-.01a.8.8 0 0 1 .274.027.8.8 0 0 1 .186.088.8.8 0 0 1 .153.14.7.7 0 0 1 .13.241l.016.067a.7.7 0 0 1-.017.344.8.8 0 0 1-.088.186 1 1 0 0 1-.087.107 1 1 0 0 1-.107.087.7.7 0 0 1-.186.088.6.6 0 0 1-.135.028q-.034.002-.07.001M11.96 12.375a.7.7 0 0 1-.27-.054.8.8 0 0 1-.176-.105.6.6 0 0 1-.098-.099 1 1 0 0 1-.077-.115l-.03-.062a.8.8 0 0 1-.053-.269.7.7 0 0 1 .083-.33.68.68 0 0 1 .416-.343.7.7 0 0 1 .411 0 .8.8 0 0 1 .186.088.68.68 0 0 1 .26.316l.023.065.017.067a.7.7 0 0 1-.017.341.6.6 0 0 1-.053.127.8.8 0 0 1-.123.167 1 1 0 0 1-.107.087.8.8 0 0 1-.186.088.7.7 0 0 1-.207.031"/></svg>