<svg xmlns="http://www.w3.org/2000/svg" width="24" height="24" fill="none"><path fill="#DBE2E6" d="M14.94 15.435a.7.7 0 0 1-.497-.206L6.287 7.073a.703.703 0 0 1 0-.995l3.58-3.58a.703.703 0 0 1 .994 0l8.156 8.157a.7.7 0 0 1 0 .994l-3.58 3.58a.7.7 0 0 1-.497.206m-7.164-8.86 7.164 7.162 2.586-2.585-7.167-7.164z"/><path fill="#DBE2E6" d="M12.703 14.586a.703.703 0 0 1-.497-1.2l4.967-4.966a.703.703 0 1 1 .995.994l-4.966 4.965a.7.7 0 0 1-.499.207M7.631 9.512a.703.703 0 0 1-.497-1.2l4.965-4.966a.703.703 0 1 1 .995.994L8.128 9.306a.7.7 0 0 1-.497.206M4.627 18.855a1.969 1.969 0 0 1-1.393-3.36L9.47 9.26a.703.703 0 0 1 .994 0l1.79 1.79a.703.703 0 0 1 0 .994L6.02 18.278a1.96 1.96 0 0 1-1.392.577m5.34-8.103L4.23 16.49a.563.563 0 1 0 .796.797l5.736-5.738zM20.678 21.094h-7.319a.703.703 0 0 1-.703-.703v-1.093a1.86 1.86 0 0 1 1.86-1.86h5.006a1.86 1.86 0 0 1 1.86 1.86v1.093a.703.703 0 0 1-.704.703m-6.616-1.407h5.913v-.39a.454.454 0 0 0-.453-.453h-5.006a.454.454 0 0 0-.453.453z"/></svg>