<svg xmlns="http://www.w3.org/2000/svg" width="24" height="24" fill="none"><path fill="#DBE2E6" d="M15.958 11.687a.7.7 0 0 1-.268-.053.7.7 0 0 1-.178-.106.71.71 0 0 1-.253-.474.69.69 0 0 1 .311-.654.7.7 0 0 1 .253-.105.7.7 0 0 1 .406.04.6.6 0 0 1 .122.065.6.6 0 0 1 .107.088.7.7 0 0 1 .175.293l.017.066a.7.7 0 0 1-.017.342.8.8 0 0 1-.13.242.6.6 0 0 1-.098.098.6.6 0 0 1-.114.076.8.8 0 0 1-.194.07 1 1 0 0 1-.139.012"/><path fill="#DBE2E6" d="M16.422 19.969H13.54a.703.703 0 0 1-.703-.703v-.825a9.4 9.4 0 0 1-3.304-.245v1.07a.703.703 0 0 1-.703.703H5.948a.703.703 0 0 1-.703-.703v-3.811c-.829-1.078-1.265-2.328-1.265-3.625 0-1.805.837-3.494 2.358-4.756 1.482-1.23 3.445-1.907 5.528-1.907a9.1 9.1 0 0 1 2.917.468l1.936-1.593a.703.703 0 0 1 1.15.556l-.056 2.85a6.6 6.6 0 0 1 1.379 1.906h1.488a.703.703 0 0 1 .703.703v3.406a.703.703 0 0 1-.703.704h-1.425c-.445 1.01-1.172 1.907-2.128 2.63v2.469a.7.7 0 0 1-.705.703m-2.179-1.407h1.476v-2.127a.7.7 0 0 1 .307-.58c1.012-.69 1.732-1.597 2.083-2.621a.7.7 0 0 1 .718-.474h1.148v-2h-1.197a.7.7 0 0 1-.71-.454c-.282-.748-.776-1.45-1.433-2.03a.7.7 0 0 1-.237-.542l.034-1.636-1.065.877a.7.7 0 0 1-.703.112 7.7 7.7 0 0 0-2.799-.516c-3.573 0-6.48 2.36-6.48 5.258 0 1.047.382 2.06 1.103 2.929a.7.7 0 0 1 .163.45v3.355h1.476V17.23a.703.703 0 0 1 .957-.657c.887.342 1.83.515 2.781.511q.776 0 1.538-.151a.704.704 0 0 1 .84.691z"/><path fill="#DBE2E6" d="M12.943 8.672h-2.754a.703.703 0 1 1 0-1.406h2.754a.703.703 0 1 1 0 1.406M4.683 12.531H3.24a.703.703 0 0 1 0-1.406h1.443a.703.703 0 0 1 0 1.406"/></svg>