<svg xmlns="http://www.w3.org/2000/svg" width="24" height="24" fill="none"><path fill="#DBE2E6" d="M12.047 21.63c-5.344 0-9.69-4.346-9.69-9.69s4.346-9.69 9.69-9.69 9.69 4.347 9.69 9.69c0 5.344-4.346 9.69-9.69 9.69m0-17.974c-4.568 0-8.284 3.716-8.284 8.285 0 4.567 3.716 8.284 8.284 8.284s8.284-3.717 8.284-8.285-3.716-8.284-8.284-8.284"/><path fill="#DBE2E6" d="M12.047 18.844a6.91 6.91 0 0 1-6.905-6.904 6.91 6.91 0 0 1 6.905-6.905 6.913 6.913 0 0 1 6.905 6.906c0 3.807-3.098 6.903-6.905 6.903m0-12.404a5.499 5.499 0 1 0 5.499 5.5 5.505 5.505 0 0 0-5.499-5.498z"/><path fill="#DBE2E6" d="M14.39 12.644h-2.343a.703.703 0 0 1-.703-.703V8.108a.703.703 0 1 1 1.406 0v3.128h1.64a.703.703 0 0 1 0 1.407"/></svg>