<svg xmlns="http://www.w3.org/2000/svg" width="24" height="24" fill="none"><path fill="#DBE2E6" d="M19.377 21.03H4.542a.703.703 0 0 1-.703-.702V10.21a.703.703 0 0 1 .703-.703h14.835a.703.703 0 0 1 .703.703v10.118a.703.703 0 0 1-.703.703M5.245 19.626h13.429v-8.712H5.245z"/><path fill="#DBE2E6" d="M20.647 10.913H3.272a.703.703 0 0 1-.703-.703V6.431a.703.703 0 0 1 .703-.703h17.375a.703.703 0 0 1 .703.703v3.78a.703.703 0 0 1-.703.702M3.975 9.507h15.969V7.134H3.975z"/><path fill="#DBE2E6" d="M11.959 7.134a.7.7 0 0 1-.434-.15L7.453 3.78a.573.573 0 0 0-.928.451v2.2a.703.703 0 0 1-1.406 0v-2.2a1.98 1.98 0 0 1 3.204-1.556l4.07 3.203a.702.702 0 0 1-.435 1.255"/><path fill="#DBE2E6" d="M11.96 7.134a.703.703 0 0 1-.435-1.255l4.07-3.203A1.98 1.98 0 0 1 18.8 4.232v2.2a.703.703 0 0 1-1.407 0v-2.2a.573.573 0 0 0-.928-.45l-4.07 3.202a.7.7 0 0 1-.435.15"/></svg>