<svg xmlns="http://www.w3.org/2000/svg" width="24" height="24" fill="none"><path fill="#DBE2E6" d="M18.994 21.094H5.824a.703.703 0 0 1-.702-.703V7.695a.703.703 0 0 1 .703-.703h13.172a.703.703 0 0 1 .703.703v12.696a.704.704 0 0 1-.706.703M6.528 19.687h11.766V8.399H6.528z"/><path fill="#DBE2E6" d="M14.86 10.232a.703.703 0 0 1-.704-.703V5.324a1.669 1.669 0 1 0-3.335 0V9.53a.703.703 0 1 1-1.406 0V5.324a3.074 3.074 0 1 1 6.147 0V9.53a.703.703 0 0 1-.703.703"/><path fill="#DBE2E6" d="M14.604 18.338a.7.7 0 0 1-.328-.08l-1.867-.983-1.868.982a.702.702 0 0 1-1.02-.74l.356-2.08-1.51-1.473a.703.703 0 0 1 .39-1.2l2.088-.303.934-1.893a.704.704 0 0 1 1.261 0l.934 1.893 2.088.303a.702.702 0 0 1 .391 1.2l-1.511 1.472.357 2.08a.705.705 0 0 1-.694.822m-2.194-2.56c.114 0 .226.028.328.08l.934.492-.179-1.04a.7.7 0 0 1 .202-.623l.756-.736-1.045-.152a.7.7 0 0 1-.53-.384l-.468-.947-.469.947a.7.7 0 0 1-.529.384l-1.044.152.755.736a.7.7 0 0 1 .203.623l-.179 1.04.935-.491a.7.7 0 0 1 .33-.08"/></svg>