<svg xmlns="http://www.w3.org/2000/svg" width="24" height="24" fill="none"><path fill="#DBE2E6" d="M8.21 8.568c-1.313 0-2.562-.286-3.512-.805-1.083-.591-1.68-1.43-1.68-2.354s.597-1.76 1.68-2.353c.95-.52 2.196-.806 3.511-.806s2.562.286 3.51.806c1.084.592 1.68 1.428 1.68 2.353s-.595 1.763-1.68 2.354c-.948.519-2.195.805-3.51.805m0-4.912c-1.068 0-2.102.23-2.837.633-.603.328-.949.738-.949 1.12 0 .381.346.79.95 1.12.734.402 1.768.633 2.835.633s2.102-.231 2.837-.633c.603-.328.948-.739.948-1.12s-.345-.79-.948-1.12c-.733-.402-1.77-.633-2.837-.633"/><path fill="#DBE2E6" d="M19.288 11.724a.704.704 0 0 1-.46-1.235c.205-.177.45-.455.45-.778 0-.828-1.62-1.753-3.786-1.753-.918 0-1.81.169-2.513.476a.703.703 0 0 1-.563-1.29c.889-.387 1.953-.592 3.076-.592 1.315 0 2.562.286 3.511.805 1.084.593 1.68 1.429 1.68 2.354 0 .676-.323 1.312-.937 1.843a.7.7 0 0 1-.458.17M8.21 17.476c-1.313 0-2.562-.287-3.512-.806-1.083-.592-1.68-1.429-1.68-2.353V5.41a.703.703 0 0 1 1.406 0v8.907c0 .381.346.789.949 1.119.735.403 1.769.633 2.836.633a6.8 6.8 0 0 0 2.094-.316q.16-.053.3-.11a.703.703 0 0 1 .528 1.304 5 5 0 0 1-.388.14 8.2 8.2 0 0 1-2.534.389"/><path fill="#DBE2E6" d="M12.698 11.231a.703.703 0 0 1-.704-.703v-5.12a.703.703 0 0 1 1.407 0v5.12a.703.703 0 0 1-.703.703M8.21 15.196c-1.313 0-2.562-.286-3.512-.806-1.083-.593-1.68-1.428-1.68-2.353a.703.703 0 0 1 1.406 0c0 .827 1.619 1.753 3.785 1.753a6.8 6.8 0 0 0 2.094-.316 5 5 0 0 0 .427-.163.703.703 0 1 1 .567 1.286 6 6 0 0 1-.552.212 8.2 8.2 0 0 1-2.536.387"/><path fill="#DBE2E6" d="M8.21 12.916c-1.313 0-2.562-.286-3.512-.805-1.083-.593-1.68-1.429-1.68-2.353a.703.703 0 0 1 1.406 0c0 .827 1.619 1.752 3.785 1.752.894 0 1.737-.153 2.438-.443a.704.704 0 0 1 .538 1.3c-.87.36-1.899.55-2.976.55M12.39 11.356a.704.704 0 0 1-.572-1.112c.109-.14.17-.31.176-.486a.703.703 0 0 1 1.406 0c0 .458-.147.896-.437 1.303a.7.7 0 0 1-.573.294"/><path fill="#DBE2E6" d="M8.21 10.637c-1.313 0-2.562-.286-3.512-.806-1.083-.593-1.68-1.429-1.68-2.353a.703.703 0 0 1 1.406 0c0 .382.346.79.95 1.12.734.402 1.768.633 2.835.633s2.104-.231 2.837-.634c.603-.328.948-.737.948-1.119a.703.703 0 0 1 1.407 0c0 .924-.597 1.76-1.68 2.353-.95.52-2.197.806-3.512.806M15.492 16.198c-1.443 0-2.812-.314-3.851-.883-1.174-.642-1.82-1.544-1.82-2.54 0-.994.646-1.896 1.82-2.538 1.04-.57 2.408-.883 3.851-.883s2.813.314 3.851.883c1.174.642 1.821 1.546 1.821 2.539 0 .992-.647 1.896-1.821 2.539-1.04.57-2.407.883-3.85.883m0-5.438c-1.194 0-2.351.259-3.176.71-.692.38-1.09.855-1.09 1.306 0 .45.398.927 1.09 1.305.825.45 1.98.71 3.176.71 1.195 0 2.351-.258 3.176-.71.693-.378 1.09-.854 1.09-1.305s-.399-.927-1.09-1.306c-.825-.451-1.98-.71-3.176-.71"/><path fill="#DBE2E6" d="M15.492 21.245c-1.443 0-2.812-.313-3.851-.883-1.174-.642-1.82-1.544-1.82-2.54v-5.046a.703.703 0 1 1 1.406 0v5.047c0 .45.397.927 1.09 1.306.824.45 1.981.71 3.175.71s2.351-.26 3.176-.71c.691-.379 1.09-.855 1.09-1.306v-5.047a.703.703 0 0 1 1.406 0v5.047c0 .995-.647 1.897-1.821 2.539-1.04.57-2.407.883-3.85.883"/><path fill="#DBE2E6" d="M15.492 18.721c-1.443 0-2.812-.313-3.851-.882-1.174-.643-1.82-1.545-1.82-2.54a.703.703 0 1 1 1.406 0c0 .451.397.927 1.09 1.306.824.451 1.981.71 3.175.71s2.351-.259 3.176-.71c.691-.379 1.09-.855 1.09-1.306a.703.703 0 0 1 1.406 0c0 .995-.647 1.897-1.821 2.54-1.04.569-2.407.882-3.85.882M19.98 12.383a.703.703 0 0 1-.703-.703V9.71a.703.703 0 0 1 1.407 0v1.969a.703.703 0 0 1-.704.703"/></svg>