<svg xmlns="http://www.w3.org/2000/svg" width="24" height="24" fill="none"><path fill="#DBE2E6" d="M17.562 17.156H14.78a3.41 3.41 0 0 1-3.407-3.406V7.168a3.41 3.41 0 0 1 3.407-3.406h2.783a.703.703 0 0 1 .703.703v11.988a.703.703 0 0 1-.703.703M14.78 5.168a2 2 0 0 0-2 2v6.583a2 2 0 0 0 2 1.999h2.08V5.168z"/><path fill="#DBE2E6" d="M12.312 15.7h-5.52a4.26 4.26 0 0 1-4.255-4.254v-1.97a4.26 4.26 0 0 1 4.255-4.254h5.518a.703.703 0 0 1 0 1.407H6.792a2.85 2.85 0 0 0-2.848 2.848v1.968a2.85 2.85 0 0 0 2.848 2.849h5.52a.703.703 0 0 1 0 1.406"/><path fill="#DBE2E6" d="M9.183 20.663a2.166 2.166 0 0 1-2.112-1.718l-.79-3.804a.703.703 0 1 1 1.377-.287l.79 3.802a.751.751 0 1 0 1.47-.306l-.668-3.21a.703.703 0 1 1 1.377-.286l.67 3.211a2.155 2.155 0 0 1-2.112 2.598zM17.562 14.279a.703.703 0 1 1 0-1.407 2.414 2.414 0 0 0 0-4.828.703.703 0 1 1 0-1.406 3.82 3.82 0 1 1 0 7.64"/></svg>