<svg xmlns="http://www.w3.org/2000/svg" width="24" height="24" fill="none"><path fill="#DBE2E6" d="M18.553 18.723H5.366a2.83 2.83 0 0 1-2.829-2.828V8.212a2.83 2.83 0 0 1 2.829-2.827h13.187a2.83 2.83 0 0 1 2.828 2.827v7.683a2.83 2.83 0 0 1-2.828 2.828M5.366 6.791a1.424 1.424 0 0 0-1.422 1.421v7.683a1.423 1.423 0 0 0 1.422 1.422h13.187a1.423 1.423 0 0 0 1.422-1.422V8.212a1.423 1.423 0 0 0-1.422-1.421z"/><path fill="#DBE2E6" d="M20.678 12.55H3.24a.703.703 0 0 1-.703-.704v-2.9a.703.703 0 0 1 .703-.704h17.438a.703.703 0 0 1 .703.703v2.901a.703.703 0 0 1-.703.703M3.944 11.142h16.03V9.648H3.945zM7.209 14.813H5.417a.703.703 0 0 1 0-1.407h1.792a.703.703 0 0 1 0 1.406M10.842 14.813H9.05a.703.703 0 0 1 0-1.407h1.792a.703.703 0 1 1 0 1.406M14.475 14.813h-1.792a.703.703 0 0 1 0-1.407h1.792a.703.703 0 1 1 0 1.406"/></svg>