<svg xmlns="http://www.w3.org/2000/svg" width="24" height="24" fill="none"><path fill="#DBE2E6" d="M18.89 21.094H5.029a2.493 2.493 0 0 1-2.49-2.49v-5.426a2.493 2.493 0 0 1 2.49-2.49H18.89a2.493 2.493 0 0 1 2.49 2.49v5.426a2.493 2.493 0 0 1-2.49 2.49m-13.862-9a1.085 1.085 0 0 0-1.084 1.084v5.426a1.085 1.085 0 0 0 1.084 1.084H18.89a1.084 1.084 0 0 0 1.083-1.084v-5.426a1.085 1.085 0 0 0-1.083-1.084z"/><path fill="#DBE2E6" d="M16.064 12.094H7.855a.704.704 0 0 1-.586-1.092l3.278-4.947a.703.703 0 0 1 1.172.777l-2.554 3.856h5.589l-2.555-3.856a.704.704 0 1 1 1.172-.777l3.279 4.947a.703.703 0 0 1-.586 1.092M5.709 16.652v-1.45c0-.94.585-1.29 1.34-1.29s1.346.35 1.346 1.29v1.45c0 .941-.59 1.291-1.346 1.291-.755 0-1.34-.35-1.34-1.29m1.833-1.45c0-.377-.188-.546-.493-.546s-.486.169-.486.547v1.45c0 .377.18.546.487.546.306 0 .492-.17.492-.547z"/><path fill="#DBE2E6" d="M7.05 17.961c-.877 0-1.36-.465-1.36-1.309v-1.45c0-.843.482-1.308 1.36-1.308.876 0 1.363.464 1.363 1.309v1.45c0 .843-.485 1.308-1.364 1.308m0-4.031c-1.094 0-1.324.692-1.324 1.273v1.45c0 .581.23 1.274 1.323 1.274.857 0 1.329-.453 1.329-1.274v-1.45c0-.822-.472-1.274-1.329-1.274m0 3.288c-.329 0-.505-.195-.505-.563v-1.453c0-.369.174-.564.504-.564s.51.195.51.565v1.45c0 .369-.176.564-.51.564m0-2.544q-.469.001-.47.53v1.45c0 .35.158.529.47.529.31 0 .474-.179.474-.53v-1.45q-.001-.53-.475-.531zM9.079 14.168c0-.136.126-.257.317-.257h1.133c.722 0 1.291.34 1.291 1.259v.027c0 .92-.591 1.27-1.346 1.27h-.542v1.181c0 .175-.213.262-.426.262s-.427-.087-.427-.262zm.853.488v1.153h.542c.306 0 .492-.174.492-.546v-.06c0-.373-.187-.547-.492-.547z"/><path fill="#DBE2E6" d="M9.506 17.928c-.214 0-.444-.087-.444-.281v-3.479c0-.156.143-.274.334-.274h1.133c.844 0 1.309.453 1.309 1.276v.027c0 .83-.485 1.287-1.364 1.287H9.95v1.164c0 .193-.23.28-.444.28m-.11-4c-.17 0-.3.104-.3.24v3.48c0 .168.213.245.41.245s.41-.077.41-.245v-1.2h.558c.496 0 1.328-.162 1.328-1.251v-.027c0-.8-.452-1.241-1.273-1.241zm1.078 1.9h-.559v-1.19h.56c.328 0 .51.2.51.565v.06c0 .364-.182.564-.51.564m-.524-.036h.524c.31 0 .475-.183.475-.53v-.06c0-.346-.164-.53-.475-.53H9.95zM13.182 15.58h.821c.164 0 .257.159.257.334 0 .147-.076.323-.257.323h-.82v.93h1.466c.164 0 .257.174.257.375 0 .175-.077.366-.257.366h-1.946c-.187 0-.372-.088-.372-.262v-3.472c0-.175.188-.263.372-.263h1.946c.18 0 .257.192.257.367 0 .202-.094.377-.257.377h-1.467z"/><path fill="#DBE2E6" d="M14.649 17.928h-1.946c-.187 0-.39-.087-.39-.281v-3.473c0-.193.203-.281.39-.281h1.946c.19 0 .274.192.274.384 0 .234-.113.395-.274.395h-1.45v.89h.804c.18 0 .275.177.275.352 0 .164-.087.34-.275.34H13.2v.895h1.449c.161 0 .274.162.274.395 0 .191-.085.384-.274.384m-1.946-4c-.17 0-.354.077-.354.246v3.474c0 .168.184.245.354.245h1.946c.165 0 .24-.175.24-.35 0-.173-.076-.36-.24-.36h-1.484v-.964h.838c.165 0 .24-.158.24-.305 0-.157-.083-.316-.24-.316h-.838v-.96h1.484c.164 0 .24-.188.24-.36 0-.173-.075-.35-.24-.35zM17.307 17.68l-1.04-1.892v1.86c0 .175-.213.262-.426.262s-.427-.087-.427-.262v-3.474c0-.18.214-.263.427-.263.306 0 .422.028.63.427l.885 1.69v-1.86c0-.18.214-.257.427-.257.214 0 .427.077.427.257v3.48c0 .175-.213.262-.427.262-.197 0-.372-.038-.476-.23"/><path fill="#DBE2E6" d="M17.783 17.928c-.179 0-.377-.028-.491-.239l-1.007-1.833v1.792c0 .193-.23.281-.444.281s-.444-.087-.444-.281v-3.474c0-.194.223-.281.444-.281.316 0 .435.034.645.436l.853 1.627v-1.788c0-.202.239-.274.444-.274s.445.072.445.274v3.48c0 .193-.23.28-.445.28M16.25 15.72l1.073 1.953c.105.194.283.22.46.22.197 0 .41-.076.41-.244v-3.48c0-.176-.221-.24-.41-.24s-.409.064-.409.24V16.1l-.921-1.754c-.207-.397-.319-.417-.614-.417-.203 0-.409.075-.409.245v3.474c0 .168.213.245.41.245s.409-.077.409-.245zM11.96 7.396A2.198 2.198 0 1 1 11.956 3a2.198 2.198 0 0 1 .002 4.396m0-2.99a.792.792 0 1 0-.003 1.583.792.792 0 0 0 .002-1.583"/></svg>