<svg xmlns="http://www.w3.org/2000/svg" width="24" height="24" fill="none"><path fill="#DBE2E6" d="M19.453 14.344H6.797a.703.703 0 0 1-.699-.62l-.856-7.208v-.02l-.194-1.621H3.24a.703.703 0 0 1 0-1.406h2.432a.703.703 0 0 1 .698.62l.193 1.63h14.115a.703.703 0 0 1 .693.82l-1.225 7.22a.7.7 0 0 1-.693.585M7.421 12.938H18.86l.984-5.813H6.731z"/><path fill="#DBE2E6" d="M18.173 16.688H7.075a.703.703 0 0 1-.698-.62L5.651 9.96a.703.703 0 1 1 1.397-.166L7.7 15.28h10.473a.703.703 0 1 1 0 1.406M8.587 21.008a1.991 1.991 0 1 1 0-3.983 1.991 1.991 0 0 1 0 3.983m0-2.579a.586.586 0 1 0 0 1.172.586.586 0 0 0 0-1.172M16.402 21.008a1.991 1.991 0 1 1 0-3.983 1.991 1.991 0 0 1 0 3.983m0-2.579a.585.585 0 1 0 0 1.171.585.585 0 0 0 0-1.17M13.594 7.125H9a.703.703 0 0 1-.703-.703V3A.703.703 0 0 1 9 2.297h4.594a.703.703 0 0 1 .703.703v3.422a.703.703 0 0 1-.703.703m-3.89-1.406h3.187V3.703H9.703z"/><path fill="#DBE2E6" d="M19.053 7.125h-5.46a.703.703 0 0 1-.702-.703V3.989a.703.703 0 0 1 .703-.704h5.46a.703.703 0 0 1 .702.704v2.433a.703.703 0 0 1-.703.703m-4.756-1.406h4.053V4.692h-4.053z"/></svg>