<svg xmlns="http://www.w3.org/2000/svg" width="24" height="24" fill="none"><path fill="#DBE2E6" d="M12.422 9.094c-1.443 0-2.813-.314-3.85-.883-1.175-.643-1.822-1.544-1.822-2.54 0-.994.647-1.896 1.821-2.538 1.038-.57 2.408-.883 3.85-.883 1.444 0 2.813.314 3.852.883 1.174.642 1.82 1.544 1.82 2.539s-.646 1.896-1.82 2.54c-1.039.568-2.408.882-3.851.882m0-5.438c-1.194 0-2.351.259-3.176.71-.693.38-1.09.855-1.09 1.306 0 .45.397.927 1.09 1.305.825.452 1.982.71 3.176.71s2.351-.258 3.176-.71c.693-.378 1.09-.854 1.09-1.305s-.397-.927-1.09-1.306c-.825-.451-1.982-.71-3.176-.71"/><path fill="#DBE2E6" d="M12.422 21.06c-1.443 0-2.813-.314-3.85-.884-1.173-.642-1.822-1.544-1.822-2.539V5.672a.703.703 0 1 1 1.406 0v11.965c0 .451.397.927 1.09 1.306.825.451 1.982.71 3.176.71s2.351-.259 3.176-.71c.693-.38 1.09-.855 1.09-1.306V5.672a.703.703 0 0 1 1.406 0v11.965c0 .995-.647 1.897-1.821 2.54-1.039.569-2.408.882-3.851.882"/><path fill="#DBE2E6" d="M12.422 18.955c-1.443 0-2.813-.314-3.85-.883-1.173-.642-1.822-1.547-1.822-2.539a.703.703 0 1 1 1.406 0c0 .45.397.927 1.09 1.305.825.451 1.982.71 3.176.71s2.351-.259 3.176-.71c.693-.378 1.09-.854 1.09-1.305a.703.703 0 1 1 1.406 0c0 .995-.647 1.897-1.821 2.54-1.039.568-2.408.882-3.851.882"/><path fill="#DBE2E6" d="M12.422 16.431c-1.443 0-2.813-.314-3.85-.883-1.175-.642-1.822-1.544-1.822-2.539a.703.703 0 0 1 1.406 0c0 .451.397.927 1.09 1.306.825.451 1.982.71 3.176.71s2.351-.259 3.176-.71c.693-.38 1.09-.855 1.09-1.306a.703.703 0 0 1 1.406 0c0 .995-.647 1.897-1.821 2.54-1.039.569-2.408.882-3.851.882"/><path fill="#DBE2E6" d="M12.422 13.907c-1.443 0-2.813-.313-3.85-.882-1.173-.643-1.822-1.544-1.822-2.54a.703.703 0 0 1 1.406 0c0 .451.397.927 1.09 1.306.825.451 1.982.71 3.176.71s2.351-.259 3.176-.71c.693-.379 1.09-.855 1.09-1.306a.703.703 0 0 1 1.406 0c0 .996-.647 1.898-1.821 2.54-1.039.569-2.408.882-3.851.882"/><path fill="#DBE2E6" d="M12.422 11.384c-1.443 0-2.813-.314-3.85-.883C7.398 9.86 6.75 8.957 6.75 7.962a.703.703 0 0 1 1.406 0c0 .451.397.927 1.09 1.306.825.451 1.982.71 3.176.71s2.351-.259 3.176-.71c.693-.38 1.09-.855 1.09-1.306a.703.703 0 0 1 1.406 0c0 .995-.647 1.897-1.821 2.54-1.039.568-2.408.882-3.851.882"/></svg>