<svg xmlns="http://www.w3.org/2000/svg" width="24" height="24" fill="none"><path fill="#DBE2E6" d="M5.11 21.094a.703.703 0 0 1-.704-.703V2.953a.703.703 0 0 1 1.407 0v17.438a.703.703 0 0 1-.704.703"/><path fill="#DBE2E6" d="M20.678 19.125H3.24a.703.703 0 0 1 0-1.406h17.438a.703.703 0 1 1 0 1.406M7.87 15.938a.703.703 0 0 1-.6-1.067l3.035-5.02a.704.704 0 0 1 1.226.04l1.909 3.634 5.408-7.91a.704.704 0 0 1 1.268.542.7.7 0 0 1-.108.253l-6.07 8.871a.704.704 0 0 1-1.203-.07l-1.872-3.566-2.39 3.953a.7.7 0 0 1-.602.34"/></svg>