<svg xmlns="http://www.w3.org/2000/svg" width="24" height="24" fill="none"><path fill="#DBE2E6" d="M12.422 16.512A6.95 6.95 0 0 1 5.478 9.57a6.95 6.95 0 0 1 6.944-6.944 6.95 6.95 0 0 1 6.944 6.944c0 3.828-3.118 6.943-6.944 6.943m0-12.48a5.538 5.538 0 1 0 5.535 5.537 5.543 5.543 0 0 0-5.535-5.538"/><path fill="#DBE2E6" d="M9.122 21.094a.7.7 0 0 1-.614-.362l-1.026-1.845-2.317.15a.704.704 0 0 1-.67-1.023l2.443-4.754a.703.703 0 0 1 1.25.642l-1.874 3.652 1.522-.099a.7.7 0 0 1 .66.36l.603 1.084 1.701-3.31a.704.704 0 1 1 1.25.642l-2.3 4.48a.7.7 0 0 1-.616.383zM15.717 21.094h-.014a.7.7 0 0 1-.61-.382l-2.303-4.481a.702.702 0 1 1 1.25-.643l1.703 3.312.604-1.085a.7.7 0 0 1 .66-.36l1.522.099-1.875-3.652a.703.703 0 1 1 1.25-.643l2.44 4.755a.703.703 0 0 1-.67 1.023l-2.317-.15-1.026 1.845a.7.7 0 0 1-.614.362M12.737 12.943a.703.703 0 0 1-.703-.703V8.374L10.76 9.53a.703.703 0 0 1-.946-1.04l2.449-2.227a.703.703 0 0 1 1.176.52v5.456a.703.703 0 0 1-.703.703"/></svg>