<svg xmlns="http://www.w3.org/2000/svg" width="24" height="24" fill="none"><path fill="#DBE2E6" d="M12.428 21.094a.7.7 0 0 1-.344-.09c-1.964-1.097-3.565-2.54-4.76-4.286-.954-1.396-1.649-2.984-2.066-4.722-.706-2.947-.367-5.294-.352-5.39a.7.7 0 0 1 .57-.588l.418-.076a10.36 10.36 0 0 0 6-3.444.703.703 0 0 1 1.068 0 10.36 10.36 0 0 0 6 3.444l.42.076a.7.7 0 0 1 .57.588c.014.098.353 2.445-.354 5.39-.416 1.738-1.111 3.328-2.066 4.722-1.194 1.747-2.796 3.188-4.76 4.286a.7.7 0 0 1-.344.09M6.249 7.304c-.09 1.483.04 2.97.39 4.415.38 1.561 1.007 2.985 1.865 4.232.998 1.453 2.317 2.671 3.924 3.628 1.616-.963 2.94-2.191 3.942-3.657.857-1.253 1.483-2.685 1.859-4.255.34-1.428.468-2.9.378-4.365a11.8 11.8 0 0 1-6.18-3.31A11.8 11.8 0 0 1 6.25 7.305"/><path fill="#DBE2E6" d="M12.427 18.497a.7.7 0 0 1-.403-.128c-2.371-1.663-3.926-3.978-4.623-6.885a14 14 0 0 1-.383-2.975.7.7 0 0 1 .508-.691 12.5 12.5 0 0 0 4.457-2.341.7.7 0 0 1 .89 0 12.5 12.5 0 0 0 4.456 2.34.7.7 0 0 1 .506.69 14 14 0 0 1-.418 3.132c-.715 2.833-2.257 5.098-4.585 6.732a.7.7 0 0 1-.405.126m-3.98-9.495c.045.726.152 1.447.321 2.154.574 2.39 1.804 4.33 3.66 5.766 1.819-1.406 3.037-3.298 3.624-5.628.189-.752.307-1.52.354-2.294a13.9 13.9 0 0 1-3.98-2.089 13.9 13.9 0 0 1-3.98 2.091"/></svg>