<svg xmlns="http://www.w3.org/2000/svg" width="24" height="24" fill="none"><path fill="#DBE2E6" d="M20.766 21.094h-4.213a.703.703 0 0 1-.703-.703v-5.72a.703.703 0 0 1 .703-.702h4.213a.703.703 0 0 1 .703.703v5.719a.703.703 0 0 1-.703.703m-3.51-1.407h2.807v-4.312h-2.807zM14.153 21.094H9.94a.703.703 0 0 1-.703-.703v-8.198a.703.703 0 0 1 .703-.703h4.213a.703.703 0 0 1 .703.703v8.198a.703.703 0 0 1-.703.703m-3.51-1.407h2.807v-6.791h-2.806zM7.54 21.094H3.328a.703.703 0 0 1-.703-.703V9.363a.703.703 0 0 1 .703-.703H7.54a.703.703 0 0 1 .703.703V20.39a.703.703 0 0 1-.703.703m-3.509-1.407h2.806v-9.621H4.031zM17.195 9.27a.703.703 0 0 1-.32-1.33l1.551-.791-.79-1.551a.704.704 0 1 1 1.255-.639L20 7.137a.703.703 0 0 1-.308.946l-2.178 1.11q-.152.076-.32.076"/><path fill="#DBE2E6" d="M19.149 8.087a.7.7 0 0 1-.217-.034L6.129 3.893a.703.703 0 1 1 .434-1.337l12.803 4.16a.703.703 0 0 1-.218 1.371z"/></svg>