<svg xmlns="http://www.w3.org/2000/svg" width="24" height="24" fill="none"><path fill="#DBE2E6" d="M15.202 18.173H8.719a.703.703 0 0 1-.703-.703v-6.417H5.382A.702.702 0 0 1 4.86 9.88l6.578-7.296a.703.703 0 0 1 1.044 0l6.578 7.296a.703.703 0 0 1-.523 1.174h-2.632v6.417a.703.703 0 0 1-.703.703m-5.78-1.406h5.076V10.35a.703.703 0 0 1 .704-.703h1.755l-4.998-5.543-4.997 5.543H8.72a.703.703 0 0 1 .703.703z"/><path fill="#DBE2E6" d="M18.32 21.195H5.599a3.064 3.064 0 0 1-3.06-3.061v-1.79a.703.703 0 0 1 1.406 0v1.79a1.657 1.657 0 0 0 1.654 1.654h12.723a1.656 1.656 0 0 0 1.654-1.654v-1.79a.703.703 0 1 1 1.406 0v1.79a3.065 3.065 0 0 1-3.06 3.06"/></svg>