<svg xmlns="http://www.w3.org/2000/svg" width="24" height="24" fill="none"><path fill="#DBE2E6" d="M16.625 21.094H11.61a.703.703 0 0 1-.547-1.14c.22-.277.34-.622.338-.976a1.574 1.574 0 0 0-3.149 0c-.001.354.118.699.339.976a.703.703 0 0 1-.553 1.14H3.022a.703.703 0 0 1-.703-.703v-6.466a.703.703 0 0 1 1.125-.563 1.574 1.574 0 1 0 0-2.517.703.703 0 0 1-1.125-.562V6.79a.703.703 0 0 1 .703-.703h3.945a2.98 2.98 0 1 1 5.711 0h3.945a.703.703 0 0 1 .703.703v2.447a2.98 2.98 0 1 1 0 5.735v5.419a.703.703 0 0 1-.7.703m-3.905-1.407h3.202v-5.883a.703.703 0 0 1 1.172-.524 1.574 1.574 0 1 0 0-2.35.703.703 0 0 1-1.172-.525V7.493h-4.438a.703.703 0 0 1-.512-1.184 1.575 1.575 0 1 0-2.293 0 .703.703 0 0 1-.512 1.184h-4.44v1.705q.33-.075.666-.074a2.98 2.98 0 1 1-.666 5.887v4.677H6.93a2.981 2.981 0 1 1 5.79 0"/></svg>