<svg xmlns="http://www.w3.org/2000/svg" width="24" height="24" fill="none"><path fill="#DBE2E6" d="M10.365 18.255a8.12 8.12 0 0 1-5.76-2.383c-3.175-3.175-3.175-8.343 0-11.519 3.176-3.175 8.344-3.175 11.52 0a8.14 8.14 0 0 1-5.76 13.902m0-14.878A6.72 6.72 0 0 0 5.6 5.346a6.75 6.75 0 0 0 0 9.53 6.74 6.74 0 1 0 9.53-9.528 6.72 6.72 0 0 0-4.765-1.973z"/><path fill="#DBE2E6" d="M10.365 15.57a5.457 5.457 0 1 1 .007-10.915 5.457 5.457 0 0 1-.007 10.915m0-9.51a4.052 4.052 0 1 0 .005 8.105 4.052 4.052 0 0 0-.005-8.104M19.445 21.114a1.91 1.91 0 0 1-1.36-.562l-3.887-3.888a.703.703 0 0 1 .995-.995l3.885 3.888a.515.515 0 1 0 .729-.73L15.92 14.94a.703.703 0 1 1 .994-.994l3.888 3.887a1.922 1.922 0 0 1-1.36 3.281z"/></svg>