<svg xmlns="http://www.w3.org/2000/svg" width="24" height="24" fill="none"><path fill="#DBE2E6" d="M7.543 19.29a.703.703 0 0 1-.703-.704V4.758A2.51 2.51 0 0 1 9.347 2.25h10.505a.703.703 0 0 1 .703.703v13.828a.703.703 0 1 1-1.407 0V3.656h-9.8a1.1 1.1 0 0 0-1.102 1.101v13.829a.703.703 0 0 1-.703.704"/><path fill="#DBE2E6" d="M19.852 21.094H9.347a2.508 2.508 0 0 1 0-5.016h10.505a.703.703 0 1 1 0 1.406H9.347a1.103 1.103 0 0 0 0 2.203h10.505a.703.703 0 1 1 0 1.407"/><path fill="#DBE2E6" d="M19.038 20.98a.703.703 0 0 1-.703-.703v-3.496a.703.703 0 0 1 1.406 0v3.496a.704.704 0 0 1-.703.703M15.666 13.98a.7.7 0 0 1-.676-.51l-1.293-4.524-1.293 4.525a.7.7 0 0 1-.873.496.7.7 0 0 1-.479-.882l1.969-6.89a.703.703 0 0 1 1.352 0l1.97 6.89a.703.703 0 0 1-.677.896"/><path fill="#DBE2E6" d="M15.167 12.105h-2.903a.703.703 0 0 1 0-1.406h2.903a.703.703 0 0 1 0 1.406"/></svg>