<svg xmlns="http://www.w3.org/2000/svg" width="24" height="24" fill="none"><path fill="#DBE2E6" d="M18.703 21.094H5.391a2.77 2.77 0 0 1-2.766-2.766v-6.797a2.77 2.77 0 0 1 2.766-2.765h4.68a1.36 1.36 0 0 0 1.36-1.36 2.77 2.77 0 0 1 2.766-2.765h4.506a2.77 2.77 0 0 1 2.766 2.765v10.922a2.77 2.77 0 0 1-2.766 2.766M5.391 10.172a1.36 1.36 0 0 0-1.36 1.36v6.796a1.36 1.36 0 0 0 1.36 1.36h13.312a1.36 1.36 0 0 0 1.36-1.36V7.406a1.36 1.36 0 0 0-1.36-1.36h-4.506a1.36 1.36 0 0 0-1.36 1.36 2.77 2.77 0 0 1-2.765 2.766z"/><path fill="#DBE2E6" d="M5.672 10.172a.703.703 0 0 1-.703-.703V2.953a.703.703 0 0 1 .703-.703h12.75a.703.703 0 0 1 .703.703v2.39a.703.703 0 0 1-1.406 0V3.657H6.375V9.47a.703.703 0 0 1-.703.703"/></svg>