<svg xmlns="http://www.w3.org/2000/svg" width="24" height="24" fill="none"><path fill="#DBE2E6" d="M16.636 15.094h-2.614a.703.703 0 0 1 0-1.406h2.614a3.287 3.287 0 0 0 0-6.575 3 3 0 0 0-.288.014.7.7 0 0 1-.668-.348 4.602 4.602 0 0 0-8.516 1.528.7.7 0 0 1-.72.585h-.05a2.399 2.399 0 0 0 0 4.797h3.503a.703.703 0 1 1 0 1.406H6.395A3.806 3.806 0 0 1 5.9 7.517a6.008 6.008 0 0 1 10.766-1.809 4.694 4.694 0 0 1-.03 9.386M11.96 19.922a.7.7 0 0 1-.498-.206l-2.258-2.258a.703.703 0 0 1 .994-.995l1.761 1.761 1.762-1.761a.703.703 0 1 1 .994.995l-2.258 2.258a.7.7 0 0 1-.498.206"/><path fill="#DBE2E6" d="M11.96 19.922a.703.703 0 0 1-.704-.703v-7.723a.703.703 0 0 1 1.406 0v7.723a.703.703 0 0 1-.703.703"/></svg>