<svg xmlns="http://www.w3.org/2000/svg" width="24" height="24" fill="none"><path fill="#DBE2E6" d="M7.016 18.422a4.476 4.476 0 0 1-3.167-7.64l3.033-3.034a4.484 4.484 0 0 1 6.332 0 4.483 4.483 0 0 1 0 6.334l-3.032 3.032a4.46 4.46 0 0 1-3.166 1.308m3.032-10.58a3.06 3.06 0 0 0-2.173.9l-3.033 3.032a3.072 3.072 0 0 0 4.345 4.344l3.033-3.032a3.071 3.071 0 0 0-2.172-5.243"/><path fill="#DBE2E6" d="M13.87 16.908c-.381 0-.762-.048-1.13-.145a.704.704 0 0 1 .355-1.36 3.07 3.07 0 0 0 2.947-.8l3.033-3.032a3.072 3.072 0 1 0-4.344-4.345l-3.033 3.033a3.09 3.09 0 0 0-.8 2.948.703.703 0 0 1-1.36.354 4.5 4.5 0 0 1 1.168-4.296l3.032-3.033a4.478 4.478 0 1 1 6.331 6.33l-3.032 3.033a4.45 4.45 0 0 1-3.167 1.313"/></svg>