<svg xmlns="http://www.w3.org/2000/svg" width="24" height="24" fill="none"><path fill="#DBE2E6" d="M17.648 20.918a.7.7 0 0 1-.53-.24l-2.272-2.596c-.915.235-1.855.353-2.8.352-2.515 0-4.886-.817-6.675-2.3-1.828-1.516-2.834-3.541-2.834-5.704 0-2.164 1.007-4.19 2.834-5.704 1.79-1.483 4.16-2.3 6.676-2.3s4.886.817 6.675 2.3c1.828 1.515 2.834 3.54 2.834 5.704 0 2.31-1.164 4.476-3.205 5.996v3.789a.703.703 0 0 1-.703.703m-2.565-4.336a.7.7 0 0 1 .529.24l1.332 1.522v-2.28a.7.7 0 0 1 .306-.58c1.843-1.26 2.9-3.103 2.9-5.054 0-3.638-3.636-6.598-8.104-6.598s-8.102 2.96-8.102 6.598 3.635 6.597 8.103 6.597a9.7 9.7 0 0 0 2.83-.415.7.7 0 0 1 .205-.03"/><path fill="#DBE2E6" d="M14.99 8.417H9.103a.703.703 0 0 1 0-1.406h5.885a.703.703 0 0 1 0 1.406M14.99 11.07H9.103a.703.703 0 0 1 0-1.406h5.885a.703.703 0 0 1 0 1.406M14.99 13.724H9.103a.703.703 0 0 1 0-1.407h5.885a.703.703 0 0 1 0 1.407"/></svg>