<svg xmlns="http://www.w3.org/2000/svg" width="24" height="24" fill="none"><path fill="#DBE2E6" d="M6.725 20.798a4.187 4.187 0 1 1-.001-8.374 4.187 4.187 0 0 1 0 8.374m0-6.968a2.78 2.78 0 1 0-.002 5.565 2.78 2.78 0 0 0 .002-5.567zM17.194 20.798a4.187 4.187 0 1 1-.001-8.374 4.187 4.187 0 0 1 .001 8.374m0-6.968a2.78 2.78 0 1 0-.001 5.565 2.78 2.78 0 0 0 .001-5.567z"/><path fill="#DBE2E6" d="M13.71 17.314H10.21a.703.703 0 1 1 0-1.406h3.502a.703.703 0 0 1 0 1.406M3.24 17.314a.703.703 0 0 1-.703-.703V6.52a2.262 2.262 0 1 1 4.524 0 .703.703 0 0 1-1.406 0 .855.855 0 1 0-1.711 0v10.09a.703.703 0 0 1-.704.704M20.678 17.314a.703.703 0 0 1-.703-.703V6.52a.856.856 0 0 0-1.711 0 .703.703 0 0 1-1.406 0 2.262 2.262 0 0 1 4.523 0v10.09a.703.703 0 0 1-.703.704"/></svg>