<svg xmlns="http://www.w3.org/2000/svg" width="24" height="24" fill="none"><path fill="#DBE2E6" d="M13.777 21.094h-2.83a.704.704 0 0 1-.7-.63l-.21-1.972a7 7 0 0 1-.855-.355l-1.541 1.247a.703.703 0 0 1-.938-.05l-2.001-2a.703.703 0 0 1-.05-.938L5.9 14.852a7 7 0 0 1-.355-.855l-1.976-.211a.703.703 0 0 1-.63-.699v-2.83a.703.703 0 0 1 .63-.7l1.972-.209q.15-.439.355-.855L4.65 6.949a.703.703 0 0 1 .05-.937l2-2.001a.703.703 0 0 1 .938-.05l1.544 1.247q.416-.205.855-.355l.21-1.973a.703.703 0 0 1 .7-.63h2.83a.703.703 0 0 1 .7.63l.209 1.972q.44.15.856.354l1.543-1.246a.703.703 0 0 1 .938.05l2 2a.703.703 0 0 1 .05.938L18.825 8.49q.204.417.355.856l1.973.21a.703.703 0 0 1 .628.698v2.83a.703.703 0 0 1-.626.7l-1.973.21q-.15.44-.355.856l1.247 1.543a.703.703 0 0 1-.05.938l-2 2.002a.703.703 0 0 1-.938.05l-1.543-1.247a7 7 0 0 1-.856.355l-.21 1.973a.703.703 0 0 1-.7.629m-2.199-1.407h1.565l.192-1.807a.7.7 0 0 1 .518-.605 5.8 5.8 0 0 0 1.414-.587.7.7 0 0 1 .797.06l1.414 1.143 1.106-1.106-1.144-1.41a.7.7 0 0 1-.061-.797 5.8 5.8 0 0 0 .585-1.413.7.7 0 0 1 .606-.518l1.807-.192V10.89l-1.807-.193a.7.7 0 0 1-.606-.518 5.8 5.8 0 0 0-.585-1.413.7.7 0 0 1 .061-.797l1.143-1.414-1.107-1.107-1.414 1.143a.7.7 0 0 1-.797.061 5.8 5.8 0 0 0-1.413-.585.7.7 0 0 1-.518-.606l-.19-1.805h-1.566l-.192 1.808a.7.7 0 0 1-.519.605c-.494.132-.969.33-1.411.587a.7.7 0 0 1-.797-.061L7.247 5.45 6.14 6.557l1.142 1.414a.7.7 0 0 1 .061.797 5.8 5.8 0 0 0-.585 1.413.7.7 0 0 1-.605.518l-1.808.192v1.565l1.808.192a.7.7 0 0 1 .605.519c.132.494.328.969.585 1.411a.7.7 0 0 1-.061.797L6.14 16.786l1.106 1.107 1.414-1.142a.7.7 0 0 1 .797-.062c.443.258.918.454 1.413.586a.7.7 0 0 1 .519.605z"/><path fill="#DBE2E6" d="M12.361 15.954a4.283 4.283 0 1 1 .002-8.565 4.283 4.283 0 0 1-.002 8.565m0-7.158a2.877 2.877 0 1 0 .001 5.753 2.877 2.877 0 0 0 0-5.753"/></svg>