<svg xmlns="http://www.w3.org/2000/svg" width="24" height="24" fill="none"><path fill="#DBE2E6" d="M12.287 17.719a.7.7 0 0 1-.344-.09A10.82 10.82 0 0 1 6.41 7.963c.037-1.758.694-3.24 1.899-4.284 1.062-.922 2.475-1.429 3.978-1.429s2.915.507 3.978 1.428c1.206 1.045 1.862 2.527 1.9 4.285l.003.234a10.82 10.82 0 0 1-5.538 9.432.7.7 0 0 1-.343.09m0-14.063c-1.165 0-2.25.385-3.057 1.084-.897.778-1.386 1.903-1.415 3.253v.204a9.41 9.41 0 0 0 4.474 8.004 9.41 9.41 0 0 0 4.473-8.004q0-.102-.002-.204c-.029-1.35-.518-2.475-1.415-3.253-.808-.699-1.892-1.084-3.058-1.084"/><path fill="#DBE2E6" d="M12.301 11.597a3.381 3.381 0 1 1 0-6.762 3.381 3.381 0 0 1 0 6.762m0-5.356a1.975 1.975 0 1 0 0 3.95 1.975 1.975 0 0 0 0-3.95M12.287 21.094c-1.897 0-3.692-.378-5.053-1.064-1.515-.764-2.348-1.834-2.348-3.014 0-1.566 1.465-2.919 3.918-3.617a.703.703 0 0 1 .383 1.353c-1.76.5-2.897 1.39-2.897 2.264 0 1.265 2.462 2.672 5.995 2.672s5.996-1.407 5.996-2.672c0-.875-1.137-1.763-2.897-2.264a.702.702 0 1 1 .385-1.353c2.454.698 3.919 2.05 3.919 3.617 0 1.18-.834 2.25-2.349 3.014-1.361.686-3.156 1.064-5.052 1.064"/></svg>