<svg xmlns="http://www.w3.org/2000/svg" width="24" height="24" fill="none"><path fill="#DBE2E6" d="M16.828 8.625H6.891a.703.703 0 0 1-.703-.703V2.953a.703.703 0 0 1 .703-.703h9.937a.703.703 0 0 1 .703.703v4.969a.703.703 0 0 1-.703.703M7.594 7.219h8.531V3.656H7.594zM16.828 21.094H6.891a.703.703 0 0 1-.703-.703v-7.637a.703.703 0 0 1 .703-.703h9.937a.703.703 0 0 1 .703.703v7.637a.703.703 0 0 1-.703.703m-9.234-1.407h8.531v-6.23H7.594z"/><path fill="#DBE2E6" d="M19.09 17.766h-2.262a.703.703 0 0 1 0-1.407h2.262a.886.886 0 0 0 .885-.885V9.51a.886.886 0 0 0-.885-.885H4.629a.886.886 0 0 0-.885.885v5.964a.886.886 0 0 0 .885.885H6.89a.703.703 0 0 1 0 1.407H4.629a2.294 2.294 0 0 1-2.291-2.292V9.51a2.294 2.294 0 0 1 2.29-2.291H19.09A2.294 2.294 0 0 1 21.38 9.51v5.964a2.294 2.294 0 0 1-2.291 2.292"/><path fill="#DBE2E6" d="M6.14 11.063a.7.7 0 0 1-.33-.084.6.6 0 0 1-.115-.076.7.7 0 0 1-.174-.213 1 1 0 0 1-.053-.127.639.639 0 0 1-.027-.276.8.8 0 0 1 .05-.199.8.8 0 0 1 .105-.177.7.7 0 0 1 .34-.227q.035-.01.067-.017a.6.6 0 0 1 .207-.01 1 1 0 0 1 .135.027q.032.01.065.023a.8.8 0 0 1 .228.153l.047.051a.6.6 0 0 1 .076.115 1 1 0 0 1 .053.127q.01.034.017.067a.6.6 0 0 1 .01.208.8.8 0 0 1-.05.2.8.8 0 0 1-.153.228 1 1 0 0 1-.107.088.7.7 0 0 1-.121.065.8.8 0 0 1-.2.05zM8.203 11.063q-.035.001-.07-.004l-.067-.01a.6.6 0 0 1-.194-.07.8.8 0 0 1-.166-.123 1 1 0 0 1-.088-.107.7.7 0 0 1-.088-.186c-.007-.021-.012-.047-.017-.067a.6.6 0 0 1-.01-.208.8.8 0 0 1 .05-.2 1 1 0 0 1 .065-.121.8.8 0 0 1 .14-.154.7.7 0 0 1 .24-.13l.068-.016a.6.6 0 0 1 .208-.01.8.8 0 0 1 .2.05.8.8 0 0 1 .228.153q.025.024.047.051.023.027.041.056a.7.7 0 0 1 .088.186q.01.034.017.067a.6.6 0 0 1 .01.208.8.8 0 0 1-.05.2.74.74 0 0 1-.204.275.6.6 0 0 1-.177.106l-.065.023q-.034.01-.067.017a.6.6 0 0 1-.139.014M14.625 16.125H9.094a.703.703 0 0 1 0-1.406h5.531a.703.703 0 1 1 0 1.406M14.625 18.61H9.094a.703.703 0 0 1 0-1.407h5.531a.703.703 0 0 1 0 1.406"/></svg>