<svg xmlns="http://www.w3.org/2000/svg" width="24" height="24" fill="none"><path fill="#DBE2E6" d="M11.357 20.034a2 2 0 0 1-.614-.094 1.94 1.94 0 0 1-1.392-1.904c.008-.813-.148-1.523-.46-2.11-.385-.718-1.024-1.271-1.902-1.644a.703.703 0 0 1-.374-.923.705.705 0 0 1 .924-.375c2.128.903 3.24 2.653 3.218 5.063a.576.576 0 0 0 1.047.328c1.328-1.955.162-4.108.15-4.13a.704.704 0 0 1 .615-1.043h6.64a.667.667 0 0 0 0-1.333h-.959a.703.703 0 0 1 0-1.406.67.67 0 0 0 .666-.666.667.667 0 0 0-.666-.666h-.958a.703.703 0 0 1 0-1.406.666.666 0 1 0 0-1.333h-.959a.703.703 0 1 1 0-1.406.666.666 0 1 0 0-1.332h-4.061c-.625 0-1.246.11-1.832.328L7.276 5.157a.703.703 0 0 1-.49-1.313l3.165-1.175a6.6 6.6 0 0 1 2.32-.419h4.063a2.074 2.074 0 0 1 1.875 2.953 2.075 2.075 0 0 1 .958 2.739 2.075 2.075 0 0 1 .958 2.739 2.072 2.072 0 0 1-.918 3.93h-5.608c.317 1.083.526 2.852-.632 4.557a1.93 1.93 0 0 1-1.61.866"/><path fill="#DBE2E6" d="M7.266 14.337H3.24a.703.703 0 0 1-.703-.703v-9.64a.703.703 0 0 1 .703-.703h4.026a.703.703 0 0 1 .703.703v9.64a.703.703 0 0 1-.703.703M3.945 12.93h2.618V4.697h-2.62z"/></svg>