<svg xmlns="http://www.w3.org/2000/svg" width="24" height="24" fill="none"><path fill="#DBE2E6" d="M6.443 21.094a3.906 3.906 0 1 1-.001-7.812 3.906 3.906 0 0 1 .001 7.812m0-6.405a2.5 2.5 0 1 0-.001 4.999 2.5 2.5 0 0 0 .001-4.999M17.573 18.516a3.906 3.906 0 1 1-.001-7.812 3.906 3.906 0 0 1 0 7.812m0-6.405a2.5 2.5 0 1 0-.002 4.999 2.5 2.5 0 0 0 .002-4.999"/><path fill="#DBE2E6" d="M9.645 17.892a.703.703 0 0 1-.703-.703V5.592a.7.7 0 0 1 .548-.686l11.13-2.521a.703.703 0 0 1 .858.686V14.61a.703.703 0 0 1-1.407 0V3.951l-9.723 2.203V17.19a.703.703 0 0 1-.703.703"/><path fill="#DBE2E6" d="M9.645 9.498a.703.703 0 0 1-.155-1.39l11.13-2.521a.703.703 0 1 1 .31 1.372L9.8 9.48a.7.7 0 0 1-.155.018"/></svg>