<svg width="24" height="24" viewBox="0 0 24 24" fill="none" xmlns="http://www.w3.org/2000/svg">
<path d="M6.44296 21.0937C5.67046 21.0938 4.91528 20.8648 4.27294 20.4357C3.63059 20.0066 3.12992 19.3966 2.83425 18.6829C2.53859 17.9693 2.46121 17.1839 2.61189 16.4263C2.76257 15.6686 3.13456 14.9727 3.6808 14.4264C4.22704 13.8802 4.923 13.5082 5.68066 13.3575C6.43832 13.2068 7.22365 13.2842 7.93733 13.5799C8.65101 13.8755 9.26098 14.3762 9.6901 15.0186C10.1192 15.6609 10.3482 16.4161 10.3481 17.1886C10.3469 18.2239 9.93504 19.2165 9.20295 19.9486C8.47086 20.6807 7.47829 21.0925 6.44296 21.0937ZM6.44296 14.6892C5.94861 14.6891 5.46534 14.8356 5.05425 15.1102C4.64317 15.3848 4.32275 15.7751 4.13351 16.2318C3.94426 16.6885 3.8947 17.191 3.99108 17.6759C4.08747 18.1608 4.32548 18.6062 4.675 18.9557C5.02453 19.3053 5.46987 19.5434 5.95472 19.6399C6.43956 19.7364 6.94212 19.6869 7.39885 19.4977C7.85558 19.3086 8.24596 18.9882 8.52061 18.5772C8.79527 18.1662 8.94187 17.6829 8.94187 17.1886C8.94112 16.526 8.67762 15.8908 8.20916 15.4222C7.7407 14.9537 7.10553 14.6901 6.44296 14.6892Z" fill="#DBE2E6"/>
<path d="M17.5726 18.5156C16.8001 18.5157 16.045 18.2867 15.4026 17.8576C14.7603 17.4285 14.2596 16.8186 13.9639 16.1049C13.6683 15.3913 13.5908 14.606 13.7415 13.8483C13.8921 13.0907 14.2641 12.3947 14.8103 11.8485C15.3565 11.3022 16.0524 10.9302 16.81 10.7794C17.5676 10.6287 18.353 10.706 19.0666 11.0016C19.7803 11.2972 20.3903 11.7978 20.8195 12.4401C21.2487 13.0824 21.4778 13.8375 21.4778 14.61C21.4766 15.6454 21.0649 16.6381 20.3328 17.3703C19.6007 18.1025 18.608 18.5144 17.5726 18.5156ZM17.5726 12.1111C17.0782 12.111 16.5949 12.2575 16.1838 12.5321C15.7728 12.8067 15.4523 13.1971 15.2631 13.6538C15.0739 14.1105 15.0243 14.6131 15.1208 15.0979C15.2172 15.5828 15.4552 16.0282 15.8048 16.3778C16.1544 16.7274 16.5998 16.9654 17.0846 17.0618C17.5695 17.1583 18.0721 17.1087 18.5288 16.9195C18.9855 16.7303 19.3759 16.4098 19.6505 15.9987C19.9251 15.5877 20.0716 15.1044 20.0715 14.61C20.0708 13.9475 19.8072 13.3123 19.3388 12.8438C18.8703 12.3753 18.2351 12.1118 17.5726 12.1111Z" fill="#DBE2E6"/>
<path d="M9.64502 17.8917C9.45854 17.8917 9.2797 17.8176 9.14784 17.6858C9.01597 17.5539 8.94189 17.3751 8.94189 17.1886V5.59218C8.9419 5.43267 8.99614 5.27789 9.09572 5.15327C9.19529 5.02866 9.33428 4.9416 9.48986 4.9064L20.6194 2.38499C20.7223 2.36171 20.8291 2.36189 20.932 2.38551C21.0348 2.40914 21.131 2.45561 21.2135 2.52147C21.2959 2.58734 21.3624 2.67092 21.4082 2.766C21.4539 2.86109 21.4777 2.96526 21.4777 3.07077V14.61C21.4777 14.7965 21.4036 14.9753 21.2717 15.1072C21.1399 15.239 20.961 15.3131 20.7746 15.3131C20.5881 15.3131 20.4092 15.239 20.2774 15.1072C20.1455 14.9753 20.0714 14.7965 20.0714 14.61V3.95109L10.3481 6.15421V17.1886C10.3481 17.3751 10.2741 17.5539 10.1422 17.6858C10.0103 17.8176 9.8315 17.8917 9.64502 17.8917Z" fill="#DBE2E6"/>
<path d="M9.64464 9.49781C9.47136 9.4982 9.30404 9.43459 9.17478 9.31918C9.04553 9.20378 8.96343 9.0447 8.94426 8.87249C8.92509 8.70027 8.97018 8.52704 9.07089 8.38603C9.1716 8.24502 9.32083 8.14617 9.48996 8.10843L20.6195 5.58703C20.8014 5.54582 20.9922 5.57854 21.1499 5.67801C21.3077 5.77748 21.4194 5.93554 21.4607 6.11742C21.5019 6.2993 21.4691 6.4901 21.3697 6.64785C21.2702 6.8056 21.1121 6.91738 20.9303 6.95859L9.80074 9.48C9.74955 9.49185 9.69718 9.49783 9.64464 9.49781Z" fill="#DBE2E6"/>
</svg>
