<svg xmlns="http://www.w3.org/2000/svg" width="24" height="24" fill="none"><path fill="#DBE2E6" d="M18.442 21.094H7.714a2.35 2.35 0 0 1-2.35-2.35V4.6a2.35 2.35 0 0 1 2.35-2.349h7.036a.7.7 0 0 1 .497.206l5.338 5.338a.7.7 0 0 1 .206.497v10.453a2.35 2.35 0 0 1-2.35 2.35M7.714 3.656a.944.944 0 0 0-.943.943v14.146a.943.943 0 0 0 .943.942h10.728a.943.943 0 0 0 .943-.942V8.582l-4.927-4.926z"/><path fill="#DBE2E6" d="M20.088 8.994h-3.693a2.35 2.35 0 0 1-2.349-2.349V2.953a.703.703 0 0 1 1.407 0v3.692a.944.944 0 0 0 .942.943h3.693a.703.703 0 1 1 0 1.406M9.504 13.085c-.188 0-.292-.199-.292-.428 0-.199.087-.416.292-.416h1.086c.21 0 .422.1.422.298v2.813c0 1.067-.677 1.464-1.49 1.464-.887 0-1.557-.472-1.557-1.297 0-.372.155-.459.49-.459.249 0 .46.062.478.292.019.241.05.62.546.62.36 0 .565-.199.565-.62v-2.267zM11.663 12.533c0-.156.141-.292.36-.292h1.285c.819 0 1.464.385 1.464 1.427v.031c0 1.043-.67 1.44-1.527 1.44h-.614v1.34c0 .199-.242.298-.484.298s-.484-.1-.484-.298zm.968.552v1.309h.614c.348 0 .559-.198.559-.62v-.069c0-.422-.211-.62-.559-.62zM16.67 13.085c-.353 0-.558.198-.558.62v1.645c0 .422.205.62.552.62s.559-.198.559-.62v-.21h-.366c-.188 0-.292-.18-.292-.372 0-.18.105-.372.292-.372h1.042c.188 0 .292.143.292.304v.652c0 1.067-.67 1.464-1.527 1.464s-1.52-.397-1.52-1.464v-1.647c0-1.067.676-1.464 1.489-1.464.887 0 1.558.447 1.558 1.235 0 .372-.155.459-.485.459-.26 0-.477-.068-.483-.292s-.025-.558-.552-.558"/></svg>