<svg xmlns="http://www.w3.org/2000/svg" width="24" height="24" fill="none"><path fill="#DBE2E6" d="M16.942 21.094H6.214a2.35 2.35 0 0 1-2.35-2.35V4.6a2.35 2.35 0 0 1 2.35-2.349h7.036a.7.7 0 0 1 .497.206l5.338 5.338a.7.7 0 0 1 .206.497v10.453a2.35 2.35 0 0 1-2.35 2.35M6.214 3.656a.944.944 0 0 0-.943.943v14.146a.943.943 0 0 0 .943.942h10.728a.943.943 0 0 0 .943-.942V8.582l-4.927-4.926z"/><path fill="#DBE2E6" d="M18.588 8.994h-3.693a2.35 2.35 0 0 1-2.349-2.349V2.953a.703.703 0 0 1 1.407 0v3.692a.944.944 0 0 0 .942.943h3.693a.703.703 0 1 1 0 1.406M6.338 12.533c0-.156.14-.292.36-.292h1.284c.82 0 1.465.385 1.465 1.427v.031c0 1.043-.67 1.44-1.527 1.44h-.614v1.34c0 .199-.242.298-.484.298s-.484-.1-.484-.298zm.968.552v1.309h.616c.347 0 .558-.198.558-.62v-.069c0-.422-.21-.62-.558-.62zM12.071 14.798h-1.235v1.68c0 .2-.242.299-.484.299s-.484-.1-.484-.298v-3.946c0-.205.242-.292.484-.292s.484.087.484.292v1.52h1.235v-1.52c0-.205.242-.292.484-.292.243 0 .484.087.484.292v3.946c0 .199-.242.298-.484.298s-.484-.1-.484-.298zM13.709 12.533c0-.156.143-.292.36-.292h1.284c.82 0 1.465.385 1.465 1.427v.031c0 1.043-.67 1.44-1.527 1.44h-.614v1.34c0 .199-.242.298-.484.298s-.484-.1-.484-.298zm.968.552v1.309h.614c.348 0 .559-.198.559-.62v-.069c0-.422-.211-.62-.559-.62z"/></svg>