<svg xmlns="http://www.w3.org/2000/svg" width="24" height="24" fill="none"><path fill="#DBE2E6" d="M17.88 21.094H7.15a2.35 2.35 0 0 1-2.349-2.35V4.6a2.35 2.35 0 0 1 2.35-2.349h7.035a.7.7 0 0 1 .497.206l5.339 5.338a.7.7 0 0 1 .205.497v10.453a2.35 2.35 0 0 1-2.349 2.35M7.15 3.656a.944.944 0 0 0-.942.943v14.146a.943.943 0 0 0 .942.942H17.88a.943.943 0 0 0 .943-.942V8.582l-4.926-4.926z"/><path fill="#DBE2E6" d="M19.525 8.994h-3.692a2.35 2.35 0 0 1-2.35-2.349V2.953a.703.703 0 0 1 1.407 0v3.692a.944.944 0 0 0 .943.943h3.692a.703.703 0 1 1 0 1.406M9.32 15.17a.36.36 0 0 1-.322.18.32.32 0 0 1-.305-.18l-.59-1.078v2.39c0 .199-.241.298-.483.298s-.484-.1-.484-.298v-3.757c0-.354.242-.484.484-.484.347 0 .496.037.75.484l.639 1.117.639-1.117c.254-.447.403-.484.75-.484.248 0 .484.13.484.484v3.754c0 .199-.242.298-.484.298s-.484-.1-.484-.298v-2.327zM11.554 12.533c0-.156.14-.292.36-.292h1.284c.819 0 1.464.385 1.464 1.427v.031c0 1.043-.67 1.44-1.526 1.44h-.614v1.34c0 .199-.242.298-.485.298-.242 0-.483-.1-.483-.298zm.968.552v1.309h.614c.348 0 .559-.198.559-.62v-.069c0-.422-.211-.62-.56-.62zM16.927 15.412v-.118c0-.416-.255-.497-.596-.497-.21 0-.279-.187-.279-.372 0-.184.068-.372.28-.372.234 0 .483-.031.483-.534 0-.36-.204-.447-.459-.447-.304 0-.459.075-.459.317 0 .21-.094.354-.453.354-.447 0-.503-.094-.503-.391 0-.484.348-1.111 1.415-1.111.788 0 1.384.285 1.384 1.125 0 .453-.167.875-.478 1.018.366.136.633.41.633.912v.117c0 1.018-.703 1.403-1.57 1.403-1.067 0-1.477-.652-1.477-1.172 0-.281.118-.353.46-.353.397 0 .496.086.496.322 0 .292.273.36.552.36.422-.003.571-.158.571-.561"/></svg>