<svg xmlns="http://www.w3.org/2000/svg" width="24" height="24" fill="none"><path fill="#DBE2E6" d="M17.41 21.094H6.683a2.35 2.35 0 0 1-2.349-2.35V4.6a2.35 2.35 0 0 1 2.35-2.349h7.035a.7.7 0 0 1 .498.206l5.338 5.338a.7.7 0 0 1 .206.497v10.453a2.35 2.35 0 0 1-2.35 2.35M6.683 3.656a.944.944 0 0 0-.942.943v14.146a.943.943 0 0 0 .942.942h10.729a.943.943 0 0 0 .942-.942V8.582l-4.926-4.926z"/><path fill="#DBE2E6" d="M19.056 8.994h-3.692a2.35 2.35 0 0 1-2.349-2.349V2.953a.703.703 0 0 1 1.406 0v3.692a.943.943 0 0 0 .943.943h3.692a.703.703 0 1 1 0 1.406M8.331 14.888h-.929v1.266c0 .15-.182.224-.363.224-.182 0-.365-.074-.365-.224v-2.97c0-.153.182-.219.365-.219.182 0 .363.066.363.22v1.143h.93v-1.143c0-.154.181-.22.364-.22.182 0 .363.066.363.22v2.968c0 .15-.182.224-.363.224-.182 0-.365-.074-.365-.224zM11.585 12.965c.154 0 .219.168.219.322 0 .178-.08.332-.22.332h-.643v2.534c0 .15-.183.224-.365.224s-.364-.074-.364-.224V13.62h-.644c-.14 0-.22-.154-.22-.332 0-.154.066-.322.22-.322zM13.734 15.168a.27.27 0 0 1-.242.136.24.24 0 0 1-.229-.136l-.443-.812v1.797c0 .15-.183.224-.364.224-.182 0-.362-.074-.362-.224V13.33c0-.266.182-.364.364-.364.261 0 .375.028.565.364l.48.84.481-.84c.191-.336.303-.364.565-.364.188 0 .364.098.364.364v2.824c0 .15-.182.224-.364.224s-.364-.074-.364-.224v-1.75zM15.734 16.377c-.16 0-.318-.074-.318-.224v-2.968c0-.154.182-.22.364-.22s.365.066.365.22v2.557h1.064c.14 0 .21.16.21.318s-.07.317-.21.317z"/></svg>