<svg xmlns="http://www.w3.org/2000/svg" width="24" height="24" fill="none"><path fill="#DBE2E6" d="M17.41 21.094H6.683a2.35 2.35 0 0 1-2.349-2.35V4.6a2.35 2.35 0 0 1 2.35-2.349h7.035a.7.7 0 0 1 .498.206l5.338 5.338a.7.7 0 0 1 .206.497v10.453a2.35 2.35 0 0 1-2.35 2.35M6.683 3.656a.944.944 0 0 0-.942.943v14.146a.943.943 0 0 0 .942.942h10.729a.943.943 0 0 0 .942-.942V8.582l-4.926-4.926z"/><path fill="#DBE2E6" d="M19.056 8.994h-3.692a2.35 2.35 0 0 1-2.349-2.349V2.953a.703.703 0 0 1 1.406 0v3.692a.943.943 0 0 0 .943.943h3.692a.703.703 0 1 1 0 1.406M8.075 12.533c0-.205.242-.292.485-.292.242 0 .483.087.483.292v3.946c0 .199-.241.298-.483.298s-.485-.1-.485-.298zM11.575 15.563c0-.75-1.969-.621-1.969-2.073 0-.93.813-1.284 1.589-1.284.328 0 1.234.062 1.234.546 0 .167-.111.508-.384.508-.224 0-.341-.234-.85-.234-.441 0-.62.18-.62.372 0 .62 1.968.503 1.968 2.066 0 .894-.651 1.378-1.551 1.378-.813 0-1.496-.397-1.496-.806 0-.212.188-.522.422-.522.292 0 .478.46 1.055.46.286-.004.602-.116.602-.412M12.971 15.35v-1.645c0-1.067.664-1.464 1.52-1.464.857 0 1.527.397 1.527 1.464v1.645c0 1.067-.67 1.464-1.527 1.464s-1.52-.397-1.52-1.464m2.079-1.645c0-.428-.211-.62-.559-.62-.347 0-.552.192-.552.62v1.645c0 .428.205.62.552.62s.559-.192.559-.62z"/></svg>