<svg xmlns="http://www.w3.org/2000/svg" width="24" height="24" fill="none"><path fill="#DBE2E6" d="M17.88 21.094H7.15a2.35 2.35 0 0 1-2.349-2.35V4.6a2.35 2.35 0 0 1 2.35-2.349h7.035a.7.7 0 0 1 .497.206l5.339 5.338a.7.7 0 0 1 .205.497v10.453a2.35 2.35 0 0 1-2.349 2.35M7.15 3.656a.944.944 0 0 0-.942.943v14.146a.943.943 0 0 0 .942.942H17.88a.943.943 0 0 0 .943-.942V8.582l-4.926-4.926z"/><path fill="#DBE2E6" d="M19.525 8.994h-3.692a2.35 2.35 0 0 1-2.35-2.349V2.953a.703.703 0 0 1 1.407 0v3.692a.944.944 0 0 0 .943.943h3.692a.703.703 0 1 1 0 1.406M8.87 13.085c-.353 0-.558.198-.558.62v1.645c0 .422.205.62.562.62.497 0 .528-.378.546-.62.02-.23.23-.292.478-.292.335 0 .49.087.49.459 0 .826-.67 1.297-1.557 1.297-.813 0-1.489-.397-1.489-1.464v-1.645c0-1.067.676-1.464 1.49-1.464.887 0 1.556.447 1.556 1.235 0 .372-.155.459-.483.459-.26 0-.472-.068-.485-.292-.004-.16-.022-.558-.55-.558M12.4 12.24c.857 0 1.527.398 1.527 1.465v1.608c0 1.066-.67 1.464-1.526 1.464h-1.098c-.255 0-.422-.137-.422-.292v-3.952c0-.156.167-.292.422-.292zm-.551.845v2.848h.552c.347 0 .558-.198.558-.62v-1.608c0-.422-.21-.62-.558-.62zM14.541 12.533a.29.29 0 0 1 .298-.292h1.286c.85 0 1.526.316 1.526 1.328 0 .695-.316 1.092-.75 1.26l.757 1.37a.2.2 0 0 1 .032.113c0 .241-.323.502-.61.502a.33.33 0 0 1-.31-.18l-.851-1.65h-.41v1.495c0 .199-.242.298-.484.298s-.484-.1-.484-.298zm.968.552v1.154h.616c.347 0 .558-.14.558-.577s-.21-.577-.558-.577z"/></svg>