<svg xmlns="http://www.w3.org/2000/svg" width="24" height="24" fill="none"><path fill="#DBE2E6" d="M17.526 21.094H6.796a2.35 2.35 0 0 1-2.348-2.35V4.6A2.35 2.35 0 0 1 6.797 2.25h7.036a.7.7 0 0 1 .497.206l5.34 5.338a.7.7 0 0 1 .205.497v10.453a2.35 2.35 0 0 1-2.349 2.35M6.796 3.656a.944.944 0 0 0-.942.943v14.146a.943.943 0 0 0 .943.942h10.73a.943.943 0 0 0 .942-.942V8.582l-4.926-4.926z"/><path fill="#DBE2E6" d="M19.172 8.994h-3.693a2.35 2.35 0 0 1-2.348-2.349V2.953a.703.703 0 0 1 1.406 0v3.692a.943.943 0 0 0 .942.943h3.693a.703.703 0 0 1 0 1.406M11.719 16.875a.7.7 0 0 1-.59-.321l-2.063-3.188a.703.703 0 1 1 1.18-.764l1.473 2.276 2.86-4.417a.704.704 0 0 1 1.18.764l-3.45 5.329a.7.7 0 0 1-.59.321"/></svg>