<svg xmlns="http://www.w3.org/2000/svg" width="24" height="24" fill="none"><path fill="#DBE2E6" d="M17.41 21.094H6.683a2.35 2.35 0 0 1-2.349-2.35V4.6a2.35 2.35 0 0 1 2.35-2.349h7.035a.7.7 0 0 1 .498.206l5.338 5.338a.7.7 0 0 1 .206.497v10.453a2.35 2.35 0 0 1-2.35 2.35M6.683 3.656a.944.944 0 0 0-.942.943v14.146a.943.943 0 0 0 .942.942h10.729a.943.943 0 0 0 .942-.942V8.582l-4.926-4.926z"/><path fill="#DBE2E6" d="M19.056 8.994h-3.692a2.35 2.35 0 0 1-2.349-2.349V2.953a.703.703 0 0 1 1.406 0v3.692a.943.943 0 0 0 .943.943h3.692a.703.703 0 1 1 0 1.406M8.314 15.176l-.906 1.539c-.043.068-.13.099-.229.099-.267 0-.645-.21-.645-.478a.33.33 0 0 1 .055-.173l1.074-1.657-1.031-1.65a.35.35 0 0 1-.063-.193c0-.26.354-.46.627-.46a.3.3 0 0 1 .292.162l.825 1.44.827-1.44a.3.3 0 0 1 .292-.161c.273 0 .627.198.627.459a.35.35 0 0 1-.062.192l-1.031 1.65 1.073 1.658a.34.34 0 0 1 .056.173c0 .267-.379.478-.646.478-.1 0-.192-.03-.23-.1zM12.664 15.17a.36.36 0 0 1-.323.18.32.32 0 0 1-.304-.18l-.59-1.078v2.39c0 .199-.241.298-.483.298s-.484-.1-.484-.298v-3.757c0-.354.242-.484.484-.484.347 0 .496.037.75.484l.639 1.117.639-1.117c.254-.447.403-.484.75-.484.248 0 .484.13.484.484v3.754c0 .199-.242.298-.484.298s-.484-.1-.484-.298v-2.327zM15.32 16.777c-.211 0-.422-.1-.422-.298v-3.946c0-.205.242-.292.484-.292.241 0 .484.087.484.292v3.4h1.414c.188 0 .282.21.282.422 0 .21-.094.422-.282.422z"/></svg>