<svg xmlns="http://www.w3.org/2000/svg" width="24" height="24" fill="none"><path fill="#DBE2E6" d="M17.41 21.094H6.683a2.35 2.35 0 0 1-2.349-2.35V4.6a2.35 2.35 0 0 1 2.35-2.349h7.035a.7.7 0 0 1 .498.206l5.338 5.338a.7.7 0 0 1 .206.497v10.453a2.35 2.35 0 0 1-2.35 2.35M6.683 3.656a.944.944 0 0 0-.942.943v14.146a.943.943 0 0 0 .942.942h10.729a.943.943 0 0 0 .942-.942V8.582l-4.926-4.926z"/><path fill="#DBE2E6" d="M19.056 8.994h-3.692a2.35 2.35 0 0 1-2.349-2.349V2.953a.703.703 0 0 1 1.406 0v3.692a.943.943 0 0 0 .943.943h3.692a.703.703 0 1 1 0 1.406M6.509 12.54c0-.2.211-.3.422-.3h1.272c.62 0 1.24.224 1.24 1.105 0 .503-.198.832-.526.975.378.14.638.372.638.993v.13c0 .98-.546 1.334-1.246 1.334H6.93c-.26 0-.422-.137-.422-.292zm.962 1.405h.651c.235 0 .354-.217.354-.428 0-.21-.118-.434-.354-.434h-.651zm.62 1.986c.31 0 .496-.173.496-.571v-.099c0-.422-.187-.57-.496-.57h-.62v1.242zM12.242 15.17a.36.36 0 0 1-.323.18.32.32 0 0 1-.303-.18l-.59-1.078v2.39c0 .199-.242.298-.484.298s-.484-.1-.484-.298v-3.757c0-.354.242-.484.484-.484.347 0 .497.037.75.484l.64 1.117.638-1.117c.255-.447.404-.484.75-.484.248 0 .484.13.484.484v3.754c0 .199-.242.298-.484.298s-.484-.1-.484-.298v-2.327zM14.476 12.533c0-.156.14-.292.36-.292h1.284c.82 0 1.464.385 1.464 1.427v.031c0 1.043-.67 1.44-1.526 1.44h-.614v1.34c0 .199-.243.298-.484.298-.242 0-.484-.1-.484-.298zm.968.552v1.309h.614c.347 0 .559-.198.559-.62v-.069c0-.422-.212-.62-.56-.62z"/></svg>