<svg xmlns="http://www.w3.org/2000/svg" width="24" height="24" fill="none"><path fill="#DBE2E6" d="M18.442 21.094H7.714a2.35 2.35 0 0 1-2.35-2.35V4.6a2.35 2.35 0 0 1 2.35-2.349h7.036a.7.7 0 0 1 .497.206l5.338 5.338a.7.7 0 0 1 .206.497v10.453a2.35 2.35 0 0 1-2.35 2.35M7.714 3.656a.944.944 0 0 0-.943.943v14.146a.943.943 0 0 0 .943.942h10.728a.943.943 0 0 0 .943-.942V8.582l-4.927-4.926z"/><path fill="#DBE2E6" d="M20.088 8.994h-3.693a2.35 2.35 0 0 1-2.349-2.349V2.953a.703.703 0 0 1 1.407 0v3.692a.944.944 0 0 0 .942.943h3.693a.703.703 0 1 1 0 1.406M10.906 12.24c.205 0 .292.224.292.43 0 .234-.106.44-.292.44h-.856v3.369c0 .199-.242.298-.484.298s-.484-.1-.484-.298v-3.37h-.856c-.188 0-.292-.204-.292-.44 0-.205.087-.428.292-.428zM13.078 15.176l-.906 1.539c-.043.068-.13.099-.23.099-.266 0-.645-.21-.645-.478a.33.33 0 0 1 .056-.173l1.074-1.657-1.032-1.65a.35.35 0 0 1-.061-.193c0-.26.353-.46.626-.46a.3.3 0 0 1 .292.162l.826 1.44.825-1.44a.3.3 0 0 1 .292-.161c.273 0 .626.198.626.459a.35.35 0 0 1-.061.192l-1.032 1.65 1.074 1.658a.34.34 0 0 1 .056.173c0 .267-.38.478-.646.478-.1 0-.192-.03-.23-.1zM17.93 12.24c.205 0 .292.224.292.43 0 .234-.106.44-.292.44h-.856v3.369c0 .199-.242.298-.484.298s-.484-.1-.484-.298v-3.37h-.857c-.187 0-.291-.204-.291-.44 0-.205.087-.428.291-.428z"/></svg>