<svg xmlns="http://www.w3.org/2000/svg" width="24" height="24" fill="none"><path fill="#DBE2E6" d="M18.442 21.094H7.714a2.35 2.35 0 0 1-2.35-2.35V4.6a2.35 2.35 0 0 1 2.35-2.349h7.036a.7.7 0 0 1 .497.206l5.338 5.338a.7.7 0 0 1 .206.497v10.453a2.35 2.35 0 0 1-2.35 2.35M7.714 3.656a.944.944 0 0 0-.943.943v14.146a.943.943 0 0 0 .943.942h10.728a.943.943 0 0 0 .943-.942V8.582l-4.927-4.926z"/><path fill="#DBE2E6" d="M20.088 8.994h-3.693a2.35 2.35 0 0 1-2.349-2.349V2.953a.703.703 0 0 1 1.407 0v3.692a.944.944 0 0 0 .942.943h3.693a.703.703 0 1 1 0 1.406M11.974 12.24c.204 0 .291.224.291.43 0 .234-.105.44-.291.44h-.857v3.369c0 .199-.242.298-.484.298s-.484-.1-.484-.298v-3.37h-.856c-.188 0-.292-.204-.292-.44 0-.205.087-.428.292-.428zM12.65 12.533c0-.205.242-.292.484-.292s.484.087.484.292v3.946c0 .199-.242.298-.484.298s-.484-.1-.484-.298zM14.288 12.54c0-.2.21-.3.422-.3h2.153c.204 0 .291.218.291.417 0 .23-.105.428-.291.428h-1.607v1.049h.937c.188 0 .292.18.292.378 0 .167-.087.366-.292.366h-.937v1.6c0 .2-.242.299-.484.299s-.484-.1-.484-.298z"/></svg>