<svg xmlns="http://www.w3.org/2000/svg" width="24" height="24" fill="none"><path fill="#DBE2E6" d="M18.047 21.094H7.317a2.35 2.35 0 0 1-2.348-2.35V4.6A2.35 2.35 0 0 1 7.317 2.25h7.036a.7.7 0 0 1 .498.206l5.338 5.338a.7.7 0 0 1 .205.497v10.453a2.35 2.35 0 0 1-2.347 2.35M7.317 3.656a.944.944 0 0 0-.942.943v14.146a.944.944 0 0 0 .942.942h10.73a.943.943 0 0 0 .942-.942V8.582l-4.927-4.926z"/><path fill="#DBE2E6" d="M19.691 8.994H16a2.35 2.35 0 0 1-2.35-2.349V2.953a.703.703 0 0 1 1.407 0v3.692a.944.944 0 0 0 .943.943h3.692a.703.703 0 0 1 0 1.406M15.414 14.545H9.949a.703.703 0 0 1 0-1.406h5.465a.703.703 0 1 1 0 1.406"/></svg>