<svg xmlns="http://www.w3.org/2000/svg" width="24" height="24" fill="none"><path fill="#DBE2E6" d="M16.942 21.094H6.214a2.35 2.35 0 0 1-2.35-2.35V4.6a2.35 2.35 0 0 1 2.35-2.349h7.036a.7.7 0 0 1 .497.206l5.338 5.338a.7.7 0 0 1 .206.497v10.453a2.35 2.35 0 0 1-2.35 2.35M6.214 3.656a.944.944 0 0 0-.943.943v14.146a.943.943 0 0 0 .943.942h10.728a.943.943 0 0 0 .943-.942V8.582l-4.927-4.926z"/><path fill="#DBE2E6" d="M18.588 8.994h-3.693a2.35 2.35 0 0 1-2.349-2.349V2.953a.703.703 0 0 1 1.407 0v3.692a.944.944 0 0 0 .942.943h3.693a.703.703 0 1 1 0 1.406M6.558 12.533c0-.156.143-.292.36-.292h1.285c.819 0 1.464.385 1.464 1.427v.031c0 1.043-.67 1.44-1.526 1.44h-.615v1.34c0 .199-.242.298-.484.298s-.484-.1-.484-.298zm.968.552v1.309h.615c.347 0 .558-.198.558-.62v-.069c0-.422-.211-.62-.558-.62zM10.089 12.533c0-.156.14-.292.36-.292h1.284c.82 0 1.465.385 1.465 1.427v.031c0 1.043-.67 1.44-1.527 1.44h-.614v1.34c0 .199-.242.298-.484.298-.243 0-.484-.1-.484-.298zm.968.552v1.309h.615c.348 0 .559-.198.559-.62v-.069c0-.422-.211-.62-.56-.62zM16.306 12.24c.205 0 .291.224.291.43 0 .234-.105.44-.291.44h-.857v3.369c0 .199-.241.298-.483.298s-.484-.1-.484-.298v-3.37h-.856c-.188 0-.292-.204-.292-.44 0-.205.087-.428.292-.428z"/></svg>