<svg xmlns="http://www.w3.org/2000/svg" width="24" height="24" fill="none"><path fill="#DBE2E6" d="M17.758 21.094H7.03a2.35 2.35 0 0 1-2.349-2.35V4.6a2.35 2.35 0 0 1 2.35-2.349h7.035a.7.7 0 0 1 .498.206L19.9 7.794a.7.7 0 0 1 .206.497v10.453a2.35 2.35 0 0 1-2.35 2.35M7.03 3.656a.944.944 0 0 0-.942.943v14.146a.943.943 0 0 0 .942.942h10.727a.943.943 0 0 0 .942-.942V8.582l-4.926-4.926z"/><path fill="#DBE2E6" d="M19.404 8.994H15.71a2.35 2.35 0 0 1-2.349-2.349V2.953a.703.703 0 0 1 1.407 0v3.692a.943.943 0 0 0 .942.943h3.693a.703.703 0 0 1 0 1.406M12.394 17.578a.7.7 0 0 1-.498-.206L9.344 14.82a.704.704 0 0 1 .994-.995l2.056 2.055 2.055-2.055a.703.703 0 0 1 .994.995l-2.552 2.55a.7.7 0 0 1-.497.208"/><path fill="#DBE2E6" d="M12.394 17.11a.703.703 0 0 1-.703-.704v-5.578a.703.703 0 0 1 1.406 0v5.578a.703.703 0 0 1-.703.703"/></svg>