<svg xmlns="http://www.w3.org/2000/svg" width="24" height="24" fill="none"><path fill="#DBE2E6" d="M16.942 21.094H6.214a2.35 2.35 0 0 1-2.35-2.35V4.6a2.35 2.35 0 0 1 2.35-2.349h7.036a.7.7 0 0 1 .497.206l5.338 5.338a.7.7 0 0 1 .206.497v10.453a2.35 2.35 0 0 1-2.35 2.35M6.214 3.656a.944.944 0 0 0-.943.943v14.146a.943.943 0 0 0 .943.942h10.728a.943.943 0 0 0 .943-.942V8.582l-4.927-4.926z"/><path fill="#DBE2E6" d="M18.588 8.994h-3.693a2.35 2.35 0 0 1-2.349-2.349V2.953a.703.703 0 0 1 1.407 0v3.692a.944.944 0 0 0 .942.943h3.693a.703.703 0 1 1 0 1.406M6.353 12.844a.243.243 0 0 1 .252-.246h1.082c.718 0 1.288.267 1.288 1.12 0 .586-.267.922-.633 1.063l.64 1.156q.026.044.025.094c0 .204-.272.422-.512.422a.28.28 0 0 1-.262-.152l-.717-1.392h-.344v1.263c0 .168-.204.251-.409.251-.204 0-.408-.083-.408-.251zm.819.463v.974h.515c.293 0 .47-.12.47-.487 0-.366-.179-.487-.47-.487zM9.149 16.087a.3.3 0 0 1 .01-.057l.974-3.194c.058-.183.293-.272.534-.272s.476.089.534.272l.979 3.195a.3.3 0 0 1 .01.057c0 .194-.298.336-.523.336-.131 0-.234-.042-.267-.152l-.178-.656h-1.105l-.178.656c-.031.11-.136.152-.266.152-.226-.002-.524-.143-.524-.337m1.9-1.1-.382-1.402-.382 1.403zM15.75 16.181c-.063.183-.298.273-.54.273-.24 0-.486-.09-.528-.273l-.272-1.24-.272 1.24c-.042.183-.293.273-.529.273-.235 0-.482-.09-.54-.273l-1.04-3.193a.2.2 0 0 1-.011-.068c0-.178.293-.325.529-.325.125 0 .23.042.261.152l.797 2.686.41-1.77c.032-.14.215-.214.393-.214s.361.073.393.215l.413 1.769.797-2.686c.032-.11.136-.152.262-.152.234 0 .528.147.528.325a.2.2 0 0 1-.01.068z"/></svg>