<svg xmlns="http://www.w3.org/2000/svg" width="24" height="24" fill="none"><path fill="#DBE2E6" d="M16.942 21.094H6.214a2.35 2.35 0 0 1-2.35-2.35V4.6a2.35 2.35 0 0 1 2.35-2.349h7.036a.7.7 0 0 1 .497.206l5.338 5.338a.7.7 0 0 1 .206.497v10.453a2.35 2.35 0 0 1-2.35 2.35M6.214 3.656a.944.944 0 0 0-.943.943v14.146a.943.943 0 0 0 .943.942h10.728a.943.943 0 0 0 .943-.942V8.582l-4.927-4.926z"/><path fill="#DBE2E6" d="M18.588 8.994h-3.693a2.35 2.35 0 0 1-2.349-2.349V2.953a.703.703 0 0 1 1.407 0v3.692a.944.944 0 0 0 .942.943h3.693a.703.703 0 1 1 0 1.406M8.097 15.17a.36.36 0 0 1-.323.18.32.32 0 0 1-.304-.18l-.59-1.078v2.39c0 .199-.241.298-.483.298s-.484-.1-.484-.298v-3.757c0-.354.242-.484.484-.484.347 0 .496.037.75.484l.639 1.117.639-1.117c.254-.447.403-.484.75-.484.248 0 .484.13.484.484v3.754c0 .199-.242.298-.484.298s-.484-.1-.484-.298v-2.327zM10.281 15.35v-1.645c0-1.067.664-1.464 1.52-1.464.857 0 1.526.397 1.526 1.464v1.645c0 1.067-.67 1.464-1.526 1.464s-1.52-.397-1.52-1.464m2.079-1.645c0-.428-.211-.62-.559-.62-.347 0-.551.192-.551.62v1.645c0 .428.205.62.552.62s.559-.192.559-.62zM13.65 12.706a.3.3 0 0 1-.012-.068c0-.23.354-.397.62-.397.156 0 .282.05.317.18l.868 3.183.863-3.182c.037-.13.161-.18.316-.18.267 0 .62.168.62.397a.3.3 0 0 1-.012.068l-1.152 3.785c-.068.217-.347.322-.633.322-.285 0-.562-.105-.633-.322z"/></svg>