<svg xmlns="http://www.w3.org/2000/svg" width="24" height="24" fill="none"><path fill="#DBE2E6" d="M17.317 21.094H6.589a2.35 2.35 0 0 1-2.35-2.35V4.6A2.35 2.35 0 0 1 6.59 2.25h7.036a.7.7 0 0 1 .497.206l5.338 5.338a.7.7 0 0 1 .206.497v10.453a2.35 2.35 0 0 1-2.35 2.35M6.589 3.656a.944.944 0 0 0-.943.943v14.146a.943.943 0 0 0 .943.942h10.728a.943.943 0 0 0 .943-.942V8.582l-4.927-4.926z"/><path fill="#DBE2E6" d="M18.963 8.994H15.27a2.35 2.35 0 0 1-2.349-2.349V2.953a.703.703 0 0 1 1.407 0v3.692a.944.944 0 0 0 .942.943h3.693a.703.703 0 1 1 0 1.406M6.769 12.533c0-.156.14-.292.36-.292h1.284c.82 0 1.464.385 1.464 1.427v.031c0 1.043-.67 1.44-1.526 1.44h-.614v1.34c0 .199-.242.298-.484.298s-.484-.1-.484-.298zm.968.552v1.309h.614c.347 0 .558-.198.558-.62v-.069c0-.422-.21-.62-.558-.62zM12.446 16.516l-1.179-2.146v2.109c0 .199-.242.298-.483.298-.242 0-.485-.1-.485-.298v-3.94c0-.205.242-.298.485-.298.347 0 .477.03.713.484l1.005 1.917v-2.109c0-.204.242-.292.484-.292s.484.088.484.292v3.946c0 .2-.242.298-.484.298-.223 0-.424-.043-.54-.26M15.617 13.085c-.354 0-.559.198-.559.62v1.645c0 .422.205.62.553.62s.558-.198.558-.62v-.21h-.366c-.188 0-.292-.18-.292-.372 0-.18.106-.372.292-.372h1.042c.188 0 .292.143.292.304v.652c0 1.067-.67 1.464-1.526 1.464s-1.52-.397-1.52-1.464v-1.647c0-1.067.676-1.464 1.488-1.464.888 0 1.558.447 1.558 1.235 0 .372-.155.459-.484.459-.26 0-.478-.068-.484-.292s-.025-.558-.552-.558"/></svg>