<svg xmlns="http://www.w3.org/2000/svg" width="24" height="24" fill="none"><path fill="#DBE2E6" d="M17.608 21.094H6.88a2.35 2.35 0 0 1-2.349-2.35V4.6A2.35 2.35 0 0 1 6.88 2.25h7.036c.186 0 .365.074.497.206l5.338 5.338a.7.7 0 0 1 .206.497v10.453a2.35 2.35 0 0 1-2.349 2.35M6.88 3.656a.944.944 0 0 0-.943.943v14.146a.943.943 0 0 0 .943.942h10.728a.943.943 0 0 0 .943-.942V8.582l-4.927-4.926z"/><path fill="#DBE2E6" d="M19.254 8.994h-3.692a2.35 2.35 0 0 1-2.348-2.349V2.953a.703.703 0 0 1 1.406 0v3.692a.943.943 0 0 0 .943.943h3.692a.703.703 0 1 1 0 1.406zM12.244 16.828a5.28 5.28 0 0 1-4.758-2.986.7.7 0 0 1 0-.612 5.284 5.284 0 0 1 9.516 0 .7.7 0 0 1 0 .612 5.28 5.28 0 0 1-4.758 2.986m-3.328-3.292a3.877 3.877 0 0 0 6.653 0 3.878 3.878 0 0 0-6.653 0"/><path fill="#DBE2E6" d="M12.244 14.966h-.07l-.07-.006a2 2 0 0 1-.14-.02l-.068-.016c-.022-.006-.047-.012-.067-.02-.02-.006-.047-.013-.067-.021l-.065-.025a2 2 0 0 1-.126-.06l-.062-.034-.059-.038q-.03-.02-.057-.04l-.056-.043-.053-.047-.051-.047a.4.4 0 0 1-.047-.051l-.047-.053q-.023-.028-.043-.056a1.3 1.3 0 0 1-.112-.177 2 2 0 0 1-.107-.259l-.019-.067-.015-.069a1 1 0 0 1-.021-.138l-.005-.07v-.141q0-.036.005-.07.003-.036.009-.07.004-.034.012-.07l.015-.067q.009-.035.019-.068l.022-.066a1.5 1.5 0 0 1 .12-.253q.016-.03.037-.06.019-.03.04-.057l.043-.056a1 1 0 0 1 .047-.053q.025-.025.047-.05a.4.4 0 0 1 .05-.048q.028-.02.054-.046.027-.024.056-.043a2 2 0 0 1 .116-.078l.062-.035.062-.031q.032-.016.064-.028a2 2 0 0 1 .132-.047q.036-.011.067-.02l.068-.015a1 1 0 0 1 .14-.02q.034-.005.07-.006.07-.003.14 0 .035.001.07.005a2 2 0 0 1 .275.056l.066.022a2 2 0 0 1 .13.053l.062.031.061.035a2 2 0 0 1 .172.12l.053.047.052.047a.4.4 0 0 1 .046.051q.023.027.047.053.024.027.043.056.021.029.04.057.02.03.038.06l.035.06.03.063a2 2 0 0 1 .076.196l.02.068a1 1 0 0 1 .027.137 2 2 0 0 1 .014.14v.14q-.001.037-.005.07l-.01.07-.011.07-.016.068c-.005.021-.012.047-.019.067l-.022.067a1.7 1.7 0 0 1-.119.253q-.018.03-.037.059a1 1 0 0 1-.084.112q-.022.028-.047.054-.024.026-.046.051a1 1 0 0 1-.052.047l-.053.047-.055.043q-.028.021-.058.04l-.059.038a1 1 0 0 1-.124.065 2 2 0 0 1-.13.054l-.065.022-.068.02-.068.014-.07.013q-.033.005-.069.008l-.07.006z"/></svg>