<svg xmlns="http://www.w3.org/2000/svg" width="24" height="24" fill="none"><path fill="#DBE2E6" d="M17.317 21.094H6.589a2.35 2.35 0 0 1-2.35-2.35V4.6A2.35 2.35 0 0 1 6.59 2.25h7.036a.7.7 0 0 1 .497.206l5.338 5.338a.7.7 0 0 1 .206.497v10.453a2.35 2.35 0 0 1-2.35 2.35M6.589 3.656a.944.944 0 0 0-.943.943v14.146a.943.943 0 0 0 .943.942h10.728a.943.943 0 0 0 .943-.942V8.582l-4.927-4.926z"/><path fill="#DBE2E6" d="M18.963 8.994H15.27a2.35 2.35 0 0 1-2.349-2.349V2.953a.703.703 0 0 1 1.407 0v3.692a.944.944 0 0 0 .942.943h3.693a.703.703 0 1 1 0 1.406M9.012 15.412v-.118c0-.416-.255-.497-.596-.497-.21 0-.281-.187-.281-.372 0-.184.068-.372.281-.372.235 0 .484-.031.484-.534 0-.36-.205-.447-.459-.447-.304 0-.46.075-.46.317 0 .21-.093.354-.452.354-.447 0-.503-.094-.503-.391 0-.484.348-1.111 1.415-1.111.788 0 1.384.285 1.384 1.125 0 .453-.168.875-.478 1.018.366.136.633.41.633.912v.117c0 1.018-.704 1.403-1.57 1.403-1.067 0-1.477-.652-1.477-1.172 0-.281.118-.353.46-.353.397 0 .496.086.496.322 0 .292.273.36.552.36.422-.003.571-.158.571-.561M12.003 12.24c.856 0 1.526.398 1.526 1.465v1.608c0 1.066-.67 1.464-1.526 1.464h-1.098c-.255 0-.422-.137-.422-.292v-3.952c0-.156.167-.292.422-.292zm-.552.845v2.848h.552c.347 0 .558-.198.558-.62v-1.608c0-.422-.21-.62-.558-.62zM16.005 15.563c0-.75-1.97-.621-1.97-2.073 0-.93.813-1.284 1.59-1.284.327 0 1.234.062 1.234.546 0 .167-.112.508-.385.508-.223 0-.341-.234-.85-.234-.44 0-.62.18-.62.372 0 .62 1.968.503 1.968 2.066 0 .894-.651 1.378-1.55 1.378-.814 0-1.496-.397-1.496-.806 0-.212.188-.522.422-.522.291 0 .478.46 1.055.46.285-.004.601-.116.601-.412"/></svg>