<svg xmlns="http://www.w3.org/2000/svg" width="24" height="24" fill="none"><path fill="#DBE2E6" d="M19.36 16.554H4.557a2.023 2.023 0 0 1-2.02-2.02v-9.83a2.023 2.023 0 0 1 2.02-2.02H19.36a2.02 2.02 0 0 1 2.02 2.02v9.83a2.02 2.02 0 0 1-2.02 2.02M4.557 4.09a.615.615 0 0 0-.614.614v9.83a.615.615 0 0 0 .614.614H19.36a.615.615 0 0 0 .614-.614v-9.83a.615.615 0 0 0-.614-.614z"/><path fill="#DBE2E6" d="M15.194 19.015h-6.47a.703.703 0 0 1-.655-.954l.937-2.46a.7.7 0 0 1 .656-.453h4.594a.7.7 0 0 1 .656.453l.938 2.46a.703.703 0 0 1-.656.954m-5.449-1.406h4.428l-.402-1.055h-3.624z"/><path fill="#DBE2E6" d="M16.622 19.015H7.294a.703.703 0 1 1 0-1.406h9.328a.703.703 0 0 1 0 1.406M20.678 14.234H3.24a.703.703 0 0 1 0-1.406h17.438a.703.703 0 0 1 0 1.406"/></svg>