<svg xmlns="http://www.w3.org/2000/svg" width="24" height="24" fill="none"><path fill="#DBE2E6" d="M17.703 21.094H6.975a2.35 2.35 0 0 1-2.349-2.35V4.6A2.35 2.35 0 0 1 6.975 2.25h7.036c.186 0 .365.074.497.206l5.338 5.338a.7.7 0 0 1 .206.497v10.453a2.35 2.35 0 0 1-2.349 2.35M6.975 3.656a.944.944 0 0 0-.943.943v14.146a.943.943 0 0 0 .943.942h10.728a.943.943 0 0 0 .943-.942V8.582l-4.927-4.926z"/><path fill="#DBE2E6" d="M19.349 8.994h-3.693a2.35 2.35 0 0 1-2.349-2.349V2.953a.703.703 0 0 1 1.406 0v3.692a.943.943 0 0 0 .943.943h3.692a.703.703 0 1 1 0 1.406M7.313 12.533c0-.156.14-.292.36-.292h1.28c.819 0 1.465.385 1.465 1.427v.031c0 1.043-.67 1.44-1.527 1.44h-.613v1.34c0 .199-.242.298-.484.298s-.481-.1-.481-.298zm.967.552v1.309h.615c.347 0 .558-.198.558-.62v-.069c0-.422-.211-.62-.558-.62zM12.36 12.24c.857 0 1.527.398 1.527 1.465v1.608c0 1.066-.67 1.464-1.527 1.464h-1.098c-.254 0-.422-.137-.422-.292v-3.952c0-.156.168-.292.422-.292zm-.552.845v2.848h.552c.348 0 .559-.198.559-.62v-1.608c0-.422-.21-.62-.559-.62zM14.501 12.54c0-.2.211-.3.422-.3h2.153c.205 0 .292.218.292.417 0 .23-.105.428-.292.428h-1.607v1.049h.937c.188 0 .292.18.292.378 0 .167-.087.366-.292.366h-.937v1.6c0 .2-.242.299-.484.299s-.484-.1-.484-.298z"/></svg>