<svg xmlns="http://www.w3.org/2000/svg" width="24" height="24" fill="none"><path fill="#DBE2E6" d="M11.96 19.31a5.25 5.25 0 1 1 0-10.5 5.25 5.25 0 0 1 0 10.5m0-9.091a3.844 3.844 0 1 0 0 7.688 3.844 3.844 0 0 0 0-7.688M6.422 18.656a.7.7 0 0 1-.331-.083.7.7 0 0 1-.319-.351.8.8 0 0 1-.05-.2.7.7 0 0 1 .01-.206.6.6 0 0 1 .07-.194.68.68 0 0 1 .351-.319l.065-.023q.035-.01.067-.017a.6.6 0 0 1 .207-.01 1 1 0 0 1 .134.027q.032.01.065.023a.74.74 0 0 1 .275.204.7.7 0 0 1 .106.177 1 1 0 0 1 .04.132.8.8 0 0 1 .01.206 1 1 0 0 1-.027.135q-.01.032-.024.065a.8.8 0 0 1-.152.229l-.051.046a.8.8 0 0 1-.177.106.6.6 0 0 1-.132.04 1 1 0 0 1-.137.013"/><path fill="#DBE2E6" d="M20.678 21.648H3.24a.703.703 0 0 1-.703-.703V8.399a.703.703 0 0 1 .703-.703h3.78L8.143 5.45a.7.7 0 0 1 .628-.388h6.375a.7.7 0 0 1 .629.388L16.9 7.696h3.778a.703.703 0 0 1 .703.703v12.546a.703.703 0 0 1-.704.703M3.944 20.242h16.03V9.102h-3.508a.7.7 0 0 1-.629-.388L14.712 6.47H9.206L8.081 8.714a.7.7 0 0 1-.628.388h-3.51z"/></svg>