<svg xmlns="http://www.w3.org/2000/svg" width="24" height="24" fill="none"><path fill="#DBE2E6" d="M12.047 21.102a.7.7 0 0 1-.343-.09 13.22 13.22 0 0 1-6.78-11.84c.048-2.132.841-3.928 2.298-5.192 1.288-1.115 3.001-1.73 4.825-1.73s3.537.615 4.823 1.73c1.458 1.266 2.253 3.06 2.297 5.192q.002.141.003.287a13.2 13.2 0 0 1-1.875 6.791 13.3 13.3 0 0 1-4.905 4.762.7.7 0 0 1-.343.09m0-17.446c-1.486 0-2.872.492-3.902 1.387-1.15.996-1.777 2.435-1.814 4.159q-.001.128-.003.257a11.82 11.82 0 0 0 5.719 10.125 11.9 11.9 0 0 0 4.044-4.058 11.8 11.8 0 0 0 1.675-6.067q0-.13-.003-.257c-.037-1.724-.664-3.163-1.814-4.16-1.031-.894-2.417-1.386-3.902-1.386"/><path fill="#DBE2E6" d="M12.065 13.903a4.421 4.421 0 1 1 0-8.843 4.421 4.421 0 0 1 0 8.843m0-7.436a3.015 3.015 0 1 0 0 6.027 3.015 3.015 0 0 0 0-6.025z"/></svg>