<svg xmlns="http://www.w3.org/2000/svg" width="24" height="24" fill="none"><path fill="#DBE2E6" d="M20.678 6.656H3.24a.703.703 0 0 1-.703-.703v-3a.703.703 0 0 1 .703-.703h17.438a.703.703 0 0 1 .703.703v3a.703.703 0 0 1-.703.703M3.944 5.25h16.03V3.656H3.945z"/><path fill="#DBE2E6" d="M19.266 18.428H4.656a.703.703 0 0 1-.704-.703V5.953a.703.703 0 0 1 .704-.703h14.61a.703.703 0 0 1 .703.703v11.772a.703.703 0 0 1-.704.703M5.36 17.022h13.201V6.656H5.36z"/><path fill="#DBE2E6" d="M11.511 21.188a2.083 2.083 0 1 1-.001-4.166 2.083 2.083 0 0 1 .001 4.166m0-2.76a.677.677 0 1 0 0 1.354.677.677 0 0 0 0-1.354"/><path fill="#DBE2E6" d="M19.969 18.428H3.948a.703.703 0 0 1 0-1.406h16.02a.703.703 0 0 1 0 1.406M6.703 15.469A.703.703 0 0 1 6 14.766v-1.97a.703.703 0 0 1 1.406 0v1.97a.703.703 0 0 1-.703.703M8.662 15.469a.703.703 0 0 1-.704-.703V10.78a.703.703 0 0 1 1.407 0v3.985a.703.703 0 0 1-.703.703M10.62 15.469a.703.703 0 0 1-.703-.703V8.109a.703.703 0 1 1 1.406 0v6.657a.703.703 0 0 1-.703.703M17.11 10.313h-3.844a.703.703 0 0 1 0-1.407h3.843a.703.703 0 0 1 0 1.406M17.11 12.542h-3.844a.703.703 0 1 1 0-1.406h3.843a.703.703 0 0 1 0 1.406M17.11 14.772h-3.844a.703.703 0 0 1 0-1.406h3.843a.703.703 0 1 1 0 1.406"/></svg>