<svg xmlns="http://www.w3.org/2000/svg" width="24" height="24" fill="none"><path fill="#DBE2E6" d="M11.96 21.094c-2.485 0-4.829-.765-6.6-2.157-1.82-1.426-2.823-3.342-2.823-5.39 0-2.049 1.003-3.964 2.823-5.39C7.13 6.766 9.474 6 11.96 6c2.484 0 4.827.765 6.599 2.156 1.82 1.429 2.822 3.344 2.822 5.39 0 2.047-1.002 3.965-2.822 5.392-1.77 1.39-4.114 2.156-6.6 2.156m0-13.688c-4.42 0-8.016 2.755-8.016 6.14 0 3.387 3.595 6.142 8.015 6.142s8.016-2.755 8.016-6.141-3.596-6.14-8.016-6.14"/><path fill="#DBE2E6" d="M9.989 7.527a2.672 2.672 0 1 1 0-5.344 2.672 2.672 0 0 1 0 5.344m0-3.941a1.266 1.266 0 1 0 0 2.531 1.266 1.266 0 0 0 0-2.531"/><path fill="#DBE2E6" d="M13.93 7.527a2.672 2.672 0 1 1 0-5.344 2.672 2.672 0 0 1 0 5.344m0-3.941a1.266 1.266 0 1 0 0 2.531 1.266 1.266 0 0 0 0-2.531"/></svg>