<svg xmlns="http://www.w3.org/2000/svg" width="24" height="24" fill="none"><path fill="#DBE2E6" d="M5.284 21.094a.703.703 0 0 1-.703-.703V2.953a.703.703 0 1 1 1.406 0v17.438a.703.703 0 0 1-.703.703"/><path fill="#DBE2E6" d="M20.853 19.125H3.415a.703.703 0 0 1 0-1.406h17.438a.703.703 0 1 1 0 1.406M19.603 15.938a.7.7 0 0 1-.58-.307l-5.464-7.984-2.35 3.758a.702.702 0 0 1-1.225-.053L7.42 6.332a.703.703 0 1 1 1.252-.64l2.002 3.917 2.263-3.62a.704.704 0 0 1 1.177-.023l6.07 8.871a.703.703 0 0 1-.581 1.1"/></svg>