<svg xmlns="http://www.w3.org/2000/svg" width="24" height="24" fill="none"><path fill="#DBE2E6" d="M18.646 14.813H9.03a.7.7 0 0 1-.686-.548l-1.62-7.053a.703.703 0 0 1 .686-.86h12.856a.704.704 0 0 1 .687.86l-1.622 7.054a.7.7 0 0 1-.685.547M9.59 13.406h8.496l1.297-5.647H8.293zM10.406 21.094a2.695 2.695 0 1 1 0-5.39 2.695 2.695 0 0 1 0 5.39m0-3.982a1.289 1.289 0 1 0 0 2.577 1.289 1.289 0 0 0 0-2.577M17.27 21.094a2.695 2.695 0 1 1 0-5.39 2.695 2.695 0 0 1 0 5.39m0-3.982a1.288 1.288 0 1 0 0 2.577 1.288 1.288 0 0 0 0-2.577"/><path fill="#DBE2E6" d="M7.41 7.757a.7.7 0 0 1-.667-.48l-1.205-3.62H3.314a.703.703 0 0 1 0-1.407h2.733a.7.7 0 0 1 .667.48l1.365 4.102a.703.703 0 0 1-.667.925z"/></svg>