<svg xmlns="http://www.w3.org/2000/svg" width="24" height="24" fill="none"><path fill="#DBE2E6" d="M17.505 20.833a.7.7 0 0 1-.53-.24l-2.247-2.567c-.904.233-1.835.35-2.769.349-2.49 0-4.841-.81-6.615-2.28-1.811-1.5-2.809-3.51-2.809-5.653 0-2.144 1-4.151 2.809-5.652 1.774-1.47 4.125-2.28 6.615-2.28s4.841.81 6.614 2.28c1.811 1.5 2.808 3.508 2.808 5.652 0 2.288-1.152 4.434-3.173 5.94v3.75a.703.703 0 0 1-.703.703zm-2.54-4.307a.7.7 0 0 1 .53.24L16.8 18.26V16.02a.7.7 0 0 1 .308-.58c1.823-1.247 2.868-3.068 2.868-4.998 0-3.598-3.596-6.525-8.016-6.525s-8.016 2.927-8.016 6.525 3.594 6.527 8.014 6.527a9.6 9.6 0 0 0 2.801-.41.7.7 0 0 1 .205-.033"/><path fill="#DBE2E6" d="M9.445 12.375q-.035 0-.07-.003l-.068-.01a1 1 0 0 1-.066-.018q-.032-.01-.065-.023a.8.8 0 0 1-.177-.105.7.7 0 0 1-.174-.214.7.7 0 0 1 .69-1.03.8.8 0 0 1 .199.05.8.8 0 0 1 .177.105.7.7 0 0 1 .204.275l.023.065c.007.022.012.047.017.067a.7.7 0 0 1-.017.342.8.8 0 0 1-.088.186.8.8 0 0 1-.14.154.7.7 0 0 1-.176.105 1 1 0 0 1-.132.04 1 1 0 0 1-.137.014M14.648 12.375a.7.7 0 0 1-.268-.054.8.8 0 0 1-.177-.105.6.6 0 0 1-.098-.099.8.8 0 0 1-.106-.177 1 1 0 0 1-.04-.131.7.7 0 0 1 0-.275.6.6 0 0 1 .04-.132.7.7 0 0 1 .106-.176.7.7 0 0 1 .213-.175.7.7 0 0 1 .665 0 .8.8 0 0 1 .166.123 1 1 0 0 1 .087.107.7.7 0 0 1 .088.186.677.677 0 0 1-.024.473.7.7 0 0 1-.151.229 1 1 0 0 1-.107.087.8.8 0 0 1-.186.088.6.6 0 0 1-.135.028zM12.047 12.375a.71.71 0 0 1-.673-.499.676.676 0 0 1 0-.41.7.7 0 0 1 .129-.242l.046-.051a.71.71 0 0 1 .944-.047.6.6 0 0 1 .098.099.8.8 0 0 1 .105.176 1 1 0 0 1 .04.132.7.7 0 0 1 .01.209.7.7 0 0 1-.05.2.6.6 0 0 1-.064.12.8.8 0 0 1-.14.155.7.7 0 0 1-.241.128.62.62 0 0 1-.204.03"/></svg>