<svg xmlns="http://www.w3.org/2000/svg" width="24" height="24" fill="none"><path fill="#DBE2E6" d="M17.56 20.918a.7.7 0 0 1-.529-.24l-2.272-2.596c-.915.235-1.856.353-2.8.352-2.515 0-4.886-.817-6.675-2.3-1.828-1.516-2.834-3.541-2.834-5.704 0-2.164 1.007-4.19 2.834-5.704 1.789-1.483 4.16-2.3 6.675-2.3 2.516 0 4.887.817 6.676 2.3 1.828 1.515 2.834 3.54 2.834 5.704 0 2.31-1.164 4.476-3.206 5.996v3.789a.703.703 0 0 1-.703.703m-2.565-4.336a.7.7 0 0 1 .53.24l1.332 1.522v-2.28a.7.7 0 0 1 .306-.58c1.843-1.26 2.9-3.103 2.9-5.054 0-3.638-3.636-6.598-8.104-6.598s-8.103 2.96-8.103 6.598 3.636 6.597 8.103 6.597a9.7 9.7 0 0 0 2.832-.415.7.7 0 0 1 .204-.03"/><path fill="#DBE2E6" d="M11.96 14.378a.7.7 0 0 1-.172-.021c-2.21-.555-3.765-1.908-4.265-3.713-.345-1.246-.11-2.51.6-3.22.755-.755 1.984-.964 3.06-.518.284.116.547.28.775.485.23-.205.492-.37.777-.485 1.075-.446 2.304-.235 3.06.519.709.709.944 1.973.6 3.219-.5 1.805-2.054 3.158-4.266 3.713a.7.7 0 0 1-.17.021m-1.947-6.296c-.322 0-.653.093-.895.337-.292.292-.469 1.021-.239 1.85.348 1.26 1.467 2.229 3.08 2.679 1.615-.45 2.733-1.42 3.081-2.68.23-.828.053-1.557-.239-1.849-.411-.411-1.078-.4-1.527-.214-.143.06-.611.286-.611.706a.703.703 0 0 1-1.407 0c0-.421-.469-.647-.61-.706a1.7 1.7 0 0 0-.633-.123"/></svg>