<svg width="24" height="24" viewBox="0 0 24 24" fill="none" xmlns="http://www.w3.org/2000/svg">
<path d="M8.39063 18.1875H4.84454C4.23291 18.1869 3.6465 17.9437 3.21396 17.5112C2.78143 17.0788 2.5381 16.4924 2.53735 15.8808V11.1192C2.5381 10.5076 2.78143 9.92123 3.21396 9.48878C3.6465 9.05633 4.23291 8.81312 4.84454 8.8125H8.39063C8.57712 8.8125 8.75596 8.88658 8.88782 9.01844C9.01968 9.1503 9.09376 9.32914 9.09376 9.51562V17.4844C9.09376 17.6709 9.01968 17.8497 8.88782 17.9816C8.75596 18.1134 8.57712 18.1875 8.39063 18.1875ZM4.84454 10.2188C4.60575 10.219 4.37681 10.3139 4.20792 10.4827C4.03903 10.6515 3.94398 10.8804 3.9436 11.1192V15.8808C3.94398 16.1196 4.03903 16.3485 4.20792 16.5173C4.37681 16.6861 4.60575 16.781 4.84454 16.7812H7.68751V10.2188H4.84454Z" fill="#DBE2E6"/>
<path d="M13.8281 21.2306H11.5134C10.4991 21.2295 9.52658 20.8261 8.80932 20.1088C8.09206 19.3915 7.68862 18.419 7.6875 17.4047V9.59532C7.68862 8.58096 8.09206 7.60846 8.80932 6.8912C9.52658 6.17394 10.4991 5.7705 11.5134 5.76938H13.8281C14.0146 5.76938 14.1934 5.84346 14.3253 5.97532C14.4572 6.10718 14.5312 6.28602 14.5312 6.4725V20.5275C14.5312 20.714 14.4572 20.8928 14.3253 21.0247C14.1934 21.1565 14.0146 21.2306 13.8281 21.2306ZM11.5134 7.17563C10.8719 7.17637 10.2569 7.43154 9.80328 7.88516C9.34966 8.33878 9.09449 8.9538 9.09375 9.59532V17.4047C9.09449 18.0462 9.34966 18.6612 9.80328 19.1148C10.2569 19.5685 10.8719 19.8236 11.5134 19.8244H13.125V7.17563H11.5134Z" fill="#DBE2E6"/>
<path d="M16.8079 16.4799C16.6694 16.4792 16.5341 16.4376 16.4191 16.3603C16.3041 16.283 16.2145 16.1734 16.1615 16.0453C16.1086 15.9173 16.0947 15.7764 16.1215 15.6405C16.1484 15.5046 16.2148 15.3796 16.3125 15.2813C16.5464 15.0474 16.732 14.7697 16.8587 14.4641C16.9853 14.1584 17.0505 13.8308 17.0505 13.5C17.0505 13.1692 16.9853 12.8416 16.8587 12.536C16.732 12.2303 16.5464 11.9526 16.3125 11.7188C16.1805 11.5869 16.1064 11.408 16.1064 11.2214C16.1064 11.0349 16.1805 10.856 16.3125 10.7241C16.4444 10.5922 16.6233 10.5181 16.8098 10.5181C16.9963 10.5181 17.1752 10.5922 17.3071 10.7241C18.0418 11.4604 18.4543 12.458 18.4543 13.4981C18.4543 14.5382 18.0418 15.5359 17.3071 16.2722C17.2417 16.338 17.164 16.3903 17.0783 16.4259C16.9926 16.4616 16.9007 16.4799 16.8079 16.4799Z" fill="#DBE2E6"/>
<path d="M18.961 18.6328C18.8219 18.6329 18.6859 18.5917 18.5702 18.5144C18.4545 18.4372 18.3644 18.3273 18.3111 18.1988C18.2579 18.0703 18.2439 17.9289 18.2711 17.7924C18.2983 17.656 18.3653 17.5307 18.4637 17.4323C19.5051 16.3886 20.0899 14.9744 20.0899 13.5C20.0899 12.0256 19.5051 10.6114 18.4637 9.56765C18.3318 9.43575 18.2577 9.25685 18.2577 9.07031C18.2577 8.88377 18.3318 8.70487 18.4637 8.57297C18.5956 8.44106 18.7745 8.36696 18.961 8.36696C19.1476 8.36696 19.3265 8.44106 19.4584 8.57297C22.1748 11.2917 22.1748 15.7102 19.4584 18.427C19.393 18.4923 19.3155 18.5441 19.2302 18.5794C19.1448 18.6147 19.0534 18.6329 18.961 18.6328Z" fill="#DBE2E6"/>
</svg>
