<svg xmlns="http://www.w3.org/2000/svg" width="24" height="24" fill="none"><path fill="#DBE2E6" d="M8.39 18.188H4.846a2.31 2.31 0 0 1-2.308-2.307v-4.762a2.31 2.31 0 0 1 2.308-2.306H8.39a.703.703 0 0 1 .703.703v7.968a.703.703 0 0 1-.703.703m-3.545-7.97a.9.9 0 0 0-.901.901v4.762a.9.9 0 0 0 .9.9h2.844V10.22z"/><path fill="#DBE2E6" d="M13.828 21.23h-2.315a3.83 3.83 0 0 1-3.825-3.825v-7.81a3.83 3.83 0 0 1 3.825-3.826h2.315a.703.703 0 0 1 .703.704v14.055a.703.703 0 0 1-.703.703M11.513 7.177a2.42 2.42 0 0 0-2.42 2.42v7.809a2.42 2.42 0 0 0 2.42 2.42h1.612V7.174zM16.808 16.48a.703.703 0 0 1-.495-1.199 2.52 2.52 0 0 0 0-3.562.703.703 0 1 1 .994-.995 3.927 3.927 0 0 1 0 5.548.7.7 0 0 1-.5.208"/><path fill="#DBE2E6" d="M18.961 18.633a.703.703 0 0 1-.497-1.2 5.567 5.567 0 0 0 0-7.865.703.703 0 1 1 .994-.995c2.717 2.719 2.717 7.137 0 9.854a.7.7 0 0 1-.497.206"/></svg>