<svg xmlns="http://www.w3.org/2000/svg" width="24" height="24" fill="none"><path fill="#DBE2E6" d="M10.781 21.362a8.25 8.25 0 0 1-8.244-8.244c0-4.545 3.697-8.243 8.244-8.243a.703.703 0 0 1 .703.703v6.837h6.838a.703.703 0 0 1 .703.703c0 4.546-3.697 8.244-8.244 8.244m-.703-15.047c-3.441.353-6.134 3.27-6.134 6.802a6.844 6.844 0 0 0 6.837 6.84c3.533 0 6.449-2.694 6.802-6.135H10.78a.703.703 0 0 1-.703-.704z"/><path fill="#DBE2E6" d="M20.678 11.655h-7.73a.703.703 0 0 1-.703-.704v-7.73a.703.703 0 0 1 .703-.702c4.65 0 8.433 3.783 8.433 8.432a.703.703 0 0 1-.703.704m-7.027-1.407h6.29a7.04 7.04 0 0 0-6.29-6.288z"/></svg>