<svg xmlns="http://www.w3.org/2000/svg" width="24" height="24" fill="none"><path fill="#DBE2E6" d="M14.766 17.386H9.989a.703.703 0 0 1 0-1.406h4.777a.703.703 0 0 1 0 1.406M20.678 17.386h-1.613a.703.703 0 0 1 0-1.406h.91v-3.83a.77.77 0 0 0-.767-.766h-1.665a.703.703 0 0 1-.704-.703V7.658a.94.94 0 0 0-.937-.938h-1.997a.703.703 0 0 1 0-1.406h1.997a2.344 2.344 0 0 1 2.344 2.344v2.32h.962a2.175 2.175 0 0 1 2.173 2.172v4.533a.703.703 0 0 1-.703.703"/><path fill="#DBE2E6" d="M7.838 19.535a2.854 2.854 0 1 1 0-5.707 2.854 2.854 0 0 1 0 5.707m0-4.3a1.447 1.447 0 1 0 0 2.896 1.447 1.447 0 0 0 0-2.897zM16.915 19.535a2.854 2.854 0 1 1 0-5.707 2.854 2.854 0 0 1 0 5.707m0-4.3a1.447 1.447 0 1 0 0 2.896 1.447 1.447 0 0 0 0-2.897zM17.543 11.384h-3.637a.703.703 0 0 1 0-1.407h3.637a.703.703 0 1 1 0 1.407"/><path fill="#DBE2E6" d="M16.915 17.386a.7.7 0 0 1-.269-.054.6.6 0 0 1-.12-.065.7.7 0 0 1-.23-.254.8.8 0 0 1-.07-.193.7.7 0 0 1 .04-.407.8.8 0 0 1 .105-.176.7.7 0 0 1 .275-.204.7.7 0 0 1 .2-.051.7.7 0 0 1 .46.115.6.6 0 0 1 .107.088 1 1 0 0 1 .087.107 1 1 0 0 1 .065.121l.023.065a.655.655 0 0 1 .017.342.8.8 0 0 1-.07.193.8.8 0 0 1-.122.166.7.7 0 0 1-.498.207M7.838 17.386a.7.7 0 0 1-.268-.054.6.6 0 0 1-.177-.106.7.7 0 0 1-.244-.404.7.7 0 0 1 0-.275.6.6 0 0 1 .04-.131.6.6 0 0 1 .065-.122.71.71 0 0 1 .977-.194.7.7 0 0 1 .23.255 1 1 0 0 1 .052.127l.017.067a.7.7 0 0 1-.04.406.6.6 0 0 1-.106.177.749.749 0 0 1-.275.203.65.65 0 0 1-.27.05"/><path fill="#DBE2E6" d="M13.905 17.386H9.989a.703.703 0 1 1 0-1.406h3.213V5.215H3.944V15.98h1.745a.703.703 0 0 1 0 1.406H3.24a.703.703 0 0 1-.703-.703V4.512a.703.703 0 0 1 .703-.703h10.665a.703.703 0 0 1 .703.703v12.17a.703.703 0 0 1-.703.704M20.678 13.688h-.944a.703.703 0 0 1 0-1.407h.944a.703.703 0 0 1 0 1.406"/></svg>