<svg xmlns="http://www.w3.org/2000/svg" width="24" height="24" fill="none"><path fill="#DBE2E6" d="M7.366 15.53a3.855 3.855 0 1 1 .004-7.71 3.855 3.855 0 0 1-.004 7.71m0-6.304a2.45 2.45 0 1 0 .006 4.9 2.45 2.45 0 0 0-.006-4.9M17.016 9.971a3.857 3.857 0 1 1-.003-7.714 3.857 3.857 0 0 1 .003 7.714m0-6.307a2.45 2.45 0 1 0 .003 4.902 2.45 2.45 0 0 0-.003-4.902M17.016 21.094a3.857 3.857 0 1 1 0-7.714 3.857 3.857 0 0 1 0 7.714m0-6.307a2.451 2.451 0 1 0 0 4.902 2.451 2.451 0 0 0 0-4.902"/><path fill="#DBE2E6" d="M10.1 10.804a.703.703 0 0 1-.353-1.312l4.184-2.412a.704.704 0 0 1 .703 1.22l-4.184 2.41a.7.7 0 0 1-.35.094M14.282 16.366a.7.7 0 0 1-.351-.094L9.747 13.86a.704.704 0 0 1 .703-1.22l4.184 2.412a.703.703 0 0 1-.352 1.313"/></svg>