<svg xmlns="http://www.w3.org/2000/svg" width="24" height="24" fill="none"><path fill="#DBE2E6" d="M8.39 16.5H4.846a2.31 2.31 0 0 1-2.308-2.307V9.432a2.31 2.31 0 0 1 2.308-2.307H8.39a.703.703 0 0 1 .703.703v7.969a.703.703 0 0 1-.703.703M4.846 8.531a.9.9 0 0 0-.901.9v4.762a.9.9 0 0 0 .9.9h2.844V8.532z"/><path fill="#DBE2E6" d="M13.828 19.543h-2.315a3.83 3.83 0 0 1-3.825-3.826v-7.81a3.83 3.83 0 0 1 3.825-3.825h2.315a.703.703 0 0 1 .703.703V18.84a.703.703 0 0 1-.703.703M11.513 5.488a2.42 2.42 0 0 0-2.42 2.42v7.81a2.42 2.42 0 0 0 2.42 2.419h1.612V5.488zM16.704 14.503a.704.704 0 0 1-.497-1.2l3.974-3.975a.703.703 0 0 1 .994.995l-3.972 3.974a.7.7 0 0 1-.499.206"/><path fill="#DBE2E6" d="M20.678 14.503a.7.7 0 0 1-.497-.206l-3.974-3.974a.704.704 0 0 1 .996-.995l3.974 3.974a.703.703 0 0 1-.497 1.2z"/></svg>