<svg width="24" height="24" viewBox="0 0 24 24" fill="none" xmlns="http://www.w3.org/2000/svg">
<path d="M12.0469 21.1017C11.9267 21.1017 11.8086 21.0709 11.7038 21.0122C9.64688 19.865 7.93375 18.1893 6.74146 16.1582C5.54917 14.1272 4.92099 11.8145 4.92188 9.45938C4.92188 9.36313 4.92281 9.26719 4.92469 9.17156C4.97156 7.03969 5.76516 5.24438 7.22156 3.98016C8.50969 2.86453 10.223 2.25 12.0469 2.25C13.8708 2.25 15.5836 2.86453 16.8703 3.98016C18.3281 5.24578 19.1231 7.03969 19.1672 9.17156C19.1672 9.26531 19.1705 9.36328 19.1705 9.45938C19.1717 11.851 18.5237 14.198 17.2955 16.2502C16.1033 18.2379 14.4122 19.8795 12.39 21.0122C12.2852 21.0709 12.167 21.1017 12.0469 21.1017ZM12.0469 3.65625C10.5614 3.65625 9.17531 4.14844 8.14453 5.04281C6.99469 6.03938 6.3675 7.4775 6.33094 9.20156C6.33094 9.28688 6.32813 9.37313 6.32813 9.45938C6.32743 11.4969 6.85365 13.5 7.85569 15.2741C8.85773 17.0482 10.3015 18.533 12.0469 19.5844C13.7057 18.5815 15.0941 17.1882 16.0913 15.5259C17.1881 13.6925 17.7668 11.5958 17.7656 9.45938C17.7656 9.37313 17.7656 9.28688 17.7628 9.20156C17.7258 7.4775 17.0986 6.03938 15.9492 5.04281C14.918 4.14844 13.5323 3.65625 12.0469 3.65625Z" fill="#BACBDA"/>
<path d="M12.0651 13.9031C11.1906 13.9031 10.3358 13.6438 9.60874 13.158C8.88166 12.6722 8.31498 11.9817 7.98035 11.1738C7.64571 10.3659 7.55816 9.47697 7.72875 8.61933C7.89935 7.76169 8.32043 6.9739 8.93876 6.35558C9.55708 5.73726 10.3449 5.31617 11.2025 5.14558C12.0601 4.97498 12.9491 5.06254 13.757 5.39717C14.5649 5.73181 15.2554 6.29849 15.7412 7.02556C16.227 7.75263 16.4863 8.60743 16.4863 9.48188C16.4851 10.6541 16.0189 11.7779 15.19 12.6068C14.3611 13.4357 13.2373 13.9019 12.0651 13.9031ZM12.0651 6.46734C11.4687 6.46734 10.8858 6.64418 10.39 6.9755C9.89413 7.30681 9.50769 7.77772 9.27951 8.32866C9.05132 8.87961 8.99164 9.48585 9.10802 10.0707C9.22439 10.6556 9.51159 11.1928 9.93329 11.6144C10.355 12.0361 10.8923 12.3232 11.4771 12.4395C12.062 12.5558 12.6683 12.496 13.2192 12.2677C13.7701 12.0394 14.2409 11.6529 14.5722 11.157C14.9034 10.6612 15.0801 10.0782 15.0801 9.48188C15.0787 8.68284 14.7605 7.91695 14.1954 7.35212C13.6302 6.78729 12.8641 6.46962 12.0651 6.46875V6.46734Z" fill="#BACBDA"/>
</svg>
