<svg width="24" height="24" viewBox="0 0 24 24" fill="none" xmlns="http://www.w3.org/2000/svg">
<path d="M16.3472 21.0965C15.6139 21.0911 14.8839 20.9991 14.1722 20.8223C11.7145 20.2294 9.18377 18.7251 7.0472 16.5867C4.91064 14.4483 3.40455 11.917 2.81158 9.46171C2.1872 6.87889 2.63252 4.66921 4.06408 3.23764L4.47283 2.82889C4.84368 2.45878 5.34623 2.25092 5.87017 2.25092C6.39412 2.25092 6.89666 2.45878 7.26752 2.82889L9.61642 5.17733C9.98677 5.54807 10.1948 6.05065 10.1948 6.57468C10.1948 7.0987 9.98677 7.60128 9.61642 7.97202L8.22892 9.35905C8.89408 10.5262 9.79877 11.6944 10.868 12.7636C11.9372 13.8328 13.1063 14.738 14.273 15.4031L15.66 14.0156C15.8435 13.8321 16.0613 13.6865 16.3011 13.5871C16.5409 13.4878 16.7978 13.4367 17.0574 13.4367C17.3169 13.4367 17.5739 13.4878 17.8136 13.5871C18.0534 13.6865 18.2712 13.8321 18.4547 14.0156L20.8031 16.364C21.1736 16.7346 21.3817 17.2372 21.3817 17.7612C21.3817 18.2851 21.1736 18.7877 20.8031 19.1583L20.3939 19.567C19.3847 20.5781 17.9878 21.0965 16.3472 21.0965ZM5.87017 3.65624C5.79533 3.65587 5.72116 3.67044 5.65202 3.69909C5.58288 3.72774 5.52015 3.76991 5.46752 3.82311L5.0583 4.23186C3.98627 5.30389 3.67314 7.04436 4.17658 9.12983C4.70955 11.3391 6.08158 13.6345 8.03955 15.592C9.99752 17.5495 12.2925 18.9201 14.5022 19.455C16.5881 19.9584 18.3277 19.6453 19.3997 18.5733L19.8085 18.1645C19.9153 18.0576 19.9752 17.9127 19.9752 17.7616C19.9752 17.6105 19.9153 17.4656 19.8085 17.3587L17.4605 15.0103C17.3536 14.9035 17.2087 14.8435 17.0576 14.8435C16.9065 14.8435 16.7616 14.9035 16.6547 15.0103L14.8964 16.7686C14.7909 16.8741 14.6546 16.9434 14.5071 16.9663C14.3596 16.9892 14.2087 16.9646 14.0761 16.8961C12.6347 16.1508 11.1816 15.0656 9.87377 13.7578C8.56595 12.45 7.48314 10.9978 6.73595 9.55639C6.66734 9.42388 6.64266 9.27296 6.6655 9.12549C6.68834 8.97802 6.7575 8.84164 6.86298 8.73608L8.62174 6.9778C8.72853 6.87092 8.78852 6.726 8.78852 6.57491C8.78852 6.42381 8.72853 6.2789 8.62174 6.17202L6.2733 3.82311C6.22049 3.77 6.15767 3.7279 6.08847 3.69925C6.01927 3.67061 5.94507 3.65599 5.87017 3.65624Z" fill="#BACBDA"/>
<path d="M17.0977 12.6436C16.9112 12.6436 16.7323 12.5695 16.6005 12.4377C16.4686 12.3058 16.3945 12.127 16.3945 11.9405C16.3932 10.707 15.9026 9.52437 15.0304 8.65211C14.1582 7.77985 12.9757 7.28915 11.7422 7.28766C11.5557 7.28766 11.3769 7.21358 11.245 7.08172C11.1131 6.94986 11.0391 6.77101 11.0391 6.58453C11.0391 6.39805 11.1131 6.21921 11.245 6.08735C11.3769 5.95549 11.5557 5.88141 11.7422 5.88141C15.083 5.88141 17.8008 8.60016 17.8008 11.9405C17.8008 12.127 17.7267 12.3058 17.5948 12.4377C17.463 12.5695 17.2841 12.6436 17.0977 12.6436Z" fill="#BACBDA"/>
<path d="M20.0695 12.6436C19.883 12.6436 19.7042 12.5695 19.5723 12.4377C19.4405 12.3058 19.3664 12.127 19.3664 11.9405C19.3664 7.73626 15.9445 4.3158 11.7422 4.3158C11.5557 4.3158 11.3769 4.24172 11.245 4.10986C11.1131 3.97799 11.0391 3.79915 11.0391 3.61267C11.0391 3.42619 11.1131 3.24735 11.245 3.11549C11.3769 2.98363 11.5557 2.90955 11.7422 2.90955C16.7217 2.90955 20.7727 6.96095 20.7727 11.9405C20.7727 12.127 20.6986 12.3058 20.5667 12.4377C20.4349 12.5695 20.256 12.6436 20.0695 12.6436Z" fill="#BACBDA"/>
</svg>
