<svg xmlns="http://www.w3.org/2000/svg" width="204" height="200" fill="none"><path fill="#243447" d="M17.01 158.959c-3.306 0-6.025-2.714-6.025-6.015V62.599H172.7v41.995c3.653.835 7.141 2.083 10.447 3.617v-74.6c0-9.075-7.381-16.444-16.435-16.444H145.47V5.106c0-2.82-2.298-5.106-5.152-5.106h-16.331c-2.824 0-5.122 2.293-5.122 5.106v12.06H64.82V5.107A5.096 5.096 0 0 0 59.705 0h-16.33c-2.825 0-5.123 2.293-5.123 5.106v12.06H17.011c-9.092 0-16.474 7.37-16.474 16.446V152.95c0 9.076 7.382 16.445 16.474 16.445h90.924c-.798-3.368-1.325-6.842-1.423-10.429H17.018z"/><path fill="#243447" d="M61.438 81.24c0-3.798-3.096-6.888-6.907-6.888H35.308c-3.804 0-6.908 3.09-6.908 6.887V97.09c0 3.797 3.096 6.888 6.908 6.888H54.53c3.803 0 6.907-3.091 6.907-6.888zM35.308 117.58H54.53c3.811 0 6.907 3.091 6.907 6.896v15.843c0 3.805-3.096 6.895-6.907 6.895H35.308c-3.812 0-6.908-3.09-6.908-6.895v-15.843c0-3.805 3.096-6.896 6.908-6.896M82.242 74.352h19.23c3.811 0 6.9 3.09 6.9 6.887V97.09c0 3.805-3.096 6.888-6.9 6.888H82.249c-3.811 0-6.907-3.091-6.907-6.895V81.239c0-3.805 3.096-6.887 6.9-6.887M82.24 117.58h19.223c3.812 0 6.907 3.091 6.907 6.896v15.843c0 3.805-3.095 6.895-6.907 6.895H82.24c-3.811 0-6.907-3.09-6.907-6.895v-15.843c0-3.805 3.096-6.896 6.907-6.896M129.178 74.352h19.223c3.811 0 6.899 3.09 6.899 6.887v15.844c0 3.804-3.095 6.895-6.907 6.895H129.17c-3.811 0-6.899-3.091-6.899-6.888V81.247c0-3.805 3.095-6.895 6.907-6.895"/><path fill="#E53935" d="M160.218 113.512c-23.923 0-43.32 19.363-43.32 43.244 0 23.882 19.397 43.244 43.32 43.244s43.319-19.362 43.319-43.244c0-23.881-19.396-43.244-43.319-43.244m0 14.167c3.902 0 7.013 3.263 6.809 7.158l-1.356 26.393a5.454 5.454 0 0 1-5.453 5.173 5.455 5.455 0 0 1-5.454-5.173l-1.356-26.393c-.203-3.895 2.908-7.158 6.81-7.158m0 58.154c-3.992 0-7.224-3.225-7.224-7.211 0-3.985 3.232-7.211 7.224-7.211s7.224 3.226 7.224 7.211-3.232 7.211-7.224 7.211" opacity=".8"/></svg>