<svg xmlns="http://www.w3.org/2000/svg" width="204" height="200" fill="none"><path fill="#243447" d="M17.21 158.959c-3.303 0-6.02-2.714-6.02-6.015V62.599H172.74v41.995c3.65.835 7.134 2.083 10.437 3.617v-74.6c0-9.075-7.374-16.444-16.419-16.444h-21.22V5.106c0-2.82-2.295-5.106-5.147-5.106h-16.313c-2.822 0-5.117 2.293-5.117 5.106v12.06H64.97V5.107A5.093 5.093 0 0 0 59.86 0H43.547c-2.815 0-5.117 2.293-5.117 5.106v12.06H17.21c-9.082 0-16.457 7.37-16.457 16.446V152.95c0 9.076 7.375 16.445 16.457 16.445h90.831c-.797-3.368-1.324-6.842-1.422-10.429H17.218z"/><path fill="#243447" d="M61.583 81.24c0-3.798-3.093-6.888-6.9-6.888H35.48c-3.8 0-6.9 3.09-6.9 6.887V97.09c0 3.797 3.092 6.888 6.9 6.888h19.203c3.8 0 6.9-3.091 6.9-6.888zM35.489 117.58h19.203c3.807 0 6.9 3.091 6.9 6.896v15.843c0 3.805-3.093 6.895-6.9 6.895H35.489c-3.808 0-6.9-3.09-6.9-6.895v-15.843a6.9 6.9 0 0 1 6.9-6.896M82.366 74.352h19.203c3.808 0 6.9 3.09 6.9 6.895V97.09c0 3.805-3.093 6.888-6.893 6.888H82.374c-3.808 0-6.9-3.091-6.9-6.895V81.239c0-3.805 3.092-6.887 6.892-6.887M82.374 117.58h19.202c3.808 0 6.901 3.091 6.901 6.896v15.843c0 3.805-3.093 6.895-6.901 6.895H82.374c-3.808 0-6.9-3.09-6.9-6.895v-15.843c0-3.805 3.092-6.896 6.9-6.896M129.262 74.352h19.203a6.894 6.894 0 0 1 6.893 6.887v15.844c0 3.804-3.093 6.895-6.9 6.895h-19.203a6.894 6.894 0 0 1-6.893-6.888V81.247a6.9 6.9 0 0 1 6.9-6.895"/><path fill="#2CA926" d="M160.262 113.512c-23.898 0-43.274 19.363-43.274 43.244 0 23.882 19.376 43.244 43.274 43.244 23.899 0 43.275-19.355 43.275-43.244s-19.376-43.244-43.275-43.244m22.123 38.341-23.289 23.265a7.07 7.07 0 0 1-4.981 2.068 7.1 7.1 0 0 1-4.989-2.068l-12.13-12.128c-2.747-2.745-2.747-7.219 0-9.964a7 7 0 0 1 4.981-2.067c1.882 0 3.65.737 4.982 2.067l7.148 7.144 18.308-18.287a7 7 0 0 1 4.981-2.061c1.882 0 3.65.73 4.982 2.061a7.063 7.063 0 0 1 0 9.97z" opacity=".8"/></svg>