<svg xmlns="http://www.w3.org/2000/svg" width="206" height="200" fill="none"><path fill="#243447" d="M189.312 24.316h-15.951c1.237 2.23 1.817 4.77 1.712 7.377a14 14 0 0 1-.408 2.918h14.655c3.392 0 6.159 2.781 6.159 6.175v98.617H10.72V40.786c0-3.401 2.774-6.175 6.159-6.175h14.654c-.859-3.432-.444-7.143 1.305-10.295H16.886C7.818 24.316.453 31.693.453 40.794v111.768c0 9.063 7.357 16.478 16.433 16.478h70.628l-3.287 20.665H71.253a5.13 5.13 0 0 0-5.133 5.148A5.13 5.13 0 0 0 71.253 200h63.708a5.13 5.13 0 0 0 5.133-5.147 5.13 5.13 0 0 0-5.133-5.148h-12.974l-3.324-20.665h70.657c9.039 0 16.434-7.415 16.434-16.478V40.794c0-9.093-7.395-16.478-16.434-16.478z"/><path fill="#E53935" d="M49.166 34.8c13.818-15.125 33.47-23.802 53.922-23.802s40.104 8.677 53.922 23.802a5.46 5.46 0 0 0 4.048 1.784 5.47 5.47 0 0 0 3.709-1.444c2.232-2.049 2.382-5.533.339-7.77C149.215 9.97 126.616 0 103.096 0s-46.12 9.977-62.012 27.37c-2.05 2.237-1.892 5.721.34 7.77a5.48 5.48 0 0 0 7.75-.34z" opacity=".8"/><path fill="#E53935" d="M139.454 52.215a5.48 5.48 0 0 0 4.131 1.882 5.45 5.45 0 0 0 3.611-1.36c2.277-1.996 2.51-5.48.52-7.764a59.21 59.21 0 0 0-44.635-20.294c-17.12 0-33.38 7.4-44.635 20.295a5.506 5.506 0 0 0 .52 7.762 5.48 5.48 0 0 0 7.743-.521 48.23 48.23 0 0 1 36.372-16.539 48.23 48.23 0 0 1 36.373 16.539" opacity=".8"/><path fill="#E53935" d="M121.806 69.494a5.48 5.48 0 0 0 4.32 2.108 5.4 5.4 0 0 0 3.377-1.171 5.515 5.515 0 0 0 .935-7.725c-6.627-8.488-16.6-13.349-27.357-13.349-10.758 0-20.701 4.853-27.35 13.311a5.513 5.513 0 0 0 .912 7.725 5.48 5.48 0 0 0 7.705-.922c4.553-5.79 11.375-9.116 18.725-9.116s14.187 3.326 18.718 9.13zM92.858 84.286c0 5.661 4.591 10.257 10.23 10.257s10.23-4.603 10.23-10.257-4.591-10.257-10.23-10.257-10.23 4.603-10.23 10.257" opacity=".8"/></svg>