<svg xmlns="http://www.w3.org/2000/svg" width="187" height="200" fill="none"><path fill="#243447" d="M15.626 107.33c0-42.912 34.906-77.832 77.811-77.832h20.911v8.106a5.77 5.77 0 0 0 3.002 5.066 5.8 5.8 0 0 0 2.767.705 5.77 5.77 0 0 0 3.116-.91l24.823-15.924a5.76 5.76 0 0 0 2.661-4.846c0-1.979-.986-3.791-2.646-4.86L123.256.917a5.765 5.765 0 0 0-8.886 4.853v8.106H93.453C41.92 13.877 0 55.803 0 107.345c0 4.315 3.51 7.818 7.817 7.818 4.306 0 7.817-3.503 7.817-7.818z"/><path fill="#E53935" d="M184.972 88.334c-.758-3.685-4.034-6.225-7.673-6.225-.523 0-1.046.053-1.577.159-4.215.872-6.937 5.02-6.065 9.243a79 79 0 0 1 1.402 10.056c.304 4.064 3.723 7.249 7.787 7.249l.584-.023c4.299-.318 7.536-4.072 7.225-8.371a94 94 0 0 0-1.691-12.073zM159.686 66.495c2.191 3.557 7.172 4.762 10.759 2.548a7.73 7.73 0 0 0 3.502-4.853 7.73 7.73 0 0 0-.955-5.907 95 95 0 0 0-7.051-9.926 7.78 7.78 0 0 0-5.262-2.844 7 7 0 0 0-.818-.045c-1.79 0-3.511.614-4.921 1.759a7.76 7.76 0 0 0-2.843 5.262 7.77 7.77 0 0 0 1.713 5.733 78 78 0 0 1 5.876 8.273M177.996 122.935a8 8 0 0 0-2.077-.28c-3.427 0-6.581 2.267-7.552 5.725a77.5 77.5 0 0 1-3.351 9.547c-1.691 3.966.159 8.569 4.125 10.26 3.904 1.66 8.613-.266 10.258-4.125a91.5 91.5 0 0 0 4.033-11.504 7.74 7.74 0 0 0-.728-5.937 7.76 7.76 0 0 0-4.715-3.693zM156.016 157.999h-.28a7.77 7.77 0 0 0-5.436 2.48 75.5 75.5 0 0 1-7.4 6.938c-3.329 2.738-3.806 7.674-1.069 11.011 2.63 3.2 7.794 3.708 11.008 1.069a93 93 0 0 0 8.878-8.342c2.942-3.146 2.776-8.106-.371-11.048a7.78 7.78 0 0 0-5.337-2.108zM82.808 184.433a79 79 0 0 1-9.94-2.032 7.789 7.789 0 0 0-5.944.751 7.76 7.76 0 0 0-3.662 4.732c-1.137 4.163 1.327 8.47 5.49 9.607a94.5 94.5 0 0 0 11.918 2.434c4.291.599 8.234-2.479 8.81-6.673a7.75 7.75 0 0 0-1.509-5.785 7.79 7.79 0 0 0-5.163-3.026zM40.662 164.536a7.76 7.76 0 0 0-5.308-2.086h-.31a7.77 7.77 0 0 0-5.429 2.503 7.8 7.8 0 0 0-2.077 5.611 7.79 7.79 0 0 0 2.502 5.437 92 92 0 0 0 9.462 7.674c3.404 2.412 8.491 1.524 10.895-1.865 2.487-3.519 1.653-8.41-1.865-10.897a79 79 0 0 1-7.878-6.385zM20.25 133.817a7.78 7.78 0 0 0-4.04-4.421 7.8 7.8 0 0 0-3.306-.743A7.825 7.825 0 0 0 5.55 139.14a93 93 0 0 0 4.89 11.162c1.918 3.701 6.793 5.286 10.546 3.337 3.822-1.987 5.323-6.719 3.336-10.54a78 78 0 0 1-4.071-9.282M125.446 181.006a7.78 7.78 0 0 0-5.974-.303 77.5 77.5 0 0 1-9.75 2.767 7.75 7.75 0 0 0-4.928 3.39 7.74 7.74 0 0 0-1.084 5.884c.879 4.133 5.155 6.916 9.272 6.021a92 92 0 0 0 11.737-3.329 7.8 7.8 0 0 0 4.442-4.011 7.78 7.78 0 0 0 .304-5.976 7.82 7.82 0 0 0-4.019-4.443" opacity=".8"/><path fill="#243447" d="M135.933 63.985H109.23V60.65a6.68 6.68 0 0 0-6.679-6.68H89.199a6.68 6.68 0 0 0-6.68 6.68v3.336H55.818a6.68 6.68 0 0 0-6.68 6.681 6.67 6.67 0 0 0 6.68 6.673h80.116c3.685 0 6.68-2.988 6.68-6.673a6.68 6.68 0 0 0-6.68-6.68M55.825 84.02l6.793 68.899a10.56 10.56 0 0 0 10.516 9.532h45.491c5.436 0 9.985-4.126 10.516-9.532l6.793-68.9H55.818zm53.406 20.026a3.337 3.337 0 0 1 6.672 0v38.37a3.336 3.336 0 1 1-6.672 0zm-16.687 0a3.336 3.336 0 0 1 6.672 0v38.37a3.336 3.336 0 1 1-6.672 0zm-16.695 0a3.336 3.336 0 0 1 6.671 0v38.37a3.336 3.336 0 1 1-6.671 0z"/></svg>