<svg xmlns="http://www.w3.org/2000/svg" width="204" height="200" fill="none"><path fill="#243447" d="M183.202 0H20.158C9.027 0 0 9.056 0 20.206v127.057c0 11.165 9.027 20.214 20.158 20.214h23.58v-10.455h-23.58c-5.35 0-9.728-4.397-9.728-9.759V50.96h182.593v96.303c0 5.362-4.386 9.759-9.821 9.759h-23.496v10.455h23.496c11.131 0 20.25-9.049 20.25-20.214V20.206C203.452 9.048 194.333 0 183.202 0m-157 31.805h-1.666a6.294 6.294 0 0 1-6.313-6.329 6.29 6.29 0 0 1 6.313-6.32h1.665c3.423 0 6.314 2.812 6.314 6.32s-2.891 6.329-6.314 6.329m21.738 0h-1.665a6.295 6.295 0 0 1-6.314-6.329 6.29 6.29 0 0 1 6.314-6.32h1.665c3.422 0 6.313 2.812 6.313 6.32s-2.89 6.329-6.313 6.329m21.653 0h-1.488c-3.507 0-6.398-2.813-6.398-6.329s2.89-6.32 6.398-6.32h1.488c3.507 0 6.398 2.812 6.398 6.32s-2.89 6.329-6.398 6.329m108.783-.703h-38.219c-3.152 0-5.696-2.465-5.696-5.626 0-3.16 2.544-5.625 5.696-5.625h38.219a5.604 5.604 0 0 1 5.612 5.625 5.604 5.604 0 0 1-5.612 5.626"/><g fill="#FFE817" opacity=".8"><path d="m168.808 125.921-24.775-17.927v-19.38a3.76 3.76 0 0 0-3.754-3.763h-8.572a3.76 3.76 0 0 0-3.754 3.763v7.75l-24.051-17.4a3.74 3.74 0 0 0-4.394 0L34.602 125.92a3.773 3.773 0 0 0-.848 5.254l5.859 8.137a3.75 3.75 0 0 0 5.242.849l56.85-41.13 56.851 41.13a3.753 3.753 0 0 0 5.242-.849l5.858-8.137a3.77 3.77 0 0 0-.848-5.254"/><path d="M54.229 145.841v50.45c0 2.055 1.65 3.709 3.754 3.709h30.688v-36.858a3.76 3.76 0 0 1 3.754-3.763h18.616a3.76 3.76 0 0 1 3.754 3.763V200h30.657c2.051 0 3.754-1.654 3.754-3.709v-50.45l-47.484-34.355-47.485 34.355z"/></g></svg>