<svg xmlns="http://www.w3.org/2000/svg" width="270" height="200" fill="none"><path fill="#243447" d="M152.018 39.095a8.655 8.655 0 0 1 8.657-8.657h24.155C183.364 13.44 169.215 0 151.834 0h-34.021c-17.381 0-31.529 13.432-32.995 30.438h24.155a8.655 8.655 0 0 1 8.657 8.657 8.655 8.655 0 0 1-8.657 8.657H84.526v20.781h24.447a8.655 8.655 0 0 1 8.657 8.657 8.655 8.655 0 0 1-8.657 8.658H84.526v20.78h24.447a8.655 8.655 0 0 1 8.657 8.658 8.655 8.655 0 0 1-8.657 8.657H84.818c1.466 17.006 15.614 30.438 32.995 30.438h7.599v26.405h-3.433c-10.898 0-20.322 6.032-25.271 14.915-1.067 1.916.3 4.299 2.491 4.299h71.241c2.192 0 3.558-2.383 2.491-4.299-4.957-8.883-14.373-14.915-25.271-14.915h-3.425v-26.405h7.599c17.373 0 31.521-13.432 32.996-30.438h-24.155a8.655 8.655 0 0 1-8.657-8.657 8.655 8.655 0 0 1 8.657-8.658h24.447v-20.78h-24.447a8.655 8.655 0 0 1-8.657-8.658 8.655 8.655 0 0 1 8.657-8.657h24.447v-20.78h-24.447a8.655 8.655 0 0 1-8.657-8.658"/><g fill="#FFE817" opacity=".8"><path d="M49.005 125.768C39.056 111.469 33.8 94.671 33.8 77.198s5.258-34.278 15.206-48.577a8.59 8.59 0 0 1 7.033-3.7c2.074 0 4.09.767 5.649 2.176 3.383 3.057 3.891 7.915 1.408 11.515-7.866 11.382-12.023 24.722-12.023 38.587s4.157 27.205 12.023 38.586c2.516 3.65 2.025 8.408-1.175 11.299-2.033 1.833-4.432 2.575-6.849 2.333a8.6 8.6 0 0 1-6.066-3.649"/><path d="M36.54 150.073c-1.75 1.583-4.116 2.35-6.466 2.15a8.34 8.34 0 0 1-5.932-3.308C8.394 128.134.07 103.329.07 77.191S8.394 26.239 24.133 5.466a8.34 8.34 0 0 1 5.933-3.308c2.391-.283 4.691.534 6.466 2.142l.283.258c3.216 2.916 3.708 7.866 1.125 11.274-13.482 17.806-20.597 39.02-20.597 61.35s7.124 43.537 20.597 61.343c2.583 3.408 2.091 8.357-1.117 11.273l-.283.259z"/></g><g fill="#FFE817" opacity=".8"><path d="M220.634 125.767c9.948-14.298 15.206-31.096 15.206-48.569 0-17.472-5.258-34.279-15.206-48.577a8.6 8.6 0 0 0-7.033-3.7 8.42 8.42 0 0 0-5.649 2.175c-3.383 3.058-3.891 7.916-1.408 11.516 7.866 11.381 12.023 24.722 12.023 38.586 0 13.865-4.157 27.205-12.023 38.587-2.516 3.65-2.025 8.408 1.175 11.299 2.033 1.833 4.433 2.575 6.849 2.333a8.6 8.6 0 0 0 6.066-3.65"/><path d="M233.099 150.073c1.75 1.583 4.116 2.35 6.466 2.15a8.33 8.33 0 0 0 5.932-3.308c15.748-20.781 24.073-45.586 24.073-71.724s-8.325-50.952-24.064-71.725a8.34 8.34 0 0 0-5.933-3.308c-2.391-.283-4.691.533-6.466 2.142l-.283.258c-3.216 2.916-3.708 7.866-1.125 11.274 13.482 17.806 20.597 39.02 20.597 61.35s-7.124 43.536-20.597 61.342c-2.583 3.408-2.091 8.358 1.116 11.274l.284.258z"/></g></svg>