<svg xmlns="http://www.w3.org/2000/svg" width="259" height="168" fill="none"><path fill="#E53935" d="M250.868 2.725h-137.67c-4.4 0-8.049 3.648-8.049 8.05v57.33a23.5 23.5 0 0 1 7.731-1.289c2.903 0 5.744.536 8.375 1.506V18.825h121.564v132.321H121.255v-37.363l-16.106 8.213v37.2c0 4.456 3.649 8.05 8.049 8.05h137.67a8.036 8.036 0 0 0 8.049-8.05V10.767c0-4.401-3.601-8.05-8.049-8.05z" opacity=".8"/><path fill="#243447" d="M124.864 84.85c-3.368-6.598-11.448-9.222-18.046-5.853L81.732 91.798s-26.7-18.11-29.448-19.95c-2.74-1.84-6.023-3.72-8.056-4.363-8.864-2.78-31.738-4.914-38.095 10.045C-.59 93.343.553 134.239.793 163.482.816 166.044 2.469 168 5.015 168h48.34c2.934 0 3.99-1.607 4.332-3.967.217-1.514 2.933-34.615 2.778-49.163-.015-1.553 0-3.26.031-5.046l12.753 8.64a13.43 13.43 0 0 0 7.52 2.306c2.08 0 4.177-.481 6.102-1.467l32.141-16.396c6.605-3.369 9.221-11.45 5.852-18.056M34.045 58.657c16.198 0 29.323-13.135 29.323-29.328C63.368 13.135 50.243 0 34.045 0 17.845 0 4.729 13.135 4.729 29.329c0 16.193 13.125 29.328 29.316 29.328"/><path fill="#E53935" d="M154.763 112.315a8.05 8.05 0 0 0 5.689 2.36 8 8 0 0 0 5.69-2.36l15.911-15.914 15.912 15.914a8.01 8.01 0 0 0 5.689 2.36 8.054 8.054 0 0 0 5.697-13.748l-15.919-15.914 15.919-15.914a8.051 8.051 0 1 0-11.386-11.388l-15.912 15.914-15.911-15.915A8.053 8.053 0 0 0 154.755 69.1l15.912 15.914-15.912 15.914a8.056 8.056 0 0 0 0 11.388z" opacity=".8"/></svg>