<svg xmlns="http://www.w3.org/2000/svg" width="275" height="200" fill="none"><path fill="#2CA926" d="m188.837 121.155 11.142-13.168a8.2 8.2 0 0 0-6.418-3.038h-69.993c-4.642 0-8.444 3.802-8.444 8.443s3.802 8.443 8.444 8.443h64.762c.166-.249.341-.423.507-.672zM115.124 149.946c0 4.641 3.802 8.444 8.444 8.444h51.76c.083-.847.257-1.686.423-2.616l3.463-14.271h-55.638c-4.642 0-8.444 3.802-8.444 8.443z" opacity=".8"/><path fill="#243447" d="m226.741 76.315 12.479-14.762c1.271-1.535 2.815-2.856 4.393-3.951V33.35a6.587 6.587 0 0 0-6.593-6.592H134.072c-.88 5.23-2.333 10.942-4.525 16.911h97.194zM226.74 162.516v20.606H90.398v-64.583a18.84 18.84 0 0 1-11.118 3.603c-1.976 0-3.952-.307-5.803-.921v72.187A6.587 6.587 0 0 0 80.069 200h156.95a6.587 6.587 0 0 0 6.593-6.592V143.72l-11.733 13.839c-1.586 1.844-3.296 3.554-5.139 4.965z"/><path fill="#243447" d="m194.524 163.753 16.431-7.065c3.172-1.362 5.937-3.429 8.419-5.804l-21.927-18.538c-1.935 2.839-3.513 5.911-4.326 9.265l-4.235 17.376c-.805 3.305 2.508 6.111 5.638 4.766M270.928 76.157 262.7 69.2c-3.928-3.321-9.806-2.832-13.136 1.095l-43.656 51.515 22.451 18.987 43.657-51.515c3.321-3.926 2.831-9.804-1.097-13.134zM83.018 106.983l9.473-9.506C99.6 90.37 99.581 81.478 98.57 75.8c-.68-3.82.465-7.771 2.931-10.76 21.604-26.152 20.907-51.963 19.811-60.88A4.3 4.3 0 0 0 117.525.4c-8.909-1.046-34.748-1.652-60.803 20.083-2.956 2.465-6.883 3.62-10.669 2.939-5.638-1.005-14.513-1.005-21.703 6.176l-9.474 9.506c-2.599 2.607-1.794 6.999 1.553 8.527l15.6 7.106-8.252 11.457a7.52 7.52 0 0 0 .797 9.73l21.562 21.478a7.53 7.53 0 0 0 9.731.764l11.442-8.294 7.19 15.591c1.536 3.338 5.937 4.118 8.527 1.511zM73.95 30.296c4.84-4.865 12.728-4.899 17.61-.034 4.866 4.84 4.857 12.728.017 17.593s-12.711 4.873-17.569.033c-4.882-4.865-4.899-12.727-.058-17.592M16.718 87.888a5.49 5.49 0 0 0 0-7.763 5.493 5.493 0 0 0-7.763 0l-7.348 7.348a5.491 5.491 0 1 0 7.771 7.762l7.348-7.347zM29.29 92.687a5.493 5.493 0 0 0-7.764 0l-11.44 11.44a5.49 5.49 0 0 0 3.885 9.373c1.412 0 2.814-.54 3.886-1.611l11.441-11.44a5.49 5.49 0 0 0 0-7.763zM34.079 105.248l-7.348 7.347c-2.143 2.142-2.143 5.629 0 7.762a5.48 5.48 0 0 0 3.885 1.611c1.412 0 2.815-.54 3.886-1.611l7.349-7.347c2.142-2.142 2.142-5.629 0-7.762a5.503 5.503 0 0 0-7.772 0"/><path fill="#2CA926" d="M115.124 76.83c0 4.64 3.802 8.443 8.444 8.443h69.91c4.641 0 8.444-3.803 8.444-8.444 0-4.64-3.803-8.443-8.444-8.443h-69.91c-4.642 0-8.444 3.802-8.444 8.443" opacity=".8"/></svg>