<svg xmlns="http://www.w3.org/2000/svg" width="174" height="200" fill="none"><path fill="#2CA926" d="M163.954 17.543h-40.621l-9.715-13.571A9.49 9.49 0 0 0 105.893 0H67.86a9.5 9.5 0 0 0-7.725 3.972l-9.714 13.571H9.79A9.115 9.115 0 0 0 .677 26.66c0 5.037 4.088 9.118 9.116 9.118h154.162a9.115 9.115 0 0 0 9.116-9.118c0-5.036-4.088-9.117-9.116-9.117" opacity=".8"/><path fill="#243447" d="M154.697 47.989H19.062c-2.736 0-4.85 2.394-4.53 5.107l15.752 131.289C31.356 193.3 38.91 200 47.886 200h77.979c8.976 0 16.53-6.708 17.602-15.615l15.753-131.29c.326-2.712-1.795-5.106-4.523-5.106M58.611 173.565h-.039a7.38 7.38 0 0 1-8.098-6.568L41.467 82.57c-.435-4.05 2.51-7.703 6.567-8.138 4.15-.342 7.702 2.526 8.137 6.567l9.007 84.428c.435 4.049-2.51 7.703-6.567 8.138m35.655-7.353c0 4.073-3.318 7.384-7.39 7.384-4.073 0-7.39-3.311-7.39-7.384V81.785c0-4.081 3.31-7.392 7.39-7.392s7.39 3.31 7.39 7.392zm38.026-83.642-9.015 84.427a7.373 7.373 0 0 1-8.098 6.568c-4.087-.435-7.033-4.089-6.605-8.138L117.588 81c.436-4.058 3.979-6.973 8.098-6.568 4.088.435 7.033 4.088 6.598 8.138z"/></svg>