<svg width="150" height="99" viewBox="0 0 150 99" fill="none" xmlns="http://www.w3.org/2000/svg">
<path d="M36.2202 49.0253C36.2202 41.7853 39.2901 34.9553 44.6401 30.2853L44.8403 30.1053L44.8003 29.8553C43.9303 24.8653 41.94 16.4853 38.27 16.1653C38.05 16.1153 37.97 16.1253 37.77 16.1653C32.61 16.7453 29.8203 33.5053 29.8203 49.0253C29.8203 64.5453 32.6202 81.3853 37.7202 81.8753C37.8502 81.9053 37.9703 81.9053 38.0503 81.9053C38.1003 81.9053 38.1703 81.9053 38.2603 81.8853C41.9303 81.5653 43.93 73.1854 44.79 68.1954L44.8301 67.9454L44.6304 67.7653C39.2804 63.0953 36.2104 56.2553 36.2104 49.0153" fill="currentColor"/>
<path d="M56.8501 26.5453L56.6802 26.5253C56.6202 26.5253 56.51 26.5253 56.5 26.5353C52.83 26.8853 50.9204 38.1053 50.9204 49.0153C50.9204 59.9253 52.8404 71.1353 56.4004 71.4753C56.5204 71.5053 56.6304 71.5052 56.6904 71.5052H56.8701L56.9004 71.4852C60.5504 71.0752 62.4604 59.9253 62.4604 49.0153C62.4604 38.1053 60.5004 26.8653 56.8604 26.5453" fill="currentColor"/>
<path d="M74.8804 41.1152C70.4804 41.1152 66.9102 44.6553 66.9102 49.0153C66.9102 53.3753 70.4904 56.9153 74.8804 56.9153C79.2704 56.9153 82.8501 53.3753 82.8501 49.0153C82.8501 44.6553 79.2704 41.1152 74.8804 41.1152Z" fill="currentColor"/>
<path d="M9.03027 49.0253C9.03027 38.1153 13.6605 27.8153 21.7305 20.7753L21.9302 20.5954L21.8901 20.3454C20.6001 12.9354 17.6501 0.475308 12.3301 0.0453083C12.0501 -0.0246917 11.9202 -0.00469171 11.6802 0.0453083C4.36018 0.845308 0 25.5453 0 49.0253C0 72.5053 4.39037 97.3053 11.6304 97.9953C11.7904 98.0353 11.9501 98.0353 12.0601 98.0353C12.1301 98.0353 12.2201 98.0353 12.3301 98.0053C17.6601 97.5853 20.6101 85.1153 21.8901 77.7053L21.9302 77.4553L21.7305 77.2753C13.6605 70.2253 9.03027 59.9253 9.03027 49.0153" fill="currentColor"/>
<path d="M93.1304 26.5453L93.3003 26.5253C93.3603 26.5253 93.4705 26.5253 93.4805 26.5353C97.1505 26.8853 99.0601 38.1053 99.0601 49.0153C99.0601 59.9253 97.1401 71.1353 93.5801 71.4753C93.4601 71.5053 93.35 71.5052 93.29 71.5052H93.1104L93.0801 71.4852C89.4301 71.0752 87.52 59.9253 87.52 49.0153C87.52 38.1053 89.4801 26.8653 93.1201 26.5453" fill="currentColor"/>
<path d="M113.76 49.0253C113.76 41.7853 110.69 34.9553 105.34 30.2853L105.14 30.1053L105.18 29.8553C106.05 24.8653 108.04 16.4853 111.71 16.1653C111.93 16.1153 112.01 16.1253 112.21 16.1653C117.37 16.7453 120.16 33.5053 120.16 49.0253C120.16 64.5453 117.36 81.3853 112.26 81.8753C112.13 81.9053 112.01 81.9053 111.93 81.9053C111.88 81.9053 111.81 81.9053 111.72 81.8853C108.05 81.5653 106.05 73.1854 105.19 68.1954L105.15 67.9454L105.35 67.7653C110.7 63.0953 113.77 56.2553 113.77 49.0153" fill="currentColor"/>
<path d="M140.95 49.0253C140.95 38.1153 136.32 27.8153 128.25 20.7753L128.05 20.5954L128.09 20.3454C129.38 12.9354 132.33 0.475308 137.65 0.0453083C137.93 -0.0246917 138.06 -0.00469171 138.3 0.0453083C145.62 0.845308 149.98 25.5453 149.98 49.0253C149.98 72.5053 145.59 97.3053 138.35 97.9953C138.19 98.0353 138.03 98.0353 137.92 98.0353C137.85 98.0353 137.76 98.0353 137.65 98.0053C132.32 97.5853 129.37 85.1153 128.09 77.7053L128.05 77.4553L128.25 77.2753C136.32 70.2253 140.95 59.9253 140.95 49.0153" fill="currentColor"/>
</svg>
