<svg width="101" height="66" viewBox="0 0 101 66" fill="none" xmlns="http://www.w3.org/2000/svg">
<path d="M25.1304 32.6803C25.1304 27.8503 27.1805 23.3003 30.7505 20.1803L30.8804 20.0603L30.8506 19.8904C30.2706 16.5604 28.9405 10.9804 26.5005 10.7604C26.3505 10.7304 26.3004 10.7304 26.1704 10.7604C22.7304 11.1504 20.8706 22.3204 20.8706 32.6704C20.8706 43.0204 22.7406 54.2504 26.1406 54.5704C26.2306 54.5904 26.3104 54.5904 26.3604 54.5904C26.3904 54.5904 26.4405 54.5904 26.5005 54.5804C28.9505 54.3704 30.2804 48.7804 30.8604 45.4504L30.8906 45.2804L30.7505 45.1604C27.1805 42.0404 25.1304 37.4904 25.1304 32.6604" fill="currentColor"/>
<path d="M38.8906 17.7004H38.7803C38.7803 17.7004 38.6706 17.6904 38.6606 17.7004C36.2206 17.9304 34.9404 25.4103 34.9404 32.6803C34.9404 39.9503 36.2203 47.4304 38.5903 47.6504C38.6703 47.6704 38.7403 47.6705 38.7803 47.6705H38.9004L38.9204 47.6604C41.3504 47.3904 42.6206 39.9503 42.6206 32.6803C42.6206 25.4103 41.3106 17.9204 38.8906 17.7004Z" fill="currentColor"/>
<path d="M50.9106 27.4104C47.9806 27.4104 45.5903 29.7703 45.5903 32.6803C45.5903 35.5903 47.9806 37.9503 50.9106 37.9503C53.8406 37.9503 56.2305 35.5903 56.2305 32.6803C56.2305 29.7703 53.8406 27.4104 50.9106 27.4104Z" fill="currentColor"/>
<path d="M7.00049 32.6904C7.00049 25.4204 10.0907 18.5504 15.4707 13.8504L15.6006 13.7304L15.5703 13.5604C14.7103 8.62036 12.7507 0.310455 9.20068 0.030455C9.01068 -0.019545 8.93051 0.000455046 8.77051 0.030455C3.89051 0.560455 0.980469 17.0304 0.980469 32.6804C0.980469 48.3304 3.90047 64.8704 8.73047 65.3204C8.84047 65.3504 8.94051 65.3504 9.02051 65.3504C9.06051 65.3504 9.13068 65.3504 9.20068 65.3304C12.7507 65.0504 14.7206 56.7405 15.5806 51.8005L15.6104 51.6304L15.4805 51.5104C10.1005 46.8104 7.01025 39.9405 7.01025 32.6705" fill="currentColor"/>
<path d="M63.0703 17.7004H63.1807C63.1807 17.7004 63.2903 17.6904 63.3003 17.7004C65.7403 17.9304 67.0205 25.4103 67.0205 32.6803C67.0205 39.9503 65.7406 47.4304 63.3706 47.6504C63.2906 47.6704 63.2207 47.6705 63.1807 47.6705H63.0605L63.0405 47.6604C60.6105 47.3904 59.3403 39.9503 59.3403 32.6803C59.3403 25.4103 60.6503 17.9204 63.0703 17.7004Z" fill="currentColor"/>
<path d="M76.8306 32.6803C76.8306 27.8503 74.7804 23.3003 71.2104 20.1803L71.0806 20.0603L71.1104 19.8904C71.6904 16.5604 73.0204 10.9804 75.4604 10.7604C75.6104 10.7304 75.6605 10.7304 75.7905 10.7604C79.2305 11.1504 81.0903 22.3204 81.0903 32.6704C81.0903 43.0204 79.2203 54.2504 75.8203 54.5704C75.7303 54.5904 75.6506 54.5904 75.6006 54.5904C75.5706 54.5904 75.5204 54.5904 75.4604 54.5804C73.0104 54.3704 71.6806 48.7804 71.1006 45.4504L71.0703 45.2804L71.2104 45.1604C74.7804 42.0404 76.8306 37.4904 76.8306 32.6604" fill="currentColor"/>
<path d="M94.9604 32.6904C94.9604 25.4204 91.8702 18.5504 86.4902 13.8504L86.3604 13.7304L86.3906 13.5604C87.2506 8.62036 89.2103 0.310455 92.7603 0.030455C92.9503 -0.019545 93.0304 0.000455046 93.1904 0.030455C98.0704 0.560455 100.98 17.0304 100.98 32.6804C100.98 48.3304 98.0505 64.8704 93.2305 65.3204C93.1205 65.3504 93.0204 65.3504 92.9404 65.3504C92.9004 65.3504 92.8303 65.3504 92.7603 65.3304C89.2103 65.0504 87.2404 56.7405 86.3804 51.8005L86.3506 51.6304L86.4902 51.5104C91.8702 46.8104 94.9604 39.9405 94.9604 32.6705" fill="currentColor"/>
</svg>
