<svg width="51" height="33" viewBox="0 0 51 33" fill="none" xmlns="http://www.w3.org/2000/svg">
<path d="M13.0703 16.345C13.0703 13.935 14.0904 11.655 15.8804 10.095L15.9502 10.035V9.95503C15.6502 8.29503 14.9803 5.49497 13.7603 5.39497C13.6903 5.37497 13.6603 5.38497 13.5903 5.39497C11.8703 5.58497 10.9404 11.175 10.9404 16.345C10.9404 21.515 11.8703 27.135 13.5703 27.295C13.6103 27.305 13.6502 27.305 13.6802 27.305C13.7002 27.305 13.72 27.305 13.75 27.305C14.97 27.195 15.6402 24.4051 15.9302 22.7451V22.665L15.8804 22.6051C14.1004 21.0451 13.0703 18.7651 13.0703 16.3551" fill="currentColor"/>
<path d="M19.9404 8.8551H19.8804H19.8203C18.6003 8.9751 17.9604 12.7151 17.9604 16.3451C17.9604 19.9751 18.6 23.7251 19.79 23.8351C19.83 23.8451 19.8601 23.8451 19.8901 23.8451H19.9502C21.1702 23.7051 21.8003 19.9951 21.8003 16.3551C21.8003 12.7151 21.1502 8.97511 19.9302 8.86511" fill="currentColor"/>
<path d="M25.9502 13.7151C24.4802 13.7151 23.29 14.8951 23.29 16.3451C23.29 17.7951 24.4802 18.9751 25.9502 18.9751C27.4202 18.9751 28.6104 17.7951 28.6104 16.3451C28.6104 14.8951 27.4202 13.7151 25.9502 13.7151Z" fill="currentColor"/>
<path d="M4 16.3451C4 12.7051 5.54047 9.27503 8.23047 6.92503L8.30029 6.8651L8.28027 6.78502C7.85027 4.31502 6.87033 0.165 5.09033 0.015C5.00033 -0.005 4.95012 -0.005 4.87012 0.015C2.43012 0.275 0.980469 8.51508 0.980469 16.3451C0.980469 24.1751 2.44035 32.435 4.86035 32.665C4.91035 32.675 4.97 32.675 5 32.675C5.02 32.675 5.05033 32.675 5.09033 32.665C6.87033 32.525 7.85027 28.375 8.28027 25.895V25.815L8.23047 25.755C5.54047 23.405 4 19.9751 4 16.3351" fill="currentColor"/>
<path d="M32.04 8.8551H32.1001H32.1602C33.3802 8.9751 34.02 12.7151 34.02 16.3451C34.02 19.9751 33.3804 23.7251 32.1904 23.8351C32.1504 23.8451 32.1203 23.8451 32.0903 23.8451H32.0303C30.8103 23.7051 30.1802 19.9951 30.1802 16.3551C30.1802 12.7151 30.8303 8.97511 32.0503 8.86511" fill="currentColor"/>
<path d="M38.9102 16.345C38.9102 13.935 37.8901 11.655 36.1001 10.095L36.0303 10.035V9.95503C36.3303 8.29503 37.0002 5.49497 38.2202 5.39497C38.2902 5.37497 38.3201 5.38497 38.3901 5.39497C40.1101 5.58497 41.04 11.175 41.04 16.345C41.04 21.515 40.1102 27.135 38.4102 27.295C38.3702 27.305 38.3303 27.305 38.3003 27.305C38.2803 27.305 38.2605 27.305 38.2305 27.305C37.0105 27.195 36.3403 24.4051 36.0503 22.7451V22.665L36.1001 22.6051C37.8801 21.0451 38.9102 18.7651 38.9102 16.3551" fill="currentColor"/>
<path d="M47.9805 16.3451C47.9805 12.7051 46.44 9.27503 43.75 6.92503L43.6802 6.8651L43.7002 6.78502C44.1302 4.31502 45.1101 0.165 46.8901 0.015C46.9801 -0.005 47.0304 -0.005 47.1104 0.015C49.5504 0.275 51 8.51508 51 16.3451C51 24.1751 49.5401 32.435 47.1201 32.665C47.0701 32.675 47.0105 32.675 46.9805 32.675C46.9605 32.675 46.9301 32.675 46.8901 32.665C45.1101 32.525 44.1302 28.375 43.7002 25.895V25.815L43.75 25.755C46.44 23.405 47.9805 19.9751 47.9805 16.3351" fill="currentColor"/>
</svg>
