<svg width="420" height="62" viewBox="0 0 420 62" fill="none" xmlns="http://www.w3.org/2000/svg">
<path d="M140.23 16.6504H129.6C121.42 16.6504 118.22 20.7703 118.22 26.4403V42.8503C118.22 44.0503 119.19 45.0104 120.38 45.0104H121.44C122.64 45.0104 123.6 44.0403 123.6 42.8503V35.9603C123.6 34.7703 124.57 33.8004 125.76 33.8004H140.03C141.23 33.8004 142.19 32.8304 142.19 31.6404V31.2604C142.19 30.0604 141.22 29.1003 140.03 29.1003H125.76C124.56 29.1003 123.6 28.1303 123.6 26.9403V26.4104C123.6 23.7604 125.06 21.6204 129.95 21.6204H140.22C141.42 21.6204 142.38 20.6503 142.38 19.4603V18.8303C142.38 17.6303 141.41 16.6704 140.22 16.6704" fill="currentColor"/>
<path d="M169.52 40.0604H159.71C154.87 40.0604 153.4 37.9204 153.4 35.1804V18.8104C153.4 17.6104 152.43 16.6504 151.24 16.6504H150.17C148.97 16.6504 148.01 17.6204 148.01 18.8104V35.2203C148.01 40.8903 151.21 45.0104 159.39 45.0104H169.52C170.72 45.0104 171.68 44.0403 171.68 42.8503V42.2203C171.68 41.0203 170.71 40.0604 169.52 40.0604Z" fill="currentColor"/>
<path d="M179.53 16.6504H178.46C177.26 16.6504 176.3 17.6204 176.3 18.8104V42.8503C176.3 44.0503 177.27 45.0104 178.46 45.0104H179.53C180.73 45.0104 181.69 44.0403 181.69 42.8503V18.8104C181.69 17.6104 180.72 16.6504 179.53 16.6504Z" fill="currentColor"/>
<path d="M207.65 28.1204H202.41C201.21 28.1204 200.25 29.0904 200.25 30.2804C200.25 31.4804 201.22 32.4403 202.41 32.4403H207.1C209.61 32.4403 210.89 33.7904 210.89 36.0504C210.89 38.3104 209.61 40.0404 206.59 40.0404H201.47C195.48 40.0404 192.92 37.3103 192.92 30.8303C192.92 24.3503 195.52 21.5803 201.47 21.5803H212.01C213.21 21.5803 214.18 20.6104 214.18 19.4204V18.7904C214.18 17.5904 213.21 16.6304 212.01 16.6304H201.47C192.51 16.6304 187.53 21.3003 187.53 30.8403C187.53 40.3803 192.47 45.0004 201.47 45.0004H206.22C213.12 45.0004 215.82 41.0904 215.82 36.1304C215.82 31.1704 213.12 28.1003 207.64 28.1003" fill="currentColor"/>
<path d="M245.98 16.6504H244.87C243.67 16.6504 242.7 17.6204 242.7 18.8104V26.0404C242.7 27.2404 241.73 28.2003 240.54 28.2003H229.1C227.9 28.2003 226.94 27.2304 226.94 26.0404V18.8104C226.94 17.6104 225.97 16.6504 224.78 16.6504H223.72C222.52 16.6504 221.56 17.6204 221.56 18.8104V42.8503C221.56 44.0503 222.53 45.0104 223.72 45.0104H224.78C225.98 45.0104 226.94 44.0403 226.94 42.8503V35.3303C226.94 34.1303 227.91 33.1604 229.1 33.1604H240.54C241.74 33.1604 242.7 34.1303 242.7 35.3303V42.8503C242.7 44.0503 243.67 45.0104 244.87 45.0104H245.98C247.18 45.0104 248.14 44.0403 248.14 42.8503V18.8104C248.14 17.6104 247.17 16.6504 245.98 16.6504Z" fill="currentColor"/>
<path d="M273.99 16.6504H254.87C253.67 16.6504 252.71 17.6204 252.71 18.8104V19.4403C252.71 20.6403 253.68 21.6003 254.87 21.6003H259.54C260.74 21.6003 261.7 22.5704 261.7 23.7604V42.8403C261.7 44.0403 262.67 45.0004 263.86 45.0004H264.97C266.17 45.0004 267.14 44.0303 267.14 42.8403V23.7604C267.14 22.5604 268.11 21.6003 269.3 21.6003H273.97C275.16 21.6003 276.13 20.6303 276.13 19.4403V18.8104C276.13 17.6104 275.16 16.6504 273.97 16.6504" fill="currentColor"/>
<path d="M302.42 16.6504H292.65C283.69 16.6504 278.71 21.3104 278.71 30.8604C278.71 40.4104 283.65 45.0204 292.65 45.0204H302.42C303.61 45.0204 304.58 44.0504 304.58 42.8604V42.2303C304.58 41.0303 303.61 40.0703 302.42 40.0703H292.65C286.66 40.0703 284.1 37.3404 284.1 30.8704C284.1 24.4004 286.7 21.6204 292.65 21.6204H302.42C303.61 21.6204 304.58 20.6503 304.58 19.4603V18.8303C304.58 17.6303 303.61 16.6704 302.42 16.6704" fill="currentColor"/>
<path d="M327.11 16.6504H322.91C313.95 16.6504 308.97 21.3604 308.97 30.9004C308.97 40.4404 313.91 45.0204 322.91 45.0204H327.11C336.11 45.0204 341.05 40.4004 341.05 30.9004C341.05 21.4004 336.07 16.6504 327.11 16.6504ZM327.11 40.0604H322.91C316.92 40.0604 314.36 37.3704 314.36 30.9004C314.36 24.4304 316.96 21.6104 322.91 21.6104H327.11C333.05 21.6104 335.61 24.3804 335.61 30.8604C335.61 37.3404 333.05 40.0703 327.11 40.0703" fill="currentColor"/>
<path d="M369.19 32.8004C372.25 31.1204 373.49 28.0404 373.49 25.1404C373.49 20.6004 370.52 16.6504 363.57 16.6504H349.01C347.81 16.6504 346.85 17.6204 346.85 18.8104V19.4403C346.85 20.6403 347.82 21.6003 349.01 21.6003H363.76C366.73 21.6003 368.06 23.3203 368.06 25.3403C368.06 27.3603 366.83 29.2904 363.76 29.2904H351.74C348.36 29.2904 346.9 30.5904 346.9 33.7904V42.8503C346.9 44.0503 347.87 45.0104 349.06 45.0104H350.12C351.32 45.0104 352.29 44.0403 352.29 42.8503V36.2103C352.29 35.0103 353.26 34.0504 354.45 34.0504H359.92C360.66 34.0504 361.34 34.4304 361.74 35.0404L367.5 44.0204C367.9 44.6404 368.58 45.0204 369.32 45.0204H370.2C371.9 45.0204 372.94 43.1403 372.03 41.7003L368.35 35.8804C367.67 34.8104 368.07 33.4104 369.19 32.8004Z" fill="currentColor"/>
<path d="M401.63 40.0604H388.16C385.01 40.0604 383.5 38.7204 383.5 36.4904C383.5 34.2604 385.1 33.0404 388.21 33.0404H401.36C402.55 33.0404 403.52 32.0704 403.52 30.8804V30.7103C403.52 29.5103 402.55 28.5504 401.36 28.5504H388.35C385.24 28.5504 383.64 27.5003 383.64 25.1903C383.64 23.0103 385.06 21.6204 388.3 21.6204H401.58C402.78 21.6204 403.75 20.6503 403.75 19.4603V18.8303C403.75 17.6303 402.78 16.6704 401.58 16.6704H388.3C381.03 16.6704 377.97 19.8604 377.97 24.4004C377.97 26.4304 378.59 28.0704 379.83 29.2604C380.69 30.0904 380.68 31.4903 379.82 32.3203C378.56 33.5303 377.88 35.1904 377.88 37.3004C377.88 41.7104 380.85 45.0304 388.16 45.0304H401.63C402.82 45.0304 403.79 44.0604 403.79 42.8704V42.2404C403.79 41.0404 402.82 40.0803 401.63 40.0803" fill="currentColor"/>
<path d="M22.71 30.7302C22.71 26.1902 24.6302 21.9102 27.9902 18.9802L28.1201 18.8703L28.0898 18.7102C27.5498 15.5802 26.3 10.3303 24 10.1303C23.86 10.1003 23.8099 10.1103 23.6899 10.1303C20.4499 10.5003 18.71 21.0002 18.71 30.7302C18.71 40.4602 20.4702 51.0202 23.6602 51.3202C23.7402 51.3402 23.8201 51.3402 23.8701 51.3402C23.9001 51.3402 23.95 51.3402 24 51.3302C26.3 51.1302 27.5501 45.8703 28.1001 42.7503L28.1299 42.5902L28 42.4802C24.64 39.5502 22.7202 35.2702 22.7202 30.7302" fill="currentColor"/>
<path d="M35.6499 16.6401H35.5498H35.4399C33.1399 16.8601 31.9399 23.8901 31.9399 30.7301C31.9399 37.5701 33.1401 44.6002 35.3701 44.8102C35.4401 44.8302 35.5098 44.8301 35.5498 44.8301H35.6602L35.6802 44.8201C37.9702 44.5601 39.1699 37.5701 39.1699 30.7301C39.1699 23.8901 37.9402 16.8501 35.6602 16.6401" fill="currentColor"/>
<path d="M46.9502 25.7803C44.1902 25.7803 41.9502 28.0002 41.9502 30.7302C41.9502 33.4602 44.1902 35.6803 46.9502 35.6803C49.7102 35.6803 51.9502 33.4602 51.9502 30.7302C51.9502 28.0002 49.7102 25.7803 46.9502 25.7803Z" fill="currentColor"/>
<path d="M5.66992 30.7404C5.66992 23.9004 8.56988 17.4505 13.6299 13.0305L13.7598 12.9205L13.73 12.7604C12.92 8.11044 11.0702 0.300455 7.74023 0.030455C7.56023 -0.019545 7.48008 0.000455046 7.33008 0.030455C2.74008 0.530455 0 16.0204 0 30.7404C0 45.4604 2.75004 61.0104 7.29004 61.4404C7.39004 61.4604 7.49006 61.4604 7.56006 61.4604C7.60006 61.4604 7.65998 61.4604 7.72998 61.4404C11.07 61.1704 12.92 53.3604 13.73 48.7104L13.7598 48.5505L13.6299 48.4404C8.56988 44.0204 5.66992 37.5604 5.66992 30.7204" fill="currentColor"/>
<path d="M58.3901 16.6401H58.4902H58.6001C60.9001 16.8601 62.1001 23.8901 62.1001 30.7301C62.1001 37.5701 60.8999 44.6002 58.6699 44.8102C58.5999 44.8302 58.5302 44.8301 58.4902 44.8301H58.3799L58.3599 44.8201C56.0699 44.5601 54.8701 37.5701 54.8701 30.7301C54.8701 23.8901 56.0999 16.8501 58.3799 16.6401" fill="currentColor"/>
<path d="M71.3301 30.7302C71.3301 26.1902 69.4098 21.9102 66.0498 18.9802L65.9199 18.8703L65.9502 18.7102C66.4902 15.5802 67.74 10.3303 70.04 10.1303C70.18 10.1003 70.2301 10.1103 70.3501 10.1303C73.5901 10.5003 75.3301 21.0002 75.3301 30.7302C75.3301 40.4602 73.5699 51.0202 70.3799 51.3202C70.2999 51.3402 70.2199 51.3402 70.1699 51.3402C70.1399 51.3402 70.09 51.3402 70.04 51.3302C67.74 51.1302 66.4899 45.8703 65.9399 42.7503L65.9102 42.5902L66.04 42.4802C69.4 39.5502 71.3198 35.2702 71.3198 30.7302" fill="currentColor"/>
<path d="M88.3701 30.7404C88.3701 23.9004 85.4702 17.4505 80.4102 13.0305L80.29 12.9205L80.3198 12.7604C81.1298 8.11044 82.9801 0.300455 86.3101 0.030455C86.4901 -0.019545 86.5702 0.000455046 86.7202 0.030455C91.3102 0.530455 94.0498 16.0204 94.0498 30.7404C94.0498 45.4604 91.2998 61.0104 86.7598 61.4404C86.6598 61.4604 86.5602 61.4604 86.4902 61.4604C86.4502 61.4604 86.3898 61.4604 86.3198 61.4404C82.9798 61.1704 81.1298 53.3604 80.3198 48.7104L80.29 48.5505L80.4199 48.4404C85.4799 44.0204 88.3799 37.5604 88.3799 30.7204" fill="currentColor"/>
<path d="M414.81 25.8403H413.3C410.81 25.8403 409.54 24.5204 409.54 21.9304C409.54 19.3404 410.8 18.0104 413.3 18.0104H414.81C417.29 18.0104 418.55 19.3304 418.55 21.9304C418.55 24.5304 417.29 25.8403 414.81 25.8403ZM414.81 16.6504H413.3C409.9 16.6504 408.11 18.4804 408.11 21.9304C408.11 25.3804 409.9 27.2003 413.3 27.2003H414.81C418.21 27.2003 420 25.3804 420 21.9304C420 18.4804 418.21 16.6504 414.81 16.6504Z" fill="currentColor"/>
<path d="M415.95 22.3004C416.49 21.9804 416.8 21.4003 416.8 20.7203C416.8 19.8503 416.26 18.9204 414.73 18.9204H412.01C411.65 18.9204 411.36 19.2103 411.36 19.5703C411.36 19.9303 411.65 20.2203 412.01 20.2203H414.76C415.17 20.2203 415.4 20.4104 415.4 20.7504C415.4 20.9604 415.32 21.3203 414.76 21.3203H412.48C411.73 21.3203 411.38 21.6504 411.38 22.3604V24.0004C411.38 24.3704 411.68 24.6704 412.05 24.6704H412.1C412.47 24.6704 412.77 24.3704 412.77 24.0004V22.5803H414C414.1 22.5803 414.2 22.6303 414.25 22.7203L415.32 24.3704C415.44 24.5604 415.64 24.6704 415.87 24.6704C416.12 24.6704 416.33 24.5403 416.45 24.3303C416.57 24.1203 416.56 23.8604 416.43 23.6504L415.84 22.7203C415.79 22.6403 415.79 22.5504 415.8 22.5004C415.82 22.4204 415.88 22.3404 415.96 22.2904" fill="currentColor"/>
</svg>
