<svg width="288" height="113" viewBox="0 0 288 113" fill="none" xmlns="http://www.w3.org/2000/svg">
<path d="M20.9798 85.4465H10.8498C3.05976 85.4465 0.00976562 89.3665 0.00976562 94.7765V110.407C0.00976562 111.547 0.929763 112.467 2.06976 112.467H3.07977C4.21977 112.467 5.13977 111.547 5.13977 110.407V103.837C5.13977 102.697 6.05977 101.777 7.19977 101.777H20.7998C21.9398 101.777 22.8598 100.857 22.8598 99.7165V99.3565C22.8598 98.2165 21.9398 97.2965 20.7998 97.2965H7.19977C6.05977 97.2965 5.13977 96.3765 5.13977 95.2365V94.7365C5.13977 92.2165 6.52976 90.1765 11.1898 90.1765H20.9698C22.1098 90.1765 23.0298 89.2565 23.0298 88.1165V87.5165C23.0298 86.3765 22.1098 85.4565 20.9698 85.4565L20.9798 85.4465Z" fill="currentColor"/>
<path d="M48.8898 107.746H39.5398C34.9298 107.746 33.5298 105.706 33.5298 103.106V87.5164C33.5298 86.3764 32.6098 85.4564 31.4698 85.4564H30.4598C29.3198 85.4564 28.3998 86.3764 28.3998 87.5164V103.146C28.3998 108.546 31.4498 112.476 39.2398 112.476H48.8898C50.0298 112.476 50.9498 111.556 50.9498 110.416V109.816C50.9498 108.676 50.0298 107.756 48.8898 107.756V107.746Z" fill="currentColor"/>
<path d="M58.4197 85.4465H57.3997C56.262 85.4465 55.3397 86.3688 55.3397 87.5065V110.407C55.3397 111.544 56.262 112.467 57.3997 112.467H58.4197C59.5574 112.467 60.4797 111.544 60.4797 110.407V87.5065C60.4797 86.3688 59.5574 85.4465 58.4197 85.4465Z" fill="currentColor"/>
<path d="M85.2098 96.3765H80.2198C79.0798 96.3765 78.1598 97.2965 78.1598 98.4365C78.1598 99.5765 79.0798 100.497 80.2198 100.497H84.6898C87.0798 100.497 88.2998 101.777 88.2998 103.937C88.2998 106.097 87.0798 107.737 84.2098 107.737H79.3298C73.6298 107.737 71.1898 105.137 71.1898 98.9665C71.1898 92.7965 73.6698 90.1565 79.3298 90.1565H89.3698C90.5098 90.1565 91.4298 89.2365 91.4298 88.0965V87.4965C91.4298 86.3565 90.5098 85.4365 89.3698 85.4365H79.3298C70.7998 85.4365 66.0498 89.8765 66.0498 98.9665C66.0498 108.057 70.7498 112.457 79.3298 112.457H83.8598C90.4298 112.457 92.9998 108.737 92.9998 104.007C92.9998 99.2765 90.4298 96.3565 85.2098 96.3565V96.3765Z" fill="currentColor"/>
<path d="M121.72 85.4465H120.66C119.52 85.4465 118.6 86.3665 118.6 87.5065V94.3965C118.6 95.5365 117.68 96.4565 116.54 96.4565H105.64C104.5 96.4565 103.58 95.5365 103.58 94.3965V87.5065C103.58 86.3665 102.66 85.4465 101.52 85.4465H100.51C99.3697 85.4465 98.4497 86.3665 98.4497 87.5065V110.407C98.4497 111.547 99.3697 112.467 100.51 112.467H101.52C102.66 112.467 103.58 111.547 103.58 110.407V103.237C103.58 102.097 104.5 101.177 105.64 101.177H116.54C117.68 101.177 118.6 102.097 118.6 103.237V110.407C118.6 111.547 119.52 112.467 120.66 112.467H121.72C122.86 112.467 123.78 111.547 123.78 110.407V87.5065C123.78 86.3665 122.86 85.4465 121.72 85.4465Z" fill="currentColor"/>
<path d="M148.4 85.4465H130.19C129.05 85.4465 128.13 86.3665 128.13 87.5065V88.1065C128.13 89.2465 129.05 90.1665 130.19 90.1665H134.64C135.78 90.1665 136.7 91.0865 136.7 92.2265V110.407C136.7 111.547 137.62 112.467 138.76 112.467H139.82C140.96 112.467 141.88 111.547 141.88 110.407V92.2265C141.88 91.0865 142.8 90.1665 143.94 90.1665H148.39C149.53 90.1665 150.45 89.2465 150.45 88.1065V87.5065C150.45 86.3665 149.53 85.4465 148.39 85.4465H148.4Z" fill="currentColor"/>
<path d="M175.48 85.4465H166.18C157.65 85.4465 152.9 89.8865 152.9 98.9765C152.9 108.067 157.6 112.467 166.18 112.467H175.48C176.62 112.467 177.54 111.547 177.54 110.407V109.807C177.54 108.667 176.62 107.747 175.48 107.747H166.18C160.48 107.747 158.04 105.147 158.04 98.9765C158.04 92.8065 160.52 90.1665 166.18 90.1665H175.48C176.62 90.1665 177.54 89.2465 177.54 88.1065V87.5065C177.54 86.3665 176.62 85.4465 175.48 85.4465Z" fill="currentColor"/>
<path d="M199.01 85.4465H195C186.47 85.4465 181.72 89.9265 181.72 99.0165C181.72 108.107 186.42 112.467 195 112.467H199.01C207.59 112.467 212.29 108.067 212.29 99.0165C212.29 89.9665 207.54 85.4465 199.01 85.4465ZM199.01 107.747H195C189.3 107.747 186.86 105.187 186.86 99.0165C186.86 92.8465 189.34 90.1665 195 90.1665H199.01C204.67 90.1665 207.11 92.8065 207.11 98.9765C207.11 105.147 204.67 107.747 199.01 107.747Z" fill="currentColor"/>
<path d="M239.09 100.827C242.01 99.2265 243.19 96.2965 243.19 93.5265C243.19 89.2065 240.36 85.4365 233.74 85.4365H219.87C218.73 85.4365 217.81 86.3565 217.81 87.4965V88.0965C217.81 89.2365 218.73 90.1565 219.87 90.1565H233.92C236.75 90.1565 238.01 91.7965 238.01 93.7165C238.01 95.6365 236.83 97.4765 233.92 97.4765H222.47C219.25 97.4765 217.85 98.7165 217.85 101.757V110.387C217.85 111.527 218.77 112.447 219.91 112.447H220.92C222.06 112.447 222.98 111.527 222.98 110.387V104.057C222.98 102.917 223.9 101.997 225.04 101.997H230.25C230.95 101.997 231.61 102.357 231.99 102.947L237.48 111.497C237.86 112.087 238.51 112.447 239.22 112.447H240.05C241.67 112.447 242.66 110.657 241.79 109.287L238.28 103.747C237.63 102.727 238.02 101.397 239.08 100.817L239.09 100.827Z" fill="currentColor"/>
<path d="M269.99 107.746H257.16C254.16 107.746 252.72 106.466 252.72 104.346C252.72 102.226 254.24 101.066 257.2 101.066H269.72C270.86 101.066 271.78 100.146 271.78 99.0064V98.8464C271.78 97.7064 270.86 96.7864 269.72 96.7864H257.33C254.37 96.7864 252.85 95.7864 252.85 93.5864C252.85 91.5064 254.2 90.1864 257.29 90.1864H269.94C271.08 90.1864 272 89.2664 272 88.1264V87.5264C272 86.3864 271.08 85.4664 269.94 85.4664H257.29C250.37 85.4664 247.45 88.5064 247.45 92.8364C247.45 94.7764 248.04 96.3264 249.22 97.4664C250.04 98.2564 250.03 99.5964 249.21 100.386C248.01 101.536 247.36 103.116 247.36 105.126C247.36 109.326 250.19 112.496 257.16 112.496H269.99C271.13 112.496 272.05 111.576 272.05 110.436V109.836C272.05 108.696 271.13 107.776 269.99 107.776V107.746Z" fill="currentColor"/>
<path d="M282.66 85.2465H281.21C277.95 85.2465 276.23 86.9965 276.23 90.3165C276.23 93.6365 277.95 95.3765 281.21 95.3765H282.66C285.92 95.3765 287.64 93.6265 287.64 90.3165C287.64 87.0065 285.92 85.2465 282.66 85.2465ZM282.66 94.0665H281.21C278.82 94.0665 277.61 92.8065 277.61 90.3165C277.61 87.8265 278.82 86.5565 281.21 86.5565H282.66C285.04 86.5565 286.25 87.8265 286.25 90.3165C286.25 92.8065 285.04 94.0665 282.66 94.0665Z" fill="currentColor"/>
<path d="M283.75 90.6665C284.27 90.3565 284.57 89.8065 284.57 89.1565C284.57 88.3265 284.05 87.4365 282.58 87.4365H279.97C279.63 87.4365 279.35 87.7165 279.35 88.0565C279.35 88.3965 279.63 88.6765 279.97 88.6765H282.61C283 88.6765 283.22 88.8565 283.22 89.1765C283.22 89.3765 283.14 89.7265 282.61 89.7265H280.42C279.7 89.7265 279.36 90.0465 279.36 90.7265V92.3065C279.36 92.6565 279.65 92.9465 280 92.9465H280.05C280.4 92.9465 280.69 92.6565 280.69 92.3065V90.9465H281.87C281.97 90.9465 282.06 90.9965 282.11 91.0765L283.13 92.6565C283.25 92.8365 283.44 92.9465 283.65 92.9465C283.89 92.9465 284.1 92.8265 284.21 92.6165C284.32 92.4065 284.32 92.1665 284.19 91.9665L283.63 91.0765C283.58 90.9965 283.58 90.9165 283.59 90.8665C283.61 90.7865 283.66 90.7165 283.74 90.6665H283.75Z" fill="currentColor"/>
<path d="M120.67 29.2764C120.67 24.9564 122.5 20.8764 125.7 18.0864L125.82 17.9764L125.79 17.8264C125.27 14.8464 124.08 9.84638 121.89 9.64638C121.76 9.61638 121.71 9.62638 121.59 9.64638C118.51 9.99638 116.84 20.0064 116.84 29.2664C116.84 38.5264 118.51 48.5964 121.56 48.8864C121.64 48.9064 121.71 48.9064 121.76 48.9064C121.79 48.9064 121.83 48.9064 121.89 48.8964C124.08 48.7064 125.28 43.6964 125.79 40.7164L125.82 40.5664L125.7 40.4564C122.5 37.6664 120.67 33.5864 120.67 29.2564V29.2764Z" fill="currentColor"/>
<path d="M132.989 15.8464H132.889C132.889 15.8464 132.789 15.8464 132.779 15.8464C130.589 16.0564 129.439 22.7564 129.439 29.2664C129.439 35.7764 130.589 42.4764 132.709 42.6764C132.779 42.6964 132.839 42.6964 132.879 42.6964H132.999C135.179 42.4364 136.319 35.7764 136.319 29.2664C136.319 22.7564 135.149 16.0364 132.979 15.8464H132.989Z" fill="currentColor"/>
<path d="M143.76 24.5564C141.13 24.5564 139 26.6764 139 29.2764C139 31.8764 141.14 33.9964 143.76 33.9964C146.38 33.9964 148.52 31.8764 148.52 29.2764C148.52 26.6764 146.38 24.5564 143.76 24.5564Z" fill="currentColor"/>
<path d="M104.43 29.2764C104.43 22.7664 107.19 16.6164 112.01 12.4064L112.13 12.2964L112.1 12.1464C111.33 7.71639 109.57 0.276383 106.39 0.0263826C106.22 -0.0136174 106.14 -0.00361741 106 0.0263826C101.63 0.506383 99.0195 15.2564 99.0195 29.2764C99.0195 43.2964 101.64 58.1064 105.97 58.5164C106.07 58.5464 106.16 58.5464 106.23 58.5464C106.27 58.5464 106.32 58.5464 106.39 58.5264C109.57 58.2764 111.33 50.8264 112.1 46.4064L112.13 46.2564L112.01 46.1464C107.19 41.9364 104.42 35.7864 104.42 29.2764H104.43Z" fill="currentColor"/>
<path d="M166.98 29.2764C166.98 24.9564 165.15 20.8764 161.95 18.0864L161.83 17.9764L161.86 17.8264C162.38 14.8464 163.57 9.84638 165.76 9.64638C165.89 9.61638 165.94 9.62638 166.06 9.64638C169.14 9.99638 170.81 20.0064 170.81 29.2664C170.81 38.5264 169.14 48.5964 166.09 48.8864C166.01 48.9064 165.94 48.9064 165.89 48.9064C165.86 48.9064 165.82 48.9064 165.76 48.8964C163.57 48.7064 162.37 43.6964 161.86 40.7164L161.83 40.5664L161.95 40.4564C165.15 37.6664 166.98 33.5864 166.98 29.2564V29.2764Z" fill="currentColor"/>
<path d="M154.66 15.8464H154.76C154.76 15.8464 154.86 15.8464 154.87 15.8464C157.06 16.0564 158.21 22.7564 158.21 29.2664C158.21 35.7764 157.06 42.4764 154.94 42.6764C154.87 42.6964 154.81 42.6964 154.77 42.6964H154.65C152.47 42.4364 151.33 35.7764 151.33 29.2664C151.33 22.7564 152.5 16.0364 154.67 15.8464H154.66Z" fill="currentColor"/>
<path d="M183.22 29.2764C183.22 22.7664 180.46 16.6164 175.64 12.4064L175.52 12.2964L175.55 12.1464C176.32 7.71639 178.08 0.276383 181.26 0.0263826C181.43 -0.0136174 181.51 -0.00361741 181.65 0.0263826C186.02 0.506383 188.63 15.2564 188.63 29.2764C188.63 43.2964 186.01 58.1064 181.68 58.5164C181.58 58.5464 181.49 58.5464 181.42 58.5464C181.38 58.5464 181.33 58.5464 181.26 58.5264C178.08 58.2764 176.32 50.8264 175.55 46.4064L175.52 46.2564L175.64 46.1464C180.46 41.9364 183.23 35.7864 183.23 29.2764H183.22Z" fill="currentColor"/>
</svg>
