<svg width="280" height="41" viewBox="0 0 280 41" fill="none" xmlns="http://www.w3.org/2000/svg">
<path d="M93.4805 11.0889H86.3901C80.9401 11.0889 78.8003 13.8389 78.8003 17.6189V28.559C78.8003 29.359 79.4502 29.9989 80.2402 29.9989H80.9502C81.7502 29.9989 82.3901 29.349 82.3901 28.559V23.9689C82.3901 23.1689 83.0401 22.5289 83.8301 22.5289H93.3501C94.1501 22.5289 94.79 21.8789 94.79 21.0889V20.8389C94.79 20.0389 94.1401 19.3989 93.3501 19.3989H83.8301C83.0301 19.3989 82.3901 18.7489 82.3901 17.9589V17.6089C82.3901 15.8389 83.3604 14.4189 86.6304 14.4189H93.4702C94.2702 14.4189 94.9102 13.7689 94.9102 12.9789V12.559C94.9102 11.759 94.2602 11.1189 93.4702 11.1189" fill="currentColor"/>
<path d="M113 26.6888H106.46C103.23 26.6888 102.26 25.2588 102.26 23.4388V12.5289C102.26 11.7289 101.61 11.0889 100.82 11.0889H100.11C99.3104 11.0889 98.6704 11.7389 98.6704 12.5289V23.4689C98.6704 27.2489 100.8 29.9989 106.26 29.9989H113.01C113.81 29.9989 114.45 29.349 114.45 28.559V28.1389C114.45 27.3389 113.8 26.6989 113.01 26.6989" fill="currentColor"/>
<path d="M119.68 11.0889H118.97C118.17 11.0889 117.53 11.7389 117.53 12.5289V28.559C117.53 29.359 118.18 29.9989 118.97 29.9989H119.68C120.48 29.9989 121.12 29.349 121.12 28.559V12.5289C121.12 11.7289 120.47 11.0889 119.68 11.0889Z" fill="currentColor"/>
<path d="M138.42 18.7389H134.93C134.13 18.7389 133.49 19.389 133.49 20.179C133.49 20.969 134.14 21.6189 134.93 21.6189H138.06C139.74 21.6189 140.59 22.5189 140.59 24.0289C140.59 25.5389 139.74 26.6888 137.73 26.6888H134.32C130.33 26.6888 128.62 24.8689 128.62 20.549C128.62 16.229 130.36 14.3889 134.32 14.3889H141.35C142.15 14.3889 142.79 13.7389 142.79 12.9489V12.5289C142.79 11.7289 142.14 11.0889 141.35 11.0889H134.32C128.35 11.0889 125.03 14.199 125.03 20.559C125.03 26.919 128.32 29.9989 134.32 29.9989H137.49C142.09 29.9989 143.89 27.3889 143.89 24.0889C143.89 20.7889 142.09 18.7389 138.44 18.7389" fill="currentColor"/>
<path d="M163.98 11.0889H163.24C162.44 11.0889 161.8 11.7389 161.8 12.5289V17.3489C161.8 18.1489 161.15 18.7889 160.36 18.7889H152.73C151.93 18.7889 151.29 18.1389 151.29 17.3489V12.5289C151.29 11.7289 150.64 11.0889 149.85 11.0889H149.14C148.34 11.0889 147.7 11.7389 147.7 12.5289V28.559C147.7 29.359 148.35 29.9989 149.14 29.9989H149.85C150.65 29.9989 151.29 29.349 151.29 28.559V23.5389C151.29 22.7389 151.94 22.0989 152.73 22.0989H160.36C161.16 22.0989 161.8 22.7489 161.8 23.5389V28.559C161.8 29.359 162.45 29.9989 163.24 29.9989H163.98C164.78 29.9989 165.42 29.349 165.42 28.559V12.5289C165.42 11.7289 164.77 11.0889 163.98 11.0889Z" fill="currentColor"/>
<path d="M182.65 11.0889H169.91C169.11 11.0889 168.47 11.7389 168.47 12.5289V12.9489C168.47 13.7489 169.12 14.3889 169.91 14.3889H173.03C173.83 14.3889 174.47 15.0389 174.47 15.8289V28.549C174.47 29.3489 175.12 29.9889 175.91 29.9889H176.65C177.45 29.9889 178.09 29.339 178.09 28.549V15.8289C178.09 15.0289 178.74 14.3889 179.53 14.3889H182.65C183.45 14.3889 184.09 13.7389 184.09 12.9489V12.5289C184.09 11.7289 183.44 11.0889 182.65 11.0889Z" fill="currentColor"/>
<path d="M201.6 11.0889H195.09C189.12 11.0889 185.8 14.199 185.8 20.559C185.8 26.919 189.09 29.9989 195.09 29.9989H201.6C202.4 29.9989 203.04 29.349 203.04 28.559V28.1389C203.04 27.3389 202.39 26.6989 201.6 26.6989H195.09C191.1 26.6989 189.39 24.879 189.39 20.559C189.39 16.239 191.13 14.3989 195.09 14.3989H201.6C202.4 14.3989 203.04 13.7489 203.04 12.9589V12.5389C203.04 11.7389 202.39 11.0989 201.6 11.0989" fill="currentColor"/>
<path d="M218.06 11.0889H215.26C209.29 11.0889 205.97 14.2289 205.97 20.5889C205.97 26.9489 209.26 30.0089 215.26 30.0089H218.06C224.06 30.0089 227.35 26.9289 227.35 20.5889C227.35 14.2489 224.03 11.0889 218.06 11.0889ZM218.06 26.6989H215.26C211.27 26.6989 209.56 24.9089 209.56 20.5889C209.56 16.2689 211.3 14.3989 215.26 14.3989H218.06C222.02 14.3989 223.73 16.249 223.73 20.559C223.73 24.869 222.02 26.6989 218.06 26.6989Z" fill="currentColor"/>
<path d="M246.12 21.8491C248.16 20.7291 248.99 18.6791 248.99 16.7391C248.99 13.7091 247.01 11.0791 242.38 11.0791H232.67C231.87 11.0791 231.23 11.7292 231.23 12.5192V12.9391C231.23 13.7391 231.88 14.3792 232.67 14.3792H242.5C244.48 14.3792 245.36 15.5291 245.36 16.8691C245.36 18.2091 244.54 19.4991 242.5 19.4991H234.49C232.23 19.4991 231.26 20.3691 231.26 22.4991V28.5392C231.26 29.3392 231.91 29.9791 232.7 29.9791H233.41C234.21 29.9791 234.85 29.3292 234.85 28.5392V24.1091C234.85 23.3091 235.49 22.6692 236.29 22.6692H239.94C240.43 22.6692 240.89 22.9191 241.15 23.3291L244.99 29.3191C245.26 29.7291 245.71 29.9791 246.2 29.9791H246.78C247.92 29.9791 248.61 28.7292 248 27.7692L245.55 23.8892C245.1 23.1692 245.37 22.2391 246.11 21.8391" fill="currentColor"/>
<path d="M267.74 26.6886H258.76C256.66 26.6886 255.65 25.7887 255.65 24.3087C255.65 22.8287 256.72 22.0087 258.79 22.0087H267.56C268.36 22.0087 269 21.3586 269 20.5686V20.4586C269 19.6586 268.35 19.0187 267.56 19.0187H258.89C256.82 19.0187 255.75 18.3187 255.75 16.7787C255.75 15.3187 256.69 14.3987 258.86 14.3987H267.71C268.51 14.3987 269.15 13.7486 269.15 12.9586V12.5387C269.15 11.7387 268.5 11.0986 267.71 11.0986H258.86C254.02 11.0986 251.97 13.2287 251.97 16.2487C251.97 17.6087 252.39 18.6986 253.21 19.4886C253.78 20.0386 253.78 20.9787 253.21 21.5287C252.37 22.3287 251.92 23.4386 251.92 24.8486C251.92 27.7886 253.9 30.0087 258.78 30.0087H267.76C268.56 30.0087 269.2 29.3586 269.2 28.5686V28.1487C269.2 27.3487 268.55 26.7086 267.76 26.7086" fill="currentColor"/>
<path d="M15.1304 20.4791C15.1304 17.4491 16.4104 14.5992 18.6504 12.6492L18.7305 12.5791L18.7104 12.4791C18.3504 10.3991 17.5105 6.88914 15.9805 6.75914C15.8905 6.73914 15.85 6.73914 15.77 6.75914C13.61 6.99914 12.4502 14.0091 12.4502 20.4891C12.4502 26.9691 13.62 34.0191 15.75 34.2191C15.8 34.2291 15.8501 34.2291 15.8901 34.2291C15.9101 34.2291 15.9405 34.2291 15.9805 34.2291C17.5205 34.0991 18.3504 30.5891 18.7104 28.5091L18.7305 28.4092L18.6504 28.3391C16.4104 26.3891 15.1304 23.5291 15.1304 20.4991" fill="currentColor"/>
<path d="M23.7603 11.0791H23.6904C23.6904 11.0791 23.6204 11.0791 23.6104 11.0791C22.0804 11.2291 21.2803 15.9191 21.2803 20.4691C21.2803 25.0191 22.0803 29.7191 23.5703 29.8591C23.6203 29.8691 23.6604 29.8691 23.6904 29.8691H23.77H23.7803C25.3103 29.6991 26.1001 25.0391 26.1001 20.4791C26.1001 15.9191 25.2803 11.2191 23.7603 11.0891" fill="currentColor"/>
<path d="M31.29 17.1689C29.45 17.1689 27.9604 18.6489 27.9604 20.4689C27.9604 22.2889 29.45 23.7689 31.29 23.7689C33.13 23.7689 34.6201 22.2889 34.6201 20.4689C34.6201 18.6489 33.13 17.1689 31.29 17.1689Z" fill="currentColor"/>
<path d="M3.77002 20.4789C3.77002 15.9189 5.71008 11.619 9.08008 8.66896L9.16016 8.59889L9.14014 8.49891C8.60014 5.39891 7.37039 0.198934 5.15039 0.0189339C5.03039 -0.0110661 4.98037 -0.00106609 4.88037 0.0189339C1.82037 0.348934 0 10.6789 0 20.4889C0 30.2989 1.83035 40.6689 4.86035 40.9589C4.93035 40.9789 5.00004 40.9789 5.04004 40.9789C5.07004 40.9789 5.11016 40.9789 5.16016 40.9689C7.39016 40.7889 8.62016 35.5789 9.16016 32.4889L9.18018 32.3889L9.1001 32.3189C5.7301 29.3689 3.79004 25.0689 3.79004 20.5089" fill="currentColor"/>
<path d="M38.9204 11.0791H38.9902C38.9902 11.0791 39.0603 11.0791 39.0703 11.0791C40.6003 11.2291 41.4004 15.9191 41.4004 20.4691C41.4004 25.0191 40.6004 29.7191 39.1104 29.8591C39.0604 29.8691 39.0202 29.8691 38.9902 29.8691H38.9102H38.9004C37.3704 29.6991 36.5801 25.0391 36.5801 20.4791C36.5801 15.9191 37.4004 11.2191 38.9204 11.0891" fill="currentColor"/>
<path d="M47.54 20.4791C47.54 17.4491 46.26 14.5992 44.02 12.6492L43.9404 12.5791L43.9604 12.4791C44.3204 10.3991 45.1604 6.88914 46.6904 6.75914C46.7804 6.73914 46.8204 6.73914 46.9004 6.75914C49.0604 6.99914 50.2202 14.0091 50.2202 20.4891C50.2202 26.9691 49.0504 34.0191 46.9204 34.2191C46.8704 34.2291 46.8203 34.2291 46.7803 34.2291C46.7603 34.2291 46.7304 34.2291 46.6904 34.2291C45.1504 34.0991 44.3204 30.5891 43.9604 28.5091L43.9404 28.4092L44.02 28.3391C46.26 26.3891 47.54 23.5291 47.54 20.4991" fill="currentColor"/>
<path d="M58.9102 20.4789C58.9102 15.9189 56.9701 11.619 53.6001 8.66896L53.52 8.59889L53.54 8.49891C54.08 5.39891 55.3103 0.198934 57.5303 0.0189339C57.6503 -0.0110661 57.7003 -0.00106609 57.8003 0.0189339C60.8603 0.348934 62.6802 10.6789 62.6802 20.4889C62.6802 30.2989 60.8503 40.6689 57.8203 40.9589C57.7503 40.9789 57.6801 40.9789 57.6401 40.9789C57.6101 40.9789 57.57 40.9789 57.52 40.9689C55.29 40.7889 54.06 35.5789 53.52 32.4889L53.5 32.3889L53.5801 32.3189C56.9501 29.3689 58.8901 25.0689 58.8901 20.5089" fill="currentColor"/>
<path d="M276.53 17.2189H275.52C273.86 17.2189 273.02 16.3389 273.02 14.6189C273.02 12.8989 273.86 12.0089 275.52 12.0089H276.53C278.18 12.0089 279.02 12.8889 279.02 14.6189C279.02 16.3489 278.18 17.2189 276.53 17.2189ZM276.53 11.0889H275.52C273.26 11.0889 272.06 12.3089 272.06 14.6089C272.06 16.9089 273.26 18.1189 275.52 18.1189H276.53C278.79 18.1189 279.99 16.8989 279.99 14.6089C279.99 12.3189 278.79 11.0889 276.53 11.0889Z" fill="currentColor"/>
<path d="M277.29 14.8589C277.65 14.6389 277.86 14.259 277.86 13.809C277.86 13.229 277.5 12.6089 276.48 12.6089H274.67C274.43 12.6089 274.24 12.8089 274.24 13.0389C274.24 13.2689 274.43 13.4689 274.67 13.4689H276.5C276.77 13.4689 276.93 13.5988 276.93 13.8188C276.93 13.9588 276.87 14.1989 276.5 14.1989H274.98C274.48 14.1989 274.25 14.4189 274.25 14.8989V15.9989C274.25 16.2389 274.45 16.4388 274.69 16.4388H274.72C274.96 16.4388 275.16 16.2389 275.16 15.9989V15.059H275.98C276.05 15.059 276.11 15.0889 276.15 15.1489L276.86 16.2489C276.94 16.3689 277.08 16.4489 277.22 16.4489C277.38 16.4489 277.53 16.3589 277.61 16.2189C277.69 16.0789 277.68 15.9089 277.6 15.7689L277.21 15.1489C277.17 15.0889 277.18 15.0389 277.19 14.9989C277.2 14.9389 277.24 14.8889 277.29 14.8589Z" fill="currentColor"/>
</svg>
