<svg width="142" height="21" viewBox="0 0 142 21" fill="none" xmlns="http://www.w3.org/2000/svg">
<path d="M47.4102 5.62744H43.8198C41.0498 5.62744 39.9702 7.01738 39.9702 8.93738V14.4874C39.9702 14.8874 40.3002 15.2174 40.7002 15.2174H41.0601C41.4601 15.2174 41.79 14.8874 41.79 14.4874V12.1573C41.79 11.7573 42.12 11.4274 42.52 11.4274H47.3398C47.7498 11.4274 48.0698 11.0974 48.0698 10.6974V10.5674C48.0698 10.1674 47.7398 9.8374 47.3398 9.8374H42.52C42.12 9.8374 41.79 9.50742 41.79 9.10742V8.92737C41.79 8.02737 42.2799 7.30737 43.9399 7.30737H47.4102C47.8102 7.30737 48.1401 6.97739 48.1401 6.57739V6.36743C48.1401 5.96743 47.8102 5.63733 47.4102 5.63733" fill="currentColor"/>
<path d="M57.3101 13.5472H53.9902C52.3502 13.5472 51.8599 12.8272 51.8599 11.8972V6.36731C51.8599 5.96731 51.5299 5.63721 51.1299 5.63721H50.77C50.37 5.63721 50.04 5.96731 50.04 6.36731V11.9172C50.04 13.8372 51.1201 15.2273 53.8901 15.2273H57.3198C57.7198 15.2273 58.0498 14.8973 58.0498 14.4973V14.2872C58.0498 13.8872 57.7198 13.5573 57.3198 13.5573" fill="currentColor"/>
<path d="M60.7002 5.62744H60.3398C59.9398 5.62744 59.6099 5.95742 59.6099 6.35742V14.4874C59.6099 14.8874 59.9398 15.2174 60.3398 15.2174H60.7002C61.1002 15.2174 61.4302 14.8874 61.4302 14.4874V6.35742C61.4302 5.95742 61.1002 5.62744 60.7002 5.62744Z" fill="currentColor"/>
<path d="M70.21 9.50732H68.4399C68.0299 9.50732 67.71 9.83743 67.71 10.2374C67.71 10.6374 68.0399 10.9674 68.4399 10.9674H70.0298C70.8798 10.9674 71.3101 11.4174 71.3101 12.1874C71.3101 12.9574 70.8799 13.5374 69.8599 13.5374H68.1299C66.1099 13.5374 65.2402 12.6174 65.2402 10.4274C65.2402 8.23737 66.1199 7.29736 68.1299 7.29736H71.6899C72.0899 7.29736 72.4199 6.96738 72.4199 6.56738V6.35742C72.4199 5.95742 72.0899 5.62744 71.6899 5.62744H68.1299C65.0999 5.62744 63.4199 7.20737 63.4199 10.4274C63.4199 13.6474 65.0899 15.2174 68.1299 15.2174H69.7402C72.0702 15.2174 72.98 13.8974 72.98 12.2174C72.98 10.5374 72.07 9.50732 70.21 9.50732Z" fill="currentColor"/>
<path d="M83.1602 5.62744H82.7798C82.3698 5.62744 82.0498 5.95742 82.0498 6.35742V8.79736C82.0498 9.20736 81.7198 9.52734 81.3198 9.52734H77.4502C77.0502 9.52734 76.7202 9.19736 76.7202 8.79736V6.35742C76.7202 5.95742 76.3902 5.62744 75.9902 5.62744H75.6299C75.2299 5.62744 74.8999 5.95742 74.8999 6.35742V14.4874C74.8999 14.8874 75.2299 15.2174 75.6299 15.2174H75.9902C76.3902 15.2174 76.7202 14.8874 76.7202 14.4874V11.9474C76.7202 11.5474 77.0502 11.2174 77.4502 11.2174H81.3198C81.7198 11.2174 82.0498 11.5474 82.0498 11.9474V14.4874C82.0498 14.8874 82.3798 15.2174 82.7798 15.2174H83.1602C83.5602 15.2174 83.8901 14.8874 83.8901 14.4874V6.35742C83.8901 5.95742 83.5602 5.62744 83.1602 5.62744Z" fill="currentColor"/>
<path d="M92.6401 5.62744H86.1802C85.7802 5.62744 85.4502 5.95742 85.4502 6.35742V6.56738C85.4502 6.96738 85.7802 7.29736 86.1802 7.29736H87.7598C88.1598 7.29736 88.4902 7.62734 88.4902 8.02734V14.4774C88.4902 14.8774 88.8202 15.2074 89.2202 15.2074H89.6001C90.0001 15.2074 90.3301 14.8774 90.3301 14.4774V8.02734C90.3301 7.62734 90.6601 7.29736 91.0601 7.29736H92.6401C93.0401 7.29736 93.3701 6.96738 93.3701 6.56738V6.35742C93.3701 5.95742 93.0401 5.62744 92.6401 5.62744Z" fill="currentColor"/>
<path d="M102.25 5.62744H98.9502C95.9202 5.62744 94.2402 7.20737 94.2402 10.4274C94.2402 13.6474 95.9102 15.2174 98.9502 15.2174H102.25C102.65 15.2174 102.98 14.8874 102.98 14.4874V14.2773C102.98 13.8773 102.65 13.5474 102.25 13.5474H98.9502C96.9302 13.5474 96.0601 12.6274 96.0601 10.4374C96.0601 8.24738 96.9402 7.30737 98.9502 7.30737H102.25C102.65 7.30737 102.98 6.97739 102.98 6.57739V6.36743C102.98 5.96743 102.65 5.63733 102.25 5.63733" fill="currentColor"/>
<path d="M110.59 5.62744H109.17C106.14 5.62744 104.46 7.21739 104.46 10.4474C104.46 13.6774 106.13 15.2174 109.17 15.2174H110.59C113.63 15.2174 115.3 13.6574 115.3 10.4474C115.3 7.23739 113.62 5.62744 110.59 5.62744ZM110.59 13.5374H109.17C107.15 13.5374 106.28 12.6274 106.28 10.4374C106.28 8.24738 107.16 7.29736 109.17 7.29736H110.59C112.6 7.29736 113.46 8.23737 113.46 10.4274C113.46 12.6174 112.6 13.5374 110.59 13.5374Z" fill="currentColor"/>
<path d="M124.82 11.0874C125.86 10.5174 126.27 9.47744 126.27 8.49744C126.27 6.96744 125.27 5.62744 122.92 5.62744H118C117.6 5.62744 117.27 5.95742 117.27 6.35742V6.56738C117.27 6.96738 117.6 7.29736 118 7.29736H122.99C123.99 7.29736 124.44 7.87738 124.44 8.56738C124.44 9.25738 124.02 9.90735 122.99 9.90735H118.93C117.79 9.90735 117.29 10.3474 117.29 11.4274V14.4874C117.29 14.8974 117.62 15.2174 118.02 15.2174H118.38C118.78 15.2174 119.11 14.8874 119.11 14.4874V12.2474C119.11 11.8474 119.44 11.5173 119.84 11.5173H121.69C121.94 11.5173 122.17 11.6474 122.31 11.8574L124.26 14.8973C124.4 15.1073 124.63 15.2374 124.88 15.2374H125.18C125.76 15.2374 126.11 14.5974 125.8 14.1174L124.56 12.1473C124.33 11.7873 124.47 11.3074 124.84 11.1074" fill="currentColor"/>
<path d="M135.79 13.5472H131.24C130.17 13.5472 129.66 13.0873 129.66 12.3373C129.66 11.5873 130.2 11.1772 131.25 11.1772H135.69C136.09 11.1772 136.42 10.8473 136.42 10.4473V10.3872C136.42 9.98721 136.09 9.65723 135.69 9.65723H131.29C130.24 9.65723 129.7 9.29721 129.7 8.51721C129.7 7.77721 130.18 7.30725 131.28 7.30725H135.77C136.18 7.30725 136.5 6.97727 136.5 6.57727V6.36731C136.5 5.96731 136.17 5.63721 135.77 5.63721H131.28C128.82 5.63721 127.79 6.71731 127.79 8.24731C127.79 8.93731 128 9.48721 128.42 9.88721C128.71 10.1672 128.71 10.6472 128.42 10.9272C127.99 11.3372 127.76 11.8973 127.76 12.6073C127.76 14.0973 128.76 15.2173 131.24 15.2173H135.79C136.19 15.2173 136.52 14.8873 136.52 14.4873V14.2772C136.52 13.8772 136.19 13.5472 135.79 13.5472Z" fill="currentColor"/>
<path d="M7.68018 10.3872C7.68018 8.85721 8.33021 7.40724 9.47021 6.41724L9.50977 6.37732V6.32727C9.31977 5.26727 8.90012 3.49725 8.12012 3.42725C8.07012 3.42725 8.05977 3.42725 8.00977 3.42725C6.91977 3.54725 6.33008 7.10722 6.33008 10.3972C6.33008 13.6872 6.92 17.2573 8 17.3573C8.03 17.3573 8.04982 17.3573 8.06982 17.3573C8.07982 17.3573 8.09986 17.3573 8.10986 17.3573C8.88986 17.2873 9.31 15.5073 9.5 14.4573V14.4072L9.47021 14.3673C8.33021 13.3773 7.68018 11.9272 7.68018 10.3972" fill="currentColor"/>
<path d="M12.0498 5.62744H12.0098H11.9702C11.1902 5.69744 10.79 8.07733 10.79 10.3873C10.79 12.6973 11.2002 15.0773 11.9502 15.1473C11.9702 15.1473 11.9998 15.1473 12.0098 15.1473H12.0498C12.8198 15.0573 13.23 12.6973 13.23 10.3873C13.23 8.07733 12.81 5.69744 12.04 5.62744" fill="currentColor"/>
<path d="M15.8701 8.71729C14.9401 8.71729 14.1802 9.46721 14.1802 10.3872C14.1802 11.3072 14.9401 12.0573 15.8701 12.0573C16.8001 12.0573 17.5601 11.3072 17.5601 10.3872C17.5601 9.46721 16.8001 8.71729 15.8701 8.71729Z" fill="currentColor"/>
<path d="M1.91992 10.3875C1.91992 8.07751 2.89986 5.89751 4.60986 4.39751L4.6499 4.3576V4.30755C4.3699 2.73755 3.73986 0.0975 2.60986 0.0075C2.54986 -0.0025 2.52021 -0.0025 2.47021 0.0075C0.920215 0.1775 -0.00976562 5.4175 -0.00976562 10.3875C-0.00976562 15.3575 0.919961 20.6175 2.45996 20.7675C2.48996 20.7675 2.5298 20.7675 2.5498 20.7675C2.5598 20.7675 2.57986 20.7675 2.60986 20.7675C3.73986 20.6775 4.36014 18.0376 4.64014 16.4676V16.4175L4.60986 16.3776C2.89986 14.8876 1.91992 12.6975 1.91992 10.3875Z" fill="currentColor"/>
<path d="M19.7402 5.62744H19.7798H19.8198C20.5998 5.69744 21 8.07733 21 10.3873C21 12.6973 20.5898 15.0773 19.8398 15.1473C19.8198 15.1473 19.7898 15.1473 19.7798 15.1473H19.7402C18.9702 15.0573 18.5601 12.6973 18.5601 10.3873C18.5601 8.07733 18.98 5.69744 19.75 5.62744" fill="currentColor"/>
<path d="M24.1201 10.3872C24.1201 8.85721 23.4701 7.40724 22.3301 6.41724L22.29 6.37732V6.32727C22.48 5.26727 22.9002 3.49725 23.6802 3.42725C23.7302 3.42725 23.74 3.42725 23.79 3.42725C24.88 3.54725 25.4702 7.10722 25.4702 10.3972C25.4702 13.6872 24.8798 17.2573 23.7998 17.3573C23.7698 17.3573 23.75 17.3573 23.73 17.3573C23.72 17.3573 23.6999 17.3573 23.6899 17.3573C22.9099 17.2873 22.4898 15.5073 22.2998 14.4573V14.4072L22.3301 14.3673C23.4701 13.3773 24.1201 11.9272 24.1201 10.3972" fill="currentColor"/>
<path d="M29.8799 10.3875C29.8799 8.07751 28.8999 5.89751 27.1899 4.39751L27.1499 4.3576V4.30755C27.4299 2.73755 28.0599 0.0975 29.1899 0.0075C29.2499 -0.0025 29.2801 -0.0025 29.3301 0.0075C30.8801 0.1775 31.8101 5.4175 31.8101 10.3875C31.8101 15.3575 30.8798 20.6175 29.3398 20.7675C29.3098 20.7675 29.27 20.7675 29.25 20.7675C29.24 20.7675 29.2199 20.7675 29.1899 20.7675C28.0599 20.6775 27.4402 18.0376 27.1602 16.4676V16.4175L27.1899 16.3776C28.8999 14.8876 29.8799 12.6975 29.8799 10.3875Z" fill="currentColor"/>
<path d="M140.25 8.73743H139.74C138.9 8.73743 138.47 8.29736 138.47 7.41736C138.47 6.53736 138.9 6.0874 139.74 6.0874H140.25C141.09 6.0874 141.51 6.53736 141.51 7.41736C141.51 8.29736 141.08 8.73743 140.25 8.73743ZM140.25 5.62744H139.74C138.59 5.62744 137.98 6.24736 137.98 7.41736C137.98 8.58736 138.59 9.19739 139.74 9.19739H140.25C141.4 9.19739 142.01 8.57736 142.01 7.41736C142.01 6.25736 141.4 5.62744 140.25 5.62744Z" fill="currentColor"/>
<path d="M140.63 7.53748C140.81 7.42748 140.92 7.23745 140.92 7.00745C140.92 6.71745 140.74 6.39746 140.22 6.39746H139.3C139.18 6.39746 139.08 6.49755 139.08 6.61755C139.08 6.73755 139.18 6.83752 139.3 6.83752H140.23C140.37 6.83752 140.44 6.90746 140.44 7.01746C140.44 7.08746 140.41 7.20752 140.23 7.20752H139.46C139.21 7.20752 139.09 7.3175 139.09 7.5575V8.11755C139.09 8.23755 139.19 8.33752 139.32 8.33752H139.34C139.46 8.33752 139.56 8.23755 139.56 8.11755V7.63745H139.98C139.98 7.63745 140.05 7.6575 140.06 7.6875L140.42 8.24756C140.46 8.30756 140.53 8.34753 140.61 8.34753C140.69 8.34753 140.77 8.30754 140.81 8.22754C140.85 8.15754 140.85 8.06756 140.81 7.99756L140.61 7.6875C140.61 7.6875 140.59 7.62754 140.6 7.60754C140.6 7.57754 140.63 7.55748 140.65 7.53748" fill="currentColor"/>
</svg>
